<?xml version="1.0" encoding="UTF-8" standalone="no"?>
<!DOCTYPE svg PUBLIC "-//W3C//DTD SVG 1.1//EN"
 "http://www.w3.org/Graphics/SVG/1.1/DTD/svg11.dtd">
<!-- Generated by graphviz version 2.40.1 (20161225.0304)
 -->
<!-- Title: orphans Pages: 1 -->
<svg width="140pt" height="84pt"
 viewBox="0.00 0.00 140.00 84.00" xmlns="http://www.w3.org/2000/svg" xmlns:xlink="http://www.w3.org/1999/xlink">
<g id="graph0" class="graph" transform="scale(1 1) rotate(0) translate(4 80)">
<title>orphans</title>
<polygon fill="#ffffff" stroke="transparent" points="-4,4 -4,-80 136,-80 136,4 -4,4"/>
<!-- dummy -->
<g id="node1" class="node">
<title>dummy</title>
<g id="a_node1"><a xlink:href="../../tables/dummy.html" xlink:title="dummy" target="_top">
<polygon fill="#ffffff" stroke="transparent" points="8,-4 8,-72 124,-72 124,-4 8,-4"/>
<polygon fill="#f5f5f5" stroke="transparent" points="10,-47 10,-70 122,-70 122,-47 10,-47"/>
<polygon fill="none" stroke="#000000" points="10,-47 10,-70 122,-70 122,-47 10,-47"/>
<text text-anchor="start" x="15" y="-55.6" font-family="Helvetica,sans-Serif" font-weight="bold" font-size="11.00" fill="#000000">dummy</text>
<text text-anchor="start" x="87.0437" y="-55.1" font-family="Helvetica,sans-Serif" font-size="11.00" fill="#000000">[table]</text>
<polygon fill="none" stroke="#000000" points="10,-25 10,-47 80,-47 80,-25 10,-25"/>
<text text-anchor="start" x="30" y="-32.1" font-family="Helvetica,sans-Serif" font-size="11.00" fill="#000000">a</text>
<polygon fill="none" stroke="#000000" points="80,-25 80,-47 122,-47 122,-25 80,-25"/>
<text text-anchor="start" x="82.9644" y="-32.7" font-family="Helvetica,sans-Serif" font-size="11.00" fill="#000000">int4[10]</text>
<polygon fill="#ffffff" stroke="transparent" points="10,-6 10,-25 49,-25 49,-6 10,-6"/>
<polygon fill="none" stroke="#000000" points="10,-6 10,-25 49,-25 49,-6 10,-6"/>
<text text-anchor="start" x="13" y="-12.1" font-family="Helvetica,sans-Serif" font-size="11.00" fill="#000000">&lt; 0</text>
<polygon fill="#ffffff" stroke="transparent" points="49,-6 49,-25 80,-25 80,-6 49,-6"/>
<polygon fill="none" stroke="#000000" points="49,-6 49,-25 80,-25 80,-6 49,-6"/>
<text text-anchor="start" x="70.8862" y="-12.1" font-family="Helvetica,sans-Serif" font-size="11.00" fill="#000000"> &#160;</text>
<polygon fill="#ffffff" stroke="transparent" points="80,-6 80,-25 122,-25 122,-6 80,-6"/>
<polygon fill="none" stroke="#000000" points="80,-6 80,-25 122,-25 122,-6 80,-6"/>
<text text-anchor="start" x="103.4053" y="-12.1" font-family="Helvetica,sans-Serif" font-size="11.00" fill="#000000">0 &gt;</text>
<polygon fill="none" stroke="#000000" stroke-width="2" points="9,-5 9,-71 123,-71 123,-5 9,-5"/>
</a>
</g>
</g>
</g>
</svg>
