<?xml version="1.0" encoding="UTF-8" standalone="no"?>
<!DOCTYPE svg PUBLIC "-//W3C//DTD SVG 1.1//EN"
 "http://www.w3.org/Graphics/SVG/1.1/DTD/svg11.dtd">
<!-- Generated by graphviz version 2.40.1 (20161225.0304)
 -->
<!-- Title: oneDegreeRelationshipsDiagram Pages: 1 -->
<svg width="475pt" height="433pt"
 viewBox="0.00 0.00 474.67 432.70" xmlns="http://www.w3.org/2000/svg" xmlns:xlink="http://www.w3.org/1999/xlink">
<g id="graph0" class="graph" transform="scale(1 1) rotate(0) translate(4 428.7)">
<title>oneDegreeRelationshipsDiagram</title>
<polygon fill="#ffffff" stroke="transparent" points="-4,4 -4,-428.7 470.6691,-428.7 470.6691,4 -4,4"/>
<text text-anchor="middle" x="72.4936" y="-7.3" font-family="Helvetica,sans-Serif" font-size="11.00" fill="#000000">Generated by SchemaSpy</text>
<!-- aspect -->
<g id="node1" class="node">
<title>aspect</title>
<g id="a_node1"><a xlink:href="../../tables/aspect.html" xlink:title="aspect" target="_top">
<polygon fill="#ffffff" stroke="transparent" points="303.6691,-293.7 303.6691,-420.7 423.6691,-420.7 423.6691,-293.7 303.6691,-293.7"/>
<polygon fill="#f5f5f5" stroke="transparent" points="303.6691,-397.2 303.6691,-420.2 423.6691,-420.2 423.6691,-397.2 303.6691,-397.2"/>
<polygon fill="none" stroke="#000000" points="303.6691,-397.2 303.6691,-420.2 423.6691,-420.2 423.6691,-397.2 303.6691,-397.2"/>
<text text-anchor="start" x="308.6691" y="-405.8" font-family="Helvetica,sans-Serif" font-weight="bold" font-size="11.00" fill="#000000">aspect</text>
<text text-anchor="start" x="388.7128" y="-405.3" font-family="Helvetica,sans-Serif" font-size="11.00" fill="#000000">[table]</text>
<polygon fill="none" stroke="#000000" points="303.6691,-375.2 303.6691,-397.2 423.6691,-397.2 423.6691,-375.2 303.6691,-375.2"/>
<image xlink:href="../../images/primaryKeys.png" width="11px" height="12px" preserveAspectRatio="xMinYMin meet" x="308.669" y="-392.2"/>
<text text-anchor="start" x="323.6691" y="-382.3" font-family="Helvetica,sans-Serif" font-size="11.00" fill="#000000">aspect_id</text>
<polygon fill="#ffffff" stroke="transparent" points="303.6691,-353.2 303.6691,-375.2 423.6691,-375.2 423.6691,-353.2 303.6691,-353.2"/>
<polygon fill="none" stroke="#000000" points="303.6691,-353.2 303.6691,-375.2 423.6691,-375.2 423.6691,-353.2 303.6691,-353.2"/>
<text text-anchor="start" x="323.6691" y="-360.3" font-family="Helvetica,sans-Serif" font-size="11.00" fill="#000000">description</text>
<polygon fill="#ffffff" stroke="transparent" points="303.6691,-331.2 303.6691,-353.2 423.6691,-353.2 423.6691,-331.2 303.6691,-331.2"/>
<polygon fill="none" stroke="#000000" points="303.6691,-331.2 303.6691,-353.2 423.6691,-353.2 423.6691,-331.2 303.6691,-331.2"/>
<image xlink:href="../../images/foreignKeys.png" width="11px" height="12px" preserveAspectRatio="xMinYMin meet" x="308.669" y="-348.2"/>
<text text-anchor="start" x="323.6691" y="-338.3" font-family="Helvetica,sans-Serif" font-size="11.00" fill="#000000">aspect_type_id</text>
<polygon fill="none" stroke="#000000" points="303.6691,-312.2 303.6691,-331.2 423.6691,-331.2 423.6691,-312.2 303.6691,-312.2"/>
<text text-anchor="start" x="306.6691" y="-318.3" font-family="Helvetica,sans-Serif" font-size="11.00" fill="#000000">...</text>
<polygon fill="#ffffff" stroke="transparent" points="303.6691,-293.2 303.6691,-312.2 333.6691,-312.2 333.6691,-293.2 303.6691,-293.2"/>
<polygon fill="none" stroke="#000000" points="303.6691,-293.2 303.6691,-312.2 333.6691,-312.2 333.6691,-293.2 303.6691,-293.2"/>
<text text-anchor="start" x="306.6691" y="-299.3" font-family="Helvetica,sans-Serif" font-size="11.00" fill="#000000">&lt; 1</text>
<polygon fill="#ffffff" stroke="transparent" points="333.6691,-293.2 333.6691,-312.2 397.6691,-312.2 397.6691,-293.2 333.6691,-293.2"/>
<polygon fill="none" stroke="#000000" points="333.6691,-293.2 333.6691,-312.2 397.6691,-312.2 397.6691,-293.2 333.6691,-293.2"/>
<text text-anchor="start" x="340.878" y="-299.3" font-family="Helvetica,sans-Serif" font-size="11.00" fill="#000000">2.300 rows</text>
<polygon fill="#ffffff" stroke="transparent" points="397.6691,-293.2 397.6691,-312.2 423.6691,-312.2 423.6691,-293.2 397.6691,-293.2"/>
<polygon fill="none" stroke="#000000" points="397.6691,-293.2 397.6691,-312.2 423.6691,-312.2 423.6691,-293.2 397.6691,-293.2"/>
<text text-anchor="start" x="405.0744" y="-299.3" font-family="Helvetica,sans-Serif" font-size="11.00" fill="#000000">6 &gt;</text>
</a>
</g>
</g>
<!-- aspect_type -->
<g id="node2" class="node">
<title>aspect_type</title>
<g id="a_node2"><a xlink:href="../../tables/aspect_type.html" xlink:title="aspect_type" target="_top">
<polygon fill="#ffffff" stroke="transparent" points="34.6691,-140.2 34.6691,-252.2 219.6691,-252.2 219.6691,-140.2 34.6691,-140.2"/>
<polygon fill="#f5f5f5" stroke="transparent" points="37.1691,-227.2 37.1691,-250.2 218.1691,-250.2 218.1691,-227.2 37.1691,-227.2"/>
<polygon fill="none" stroke="#000000" points="37.1691,-227.2 37.1691,-250.2 218.1691,-250.2 218.1691,-227.2 37.1691,-227.2"/>
<text text-anchor="start" x="42.1691" y="-235.8" font-family="Helvetica,sans-Serif" font-weight="bold" font-size="11.00" fill="#000000">aspect_type</text>
<text text-anchor="start" x="183.2128" y="-235.3" font-family="Helvetica,sans-Serif" font-size="11.00" fill="#000000">[table]</text>
<polygon fill="none" stroke="#000000" points="37.1691,-205.2 37.1691,-227.2 157.1691,-227.2 157.1691,-205.2 37.1691,-205.2"/>
<image xlink:href="../../images/primaryKeys.png" width="11px" height="12px" preserveAspectRatio="xMinYMin meet" x="42.1691" y="-222.2"/>
<text text-anchor="start" x="57.1691" y="-212.3" font-family="Helvetica,sans-Serif" font-size="11.00" fill="#000000">aspect_type_id</text>
<polygon fill="none" stroke="#000000" points="157.1691,-205.2 157.1691,-227.2 218.1691,-227.2 218.1691,-205.2 157.1691,-205.2"/>
<text text-anchor="start" x="160.1691" y="-212.9" font-family="Helvetica,sans-Serif" font-size="11.00" fill="#000000">int4[10]</text>
<polygon fill="#ffffff" stroke="transparent" points="37.1691,-183.2 37.1691,-205.2 157.1691,-205.2 157.1691,-183.2 37.1691,-183.2"/>
<polygon fill="none" stroke="#000000" points="37.1691,-183.2 37.1691,-205.2 157.1691,-205.2 157.1691,-183.2 37.1691,-183.2"/>
<image xlink:href="../../images/foreignKeys.png" width="11px" height="12px" preserveAspectRatio="xMinYMin meet" x="42.1691" y="-200.2"/>
<text text-anchor="start" x="57.1691" y="-190.3" font-family="Helvetica,sans-Serif" font-size="11.00" fill="#000000">super_type_id</text>
<polygon fill="none" stroke="#000000" points="157.1691,-183.2 157.1691,-205.2 218.1691,-205.2 218.1691,-183.2 157.1691,-183.2"/>
<text text-anchor="start" x="160.1691" y="-190.9" font-family="Helvetica,sans-Serif" font-size="11.00" fill="#000000">int4[10]</text>
<polygon fill="none" stroke="#000000" points="37.1691,-161.2 37.1691,-183.2 157.1691,-183.2 157.1691,-161.2 37.1691,-161.2"/>
<text text-anchor="start" x="57.1691" y="-168.3" font-family="Helvetica,sans-Serif" font-size="11.00" fill="#000000">description</text>
<polygon fill="none" stroke="#000000" points="157.1691,-161.2 157.1691,-183.2 218.1691,-183.2 218.1691,-161.2 157.1691,-161.2"/>
<text text-anchor="start" x="160.1631" y="-168.9" font-family="Helvetica,sans-Serif" font-size="11.00" fill="#000000">varchar[50]</text>
<polygon fill="#ffffff" stroke="transparent" points="37.1691,-142.2 37.1691,-161.2 88.1691,-161.2 88.1691,-142.2 37.1691,-142.2"/>
<polygon fill="none" stroke="#000000" points="37.1691,-142.2 37.1691,-161.2 88.1691,-161.2 88.1691,-142.2 37.1691,-142.2"/>
<text text-anchor="start" x="40.1691" y="-148.3" font-family="Helvetica,sans-Serif" font-size="11.00" fill="#000000">&lt; 1</text>
<polygon fill="#ffffff" stroke="transparent" points="88.1691,-142.2 88.1691,-161.2 157.1691,-161.2 157.1691,-142.2 88.1691,-142.2"/>
<polygon fill="none" stroke="#000000" points="88.1691,-142.2 88.1691,-161.2 157.1691,-161.2 157.1691,-142.2 88.1691,-142.2"/>
<text text-anchor="start" x="121.7796" y="-148.3" font-family="Helvetica,sans-Serif" font-size="11.00" fill="#000000">4 rows</text>
<polygon fill="#ffffff" stroke="transparent" points="157.1691,-142.2 157.1691,-161.2 218.1691,-161.2 218.1691,-142.2 157.1691,-142.2"/>
<polygon fill="none" stroke="#000000" points="157.1691,-142.2 157.1691,-161.2 218.1691,-161.2 218.1691,-142.2 157.1691,-142.2"/>
<text text-anchor="start" x="199.5744" y="-148.3" font-family="Helvetica,sans-Serif" font-size="11.00" fill="#000000">4 &gt;</text>
<polygon fill="none" stroke="#000000" stroke-width="2" points="35.6691,-141.2 35.6691,-251.2 218.6691,-251.2 218.6691,-141.2 35.6691,-141.2"/>
</a>
</g>
</g>
<!-- aspect&#45;&gt;aspect_type -->
<g id="edge1" class="edge">
<title>aspect:w&#45;&gt;aspect_type:e</title>
<path fill="none" stroke="#000000" d="M289.2162,-339.0539C273.1976,-330.3225 275.5016,-304.9953 260.6691,-283.2 240.8295,-254.047 253.4325,-216.2 218.1691,-216.2"/>
<polygon fill="#000000" stroke="#000000" points="295.8522,-340.4984 302.9034,-345.7176 299.7606,-341.3492 303.6691,-342.2 303.6691,-342.2 303.6691,-342.2 299.7606,-341.3492 304.4348,-338.6824 295.8522,-340.4984 295.8522,-340.4984"/>
<ellipse fill="none" stroke="#000000" cx="292.7254" cy="-339.8177" rx="3.2" ry="3.2"/>
</g>
<!-- aspect_type&#45;&gt;aspect_type -->
<g id="edge2" class="edge">
<title>aspect_type:w&#45;&gt;aspect_type:e</title>
<path fill="none" stroke="#000000" d="M24.1768,-200.5128C-20.8722,-226.323 -9.8592,-269.2 127.6691,-269.2 277.1691,-269.2 277.1691,-240.5333 218.1691,-216.2"/>
<polygon fill="#000000" stroke="#000000" points="29.9735,-197.6962 38.7424,-197.438 33.5713,-195.9481 37.1691,-194.2 37.1691,-194.2 37.1691,-194.2 33.5713,-195.9481 35.5958,-190.962 29.9735,-197.6962 29.9735,-197.6962"/>
<ellipse fill="none" stroke="#000000" cx="27.0953" cy="-199.0947" rx="3.2" ry="3.2"/>
</g>
<!-- attribute -->
<g id="node3" class="node">
<title>attribute</title>
<g id="a_node3"><a xlink:href="../../tables/attribute.html" xlink:title="attribute" target="_top">
<polygon fill="#ffffff" stroke="transparent" points="303.6691,-145.7 303.6691,-272.7 423.6691,-272.7 423.6691,-145.7 303.6691,-145.7"/>
<polygon fill="#f5f5f5" stroke="transparent" points="303.6691,-249.2 303.6691,-272.2 423.6691,-272.2 423.6691,-249.2 303.6691,-249.2"/>
<polygon fill="none" stroke="#000000" points="303.6691,-249.2 303.6691,-272.2 423.6691,-272.2 423.6691,-249.2 303.6691,-249.2"/>
<text text-anchor="start" x="308.6691" y="-257.8" font-family="Helvetica,sans-Serif" font-weight="bold" font-size="11.00" fill="#000000">attribute</text>
<text text-anchor="start" x="388.7128" y="-257.3" font-family="Helvetica,sans-Serif" font-size="11.00" fill="#000000">[table]</text>
<polygon fill="none" stroke="#000000" points="303.6691,-227.2 303.6691,-249.2 423.6691,-249.2 423.6691,-227.2 303.6691,-227.2"/>
<image xlink:href="../../images/primaryKeys.png" width="11px" height="12px" preserveAspectRatio="xMinYMin meet" x="308.669" y="-244.2"/>
<text text-anchor="start" x="323.6691" y="-234.3" font-family="Helvetica,sans-Serif" font-size="11.00" fill="#000000">attribute_id</text>
<polygon fill="#ffffff" stroke="transparent" points="303.6691,-205.2 303.6691,-227.2 423.6691,-227.2 423.6691,-205.2 303.6691,-205.2"/>
<polygon fill="none" stroke="#000000" points="303.6691,-205.2 303.6691,-227.2 423.6691,-227.2 423.6691,-205.2 303.6691,-205.2"/>
<image xlink:href="../../images/foreignKeys.png" width="11px" height="12px" preserveAspectRatio="xMinYMin meet" x="308.669" y="-222.2"/>
<text text-anchor="start" x="323.6691" y="-212.3" font-family="Helvetica,sans-Serif" font-size="11.00" fill="#000000">aspect_type_id</text>
<polygon fill="#ffffff" stroke="transparent" points="303.6691,-183.2 303.6691,-205.2 423.6691,-205.2 423.6691,-183.2 303.6691,-183.2"/>
<polygon fill="none" stroke="#000000" points="303.6691,-183.2 303.6691,-205.2 423.6691,-205.2 423.6691,-183.2 303.6691,-183.2"/>
<image xlink:href="../../images/foreignKeys.png" width="11px" height="12px" preserveAspectRatio="xMinYMin meet" x="308.669" y="-200.2"/>
<text text-anchor="start" x="323.6691" y="-190.3" font-family="Helvetica,sans-Serif" font-size="11.00" fill="#000000">data_type_id</text>
<polygon fill="none" stroke="#000000" points="303.6691,-164.2 303.6691,-183.2 423.6691,-183.2 423.6691,-164.2 303.6691,-164.2"/>
<text text-anchor="start" x="306.6691" y="-170.3" font-family="Helvetica,sans-Serif" font-size="11.00" fill="#000000">...</text>
<polygon fill="#ffffff" stroke="transparent" points="303.6691,-145.2 303.6691,-164.2 344.6691,-164.2 344.6691,-145.2 303.6691,-145.2"/>
<polygon fill="none" stroke="#000000" points="303.6691,-145.2 303.6691,-164.2 344.6691,-164.2 344.6691,-145.2 303.6691,-145.2"/>
<text text-anchor="start" x="306.6691" y="-151.3" font-family="Helvetica,sans-Serif" font-size="11.00" fill="#000000">&lt; 2</text>
<polygon fill="#ffffff" stroke="transparent" points="344.6691,-145.2 344.6691,-164.2 392.6691,-164.2 392.6691,-145.2 344.6691,-145.2"/>
<polygon fill="none" stroke="#000000" points="344.6691,-145.2 344.6691,-164.2 392.6691,-164.2 392.6691,-145.2 344.6691,-145.2"/>
<text text-anchor="start" x="357.2796" y="-151.3" font-family="Helvetica,sans-Serif" font-size="11.00" fill="#000000">4 rows</text>
<polygon fill="#ffffff" stroke="transparent" points="392.6691,-145.2 392.6691,-164.2 423.6691,-164.2 423.6691,-145.2 392.6691,-145.2"/>
<polygon fill="none" stroke="#000000" points="392.6691,-145.2 392.6691,-164.2 423.6691,-164.2 423.6691,-145.2 392.6691,-145.2"/>
<text text-anchor="start" x="405.0744" y="-151.3" font-family="Helvetica,sans-Serif" font-size="11.00" fill="#000000">1 &gt;</text>
</a>
</g>
</g>
<!-- attribute&#45;&gt;aspect_type -->
<g id="edge3" class="edge">
<title>attribute:w&#45;&gt;aspect_type:e</title>
<path fill="none" stroke="#000000" d="M289.1701,-216.2C262.4336,-216.2 250.8254,-216.2 218.1691,-216.2"/>
<polygon fill="#000000" stroke="#000000" points="295.6691,-216.2001 303.6691,-219.8 299.6691,-216.2 303.6691,-216.2 303.6691,-216.2 303.6691,-216.2 299.6691,-216.2 303.6691,-212.6 295.6691,-216.2001 295.6691,-216.2001"/>
<ellipse fill="none" stroke="#000000" cx="292.4691" cy="-216.2001" rx="3.2" ry="3.2"/>
</g>
<!-- predicate_aspect_type -->
<g id="node4" class="node">
<title>predicate_aspect_type</title>
<g id="a_node4"><a xlink:href="../../tables/predicate_aspect_type.html" xlink:title="predicate_aspect_type" target="_top">
<polygon fill="#ffffff" stroke="transparent" points="268.6691,-38.2 268.6691,-124.2 458.6691,-124.2 458.6691,-38.2 268.6691,-38.2"/>
<polygon fill="#f5f5f5" stroke="transparent" points="268.6691,-101.2 268.6691,-124.2 458.6691,-124.2 458.6691,-101.2 268.6691,-101.2"/>
<polygon fill="none" stroke="#000000" points="268.6691,-101.2 268.6691,-124.2 458.6691,-124.2 458.6691,-101.2 268.6691,-101.2"/>
<text text-anchor="start" x="273.6691" y="-109.8" font-family="Helvetica,sans-Serif" font-weight="bold" font-size="11.00" fill="#000000">predicate_aspect_type</text>
<text text-anchor="start" x="424.191" y="-109.3" font-family="Helvetica,sans-Serif" font-size="11.00" fill="#000000">[table]</text>
<polygon fill="none" stroke="#000000" points="268.6691,-79.2 268.6691,-101.2 458.6691,-101.2 458.6691,-79.2 268.6691,-79.2"/>
<image xlink:href="../../images/primaryKeys.png" width="11px" height="12px" preserveAspectRatio="xMinYMin meet" x="273.669" y="-96.2"/>
<text text-anchor="start" x="297.6691" y="-86.3" font-family="Helvetica,sans-Serif" font-size="11.00" fill="#000000">predicate_id</text>
<polygon fill="none" stroke="#000000" points="268.6691,-57.2 268.6691,-79.2 458.6691,-79.2 458.6691,-57.2 268.6691,-57.2"/>
<image xlink:href="../../images/primaryKeys.png" width="11px" height="12px" preserveAspectRatio="xMinYMin meet" x="273.669" y="-74.2"/>
<text text-anchor="start" x="297.6691" y="-64.3" font-family="Helvetica,sans-Serif" font-size="11.00" fill="#000000">aspect_type_id</text>
<polygon fill="#ffffff" stroke="transparent" points="268.6691,-38.2 268.6691,-57.2 348.6691,-57.2 348.6691,-38.2 268.6691,-38.2"/>
<polygon fill="none" stroke="#000000" points="268.6691,-38.2 268.6691,-57.2 348.6691,-57.2 348.6691,-38.2 268.6691,-38.2"/>
<text text-anchor="start" x="271.6691" y="-44.3" font-family="Helvetica,sans-Serif" font-size="11.00" fill="#000000">&lt; 2</text>
<polygon fill="#ffffff" stroke="transparent" points="348.6691,-38.2 348.6691,-57.2 416.6691,-57.2 416.6691,-38.2 348.6691,-38.2"/>
<polygon fill="none" stroke="#000000" points="348.6691,-38.2 348.6691,-57.2 416.6691,-57.2 416.6691,-38.2 348.6691,-38.2"/>
<text text-anchor="start" x="381.2796" y="-44.3" font-family="Helvetica,sans-Serif" font-size="11.00" fill="#000000">0 rows</text>
<polygon fill="#ffffff" stroke="transparent" points="416.6691,-38.2 416.6691,-57.2 458.6691,-57.2 458.6691,-38.2 416.6691,-38.2"/>
<polygon fill="none" stroke="#000000" points="416.6691,-38.2 416.6691,-57.2 458.6691,-57.2 458.6691,-38.2 416.6691,-38.2"/>
<text text-anchor="start" x="449.5553" y="-44.3" font-family="Helvetica,sans-Serif" font-size="11.00" fill="#000000"> &#160;</text>
</a>
</g>
</g>
<!-- predicate_aspect_type&#45;&gt;aspect_type -->
<g id="edge4" class="edge">
<title>predicate_aspect_type:w&#45;&gt;aspect_type:e</title>
<path fill="none" stroke="#000000" d="M254.3142,-71.1564C212.9188,-92.0155 281.8336,-216.2 218.1691,-216.2"/>
<polygon fill="#000000" stroke="#000000" points="260.8336,-69.8138 269.3953,-71.726 264.7513,-69.0069 268.6691,-68.2 268.6691,-68.2 268.6691,-68.2 264.7513,-69.0069 267.9429,-64.674 260.8336,-69.8138 260.8336,-69.8138"/>
<ellipse fill="none" stroke="#000000" cx="257.6993" cy="-70.4593" rx="3.2" ry="3.2"/>
</g>
</g>
</svg>
