<?xml version="1.0" encoding="UTF-8" standalone="no"?>
<!DOCTYPE svg PUBLIC "-//W3C//DTD SVG 1.1//EN"
 "http://www.w3.org/Graphics/SVG/1.1/DTD/svg11.dtd">
<!-- Generated by graphviz version 2.40.1 (20161225.0304)
 -->
<!-- Title: twoDegreesRelationshipsDiagram Pages: 1 -->
<svg width="637pt" height="629pt"
 viewBox="0.00 0.00 637.17 628.70" xmlns="http://www.w3.org/2000/svg" xmlns:xlink="http://www.w3.org/1999/xlink">
<g id="graph0" class="graph" transform="scale(1 1) rotate(0) translate(4 624.7)">
<title>twoDegreesRelationshipsDiagram</title>
<polygon fill="#ffffff" stroke="transparent" points="-4,4 -4,-624.7 633.1663,-624.7 633.1663,4 -4,4"/>
<text text-anchor="middle" x="72.4936" y="-7.3" font-family="Helvetica,sans-Serif" font-size="11.00" fill="#000000">Generated by SchemaSpy</text>
<!-- aspect -->
<g id="node1" class="node">
<title>aspect</title>
<g id="a_node1"><a xlink:href="../../tables/aspect.html" xlink:title="aspect" target="_top">
<polygon fill="#ffffff" stroke="transparent" points="262.1663,-263.7 262.1663,-390.7 382.1663,-390.7 382.1663,-263.7 262.1663,-263.7"/>
<polygon fill="#f5f5f5" stroke="transparent" points="262.1663,-367.2 262.1663,-390.2 382.1663,-390.2 382.1663,-367.2 262.1663,-367.2"/>
<polygon fill="none" stroke="#000000" points="262.1663,-367.2 262.1663,-390.2 382.1663,-390.2 382.1663,-367.2 262.1663,-367.2"/>
<text text-anchor="start" x="267.1663" y="-375.8" font-family="Helvetica,sans-Serif" font-weight="bold" font-size="11.00" fill="#000000">aspect</text>
<text text-anchor="start" x="347.21" y="-375.3" font-family="Helvetica,sans-Serif" font-size="11.00" fill="#000000">[table]</text>
<polygon fill="none" stroke="#000000" points="262.1663,-345.2 262.1663,-367.2 382.1663,-367.2 382.1663,-345.2 262.1663,-345.2"/>
<image xlink:href="../../images/primaryKeys.png" width="11px" height="12px" preserveAspectRatio="xMinYMin meet" x="267.166" y="-362.2"/>
<text text-anchor="start" x="282.1663" y="-352.3" font-family="Helvetica,sans-Serif" font-size="11.00" fill="#000000">aspect_id</text>
<polygon fill="#ffffff" stroke="transparent" points="262.1663,-323.2 262.1663,-345.2 382.1663,-345.2 382.1663,-323.2 262.1663,-323.2"/>
<polygon fill="none" stroke="#000000" points="262.1663,-323.2 262.1663,-345.2 382.1663,-345.2 382.1663,-323.2 262.1663,-323.2"/>
<text text-anchor="start" x="282.1663" y="-330.3" font-family="Helvetica,sans-Serif" font-size="11.00" fill="#000000">description</text>
<polygon fill="#ffffff" stroke="transparent" points="262.1663,-301.2 262.1663,-323.2 382.1663,-323.2 382.1663,-301.2 262.1663,-301.2"/>
<polygon fill="none" stroke="#000000" points="262.1663,-301.2 262.1663,-323.2 382.1663,-323.2 382.1663,-301.2 262.1663,-301.2"/>
<image xlink:href="../../images/foreignKeys.png" width="11px" height="12px" preserveAspectRatio="xMinYMin meet" x="267.166" y="-318.2"/>
<text text-anchor="start" x="282.1663" y="-308.3" font-family="Helvetica,sans-Serif" font-size="11.00" fill="#000000">aspect_type_id</text>
<polygon fill="none" stroke="#000000" points="262.1663,-282.2 262.1663,-301.2 382.1663,-301.2 382.1663,-282.2 262.1663,-282.2"/>
<text text-anchor="start" x="265.1663" y="-288.3" font-family="Helvetica,sans-Serif" font-size="11.00" fill="#000000">...</text>
<polygon fill="#ffffff" stroke="transparent" points="262.1663,-263.2 262.1663,-282.2 292.1663,-282.2 292.1663,-263.2 262.1663,-263.2"/>
<polygon fill="none" stroke="#000000" points="262.1663,-263.2 262.1663,-282.2 292.1663,-282.2 292.1663,-263.2 262.1663,-263.2"/>
<text text-anchor="start" x="265.1663" y="-269.3" font-family="Helvetica,sans-Serif" font-size="11.00" fill="#000000">&lt; 1</text>
<polygon fill="#ffffff" stroke="transparent" points="292.1663,-263.2 292.1663,-282.2 356.1663,-282.2 356.1663,-263.2 292.1663,-263.2"/>
<polygon fill="none" stroke="#000000" points="292.1663,-263.2 292.1663,-282.2 356.1663,-282.2 356.1663,-263.2 292.1663,-263.2"/>
<text text-anchor="start" x="299.3752" y="-269.3" font-family="Helvetica,sans-Serif" font-size="11.00" fill="#000000">2.300 rows</text>
<polygon fill="#ffffff" stroke="transparent" points="356.1663,-263.2 356.1663,-282.2 382.1663,-282.2 382.1663,-263.2 356.1663,-263.2"/>
<polygon fill="none" stroke="#000000" points="356.1663,-263.2 356.1663,-282.2 382.1663,-282.2 382.1663,-263.2 356.1663,-263.2"/>
<text text-anchor="start" x="363.5716" y="-269.3" font-family="Helvetica,sans-Serif" font-size="11.00" fill="#000000">6 &gt;</text>
</a>
</g>
</g>
<!-- aspect_type -->
<g id="node2" class="node">
<title>aspect_type</title>
<g id="a_node2"><a xlink:href="../../tables/aspect_type.html" xlink:title="aspect_type" target="_top">
<polygon fill="#ffffff" stroke="transparent" points="28.1663,-236.2 28.1663,-348.2 213.1663,-348.2 213.1663,-236.2 28.1663,-236.2"/>
<polygon fill="#f5f5f5" stroke="transparent" points="30.6663,-323.2 30.6663,-346.2 211.6663,-346.2 211.6663,-323.2 30.6663,-323.2"/>
<polygon fill="none" stroke="#000000" points="30.6663,-323.2 30.6663,-346.2 211.6663,-346.2 211.6663,-323.2 30.6663,-323.2"/>
<text text-anchor="start" x="35.6663" y="-331.8" font-family="Helvetica,sans-Serif" font-weight="bold" font-size="11.00" fill="#000000">aspect_type</text>
<text text-anchor="start" x="176.71" y="-331.3" font-family="Helvetica,sans-Serif" font-size="11.00" fill="#000000">[table]</text>
<polygon fill="none" stroke="#000000" points="30.6663,-301.2 30.6663,-323.2 150.6663,-323.2 150.6663,-301.2 30.6663,-301.2"/>
<image xlink:href="../../images/primaryKeys.png" width="11px" height="12px" preserveAspectRatio="xMinYMin meet" x="35.6663" y="-318.2"/>
<text text-anchor="start" x="50.6663" y="-308.3" font-family="Helvetica,sans-Serif" font-size="11.00" fill="#000000">aspect_type_id</text>
<polygon fill="none" stroke="#000000" points="150.6663,-301.2 150.6663,-323.2 211.6663,-323.2 211.6663,-301.2 150.6663,-301.2"/>
<text text-anchor="start" x="153.6663" y="-308.9" font-family="Helvetica,sans-Serif" font-size="11.00" fill="#000000">int4[10]</text>
<polygon fill="#ffffff" stroke="transparent" points="30.6663,-279.2 30.6663,-301.2 150.6663,-301.2 150.6663,-279.2 30.6663,-279.2"/>
<polygon fill="none" stroke="#000000" points="30.6663,-279.2 30.6663,-301.2 150.6663,-301.2 150.6663,-279.2 30.6663,-279.2"/>
<image xlink:href="../../images/foreignKeys.png" width="11px" height="12px" preserveAspectRatio="xMinYMin meet" x="35.6663" y="-296.2"/>
<text text-anchor="start" x="50.6663" y="-286.3" font-family="Helvetica,sans-Serif" font-size="11.00" fill="#000000">super_type_id</text>
<polygon fill="none" stroke="#000000" points="150.6663,-279.2 150.6663,-301.2 211.6663,-301.2 211.6663,-279.2 150.6663,-279.2"/>
<text text-anchor="start" x="153.6663" y="-286.9" font-family="Helvetica,sans-Serif" font-size="11.00" fill="#000000">int4[10]</text>
<polygon fill="none" stroke="#000000" points="30.6663,-257.2 30.6663,-279.2 150.6663,-279.2 150.6663,-257.2 30.6663,-257.2"/>
<text text-anchor="start" x="50.6663" y="-264.3" font-family="Helvetica,sans-Serif" font-size="11.00" fill="#000000">description</text>
<polygon fill="none" stroke="#000000" points="150.6663,-257.2 150.6663,-279.2 211.6663,-279.2 211.6663,-257.2 150.6663,-257.2"/>
<text text-anchor="start" x="153.6603" y="-264.9" font-family="Helvetica,sans-Serif" font-size="11.00" fill="#000000">varchar[50]</text>
<polygon fill="#ffffff" stroke="transparent" points="30.6663,-238.2 30.6663,-257.2 81.6663,-257.2 81.6663,-238.2 30.6663,-238.2"/>
<polygon fill="none" stroke="#000000" points="30.6663,-238.2 30.6663,-257.2 81.6663,-257.2 81.6663,-238.2 30.6663,-238.2"/>
<text text-anchor="start" x="33.6663" y="-244.3" font-family="Helvetica,sans-Serif" font-size="11.00" fill="#000000">&lt; 1</text>
<polygon fill="#ffffff" stroke="transparent" points="81.6663,-238.2 81.6663,-257.2 150.6663,-257.2 150.6663,-238.2 81.6663,-238.2"/>
<polygon fill="none" stroke="#000000" points="81.6663,-238.2 81.6663,-257.2 150.6663,-257.2 150.6663,-238.2 81.6663,-238.2"/>
<text text-anchor="start" x="115.2768" y="-244.3" font-family="Helvetica,sans-Serif" font-size="11.00" fill="#000000">4 rows</text>
<polygon fill="#ffffff" stroke="transparent" points="150.6663,-238.2 150.6663,-257.2 211.6663,-257.2 211.6663,-238.2 150.6663,-238.2"/>
<polygon fill="none" stroke="#000000" points="150.6663,-238.2 150.6663,-257.2 211.6663,-257.2 211.6663,-238.2 150.6663,-238.2"/>
<text text-anchor="start" x="193.0716" y="-244.3" font-family="Helvetica,sans-Serif" font-size="11.00" fill="#000000">4 &gt;</text>
<polygon fill="none" stroke="#000000" stroke-width="2" points="29.1663,-237.2 29.1663,-347.2 212.1663,-347.2 212.1663,-237.2 29.1663,-237.2"/>
</a>
</g>
</g>
<!-- aspect&#45;&gt;aspect_type -->
<g id="edge1" class="edge">
<title>aspect:w&#45;&gt;aspect_type:e</title>
<path fill="none" stroke="#000000" d="M247.5866,-312.2C235.7098,-312.2 228.3243,-312.2 211.6663,-312.2"/>
<polygon fill="#000000" stroke="#000000" points="254.1663,-312.2001 262.1664,-315.8 258.1663,-312.2 262.1663,-312.2 262.1663,-312.2 262.1663,-312.2 258.1663,-312.2 262.1663,-308.6 254.1663,-312.2001 254.1663,-312.2001"/>
<ellipse fill="none" stroke="#000000" cx="250.9663" cy="-312.2001" rx="3.2" ry="3.2"/>
</g>
<!-- aspect_type&#45;&gt;aspect_type -->
<g id="edge5" class="edge">
<title>aspect_type:w&#45;&gt;aspect_type:e</title>
<path fill="none" stroke="#000000" d="M17.9968,-297.6746C-18.0988,-323.588 -6.1618,-365.2 121.1663,-365.2 261.6663,-365.2 261.6663,-336.5333 211.6663,-312.2"/>
<polygon fill="#000000" stroke="#000000" points="23.7761,-294.2651 32.4956,-293.3006 27.2212,-292.2325 30.6663,-290.2 30.6663,-290.2 30.6663,-290.2 27.2212,-292.2325 28.8371,-287.0994 23.7761,-294.2651 23.7761,-294.2651"/>
<ellipse fill="none" stroke="#000000" cx="21.02" cy="-295.8911" rx="3.2" ry="3.2"/>
</g>
<!-- aspect_attribute -->
<g id="node3" class="node">
<title>aspect_attribute</title>
<g id="a_node3"><a xlink:href="../../tables/aspect_attribute.html" xlink:title="aspect_attribute" target="_top">
<polygon fill="#ffffff" stroke="transparent" points="451.1663,-555.7 451.1663,-616.7 601.1663,-616.7 601.1663,-555.7 451.1663,-555.7"/>
<polygon fill="#f5f5f5" stroke="transparent" points="451.1663,-593.2 451.1663,-616.2 601.1663,-616.2 601.1663,-593.2 451.1663,-593.2"/>
<polygon fill="none" stroke="#000000" points="451.1663,-593.2 451.1663,-616.2 601.1663,-616.2 601.1663,-593.2 451.1663,-593.2"/>
<text text-anchor="start" x="456.1663" y="-601.8" font-family="Helvetica,sans-Serif" font-weight="bold" font-size="11.00" fill="#000000">aspect_attribute</text>
<text text-anchor="start" x="566.6882" y="-601.3" font-family="Helvetica,sans-Serif" font-size="11.00" fill="#000000">[table]</text>
<polygon fill="none" stroke="#000000" points="451.1663,-574.2 451.1663,-593.2 601.1663,-593.2 601.1663,-574.2 451.1663,-574.2"/>
<text text-anchor="start" x="454.1663" y="-580.3" font-family="Helvetica,sans-Serif" font-size="11.00" fill="#000000">...</text>
<polygon fill="#ffffff" stroke="transparent" points="451.1663,-555.2 451.1663,-574.2 501.1663,-574.2 501.1663,-555.2 451.1663,-555.2"/>
<polygon fill="none" stroke="#000000" points="451.1663,-555.2 451.1663,-574.2 501.1663,-574.2 501.1663,-555.2 451.1663,-555.2"/>
<text text-anchor="start" x="454.1663" y="-561.3" font-family="Helvetica,sans-Serif" font-size="11.00" fill="#000000">&lt; 3</text>
<polygon fill="#ffffff" stroke="transparent" points="501.1663,-555.2 501.1663,-574.2 574.1663,-574.2 574.1663,-555.2 501.1663,-555.2"/>
<polygon fill="none" stroke="#000000" points="501.1663,-555.2 501.1663,-574.2 574.1663,-574.2 574.1663,-555.2 501.1663,-555.2"/>
<text text-anchor="start" x="517.3752" y="-561.3" font-family="Helvetica,sans-Serif" font-size="11.00" fill="#000000">6.100 rows</text>
<polygon fill="#ffffff" stroke="transparent" points="574.1663,-555.2 574.1663,-574.2 601.1663,-574.2 601.1663,-555.2 574.1663,-555.2"/>
<polygon fill="none" stroke="#000000" points="574.1663,-555.2 574.1663,-574.2 601.1663,-574.2 601.1663,-555.2 574.1663,-555.2"/>
<text text-anchor="start" x="592.0525" y="-561.3" font-family="Helvetica,sans-Serif" font-size="11.00" fill="#000000"> &#160;</text>
</a>
</g>
</g>
<!-- aspect_attribute&#45;&gt;aspect -->
<g id="edge2" class="edge">
<title>aspect_attribute:w&#45;&gt;aspect:e</title>
<path fill="none" stroke="#000000" d="M437.1159,-578.2372C430.1963,-571.3757 429.1042,-558.3437 423.1663,-545.2 405.4725,-506.0344 425.1432,-356.2 382.1663,-356.2"/>
<polygon fill="#000000" stroke="#000000" points="443.623,-580.5356 449.9673,-586.5945 447.3947,-581.8678 451.1663,-583.2 451.1663,-583.2 451.1663,-583.2 447.3947,-581.8678 452.3653,-579.8055 443.623,-580.5356 443.623,-580.5356"/>
<ellipse fill="none" stroke="#000000" cx="440.6057" cy="-579.4698" rx="3.2" ry="3.2"/>
</g>
<!-- attribute -->
<g id="node4" class="node">
<title>attribute</title>
<g id="a_node4"><a xlink:href="../../tables/attribute.html" xlink:title="attribute" target="_top">
<polygon fill="#ffffff" stroke="transparent" points="262.1663,-431.7 262.1663,-558.7 382.1663,-558.7 382.1663,-431.7 262.1663,-431.7"/>
<polygon fill="#f5f5f5" stroke="transparent" points="262.1663,-535.2 262.1663,-558.2 382.1663,-558.2 382.1663,-535.2 262.1663,-535.2"/>
<polygon fill="none" stroke="#000000" points="262.1663,-535.2 262.1663,-558.2 382.1663,-558.2 382.1663,-535.2 262.1663,-535.2"/>
<text text-anchor="start" x="267.1663" y="-543.8" font-family="Helvetica,sans-Serif" font-weight="bold" font-size="11.00" fill="#000000">attribute</text>
<text text-anchor="start" x="347.21" y="-543.3" font-family="Helvetica,sans-Serif" font-size="11.00" fill="#000000">[table]</text>
<polygon fill="none" stroke="#000000" points="262.1663,-513.2 262.1663,-535.2 382.1663,-535.2 382.1663,-513.2 262.1663,-513.2"/>
<image xlink:href="../../images/primaryKeys.png" width="11px" height="12px" preserveAspectRatio="xMinYMin meet" x="267.166" y="-530.2"/>
<text text-anchor="start" x="282.1663" y="-520.3" font-family="Helvetica,sans-Serif" font-size="11.00" fill="#000000">attribute_id</text>
<polygon fill="#ffffff" stroke="transparent" points="262.1663,-491.2 262.1663,-513.2 382.1663,-513.2 382.1663,-491.2 262.1663,-491.2"/>
<polygon fill="none" stroke="#000000" points="262.1663,-491.2 262.1663,-513.2 382.1663,-513.2 382.1663,-491.2 262.1663,-491.2"/>
<image xlink:href="../../images/foreignKeys.png" width="11px" height="12px" preserveAspectRatio="xMinYMin meet" x="267.166" y="-508.2"/>
<text text-anchor="start" x="282.1663" y="-498.3" font-family="Helvetica,sans-Serif" font-size="11.00" fill="#000000">aspect_type_id</text>
<polygon fill="#ffffff" stroke="transparent" points="262.1663,-469.2 262.1663,-491.2 382.1663,-491.2 382.1663,-469.2 262.1663,-469.2"/>
<polygon fill="none" stroke="#000000" points="262.1663,-469.2 262.1663,-491.2 382.1663,-491.2 382.1663,-469.2 262.1663,-469.2"/>
<image xlink:href="../../images/foreignKeys.png" width="11px" height="12px" preserveAspectRatio="xMinYMin meet" x="267.166" y="-486.2"/>
<text text-anchor="start" x="282.1663" y="-476.3" font-family="Helvetica,sans-Serif" font-size="11.00" fill="#000000">data_type_id</text>
<polygon fill="none" stroke="#000000" points="262.1663,-450.2 262.1663,-469.2 382.1663,-469.2 382.1663,-450.2 262.1663,-450.2"/>
<text text-anchor="start" x="265.1663" y="-456.3" font-family="Helvetica,sans-Serif" font-size="11.00" fill="#000000">...</text>
<polygon fill="#ffffff" stroke="transparent" points="262.1663,-431.2 262.1663,-450.2 303.1663,-450.2 303.1663,-431.2 262.1663,-431.2"/>
<polygon fill="none" stroke="#000000" points="262.1663,-431.2 262.1663,-450.2 303.1663,-450.2 303.1663,-431.2 262.1663,-431.2"/>
<text text-anchor="start" x="265.1663" y="-437.3" font-family="Helvetica,sans-Serif" font-size="11.00" fill="#000000">&lt; 2</text>
<polygon fill="#ffffff" stroke="transparent" points="303.1663,-431.2 303.1663,-450.2 351.1663,-450.2 351.1663,-431.2 303.1663,-431.2"/>
<polygon fill="none" stroke="#000000" points="303.1663,-431.2 303.1663,-450.2 351.1663,-450.2 351.1663,-431.2 303.1663,-431.2"/>
<text text-anchor="start" x="315.7768" y="-437.3" font-family="Helvetica,sans-Serif" font-size="11.00" fill="#000000">4 rows</text>
<polygon fill="#ffffff" stroke="transparent" points="351.1663,-431.2 351.1663,-450.2 382.1663,-450.2 382.1663,-431.2 351.1663,-431.2"/>
<polygon fill="none" stroke="#000000" points="351.1663,-431.2 351.1663,-450.2 382.1663,-450.2 382.1663,-431.2 351.1663,-431.2"/>
<text text-anchor="start" x="363.5716" y="-437.3" font-family="Helvetica,sans-Serif" font-size="11.00" fill="#000000">1 &gt;</text>
</a>
</g>
</g>
<!-- aspect_attribute&#45;&gt;attribute -->
<g id="edge3" class="edge">
<title>aspect_attribute:w&#45;&gt;attribute:e</title>
<path fill="none" stroke="#000000" d="M436.9423,-580.0279C413.0781,-567.773 416.8413,-524.2 382.1663,-524.2"/>
<polygon fill="#000000" stroke="#000000" points="443.3581,-581.4586 450.3827,-586.7137 447.2622,-582.3293 451.1663,-583.2 451.1663,-583.2 451.1663,-583.2 447.2622,-582.3293 451.9499,-579.6863 443.3581,-581.4586 443.3581,-581.4586"/>
<ellipse fill="none" stroke="#000000" cx="440.2349" cy="-580.7621" rx="3.2" ry="3.2"/>
</g>
<!-- data_type -->
<g id="node5" class="node">
<title>data_type</title>
<g id="a_node5"><a xlink:href="../../tables/data_type.html" xlink:title="data_type" target="_top">
<polygon fill="#ffffff" stroke="transparent" points="68.1663,-503.7 68.1663,-564.7 173.1663,-564.7 173.1663,-503.7 68.1663,-503.7"/>
<polygon fill="#f5f5f5" stroke="transparent" points="68.6663,-541.2 68.6663,-564.2 173.6663,-564.2 173.6663,-541.2 68.6663,-541.2"/>
<polygon fill="none" stroke="#000000" points="68.6663,-541.2 68.6663,-564.2 173.6663,-564.2 173.6663,-541.2 68.6663,-541.2"/>
<text text-anchor="start" x="73.6663" y="-549.8" font-family="Helvetica,sans-Serif" font-weight="bold" font-size="11.00" fill="#000000">data_type</text>
<text text-anchor="start" x="139.1882" y="-549.3" font-family="Helvetica,sans-Serif" font-size="11.00" fill="#000000">[table]</text>
<polygon fill="none" stroke="#000000" points="68.6663,-522.2 68.6663,-541.2 173.6663,-541.2 173.6663,-522.2 68.6663,-522.2"/>
<text text-anchor="start" x="71.6663" y="-528.3" font-family="Helvetica,sans-Serif" font-size="11.00" fill="#000000">...</text>
<polygon fill="#ffffff" stroke="transparent" points="68.6663,-503.2 68.6663,-522.2 100.6663,-522.2 100.6663,-503.2 68.6663,-503.2"/>
<polygon fill="none" stroke="#000000" points="68.6663,-503.2 68.6663,-522.2 100.6663,-522.2 100.6663,-503.2 68.6663,-503.2"/>
<text text-anchor="start" x="71.6663" y="-509.3" font-family="Helvetica,sans-Serif" font-size="11.00" fill="#000000"> &#160;</text>
<polygon fill="#ffffff" stroke="transparent" points="100.6663,-503.2 100.6663,-522.2 142.6663,-522.2 142.6663,-503.2 100.6663,-503.2"/>
<polygon fill="none" stroke="#000000" points="100.6663,-503.2 100.6663,-522.2 142.6663,-522.2 142.6663,-503.2 100.6663,-503.2"/>
<text text-anchor="start" x="112.7768" y="-509.3" font-family="Helvetica,sans-Serif" font-size="11.00" fill="#000000">1 row</text>
<polygon fill="#ffffff" stroke="transparent" points="142.6663,-503.2 142.6663,-522.2 173.6663,-522.2 173.6663,-503.2 142.6663,-503.2"/>
<polygon fill="none" stroke="#000000" points="142.6663,-503.2 142.6663,-522.2 173.6663,-522.2 173.6663,-503.2 142.6663,-503.2"/>
<text text-anchor="start" x="155.0716" y="-509.3" font-family="Helvetica,sans-Serif" font-size="11.00" fill="#000000">2 &gt;</text>
</a>
</g>
</g>
<!-- aspect_attribute&#45;&gt;data_type -->
<g id="edge4" class="edge">
<title>aspect_attribute:w&#45;&gt;data_type:e</title>
<path fill="none" stroke="#000000" d="M436.3656,-583.2769C360.3333,-584.0594 334.1067,-590.1232 254.1663,-569.2 215.8919,-559.1823 213.23,-531.2 173.6663,-531.2"/>
<polygon fill="#000000" stroke="#000000" points="443.1664,-583.2416 451.1851,-586.8 447.1664,-583.2208 451.1663,-583.2 451.1663,-583.2 451.1663,-583.2 447.1664,-583.2208 451.1476,-579.6 443.1664,-583.2416 443.1664,-583.2416"/>
<ellipse fill="none" stroke="#000000" cx="439.9665" cy="-583.2583" rx="3.2" ry="3.2"/>
</g>
<!-- attribute&#45;&gt;aspect_type -->
<g id="edge6" class="edge">
<title>attribute:w&#45;&gt;aspect_type:e</title>
<path fill="none" stroke="#000000" d="M247.7954,-499.9338C189.9278,-478.4971 293.411,-312.2 211.6663,-312.2"/>
<polygon fill="#000000" stroke="#000000" points="254.264,-500.9538 261.6056,-505.7561 258.2152,-501.5769 262.1663,-502.2 262.1663,-502.2 262.1663,-502.2 258.2152,-501.5769 262.7271,-498.6439 254.264,-500.9538 254.264,-500.9538"/>
<ellipse fill="none" stroke="#000000" cx="251.103" cy="-500.4554" rx="3.2" ry="3.2"/>
</g>
<!-- attribute&#45;&gt;data_type -->
<g id="edge7" class="edge">
<title>attribute:w&#45;&gt;data_type:e</title>
<path fill="none" stroke="#000000" d="M247.6031,-482.2624C216.6256,-491.8037 213.5661,-531.2 173.6663,-531.2"/>
<polygon fill="#000000" stroke="#000000" points="254.2454,-481.3218 262.6711,-483.7644 258.2058,-480.7609 262.1663,-480.2 262.1663,-480.2 262.1663,-480.2 258.2058,-480.7609 261.6615,-476.6356 254.2454,-481.3218 254.2454,-481.3218"/>
<ellipse fill="none" stroke="#000000" cx="251.077" cy="-481.7705" rx="3.2" ry="3.2"/>
</g>
<!-- mat_aspect -->
<g id="node6" class="node">
<title>mat_aspect</title>
<g id="a_node6"><a xlink:href="../../tables/mat_aspect.html" xlink:title="mat_aspect" target="_top">
<polygon fill="#ffffff" stroke="transparent" points="468.1663,-473.7 468.1663,-534.7 584.1663,-534.7 584.1663,-473.7 468.1663,-473.7"/>
<polygon fill="#f5f5f5" stroke="transparent" points="468.1663,-511.2 468.1663,-534.2 584.1663,-534.2 584.1663,-511.2 468.1663,-511.2"/>
<polygon fill="none" stroke="#000000" points="468.1663,-511.2 468.1663,-534.2 584.1663,-534.2 584.1663,-511.2 468.1663,-511.2"/>
<text text-anchor="start" x="473.1663" y="-519.8" font-family="Helvetica,sans-Serif" font-weight="bold" font-size="11.00" fill="#000000">mat_aspect</text>
<text text-anchor="start" x="549.6882" y="-519.3" font-family="Helvetica,sans-Serif" font-size="11.00" fill="#000000">[table]</text>
<polygon fill="none" stroke="#000000" points="468.1663,-492.2 468.1663,-511.2 584.1663,-511.2 584.1663,-492.2 468.1663,-492.2"/>
<text text-anchor="start" x="471.1663" y="-498.3" font-family="Helvetica,sans-Serif" font-size="11.00" fill="#000000">...</text>
<polygon fill="#ffffff" stroke="transparent" points="468.1663,-473.2 468.1663,-492.2 511.1663,-492.2 511.1663,-473.2 468.1663,-473.2"/>
<polygon fill="none" stroke="#000000" points="468.1663,-473.2 468.1663,-492.2 511.1663,-492.2 511.1663,-473.2 468.1663,-473.2"/>
<text text-anchor="start" x="471.1663" y="-479.3" font-family="Helvetica,sans-Serif" font-size="11.00" fill="#000000">&lt; 2</text>
<polygon fill="#ffffff" stroke="transparent" points="511.1663,-473.2 511.1663,-492.2 560.1663,-492.2 560.1663,-473.2 511.1663,-473.2"/>
<polygon fill="none" stroke="#000000" points="511.1663,-473.2 511.1663,-492.2 560.1663,-492.2 560.1663,-473.2 511.1663,-473.2"/>
<text text-anchor="start" x="524.7768" y="-479.3" font-family="Helvetica,sans-Serif" font-size="11.00" fill="#000000">0 rows</text>
<polygon fill="#ffffff" stroke="transparent" points="560.1663,-473.2 560.1663,-492.2 584.1663,-492.2 584.1663,-473.2 560.1663,-473.2"/>
<polygon fill="none" stroke="#000000" points="560.1663,-473.2 560.1663,-492.2 584.1663,-492.2 584.1663,-473.2 560.1663,-473.2"/>
<text text-anchor="start" x="575.0525" y="-479.3" font-family="Helvetica,sans-Serif" font-size="11.00" fill="#000000"> &#160;</text>
</a>
</g>
</g>
<!-- mat_aspect&#45;&gt;aspect -->
<g id="edge8" class="edge">
<title>mat_aspect:w&#45;&gt;aspect:e</title>
<path fill="none" stroke="#000000" d="M453.8638,-498.9337C439.8371,-493.6871 435.0111,-479.8714 423.1663,-463.2 393.6701,-421.6843 433.0935,-356.2 382.1663,-356.2"/>
<polygon fill="#000000" stroke="#000000" points="460.2649,-499.9479 467.6029,-504.7556 464.2156,-500.574 468.1663,-501.2 468.1663,-501.2 468.1663,-501.2 464.2156,-500.574 468.7298,-497.6444 460.2649,-499.9479 460.2649,-499.9479"/>
<ellipse fill="none" stroke="#000000" cx="457.1043" cy="-499.4471" rx="3.2" ry="3.2"/>
</g>
<!-- mo_aspect -->
<g id="node7" class="node">
<title>mo_aspect</title>
<g id="a_node7"><a xlink:href="../../tables/mo_aspect.html" xlink:title="mo_aspect" target="_top">
<polygon fill="#ffffff" stroke="transparent" points="471.1663,-391.7 471.1663,-452.7 581.1663,-452.7 581.1663,-391.7 471.1663,-391.7"/>
<polygon fill="#f5f5f5" stroke="transparent" points="471.1663,-429.2 471.1663,-452.2 581.1663,-452.2 581.1663,-429.2 471.1663,-429.2"/>
<polygon fill="none" stroke="#000000" points="471.1663,-429.2 471.1663,-452.2 581.1663,-452.2 581.1663,-429.2 471.1663,-429.2"/>
<text text-anchor="start" x="476.1663" y="-437.8" font-family="Helvetica,sans-Serif" font-weight="bold" font-size="11.00" fill="#000000">mo_aspect</text>
<text text-anchor="start" x="546.6882" y="-437.3" font-family="Helvetica,sans-Serif" font-size="11.00" fill="#000000">[table]</text>
<polygon fill="none" stroke="#000000" points="471.1663,-410.2 471.1663,-429.2 581.1663,-429.2 581.1663,-410.2 471.1663,-410.2"/>
<text text-anchor="start" x="474.1663" y="-416.3" font-family="Helvetica,sans-Serif" font-size="11.00" fill="#000000">...</text>
<polygon fill="#ffffff" stroke="transparent" points="471.1663,-391.2 471.1663,-410.2 501.1663,-410.2 501.1663,-391.2 471.1663,-391.2"/>
<polygon fill="none" stroke="#000000" points="471.1663,-391.2 471.1663,-410.2 501.1663,-410.2 501.1663,-391.2 471.1663,-391.2"/>
<text text-anchor="start" x="474.1663" y="-397.3" font-family="Helvetica,sans-Serif" font-size="11.00" fill="#000000">&lt; 2</text>
<polygon fill="#ffffff" stroke="transparent" points="501.1663,-391.2 501.1663,-410.2 564.1663,-410.2 564.1663,-391.2 501.1663,-391.2"/>
<polygon fill="none" stroke="#000000" points="501.1663,-391.2 501.1663,-410.2 564.1663,-410.2 564.1663,-391.2 501.1663,-391.2"/>
<text text-anchor="start" x="507.3752" y="-397.3" font-family="Helvetica,sans-Serif" font-size="11.00" fill="#000000">2.000 rows</text>
<polygon fill="#ffffff" stroke="transparent" points="564.1663,-391.2 564.1663,-410.2 581.1663,-410.2 581.1663,-391.2 564.1663,-391.2"/>
<polygon fill="none" stroke="#000000" points="564.1663,-391.2 564.1663,-410.2 581.1663,-410.2 581.1663,-391.2 564.1663,-391.2"/>
<text text-anchor="start" x="572.0525" y="-397.3" font-family="Helvetica,sans-Serif" font-size="11.00" fill="#000000"> &#160;</text>
</a>
</g>
</g>
<!-- mo_aspect&#45;&gt;aspect -->
<g id="edge9" class="edge">
<title>mo_aspect:w&#45;&gt;aspect:e</title>
<path fill="none" stroke="#000000" d="M456.7034,-416.9578C423.7756,-405.735 425.1392,-356.2 382.1663,-356.2"/>
<polygon fill="#000000" stroke="#000000" points="463.2608,-417.9743 470.6148,-422.7575 467.2136,-418.5872 471.1663,-419.2 471.1663,-419.2 471.1663,-419.2 467.2136,-418.5872 471.7179,-415.6425 463.2608,-417.9743 463.2608,-417.9743"/>
<ellipse fill="none" stroke="#000000" cx="460.0985" cy="-417.4841" rx="3.2" ry="3.2"/>
</g>
<!-- mor_aspect -->
<g id="node8" class="node">
<title>mor_aspect</title>
<g id="a_node8"><a xlink:href="../../tables/mor_aspect.html" xlink:title="mor_aspect" target="_top">
<polygon fill="#ffffff" stroke="transparent" points="468.1663,-309.7 468.1663,-370.7 584.1663,-370.7 584.1663,-309.7 468.1663,-309.7"/>
<polygon fill="#f5f5f5" stroke="transparent" points="468.1663,-347.2 468.1663,-370.2 584.1663,-370.2 584.1663,-347.2 468.1663,-347.2"/>
<polygon fill="none" stroke="#000000" points="468.1663,-347.2 468.1663,-370.2 584.1663,-370.2 584.1663,-347.2 468.1663,-347.2"/>
<text text-anchor="start" x="473.1663" y="-355.8" font-family="Helvetica,sans-Serif" font-weight="bold" font-size="11.00" fill="#000000">mor_aspect</text>
<text text-anchor="start" x="549.6882" y="-355.3" font-family="Helvetica,sans-Serif" font-size="11.00" fill="#000000">[table]</text>
<polygon fill="none" stroke="#000000" points="468.1663,-328.2 468.1663,-347.2 584.1663,-347.2 584.1663,-328.2 468.1663,-328.2"/>
<text text-anchor="start" x="471.1663" y="-334.3" font-family="Helvetica,sans-Serif" font-size="11.00" fill="#000000">...</text>
<polygon fill="#ffffff" stroke="transparent" points="468.1663,-309.2 468.1663,-328.2 511.1663,-328.2 511.1663,-309.2 468.1663,-309.2"/>
<polygon fill="none" stroke="#000000" points="468.1663,-309.2 468.1663,-328.2 511.1663,-328.2 511.1663,-309.2 468.1663,-309.2"/>
<text text-anchor="start" x="471.1663" y="-315.3" font-family="Helvetica,sans-Serif" font-size="11.00" fill="#000000">&lt; 2</text>
<polygon fill="#ffffff" stroke="transparent" points="511.1663,-309.2 511.1663,-328.2 560.1663,-328.2 560.1663,-309.2 511.1663,-309.2"/>
<polygon fill="none" stroke="#000000" points="511.1663,-309.2 511.1663,-328.2 560.1663,-328.2 560.1663,-309.2 511.1663,-309.2"/>
<text text-anchor="start" x="524.7768" y="-315.3" font-family="Helvetica,sans-Serif" font-size="11.00" fill="#000000">0 rows</text>
<polygon fill="#ffffff" stroke="transparent" points="560.1663,-309.2 560.1663,-328.2 584.1663,-328.2 584.1663,-309.2 560.1663,-309.2"/>
<polygon fill="none" stroke="#000000" points="560.1663,-309.2 560.1663,-328.2 584.1663,-328.2 584.1663,-309.2 560.1663,-309.2"/>
<text text-anchor="start" x="575.0525" y="-315.3" font-family="Helvetica,sans-Serif" font-size="11.00" fill="#000000"> &#160;</text>
</a>
</g>
</g>
<!-- mor_aspect&#45;&gt;aspect -->
<g id="edge10" class="edge">
<title>mor_aspect:w&#45;&gt;aspect:e</title>
<path fill="none" stroke="#000000" d="M453.7131,-338.1683C426.3261,-342.0402 415.9585,-356.2 382.1663,-356.2"/>
<polygon fill="#000000" stroke="#000000" points="460.1842,-337.7348 468.407,-340.7919 464.1753,-337.4674 468.1663,-337.2 468.1663,-337.2 468.1663,-337.2 464.1753,-337.4674 467.9257,-333.6081 460.1842,-337.7348 460.1842,-337.7348"/>
<ellipse fill="none" stroke="#000000" cx="456.9914" cy="-337.9488" rx="3.2" ry="3.2"/>
</g>
<!-- point_aspect -->
<g id="node9" class="node">
<title>point_aspect</title>
<g id="a_node9"><a xlink:href="../../tables/point_aspect.html" xlink:title="point_aspect" target="_top">
<polygon fill="#ffffff" stroke="transparent" points="463.6663,-227.7 463.6663,-288.7 588.6663,-288.7 588.6663,-227.7 463.6663,-227.7"/>
<polygon fill="#f5f5f5" stroke="transparent" points="464.1663,-265.2 464.1663,-288.2 589.1663,-288.2 589.1663,-265.2 464.1663,-265.2"/>
<polygon fill="none" stroke="#000000" points="464.1663,-265.2 464.1663,-288.2 589.1663,-288.2 589.1663,-265.2 464.1663,-265.2"/>
<text text-anchor="start" x="469.1663" y="-273.8" font-family="Helvetica,sans-Serif" font-weight="bold" font-size="11.00" fill="#000000">point_aspect</text>
<text text-anchor="start" x="554.6882" y="-273.3" font-family="Helvetica,sans-Serif" font-size="11.00" fill="#000000">[table]</text>
<polygon fill="none" stroke="#000000" points="464.1663,-246.2 464.1663,-265.2 589.1663,-265.2 589.1663,-246.2 464.1663,-246.2"/>
<text text-anchor="start" x="467.1663" y="-252.3" font-family="Helvetica,sans-Serif" font-size="11.00" fill="#000000">...</text>
<polygon fill="#ffffff" stroke="transparent" points="464.1663,-227.2 464.1663,-246.2 490.1663,-246.2 490.1663,-227.2 464.1663,-227.2"/>
<polygon fill="none" stroke="#000000" points="464.1663,-227.2 464.1663,-246.2 490.1663,-246.2 490.1663,-227.2 464.1663,-227.2"/>
<text text-anchor="start" x="467.1663" y="-233.3" font-family="Helvetica,sans-Serif" font-size="11.00" fill="#000000">&lt; 2</text>
<polygon fill="#ffffff" stroke="transparent" points="490.1663,-227.2 490.1663,-246.2 574.1663,-246.2 574.1663,-227.2 490.1663,-227.2"/>
<polygon fill="none" stroke="#000000" points="490.1663,-227.2 490.1663,-246.2 574.1663,-246.2 574.1663,-227.2 490.1663,-227.2"/>
<text text-anchor="start" x="495.9736" y="-233.3" font-family="Helvetica,sans-Serif" font-size="11.00" fill="#000000">1.039.258 rows</text>
<polygon fill="#ffffff" stroke="transparent" points="574.1663,-227.2 574.1663,-246.2 589.1663,-246.2 589.1663,-227.2 574.1663,-227.2"/>
<polygon fill="none" stroke="#000000" points="574.1663,-227.2 574.1663,-246.2 589.1663,-246.2 589.1663,-227.2 574.1663,-227.2"/>
<text text-anchor="start" x="580.0525" y="-233.3" font-family="Helvetica,sans-Serif" font-size="11.00" fill="#000000"> &#160;</text>
</a>
</g>
</g>
<!-- point_aspect&#45;&gt;aspect -->
<g id="edge11" class="edge">
<title>point_aspect:w&#45;&gt;aspect:e</title>
<path fill="none" stroke="#000000" d="M449.9569,-258.4905C437.643,-265.6353 436.2754,-283.214 423.1663,-299.2 403.3786,-323.3303 413.3725,-356.2 382.1663,-356.2"/>
<polygon fill="#000000" stroke="#000000" points="456.3726,-257.0049 464.9785,-258.7072 460.2695,-256.1024 464.1663,-255.2 464.1663,-255.2 464.1663,-255.2 460.2695,-256.1024 463.3541,-251.6928 456.3726,-257.0049 456.3726,-257.0049"/>
<ellipse fill="none" stroke="#000000" cx="453.2551" cy="-257.7268" rx="3.2" ry="3.2"/>
</g>
<!-- predicate_aspect -->
<g id="node10" class="node">
<title>predicate_aspect</title>
<g id="a_node10"><a xlink:href="../../tables/predicate_aspect.html" xlink:title="predicate_aspect" target="_top">
<polygon fill="#ffffff" stroke="transparent" points="449.1663,-145.7 449.1663,-206.7 603.1663,-206.7 603.1663,-145.7 449.1663,-145.7"/>
<polygon fill="#f5f5f5" stroke="transparent" points="449.1663,-183.2 449.1663,-206.2 603.1663,-206.2 603.1663,-183.2 449.1663,-183.2"/>
<polygon fill="none" stroke="#000000" points="449.1663,-183.2 449.1663,-206.2 603.1663,-206.2 603.1663,-183.2 449.1663,-183.2"/>
<text text-anchor="start" x="454.1663" y="-191.8" font-family="Helvetica,sans-Serif" font-weight="bold" font-size="11.00" fill="#000000">predicate_aspect</text>
<text text-anchor="start" x="568.6882" y="-191.3" font-family="Helvetica,sans-Serif" font-size="11.00" fill="#000000">[table]</text>
<polygon fill="none" stroke="#000000" points="449.1663,-164.2 449.1663,-183.2 603.1663,-183.2 603.1663,-164.2 449.1663,-164.2"/>
<text text-anchor="start" x="452.1663" y="-170.3" font-family="Helvetica,sans-Serif" font-size="11.00" fill="#000000">...</text>
<polygon fill="#ffffff" stroke="transparent" points="449.1663,-145.2 449.1663,-164.2 511.1663,-164.2 511.1663,-145.2 449.1663,-145.2"/>
<polygon fill="none" stroke="#000000" points="449.1663,-145.2 449.1663,-164.2 511.1663,-164.2 511.1663,-145.2 449.1663,-145.2"/>
<text text-anchor="start" x="452.1663" y="-151.3" font-family="Helvetica,sans-Serif" font-size="11.00" fill="#000000">&lt; 2</text>
<polygon fill="#ffffff" stroke="transparent" points="511.1663,-145.2 511.1663,-164.2 570.1663,-164.2 570.1663,-145.2 511.1663,-145.2"/>
<polygon fill="none" stroke="#000000" points="511.1663,-145.2 511.1663,-164.2 570.1663,-164.2 570.1663,-145.2 511.1663,-145.2"/>
<text text-anchor="start" x="534.7768" y="-151.3" font-family="Helvetica,sans-Serif" font-size="11.00" fill="#000000">0 rows</text>
<polygon fill="#ffffff" stroke="transparent" points="570.1663,-145.2 570.1663,-164.2 603.1663,-164.2 603.1663,-145.2 570.1663,-145.2"/>
<polygon fill="none" stroke="#000000" points="570.1663,-145.2 570.1663,-164.2 603.1663,-164.2 603.1663,-145.2 570.1663,-145.2"/>
<text text-anchor="start" x="594.0525" y="-151.3" font-family="Helvetica,sans-Serif" font-size="11.00" fill="#000000"> &#160;</text>
</a>
</g>
</g>
<!-- predicate_aspect&#45;&gt;aspect -->
<g id="edge12" class="edge">
<title>predicate_aspect:w&#45;&gt;aspect:e</title>
<path fill="none" stroke="#000000" d="M434.7189,-175.3827C375.4454,-196.0296 463.1969,-356.2 382.1663,-356.2"/>
<polygon fill="#000000" stroke="#000000" points="441.2561,-174.3951 449.7041,-176.7596 445.2112,-173.7975 449.1663,-173.2 449.1663,-173.2 449.1663,-173.2 445.2112,-173.7975 448.6285,-169.6404 441.2561,-174.3951 441.2561,-174.3951"/>
<ellipse fill="none" stroke="#000000" cx="438.092" cy="-174.8731" rx="3.2" ry="3.2"/>
</g>
<!-- predicate -->
<g id="node11" class="node">
<title>predicate</title>
<g id="a_node11"><a xlink:href="../../tables/predicate.html" xlink:title="predicate" target="_top">
<polygon fill="#ffffff" stroke="transparent" points="270.6663,-119.7 270.6663,-180.7 373.6663,-180.7 373.6663,-119.7 270.6663,-119.7"/>
<polygon fill="#f5f5f5" stroke="transparent" points="271.1663,-157.2 271.1663,-180.2 374.1663,-180.2 374.1663,-157.2 271.1663,-157.2"/>
<polygon fill="none" stroke="#000000" points="271.1663,-157.2 271.1663,-180.2 374.1663,-180.2 374.1663,-157.2 271.1663,-157.2"/>
<text text-anchor="start" x="276.1663" y="-165.8" font-family="Helvetica,sans-Serif" font-weight="bold" font-size="11.00" fill="#000000">predicate</text>
<text text-anchor="start" x="339.6882" y="-165.3" font-family="Helvetica,sans-Serif" font-size="11.00" fill="#000000">[table]</text>
<polygon fill="none" stroke="#000000" points="271.1663,-138.2 271.1663,-157.2 374.1663,-157.2 374.1663,-138.2 271.1663,-138.2"/>
<text text-anchor="start" x="274.1663" y="-144.3" font-family="Helvetica,sans-Serif" font-size="11.00" fill="#000000">...</text>
<polygon fill="#ffffff" stroke="transparent" points="271.1663,-119.2 271.1663,-138.2 303.1663,-138.2 303.1663,-119.2 271.1663,-119.2"/>
<polygon fill="none" stroke="#000000" points="271.1663,-119.2 271.1663,-138.2 303.1663,-138.2 303.1663,-119.2 271.1663,-119.2"/>
<text text-anchor="start" x="274.1663" y="-125.3" font-family="Helvetica,sans-Serif" font-size="11.00" fill="#000000">&lt; 2</text>
<polygon fill="#ffffff" stroke="transparent" points="303.1663,-119.2 303.1663,-138.2 347.1663,-138.2 347.1663,-119.2 303.1663,-119.2"/>
<polygon fill="none" stroke="#000000" points="303.1663,-119.2 303.1663,-138.2 347.1663,-138.2 347.1663,-119.2 303.1663,-119.2"/>
<text text-anchor="start" x="311.7768" y="-125.3" font-family="Helvetica,sans-Serif" font-size="11.00" fill="#000000">0 rows</text>
<polygon fill="#ffffff" stroke="transparent" points="347.1663,-119.2 347.1663,-138.2 374.1663,-138.2 374.1663,-119.2 347.1663,-119.2"/>
<polygon fill="none" stroke="#000000" points="347.1663,-119.2 347.1663,-138.2 374.1663,-138.2 374.1663,-119.2 347.1663,-119.2"/>
<text text-anchor="start" x="355.5716" y="-125.3" font-family="Helvetica,sans-Serif" font-size="11.00" fill="#000000">2 &gt;</text>
</a>
</g>
</g>
<!-- predicate_aspect&#45;&gt;predicate -->
<g id="edge13" class="edge">
<title>predicate_aspect:w&#45;&gt;predicate:e</title>
<path fill="none" stroke="#000000" d="M434.6525,-171.4941C411.7461,-165.7098 403.9334,-147.2 374.1663,-147.2"/>
<polygon fill="#000000" stroke="#000000" points="441.221,-172.2661 448.7461,-176.7754 445.1937,-172.733 449.1663,-173.2 449.1663,-173.2 449.1663,-173.2 445.1937,-172.733 449.5866,-169.6246 441.221,-172.2661 441.221,-172.2661"/>
<ellipse fill="none" stroke="#000000" cx="438.0429" cy="-171.8925" rx="3.2" ry="3.2"/>
</g>
<!-- predicate_aspect_type -->
<g id="node12" class="node">
<title>predicate_aspect_type</title>
<g id="a_node12"><a xlink:href="../../tables/predicate_aspect_type.html" xlink:title="predicate_aspect_type" target="_top">
<polygon fill="#ffffff" stroke="transparent" points="431.1663,-38.2 431.1663,-124.2 621.1663,-124.2 621.1663,-38.2 431.1663,-38.2"/>
<polygon fill="#f5f5f5" stroke="transparent" points="431.1663,-101.2 431.1663,-124.2 621.1663,-124.2 621.1663,-101.2 431.1663,-101.2"/>
<polygon fill="none" stroke="#000000" points="431.1663,-101.2 431.1663,-124.2 621.1663,-124.2 621.1663,-101.2 431.1663,-101.2"/>
<text text-anchor="start" x="436.1663" y="-109.8" font-family="Helvetica,sans-Serif" font-weight="bold" font-size="11.00" fill="#000000">predicate_aspect_type</text>
<text text-anchor="start" x="586.6882" y="-109.3" font-family="Helvetica,sans-Serif" font-size="11.00" fill="#000000">[table]</text>
<polygon fill="none" stroke="#000000" points="431.1663,-79.2 431.1663,-101.2 621.1663,-101.2 621.1663,-79.2 431.1663,-79.2"/>
<image xlink:href="../../images/primaryKeys.png" width="11px" height="12px" preserveAspectRatio="xMinYMin meet" x="436.166" y="-96.2"/>
<text text-anchor="start" x="460.1663" y="-86.3" font-family="Helvetica,sans-Serif" font-size="11.00" fill="#000000">predicate_id</text>
<polygon fill="none" stroke="#000000" points="431.1663,-57.2 431.1663,-79.2 621.1663,-79.2 621.1663,-57.2 431.1663,-57.2"/>
<image xlink:href="../../images/primaryKeys.png" width="11px" height="12px" preserveAspectRatio="xMinYMin meet" x="436.166" y="-74.2"/>
<text text-anchor="start" x="460.1663" y="-64.3" font-family="Helvetica,sans-Serif" font-size="11.00" fill="#000000">aspect_type_id</text>
<polygon fill="#ffffff" stroke="transparent" points="431.1663,-38.2 431.1663,-57.2 511.1663,-57.2 511.1663,-38.2 431.1663,-38.2"/>
<polygon fill="none" stroke="#000000" points="431.1663,-38.2 431.1663,-57.2 511.1663,-57.2 511.1663,-38.2 431.1663,-38.2"/>
<text text-anchor="start" x="434.1663" y="-44.3" font-family="Helvetica,sans-Serif" font-size="11.00" fill="#000000">&lt; 2</text>
<polygon fill="#ffffff" stroke="transparent" points="511.1663,-38.2 511.1663,-57.2 579.1663,-57.2 579.1663,-38.2 511.1663,-38.2"/>
<polygon fill="none" stroke="#000000" points="511.1663,-38.2 511.1663,-57.2 579.1663,-57.2 579.1663,-38.2 511.1663,-38.2"/>
<text text-anchor="start" x="543.7768" y="-44.3" font-family="Helvetica,sans-Serif" font-size="11.00" fill="#000000">0 rows</text>
<polygon fill="#ffffff" stroke="transparent" points="579.1663,-38.2 579.1663,-57.2 621.1663,-57.2 621.1663,-38.2 579.1663,-38.2"/>
<polygon fill="none" stroke="#000000" points="579.1663,-38.2 579.1663,-57.2 621.1663,-57.2 621.1663,-38.2 579.1663,-38.2"/>
<text text-anchor="start" x="612.0525" y="-44.3" font-family="Helvetica,sans-Serif" font-size="11.00" fill="#000000"> &#160;</text>
</a>
</g>
</g>
<!-- predicate_aspect_type&#45;&gt;aspect_type -->
<g id="edge14" class="edge">
<title>predicate_aspect_type:w&#45;&gt;aspect_type:e</title>
<path fill="none" stroke="#000000" d="M416.492,-68.0265C345.3812,-66.4029 307.1246,-55.1045 254.1663,-109.2 189.6825,-175.0686 303.8446,-312.2 211.6663,-312.2"/>
<polygon fill="#000000" stroke="#000000" points="423.1669,-68.1054 431.1237,-71.7997 427.1666,-68.1527 431.1663,-68.2 431.1663,-68.2 431.1663,-68.2 427.1666,-68.1527 431.2089,-64.6003 423.1669,-68.1054 423.1669,-68.1054"/>
<ellipse fill="none" stroke="#000000" cx="419.9671" cy="-68.0675" rx="3.2" ry="3.2"/>
</g>
<!-- predicate_aspect_type&#45;&gt;predicate -->
<g id="edge15" class="edge">
<title>predicate_aspect_type:w&#45;&gt;predicate:e</title>
<path fill="none" stroke="#000000" d="M417.1633,-94.2993C398.789,-107.3689 404.1152,-147.2 374.1663,-147.2"/>
<polygon fill="#000000" stroke="#000000" points="423.4886,-92.4477 432.1778,-93.655 427.3274,-91.3238 431.1663,-90.2 431.1663,-90.2 431.1663,-90.2 427.3274,-91.3238 430.1549,-86.745 423.4886,-92.4477 423.4886,-92.4477"/>
<ellipse fill="none" stroke="#000000" cx="420.4174" cy="-93.3467" rx="3.2" ry="3.2"/>
</g>
</g>
</svg>
