<?xml version="1.0" encoding="UTF-8" standalone="no"?>
<!DOCTYPE svg PUBLIC "-//W3C//DTD SVG 1.1//EN"
 "http://www.w3.org/Graphics/SVG/1.1/DTD/svg11.dtd">
<!-- Generated by graphviz version 2.40.1 (20161225.0304)
 -->
<!-- Title: oneDegreeRelationshipsDiagram Pages: 1 -->
<svg width="599pt" height="362pt"
 viewBox="0.00 0.00 599.00 362.20" xmlns="http://www.w3.org/2000/svg" xmlns:xlink="http://www.w3.org/1999/xlink">
<g id="graph0" class="graph" transform="scale(1 1) rotate(0) translate(4 358.2)">
<title>oneDegreeRelationshipsDiagram</title>
<polygon fill="#ffffff" stroke="transparent" points="-4,4 -4,-358.2 595,-358.2 595,4 -4,4"/>
<text text-anchor="middle" x="72.4936" y="-7.3" font-family="Helvetica,sans-Serif" font-size="11.00" fill="#000000">Generated by SchemaSpy</text>
<!-- aspect_attribute -->
<g id="node1" class="node">
<title>aspect_attribute</title>
<g id="a_node1"><a xlink:href="../../tables/aspect_attribute.html" xlink:title="aspect_attribute" target="_top">
<polygon fill="#ffffff" stroke="transparent" points="357,-91.7 357,-225.7 583,-225.7 583,-91.7 357,-91.7"/>
<polygon fill="#f5f5f5" stroke="transparent" points="359,-200.7 359,-223.7 581,-223.7 581,-200.7 359,-200.7"/>
<polygon fill="none" stroke="#000000" points="359,-200.7 359,-223.7 581,-223.7 581,-200.7 359,-200.7"/>
<text text-anchor="start" x="364" y="-209.3" font-family="Helvetica,sans-Serif" font-weight="bold" font-size="11.00" fill="#000000">aspect_attribute</text>
<text text-anchor="start" x="546.0437" y="-208.8" font-family="Helvetica,sans-Serif" font-size="11.00" fill="#000000">[table]</text>
<polygon fill="none" stroke="#000000" points="359,-178.7 359,-200.7 491,-200.7 491,-178.7 359,-178.7"/>
<image xlink:href="../../images/primaryKeys.png" width="11px" height="12px" preserveAspectRatio="xMinYMin meet" x="364" y="-195.7"/>
<text text-anchor="start" x="379" y="-185.8" font-family="Helvetica,sans-Serif" font-size="11.00" fill="#000000">aspect_id</text>
<polygon fill="none" stroke="#000000" points="491,-178.7 491,-200.7 581,-200.7 581,-178.7 491,-178.7"/>
<text text-anchor="start" x="494" y="-186.4" font-family="Helvetica,sans-Serif" font-size="11.00" fill="#000000">int4[10]</text>
<polygon fill="none" stroke="#000000" points="359,-156.7 359,-178.7 491,-178.7 491,-156.7 359,-156.7"/>
<image xlink:href="../../images/primaryKeys.png" width="11px" height="12px" preserveAspectRatio="xMinYMin meet" x="364" y="-173.7"/>
<text text-anchor="start" x="379" y="-163.8" font-family="Helvetica,sans-Serif" font-size="11.00" fill="#000000">attribute_id</text>
<polygon fill="none" stroke="#000000" points="491,-156.7 491,-178.7 581,-178.7 581,-156.7 491,-156.7"/>
<text text-anchor="start" x="494" y="-164.4" font-family="Helvetica,sans-Serif" font-size="11.00" fill="#000000">int4[10]</text>
<polygon fill="none" stroke="#000000" points="359,-134.7 359,-156.7 491,-156.7 491,-134.7 359,-134.7"/>
<text text-anchor="start" x="379" y="-141.8" font-family="Helvetica,sans-Serif" font-size="11.00" fill="#000000">value</text>
<polygon fill="none" stroke="#000000" points="491,-134.7 491,-156.7 581,-156.7 581,-134.7 491,-134.7"/>
<text text-anchor="start" x="493.5043" y="-142.4" font-family="Helvetica,sans-Serif" font-size="11.00" fill="#000000">text[2147483647]</text>
<polygon fill="#ffffff" stroke="transparent" points="359,-112.7 359,-134.7 491,-134.7 491,-112.7 359,-112.7"/>
<polygon fill="none" stroke="#000000" points="359,-112.7 359,-134.7 491,-134.7 491,-112.7 359,-112.7"/>
<image xlink:href="../../images/foreignKeys.png" width="11px" height="12px" preserveAspectRatio="xMinYMin meet" x="364" y="-129.7"/>
<text text-anchor="start" x="379" y="-119.8" font-family="Helvetica,sans-Serif" font-size="11.00" fill="#000000">data_type_id</text>
<polygon fill="none" stroke="#000000" points="491,-112.7 491,-134.7 581,-134.7 581,-112.7 491,-112.7"/>
<text text-anchor="start" x="494" y="-120.4" font-family="Helvetica,sans-Serif" font-size="11.00" fill="#000000">int4[10]</text>
<polygon fill="#ffffff" stroke="transparent" points="359,-93.7 359,-112.7 406,-112.7 406,-93.7 359,-93.7"/>
<polygon fill="none" stroke="#000000" points="359,-93.7 359,-112.7 406,-112.7 406,-93.7 359,-93.7"/>
<text text-anchor="start" x="362" y="-99.8" font-family="Helvetica,sans-Serif" font-size="11.00" fill="#000000">&lt; 3</text>
<polygon fill="#ffffff" stroke="transparent" points="406,-93.7 406,-112.7 491,-112.7 491,-93.7 406,-93.7"/>
<polygon fill="none" stroke="#000000" points="406,-93.7 406,-112.7 491,-112.7 491,-93.7 406,-93.7"/>
<text text-anchor="start" x="434.2089" y="-99.8" font-family="Helvetica,sans-Serif" font-size="11.00" fill="#000000">6.100 rows</text>
<polygon fill="#ffffff" stroke="transparent" points="491,-93.7 491,-112.7 581,-112.7 581,-93.7 491,-93.7"/>
<polygon fill="none" stroke="#000000" points="491,-93.7 491,-112.7 581,-112.7 581,-93.7 491,-93.7"/>
<text text-anchor="start" x="562.4053" y="-99.8" font-family="Helvetica,sans-Serif" font-size="11.00" fill="#000000">0 &gt;</text>
<polygon fill="none" stroke="#000000" stroke-width="2" points="358,-92.7 358,-224.7 582,-224.7 582,-92.7 358,-92.7"/>
</a>
</g>
</g>
<!-- aspect -->
<g id="node2" class="node">
<title>aspect</title>
<g id="a_node2"><a xlink:href="../../tables/aspect.html" xlink:title="aspect" target="_top">
<polygon fill="#ffffff" stroke="transparent" points="188,-223.2 188,-350.2 308,-350.2 308,-223.2 188,-223.2"/>
<polygon fill="#f5f5f5" stroke="transparent" points="188,-326.7 188,-349.7 308,-349.7 308,-326.7 188,-326.7"/>
<polygon fill="none" stroke="#000000" points="188,-326.7 188,-349.7 308,-349.7 308,-326.7 188,-326.7"/>
<text text-anchor="start" x="193" y="-335.3" font-family="Helvetica,sans-Serif" font-weight="bold" font-size="11.00" fill="#000000">aspect</text>
<text text-anchor="start" x="273.0437" y="-334.8" font-family="Helvetica,sans-Serif" font-size="11.00" fill="#000000">[table]</text>
<polygon fill="none" stroke="#000000" points="188,-304.7 188,-326.7 308,-326.7 308,-304.7 188,-304.7"/>
<image xlink:href="../../images/primaryKeys.png" width="11px" height="12px" preserveAspectRatio="xMinYMin meet" x="193" y="-321.7"/>
<text text-anchor="start" x="208" y="-311.8" font-family="Helvetica,sans-Serif" font-size="11.00" fill="#000000">aspect_id</text>
<polygon fill="#ffffff" stroke="transparent" points="188,-282.7 188,-304.7 308,-304.7 308,-282.7 188,-282.7"/>
<polygon fill="none" stroke="#000000" points="188,-282.7 188,-304.7 308,-304.7 308,-282.7 188,-282.7"/>
<text text-anchor="start" x="208" y="-289.8" font-family="Helvetica,sans-Serif" font-size="11.00" fill="#000000">description</text>
<polygon fill="#ffffff" stroke="transparent" points="188,-260.7 188,-282.7 308,-282.7 308,-260.7 188,-260.7"/>
<polygon fill="none" stroke="#000000" points="188,-260.7 188,-282.7 308,-282.7 308,-260.7 188,-260.7"/>
<image xlink:href="../../images/foreignKeys.png" width="11px" height="12px" preserveAspectRatio="xMinYMin meet" x="193" y="-277.7"/>
<text text-anchor="start" x="208" y="-267.8" font-family="Helvetica,sans-Serif" font-size="11.00" fill="#000000">aspect_type_id</text>
<polygon fill="none" stroke="#000000" points="188,-241.7 188,-260.7 308,-260.7 308,-241.7 188,-241.7"/>
<text text-anchor="start" x="191" y="-247.8" font-family="Helvetica,sans-Serif" font-size="11.00" fill="#000000">...</text>
<polygon fill="#ffffff" stroke="transparent" points="188,-222.7 188,-241.7 218,-241.7 218,-222.7 188,-222.7"/>
<polygon fill="none" stroke="#000000" points="188,-222.7 188,-241.7 218,-241.7 218,-222.7 188,-222.7"/>
<text text-anchor="start" x="191" y="-228.8" font-family="Helvetica,sans-Serif" font-size="11.00" fill="#000000">&lt; 1</text>
<polygon fill="#ffffff" stroke="transparent" points="218,-222.7 218,-241.7 282,-241.7 282,-222.7 218,-222.7"/>
<polygon fill="none" stroke="#000000" points="218,-222.7 218,-241.7 282,-241.7 282,-222.7 218,-222.7"/>
<text text-anchor="start" x="225.2089" y="-228.8" font-family="Helvetica,sans-Serif" font-size="11.00" fill="#000000">2.300 rows</text>
<polygon fill="#ffffff" stroke="transparent" points="282,-222.7 282,-241.7 308,-241.7 308,-222.7 282,-222.7"/>
<polygon fill="none" stroke="#000000" points="282,-222.7 282,-241.7 308,-241.7 308,-222.7 282,-222.7"/>
<text text-anchor="start" x="289.4053" y="-228.8" font-family="Helvetica,sans-Serif" font-size="11.00" fill="#000000">6 &gt;</text>
</a>
</g>
</g>
<!-- aspect_attribute&#45;&gt;aspect -->
<g id="edge1" class="edge">
<title>aspect_attribute:w&#45;&gt;aspect:e</title>
<path fill="none" stroke="#000000" d="M344.7844,-193.0702C310.9826,-213.1077 362.5136,-315.7 308,-315.7"/>
<polygon fill="#000000" stroke="#000000" points="351.2158,-191.5455 359.8305,-193.2029 355.1079,-190.6228 359,-189.7 359,-189.7 359,-189.7 355.1079,-190.6228 358.1695,-186.1971 351.2158,-191.5455 351.2158,-191.5455"/>
<ellipse fill="none" stroke="#000000" cx="348.1021" cy="-192.2837" rx="3.2" ry="3.2"/>
</g>
<!-- attribute -->
<g id="node3" class="node">
<title>attribute</title>
<g id="a_node3"><a xlink:href="../../tables/attribute.html" xlink:title="attribute" target="_top">
<polygon fill="#ffffff" stroke="transparent" points="188,-75.2 188,-202.2 308,-202.2 308,-75.2 188,-75.2"/>
<polygon fill="#f5f5f5" stroke="transparent" points="188,-178.7 188,-201.7 308,-201.7 308,-178.7 188,-178.7"/>
<polygon fill="none" stroke="#000000" points="188,-178.7 188,-201.7 308,-201.7 308,-178.7 188,-178.7"/>
<text text-anchor="start" x="193" y="-187.3" font-family="Helvetica,sans-Serif" font-weight="bold" font-size="11.00" fill="#000000">attribute</text>
<text text-anchor="start" x="273.0437" y="-186.8" font-family="Helvetica,sans-Serif" font-size="11.00" fill="#000000">[table]</text>
<polygon fill="none" stroke="#000000" points="188,-156.7 188,-178.7 308,-178.7 308,-156.7 188,-156.7"/>
<image xlink:href="../../images/primaryKeys.png" width="11px" height="12px" preserveAspectRatio="xMinYMin meet" x="193" y="-173.7"/>
<text text-anchor="start" x="208" y="-163.8" font-family="Helvetica,sans-Serif" font-size="11.00" fill="#000000">attribute_id</text>
<polygon fill="#ffffff" stroke="transparent" points="188,-134.7 188,-156.7 308,-156.7 308,-134.7 188,-134.7"/>
<polygon fill="none" stroke="#000000" points="188,-134.7 188,-156.7 308,-156.7 308,-134.7 188,-134.7"/>
<image xlink:href="../../images/foreignKeys.png" width="11px" height="12px" preserveAspectRatio="xMinYMin meet" x="193" y="-151.7"/>
<text text-anchor="start" x="208" y="-141.8" font-family="Helvetica,sans-Serif" font-size="11.00" fill="#000000">aspect_type_id</text>
<polygon fill="#ffffff" stroke="transparent" points="188,-112.7 188,-134.7 308,-134.7 308,-112.7 188,-112.7"/>
<polygon fill="none" stroke="#000000" points="188,-112.7 188,-134.7 308,-134.7 308,-112.7 188,-112.7"/>
<image xlink:href="../../images/foreignKeys.png" width="11px" height="12px" preserveAspectRatio="xMinYMin meet" x="193" y="-129.7"/>
<text text-anchor="start" x="208" y="-119.8" font-family="Helvetica,sans-Serif" font-size="11.00" fill="#000000">data_type_id</text>
<polygon fill="none" stroke="#000000" points="188,-93.7 188,-112.7 308,-112.7 308,-93.7 188,-93.7"/>
<text text-anchor="start" x="191" y="-99.8" font-family="Helvetica,sans-Serif" font-size="11.00" fill="#000000">...</text>
<polygon fill="#ffffff" stroke="transparent" points="188,-74.7 188,-93.7 229,-93.7 229,-74.7 188,-74.7"/>
<polygon fill="none" stroke="#000000" points="188,-74.7 188,-93.7 229,-93.7 229,-74.7 188,-74.7"/>
<text text-anchor="start" x="191" y="-80.8" font-family="Helvetica,sans-Serif" font-size="11.00" fill="#000000">&lt; 2</text>
<polygon fill="#ffffff" stroke="transparent" points="229,-74.7 229,-93.7 277,-93.7 277,-74.7 229,-74.7"/>
<polygon fill="none" stroke="#000000" points="229,-74.7 229,-93.7 277,-93.7 277,-74.7 229,-74.7"/>
<text text-anchor="start" x="241.6105" y="-80.8" font-family="Helvetica,sans-Serif" font-size="11.00" fill="#000000">4 rows</text>
<polygon fill="#ffffff" stroke="transparent" points="277,-74.7 277,-93.7 308,-93.7 308,-74.7 277,-74.7"/>
<polygon fill="none" stroke="#000000" points="277,-74.7 277,-93.7 308,-93.7 308,-74.7 277,-74.7"/>
<text text-anchor="start" x="289.4053" y="-80.8" font-family="Helvetica,sans-Serif" font-size="11.00" fill="#000000">1 &gt;</text>
</a>
</g>
</g>
<!-- aspect_attribute&#45;&gt;attribute -->
<g id="edge2" class="edge">
<title>aspect_attribute:w&#45;&gt;attribute:e</title>
<path fill="none" stroke="#000000" d="M344.276,-167.7C332.2815,-167.7 324.8229,-167.7 308,-167.7"/>
<polygon fill="#000000" stroke="#000000" points="351,-167.7001 359,-171.3 355,-167.7 359,-167.7 359,-167.7 359,-167.7 355,-167.7 359,-164.1 351,-167.7001 351,-167.7001"/>
<ellipse fill="none" stroke="#000000" cx="347.8" cy="-167.7001" rx="3.2" ry="3.2"/>
</g>
<!-- data_type -->
<g id="node4" class="node">
<title>data_type</title>
<g id="a_node4"><a xlink:href="../../tables/data_type.html" xlink:title="data_type" target="_top">
<polygon fill="#ffffff" stroke="transparent" points="8,-38.2 8,-121.2 139,-121.2 139,-38.2 8,-38.2"/>
<polygon fill="#f5f5f5" stroke="transparent" points="8.5,-97.7 8.5,-120.7 139.5,-120.7 139.5,-97.7 8.5,-97.7"/>
<polygon fill="none" stroke="#000000" points="8.5,-97.7 8.5,-120.7 139.5,-120.7 139.5,-97.7 8.5,-97.7"/>
<text text-anchor="start" x="13.5" y="-106.3" font-family="Helvetica,sans-Serif" font-weight="bold" font-size="11.00" fill="#000000">data_type</text>
<text text-anchor="start" x="104.5437" y="-105.8" font-family="Helvetica,sans-Serif" font-size="11.00" fill="#000000">[table]</text>
<polygon fill="none" stroke="#000000" points="8.5,-75.7 8.5,-97.7 139.5,-97.7 139.5,-75.7 8.5,-75.7"/>
<image xlink:href="../../images/primaryKeys.png" width="11px" height="12px" preserveAspectRatio="xMinYMin meet" x="13.5" y="-92.7"/>
<text text-anchor="start" x="28.5" y="-82.8" font-family="Helvetica,sans-Serif" font-size="11.00" fill="#000000">data_type_id</text>
<polygon fill="none" stroke="#000000" points="8.5,-56.7 8.5,-75.7 139.5,-75.7 139.5,-56.7 8.5,-56.7"/>
<text text-anchor="start" x="11.5" y="-62.8" font-family="Helvetica,sans-Serif" font-size="11.00" fill="#000000">...</text>
<polygon fill="#ffffff" stroke="transparent" points="8.5,-37.7 8.5,-56.7 53.5,-56.7 53.5,-37.7 8.5,-37.7"/>
<polygon fill="none" stroke="#000000" points="8.5,-37.7 8.5,-56.7 53.5,-56.7 53.5,-37.7 8.5,-37.7"/>
<text text-anchor="start" x="11.5" y="-43.8" font-family="Helvetica,sans-Serif" font-size="11.00" fill="#000000"> &#160;</text>
<polygon fill="#ffffff" stroke="transparent" points="53.5,-37.7 53.5,-56.7 101.5,-56.7 101.5,-37.7 53.5,-37.7"/>
<polygon fill="none" stroke="#000000" points="53.5,-37.7 53.5,-56.7 101.5,-56.7 101.5,-37.7 53.5,-37.7"/>
<text text-anchor="start" x="71.6105" y="-43.8" font-family="Helvetica,sans-Serif" font-size="11.00" fill="#000000">1 row</text>
<polygon fill="#ffffff" stroke="transparent" points="101.5,-37.7 101.5,-56.7 139.5,-56.7 139.5,-37.7 101.5,-37.7"/>
<polygon fill="none" stroke="#000000" points="101.5,-37.7 101.5,-56.7 139.5,-56.7 139.5,-37.7 101.5,-37.7"/>
<text text-anchor="start" x="120.9053" y="-43.8" font-family="Helvetica,sans-Serif" font-size="11.00" fill="#000000">2 &gt;</text>
</a>
</g>
</g>
<!-- aspect_attribute&#45;&gt;data_type -->
<g id="edge3" class="edge">
<title>aspect_attribute:w&#45;&gt;data_type:e</title>
<path fill="none" stroke="#000000" d="M345.0724,-119.1817C331.924,-107.5274 339.2731,-76.5365 316,-64.7 262.1232,-37.2988 238.5832,-49.8157 180,-64.7 160.1465,-69.7442 159.9843,-86.7 139.5,-86.7"/>
<polygon fill="#000000" stroke="#000000" points="351.3904,-121.2313 357.8891,-127.1243 355.1952,-122.4657 359,-123.7 359,-123.7 359,-123.7 355.1952,-122.4657 360.1109,-120.2757 351.3904,-121.2313 351.3904,-121.2313"/>
<ellipse fill="none" stroke="#000000" cx="348.3466" cy="-120.2439" rx="3.2" ry="3.2"/>
</g>
<!-- attribute&#45;&gt;data_type -->
<g id="edge4" class="edge">
<title>attribute:w&#45;&gt;data_type:e</title>
<path fill="none" stroke="#000000" d="M174.2341,-119.1631C161.821,-109.283 160.6813,-86.7 139.5,-86.7"/>
<polygon fill="#000000" stroke="#000000" points="180.402,-121.1958 186.8731,-127.1191 184.201,-122.4479 188,-123.7 188,-123.7 188,-123.7 184.201,-122.4479 189.1269,-120.2809 180.402,-121.1958 180.402,-121.1958"/>
<ellipse fill="none" stroke="#000000" cx="177.3628" cy="-120.1942" rx="3.2" ry="3.2"/>
</g>
</g>
</svg>
