<?xml version="1.0" encoding="UTF-8" standalone="no"?>
<!DOCTYPE svg PUBLIC "-//W3C//DTD SVG 1.1//EN"
 "http://www.w3.org/Graphics/SVG/1.1/DTD/svg11.dtd">
<!-- Generated by graphviz version 2.40.1 (20161225.0304)
 -->
<!-- Title: oneDegreeRelationshipsDiagram Pages: 1 -->
<svg width="604pt" height="733pt"
 viewBox="0.00 0.00 604.00 732.70" xmlns="http://www.w3.org/2000/svg" xmlns:xlink="http://www.w3.org/1999/xlink">
<g id="graph0" class="graph" transform="scale(1 1) rotate(0) translate(4 728.7)">
<title>oneDegreeRelationshipsDiagram</title>
<polygon fill="#ffffff" stroke="transparent" points="-4,4 -4,-728.7 600,-728.7 600,4 -4,4"/>
<text text-anchor="middle" x="72.4936" y="-7.3" font-family="Helvetica,sans-Serif" font-size="11.00" fill="#000000">Generated by SchemaSpy</text>
<!-- aspect -->
<g id="node1" class="node">
<title>aspect</title>
<g id="a_node1"><a xlink:href="../../tables/aspect.html" xlink:title="aspect" target="_top">
<polygon fill="#ffffff" stroke="transparent" points="177,-181.2 177,-381.2 385,-381.2 385,-181.2 177,-181.2"/>
<polygon fill="#f5f5f5" stroke="transparent" points="179,-356.2 179,-379.2 383,-379.2 383,-356.2 179,-356.2"/>
<polygon fill="none" stroke="#000000" points="179,-356.2 179,-379.2 383,-379.2 383,-356.2 179,-356.2"/>
<text text-anchor="start" x="184" y="-364.8" font-family="Helvetica,sans-Serif" font-weight="bold" font-size="11.00" fill="#000000">aspect</text>
<text text-anchor="start" x="348.0437" y="-364.3" font-family="Helvetica,sans-Serif" font-size="11.00" fill="#000000">[table]</text>
<polygon fill="none" stroke="#000000" points="179,-334.2 179,-356.2 299,-356.2 299,-334.2 179,-334.2"/>
<image xlink:href="../../images/primaryKeys.png" width="11px" height="12px" preserveAspectRatio="xMinYMin meet" x="184" y="-351.2"/>
<text text-anchor="start" x="199" y="-341.3" font-family="Helvetica,sans-Serif" font-size="11.00" fill="#000000">aspect_id</text>
<polygon fill="none" stroke="#000000" points="299,-334.2 299,-356.2 383,-356.2 383,-334.2 299,-334.2"/>
<text text-anchor="start" x="302" y="-341.9" font-family="Helvetica,sans-Serif" font-size="11.00" fill="#000000">int4[10]</text>
<polygon fill="#ffffff" stroke="transparent" points="179,-312.2 179,-334.2 299,-334.2 299,-312.2 179,-312.2"/>
<polygon fill="none" stroke="#000000" points="179,-312.2 179,-334.2 299,-334.2 299,-312.2 179,-312.2"/>
<text text-anchor="start" x="199" y="-319.3" font-family="Helvetica,sans-Serif" font-size="11.00" fill="#000000">description</text>
<polygon fill="none" stroke="#000000" points="299,-312.2 299,-334.2 383,-334.2 383,-312.2 299,-312.2"/>
<text text-anchor="start" x="302" y="-319.9" font-family="Helvetica,sans-Serif" font-size="11.00" fill="#000000">varchar[50]</text>
<polygon fill="none" stroke="#000000" points="179,-290.2 179,-312.2 299,-312.2 299,-290.2 179,-290.2"/>
<text text-anchor="start" x="199" y="-297.3" font-family="Helvetica,sans-Serif" font-size="11.00" fill="#000000">x</text>
<polygon fill="none" stroke="#000000" points="299,-290.2 299,-312.2 383,-312.2 383,-290.2 299,-290.2"/>
<text text-anchor="start" x="302" y="-297.9" font-family="Helvetica,sans-Serif" font-size="11.00" fill="#000000">float8[17,17]</text>
<polygon fill="none" stroke="#000000" points="179,-268.2 179,-290.2 299,-290.2 299,-268.2 179,-268.2"/>
<text text-anchor="start" x="199" y="-275.3" font-family="Helvetica,sans-Serif" font-size="11.00" fill="#000000">y</text>
<polygon fill="none" stroke="#000000" points="299,-268.2 299,-290.2 383,-290.2 383,-268.2 299,-268.2"/>
<text text-anchor="start" x="302" y="-275.9" font-family="Helvetica,sans-Serif" font-size="11.00" fill="#000000">float8[17,17]</text>
<polygon fill="none" stroke="#000000" points="179,-246.2 179,-268.2 299,-268.2 299,-246.2 179,-246.2"/>
<text text-anchor="start" x="199" y="-253.3" font-family="Helvetica,sans-Serif" font-size="11.00" fill="#000000">t</text>
<polygon fill="none" stroke="#000000" points="299,-246.2 299,-268.2 383,-268.2 383,-246.2 299,-246.2"/>
<text text-anchor="start" x="301.8807" y="-253.9" font-family="Helvetica,sans-Serif" font-size="11.00" fill="#000000">timestamp[29,6]</text>
<polygon fill="none" stroke="#000000" points="179,-224.2 179,-246.2 299,-246.2 299,-224.2 179,-224.2"/>
<text text-anchor="start" x="199" y="-231.3" font-family="Helvetica,sans-Serif" font-size="11.00" fill="#000000">space_time</text>
<polygon fill="none" stroke="#000000" points="299,-224.2 299,-246.2 383,-246.2 383,-224.2 299,-224.2"/>
<text text-anchor="start" x="302" y="-231.9" font-family="Helvetica,sans-Serif" font-size="11.00" fill="#000000">int4[10]</text>
<polygon fill="#ffffff" stroke="transparent" points="179,-202.2 179,-224.2 299,-224.2 299,-202.2 179,-202.2"/>
<polygon fill="none" stroke="#000000" points="179,-202.2 179,-224.2 299,-224.2 299,-202.2 179,-202.2"/>
<image xlink:href="../../images/foreignKeys.png" width="11px" height="12px" preserveAspectRatio="xMinYMin meet" x="184" y="-219.2"/>
<text text-anchor="start" x="199" y="-209.3" font-family="Helvetica,sans-Serif" font-size="11.00" fill="#000000">aspect_type_id</text>
<polygon fill="none" stroke="#000000" points="299,-202.2 299,-224.2 383,-224.2 383,-202.2 299,-202.2"/>
<text text-anchor="start" x="302" y="-209.9" font-family="Helvetica,sans-Serif" font-size="11.00" fill="#000000">int4[10]</text>
<polygon fill="#ffffff" stroke="transparent" points="179,-183.2 179,-202.2 220,-202.2 220,-183.2 179,-183.2"/>
<polygon fill="none" stroke="#000000" points="179,-183.2 179,-202.2 220,-202.2 220,-183.2 179,-183.2"/>
<text text-anchor="start" x="182" y="-189.3" font-family="Helvetica,sans-Serif" font-size="11.00" fill="#000000">&lt; 1</text>
<polygon fill="#ffffff" stroke="transparent" points="220,-183.2 220,-202.2 299,-202.2 299,-183.2 220,-183.2"/>
<polygon fill="none" stroke="#000000" points="220,-183.2 220,-202.2 299,-202.2 299,-183.2 220,-183.2"/>
<text text-anchor="start" x="242.2089" y="-189.3" font-family="Helvetica,sans-Serif" font-size="11.00" fill="#000000">2.300 rows</text>
<polygon fill="#ffffff" stroke="transparent" points="299,-183.2 299,-202.2 383,-202.2 383,-183.2 299,-183.2"/>
<polygon fill="none" stroke="#000000" points="299,-183.2 299,-202.2 383,-202.2 383,-183.2 299,-183.2"/>
<text text-anchor="start" x="364.4053" y="-189.3" font-family="Helvetica,sans-Serif" font-size="11.00" fill="#000000">6 &gt;</text>
<polygon fill="none" stroke="#000000" stroke-width="2" points="178,-182.2 178,-380.2 384,-380.2 384,-182.2 178,-182.2"/>
</a>
</g>
</g>
<!-- aspect_type -->
<g id="node2" class="node">
<title>aspect_type</title>
<g id="a_node2"><a xlink:href="../../tables/aspect_type.html" xlink:title="aspect_type" target="_top">
<polygon fill="#ffffff" stroke="transparent" points="8,-142.7 8,-247.7 128,-247.7 128,-142.7 8,-142.7"/>
<polygon fill="#f5f5f5" stroke="transparent" points="8,-224.2 8,-247.2 128,-247.2 128,-224.2 8,-224.2"/>
<polygon fill="none" stroke="#000000" points="8,-224.2 8,-247.2 128,-247.2 128,-224.2 8,-224.2"/>
<text text-anchor="start" x="13" y="-232.8" font-family="Helvetica,sans-Serif" font-weight="bold" font-size="11.00" fill="#000000">aspect_type</text>
<text text-anchor="start" x="93.5219" y="-232.3" font-family="Helvetica,sans-Serif" font-size="11.00" fill="#000000">[table]</text>
<polygon fill="none" stroke="#000000" points="8,-202.2 8,-224.2 128,-224.2 128,-202.2 8,-202.2"/>
<image xlink:href="../../images/primaryKeys.png" width="11px" height="12px" preserveAspectRatio="xMinYMin meet" x="13" y="-219.2"/>
<text text-anchor="start" x="28" y="-209.3" font-family="Helvetica,sans-Serif" font-size="11.00" fill="#000000">aspect_type_id</text>
<polygon fill="#ffffff" stroke="transparent" points="8,-180.2 8,-202.2 128,-202.2 128,-180.2 8,-180.2"/>
<polygon fill="none" stroke="#000000" points="8,-180.2 8,-202.2 128,-202.2 128,-180.2 8,-180.2"/>
<image xlink:href="../../images/foreignKeys.png" width="11px" height="12px" preserveAspectRatio="xMinYMin meet" x="13" y="-197.2"/>
<text text-anchor="start" x="28" y="-187.3" font-family="Helvetica,sans-Serif" font-size="11.00" fill="#000000">super_type_id</text>
<polygon fill="none" stroke="#000000" points="8,-161.2 8,-180.2 128,-180.2 128,-161.2 8,-161.2"/>
<text text-anchor="start" x="11" y="-167.3" font-family="Helvetica,sans-Serif" font-size="11.00" fill="#000000">...</text>
<polygon fill="#ffffff" stroke="transparent" points="8,-142.2 8,-161.2 49,-161.2 49,-142.2 8,-142.2"/>
<polygon fill="none" stroke="#000000" points="8,-142.2 8,-161.2 49,-161.2 49,-142.2 8,-142.2"/>
<text text-anchor="start" x="11" y="-148.3" font-family="Helvetica,sans-Serif" font-size="11.00" fill="#000000">&lt; 1</text>
<polygon fill="#ffffff" stroke="transparent" points="49,-142.2 49,-161.2 97,-161.2 97,-142.2 49,-142.2"/>
<polygon fill="none" stroke="#000000" points="49,-142.2 49,-161.2 97,-161.2 97,-142.2 49,-142.2"/>
<text text-anchor="start" x="61.6105" y="-148.3" font-family="Helvetica,sans-Serif" font-size="11.00" fill="#000000">4 rows</text>
<polygon fill="#ffffff" stroke="transparent" points="97,-142.2 97,-161.2 128,-161.2 128,-142.2 97,-142.2"/>
<polygon fill="none" stroke="#000000" points="97,-142.2 97,-161.2 128,-161.2 128,-142.2 97,-142.2"/>
<text text-anchor="start" x="109.4053" y="-148.3" font-family="Helvetica,sans-Serif" font-size="11.00" fill="#000000">4 &gt;</text>
</a>
</g>
</g>
<!-- aspect&#45;&gt;aspect_type -->
<g id="edge1" class="edge">
<title>aspect:w&#45;&gt;aspect_type:e</title>
<path fill="none" stroke="#000000" d="M164.276,-213.2C152.2815,-213.2 144.8229,-213.2 128,-213.2"/>
<polygon fill="#000000" stroke="#000000" points="171,-213.2001 179,-216.8 175,-213.2 179,-213.2 179,-213.2 179,-213.2 175,-213.2 179,-209.6 171,-213.2001 171,-213.2001"/>
<ellipse fill="none" stroke="#000000" cx="167.8" cy="-213.2001" rx="3.2" ry="3.2"/>
</g>
<!-- aspect_attribute -->
<g id="node3" class="node">
<title>aspect_attribute</title>
<g id="a_node3"><a xlink:href="../../tables/aspect_attribute.html" xlink:title="aspect_attribute" target="_top">
<polygon fill="#ffffff" stroke="transparent" points="436,-593.7 436,-720.7 586,-720.7 586,-593.7 436,-593.7"/>
<polygon fill="#f5f5f5" stroke="transparent" points="436,-697.2 436,-720.2 586,-720.2 586,-697.2 436,-697.2"/>
<polygon fill="none" stroke="#000000" points="436,-697.2 436,-720.2 586,-720.2 586,-697.2 436,-697.2"/>
<text text-anchor="start" x="441" y="-705.8" font-family="Helvetica,sans-Serif" font-weight="bold" font-size="11.00" fill="#000000">aspect_attribute</text>
<text text-anchor="start" x="551.5219" y="-705.3" font-family="Helvetica,sans-Serif" font-size="11.00" fill="#000000">[table]</text>
<polygon fill="none" stroke="#000000" points="436,-675.2 436,-697.2 586,-697.2 586,-675.2 436,-675.2"/>
<image xlink:href="../../images/primaryKeys.png" width="11px" height="12px" preserveAspectRatio="xMinYMin meet" x="441" y="-692.2"/>
<text text-anchor="start" x="465" y="-682.3" font-family="Helvetica,sans-Serif" font-size="11.00" fill="#000000">aspect_id</text>
<polygon fill="none" stroke="#000000" points="436,-653.2 436,-675.2 586,-675.2 586,-653.2 436,-653.2"/>
<image xlink:href="../../images/primaryKeys.png" width="11px" height="12px" preserveAspectRatio="xMinYMin meet" x="441" y="-670.2"/>
<text text-anchor="start" x="465" y="-660.3" font-family="Helvetica,sans-Serif" font-size="11.00" fill="#000000">attribute_id</text>
<polygon fill="#ffffff" stroke="transparent" points="436,-631.2 436,-653.2 586,-653.2 586,-631.2 436,-631.2"/>
<polygon fill="none" stroke="#000000" points="436,-631.2 436,-653.2 586,-653.2 586,-631.2 436,-631.2"/>
<image xlink:href="../../images/foreignKeys.png" width="11px" height="12px" preserveAspectRatio="xMinYMin meet" x="441" y="-648.2"/>
<text text-anchor="start" x="465" y="-638.3" font-family="Helvetica,sans-Serif" font-size="11.00" fill="#000000">data_type_id</text>
<polygon fill="none" stroke="#000000" points="436,-612.2 436,-631.2 586,-631.2 586,-612.2 436,-612.2"/>
<text text-anchor="start" x="439" y="-618.3" font-family="Helvetica,sans-Serif" font-size="11.00" fill="#000000">...</text>
<polygon fill="#ffffff" stroke="transparent" points="436,-593.2 436,-612.2 486,-612.2 486,-593.2 436,-593.2"/>
<polygon fill="none" stroke="#000000" points="436,-593.2 436,-612.2 486,-612.2 486,-593.2 436,-593.2"/>
<text text-anchor="start" x="439" y="-599.3" font-family="Helvetica,sans-Serif" font-size="11.00" fill="#000000">&lt; 3</text>
<polygon fill="#ffffff" stroke="transparent" points="486,-593.2 486,-612.2 559,-612.2 559,-593.2 486,-593.2"/>
<polygon fill="none" stroke="#000000" points="486,-593.2 486,-612.2 559,-612.2 559,-593.2 486,-593.2"/>
<text text-anchor="start" x="502.2089" y="-599.3" font-family="Helvetica,sans-Serif" font-size="11.00" fill="#000000">6.100 rows</text>
<polygon fill="#ffffff" stroke="transparent" points="559,-593.2 559,-612.2 586,-612.2 586,-593.2 559,-593.2"/>
<polygon fill="none" stroke="#000000" points="559,-593.2 559,-612.2 586,-612.2 586,-593.2 559,-593.2"/>
<text text-anchor="start" x="576.8862" y="-599.3" font-family="Helvetica,sans-Serif" font-size="11.00" fill="#000000"> &#160;</text>
</a>
</g>
</g>
<!-- aspect_attribute&#45;&gt;aspect -->
<g id="edge2" class="edge">
<title>aspect_attribute:w&#45;&gt;aspect:e</title>
<path fill="none" stroke="#000000" d="M422.3267,-681.3795C372.5523,-639.9327 454.2955,-345.2 383,-345.2"/>
<polygon fill="#000000" stroke="#000000" points="428.4551,-683.54 434.803,-689.5952 432.2276,-684.87 436,-686.2 436,-686.2 436,-686.2 432.2276,-684.87 437.197,-682.8048 428.4551,-683.54 428.4551,-683.54"/>
<ellipse fill="none" stroke="#000000" cx="425.4372" cy="-682.4761" rx="3.2" ry="3.2"/>
</g>
<!-- mat_aspect -->
<g id="node4" class="node">
<title>mat_aspect</title>
<g id="a_node4"><a xlink:href="../../tables/mat_aspect.html" xlink:title="mat_aspect" target="_top">
<polygon fill="#ffffff" stroke="transparent" points="453,-486.2 453,-572.2 569,-572.2 569,-486.2 453,-486.2"/>
<polygon fill="#f5f5f5" stroke="transparent" points="453,-549.2 453,-572.2 569,-572.2 569,-549.2 453,-549.2"/>
<polygon fill="none" stroke="#000000" points="453,-549.2 453,-572.2 569,-572.2 569,-549.2 453,-549.2"/>
<text text-anchor="start" x="458" y="-557.8" font-family="Helvetica,sans-Serif" font-weight="bold" font-size="11.00" fill="#000000">mat_aspect</text>
<text text-anchor="start" x="534.5219" y="-557.3" font-family="Helvetica,sans-Serif" font-size="11.00" fill="#000000">[table]</text>
<polygon fill="none" stroke="#000000" points="453,-527.2 453,-549.2 569,-549.2 569,-527.2 453,-527.2"/>
<image xlink:href="../../images/primaryKeys.png" width="11px" height="12px" preserveAspectRatio="xMinYMin meet" x="458" y="-544.2"/>
<text text-anchor="start" x="482" y="-534.3" font-family="Helvetica,sans-Serif" font-size="11.00" fill="#000000">mat_id</text>
<polygon fill="none" stroke="#000000" points="453,-505.2 453,-527.2 569,-527.2 569,-505.2 453,-505.2"/>
<image xlink:href="../../images/primaryKeys.png" width="11px" height="12px" preserveAspectRatio="xMinYMin meet" x="458" y="-522.2"/>
<text text-anchor="start" x="482" y="-512.3" font-family="Helvetica,sans-Serif" font-size="11.00" fill="#000000">aspect_id</text>
<polygon fill="#ffffff" stroke="transparent" points="453,-486.2 453,-505.2 496,-505.2 496,-486.2 453,-486.2"/>
<polygon fill="none" stroke="#000000" points="453,-486.2 453,-505.2 496,-505.2 496,-486.2 453,-486.2"/>
<text text-anchor="start" x="456" y="-492.3" font-family="Helvetica,sans-Serif" font-size="11.00" fill="#000000">&lt; 2</text>
<polygon fill="#ffffff" stroke="transparent" points="496,-486.2 496,-505.2 545,-505.2 545,-486.2 496,-486.2"/>
<polygon fill="none" stroke="#000000" points="496,-486.2 496,-505.2 545,-505.2 545,-486.2 496,-486.2"/>
<text text-anchor="start" x="509.6105" y="-492.3" font-family="Helvetica,sans-Serif" font-size="11.00" fill="#000000">0 rows</text>
<polygon fill="#ffffff" stroke="transparent" points="545,-486.2 545,-505.2 569,-505.2 569,-486.2 545,-486.2"/>
<polygon fill="none" stroke="#000000" points="545,-486.2 545,-505.2 569,-505.2 569,-486.2 545,-486.2"/>
<text text-anchor="start" x="559.8862" y="-492.3" font-family="Helvetica,sans-Serif" font-size="11.00" fill="#000000"> &#160;</text>
</a>
</g>
</g>
<!-- mat_aspect&#45;&gt;aspect -->
<g id="edge3" class="edge">
<title>mat_aspect:w&#45;&gt;aspect:e</title>
<path fill="none" stroke="#000000" d="M438.5185,-513.912C382.9393,-493.6202 459.5075,-345.2 383,-345.2"/>
<polygon fill="#000000" stroke="#000000" points="445.098,-514.9515 452.4382,-519.7559 449.049,-515.5757 453,-516.2 453,-516.2 453,-516.2 449.049,-515.5757 453.5618,-512.6441 445.098,-514.9515 445.098,-514.9515"/>
<ellipse fill="none" stroke="#000000" cx="441.9372" cy="-514.4521" rx="3.2" ry="3.2"/>
</g>
<!-- mo_aspect -->
<g id="node5" class="node">
<title>mo_aspect</title>
<g id="a_node5"><a xlink:href="../../tables/mo_aspect.html" xlink:title="mo_aspect" target="_top">
<polygon fill="#ffffff" stroke="transparent" points="456,-359.7 456,-464.7 566,-464.7 566,-359.7 456,-359.7"/>
<polygon fill="#f5f5f5" stroke="transparent" points="456,-441.2 456,-464.2 566,-464.2 566,-441.2 456,-441.2"/>
<polygon fill="none" stroke="#000000" points="456,-441.2 456,-464.2 566,-464.2 566,-441.2 456,-441.2"/>
<text text-anchor="start" x="461" y="-449.8" font-family="Helvetica,sans-Serif" font-weight="bold" font-size="11.00" fill="#000000">mo_aspect</text>
<text text-anchor="start" x="531.5219" y="-449.3" font-family="Helvetica,sans-Serif" font-size="11.00" fill="#000000">[table]</text>
<polygon fill="none" stroke="#000000" points="456,-419.2 456,-441.2 566,-441.2 566,-419.2 456,-419.2"/>
<image xlink:href="../../images/primaryKeys.png" width="11px" height="12px" preserveAspectRatio="xMinYMin meet" x="461" y="-436.2"/>
<text text-anchor="start" x="485" y="-426.3" font-family="Helvetica,sans-Serif" font-size="11.00" fill="#000000">mo_id</text>
<polygon fill="none" stroke="#000000" points="456,-397.2 456,-419.2 566,-419.2 566,-397.2 456,-397.2"/>
<image xlink:href="../../images/primaryKeys.png" width="11px" height="12px" preserveAspectRatio="xMinYMin meet" x="461" y="-414.2"/>
<text text-anchor="start" x="485" y="-404.3" font-family="Helvetica,sans-Serif" font-size="11.00" fill="#000000">aspect_id</text>
<polygon fill="none" stroke="#000000" points="456,-378.2 456,-397.2 566,-397.2 566,-378.2 456,-378.2"/>
<text text-anchor="start" x="459" y="-384.3" font-family="Helvetica,sans-Serif" font-size="11.00" fill="#000000">...</text>
<polygon fill="#ffffff" stroke="transparent" points="456,-359.2 456,-378.2 486,-378.2 486,-359.2 456,-359.2"/>
<polygon fill="none" stroke="#000000" points="456,-359.2 456,-378.2 486,-378.2 486,-359.2 456,-359.2"/>
<text text-anchor="start" x="459" y="-365.3" font-family="Helvetica,sans-Serif" font-size="11.00" fill="#000000">&lt; 2</text>
<polygon fill="#ffffff" stroke="transparent" points="486,-359.2 486,-378.2 549,-378.2 549,-359.2 486,-359.2"/>
<polygon fill="none" stroke="#000000" points="486,-359.2 486,-378.2 549,-378.2 549,-359.2 486,-359.2"/>
<text text-anchor="start" x="492.2089" y="-365.3" font-family="Helvetica,sans-Serif" font-size="11.00" fill="#000000">2.000 rows</text>
<polygon fill="#ffffff" stroke="transparent" points="549,-359.2 549,-378.2 566,-378.2 566,-359.2 549,-359.2"/>
<polygon fill="none" stroke="#000000" points="549,-359.2 549,-378.2 566,-378.2 566,-359.2 549,-359.2"/>
<text text-anchor="start" x="556.8862" y="-365.3" font-family="Helvetica,sans-Serif" font-size="11.00" fill="#000000"> &#160;</text>
</a>
</g>
</g>
<!-- mo_aspect&#45;&gt;aspect -->
<g id="edge4" class="edge">
<title>mo_aspect:w&#45;&gt;aspect:e</title>
<path fill="none" stroke="#000000" d="M441.6047,-405.1614C415.5404,-392.5769 420.1642,-345.2 383,-345.2"/>
<polygon fill="#000000" stroke="#000000" points="448.1725,-406.5477 455.2565,-411.7224 452.0862,-407.3738 456,-408.2 456,-408.2 456,-408.2 452.0862,-407.3738 456.7435,-404.6776 448.1725,-406.5477 448.1725,-406.5477"/>
<ellipse fill="none" stroke="#000000" cx="445.0415" cy="-405.8868" rx="3.2" ry="3.2"/>
</g>
<!-- mor_aspect -->
<g id="node6" class="node">
<title>mor_aspect</title>
<g id="a_node6"><a xlink:href="../../tables/mor_aspect.html" xlink:title="mor_aspect" target="_top">
<polygon fill="#ffffff" stroke="transparent" points="453,-252.2 453,-338.2 569,-338.2 569,-252.2 453,-252.2"/>
<polygon fill="#f5f5f5" stroke="transparent" points="453,-315.2 453,-338.2 569,-338.2 569,-315.2 453,-315.2"/>
<polygon fill="none" stroke="#000000" points="453,-315.2 453,-338.2 569,-338.2 569,-315.2 453,-315.2"/>
<text text-anchor="start" x="458" y="-323.8" font-family="Helvetica,sans-Serif" font-weight="bold" font-size="11.00" fill="#000000">mor_aspect</text>
<text text-anchor="start" x="534.5219" y="-323.3" font-family="Helvetica,sans-Serif" font-size="11.00" fill="#000000">[table]</text>
<polygon fill="none" stroke="#000000" points="453,-293.2 453,-315.2 569,-315.2 569,-293.2 453,-293.2"/>
<image xlink:href="../../images/primaryKeys.png" width="11px" height="12px" preserveAspectRatio="xMinYMin meet" x="458" y="-310.2"/>
<text text-anchor="start" x="482" y="-300.3" font-family="Helvetica,sans-Serif" font-size="11.00" fill="#000000">mor_id</text>
<polygon fill="none" stroke="#000000" points="453,-271.2 453,-293.2 569,-293.2 569,-271.2 453,-271.2"/>
<image xlink:href="../../images/primaryKeys.png" width="11px" height="12px" preserveAspectRatio="xMinYMin meet" x="458" y="-288.2"/>
<text text-anchor="start" x="482" y="-278.3" font-family="Helvetica,sans-Serif" font-size="11.00" fill="#000000">aspect_id</text>
<polygon fill="#ffffff" stroke="transparent" points="453,-252.2 453,-271.2 496,-271.2 496,-252.2 453,-252.2"/>
<polygon fill="none" stroke="#000000" points="453,-252.2 453,-271.2 496,-271.2 496,-252.2 453,-252.2"/>
<text text-anchor="start" x="456" y="-258.3" font-family="Helvetica,sans-Serif" font-size="11.00" fill="#000000">&lt; 2</text>
<polygon fill="#ffffff" stroke="transparent" points="496,-252.2 496,-271.2 545,-271.2 545,-252.2 496,-252.2"/>
<polygon fill="none" stroke="#000000" points="496,-252.2 496,-271.2 545,-271.2 545,-252.2 496,-252.2"/>
<text text-anchor="start" x="509.6105" y="-258.3" font-family="Helvetica,sans-Serif" font-size="11.00" fill="#000000">0 rows</text>
<polygon fill="#ffffff" stroke="transparent" points="545,-252.2 545,-271.2 569,-271.2 569,-252.2 545,-252.2"/>
<polygon fill="none" stroke="#000000" points="545,-252.2 545,-271.2 569,-271.2 569,-252.2 545,-252.2"/>
<text text-anchor="start" x="559.8862" y="-258.3" font-family="Helvetica,sans-Serif" font-size="11.00" fill="#000000"> &#160;</text>
</a>
</g>
</g>
<!-- mor_aspect&#45;&gt;aspect -->
<g id="edge5" class="edge">
<title>mor_aspect:w&#45;&gt;aspect:e</title>
<path fill="none" stroke="#000000" d="M438.6646,-285.4108C413.8548,-298.249 419.1333,-345.2 383,-345.2"/>
<polygon fill="#000000" stroke="#000000" points="445.1934,-283.9485 453.7868,-285.713 449.0967,-283.0743 453,-282.2 453,-282.2 453,-282.2 449.0967,-283.0743 452.2132,-278.687 445.1934,-283.9485 445.1934,-283.9485"/>
<ellipse fill="none" stroke="#000000" cx="442.0708" cy="-284.6479" rx="3.2" ry="3.2"/>
</g>
<!-- point_aspect -->
<g id="node7" class="node">
<title>point_aspect</title>
<g id="a_node7"><a xlink:href="../../tables/point_aspect.html" xlink:title="point_aspect" target="_top">
<polygon fill="#ffffff" stroke="transparent" points="448.5,-145.2 448.5,-231.2 573.5,-231.2 573.5,-145.2 448.5,-145.2"/>
<polygon fill="#f5f5f5" stroke="transparent" points="449,-208.2 449,-231.2 574,-231.2 574,-208.2 449,-208.2"/>
<polygon fill="none" stroke="#000000" points="449,-208.2 449,-231.2 574,-231.2 574,-208.2 449,-208.2"/>
<text text-anchor="start" x="454" y="-216.8" font-family="Helvetica,sans-Serif" font-weight="bold" font-size="11.00" fill="#000000">point_aspect</text>
<text text-anchor="start" x="539.5219" y="-216.3" font-family="Helvetica,sans-Serif" font-size="11.00" fill="#000000">[table]</text>
<polygon fill="none" stroke="#000000" points="449,-186.2 449,-208.2 574,-208.2 574,-186.2 449,-186.2"/>
<image xlink:href="../../images/primaryKeys.png" width="11px" height="12px" preserveAspectRatio="xMinYMin meet" x="454" y="-203.2"/>
<text text-anchor="start" x="478" y="-193.3" font-family="Helvetica,sans-Serif" font-size="11.00" fill="#000000">point_id</text>
<polygon fill="none" stroke="#000000" points="449,-164.2 449,-186.2 574,-186.2 574,-164.2 449,-164.2"/>
<image xlink:href="../../images/primaryKeys.png" width="11px" height="12px" preserveAspectRatio="xMinYMin meet" x="454" y="-181.2"/>
<text text-anchor="start" x="478" y="-171.3" font-family="Helvetica,sans-Serif" font-size="11.00" fill="#000000">aspect_id</text>
<polygon fill="#ffffff" stroke="transparent" points="449,-145.2 449,-164.2 475,-164.2 475,-145.2 449,-145.2"/>
<polygon fill="none" stroke="#000000" points="449,-145.2 449,-164.2 475,-164.2 475,-145.2 449,-145.2"/>
<text text-anchor="start" x="452" y="-151.3" font-family="Helvetica,sans-Serif" font-size="11.00" fill="#000000">&lt; 2</text>
<polygon fill="#ffffff" stroke="transparent" points="475,-145.2 475,-164.2 559,-164.2 559,-145.2 475,-145.2"/>
<polygon fill="none" stroke="#000000" points="475,-145.2 475,-164.2 559,-164.2 559,-145.2 475,-145.2"/>
<text text-anchor="start" x="480.8073" y="-151.3" font-family="Helvetica,sans-Serif" font-size="11.00" fill="#000000">1.039.258 rows</text>
<polygon fill="#ffffff" stroke="transparent" points="559,-145.2 559,-164.2 574,-164.2 574,-145.2 559,-145.2"/>
<polygon fill="none" stroke="#000000" points="559,-145.2 559,-164.2 574,-164.2 574,-145.2 559,-145.2"/>
<text text-anchor="start" x="564.8862" y="-151.3" font-family="Helvetica,sans-Serif" font-size="11.00" fill="#000000"> &#160;</text>
</a>
</g>
</g>
<!-- point_aspect&#45;&gt;aspect -->
<g id="edge6" class="edge">
<title>point_aspect:w&#45;&gt;aspect:e</title>
<path fill="none" stroke="#000000" d="M434.7487,-177.4746C380.2609,-197.6478 458.5094,-345.2 383,-345.2"/>
<polygon fill="#000000" stroke="#000000" points="441.1,-176.461 449.5674,-178.755 445.05,-175.8305 449,-175.2 449,-175.2 449,-175.2 445.05,-175.8305 448.4326,-171.645 441.1,-176.461 441.1,-176.461"/>
<ellipse fill="none" stroke="#000000" cx="437.94" cy="-176.9653" rx="3.2" ry="3.2"/>
</g>
<!-- predicate_aspect -->
<g id="node8" class="node">
<title>predicate_aspect</title>
<g id="a_node8"><a xlink:href="../../tables/predicate_aspect.html" xlink:title="predicate_aspect" target="_top">
<polygon fill="#ffffff" stroke="transparent" points="434,-38.2 434,-124.2 588,-124.2 588,-38.2 434,-38.2"/>
<polygon fill="#f5f5f5" stroke="transparent" points="434,-101.2 434,-124.2 588,-124.2 588,-101.2 434,-101.2"/>
<polygon fill="none" stroke="#000000" points="434,-101.2 434,-124.2 588,-124.2 588,-101.2 434,-101.2"/>
<text text-anchor="start" x="439" y="-109.8" font-family="Helvetica,sans-Serif" font-weight="bold" font-size="11.00" fill="#000000">predicate_aspect</text>
<text text-anchor="start" x="553.5219" y="-109.3" font-family="Helvetica,sans-Serif" font-size="11.00" fill="#000000">[table]</text>
<polygon fill="none" stroke="#000000" points="434,-79.2 434,-101.2 588,-101.2 588,-79.2 434,-79.2"/>
<image xlink:href="../../images/primaryKeys.png" width="11px" height="12px" preserveAspectRatio="xMinYMin meet" x="439" y="-96.2"/>
<text text-anchor="start" x="463" y="-86.3" font-family="Helvetica,sans-Serif" font-size="11.00" fill="#000000">predicate_id</text>
<polygon fill="none" stroke="#000000" points="434,-57.2 434,-79.2 588,-79.2 588,-57.2 434,-57.2"/>
<image xlink:href="../../images/primaryKeys.png" width="11px" height="12px" preserveAspectRatio="xMinYMin meet" x="439" y="-74.2"/>
<text text-anchor="start" x="463" y="-64.3" font-family="Helvetica,sans-Serif" font-size="11.00" fill="#000000">aspect_id</text>
<polygon fill="#ffffff" stroke="transparent" points="434,-38.2 434,-57.2 496,-57.2 496,-38.2 434,-38.2"/>
<polygon fill="none" stroke="#000000" points="434,-38.2 434,-57.2 496,-57.2 496,-38.2 434,-38.2"/>
<text text-anchor="start" x="437" y="-44.3" font-family="Helvetica,sans-Serif" font-size="11.00" fill="#000000">&lt; 2</text>
<polygon fill="#ffffff" stroke="transparent" points="496,-38.2 496,-57.2 555,-57.2 555,-38.2 496,-38.2"/>
<polygon fill="none" stroke="#000000" points="496,-38.2 496,-57.2 555,-57.2 555,-38.2 496,-38.2"/>
<text text-anchor="start" x="519.6105" y="-44.3" font-family="Helvetica,sans-Serif" font-size="11.00" fill="#000000">0 rows</text>
<polygon fill="#ffffff" stroke="transparent" points="555,-38.2 555,-57.2 588,-57.2 588,-38.2 555,-38.2"/>
<polygon fill="none" stroke="#000000" points="555,-38.2 555,-57.2 588,-57.2 588,-38.2 555,-38.2"/>
<text text-anchor="start" x="578.8862" y="-44.3" font-family="Helvetica,sans-Serif" font-size="11.00" fill="#000000"> &#160;</text>
</a>
</g>
</g>
<!-- predicate_aspect&#45;&gt;aspect -->
<g id="edge7" class="edge">
<title>predicate_aspect:w&#45;&gt;aspect:e</title>
<path fill="none" stroke="#000000" d="M420.7201,-73.9855C383.1495,-113.7637 440.2113,-345.2 383,-345.2"/>
<polygon fill="#000000" stroke="#000000" points="426.6658,-71.3953 435.4379,-71.5004 430.3329,-69.7976 434,-68.2 434,-68.2 434,-68.2 430.3329,-69.7976 432.5621,-64.8996 426.6658,-71.3953 426.6658,-71.3953"/>
<ellipse fill="none" stroke="#000000" cx="423.7321" cy="-72.6734" rx="3.2" ry="3.2"/>
</g>
</g>
</svg>
