<?xml version="1.0" encoding="UTF-8" standalone="no"?>
<!DOCTYPE svg PUBLIC "-//W3C//DTD SVG 1.1//EN"
 "http://www.w3.org/Graphics/SVG/1.1/DTD/svg11.dtd">
<!-- Generated by graphviz version 2.40.1 (20161225.0304)
 -->
<!-- Title: twoDegreesRelationshipsDiagram Pages: 1 -->
<svg width="588pt" height="595pt"
 viewBox="0.00 0.00 588.00 594.70" xmlns="http://www.w3.org/2000/svg" xmlns:xlink="http://www.w3.org/1999/xlink">
<g id="graph0" class="graph" transform="scale(1 1) rotate(0) translate(4 590.7)">
<title>twoDegreesRelationshipsDiagram</title>
<polygon fill="#ffffff" stroke="transparent" points="-4,4 -4,-590.7 584,-590.7 584,4 -4,4"/>
<text text-anchor="middle" x="72.4936" y="-7.3" font-family="Helvetica,sans-Serif" font-size="11.00" fill="#000000">Generated by SchemaSpy</text>
<!-- aspect -->
<g id="node1" class="node">
<title>aspect</title>
<g id="a_node1"><a xlink:href="../../tables/aspect.html" xlink:title="aspect" target="_top">
<polygon fill="#ffffff" stroke="transparent" points="177,-219.2 177,-346.2 297,-346.2 297,-219.2 177,-219.2"/>
<polygon fill="#f5f5f5" stroke="transparent" points="177,-322.7 177,-345.7 297,-345.7 297,-322.7 177,-322.7"/>
<polygon fill="none" stroke="#000000" points="177,-322.7 177,-345.7 297,-345.7 297,-322.7 177,-322.7"/>
<text text-anchor="start" x="182" y="-331.3" font-family="Helvetica,sans-Serif" font-weight="bold" font-size="11.00" fill="#000000">aspect</text>
<text text-anchor="start" x="262.0437" y="-330.8" font-family="Helvetica,sans-Serif" font-size="11.00" fill="#000000">[table]</text>
<polygon fill="none" stroke="#000000" points="177,-300.7 177,-322.7 297,-322.7 297,-300.7 177,-300.7"/>
<image xlink:href="../../images/primaryKeys.png" width="11px" height="12px" preserveAspectRatio="xMinYMin meet" x="182" y="-317.7"/>
<text text-anchor="start" x="197" y="-307.8" font-family="Helvetica,sans-Serif" font-size="11.00" fill="#000000">aspect_id</text>
<polygon fill="#ffffff" stroke="transparent" points="177,-278.7 177,-300.7 297,-300.7 297,-278.7 177,-278.7"/>
<polygon fill="none" stroke="#000000" points="177,-278.7 177,-300.7 297,-300.7 297,-278.7 177,-278.7"/>
<text text-anchor="start" x="197" y="-285.8" font-family="Helvetica,sans-Serif" font-size="11.00" fill="#000000">description</text>
<polygon fill="#ffffff" stroke="transparent" points="177,-256.7 177,-278.7 297,-278.7 297,-256.7 177,-256.7"/>
<polygon fill="none" stroke="#000000" points="177,-256.7 177,-278.7 297,-278.7 297,-256.7 177,-256.7"/>
<image xlink:href="../../images/foreignKeys.png" width="11px" height="12px" preserveAspectRatio="xMinYMin meet" x="182" y="-273.7"/>
<text text-anchor="start" x="197" y="-263.8" font-family="Helvetica,sans-Serif" font-size="11.00" fill="#000000">aspect_type_id</text>
<polygon fill="none" stroke="#000000" points="177,-237.7 177,-256.7 297,-256.7 297,-237.7 177,-237.7"/>
<text text-anchor="start" x="180" y="-243.8" font-family="Helvetica,sans-Serif" font-size="11.00" fill="#000000">...</text>
<polygon fill="#ffffff" stroke="transparent" points="177,-218.7 177,-237.7 207,-237.7 207,-218.7 177,-218.7"/>
<polygon fill="none" stroke="#000000" points="177,-218.7 177,-237.7 207,-237.7 207,-218.7 177,-218.7"/>
<text text-anchor="start" x="180" y="-224.8" font-family="Helvetica,sans-Serif" font-size="11.00" fill="#000000">&lt; 1</text>
<polygon fill="#ffffff" stroke="transparent" points="207,-218.7 207,-237.7 271,-237.7 271,-218.7 207,-218.7"/>
<polygon fill="none" stroke="#000000" points="207,-218.7 207,-237.7 271,-237.7 271,-218.7 207,-218.7"/>
<text text-anchor="start" x="214.2089" y="-224.8" font-family="Helvetica,sans-Serif" font-size="11.00" fill="#000000">2.300 rows</text>
<polygon fill="#ffffff" stroke="transparent" points="271,-218.7 271,-237.7 297,-237.7 297,-218.7 271,-218.7"/>
<polygon fill="none" stroke="#000000" points="271,-218.7 271,-237.7 297,-237.7 297,-218.7 271,-218.7"/>
<text text-anchor="start" x="278.4053" y="-224.8" font-family="Helvetica,sans-Serif" font-size="11.00" fill="#000000">6 &gt;</text>
</a>
</g>
</g>
<!-- aspect_type -->
<g id="node2" class="node">
<title>aspect_type</title>
<g id="a_node2"><a xlink:href="../../tables/aspect_type.html" xlink:title="aspect_type" target="_top">
<polygon fill="#ffffff" stroke="transparent" points="8,-298.2 8,-359.2 128,-359.2 128,-298.2 8,-298.2"/>
<polygon fill="#f5f5f5" stroke="transparent" points="8,-335.7 8,-358.7 128,-358.7 128,-335.7 8,-335.7"/>
<polygon fill="none" stroke="#000000" points="8,-335.7 8,-358.7 128,-358.7 128,-335.7 8,-335.7"/>
<text text-anchor="start" x="13" y="-344.3" font-family="Helvetica,sans-Serif" font-weight="bold" font-size="11.00" fill="#000000">aspect_type</text>
<text text-anchor="start" x="93.5219" y="-343.8" font-family="Helvetica,sans-Serif" font-size="11.00" fill="#000000">[table]</text>
<polygon fill="none" stroke="#000000" points="8,-316.7 8,-335.7 128,-335.7 128,-316.7 8,-316.7"/>
<text text-anchor="start" x="11" y="-322.8" font-family="Helvetica,sans-Serif" font-size="11.00" fill="#000000">...</text>
<polygon fill="#ffffff" stroke="transparent" points="8,-297.7 8,-316.7 49,-316.7 49,-297.7 8,-297.7"/>
<polygon fill="none" stroke="#000000" points="8,-297.7 8,-316.7 49,-316.7 49,-297.7 8,-297.7"/>
<text text-anchor="start" x="11" y="-303.8" font-family="Helvetica,sans-Serif" font-size="11.00" fill="#000000">&lt; 1</text>
<polygon fill="#ffffff" stroke="transparent" points="49,-297.7 49,-316.7 97,-316.7 97,-297.7 49,-297.7"/>
<polygon fill="none" stroke="#000000" points="49,-297.7 49,-316.7 97,-316.7 97,-297.7 49,-297.7"/>
<text text-anchor="start" x="61.6105" y="-303.8" font-family="Helvetica,sans-Serif" font-size="11.00" fill="#000000">4 rows</text>
<polygon fill="#ffffff" stroke="transparent" points="97,-297.7 97,-316.7 128,-316.7 128,-297.7 97,-297.7"/>
<polygon fill="none" stroke="#000000" points="97,-297.7 97,-316.7 128,-316.7 128,-297.7 97,-297.7"/>
<text text-anchor="start" x="109.4053" y="-303.8" font-family="Helvetica,sans-Serif" font-size="11.00" fill="#000000">4 &gt;</text>
</a>
</g>
</g>
<!-- aspect&#45;&gt;aspect_type -->
<g id="edge1" class="edge">
<title>aspect:w&#45;&gt;aspect_type:e</title>
<path fill="none" stroke="#000000" d="M163.2627,-272.645C148.2131,-286.6711 155.6819,-325.7 128,-325.7"/>
<polygon fill="#000000" stroke="#000000" points="169.4728,-270.4096 178.2193,-271.0872 173.2364,-269.0548 177,-267.7 177,-267.7 177,-267.7 173.2364,-269.0548 175.7807,-264.3128 169.4728,-270.4096 169.4728,-270.4096"/>
<ellipse fill="none" stroke="#000000" cx="166.462" cy="-271.4934" rx="3.2" ry="3.2"/>
</g>
<!-- aspect_attribute -->
<g id="node3" class="node">
<title>aspect_attribute</title>
<g id="a_node3"><a xlink:href="../../tables/aspect_attribute.html" xlink:title="aspect_attribute" target="_top">
<polygon fill="#ffffff" stroke="transparent" points="346,-448.7 346,-582.7 572,-582.7 572,-448.7 346,-448.7"/>
<polygon fill="#f5f5f5" stroke="transparent" points="348,-557.7 348,-580.7 570,-580.7 570,-557.7 348,-557.7"/>
<polygon fill="none" stroke="#000000" points="348,-557.7 348,-580.7 570,-580.7 570,-557.7 348,-557.7"/>
<text text-anchor="start" x="353" y="-566.3" font-family="Helvetica,sans-Serif" font-weight="bold" font-size="11.00" fill="#000000">aspect_attribute</text>
<text text-anchor="start" x="535.0437" y="-565.8" font-family="Helvetica,sans-Serif" font-size="11.00" fill="#000000">[table]</text>
<polygon fill="none" stroke="#000000" points="348,-535.7 348,-557.7 480,-557.7 480,-535.7 348,-535.7"/>
<image xlink:href="../../images/primaryKeys.png" width="11px" height="12px" preserveAspectRatio="xMinYMin meet" x="353" y="-552.7"/>
<text text-anchor="start" x="368" y="-542.8" font-family="Helvetica,sans-Serif" font-size="11.00" fill="#000000">aspect_id</text>
<polygon fill="none" stroke="#000000" points="480,-535.7 480,-557.7 570,-557.7 570,-535.7 480,-535.7"/>
<text text-anchor="start" x="483" y="-543.4" font-family="Helvetica,sans-Serif" font-size="11.00" fill="#000000">int4[10]</text>
<polygon fill="none" stroke="#000000" points="348,-513.7 348,-535.7 480,-535.7 480,-513.7 348,-513.7"/>
<image xlink:href="../../images/primaryKeys.png" width="11px" height="12px" preserveAspectRatio="xMinYMin meet" x="353" y="-530.7"/>
<text text-anchor="start" x="368" y="-520.8" font-family="Helvetica,sans-Serif" font-size="11.00" fill="#000000">attribute_id</text>
<polygon fill="none" stroke="#000000" points="480,-513.7 480,-535.7 570,-535.7 570,-513.7 480,-513.7"/>
<text text-anchor="start" x="483" y="-521.4" font-family="Helvetica,sans-Serif" font-size="11.00" fill="#000000">int4[10]</text>
<polygon fill="none" stroke="#000000" points="348,-491.7 348,-513.7 480,-513.7 480,-491.7 348,-491.7"/>
<text text-anchor="start" x="368" y="-498.8" font-family="Helvetica,sans-Serif" font-size="11.00" fill="#000000">value</text>
<polygon fill="none" stroke="#000000" points="480,-491.7 480,-513.7 570,-513.7 570,-491.7 480,-491.7"/>
<text text-anchor="start" x="482.5043" y="-499.4" font-family="Helvetica,sans-Serif" font-size="11.00" fill="#000000">text[2147483647]</text>
<polygon fill="#ffffff" stroke="transparent" points="348,-469.7 348,-491.7 480,-491.7 480,-469.7 348,-469.7"/>
<polygon fill="none" stroke="#000000" points="348,-469.7 348,-491.7 480,-491.7 480,-469.7 348,-469.7"/>
<image xlink:href="../../images/foreignKeys.png" width="11px" height="12px" preserveAspectRatio="xMinYMin meet" x="353" y="-486.7"/>
<text text-anchor="start" x="368" y="-476.8" font-family="Helvetica,sans-Serif" font-size="11.00" fill="#000000">data_type_id</text>
<polygon fill="none" stroke="#000000" points="480,-469.7 480,-491.7 570,-491.7 570,-469.7 480,-469.7"/>
<text text-anchor="start" x="483" y="-477.4" font-family="Helvetica,sans-Serif" font-size="11.00" fill="#000000">int4[10]</text>
<polygon fill="#ffffff" stroke="transparent" points="348,-450.7 348,-469.7 395,-469.7 395,-450.7 348,-450.7"/>
<polygon fill="none" stroke="#000000" points="348,-450.7 348,-469.7 395,-469.7 395,-450.7 348,-450.7"/>
<text text-anchor="start" x="351" y="-456.8" font-family="Helvetica,sans-Serif" font-size="11.00" fill="#000000">&lt; 3</text>
<polygon fill="#ffffff" stroke="transparent" points="395,-450.7 395,-469.7 480,-469.7 480,-450.7 395,-450.7"/>
<polygon fill="none" stroke="#000000" points="395,-450.7 395,-469.7 480,-469.7 480,-450.7 395,-450.7"/>
<text text-anchor="start" x="423.2089" y="-456.8" font-family="Helvetica,sans-Serif" font-size="11.00" fill="#000000">6.100 rows</text>
<polygon fill="#ffffff" stroke="transparent" points="480,-450.7 480,-469.7 570,-469.7 570,-450.7 480,-450.7"/>
<polygon fill="none" stroke="#000000" points="480,-450.7 480,-469.7 570,-469.7 570,-450.7 480,-450.7"/>
<text text-anchor="start" x="551.4053" y="-456.8" font-family="Helvetica,sans-Serif" font-size="11.00" fill="#000000">0 &gt;</text>
<polygon fill="none" stroke="#000000" stroke-width="2" points="347,-449.7 347,-581.7 571,-581.7 571,-449.7 347,-449.7"/>
</a>
</g>
</g>
<!-- aspect_attribute&#45;&gt;aspect -->
<g id="edge2" class="edge">
<title>aspect_attribute:w&#45;&gt;aspect:e</title>
<path fill="none" stroke="#000000" d="M333.2623,-544.8084C257.5397,-522.5684 398.2397,-311.7 297,-311.7"/>
<polygon fill="#000000" stroke="#000000" points="340.0651,-545.6815 347.5417,-550.2707 344.0325,-546.1907 348,-546.7 348,-546.7 348,-546.7 344.0325,-546.1907 348.4583,-543.1293 340.0651,-545.6815 340.0651,-545.6815"/>
<ellipse fill="none" stroke="#000000" cx="336.8911" cy="-545.2741" rx="3.2" ry="3.2"/>
</g>
<!-- attribute -->
<g id="node4" class="node">
<title>attribute</title>
<g id="a_node4"><a xlink:href="../../tables/attribute.html" xlink:title="attribute" target="_top">
<polygon fill="#ffffff" stroke="transparent" points="187.5,-494.2 187.5,-555.2 286.5,-555.2 286.5,-494.2 187.5,-494.2"/>
<polygon fill="#f5f5f5" stroke="transparent" points="188,-531.7 188,-554.7 287,-554.7 287,-531.7 188,-531.7"/>
<polygon fill="none" stroke="#000000" points="188,-531.7 188,-554.7 287,-554.7 287,-531.7 188,-531.7"/>
<text text-anchor="start" x="193" y="-540.3" font-family="Helvetica,sans-Serif" font-weight="bold" font-size="11.00" fill="#000000">attribute</text>
<text text-anchor="start" x="252.5219" y="-539.8" font-family="Helvetica,sans-Serif" font-size="11.00" fill="#000000">[table]</text>
<polygon fill="none" stroke="#000000" points="188,-512.7 188,-531.7 287,-531.7 287,-512.7 188,-512.7"/>
<text text-anchor="start" x="191" y="-518.8" font-family="Helvetica,sans-Serif" font-size="11.00" fill="#000000">...</text>
<polygon fill="#ffffff" stroke="transparent" points="188,-493.7 188,-512.7 218,-512.7 218,-493.7 188,-493.7"/>
<polygon fill="none" stroke="#000000" points="188,-493.7 188,-512.7 218,-512.7 218,-493.7 188,-493.7"/>
<text text-anchor="start" x="191" y="-499.8" font-family="Helvetica,sans-Serif" font-size="11.00" fill="#000000">&lt; 2</text>
<polygon fill="#ffffff" stroke="transparent" points="218,-493.7 218,-512.7 261,-512.7 261,-493.7 218,-493.7"/>
<polygon fill="none" stroke="#000000" points="218,-493.7 218,-512.7 261,-512.7 261,-493.7 218,-493.7"/>
<text text-anchor="start" x="225.6105" y="-499.8" font-family="Helvetica,sans-Serif" font-size="11.00" fill="#000000">4 rows</text>
<polygon fill="#ffffff" stroke="transparent" points="261,-493.7 261,-512.7 287,-512.7 287,-493.7 261,-493.7"/>
<polygon fill="none" stroke="#000000" points="261,-493.7 261,-512.7 287,-512.7 287,-493.7 261,-493.7"/>
<text text-anchor="start" x="268.4053" y="-499.8" font-family="Helvetica,sans-Serif" font-size="11.00" fill="#000000">1 &gt;</text>
</a>
</g>
</g>
<!-- aspect_attribute&#45;&gt;attribute -->
<g id="edge3" class="edge">
<title>aspect_attribute:w&#45;&gt;attribute:e</title>
<path fill="none" stroke="#000000" d="M333.4965,-524.7C320.4642,-524.7 307.0913,-524.7 294.6111,-524.7"/>
<polygon fill="#000000" stroke="#000000" points="340,-524.7001 348,-528.3 344,-524.7 348,-524.7 348,-524.7 348,-524.7 344,-524.7 348,-521.1 340,-524.7001 340,-524.7001"/>
<ellipse fill="none" stroke="#000000" cx="336.8" cy="-524.7001" rx="3.2" ry="3.2"/>
</g>
<!-- data_type -->
<g id="node5" class="node">
<title>data_type</title>
<g id="a_node5"><a xlink:href="../../tables/data_type.html" xlink:title="data_type" target="_top">
<polygon fill="#ffffff" stroke="transparent" points="15.5,-466.2 15.5,-527.2 120.5,-527.2 120.5,-466.2 15.5,-466.2"/>
<polygon fill="#f5f5f5" stroke="transparent" points="16,-503.7 16,-526.7 121,-526.7 121,-503.7 16,-503.7"/>
<polygon fill="none" stroke="#000000" points="16,-503.7 16,-526.7 121,-526.7 121,-503.7 16,-503.7"/>
<text text-anchor="start" x="21" y="-512.3" font-family="Helvetica,sans-Serif" font-weight="bold" font-size="11.00" fill="#000000">data_type</text>
<text text-anchor="start" x="86.5219" y="-511.8" font-family="Helvetica,sans-Serif" font-size="11.00" fill="#000000">[table]</text>
<polygon fill="none" stroke="#000000" points="16,-484.7 16,-503.7 121,-503.7 121,-484.7 16,-484.7"/>
<text text-anchor="start" x="19" y="-490.8" font-family="Helvetica,sans-Serif" font-size="11.00" fill="#000000">...</text>
<polygon fill="#ffffff" stroke="transparent" points="16,-465.7 16,-484.7 48,-484.7 48,-465.7 16,-465.7"/>
<polygon fill="none" stroke="#000000" points="16,-465.7 16,-484.7 48,-484.7 48,-465.7 16,-465.7"/>
<text text-anchor="start" x="19" y="-471.8" font-family="Helvetica,sans-Serif" font-size="11.00" fill="#000000"> &#160;</text>
<polygon fill="#ffffff" stroke="transparent" points="48,-465.7 48,-484.7 90,-484.7 90,-465.7 48,-465.7"/>
<polygon fill="none" stroke="#000000" points="48,-465.7 48,-484.7 90,-484.7 90,-465.7 48,-465.7"/>
<text text-anchor="start" x="60.1105" y="-471.8" font-family="Helvetica,sans-Serif" font-size="11.00" fill="#000000">1 row</text>
<polygon fill="#ffffff" stroke="transparent" points="90,-465.7 90,-484.7 121,-484.7 121,-465.7 90,-465.7"/>
<polygon fill="none" stroke="#000000" points="90,-465.7 90,-484.7 121,-484.7 121,-465.7 90,-465.7"/>
<text text-anchor="start" x="102.4053" y="-471.8" font-family="Helvetica,sans-Serif" font-size="11.00" fill="#000000">2 &gt;</text>
</a>
</g>
</g>
<!-- aspect_attribute&#45;&gt;data_type -->
<g id="edge4" class="edge">
<title>aspect_attribute:w&#45;&gt;data_type:e</title>
<path fill="none" stroke="#000000" d="M333.3246,-480.6687C265.5992,-480.3803 243.2435,-478.3166 169,-483.7 155.8634,-484.6525 141.8189,-486.1516 128.5077,-487.7985"/>
<polygon fill="#000000" stroke="#000000" points="340,-480.6829 347.9923,-484.3 344,-480.6914 348,-480.7 348,-480.7 348,-480.7 344,-480.6914 348.0077,-477.1 340,-480.6829 340,-480.6829"/>
<ellipse fill="none" stroke="#000000" cx="336.8" cy="-480.676" rx="3.2" ry="3.2"/>
</g>
<!-- attribute&#45;&gt;aspect_type -->
<g id="edge5" class="edge">
<title>attribute:w&#45;&gt;aspect_type:e</title>
<path fill="none" stroke="#000000" d="M221.0474,-476.2021C200.17,-417.2949 162.2077,-325.7 128,-325.7"/>
<polygon fill="#000000" stroke="#000000" points="223.2271,-482.4795 222.4506,-491.2178 224.5393,-486.2582 225.8514,-490.0368 225.8514,-490.0368 225.8514,-490.0368 224.5393,-486.2582 229.2522,-488.8559 223.2271,-482.4795 223.2271,-482.4795"/>
<ellipse fill="none" stroke="#000000" cx="222.1774" cy="-479.4566" rx="3.2" ry="3.2"/>
</g>
<!-- attribute&#45;&gt;data_type -->
<g id="edge6" class="edge">
<title>attribute:w&#45;&gt;data_type:e</title>
<path fill="none" stroke="#000000" d="M164.8265,-512.7423C152.7553,-510.7423 140.3411,-508.6855 128.598,-506.7399"/>
<polygon fill="#000000" stroke="#000000" points="171.4201,-513.8346 178.724,-518.6939 175.3663,-514.4885 179.3125,-515.1423 179.3125,-515.1423 179.3125,-515.1423 175.3663,-514.4885 179.9009,-511.5907 171.4201,-513.8346 171.4201,-513.8346"/>
<ellipse fill="none" stroke="#000000" cx="168.2631" cy="-513.3116" rx="3.2" ry="3.2"/>
</g>
<!-- mat_aspect -->
<g id="node6" class="node">
<title>mat_aspect</title>
<g id="a_node6"><a xlink:href="../../tables/mat_aspect.html" xlink:title="mat_aspect" target="_top">
<polygon fill="#ffffff" stroke="transparent" points="401,-120.2 401,-181.2 517,-181.2 517,-120.2 401,-120.2"/>
<polygon fill="#f5f5f5" stroke="transparent" points="401,-157.7 401,-180.7 517,-180.7 517,-157.7 401,-157.7"/>
<polygon fill="none" stroke="#000000" points="401,-157.7 401,-180.7 517,-180.7 517,-157.7 401,-157.7"/>
<text text-anchor="start" x="406" y="-166.3" font-family="Helvetica,sans-Serif" font-weight="bold" font-size="11.00" fill="#000000">mat_aspect</text>
<text text-anchor="start" x="482.5219" y="-165.8" font-family="Helvetica,sans-Serif" font-size="11.00" fill="#000000">[table]</text>
<polygon fill="none" stroke="#000000" points="401,-138.7 401,-157.7 517,-157.7 517,-138.7 401,-138.7"/>
<text text-anchor="start" x="404" y="-144.8" font-family="Helvetica,sans-Serif" font-size="11.00" fill="#000000">...</text>
<polygon fill="#ffffff" stroke="transparent" points="401,-119.7 401,-138.7 444,-138.7 444,-119.7 401,-119.7"/>
<polygon fill="none" stroke="#000000" points="401,-119.7 401,-138.7 444,-138.7 444,-119.7 401,-119.7"/>
<text text-anchor="start" x="404" y="-125.8" font-family="Helvetica,sans-Serif" font-size="11.00" fill="#000000">&lt; 2</text>
<polygon fill="#ffffff" stroke="transparent" points="444,-119.7 444,-138.7 493,-138.7 493,-119.7 444,-119.7"/>
<polygon fill="none" stroke="#000000" points="444,-119.7 444,-138.7 493,-138.7 493,-119.7 444,-119.7"/>
<text text-anchor="start" x="457.6105" y="-125.8" font-family="Helvetica,sans-Serif" font-size="11.00" fill="#000000">0 rows</text>
<polygon fill="#ffffff" stroke="transparent" points="493,-119.7 493,-138.7 517,-138.7 517,-119.7 493,-119.7"/>
<polygon fill="none" stroke="#000000" points="493,-119.7 493,-138.7 517,-138.7 517,-119.7 493,-119.7"/>
<text text-anchor="start" x="507.8862" y="-125.8" font-family="Helvetica,sans-Serif" font-size="11.00" fill="#000000"> &#160;</text>
</a>
</g>
</g>
<!-- mat_aspect&#45;&gt;aspect -->
<g id="edge7" class="edge">
<title>mat_aspect:w&#45;&gt;aspect:e</title>
<path fill="none" stroke="#000000" d="M386.4229,-148.9608C363.8718,-153.3244 355.2484,-168.7825 338,-191.7 304.1079,-236.7313 353.3604,-311.7 297,-311.7"/>
<polygon fill="#000000" stroke="#000000" points="393.0298,-148.3894 401.3102,-151.2866 397.0149,-148.0447 401,-147.7 401,-147.7 401,-147.7 397.0149,-148.0447 400.6898,-144.1134 393.0298,-148.3894 393.0298,-148.3894"/>
<ellipse fill="none" stroke="#000000" cx="389.8417" cy="-148.6652" rx="3.2" ry="3.2"/>
</g>
<!-- mo_aspect -->
<g id="node7" class="node">
<title>mo_aspect</title>
<g id="a_node7"><a xlink:href="../../tables/mo_aspect.html" xlink:title="mo_aspect" target="_top">
<polygon fill="#ffffff" stroke="transparent" points="404,-38.2 404,-99.2 514,-99.2 514,-38.2 404,-38.2"/>
<polygon fill="#f5f5f5" stroke="transparent" points="404,-75.7 404,-98.7 514,-98.7 514,-75.7 404,-75.7"/>
<polygon fill="none" stroke="#000000" points="404,-75.7 404,-98.7 514,-98.7 514,-75.7 404,-75.7"/>
<text text-anchor="start" x="409" y="-84.3" font-family="Helvetica,sans-Serif" font-weight="bold" font-size="11.00" fill="#000000">mo_aspect</text>
<text text-anchor="start" x="479.5219" y="-83.8" font-family="Helvetica,sans-Serif" font-size="11.00" fill="#000000">[table]</text>
<polygon fill="none" stroke="#000000" points="404,-56.7 404,-75.7 514,-75.7 514,-56.7 404,-56.7"/>
<text text-anchor="start" x="407" y="-62.8" font-family="Helvetica,sans-Serif" font-size="11.00" fill="#000000">...</text>
<polygon fill="#ffffff" stroke="transparent" points="404,-37.7 404,-56.7 434,-56.7 434,-37.7 404,-37.7"/>
<polygon fill="none" stroke="#000000" points="404,-37.7 404,-56.7 434,-56.7 434,-37.7 404,-37.7"/>
<text text-anchor="start" x="407" y="-43.8" font-family="Helvetica,sans-Serif" font-size="11.00" fill="#000000">&lt; 2</text>
<polygon fill="#ffffff" stroke="transparent" points="434,-37.7 434,-56.7 497,-56.7 497,-37.7 434,-37.7"/>
<polygon fill="none" stroke="#000000" points="434,-37.7 434,-56.7 497,-56.7 497,-37.7 434,-37.7"/>
<text text-anchor="start" x="440.2089" y="-43.8" font-family="Helvetica,sans-Serif" font-size="11.00" fill="#000000">2.000 rows</text>
<polygon fill="#ffffff" stroke="transparent" points="497,-37.7 497,-56.7 514,-56.7 514,-37.7 497,-37.7"/>
<polygon fill="none" stroke="#000000" points="497,-37.7 497,-56.7 514,-56.7 514,-37.7 497,-37.7"/>
<text text-anchor="start" x="504.8862" y="-43.8" font-family="Helvetica,sans-Serif" font-size="11.00" fill="#000000"> &#160;</text>
</a>
</g>
</g>
<!-- mo_aspect&#45;&gt;aspect -->
<g id="edge8" class="edge">
<title>mo_aspect:w&#45;&gt;aspect:e</title>
<path fill="none" stroke="#000000" d="M389.4546,-66.7253C365.1687,-70.527 354.6638,-84.8939 338,-109.7 286.9169,-185.7435 388.6084,-311.7 297,-311.7"/>
<polygon fill="#000000" stroke="#000000" points="396.0198,-66.2625 404.2531,-69.2911 400.0099,-65.9813 404,-65.7 404,-65.7 404,-65.7 400.0099,-65.9813 403.7469,-62.1089 396.0198,-66.2625 396.0198,-66.2625"/>
<ellipse fill="none" stroke="#000000" cx="392.8277" cy="-66.4876" rx="3.2" ry="3.2"/>
</g>
<!-- mor_aspect -->
<g id="node8" class="node">
<title>mor_aspect</title>
<g id="a_node8"><a xlink:href="../../tables/mor_aspect.html" xlink:title="mor_aspect" target="_top">
<polygon fill="#ffffff" stroke="transparent" points="401,-366.2 401,-427.2 517,-427.2 517,-366.2 401,-366.2"/>
<polygon fill="#f5f5f5" stroke="transparent" points="401,-403.7 401,-426.7 517,-426.7 517,-403.7 401,-403.7"/>
<polygon fill="none" stroke="#000000" points="401,-403.7 401,-426.7 517,-426.7 517,-403.7 401,-403.7"/>
<text text-anchor="start" x="406" y="-412.3" font-family="Helvetica,sans-Serif" font-weight="bold" font-size="11.00" fill="#000000">mor_aspect</text>
<text text-anchor="start" x="482.5219" y="-411.8" font-family="Helvetica,sans-Serif" font-size="11.00" fill="#000000">[table]</text>
<polygon fill="none" stroke="#000000" points="401,-384.7 401,-403.7 517,-403.7 517,-384.7 401,-384.7"/>
<text text-anchor="start" x="404" y="-390.8" font-family="Helvetica,sans-Serif" font-size="11.00" fill="#000000">...</text>
<polygon fill="#ffffff" stroke="transparent" points="401,-365.7 401,-384.7 444,-384.7 444,-365.7 401,-365.7"/>
<polygon fill="none" stroke="#000000" points="401,-365.7 401,-384.7 444,-384.7 444,-365.7 401,-365.7"/>
<text text-anchor="start" x="404" y="-371.8" font-family="Helvetica,sans-Serif" font-size="11.00" fill="#000000">&lt; 2</text>
<polygon fill="#ffffff" stroke="transparent" points="444,-365.7 444,-384.7 493,-384.7 493,-365.7 444,-365.7"/>
<polygon fill="none" stroke="#000000" points="444,-365.7 444,-384.7 493,-384.7 493,-365.7 444,-365.7"/>
<text text-anchor="start" x="457.6105" y="-371.8" font-family="Helvetica,sans-Serif" font-size="11.00" fill="#000000">0 rows</text>
<polygon fill="#ffffff" stroke="transparent" points="493,-365.7 493,-384.7 517,-384.7 517,-365.7 493,-365.7"/>
<polygon fill="none" stroke="#000000" points="493,-365.7 493,-384.7 517,-384.7 517,-365.7 493,-365.7"/>
<text text-anchor="start" x="507.8862" y="-371.8" font-family="Helvetica,sans-Serif" font-size="11.00" fill="#000000"> &#160;</text>
</a>
</g>
</g>
<!-- mor_aspect&#45;&gt;aspect -->
<g id="edge9" class="edge">
<title>mor_aspect:w&#45;&gt;aspect:e</title>
<path fill="none" stroke="#000000" d="M386.646,-392.2949C366.0735,-387.7657 359.1258,-372.8436 338,-355.7 317.2447,-338.857 323.7296,-311.7 297,-311.7"/>
<polygon fill="#000000" stroke="#000000" points="393.0381,-392.9205 400.6492,-397.2829 397.019,-393.3103 401,-393.7 401,-393.7 401,-393.7 397.019,-393.3103 401.3508,-390.1171 393.0381,-392.9205 393.0381,-392.9205"/>
<ellipse fill="none" stroke="#000000" cx="389.8533" cy="-392.6088" rx="3.2" ry="3.2"/>
</g>
<!-- point_aspect -->
<g id="node9" class="node">
<title>point_aspect</title>
<g id="a_node9"><a xlink:href="../../tables/point_aspect.html" xlink:title="point_aspect" target="_top">
<polygon fill="#ffffff" stroke="transparent" points="396.5,-284.2 396.5,-345.2 521.5,-345.2 521.5,-284.2 396.5,-284.2"/>
<polygon fill="#f5f5f5" stroke="transparent" points="397,-321.7 397,-344.7 522,-344.7 522,-321.7 397,-321.7"/>
<polygon fill="none" stroke="#000000" points="397,-321.7 397,-344.7 522,-344.7 522,-321.7 397,-321.7"/>
<text text-anchor="start" x="402" y="-330.3" font-family="Helvetica,sans-Serif" font-weight="bold" font-size="11.00" fill="#000000">point_aspect</text>
<text text-anchor="start" x="487.5219" y="-329.8" font-family="Helvetica,sans-Serif" font-size="11.00" fill="#000000">[table]</text>
<polygon fill="none" stroke="#000000" points="397,-302.7 397,-321.7 522,-321.7 522,-302.7 397,-302.7"/>
<text text-anchor="start" x="400" y="-308.8" font-family="Helvetica,sans-Serif" font-size="11.00" fill="#000000">...</text>
<polygon fill="#ffffff" stroke="transparent" points="397,-283.7 397,-302.7 423,-302.7 423,-283.7 397,-283.7"/>
<polygon fill="none" stroke="#000000" points="397,-283.7 397,-302.7 423,-302.7 423,-283.7 397,-283.7"/>
<text text-anchor="start" x="400" y="-289.8" font-family="Helvetica,sans-Serif" font-size="11.00" fill="#000000">&lt; 2</text>
<polygon fill="#ffffff" stroke="transparent" points="423,-283.7 423,-302.7 507,-302.7 507,-283.7 423,-283.7"/>
<polygon fill="none" stroke="#000000" points="423,-283.7 423,-302.7 507,-302.7 507,-283.7 423,-283.7"/>
<text text-anchor="start" x="428.8073" y="-289.8" font-family="Helvetica,sans-Serif" font-size="11.00" fill="#000000">1.039.258 rows</text>
<polygon fill="#ffffff" stroke="transparent" points="507,-283.7 507,-302.7 522,-302.7 522,-283.7 507,-283.7"/>
<polygon fill="none" stroke="#000000" points="507,-283.7 507,-302.7 522,-302.7 522,-283.7 507,-283.7"/>
<text text-anchor="start" x="512.8862" y="-289.8" font-family="Helvetica,sans-Serif" font-size="11.00" fill="#000000"> &#160;</text>
</a>
</g>
</g>
<!-- point_aspect&#45;&gt;aspect -->
<g id="edge10" class="edge">
<title>point_aspect:w&#45;&gt;aspect:e</title>
<path fill="none" stroke="#000000" d="M382.2022,-311.7C349.3758,-311.7 336.0625,-311.7 297,-311.7"/>
<polygon fill="#000000" stroke="#000000" points="389,-311.7001 397,-315.3 393,-311.7 397,-311.7 397,-311.7 397,-311.7 393,-311.7 397,-308.1 389,-311.7001 389,-311.7001"/>
<ellipse fill="none" stroke="#000000" cx="385.8" cy="-311.7001" rx="3.2" ry="3.2"/>
</g>
<!-- predicate_aspect -->
<g id="node10" class="node">
<title>predicate_aspect</title>
<g id="a_node10"><a xlink:href="../../tables/predicate_aspect.html" xlink:title="predicate_aspect" target="_top">
<polygon fill="#ffffff" stroke="transparent" points="382,-202.2 382,-263.2 536,-263.2 536,-202.2 382,-202.2"/>
<polygon fill="#f5f5f5" stroke="transparent" points="382,-239.7 382,-262.7 536,-262.7 536,-239.7 382,-239.7"/>
<polygon fill="none" stroke="#000000" points="382,-239.7 382,-262.7 536,-262.7 536,-239.7 382,-239.7"/>
<text text-anchor="start" x="387" y="-248.3" font-family="Helvetica,sans-Serif" font-weight="bold" font-size="11.00" fill="#000000">predicate_aspect</text>
<text text-anchor="start" x="501.5219" y="-247.8" font-family="Helvetica,sans-Serif" font-size="11.00" fill="#000000">[table]</text>
<polygon fill="none" stroke="#000000" points="382,-220.7 382,-239.7 536,-239.7 536,-220.7 382,-220.7"/>
<text text-anchor="start" x="385" y="-226.8" font-family="Helvetica,sans-Serif" font-size="11.00" fill="#000000">...</text>
<polygon fill="#ffffff" stroke="transparent" points="382,-201.7 382,-220.7 444,-220.7 444,-201.7 382,-201.7"/>
<polygon fill="none" stroke="#000000" points="382,-201.7 382,-220.7 444,-220.7 444,-201.7 382,-201.7"/>
<text text-anchor="start" x="385" y="-207.8" font-family="Helvetica,sans-Serif" font-size="11.00" fill="#000000">&lt; 2</text>
<polygon fill="#ffffff" stroke="transparent" points="444,-201.7 444,-220.7 503,-220.7 503,-201.7 444,-201.7"/>
<polygon fill="none" stroke="#000000" points="444,-201.7 444,-220.7 503,-220.7 503,-201.7 444,-201.7"/>
<text text-anchor="start" x="467.6105" y="-207.8" font-family="Helvetica,sans-Serif" font-size="11.00" fill="#000000">0 rows</text>
<polygon fill="#ffffff" stroke="transparent" points="503,-201.7 503,-220.7 536,-220.7 536,-201.7 503,-201.7"/>
<polygon fill="none" stroke="#000000" points="503,-201.7 503,-220.7 536,-220.7 536,-201.7 503,-201.7"/>
<text text-anchor="start" x="526.8862" y="-207.8" font-family="Helvetica,sans-Serif" font-size="11.00" fill="#000000"> &#160;</text>
</a>
</g>
</g>
<!-- predicate_aspect&#45;&gt;aspect -->
<g id="edge11" class="edge">
<title>predicate_aspect:w&#45;&gt;aspect:e</title>
<path fill="none" stroke="#000000" d="M368.6318,-235.5972C345.256,-254.3991 318.9398,-311.7 297,-311.7"/>
<polygon fill="#000000" stroke="#000000" points="374.6805,-232.9289 383.453,-232.9938 378.3403,-231.3145 382,-229.7 382,-229.7 382,-229.7 378.3403,-231.3145 380.547,-226.4062 374.6805,-232.9289 374.6805,-232.9289"/>
<ellipse fill="none" stroke="#000000" cx="371.7528" cy="-234.2205" rx="3.2" ry="3.2"/>
</g>
</g>
</svg>
