<?xml version="1.0" encoding="UTF-8" standalone="no"?>
<!DOCTYPE svg PUBLIC "-//W3C//DTD SVG 1.1//EN"
 "http://www.w3.org/Graphics/SVG/1.1/DTD/svg11.dtd">
<!-- Generated by graphviz version 2.40.1 (20161225.0304)
 -->
<!-- Title: twoDegreesRelationshipsDiagram Pages: 1 -->
<svg width="582pt" height="375pt"
 viewBox="0.00 0.00 582.00 375.22" xmlns="http://www.w3.org/2000/svg" xmlns:xlink="http://www.w3.org/1999/xlink">
<g id="graph0" class="graph" transform="scale(1 1) rotate(0) translate(4 371.2171)">
<title>twoDegreesRelationshipsDiagram</title>
<polygon fill="#ffffff" stroke="transparent" points="-4,4 -4,-371.2171 578,-371.2171 578,4 -4,4"/>
<text text-anchor="middle" x="72.4936" y="-7.3" font-family="Helvetica,sans-Serif" font-size="11.00" fill="#000000">Generated by SchemaSpy</text>
<!-- aspect -->
<g id="node1" class="node">
<title>aspect</title>
<g id="a_node1"><a xlink:href="../../tables/aspect.html" xlink:title="aspect" target="_top">
<polygon fill="#ffffff" stroke="transparent" points="221.5,-302.2171 221.5,-363.2171 322.5,-363.2171 322.5,-302.2171 221.5,-302.2171"/>
<polygon fill="#f5f5f5" stroke="transparent" points="222,-339.7171 222,-362.7171 323,-362.7171 323,-339.7171 222,-339.7171"/>
<polygon fill="none" stroke="#000000" points="222,-339.7171 222,-362.7171 323,-362.7171 323,-339.7171 222,-339.7171"/>
<text text-anchor="start" x="227" y="-348.3171" font-family="Helvetica,sans-Serif" font-weight="bold" font-size="11.00" fill="#000000">aspect</text>
<text text-anchor="start" x="288.0437" y="-347.8171" font-family="Helvetica,sans-Serif" font-size="11.00" fill="#000000">[table]</text>
<polygon fill="none" stroke="#000000" points="222,-320.7171 222,-339.7171 323,-339.7171 323,-320.7171 222,-320.7171"/>
<text text-anchor="start" x="225" y="-326.8171" font-family="Helvetica,sans-Serif" font-size="11.00" fill="#000000">...</text>
<polygon fill="#ffffff" stroke="transparent" points="222,-301.7171 222,-320.7171 243,-320.7171 243,-301.7171 222,-301.7171"/>
<polygon fill="none" stroke="#000000" points="222,-301.7171 222,-320.7171 243,-320.7171 243,-301.7171 222,-301.7171"/>
<text text-anchor="start" x="224.7027" y="-307.8171" font-family="Helvetica,sans-Serif" font-size="11.00" fill="#000000">&lt; 1</text>
<polygon fill="#ffffff" stroke="transparent" points="243,-301.7171 243,-320.7171 302,-320.7171 302,-301.7171 243,-301.7171"/>
<polygon fill="none" stroke="#000000" points="243,-301.7171 243,-320.7171 302,-320.7171 302,-301.7171 243,-301.7171"/>
<text text-anchor="start" x="245.6045" y="-307.8171" font-family="Helvetica,sans-Serif" font-size="11.00" fill="#000000">2.300 rows</text>
<polygon fill="#ffffff" stroke="transparent" points="302,-301.7171 302,-320.7171 323,-320.7171 323,-301.7171 302,-301.7171"/>
<polygon fill="none" stroke="#000000" points="302,-301.7171 302,-320.7171 323,-320.7171 323,-301.7171 302,-301.7171"/>
<text text-anchor="start" x="304.7027" y="-307.8171" font-family="Helvetica,sans-Serif" font-size="11.00" fill="#000000">6 &gt;</text>
</a>
</g>
</g>
<!-- aspect_type -->
<g id="node2" class="node">
<title>aspect_type</title>
<g id="a_node2"><a xlink:href="../../tables/aspect_type.html" xlink:title="aspect_type" target="_top">
<polygon fill="#ffffff" stroke="transparent" points="8,-177.2171 8,-282.2171 128,-282.2171 128,-177.2171 8,-177.2171"/>
<polygon fill="#f5f5f5" stroke="transparent" points="8,-258.7171 8,-281.7171 128,-281.7171 128,-258.7171 8,-258.7171"/>
<polygon fill="none" stroke="#000000" points="8,-258.7171 8,-281.7171 128,-281.7171 128,-258.7171 8,-258.7171"/>
<text text-anchor="start" x="13" y="-267.3171" font-family="Helvetica,sans-Serif" font-weight="bold" font-size="11.00" fill="#000000">aspect_type</text>
<text text-anchor="start" x="93.5219" y="-266.8171" font-family="Helvetica,sans-Serif" font-size="11.00" fill="#000000">[table]</text>
<polygon fill="none" stroke="#000000" points="8,-236.7171 8,-258.7171 128,-258.7171 128,-236.7171 8,-236.7171"/>
<image xlink:href="../../images/primaryKeys.png" width="11px" height="12px" preserveAspectRatio="xMinYMin meet" x="13" y="-253.717"/>
<text text-anchor="start" x="28" y="-243.8171" font-family="Helvetica,sans-Serif" font-size="11.00" fill="#000000">aspect_type_id</text>
<polygon fill="#ffffff" stroke="transparent" points="8,-214.7171 8,-236.7171 128,-236.7171 128,-214.7171 8,-214.7171"/>
<polygon fill="none" stroke="#000000" points="8,-214.7171 8,-236.7171 128,-236.7171 128,-214.7171 8,-214.7171"/>
<image xlink:href="../../images/foreignKeys.png" width="11px" height="12px" preserveAspectRatio="xMinYMin meet" x="13" y="-231.717"/>
<text text-anchor="start" x="28" y="-221.8171" font-family="Helvetica,sans-Serif" font-size="11.00" fill="#000000">super_type_id</text>
<polygon fill="none" stroke="#000000" points="8,-195.7171 8,-214.7171 128,-214.7171 128,-195.7171 8,-195.7171"/>
<text text-anchor="start" x="11" y="-201.8171" font-family="Helvetica,sans-Serif" font-size="11.00" fill="#000000">...</text>
<polygon fill="#ffffff" stroke="transparent" points="8,-176.7171 8,-195.7171 49,-195.7171 49,-176.7171 8,-176.7171"/>
<polygon fill="none" stroke="#000000" points="8,-176.7171 8,-195.7171 49,-195.7171 49,-176.7171 8,-176.7171"/>
<text text-anchor="start" x="11" y="-182.8171" font-family="Helvetica,sans-Serif" font-size="11.00" fill="#000000">&lt; 1</text>
<polygon fill="#ffffff" stroke="transparent" points="49,-176.7171 49,-195.7171 97,-195.7171 97,-176.7171 49,-176.7171"/>
<polygon fill="none" stroke="#000000" points="49,-176.7171 49,-195.7171 97,-195.7171 97,-176.7171 49,-176.7171"/>
<text text-anchor="start" x="61.6105" y="-182.8171" font-family="Helvetica,sans-Serif" font-size="11.00" fill="#000000">4 rows</text>
<polygon fill="#ffffff" stroke="transparent" points="97,-176.7171 97,-195.7171 128,-195.7171 128,-176.7171 97,-176.7171"/>
<polygon fill="none" stroke="#000000" points="97,-176.7171 97,-195.7171 128,-195.7171 128,-176.7171 97,-176.7171"/>
<text text-anchor="start" x="109.4053" y="-182.8171" font-family="Helvetica,sans-Serif" font-size="11.00" fill="#000000">4 &gt;</text>
</a>
</g>
</g>
<!-- aspect&#45;&gt;aspect_type -->
<g id="edge1" class="edge">
<title>aspect:w&#45;&gt;aspect_type:e</title>
<path fill="none" stroke="#000000" d="M207.7318,-327.6973C191.3919,-322.3397 186.5138,-307.12 169,-291.7171 148.9285,-274.0649 154.7296,-247.7171 128,-247.7171"/>
<polygon fill="#000000" stroke="#000000" points="214.079,-328.5958 221.4954,-333.2816 218.0395,-329.1565 222,-329.7171 222,-329.7171 222,-329.7171 218.0395,-329.1565 222.5046,-326.1527 214.079,-328.5958 214.079,-328.5958"/>
<ellipse fill="none" stroke="#000000" cx="210.9106" cy="-328.1473" rx="3.2" ry="3.2"/>
</g>
<!-- aspect_attribute -->
<g id="node3" class="node">
<title>aspect_attribute</title>
<g id="a_node3"><a xlink:href="../../tables/aspect_attribute.html" xlink:title="aspect_attribute" target="_top">
<polygon fill="#ffffff" stroke="transparent" points="416,-132.2171 416,-193.2171 566,-193.2171 566,-132.2171 416,-132.2171"/>
<polygon fill="#f5f5f5" stroke="transparent" points="416,-169.7171 416,-192.7171 566,-192.7171 566,-169.7171 416,-169.7171"/>
<polygon fill="none" stroke="#000000" points="416,-169.7171 416,-192.7171 566,-192.7171 566,-169.7171 416,-169.7171"/>
<text text-anchor="start" x="421" y="-178.3171" font-family="Helvetica,sans-Serif" font-weight="bold" font-size="11.00" fill="#000000">aspect_attribute</text>
<text text-anchor="start" x="531.5219" y="-177.8171" font-family="Helvetica,sans-Serif" font-size="11.00" fill="#000000">[table]</text>
<polygon fill="none" stroke="#000000" points="416,-150.7171 416,-169.7171 566,-169.7171 566,-150.7171 416,-150.7171"/>
<text text-anchor="start" x="419" y="-156.8171" font-family="Helvetica,sans-Serif" font-size="11.00" fill="#000000">...</text>
<polygon fill="#ffffff" stroke="transparent" points="416,-131.7171 416,-150.7171 466,-150.7171 466,-131.7171 416,-131.7171"/>
<polygon fill="none" stroke="#000000" points="416,-131.7171 416,-150.7171 466,-150.7171 466,-131.7171 416,-131.7171"/>
<text text-anchor="start" x="419" y="-137.8171" font-family="Helvetica,sans-Serif" font-size="11.00" fill="#000000">&lt; 3</text>
<polygon fill="#ffffff" stroke="transparent" points="466,-131.7171 466,-150.7171 539,-150.7171 539,-131.7171 466,-131.7171"/>
<polygon fill="none" stroke="#000000" points="466,-131.7171 466,-150.7171 539,-150.7171 539,-131.7171 466,-131.7171"/>
<text text-anchor="start" x="482.2089" y="-137.8171" font-family="Helvetica,sans-Serif" font-size="11.00" fill="#000000">6.100 rows</text>
<polygon fill="#ffffff" stroke="transparent" points="539,-131.7171 539,-150.7171 566,-150.7171 566,-131.7171 539,-131.7171"/>
<polygon fill="none" stroke="#000000" points="539,-131.7171 539,-150.7171 566,-150.7171 566,-131.7171 539,-131.7171"/>
<text text-anchor="start" x="556.8862" y="-137.8171" font-family="Helvetica,sans-Serif" font-size="11.00" fill="#000000"> &#160;</text>
</a>
</g>
</g>
<!-- aspect_attribute&#45;&gt;aspect -->
<g id="edge2" class="edge">
<title>aspect_attribute:w&#45;&gt;aspect:e</title>
<path fill="none" stroke="#000000" d="M468.5221,-210.3055C441.518,-259.6685 391.1853,-329.7171 323,-329.7171"/>
<polygon fill="#000000" stroke="#000000" points="471.631,-204.3989 478.5429,-198.9964 473.4941,-200.8593 475.3572,-197.3196 475.3572,-197.3196 475.3572,-197.3196 473.4941,-200.8593 472.1715,-195.6429 471.631,-204.3989 471.631,-204.3989"/>
<ellipse fill="none" stroke="#000000" cx="470.1406" cy="-207.2306" rx="3.2" ry="3.2"/>
</g>
<!-- attribute -->
<g id="node4" class="node">
<title>attribute</title>
<g id="a_node4"><a xlink:href="../../tables/attribute.html" xlink:title="attribute" target="_top">
<polygon fill="#ffffff" stroke="transparent" points="179.5,-64.7171 179.5,-198.7171 364.5,-198.7171 364.5,-64.7171 179.5,-64.7171"/>
<polygon fill="#f5f5f5" stroke="transparent" points="182,-173.7171 182,-196.7171 363,-196.7171 363,-173.7171 182,-173.7171"/>
<polygon fill="none" stroke="#000000" points="182,-173.7171 182,-196.7171 363,-196.7171 363,-173.7171 182,-173.7171"/>
<text text-anchor="start" x="187" y="-182.3171" font-family="Helvetica,sans-Serif" font-weight="bold" font-size="11.00" fill="#000000">attribute</text>
<text text-anchor="start" x="328.0437" y="-181.8171" font-family="Helvetica,sans-Serif" font-size="11.00" fill="#000000">[table]</text>
<polygon fill="none" stroke="#000000" points="182,-151.7171 182,-173.7171 302,-173.7171 302,-151.7171 182,-151.7171"/>
<image xlink:href="../../images/primaryKeys.png" width="11px" height="12px" preserveAspectRatio="xMinYMin meet" x="187" y="-168.717"/>
<text text-anchor="start" x="202" y="-158.8171" font-family="Helvetica,sans-Serif" font-size="11.00" fill="#000000">attribute_id</text>
<polygon fill="none" stroke="#000000" points="302,-151.7171 302,-173.7171 363,-173.7171 363,-151.7171 302,-151.7171"/>
<text text-anchor="start" x="305" y="-159.4171" font-family="Helvetica,sans-Serif" font-size="11.00" fill="#000000">int4[10]</text>
<polygon fill="none" stroke="#000000" points="182,-129.7171 182,-151.7171 302,-151.7171 302,-129.7171 182,-129.7171"/>
<text text-anchor="start" x="202" y="-136.8171" font-family="Helvetica,sans-Serif" font-size="11.00" fill="#000000">name</text>
<polygon fill="none" stroke="#000000" points="302,-129.7171 302,-151.7171 363,-151.7171 363,-129.7171 302,-129.7171"/>
<text text-anchor="start" x="304.994" y="-137.4171" font-family="Helvetica,sans-Serif" font-size="11.00" fill="#000000">varchar[30]</text>
<polygon fill="#ffffff" stroke="transparent" points="182,-107.7171 182,-129.7171 302,-129.7171 302,-107.7171 182,-107.7171"/>
<polygon fill="none" stroke="#000000" points="182,-107.7171 182,-129.7171 302,-129.7171 302,-107.7171 182,-107.7171"/>
<image xlink:href="../../images/foreignKeys.png" width="11px" height="12px" preserveAspectRatio="xMinYMin meet" x="187" y="-124.717"/>
<text text-anchor="start" x="202" y="-114.8171" font-family="Helvetica,sans-Serif" font-size="11.00" fill="#000000">aspect_type_id</text>
<polygon fill="none" stroke="#000000" points="302,-107.7171 302,-129.7171 363,-129.7171 363,-107.7171 302,-107.7171"/>
<text text-anchor="start" x="305" y="-115.4171" font-family="Helvetica,sans-Serif" font-size="11.00" fill="#000000">int4[10]</text>
<polygon fill="#ffffff" stroke="transparent" points="182,-85.7171 182,-107.7171 302,-107.7171 302,-85.7171 182,-85.7171"/>
<polygon fill="none" stroke="#000000" points="182,-85.7171 182,-107.7171 302,-107.7171 302,-85.7171 182,-85.7171"/>
<image xlink:href="../../images/foreignKeys.png" width="11px" height="12px" preserveAspectRatio="xMinYMin meet" x="187" y="-102.717"/>
<text text-anchor="start" x="202" y="-92.8171" font-family="Helvetica,sans-Serif" font-size="11.00" fill="#000000">data_type_id</text>
<polygon fill="none" stroke="#000000" points="302,-85.7171 302,-107.7171 363,-107.7171 363,-85.7171 302,-85.7171"/>
<text text-anchor="start" x="305" y="-93.4171" font-family="Helvetica,sans-Serif" font-size="11.00" fill="#000000">int4[10]</text>
<polygon fill="#ffffff" stroke="transparent" points="182,-66.7171 182,-85.7171 233,-85.7171 233,-66.7171 182,-66.7171"/>
<polygon fill="none" stroke="#000000" points="182,-66.7171 182,-85.7171 233,-85.7171 233,-66.7171 182,-66.7171"/>
<text text-anchor="start" x="185" y="-72.8171" font-family="Helvetica,sans-Serif" font-size="11.00" fill="#000000">&lt; 2</text>
<polygon fill="#ffffff" stroke="transparent" points="233,-66.7171 233,-85.7171 302,-85.7171 302,-66.7171 233,-66.7171"/>
<polygon fill="none" stroke="#000000" points="233,-66.7171 233,-85.7171 302,-85.7171 302,-66.7171 233,-66.7171"/>
<text text-anchor="start" x="266.6105" y="-72.8171" font-family="Helvetica,sans-Serif" font-size="11.00" fill="#000000">4 rows</text>
<polygon fill="#ffffff" stroke="transparent" points="302,-66.7171 302,-85.7171 363,-85.7171 363,-66.7171 302,-66.7171"/>
<polygon fill="none" stroke="#000000" points="302,-66.7171 302,-85.7171 363,-85.7171 363,-66.7171 302,-66.7171"/>
<text text-anchor="start" x="344.4053" y="-72.8171" font-family="Helvetica,sans-Serif" font-size="11.00" fill="#000000">1 &gt;</text>
<polygon fill="none" stroke="#000000" stroke-width="2" points="180.5,-65.7171 180.5,-197.7171 363.5,-197.7171 363.5,-65.7171 180.5,-65.7171"/>
</a>
</g>
</g>
<!-- aspect_attribute&#45;&gt;attribute -->
<g id="edge3" class="edge">
<title>aspect_attribute:w&#45;&gt;attribute:e</title>
<path fill="none" stroke="#000000" d="M393.2853,-162.7171C383.059,-162.7171 372.8177,-162.7171 363,-162.7171"/>
<polygon fill="#000000" stroke="#000000" points="399.6872,-162.7172 407.6872,-166.3171 403.6872,-162.7172 407.6872,-162.7171 407.6872,-162.7171 407.6872,-162.7171 403.6872,-162.7172 407.6871,-159.1171 399.6872,-162.7172 399.6872,-162.7172"/>
<ellipse fill="none" stroke="#000000" cx="396.4872" cy="-162.7172" rx="3.2" ry="3.2"/>
</g>
<!-- data_type -->
<g id="node5" class="node">
<title>data_type</title>
<g id="a_node5"><a xlink:href="../../tables/data_type.html" xlink:title="data_type" target="_top">
<polygon fill="#ffffff" stroke="transparent" points="15.5,-38.2171 15.5,-99.2171 120.5,-99.2171 120.5,-38.2171 15.5,-38.2171"/>
<polygon fill="#f5f5f5" stroke="transparent" points="16,-75.7171 16,-98.7171 121,-98.7171 121,-75.7171 16,-75.7171"/>
<polygon fill="none" stroke="#000000" points="16,-75.7171 16,-98.7171 121,-98.7171 121,-75.7171 16,-75.7171"/>
<text text-anchor="start" x="21" y="-84.3171" font-family="Helvetica,sans-Serif" font-weight="bold" font-size="11.00" fill="#000000">data_type</text>
<text text-anchor="start" x="86.5219" y="-83.8171" font-family="Helvetica,sans-Serif" font-size="11.00" fill="#000000">[table]</text>
<polygon fill="none" stroke="#000000" points="16,-56.7171 16,-75.7171 121,-75.7171 121,-56.7171 16,-56.7171"/>
<text text-anchor="start" x="19" y="-62.8171" font-family="Helvetica,sans-Serif" font-size="11.00" fill="#000000">...</text>
<polygon fill="#ffffff" stroke="transparent" points="16,-37.7171 16,-56.7171 48,-56.7171 48,-37.7171 16,-37.7171"/>
<polygon fill="none" stroke="#000000" points="16,-37.7171 16,-56.7171 48,-56.7171 48,-37.7171 16,-37.7171"/>
<text text-anchor="start" x="19" y="-43.8171" font-family="Helvetica,sans-Serif" font-size="11.00" fill="#000000"> &#160;</text>
<polygon fill="#ffffff" stroke="transparent" points="48,-37.7171 48,-56.7171 90,-56.7171 90,-37.7171 48,-37.7171"/>
<polygon fill="none" stroke="#000000" points="48,-37.7171 48,-56.7171 90,-56.7171 90,-37.7171 48,-37.7171"/>
<text text-anchor="start" x="60.1105" y="-43.8171" font-family="Helvetica,sans-Serif" font-size="11.00" fill="#000000">1 row</text>
<polygon fill="#ffffff" stroke="transparent" points="90,-37.7171 90,-56.7171 121,-56.7171 121,-37.7171 90,-37.7171"/>
<polygon fill="none" stroke="#000000" points="90,-37.7171 90,-56.7171 121,-56.7171 121,-37.7171 90,-37.7171"/>
<text text-anchor="start" x="102.4053" y="-43.8171" font-family="Helvetica,sans-Serif" font-size="11.00" fill="#000000">2 &gt;</text>
</a>
</g>
</g>
<!-- aspect_attribute&#45;&gt;data_type -->
<g id="edge4" class="edge">
<title>aspect_attribute:w&#45;&gt;data_type:e</title>
<path fill="none" stroke="#000000" d="M456.6347,-116.8028C435.9331,-93.1028 407.3465,-66.5299 375,-53.7171 294.3808,-21.783 192.4115,-36.4342 128.6804,-51.3963"/>
<polygon fill="#000000" stroke="#000000" points="461.0025,-122.0062 463.3885,-130.4481 463.5742,-125.0699 466.1459,-128.1336 466.1459,-128.1336 466.1459,-128.1336 463.5742,-125.0699 468.9032,-125.8191 461.0025,-122.0062 461.0025,-122.0062"/>
<ellipse fill="none" stroke="#000000" cx="458.9451" cy="-119.5552" rx="3.2" ry="3.2"/>
</g>
<!-- attribute&#45;&gt;aspect_type -->
<g id="edge5" class="edge">
<title>attribute:w&#45;&gt;aspect_type:e</title>
<path fill="none" stroke="#000000" d="M167.7936,-121.9059C131.8646,-141.7708 184.327,-247.7171 128,-247.7171"/>
<polygon fill="#000000" stroke="#000000" points="174.1942,-120.4693 182.7885,-122.2297 178.0971,-119.5932 182,-118.7171 182,-118.7171 182,-118.7171 178.0971,-119.5932 181.2115,-115.2045 174.1942,-120.4693 174.1942,-120.4693"/>
<ellipse fill="none" stroke="#000000" cx="171.0719" cy="-121.1701" rx="3.2" ry="3.2"/>
</g>
<!-- attribute&#45;&gt;data_type -->
<g id="edge6" class="edge">
<title>attribute:w&#45;&gt;data_type:e</title>
<path fill="none" stroke="#000000" d="M167.3482,-96.0443C154.2517,-94.8914 140.9713,-92.3629 128.5648,-89.2872"/>
<polygon fill="#000000" stroke="#000000" points="174.0084,-96.3501 181.8348,-100.3133 178.0042,-96.5336 182,-96.7171 182,-96.7171 182,-96.7171 178.0042,-96.5336 182.1652,-93.1209 174.0084,-96.3501 174.0084,-96.3501"/>
<ellipse fill="none" stroke="#000000" cx="170.8118" cy="-96.2032" rx="3.2" ry="3.2"/>
</g>
<!-- predicate_aspect_type -->
<g id="node6" class="node">
<title>predicate_aspect_type</title>
<g id="a_node6"><a xlink:href="../../tables/predicate_aspect_type.html" xlink:title="predicate_aspect_type" target="_top">
<polygon fill="#ffffff" stroke="transparent" points="177,-220.2171 177,-281.2171 367,-281.2171 367,-220.2171 177,-220.2171"/>
<polygon fill="#f5f5f5" stroke="transparent" points="177,-257.7171 177,-280.7171 367,-280.7171 367,-257.7171 177,-257.7171"/>
<polygon fill="none" stroke="#000000" points="177,-257.7171 177,-280.7171 367,-280.7171 367,-257.7171 177,-257.7171"/>
<text text-anchor="start" x="182" y="-266.3171" font-family="Helvetica,sans-Serif" font-weight="bold" font-size="11.00" fill="#000000">predicate_aspect_type</text>
<text text-anchor="start" x="332.5219" y="-265.8171" font-family="Helvetica,sans-Serif" font-size="11.00" fill="#000000">[table]</text>
<polygon fill="none" stroke="#000000" points="177,-238.7171 177,-257.7171 367,-257.7171 367,-238.7171 177,-238.7171"/>
<text text-anchor="start" x="180" y="-244.8171" font-family="Helvetica,sans-Serif" font-size="11.00" fill="#000000">...</text>
<polygon fill="#ffffff" stroke="transparent" points="177,-219.7171 177,-238.7171 257,-238.7171 257,-219.7171 177,-219.7171"/>
<polygon fill="none" stroke="#000000" points="177,-219.7171 177,-238.7171 257,-238.7171 257,-219.7171 177,-219.7171"/>
<text text-anchor="start" x="180" y="-225.8171" font-family="Helvetica,sans-Serif" font-size="11.00" fill="#000000">&lt; 2</text>
<polygon fill="#ffffff" stroke="transparent" points="257,-219.7171 257,-238.7171 325,-238.7171 325,-219.7171 257,-219.7171"/>
<polygon fill="none" stroke="#000000" points="257,-219.7171 257,-238.7171 325,-238.7171 325,-219.7171 257,-219.7171"/>
<text text-anchor="start" x="289.6105" y="-225.8171" font-family="Helvetica,sans-Serif" font-size="11.00" fill="#000000">0 rows</text>
<polygon fill="#ffffff" stroke="transparent" points="325,-219.7171 325,-238.7171 367,-238.7171 367,-219.7171 325,-219.7171"/>
<polygon fill="none" stroke="#000000" points="325,-219.7171 325,-238.7171 367,-238.7171 367,-219.7171 325,-219.7171"/>
<text text-anchor="start" x="357.8862" y="-225.8171" font-family="Helvetica,sans-Serif" font-size="11.00" fill="#000000"> &#160;</text>
</a>
</g>
</g>
<!-- predicate_aspect_type&#45;&gt;aspect_type -->
<g id="edge7" class="edge">
<title>predicate_aspect_type:w&#45;&gt;aspect_type:e</title>
<path fill="none" stroke="#000000" d="M162.4909,-247.7171C151.1774,-247.7171 143.9931,-247.7171 128,-247.7171"/>
<polygon fill="#000000" stroke="#000000" points="169,-247.7172 177,-251.3171 173,-247.7172 177,-247.7171 177,-247.7171 177,-247.7171 173,-247.7172 177,-244.1171 169,-247.7172 169,-247.7172"/>
<ellipse fill="none" stroke="#000000" cx="165.8" cy="-247.7172" rx="3.2" ry="3.2"/>
</g>
</g>
</svg>
