<?xml version="1.0" encoding="UTF-8" standalone="no"?>
<!DOCTYPE svg PUBLIC "-//W3C//DTD SVG 1.1//EN"
 "http://www.w3.org/Graphics/SVG/1.1/DTD/svg11.dtd">
<!-- Generated by graphviz version 2.40.1 (20161225.0304)
 -->
<!-- Title: oneDegreeRelationshipsDiagram Pages: 1 -->
<svg width="588pt" height="259pt"
 viewBox="0.00 0.00 588.00 259.20" xmlns="http://www.w3.org/2000/svg" xmlns:xlink="http://www.w3.org/1999/xlink">
<g id="graph0" class="graph" transform="scale(1 1) rotate(0) translate(4 255.2)">
<title>oneDegreeRelationshipsDiagram</title>
<polygon fill="#ffffff" stroke="transparent" points="-4,4 -4,-255.2 584,-255.2 584,4 -4,4"/>
<text text-anchor="middle" x="72.4936" y="-7.3" font-family="Helvetica,sans-Serif" font-size="11.00" fill="#000000">Generated by SchemaSpy</text>
<!-- aspect_attribute -->
<g id="node1" class="node">
<title>aspect_attribute</title>
<g id="a_node1"><a xlink:href="../../tables/aspect_attribute.html" xlink:title="aspect_attribute" target="_top">
<polygon fill="#ffffff" stroke="transparent" points="422,-88.2 422,-215.2 572,-215.2 572,-88.2 422,-88.2"/>
<polygon fill="#f5f5f5" stroke="transparent" points="422,-191.7 422,-214.7 572,-214.7 572,-191.7 422,-191.7"/>
<polygon fill="none" stroke="#000000" points="422,-191.7 422,-214.7 572,-214.7 572,-191.7 422,-191.7"/>
<text text-anchor="start" x="427" y="-200.3" font-family="Helvetica,sans-Serif" font-weight="bold" font-size="11.00" fill="#000000">aspect_attribute</text>
<text text-anchor="start" x="537.5219" y="-199.8" font-family="Helvetica,sans-Serif" font-size="11.00" fill="#000000">[table]</text>
<polygon fill="none" stroke="#000000" points="422,-169.7 422,-191.7 572,-191.7 572,-169.7 422,-169.7"/>
<image xlink:href="../../images/primaryKeys.png" width="11px" height="12px" preserveAspectRatio="xMinYMin meet" x="427" y="-186.7"/>
<text text-anchor="start" x="451" y="-176.8" font-family="Helvetica,sans-Serif" font-size="11.00" fill="#000000">aspect_id</text>
<polygon fill="none" stroke="#000000" points="422,-147.7 422,-169.7 572,-169.7 572,-147.7 422,-147.7"/>
<image xlink:href="../../images/primaryKeys.png" width="11px" height="12px" preserveAspectRatio="xMinYMin meet" x="427" y="-164.7"/>
<text text-anchor="start" x="451" y="-154.8" font-family="Helvetica,sans-Serif" font-size="11.00" fill="#000000">attribute_id</text>
<polygon fill="#ffffff" stroke="transparent" points="422,-125.7 422,-147.7 572,-147.7 572,-125.7 422,-125.7"/>
<polygon fill="none" stroke="#000000" points="422,-125.7 422,-147.7 572,-147.7 572,-125.7 422,-125.7"/>
<image xlink:href="../../images/foreignKeys.png" width="11px" height="12px" preserveAspectRatio="xMinYMin meet" x="427" y="-142.7"/>
<text text-anchor="start" x="451" y="-132.8" font-family="Helvetica,sans-Serif" font-size="11.00" fill="#000000">data_type_id</text>
<polygon fill="none" stroke="#000000" points="422,-106.7 422,-125.7 572,-125.7 572,-106.7 422,-106.7"/>
<text text-anchor="start" x="425" y="-112.8" font-family="Helvetica,sans-Serif" font-size="11.00" fill="#000000">...</text>
<polygon fill="#ffffff" stroke="transparent" points="422,-87.7 422,-106.7 472,-106.7 472,-87.7 422,-87.7"/>
<polygon fill="none" stroke="#000000" points="422,-87.7 422,-106.7 472,-106.7 472,-87.7 422,-87.7"/>
<text text-anchor="start" x="425" y="-93.8" font-family="Helvetica,sans-Serif" font-size="11.00" fill="#000000">&lt; 3</text>
<polygon fill="#ffffff" stroke="transparent" points="472,-87.7 472,-106.7 545,-106.7 545,-87.7 472,-87.7"/>
<polygon fill="none" stroke="#000000" points="472,-87.7 472,-106.7 545,-106.7 545,-87.7 472,-87.7"/>
<text text-anchor="start" x="488.2089" y="-93.8" font-family="Helvetica,sans-Serif" font-size="11.00" fill="#000000">6.100 rows</text>
<polygon fill="#ffffff" stroke="transparent" points="545,-87.7 545,-106.7 572,-106.7 572,-87.7 545,-87.7"/>
<polygon fill="none" stroke="#000000" points="545,-87.7 545,-106.7 572,-106.7 572,-87.7 545,-87.7"/>
<text text-anchor="start" x="562.8862" y="-93.8" font-family="Helvetica,sans-Serif" font-size="11.00" fill="#000000"> &#160;</text>
</a>
</g>
</g>
<!-- attribute -->
<g id="node2" class="node">
<title>attribute</title>
<g id="a_node2"><a xlink:href="../../tables/attribute.html" xlink:title="attribute" target="_top">
<polygon fill="#ffffff" stroke="transparent" points="188,-110.7 188,-244.7 373,-244.7 373,-110.7 188,-110.7"/>
<polygon fill="#f5f5f5" stroke="transparent" points="190.5,-219.7 190.5,-242.7 371.5,-242.7 371.5,-219.7 190.5,-219.7"/>
<polygon fill="none" stroke="#000000" points="190.5,-219.7 190.5,-242.7 371.5,-242.7 371.5,-219.7 190.5,-219.7"/>
<text text-anchor="start" x="195.5" y="-228.3" font-family="Helvetica,sans-Serif" font-weight="bold" font-size="11.00" fill="#000000">attribute</text>
<text text-anchor="start" x="336.5437" y="-227.8" font-family="Helvetica,sans-Serif" font-size="11.00" fill="#000000">[table]</text>
<polygon fill="none" stroke="#000000" points="190.5,-197.7 190.5,-219.7 310.5,-219.7 310.5,-197.7 190.5,-197.7"/>
<image xlink:href="../../images/primaryKeys.png" width="11px" height="12px" preserveAspectRatio="xMinYMin meet" x="195.5" y="-214.7"/>
<text text-anchor="start" x="210.5" y="-204.8" font-family="Helvetica,sans-Serif" font-size="11.00" fill="#000000">attribute_id</text>
<polygon fill="none" stroke="#000000" points="310.5,-197.7 310.5,-219.7 371.5,-219.7 371.5,-197.7 310.5,-197.7"/>
<text text-anchor="start" x="313.5" y="-205.4" font-family="Helvetica,sans-Serif" font-size="11.00" fill="#000000">int4[10]</text>
<polygon fill="none" stroke="#000000" points="190.5,-175.7 190.5,-197.7 310.5,-197.7 310.5,-175.7 190.5,-175.7"/>
<text text-anchor="start" x="210.5" y="-182.8" font-family="Helvetica,sans-Serif" font-size="11.00" fill="#000000">name</text>
<polygon fill="none" stroke="#000000" points="310.5,-175.7 310.5,-197.7 371.5,-197.7 371.5,-175.7 310.5,-175.7"/>
<text text-anchor="start" x="313.494" y="-183.4" font-family="Helvetica,sans-Serif" font-size="11.00" fill="#000000">varchar[30]</text>
<polygon fill="#ffffff" stroke="transparent" points="190.5,-153.7 190.5,-175.7 310.5,-175.7 310.5,-153.7 190.5,-153.7"/>
<polygon fill="none" stroke="#000000" points="190.5,-153.7 190.5,-175.7 310.5,-175.7 310.5,-153.7 190.5,-153.7"/>
<image xlink:href="../../images/foreignKeys.png" width="11px" height="12px" preserveAspectRatio="xMinYMin meet" x="195.5" y="-170.7"/>
<text text-anchor="start" x="210.5" y="-160.8" font-family="Helvetica,sans-Serif" font-size="11.00" fill="#000000">aspect_type_id</text>
<polygon fill="none" stroke="#000000" points="310.5,-153.7 310.5,-175.7 371.5,-175.7 371.5,-153.7 310.5,-153.7"/>
<text text-anchor="start" x="313.5" y="-161.4" font-family="Helvetica,sans-Serif" font-size="11.00" fill="#000000">int4[10]</text>
<polygon fill="#ffffff" stroke="transparent" points="190.5,-131.7 190.5,-153.7 310.5,-153.7 310.5,-131.7 190.5,-131.7"/>
<polygon fill="none" stroke="#000000" points="190.5,-131.7 190.5,-153.7 310.5,-153.7 310.5,-131.7 190.5,-131.7"/>
<image xlink:href="../../images/foreignKeys.png" width="11px" height="12px" preserveAspectRatio="xMinYMin meet" x="195.5" y="-148.7"/>
<text text-anchor="start" x="210.5" y="-138.8" font-family="Helvetica,sans-Serif" font-size="11.00" fill="#000000">data_type_id</text>
<polygon fill="none" stroke="#000000" points="310.5,-131.7 310.5,-153.7 371.5,-153.7 371.5,-131.7 310.5,-131.7"/>
<text text-anchor="start" x="313.5" y="-139.4" font-family="Helvetica,sans-Serif" font-size="11.00" fill="#000000">int4[10]</text>
<polygon fill="#ffffff" stroke="transparent" points="190.5,-112.7 190.5,-131.7 241.5,-131.7 241.5,-112.7 190.5,-112.7"/>
<polygon fill="none" stroke="#000000" points="190.5,-112.7 190.5,-131.7 241.5,-131.7 241.5,-112.7 190.5,-112.7"/>
<text text-anchor="start" x="193.5" y="-118.8" font-family="Helvetica,sans-Serif" font-size="11.00" fill="#000000">&lt; 2</text>
<polygon fill="#ffffff" stroke="transparent" points="241.5,-112.7 241.5,-131.7 310.5,-131.7 310.5,-112.7 241.5,-112.7"/>
<polygon fill="none" stroke="#000000" points="241.5,-112.7 241.5,-131.7 310.5,-131.7 310.5,-112.7 241.5,-112.7"/>
<text text-anchor="start" x="275.1105" y="-118.8" font-family="Helvetica,sans-Serif" font-size="11.00" fill="#000000">4 rows</text>
<polygon fill="#ffffff" stroke="transparent" points="310.5,-112.7 310.5,-131.7 371.5,-131.7 371.5,-112.7 310.5,-112.7"/>
<polygon fill="none" stroke="#000000" points="310.5,-112.7 310.5,-131.7 371.5,-131.7 371.5,-112.7 310.5,-112.7"/>
<text text-anchor="start" x="352.9053" y="-118.8" font-family="Helvetica,sans-Serif" font-size="11.00" fill="#000000">1 &gt;</text>
<polygon fill="none" stroke="#000000" stroke-width="2" points="189,-111.7 189,-243.7 372,-243.7 372,-111.7 189,-111.7"/>
</a>
</g>
</g>
<!-- aspect_attribute&#45;&gt;attribute -->
<g id="edge1" class="edge">
<title>aspect_attribute:w&#45;&gt;attribute:e</title>
<path fill="none" stroke="#000000" d="M408.3177,-163.3143C393.6106,-175.6922 397.1624,-208.7 371.5,-208.7"/>
<polygon fill="#000000" stroke="#000000" points="414.4195,-161.2565 423.1504,-162.1112 418.2097,-159.9783 422,-158.7 422,-158.7 422,-158.7 418.2097,-159.9783 420.8496,-155.2888 414.4195,-161.2565 414.4195,-161.2565"/>
<ellipse fill="none" stroke="#000000" cx="411.3873" cy="-162.2791" rx="3.2" ry="3.2"/>
</g>
<!-- data_type -->
<g id="node3" class="node">
<title>data_type</title>
<g id="a_node3"><a xlink:href="../../tables/data_type.html" xlink:title="data_type" target="_top">
<polygon fill="#ffffff" stroke="transparent" points="8,-38.2 8,-121.2 139,-121.2 139,-38.2 8,-38.2"/>
<polygon fill="#f5f5f5" stroke="transparent" points="8.5,-97.7 8.5,-120.7 139.5,-120.7 139.5,-97.7 8.5,-97.7"/>
<polygon fill="none" stroke="#000000" points="8.5,-97.7 8.5,-120.7 139.5,-120.7 139.5,-97.7 8.5,-97.7"/>
<text text-anchor="start" x="13.5" y="-106.3" font-family="Helvetica,sans-Serif" font-weight="bold" font-size="11.00" fill="#000000">data_type</text>
<text text-anchor="start" x="104.5437" y="-105.8" font-family="Helvetica,sans-Serif" font-size="11.00" fill="#000000">[table]</text>
<polygon fill="none" stroke="#000000" points="8.5,-75.7 8.5,-97.7 139.5,-97.7 139.5,-75.7 8.5,-75.7"/>
<image xlink:href="../../images/primaryKeys.png" width="11px" height="12px" preserveAspectRatio="xMinYMin meet" x="13.5" y="-92.7"/>
<text text-anchor="start" x="28.5" y="-82.8" font-family="Helvetica,sans-Serif" font-size="11.00" fill="#000000">data_type_id</text>
<polygon fill="none" stroke="#000000" points="8.5,-56.7 8.5,-75.7 139.5,-75.7 139.5,-56.7 8.5,-56.7"/>
<text text-anchor="start" x="11.5" y="-62.8" font-family="Helvetica,sans-Serif" font-size="11.00" fill="#000000">...</text>
<polygon fill="#ffffff" stroke="transparent" points="8.5,-37.7 8.5,-56.7 53.5,-56.7 53.5,-37.7 8.5,-37.7"/>
<polygon fill="none" stroke="#000000" points="8.5,-37.7 8.5,-56.7 53.5,-56.7 53.5,-37.7 8.5,-37.7"/>
<text text-anchor="start" x="11.5" y="-43.8" font-family="Helvetica,sans-Serif" font-size="11.00" fill="#000000"> &#160;</text>
<polygon fill="#ffffff" stroke="transparent" points="53.5,-37.7 53.5,-56.7 101.5,-56.7 101.5,-37.7 53.5,-37.7"/>
<polygon fill="none" stroke="#000000" points="53.5,-37.7 53.5,-56.7 101.5,-56.7 101.5,-37.7 53.5,-37.7"/>
<text text-anchor="start" x="71.6105" y="-43.8" font-family="Helvetica,sans-Serif" font-size="11.00" fill="#000000">1 row</text>
<polygon fill="#ffffff" stroke="transparent" points="101.5,-37.7 101.5,-56.7 139.5,-56.7 139.5,-37.7 101.5,-37.7"/>
<polygon fill="none" stroke="#000000" points="101.5,-37.7 101.5,-56.7 139.5,-56.7 139.5,-37.7 101.5,-37.7"/>
<text text-anchor="start" x="120.9053" y="-43.8" font-family="Helvetica,sans-Serif" font-size="11.00" fill="#000000">2 &gt;</text>
</a>
</g>
</g>
<!-- aspect_attribute&#45;&gt;data_type -->
<g id="edge2" class="edge">
<title>aspect_attribute:w&#45;&gt;data_type:e</title>
<path fill="none" stroke="#000000" d="M408.2186,-132.1172C398.8128,-124.0519 397.6516,-107.5298 381,-100.7 281.5283,-59.9012 247.0135,-86.7 139.5,-86.7"/>
<polygon fill="#000000" stroke="#000000" points="414.4087,-134.1756 420.864,-140.1161 418.2044,-135.4378 422,-136.7 422,-136.7 422,-136.7 418.2044,-135.4378 423.136,-133.2839 414.4087,-134.1756 414.4087,-134.1756"/>
<ellipse fill="none" stroke="#000000" cx="411.3722" cy="-133.1658" rx="3.2" ry="3.2"/>
</g>
<!-- attribute&#45;&gt;data_type -->
<g id="edge4" class="edge">
<title>attribute:w&#45;&gt;data_type:e</title>
<path fill="none" stroke="#000000" d="M176.6154,-137.9255C161.0899,-124.3831 167.1146,-86.7 139.5,-86.7"/>
<polygon fill="#000000" stroke="#000000" points="182.9348,-140.0985 189.3293,-146.1043 186.7174,-141.3992 190.5,-142.7 190.5,-142.7 190.5,-142.7 186.7174,-141.3992 191.6707,-139.2957 182.9348,-140.0985 182.9348,-140.0985"/>
<ellipse fill="none" stroke="#000000" cx="179.9087" cy="-139.0579" rx="3.2" ry="3.2"/>
</g>
<!-- aspect_type -->
<g id="node4" class="node">
<title>aspect_type</title>
<g id="a_node4"><a xlink:href="../../tables/aspect_type.html" xlink:title="aspect_type" target="_top">
<polygon fill="#ffffff" stroke="transparent" points="13.5,-142.2 13.5,-247.2 133.5,-247.2 133.5,-142.2 13.5,-142.2"/>
<polygon fill="#f5f5f5" stroke="transparent" points="13.5,-223.7 13.5,-246.7 133.5,-246.7 133.5,-223.7 13.5,-223.7"/>
<polygon fill="none" stroke="#000000" points="13.5,-223.7 13.5,-246.7 133.5,-246.7 133.5,-223.7 13.5,-223.7"/>
<text text-anchor="start" x="18.5" y="-232.3" font-family="Helvetica,sans-Serif" font-weight="bold" font-size="11.00" fill="#000000">aspect_type</text>
<text text-anchor="start" x="99.0219" y="-231.8" font-family="Helvetica,sans-Serif" font-size="11.00" fill="#000000">[table]</text>
<polygon fill="none" stroke="#000000" points="13.5,-201.7 13.5,-223.7 133.5,-223.7 133.5,-201.7 13.5,-201.7"/>
<image xlink:href="../../images/primaryKeys.png" width="11px" height="12px" preserveAspectRatio="xMinYMin meet" x="18.5" y="-218.7"/>
<text text-anchor="start" x="33.5" y="-208.8" font-family="Helvetica,sans-Serif" font-size="11.00" fill="#000000">aspect_type_id</text>
<polygon fill="#ffffff" stroke="transparent" points="13.5,-179.7 13.5,-201.7 133.5,-201.7 133.5,-179.7 13.5,-179.7"/>
<polygon fill="none" stroke="#000000" points="13.5,-179.7 13.5,-201.7 133.5,-201.7 133.5,-179.7 13.5,-179.7"/>
<image xlink:href="../../images/foreignKeys.png" width="11px" height="12px" preserveAspectRatio="xMinYMin meet" x="18.5" y="-196.7"/>
<text text-anchor="start" x="33.5" y="-186.8" font-family="Helvetica,sans-Serif" font-size="11.00" fill="#000000">super_type_id</text>
<polygon fill="none" stroke="#000000" points="13.5,-160.7 13.5,-179.7 133.5,-179.7 133.5,-160.7 13.5,-160.7"/>
<text text-anchor="start" x="16.5" y="-166.8" font-family="Helvetica,sans-Serif" font-size="11.00" fill="#000000">...</text>
<polygon fill="#ffffff" stroke="transparent" points="13.5,-141.7 13.5,-160.7 54.5,-160.7 54.5,-141.7 13.5,-141.7"/>
<polygon fill="none" stroke="#000000" points="13.5,-141.7 13.5,-160.7 54.5,-160.7 54.5,-141.7 13.5,-141.7"/>
<text text-anchor="start" x="16.5" y="-147.8" font-family="Helvetica,sans-Serif" font-size="11.00" fill="#000000">&lt; 1</text>
<polygon fill="#ffffff" stroke="transparent" points="54.5,-141.7 54.5,-160.7 102.5,-160.7 102.5,-141.7 54.5,-141.7"/>
<polygon fill="none" stroke="#000000" points="54.5,-141.7 54.5,-160.7 102.5,-160.7 102.5,-141.7 54.5,-141.7"/>
<text text-anchor="start" x="67.1105" y="-147.8" font-family="Helvetica,sans-Serif" font-size="11.00" fill="#000000">4 rows</text>
<polygon fill="#ffffff" stroke="transparent" points="102.5,-141.7 102.5,-160.7 133.5,-160.7 133.5,-141.7 102.5,-141.7"/>
<polygon fill="none" stroke="#000000" points="102.5,-141.7 102.5,-160.7 133.5,-160.7 133.5,-141.7 102.5,-141.7"/>
<text text-anchor="start" x="114.9053" y="-147.8" font-family="Helvetica,sans-Serif" font-size="11.00" fill="#000000">4 &gt;</text>
</a>
</g>
</g>
<!-- attribute&#45;&gt;aspect_type -->
<g id="edge3" class="edge">
<title>attribute:w&#45;&gt;aspect_type:e</title>
<path fill="none" stroke="#000000" d="M176.258,-168.7925C159.3332,-180.4002 160.6682,-212.7 133.5,-212.7"/>
<polygon fill="#000000" stroke="#000000" points="182.8111,-166.9094 191.4943,-168.16 186.6556,-165.8047 190.5,-164.7 190.5,-164.7 190.5,-164.7 186.6556,-165.8047 189.5057,-161.24 182.8111,-166.9094 182.8111,-166.9094"/>
<ellipse fill="none" stroke="#000000" cx="179.7356" cy="-167.7932" rx="3.2" ry="3.2"/>
</g>
</g>
</svg>
