<?xml version="1.0" encoding="UTF-8" standalone="no"?>
<!DOCTYPE svg PUBLIC "-//W3C//DTD SVG 1.1//EN"
 "http://www.w3.org/Graphics/SVG/1.1/DTD/svg11.dtd">
<!-- Generated by graphviz version 2.40.1 (20161225.0304)
 -->
<!-- Title: oneDegreeRelationshipsDiagram Pages: 1 -->
<svg width="452pt" height="182pt"
 viewBox="0.00 0.00 452.00 182.20" xmlns="http://www.w3.org/2000/svg" xmlns:xlink="http://www.w3.org/1999/xlink">
<g id="graph0" class="graph" transform="scale(1 1) rotate(0) translate(4 178.2)">
<title>oneDegreeRelationshipsDiagram</title>
<polygon fill="#ffffff" stroke="transparent" points="-4,4 -4,-178.2 448,-178.2 448,4 -4,4"/>
<text text-anchor="middle" x="72.4936" y="-7.3" font-family="Helvetica,sans-Serif" font-size="11.00" fill="#000000">Generated by SchemaSpy</text>
<!-- dependency_rule_dataset -->
<g id="node1" class="node">
<title>dependency_rule_dataset</title>
<g id="a_node1"><a xlink:href="../../tables/dependency_rule_dataset.html" xlink:title="dependency_rule_dataset" target="_top">
<polygon fill="#ffffff" stroke="transparent" points="225,-84.2 225,-170.2 436,-170.2 436,-84.2 225,-84.2"/>
<polygon fill="#f5f5f5" stroke="transparent" points="225.5,-147.2 225.5,-170.2 436.5,-170.2 436.5,-147.2 225.5,-147.2"/>
<polygon fill="none" stroke="#000000" points="225.5,-147.2 225.5,-170.2 436.5,-170.2 436.5,-147.2 225.5,-147.2"/>
<text text-anchor="start" x="230.5" y="-155.8" font-family="Helvetica,sans-Serif" font-weight="bold" font-size="11.00" fill="#000000">dependency_rule_dataset</text>
<text text-anchor="start" x="402.0219" y="-155.3" font-family="Helvetica,sans-Serif" font-size="11.00" fill="#000000">[table]</text>
<polygon fill="none" stroke="#000000" points="225.5,-125.2 225.5,-147.2 436.5,-147.2 436.5,-125.2 225.5,-125.2"/>
<image xlink:href="../../images/primaryKeys.png" width="11px" height="12px" preserveAspectRatio="xMinYMin meet" x="230.5" y="-142.2"/>
<text text-anchor="start" x="254.5" y="-132.3" font-family="Helvetica,sans-Serif" font-size="11.00" fill="#000000">rule_id</text>
<polygon fill="none" stroke="#000000" points="225.5,-103.2 225.5,-125.2 436.5,-125.2 436.5,-103.2 225.5,-103.2"/>
<image xlink:href="../../images/primaryKeys.png" width="11px" height="12px" preserveAspectRatio="xMinYMin meet" x="230.5" y="-120.2"/>
<text text-anchor="start" x="254.5" y="-110.3" font-family="Helvetica,sans-Serif" font-size="11.00" fill="#000000">dataset_id</text>
<polygon fill="#ffffff" stroke="transparent" points="225.5,-84.2 225.5,-103.2 316.5,-103.2 316.5,-84.2 225.5,-84.2"/>
<polygon fill="none" stroke="#000000" points="225.5,-84.2 225.5,-103.2 316.5,-103.2 316.5,-84.2 225.5,-84.2"/>
<text text-anchor="start" x="228.5" y="-90.3" font-family="Helvetica,sans-Serif" font-size="11.00" fill="#000000">&lt; 2</text>
<polygon fill="#ffffff" stroke="transparent" points="316.5,-84.2 316.5,-103.2 389.5,-103.2 389.5,-84.2 316.5,-84.2"/>
<polygon fill="none" stroke="#000000" points="316.5,-84.2 316.5,-103.2 389.5,-103.2 389.5,-84.2 316.5,-84.2"/>
<text text-anchor="start" x="354.1105" y="-90.3" font-family="Helvetica,sans-Serif" font-size="11.00" fill="#000000">0 rows</text>
<polygon fill="#ffffff" stroke="transparent" points="389.5,-84.2 389.5,-103.2 436.5,-103.2 436.5,-84.2 389.5,-84.2"/>
<polygon fill="none" stroke="#000000" points="389.5,-84.2 389.5,-103.2 436.5,-103.2 436.5,-84.2 389.5,-84.2"/>
<text text-anchor="start" x="427.3862" y="-90.3" font-family="Helvetica,sans-Serif" font-size="11.00" fill="#000000"> &#160;</text>
</a>
</g>
</g>
<!-- dataset -->
<g id="node2" class="node">
<title>dataset</title>
<g id="a_node2"><a xlink:href="../../tables/dataset.html" xlink:title="dataset" target="_top">
<polygon fill="#ffffff" stroke="transparent" points="8,-38.2 8,-150.2 176,-150.2 176,-38.2 8,-38.2"/>
<polygon fill="#f5f5f5" stroke="transparent" points="10,-125.2 10,-148.2 174,-148.2 174,-125.2 10,-125.2"/>
<polygon fill="none" stroke="#000000" points="10,-125.2 10,-148.2 174,-148.2 174,-125.2 10,-125.2"/>
<text text-anchor="start" x="15" y="-133.8" font-family="Helvetica,sans-Serif" font-weight="bold" font-size="11.00" fill="#000000">dataset</text>
<text text-anchor="start" x="139.0437" y="-133.3" font-family="Helvetica,sans-Serif" font-size="11.00" fill="#000000">[table]</text>
<polygon fill="none" stroke="#000000" points="10,-103.2 10,-125.2 107,-125.2 107,-103.2 10,-103.2"/>
<image xlink:href="../../images/primaryKeys.png" width="11px" height="12px" preserveAspectRatio="xMinYMin meet" x="15" y="-120.2"/>
<text text-anchor="start" x="30" y="-110.3" font-family="Helvetica,sans-Serif" font-size="11.00" fill="#000000">dataset_id</text>
<polygon fill="none" stroke="#000000" points="107,-103.2 107,-125.2 174,-125.2 174,-103.2 107,-103.2"/>
<text text-anchor="start" x="110" y="-110.9" font-family="Helvetica,sans-Serif" font-size="11.00" fill="#000000">int4[10]</text>
<polygon fill="none" stroke="#000000" points="10,-81.2 10,-103.2 107,-103.2 107,-81.2 10,-81.2"/>
<text text-anchor="start" x="30" y="-88.3" font-family="Helvetica,sans-Serif" font-size="11.00" fill="#000000">description</text>
<polygon fill="none" stroke="#000000" points="107,-81.2 107,-103.2 174,-103.2 174,-81.2 107,-81.2"/>
<text text-anchor="start" x="110" y="-88.9" font-family="Helvetica,sans-Serif" font-size="11.00" fill="#000000">varchar[50]</text>
<polygon fill="none" stroke="#000000" points="10,-59.2 10,-81.2 107,-81.2 107,-59.2 10,-59.2"/>
<text text-anchor="start" x="30" y="-66.3" font-family="Helvetica,sans-Serif" font-size="11.00" fill="#000000">url</text>
<polygon fill="none" stroke="#000000" points="107,-59.2 107,-81.2 174,-81.2 174,-59.2 107,-59.2"/>
<text text-anchor="start" x="109.9365" y="-66.9" font-family="Helvetica,sans-Serif" font-size="11.00" fill="#000000">varchar[250]</text>
<polygon fill="#ffffff" stroke="transparent" points="10,-40.2 10,-59.2 50,-59.2 50,-40.2 10,-40.2"/>
<polygon fill="none" stroke="#000000" points="10,-40.2 10,-59.2 50,-59.2 50,-40.2 10,-40.2"/>
<text text-anchor="start" x="13" y="-46.3" font-family="Helvetica,sans-Serif" font-size="11.00" fill="#000000">&lt; 0</text>
<polygon fill="#ffffff" stroke="transparent" points="50,-40.2 50,-59.2 107,-59.2 107,-40.2 50,-40.2"/>
<polygon fill="none" stroke="#000000" points="50,-40.2 50,-59.2 107,-59.2 107,-40.2 50,-40.2"/>
<text text-anchor="start" x="71.6105" y="-46.3" font-family="Helvetica,sans-Serif" font-size="11.00" fill="#000000">0 rows</text>
<polygon fill="#ffffff" stroke="transparent" points="107,-40.2 107,-59.2 174,-59.2 174,-40.2 107,-40.2"/>
<polygon fill="none" stroke="#000000" points="107,-40.2 107,-59.2 174,-59.2 174,-40.2 107,-40.2"/>
<text text-anchor="start" x="155.4053" y="-46.3" font-family="Helvetica,sans-Serif" font-size="11.00" fill="#000000">1 &gt;</text>
<polygon fill="none" stroke="#000000" stroke-width="2" points="9,-39.2 9,-149.2 175,-149.2 175,-39.2 9,-39.2"/>
</a>
</g>
</g>
<!-- dependency_rule_dataset&#45;&gt;dataset -->
<g id="edge1" class="edge">
<title>dependency_rule_dataset:w&#45;&gt;dataset:e</title>
<path fill="none" stroke="#000000" d="M211.0156,-114.2C198.6771,-114.2 191.1667,-114.2 174,-114.2"/>
<polygon fill="#000000" stroke="#000000" points="217.5,-114.2001 225.5,-117.8 221.5,-114.2 225.5,-114.2 225.5,-114.2 225.5,-114.2 221.5,-114.2 225.5,-110.6 217.5,-114.2001 217.5,-114.2001"/>
<ellipse fill="none" stroke="#000000" cx="214.3" cy="-114.2001" rx="3.2" ry="3.2"/>
</g>
</g>
</svg>
