<?xml version="1.0" encoding="UTF-8" standalone="no"?>
<!DOCTYPE svg PUBLIC "-//W3C//DTD SVG 1.1//EN"
 "http://www.w3.org/Graphics/SVG/1.1/DTD/svg11.dtd">
<!-- Generated by graphviz version 2.40.1 (20161225.0304)
 -->
<!-- Title: twoDegreesRelationshipsDiagram Pages: 1 -->
<svg width="569pt" height="248pt"
 viewBox="0.00 0.00 569.00 247.70" xmlns="http://www.w3.org/2000/svg" xmlns:xlink="http://www.w3.org/1999/xlink">
<g id="graph0" class="graph" transform="scale(1 1) rotate(0) translate(4 243.7)">
<title>twoDegreesRelationshipsDiagram</title>
<polygon fill="#ffffff" stroke="transparent" points="-4,4 -4,-243.7 565,-243.7 565,4 -4,4"/>
<text text-anchor="middle" x="72.4936" y="-7.3" font-family="Helvetica,sans-Serif" font-size="11.00" fill="#000000">Generated by SchemaSpy</text>
<!-- aspect -->
<g id="node1" class="node">
<title>aspect</title>
<g id="a_node1"><a xlink:href="../../tables/aspect.html" xlink:title="aspect" target="_top">
<polygon fill="#ffffff" stroke="transparent" points="253,-174.7 253,-235.7 354,-235.7 354,-174.7 253,-174.7"/>
<polygon fill="#f5f5f5" stroke="transparent" points="253.5,-212.2 253.5,-235.2 354.5,-235.2 354.5,-212.2 253.5,-212.2"/>
<polygon fill="none" stroke="#000000" points="253.5,-212.2 253.5,-235.2 354.5,-235.2 354.5,-212.2 253.5,-212.2"/>
<text text-anchor="start" x="258.5" y="-220.8" font-family="Helvetica,sans-Serif" font-weight="bold" font-size="11.00" fill="#000000">aspect</text>
<text text-anchor="start" x="319.5437" y="-220.3" font-family="Helvetica,sans-Serif" font-size="11.00" fill="#000000">[table]</text>
<polygon fill="none" stroke="#000000" points="253.5,-193.2 253.5,-212.2 354.5,-212.2 354.5,-193.2 253.5,-193.2"/>
<text text-anchor="start" x="256.5" y="-199.3" font-family="Helvetica,sans-Serif" font-size="11.00" fill="#000000">...</text>
<polygon fill="#ffffff" stroke="transparent" points="253.5,-174.2 253.5,-193.2 274.5,-193.2 274.5,-174.2 253.5,-174.2"/>
<polygon fill="none" stroke="#000000" points="253.5,-174.2 253.5,-193.2 274.5,-193.2 274.5,-174.2 253.5,-174.2"/>
<text text-anchor="start" x="256.2027" y="-180.3" font-family="Helvetica,sans-Serif" font-size="11.00" fill="#000000">&lt; 1</text>
<polygon fill="#ffffff" stroke="transparent" points="274.5,-174.2 274.5,-193.2 333.5,-193.2 333.5,-174.2 274.5,-174.2"/>
<polygon fill="none" stroke="#000000" points="274.5,-174.2 274.5,-193.2 333.5,-193.2 333.5,-174.2 274.5,-174.2"/>
<text text-anchor="start" x="277.1045" y="-180.3" font-family="Helvetica,sans-Serif" font-size="11.00" fill="#000000">2.300 rows</text>
<polygon fill="#ffffff" stroke="transparent" points="333.5,-174.2 333.5,-193.2 354.5,-193.2 354.5,-174.2 333.5,-174.2"/>
<polygon fill="none" stroke="#000000" points="333.5,-174.2 333.5,-193.2 354.5,-193.2 354.5,-174.2 333.5,-174.2"/>
<text text-anchor="start" x="336.2027" y="-180.3" font-family="Helvetica,sans-Serif" font-size="11.00" fill="#000000">6 &gt;</text>
</a>
</g>
</g>
<!-- aspect_type -->
<g id="node2" class="node">
<title>aspect_type</title>
<g id="a_node2"><a xlink:href="../../tables/aspect_type.html" xlink:title="aspect_type" target="_top">
<polygon fill="#ffffff" stroke="transparent" points="46,-161.7 46,-222.7 166,-222.7 166,-161.7 46,-161.7"/>
<polygon fill="#f5f5f5" stroke="transparent" points="46,-199.2 46,-222.2 166,-222.2 166,-199.2 46,-199.2"/>
<polygon fill="none" stroke="#000000" points="46,-199.2 46,-222.2 166,-222.2 166,-199.2 46,-199.2"/>
<text text-anchor="start" x="51" y="-207.8" font-family="Helvetica,sans-Serif" font-weight="bold" font-size="11.00" fill="#000000">aspect_type</text>
<text text-anchor="start" x="131.5219" y="-207.3" font-family="Helvetica,sans-Serif" font-size="11.00" fill="#000000">[table]</text>
<polygon fill="none" stroke="#000000" points="46,-180.2 46,-199.2 166,-199.2 166,-180.2 46,-180.2"/>
<text text-anchor="start" x="49" y="-186.3" font-family="Helvetica,sans-Serif" font-size="11.00" fill="#000000">...</text>
<polygon fill="#ffffff" stroke="transparent" points="46,-161.2 46,-180.2 87,-180.2 87,-161.2 46,-161.2"/>
<polygon fill="none" stroke="#000000" points="46,-161.2 46,-180.2 87,-180.2 87,-161.2 46,-161.2"/>
<text text-anchor="start" x="49" y="-167.3" font-family="Helvetica,sans-Serif" font-size="11.00" fill="#000000">&lt; 1</text>
<polygon fill="#ffffff" stroke="transparent" points="87,-161.2 87,-180.2 135,-180.2 135,-161.2 87,-161.2"/>
<polygon fill="none" stroke="#000000" points="87,-161.2 87,-180.2 135,-180.2 135,-161.2 87,-161.2"/>
<text text-anchor="start" x="99.6105" y="-167.3" font-family="Helvetica,sans-Serif" font-size="11.00" fill="#000000">4 rows</text>
<polygon fill="#ffffff" stroke="transparent" points="135,-161.2 135,-180.2 166,-180.2 166,-161.2 135,-161.2"/>
<polygon fill="none" stroke="#000000" points="135,-161.2 135,-180.2 166,-180.2 166,-161.2 135,-161.2"/>
<text text-anchor="start" x="147.4053" y="-167.3" font-family="Helvetica,sans-Serif" font-size="11.00" fill="#000000">4 &gt;</text>
</a>
</g>
</g>
<!-- aspect&#45;&gt;aspect_type -->
<g id="edge1" class="edge">
<title>aspect:w&#45;&gt;aspect_type:e</title>
<path fill="none" stroke="#000000" d="M238.9261,-201.5375C211.1901,-198.8883 199.9406,-189.2 166,-189.2"/>
<polygon fill="#000000" stroke="#000000" points="245.5083,-201.8366 253.3365,-205.7963 249.5041,-202.0183 253.5,-202.2 253.5,-202.2 253.5,-202.2 249.5041,-202.0183 253.6635,-198.6037 245.5083,-201.8366 245.5083,-201.8366"/>
<ellipse fill="none" stroke="#000000" cx="242.3116" cy="-201.6913" rx="3.2" ry="3.2"/>
</g>
<!-- aspect_attribute -->
<g id="node3" class="node">
<title>aspect_attribute</title>
<g id="a_node3"><a xlink:href="../../tables/aspect_attribute.html" xlink:title="aspect_attribute" target="_top">
<polygon fill="#ffffff" stroke="transparent" points="403,-92.7 403,-153.7 553,-153.7 553,-92.7 403,-92.7"/>
<polygon fill="#f5f5f5" stroke="transparent" points="403,-130.2 403,-153.2 553,-153.2 553,-130.2 403,-130.2"/>
<polygon fill="none" stroke="#000000" points="403,-130.2 403,-153.2 553,-153.2 553,-130.2 403,-130.2"/>
<text text-anchor="start" x="408" y="-138.8" font-family="Helvetica,sans-Serif" font-weight="bold" font-size="11.00" fill="#000000">aspect_attribute</text>
<text text-anchor="start" x="518.5219" y="-138.3" font-family="Helvetica,sans-Serif" font-size="11.00" fill="#000000">[table]</text>
<polygon fill="none" stroke="#000000" points="403,-111.2 403,-130.2 553,-130.2 553,-111.2 403,-111.2"/>
<text text-anchor="start" x="406" y="-117.3" font-family="Helvetica,sans-Serif" font-size="11.00" fill="#000000">...</text>
<polygon fill="#ffffff" stroke="transparent" points="403,-92.2 403,-111.2 453,-111.2 453,-92.2 403,-92.2"/>
<polygon fill="none" stroke="#000000" points="403,-92.2 403,-111.2 453,-111.2 453,-92.2 403,-92.2"/>
<text text-anchor="start" x="406" y="-98.3" font-family="Helvetica,sans-Serif" font-size="11.00" fill="#000000">&lt; 3</text>
<polygon fill="#ffffff" stroke="transparent" points="453,-92.2 453,-111.2 526,-111.2 526,-92.2 453,-92.2"/>
<polygon fill="none" stroke="#000000" points="453,-92.2 453,-111.2 526,-111.2 526,-92.2 453,-92.2"/>
<text text-anchor="start" x="469.2089" y="-98.3" font-family="Helvetica,sans-Serif" font-size="11.00" fill="#000000">6.100 rows</text>
<polygon fill="#ffffff" stroke="transparent" points="526,-92.2 526,-111.2 553,-111.2 553,-92.2 526,-92.2"/>
<polygon fill="none" stroke="#000000" points="526,-92.2 526,-111.2 553,-111.2 553,-92.2 526,-92.2"/>
<text text-anchor="start" x="543.8862" y="-98.3" font-family="Helvetica,sans-Serif" font-size="11.00" fill="#000000"> &#160;</text>
</a>
</g>
</g>
<!-- aspect_attribute&#45;&gt;aspect -->
<g id="edge2" class="edge">
<title>aspect_attribute:w&#45;&gt;aspect:e</title>
<path fill="none" stroke="#000000" d="M435.1779,-167.3464C413.091,-185.4321 384.5189,-202.2 354.5,-202.2"/>
<polygon fill="#000000" stroke="#000000" points="440.0704,-163.0967 448.4709,-160.5684 443.0902,-160.4736 446.1101,-157.8506 446.1101,-157.8506 446.1101,-157.8506 443.0902,-160.4736 443.7493,-155.1327 440.0704,-163.0967 440.0704,-163.0967"/>
<ellipse fill="none" stroke="#000000" cx="437.6545" cy="-165.1952" rx="3.2" ry="3.2"/>
</g>
<!-- attribute -->
<g id="node4" class="node">
<title>attribute</title>
<g id="a_node4"><a xlink:href="../../tables/attribute.html" xlink:title="attribute" target="_top">
<polygon fill="#ffffff" stroke="transparent" points="254,-92.7 254,-153.7 353,-153.7 353,-92.7 254,-92.7"/>
<polygon fill="#f5f5f5" stroke="transparent" points="254.5,-130.2 254.5,-153.2 353.5,-153.2 353.5,-130.2 254.5,-130.2"/>
<polygon fill="none" stroke="#000000" points="254.5,-130.2 254.5,-153.2 353.5,-153.2 353.5,-130.2 254.5,-130.2"/>
<text text-anchor="start" x="259.5" y="-138.8" font-family="Helvetica,sans-Serif" font-weight="bold" font-size="11.00" fill="#000000">attribute</text>
<text text-anchor="start" x="319.0219" y="-138.3" font-family="Helvetica,sans-Serif" font-size="11.00" fill="#000000">[table]</text>
<polygon fill="none" stroke="#000000" points="254.5,-111.2 254.5,-130.2 353.5,-130.2 353.5,-111.2 254.5,-111.2"/>
<text text-anchor="start" x="257.5" y="-117.3" font-family="Helvetica,sans-Serif" font-size="11.00" fill="#000000">...</text>
<polygon fill="#ffffff" stroke="transparent" points="254.5,-92.2 254.5,-111.2 284.5,-111.2 284.5,-92.2 254.5,-92.2"/>
<polygon fill="none" stroke="#000000" points="254.5,-92.2 254.5,-111.2 284.5,-111.2 284.5,-92.2 254.5,-92.2"/>
<text text-anchor="start" x="257.5" y="-98.3" font-family="Helvetica,sans-Serif" font-size="11.00" fill="#000000">&lt; 2</text>
<polygon fill="#ffffff" stroke="transparent" points="284.5,-92.2 284.5,-111.2 327.5,-111.2 327.5,-92.2 284.5,-92.2"/>
<polygon fill="none" stroke="#000000" points="284.5,-92.2 284.5,-111.2 327.5,-111.2 327.5,-92.2 284.5,-92.2"/>
<text text-anchor="start" x="292.1105" y="-98.3" font-family="Helvetica,sans-Serif" font-size="11.00" fill="#000000">4 rows</text>
<polygon fill="#ffffff" stroke="transparent" points="327.5,-92.2 327.5,-111.2 353.5,-111.2 353.5,-92.2 327.5,-92.2"/>
<polygon fill="none" stroke="#000000" points="327.5,-92.2 327.5,-111.2 353.5,-111.2 353.5,-92.2 327.5,-92.2"/>
<text text-anchor="start" x="334.9053" y="-98.3" font-family="Helvetica,sans-Serif" font-size="11.00" fill="#000000">1 &gt;</text>
</a>
</g>
</g>
<!-- aspect_attribute&#45;&gt;attribute -->
<g id="edge3" class="edge">
<title>aspect_attribute:w&#45;&gt;attribute:e</title>
<path fill="none" stroke="#000000" d="M380.4045,-123.2C373.8422,-123.2 367.359,-123.2 361.1063,-123.2"/>
<polygon fill="#000000" stroke="#000000" points="386.8385,-123.2001 394.8385,-126.8 390.8385,-123.2 394.8385,-123.2 394.8385,-123.2 394.8385,-123.2 390.8385,-123.2 394.8385,-119.6 386.8385,-123.2001 386.8385,-123.2001"/>
<ellipse fill="none" stroke="#000000" cx="383.6385" cy="-123.2001" rx="3.2" ry="3.2"/>
</g>
<!-- data_type -->
<g id="node5" class="node">
<title>data_type</title>
<g id="a_node5"><a xlink:href="../../tables/data_type.html" xlink:title="data_type" target="_top">
<polygon fill="#ffffff" stroke="transparent" points="8,-38.2 8,-128.2 204,-128.2 204,-38.2 8,-38.2"/>
<polygon fill="#f5f5f5" stroke="transparent" points="10,-103.2 10,-126.2 202,-126.2 202,-103.2 10,-103.2"/>
<polygon fill="none" stroke="#000000" points="10,-103.2 10,-126.2 202,-126.2 202,-103.2 10,-103.2"/>
<text text-anchor="start" x="15" y="-111.8" font-family="Helvetica,sans-Serif" font-weight="bold" font-size="11.00" fill="#000000">data_type</text>
<text text-anchor="start" x="167.0437" y="-111.3" font-family="Helvetica,sans-Serif" font-size="11.00" fill="#000000">[table]</text>
<polygon fill="none" stroke="#000000" points="10,-81.2 10,-103.2 141,-103.2 141,-81.2 10,-81.2"/>
<image xlink:href="../../images/primaryKeys.png" width="11px" height="12px" preserveAspectRatio="xMinYMin meet" x="15" y="-98.2"/>
<text text-anchor="start" x="30" y="-88.3" font-family="Helvetica,sans-Serif" font-size="11.00" fill="#000000">data_type_id</text>
<polygon fill="none" stroke="#000000" points="141,-81.2 141,-103.2 202,-103.2 202,-81.2 141,-81.2"/>
<text text-anchor="start" x="144" y="-88.9" font-family="Helvetica,sans-Serif" font-size="11.00" fill="#000000">int4[10]</text>
<polygon fill="none" stroke="#000000" points="10,-59.2 10,-81.2 141,-81.2 141,-59.2 10,-59.2"/>
<text text-anchor="start" x="30" y="-66.3" font-family="Helvetica,sans-Serif" font-size="11.00" fill="#000000">data_type_name</text>
<polygon fill="none" stroke="#000000" points="141,-59.2 141,-81.2 202,-81.2 202,-59.2 141,-59.2"/>
<text text-anchor="start" x="143.994" y="-66.9" font-family="Helvetica,sans-Serif" font-size="11.00" fill="#000000">varchar[30]</text>
<polygon fill="#ffffff" stroke="transparent" points="10,-40.2 10,-59.2 70,-59.2 70,-40.2 10,-40.2"/>
<polygon fill="none" stroke="#000000" points="10,-40.2 10,-59.2 70,-59.2 70,-40.2 10,-40.2"/>
<text text-anchor="start" x="13" y="-46.3" font-family="Helvetica,sans-Serif" font-size="11.00" fill="#000000">&lt; 0</text>
<polygon fill="#ffffff" stroke="transparent" points="70,-40.2 70,-59.2 141,-59.2 141,-40.2 70,-40.2"/>
<polygon fill="none" stroke="#000000" points="70,-40.2 70,-59.2 141,-59.2 141,-40.2 70,-40.2"/>
<text text-anchor="start" x="111.1105" y="-46.3" font-family="Helvetica,sans-Serif" font-size="11.00" fill="#000000">1 row</text>
<polygon fill="#ffffff" stroke="transparent" points="141,-40.2 141,-59.2 202,-59.2 202,-40.2 141,-40.2"/>
<polygon fill="none" stroke="#000000" points="141,-40.2 141,-59.2 202,-59.2 202,-40.2 141,-40.2"/>
<text text-anchor="start" x="183.4053" y="-46.3" font-family="Helvetica,sans-Serif" font-size="11.00" fill="#000000">2 &gt;</text>
<polygon fill="none" stroke="#000000" stroke-width="2" points="9,-39.2 9,-127.2 203,-127.2 203,-39.2 9,-39.2"/>
</a>
</g>
</g>
<!-- aspect_attribute&#45;&gt;data_type -->
<g id="edge4" class="edge">
<title>aspect_attribute:w&#45;&gt;data_type:e</title>
<path fill="none" stroke="#000000" d="M381.0266,-86.2535C374.6471,-84.6547 368.268,-83.2751 362,-82.2 310.7485,-73.4091 296.661,-76.272 245,-82.2 225.5068,-84.4368 221.6211,-92.2 202,-92.2"/>
<polygon fill="#000000" stroke="#000000" points="387.2351,-87.9553 393.9987,-93.5422 391.0927,-89.0128 394.9504,-90.0703 394.9504,-90.0703 394.9504,-90.0703 391.0927,-89.0128 395.9022,-86.5984 387.2351,-87.9553 387.2351,-87.9553"/>
<ellipse fill="none" stroke="#000000" cx="384.1489" cy="-87.1093" rx="3.2" ry="3.2"/>
</g>
<!-- attribute&#45;&gt;aspect_type -->
<g id="edge5" class="edge">
<title>attribute:w&#45;&gt;aspect_type:e</title>
<path fill="none" stroke="#000000" d="M232.6419,-164.1122C206.6895,-177.5919 180.2142,-189.2 166,-189.2"/>
<polygon fill="#000000" stroke="#000000" points="238.6276,-160.9259 247.381,-160.3445 242.1585,-159.0463 245.6894,-157.1667 245.6894,-157.1667 245.6894,-157.1667 242.1585,-159.0463 243.9977,-153.9889 238.6276,-160.9259 238.6276,-160.9259"/>
<ellipse fill="none" stroke="#000000" cx="235.8029" cy="-162.4295" rx="3.2" ry="3.2"/>
</g>
<!-- attribute&#45;&gt;data_type -->
<g id="edge6" class="edge">
<title>attribute:w&#45;&gt;data_type:e</title>
<path fill="none" stroke="#000000" d="M231.7148,-95.6453C221.8673,-93.5326 211.7797,-92.2 202,-92.2"/>
<polygon fill="#000000" stroke="#000000" points="238.151,-97.2729 245.0242,-102.7245 242.0289,-98.2537 245.9068,-99.2344 245.9068,-99.2344 245.9068,-99.2344 242.0289,-98.2537 246.7895,-95.7443 238.151,-97.2729 238.151,-97.2729"/>
<ellipse fill="none" stroke="#000000" cx="235.0487" cy="-96.4884" rx="3.2" ry="3.2"/>
</g>
</g>
</svg>
