<?xml version="1.0" encoding="UTF-8" standalone="no"?>
<!DOCTYPE svg PUBLIC "-//W3C//DTD SVG 1.1//EN"
 "http://www.w3.org/Graphics/SVG/1.1/DTD/svg11.dtd">
<!-- Generated by graphviz version 2.40.1 (20161225.0304)
 -->
<!-- Title: oneDegreeRelationshipsDiagram Pages: 1 -->
<svg width="507pt" height="625pt"
 viewBox="0.00 0.00 507.00 624.70" xmlns="http://www.w3.org/2000/svg" xmlns:xlink="http://www.w3.org/1999/xlink">
<g id="graph0" class="graph" transform="scale(1 1) rotate(0) translate(4 620.7)">
<title>oneDegreeRelationshipsDiagram</title>
<polygon fill="#ffffff" stroke="transparent" points="-4,4 -4,-620.7 503,-620.7 503,4 -4,4"/>
<text text-anchor="middle" x="72.4936" y="-7.3" font-family="Helvetica,sans-Serif" font-size="11.00" fill="#000000">Generated by SchemaSpy</text>
<!-- dependency_rule_dataset -->
<g id="node1" class="node">
<title>dependency_rule_dataset</title>
<g id="a_node1"><a xlink:href="../../tables/dependency_rule_dataset.html" xlink:title="dependency_rule_dataset" target="_top">
<polygon fill="#ffffff" stroke="transparent" points="280,-526.7 280,-612.7 491,-612.7 491,-526.7 280,-526.7"/>
<polygon fill="#f5f5f5" stroke="transparent" points="280.5,-589.7 280.5,-612.7 491.5,-612.7 491.5,-589.7 280.5,-589.7"/>
<polygon fill="none" stroke="#000000" points="280.5,-589.7 280.5,-612.7 491.5,-612.7 491.5,-589.7 280.5,-589.7"/>
<text text-anchor="start" x="285.5" y="-598.3" font-family="Helvetica,sans-Serif" font-weight="bold" font-size="11.00" fill="#000000">dependency_rule_dataset</text>
<text text-anchor="start" x="457.0219" y="-597.8" font-family="Helvetica,sans-Serif" font-size="11.00" fill="#000000">[table]</text>
<polygon fill="none" stroke="#000000" points="280.5,-567.7 280.5,-589.7 491.5,-589.7 491.5,-567.7 280.5,-567.7"/>
<image xlink:href="../../images/primaryKeys.png" width="11px" height="12px" preserveAspectRatio="xMinYMin meet" x="285.5" y="-584.7"/>
<text text-anchor="start" x="309.5" y="-574.8" font-family="Helvetica,sans-Serif" font-size="11.00" fill="#000000">rule_id</text>
<polygon fill="none" stroke="#000000" points="280.5,-545.7 280.5,-567.7 491.5,-567.7 491.5,-545.7 280.5,-545.7"/>
<image xlink:href="../../images/primaryKeys.png" width="11px" height="12px" preserveAspectRatio="xMinYMin meet" x="285.5" y="-562.7"/>
<text text-anchor="start" x="309.5" y="-552.8" font-family="Helvetica,sans-Serif" font-size="11.00" fill="#000000">dataset_id</text>
<polygon fill="#ffffff" stroke="transparent" points="280.5,-526.7 280.5,-545.7 371.5,-545.7 371.5,-526.7 280.5,-526.7"/>
<polygon fill="none" stroke="#000000" points="280.5,-526.7 280.5,-545.7 371.5,-545.7 371.5,-526.7 280.5,-526.7"/>
<text text-anchor="start" x="283.5" y="-532.8" font-family="Helvetica,sans-Serif" font-size="11.00" fill="#000000">&lt; 2</text>
<polygon fill="#ffffff" stroke="transparent" points="371.5,-526.7 371.5,-545.7 444.5,-545.7 444.5,-526.7 371.5,-526.7"/>
<polygon fill="none" stroke="#000000" points="371.5,-526.7 371.5,-545.7 444.5,-545.7 444.5,-526.7 371.5,-526.7"/>
<text text-anchor="start" x="409.1105" y="-532.8" font-family="Helvetica,sans-Serif" font-size="11.00" fill="#000000">0 rows</text>
<polygon fill="#ffffff" stroke="transparent" points="444.5,-526.7 444.5,-545.7 491.5,-545.7 491.5,-526.7 444.5,-526.7"/>
<polygon fill="none" stroke="#000000" points="444.5,-526.7 444.5,-545.7 491.5,-545.7 491.5,-526.7 444.5,-526.7"/>
<text text-anchor="start" x="482.3862" y="-532.8" font-family="Helvetica,sans-Serif" font-size="11.00" fill="#000000"> &#160;</text>
</a>
</g>
</g>
<!-- dependency_rule -->
<g id="node2" class="node">
<title>dependency_rule</title>
<g id="a_node2"><a xlink:href="../../tables/dependency_rule.html" xlink:title="dependency_rule" target="_top">
<polygon fill="#ffffff" stroke="transparent" points="8,-159.7 8,-337.7 231,-337.7 231,-159.7 8,-159.7"/>
<polygon fill="#f5f5f5" stroke="transparent" points="10.5,-312.7 10.5,-335.7 229.5,-335.7 229.5,-312.7 10.5,-312.7"/>
<polygon fill="none" stroke="#000000" points="10.5,-312.7 10.5,-335.7 229.5,-335.7 229.5,-312.7 10.5,-312.7"/>
<text text-anchor="start" x="15.5" y="-321.3" font-family="Helvetica,sans-Serif" font-weight="bold" font-size="11.00" fill="#000000">dependency_rule</text>
<text text-anchor="start" x="194.5437" y="-320.8" font-family="Helvetica,sans-Serif" font-size="11.00" fill="#000000">[table]</text>
<polygon fill="none" stroke="#000000" points="10.5,-290.7 10.5,-312.7 145.5,-312.7 145.5,-290.7 10.5,-290.7"/>
<image xlink:href="../../images/primaryKeys.png" width="11px" height="12px" preserveAspectRatio="xMinYMin meet" x="15.5" y="-307.7"/>
<text text-anchor="start" x="30.5" y="-297.8" font-family="Helvetica,sans-Serif" font-size="11.00" fill="#000000">rule_id</text>
<polygon fill="none" stroke="#000000" points="145.5,-290.7 145.5,-312.7 229.5,-312.7 229.5,-290.7 145.5,-290.7"/>
<text text-anchor="start" x="148.5" y="-298.4" font-family="Helvetica,sans-Serif" font-size="11.00" fill="#000000">int4[10]</text>
<polygon fill="none" stroke="#000000" points="10.5,-268.7 10.5,-290.7 145.5,-290.7 145.5,-268.7 10.5,-268.7"/>
<text text-anchor="start" x="30.5" y="-275.8" font-family="Helvetica,sans-Serif" font-size="11.00" fill="#000000">description</text>
<polygon fill="none" stroke="#000000" points="145.5,-268.7 145.5,-290.7 229.5,-290.7 229.5,-268.7 145.5,-268.7"/>
<text text-anchor="start" x="148.5" y="-276.4" font-family="Helvetica,sans-Serif" font-size="11.00" fill="#000000">varchar[50]</text>
<polygon fill="none" stroke="#000000" points="10.5,-246.7 10.5,-268.7 145.5,-268.7 145.5,-246.7 10.5,-246.7"/>
<text text-anchor="start" x="30.5" y="-253.8" font-family="Helvetica,sans-Serif" font-size="11.00" fill="#000000">start_time</text>
<polygon fill="none" stroke="#000000" points="145.5,-246.7 145.5,-268.7 229.5,-268.7 229.5,-246.7 145.5,-246.7"/>
<text text-anchor="start" x="148.3807" y="-254.4" font-family="Helvetica,sans-Serif" font-size="11.00" fill="#000000">timestamp[29,6]</text>
<polygon fill="none" stroke="#000000" points="10.5,-224.7 10.5,-246.7 145.5,-246.7 145.5,-224.7 10.5,-224.7"/>
<text text-anchor="start" x="30.5" y="-231.8" font-family="Helvetica,sans-Serif" font-size="11.00" fill="#000000">end_time</text>
<polygon fill="none" stroke="#000000" points="145.5,-224.7 145.5,-246.7 229.5,-246.7 229.5,-224.7 145.5,-224.7"/>
<text text-anchor="start" x="148.3807" y="-232.4" font-family="Helvetica,sans-Serif" font-size="11.00" fill="#000000">timestamp[29,6]</text>
<polygon fill="none" stroke="#000000" points="10.5,-202.7 10.5,-224.7 145.5,-224.7 145.5,-202.7 10.5,-202.7"/>
<text text-anchor="start" x="30.5" y="-209.8" font-family="Helvetica,sans-Serif" font-size="11.00" fill="#000000">confidence</text>
<polygon fill="none" stroke="#000000" points="145.5,-202.7 145.5,-224.7 229.5,-224.7 229.5,-202.7 145.5,-202.7"/>
<text text-anchor="start" x="148.5" y="-210.4" font-family="Helvetica,sans-Serif" font-size="11.00" fill="#000000">int4[10]</text>
<polygon fill="none" stroke="#000000" points="10.5,-180.7 10.5,-202.7 145.5,-202.7 145.5,-180.7 10.5,-180.7"/>
<text text-anchor="start" x="30.5" y="-187.8" font-family="Helvetica,sans-Serif" font-size="11.00" fill="#000000">dr_type</text>
<polygon fill="none" stroke="#000000" points="145.5,-180.7 145.5,-202.7 229.5,-202.7 229.5,-180.7 145.5,-180.7"/>
<text text-anchor="start" x="148.5" y="-188.4" font-family="Helvetica,sans-Serif" font-size="11.00" fill="#000000">int4[10]</text>
<polygon fill="#ffffff" stroke="transparent" points="10.5,-161.7 10.5,-180.7 69.5,-180.7 69.5,-161.7 10.5,-161.7"/>
<polygon fill="none" stroke="#000000" points="10.5,-161.7 10.5,-180.7 69.5,-180.7 69.5,-161.7 10.5,-161.7"/>
<text text-anchor="start" x="13.5" y="-167.8" font-family="Helvetica,sans-Serif" font-size="11.00" fill="#000000">&lt; 0</text>
<polygon fill="#ffffff" stroke="transparent" points="69.5,-161.7 69.5,-180.7 145.5,-180.7 145.5,-161.7 69.5,-161.7"/>
<polygon fill="none" stroke="#000000" points="69.5,-161.7 69.5,-180.7 145.5,-180.7 145.5,-161.7 69.5,-161.7"/>
<text text-anchor="start" x="110.1105" y="-167.8" font-family="Helvetica,sans-Serif" font-size="11.00" fill="#000000">0 rows</text>
<polygon fill="#ffffff" stroke="transparent" points="145.5,-161.7 145.5,-180.7 229.5,-180.7 229.5,-161.7 145.5,-161.7"/>
<polygon fill="none" stroke="#000000" points="145.5,-161.7 145.5,-180.7 229.5,-180.7 229.5,-161.7 145.5,-161.7"/>
<text text-anchor="start" x="210.9053" y="-167.8" font-family="Helvetica,sans-Serif" font-size="11.00" fill="#000000">7 &gt;</text>
<polygon fill="none" stroke="#000000" stroke-width="2" points="9,-160.7 9,-336.7 230,-336.7 230,-160.7 9,-160.7"/>
</a>
</g>
</g>
<!-- dependency_rule_dataset&#45;&gt;dependency_rule -->
<g id="edge1" class="edge">
<title>dependency_rule_dataset:w&#45;&gt;dependency_rule:e</title>
<path fill="none" stroke="#000000" d="M267.2201,-572.9145C229.6495,-533.1363 286.7113,-301.7 229.5,-301.7"/>
<polygon fill="#000000" stroke="#000000" points="273.1658,-575.5047 279.0621,-582.0004 276.8329,-577.1024 280.5,-578.7 280.5,-578.7 280.5,-578.7 276.8329,-577.1024 281.9379,-575.3996 273.1658,-575.5047 273.1658,-575.5047"/>
<ellipse fill="none" stroke="#000000" cx="270.2321" cy="-574.2266" rx="3.2" ry="3.2"/>
</g>
<!-- mat_dr -->
<g id="node3" class="node">
<title>mat_dr</title>
<g id="a_node3"><a xlink:href="../../tables/mat_dr.html" xlink:title="mat_dr" target="_top">
<polygon fill="#ffffff" stroke="transparent" points="343,-441.7 343,-505.7 428,-505.7 428,-441.7 343,-441.7"/>
<polygon fill="#f5f5f5" stroke="transparent" points="343.5,-482.7 343.5,-505.7 428.5,-505.7 428.5,-482.7 343.5,-482.7"/>
<polygon fill="none" stroke="#000000" points="343.5,-482.7 343.5,-505.7 428.5,-505.7 428.5,-482.7 343.5,-482.7"/>
<text text-anchor="start" x="348.5" y="-491.3" font-family="Helvetica,sans-Serif" font-weight="bold" font-size="11.00" fill="#000000">mat_dr</text>
<text text-anchor="start" x="394.0219" y="-490.8" font-family="Helvetica,sans-Serif" font-size="11.00" fill="#000000">[table]</text>
<polygon fill="none" stroke="#000000" points="343.5,-460.7 343.5,-482.7 428.5,-482.7 428.5,-460.7 343.5,-460.7"/>
<image xlink:href="../../images/primaryKeys.png" width="11px" height="12px" preserveAspectRatio="xMinYMin meet" x="348.5" y="-477.7"/>
<text text-anchor="start" x="372.5" y="-467.8" font-family="Helvetica,sans-Serif" font-size="11.00" fill="#000000">rule_id</text>
<polygon fill="#ffffff" stroke="transparent" points="343.5,-441.7 343.5,-460.7 366.5,-460.7 366.5,-441.7 343.5,-441.7"/>
<polygon fill="none" stroke="#000000" points="343.5,-441.7 343.5,-460.7 366.5,-460.7 366.5,-441.7 343.5,-441.7"/>
<text text-anchor="start" x="346.5" y="-447.8" font-family="Helvetica,sans-Serif" font-size="11.00" fill="#000000">&lt; 1</text>
<polygon fill="#ffffff" stroke="transparent" points="366.5,-441.7 366.5,-460.7 405.5,-460.7 405.5,-441.7 366.5,-441.7"/>
<polygon fill="none" stroke="#000000" points="366.5,-441.7 366.5,-460.7 405.5,-460.7 405.5,-441.7 366.5,-441.7"/>
<text text-anchor="start" x="370.1105" y="-447.8" font-family="Helvetica,sans-Serif" font-size="11.00" fill="#000000">0 rows</text>
<polygon fill="#ffffff" stroke="transparent" points="405.5,-441.7 405.5,-460.7 428.5,-460.7 428.5,-441.7 405.5,-441.7"/>
<polygon fill="none" stroke="#000000" points="405.5,-441.7 405.5,-460.7 428.5,-460.7 428.5,-441.7 405.5,-441.7"/>
<text text-anchor="start" x="409.9053" y="-447.8" font-family="Helvetica,sans-Serif" font-size="11.00" fill="#000000">1 &gt;</text>
</a>
</g>
</g>
<!-- mat_dr&#45;&gt;dependency_rule -->
<g id="edge2" class="edge">
<title>mat_dr:w&#45;&gt;dependency_rule:e</title>
<path fill="none" stroke="#000000" d="M332.7532,-471.2985C304.4412,-469.0136 292.692,-456.8553 272,-431.7 233.3841,-384.7546 290.287,-301.7 229.5,-301.7"/>
<polygon fill="#000000" stroke="#000000" points="342.8499,-467.6729 342.5512,-475.6673 340.9523,-475.6076 341.2511,-467.6132 342.8499,-467.6729"/>
<polyline fill="none" stroke="#000000" points="343.5,-471.7 339.5028,-471.5506 "/>
<ellipse fill="none" stroke="#000000" cx="336.305" cy="-471.4311" rx="3.2" ry="3.2"/>
</g>
<!-- mo_dr -->
<g id="node4" class="node">
<title>mo_dr</title>
<g id="a_node4"><a xlink:href="../../tables/mo_dr.html" xlink:title="mo_dr" target="_top">
<polygon fill="#ffffff" stroke="transparent" points="345.5,-356.7 345.5,-420.7 425.5,-420.7 425.5,-356.7 345.5,-356.7"/>
<polygon fill="#f5f5f5" stroke="transparent" points="345.5,-397.7 345.5,-420.7 425.5,-420.7 425.5,-397.7 345.5,-397.7"/>
<polygon fill="none" stroke="#000000" points="345.5,-397.7 345.5,-420.7 425.5,-420.7 425.5,-397.7 345.5,-397.7"/>
<text text-anchor="start" x="350.5" y="-406.3" font-family="Helvetica,sans-Serif" font-weight="bold" font-size="11.00" fill="#000000">mo_dr</text>
<text text-anchor="start" x="391.0219" y="-405.8" font-family="Helvetica,sans-Serif" font-size="11.00" fill="#000000">[table]</text>
<polygon fill="none" stroke="#000000" points="345.5,-375.7 345.5,-397.7 425.5,-397.7 425.5,-375.7 345.5,-375.7"/>
<image xlink:href="../../images/primaryKeys.png" width="11px" height="12px" preserveAspectRatio="xMinYMin meet" x="350.5" y="-392.7"/>
<text text-anchor="start" x="372.5" y="-382.8" font-family="Helvetica,sans-Serif" font-size="11.00" fill="#000000">rule_id</text>
<polygon fill="#ffffff" stroke="transparent" points="345.5,-356.7 345.5,-375.7 366.5,-375.7 366.5,-356.7 345.5,-356.7"/>
<polygon fill="none" stroke="#000000" points="345.5,-356.7 345.5,-375.7 366.5,-375.7 366.5,-356.7 345.5,-356.7"/>
<text text-anchor="start" x="348.2027" y="-362.8" font-family="Helvetica,sans-Serif" font-size="11.00" fill="#000000">&lt; 1</text>
<polygon fill="#ffffff" stroke="transparent" points="366.5,-356.7 366.5,-375.7 404.5,-375.7 404.5,-356.7 366.5,-356.7"/>
<polygon fill="none" stroke="#000000" points="366.5,-356.7 366.5,-375.7 404.5,-375.7 404.5,-356.7 366.5,-356.7"/>
<text text-anchor="start" x="369.3053" y="-362.8" font-family="Helvetica,sans-Serif" font-size="11.00" fill="#000000">0 rows</text>
<polygon fill="#ffffff" stroke="transparent" points="404.5,-356.7 404.5,-375.7 425.5,-375.7 425.5,-356.7 404.5,-356.7"/>
<polygon fill="none" stroke="#000000" points="404.5,-356.7 404.5,-375.7 425.5,-375.7 425.5,-356.7 404.5,-356.7"/>
<text text-anchor="start" x="407.2027" y="-362.8" font-family="Helvetica,sans-Serif" font-size="11.00" fill="#000000">1 &gt;</text>
</a>
</g>
</g>
<!-- mo_dr&#45;&gt;dependency_rule -->
<g id="edge3" class="edge">
<title>mo_dr:w&#45;&gt;dependency_rule:e</title>
<path fill="none" stroke="#000000" d="M335.0521,-386.1768C306.686,-383.1284 298.4747,-367.0854 272,-346.7 250.2031,-329.9165 257.0098,-301.7 229.5,-301.7"/>
<polygon fill="#000000" stroke="#000000" points="344.9011,-382.665 344.5009,-390.655 342.9029,-390.5749 343.3031,-382.585 344.9011,-382.665"/>
<polyline fill="none" stroke="#000000" points="345.5,-386.7 341.505,-386.4999 "/>
<ellipse fill="none" stroke="#000000" cx="338.309" cy="-386.3399" rx="3.2" ry="3.2"/>
</g>
<!-- mor_dr -->
<g id="node5" class="node">
<title>mor_dr</title>
<g id="a_node5"><a xlink:href="../../tables/mor_dr.html" xlink:title="mor_dr" target="_top">
<polygon fill="#ffffff" stroke="transparent" points="342.5,-271.7 342.5,-335.7 428.5,-335.7 428.5,-271.7 342.5,-271.7"/>
<polygon fill="#f5f5f5" stroke="transparent" points="342.5,-312.7 342.5,-335.7 428.5,-335.7 428.5,-312.7 342.5,-312.7"/>
<polygon fill="none" stroke="#000000" points="342.5,-312.7 342.5,-335.7 428.5,-335.7 428.5,-312.7 342.5,-312.7"/>
<text text-anchor="start" x="347.5" y="-321.3" font-family="Helvetica,sans-Serif" font-weight="bold" font-size="11.00" fill="#000000">mor_dr</text>
<text text-anchor="start" x="394.0219" y="-320.8" font-family="Helvetica,sans-Serif" font-size="11.00" fill="#000000">[table]</text>
<polygon fill="none" stroke="#000000" points="342.5,-290.7 342.5,-312.7 428.5,-312.7 428.5,-290.7 342.5,-290.7"/>
<image xlink:href="../../images/primaryKeys.png" width="11px" height="12px" preserveAspectRatio="xMinYMin meet" x="347.5" y="-307.7"/>
<text text-anchor="start" x="371.5" y="-297.8" font-family="Helvetica,sans-Serif" font-size="11.00" fill="#000000">rule_id</text>
<polygon fill="#ffffff" stroke="transparent" points="342.5,-271.7 342.5,-290.7 366.5,-290.7 366.5,-271.7 342.5,-271.7"/>
<polygon fill="none" stroke="#000000" points="342.5,-271.7 342.5,-290.7 366.5,-290.7 366.5,-271.7 342.5,-271.7"/>
<text text-anchor="start" x="345.5" y="-277.8" font-family="Helvetica,sans-Serif" font-size="11.00" fill="#000000">&lt; 1</text>
<polygon fill="#ffffff" stroke="transparent" points="366.5,-271.7 366.5,-290.7 405.5,-290.7 405.5,-271.7 366.5,-271.7"/>
<polygon fill="none" stroke="#000000" points="366.5,-271.7 366.5,-290.7 405.5,-290.7 405.5,-271.7 366.5,-271.7"/>
<text text-anchor="start" x="370.1105" y="-277.8" font-family="Helvetica,sans-Serif" font-size="11.00" fill="#000000">0 rows</text>
<polygon fill="#ffffff" stroke="transparent" points="405.5,-271.7 405.5,-290.7 428.5,-290.7 428.5,-271.7 405.5,-271.7"/>
<polygon fill="none" stroke="#000000" points="405.5,-271.7 405.5,-290.7 428.5,-290.7 428.5,-271.7 405.5,-271.7"/>
<text text-anchor="start" x="409.9053" y="-277.8" font-family="Helvetica,sans-Serif" font-size="11.00" fill="#000000">1 &gt;</text>
</a>
</g>
</g>
<!-- mor_dr&#45;&gt;dependency_rule -->
<g id="edge4" class="edge">
<title>mor_dr:w&#45;&gt;dependency_rule:e</title>
<path fill="none" stroke="#000000" d="M331.9094,-301.7C290.2066,-301.7 275.9948,-301.7 229.5,-301.7"/>
<polygon fill="#000000" stroke="#000000" points="341.7,-297.7 341.7,-305.7 340.1,-305.7 340.1,-297.7 341.7,-297.7"/>
<polyline fill="none" stroke="#000000" points="342.5,-301.7 338.5,-301.7 "/>
<ellipse fill="none" stroke="#000000" cx="335.3" cy="-301.7001" rx="3.2" ry="3.2"/>
</g>
<!-- point_dr -->
<g id="node6" class="node">
<title>point_dr</title>
<g id="a_node6"><a xlink:href="../../tables/point_dr.html" xlink:title="point_dr" target="_top">
<polygon fill="#ffffff" stroke="transparent" points="338.5,-186.7 338.5,-250.7 432.5,-250.7 432.5,-186.7 338.5,-186.7"/>
<polygon fill="#f5f5f5" stroke="transparent" points="338.5,-227.7 338.5,-250.7 432.5,-250.7 432.5,-227.7 338.5,-227.7"/>
<polygon fill="none" stroke="#000000" points="338.5,-227.7 338.5,-250.7 432.5,-250.7 432.5,-227.7 338.5,-227.7"/>
<text text-anchor="start" x="343.5" y="-236.3" font-family="Helvetica,sans-Serif" font-weight="bold" font-size="11.00" fill="#000000">point_dr</text>
<text text-anchor="start" x="398.0219" y="-235.8" font-family="Helvetica,sans-Serif" font-size="11.00" fill="#000000">[table]</text>
<polygon fill="none" stroke="#000000" points="338.5,-205.7 338.5,-227.7 432.5,-227.7 432.5,-205.7 338.5,-205.7"/>
<image xlink:href="../../images/primaryKeys.png" width="11px" height="12px" preserveAspectRatio="xMinYMin meet" x="343.5" y="-222.7"/>
<text text-anchor="start" x="367.5" y="-212.8" font-family="Helvetica,sans-Serif" font-size="11.00" fill="#000000">rule_id</text>
<polygon fill="#ffffff" stroke="transparent" points="338.5,-186.7 338.5,-205.7 366.5,-205.7 366.5,-186.7 338.5,-186.7"/>
<polygon fill="none" stroke="#000000" points="338.5,-186.7 338.5,-205.7 366.5,-205.7 366.5,-186.7 338.5,-186.7"/>
<text text-anchor="start" x="341.5" y="-192.8" font-family="Helvetica,sans-Serif" font-size="11.00" fill="#000000">&lt; 1</text>
<polygon fill="#ffffff" stroke="transparent" points="366.5,-186.7 366.5,-205.7 407.5,-205.7 407.5,-186.7 366.5,-186.7"/>
<polygon fill="none" stroke="#000000" points="366.5,-186.7 366.5,-205.7 407.5,-205.7 407.5,-186.7 366.5,-186.7"/>
<text text-anchor="start" x="372.1105" y="-192.8" font-family="Helvetica,sans-Serif" font-size="11.00" fill="#000000">0 rows</text>
<polygon fill="#ffffff" stroke="transparent" points="407.5,-186.7 407.5,-205.7 432.5,-205.7 432.5,-186.7 407.5,-186.7"/>
<polygon fill="none" stroke="#000000" points="407.5,-186.7 407.5,-205.7 432.5,-205.7 432.5,-186.7 407.5,-186.7"/>
<text text-anchor="start" x="413.9053" y="-192.8" font-family="Helvetica,sans-Serif" font-size="11.00" fill="#000000">1 &gt;</text>
</a>
</g>
</g>
<!-- point_dr&#45;&gt;dependency_rule -->
<g id="edge5" class="edge">
<title>point_dr:w&#45;&gt;dependency_rule:e</title>
<path fill="none" stroke="#000000" d="M327.8897,-217.4844C301.8695,-221.6607 296.8133,-241.8385 272,-261.7 251.7492,-277.9095 255.4392,-301.7 229.5,-301.7"/>
<polygon fill="#000000" stroke="#000000" points="337.4072,-212.7699 337.9971,-220.7481 336.4015,-220.8661 335.8116,-212.8879 337.4072,-212.7699"/>
<polyline fill="none" stroke="#000000" points="338.5,-216.7 334.5109,-216.995 "/>
<ellipse fill="none" stroke="#000000" cx="331.3196" cy="-217.2309" rx="3.2" ry="3.2"/>
</g>
<!-- predicate -->
<g id="node7" class="node">
<title>predicate</title>
<g id="a_node7"><a xlink:href="../../tables/predicate.html" xlink:title="predicate" target="_top">
<polygon fill="#ffffff" stroke="transparent" points="306.5,-38.2 306.5,-165.2 464.5,-165.2 464.5,-38.2 306.5,-38.2"/>
<polygon fill="#f5f5f5" stroke="transparent" points="306.5,-141.7 306.5,-164.7 464.5,-164.7 464.5,-141.7 306.5,-141.7"/>
<polygon fill="none" stroke="#000000" points="306.5,-141.7 306.5,-164.7 464.5,-164.7 464.5,-141.7 306.5,-141.7"/>
<text text-anchor="start" x="311.5" y="-150.3" font-family="Helvetica,sans-Serif" font-weight="bold" font-size="11.00" fill="#000000">predicate</text>
<text text-anchor="start" x="429.5437" y="-149.8" font-family="Helvetica,sans-Serif" font-size="11.00" fill="#000000">[table]</text>
<polygon fill="none" stroke="#000000" points="306.5,-119.7 306.5,-141.7 464.5,-141.7 464.5,-119.7 306.5,-119.7"/>
<image xlink:href="../../images/primaryKeys.png" width="11px" height="12px" preserveAspectRatio="xMinYMin meet" x="311.5" y="-136.7"/>
<text text-anchor="start" x="326.5" y="-126.8" font-family="Helvetica,sans-Serif" font-size="11.00" fill="#000000">predicate_id</text>
<polygon fill="#ffffff" stroke="transparent" points="306.5,-97.7 306.5,-119.7 464.5,-119.7 464.5,-97.7 306.5,-97.7"/>
<polygon fill="none" stroke="#000000" points="306.5,-97.7 306.5,-119.7 464.5,-119.7 464.5,-97.7 306.5,-97.7"/>
<image xlink:href="../../images/foreignKeys.png" width="11px" height="12px" preserveAspectRatio="xMinYMin meet" x="311.5" y="-114.7"/>
<text text-anchor="start" x="326.5" y="-104.8" font-family="Helvetica,sans-Serif" font-size="11.00" fill="#000000">determined</text>
<polygon fill="#ffffff" stroke="transparent" points="306.5,-75.7 306.5,-97.7 464.5,-97.7 464.5,-75.7 306.5,-75.7"/>
<polygon fill="none" stroke="#000000" points="306.5,-75.7 306.5,-97.7 464.5,-97.7 464.5,-75.7 306.5,-75.7"/>
<image xlink:href="../../images/foreignKeys.png" width="11px" height="12px" preserveAspectRatio="xMinYMin meet" x="311.5" y="-92.7"/>
<text text-anchor="start" x="326.5" y="-82.8" font-family="Helvetica,sans-Serif" font-size="11.00" fill="#000000">determinant</text>
<polygon fill="none" stroke="#000000" points="306.5,-56.7 306.5,-75.7 464.5,-75.7 464.5,-56.7 306.5,-56.7"/>
<text text-anchor="start" x="309.5" y="-62.8" font-family="Helvetica,sans-Serif" font-size="11.00" fill="#000000">...</text>
<polygon fill="#ffffff" stroke="transparent" points="306.5,-37.7 306.5,-56.7 366.5,-56.7 366.5,-37.7 306.5,-37.7"/>
<polygon fill="none" stroke="#000000" points="306.5,-37.7 306.5,-56.7 366.5,-56.7 366.5,-37.7 306.5,-37.7"/>
<text text-anchor="start" x="309.5" y="-43.8" font-family="Helvetica,sans-Serif" font-size="11.00" fill="#000000">&lt; 2</text>
<polygon fill="#ffffff" stroke="transparent" points="366.5,-37.7 366.5,-56.7 423.5,-56.7 423.5,-37.7 366.5,-37.7"/>
<polygon fill="none" stroke="#000000" points="366.5,-37.7 366.5,-56.7 423.5,-56.7 423.5,-37.7 366.5,-37.7"/>
<text text-anchor="start" x="388.1105" y="-43.8" font-family="Helvetica,sans-Serif" font-size="11.00" fill="#000000">0 rows</text>
<polygon fill="#ffffff" stroke="transparent" points="423.5,-37.7 423.5,-56.7 464.5,-56.7 464.5,-37.7 423.5,-37.7"/>
<polygon fill="none" stroke="#000000" points="423.5,-37.7 423.5,-56.7 464.5,-56.7 464.5,-37.7 423.5,-37.7"/>
<text text-anchor="start" x="445.9053" y="-43.8" font-family="Helvetica,sans-Serif" font-size="11.00" fill="#000000">2 &gt;</text>
</a>
</g>
</g>
<!-- predicate&#45;&gt;dependency_rule -->
<g id="edge6" class="edge">
<title>predicate:w&#45;&gt;dependency_rule:e</title>
<path fill="none" stroke="#000000" d="M293.2082,-92.9027C259.9507,-128.1542 275.0952,-301.7 229.5,-301.7"/>
<polygon fill="#000000" stroke="#000000" points="299.2505,-90.083 308.0224,-89.9623 302.8752,-88.3915 306.5,-86.7 306.5,-86.7 306.5,-86.7 302.8752,-88.3915 304.9776,-83.4377 299.2505,-90.083 299.2505,-90.083"/>
<ellipse fill="none" stroke="#000000" cx="296.3507" cy="-91.4362" rx="3.2" ry="3.2"/>
</g>
<!-- predicate&#45;&gt;dependency_rule -->
<g id="edge7" class="edge">
<title>predicate:w&#45;&gt;dependency_rule:e</title>
<path fill="none" stroke="#000000" d="M291.8364,-110.7369C226.4565,-131.3636 316.2609,-301.7 229.5,-301.7"/>
<polygon fill="#000000" stroke="#000000" points="298.5761,-109.8007 306.9953,-112.2658 302.538,-109.2504 306.5,-108.7 306.5,-108.7 306.5,-108.7 302.538,-109.2504 306.0047,-105.1342 298.5761,-109.8007 298.5761,-109.8007"/>
<ellipse fill="none" stroke="#000000" cx="295.4065" cy="-110.241" rx="3.2" ry="3.2"/>
</g>
</g>
</svg>
