<?xml version="1.0" encoding="UTF-8" standalone="no"?>
<!DOCTYPE svg PUBLIC "-//W3C//DTD SVG 1.1//EN"
 "http://www.w3.org/Graphics/SVG/1.1/DTD/svg11.dtd">
<!-- Generated by graphviz version 2.40.1 (20161225.0304)
 -->
<!-- Title: oneDegreeRelationshipsDiagram Pages: 1 -->
<svg width="465pt" height="237pt"
 viewBox="0.00 0.00 465.00 237.20" xmlns="http://www.w3.org/2000/svg" xmlns:xlink="http://www.w3.org/1999/xlink">
<g id="graph0" class="graph" transform="scale(1 1) rotate(0) translate(4 233.2)">
<title>oneDegreeRelationshipsDiagram</title>
<polygon fill="#ffffff" stroke="transparent" points="-4,4 -4,-233.2 461,-233.2 461,4 -4,4"/>
<text text-anchor="middle" x="72.4936" y="-7.3" font-family="Helvetica,sans-Serif" font-size="11.00" fill="#000000">Generated by SchemaSpy</text>
<!-- dependency_rule_dataset -->
<g id="node1" class="node">
<title>dependency_rule_dataset</title>
<g id="a_node1"><a xlink:href="../../tables/dependency_rule_dataset.html" xlink:title="dependency_rule_dataset" target="_top">
<polygon fill="#ffffff" stroke="transparent" points="210,-95.7 210,-185.7 449,-185.7 449,-95.7 210,-95.7"/>
<polygon fill="#f5f5f5" stroke="transparent" points="212.5,-160.7 212.5,-183.7 447.5,-183.7 447.5,-160.7 212.5,-160.7"/>
<polygon fill="none" stroke="#000000" points="212.5,-160.7 212.5,-183.7 447.5,-183.7 447.5,-160.7 212.5,-160.7"/>
<text text-anchor="start" x="217.5" y="-169.3" font-family="Helvetica,sans-Serif" font-weight="bold" font-size="11.00" fill="#000000">dependency_rule_dataset</text>
<text text-anchor="start" x="412.5437" y="-168.8" font-family="Helvetica,sans-Serif" font-size="11.00" fill="#000000">[table]</text>
<polygon fill="none" stroke="#000000" points="212.5,-138.7 212.5,-160.7 405.5,-160.7 405.5,-138.7 212.5,-138.7"/>
<image xlink:href="../../images/primaryKeys.png" width="11px" height="12px" preserveAspectRatio="xMinYMin meet" x="217.5" y="-155.7"/>
<text text-anchor="start" x="232.5" y="-145.8" font-family="Helvetica,sans-Serif" font-size="11.00" fill="#000000">rule_id</text>
<polygon fill="none" stroke="#000000" points="405.5,-138.7 405.5,-160.7 447.5,-160.7 447.5,-138.7 405.5,-138.7"/>
<text text-anchor="start" x="408.4644" y="-146.4" font-family="Helvetica,sans-Serif" font-size="11.00" fill="#000000">int4[10]</text>
<polygon fill="none" stroke="#000000" points="212.5,-116.7 212.5,-138.7 405.5,-138.7 405.5,-116.7 212.5,-116.7"/>
<image xlink:href="../../images/primaryKeys.png" width="11px" height="12px" preserveAspectRatio="xMinYMin meet" x="217.5" y="-133.7"/>
<text text-anchor="start" x="232.5" y="-123.8" font-family="Helvetica,sans-Serif" font-size="11.00" fill="#000000">dataset_id</text>
<polygon fill="none" stroke="#000000" points="405.5,-116.7 405.5,-138.7 447.5,-138.7 447.5,-116.7 405.5,-116.7"/>
<text text-anchor="start" x="408.4644" y="-124.4" font-family="Helvetica,sans-Serif" font-size="11.00" fill="#000000">int4[10]</text>
<polygon fill="#ffffff" stroke="transparent" points="212.5,-97.7 212.5,-116.7 300.5,-116.7 300.5,-97.7 212.5,-97.7"/>
<polygon fill="none" stroke="#000000" points="212.5,-97.7 212.5,-116.7 300.5,-116.7 300.5,-97.7 212.5,-97.7"/>
<text text-anchor="start" x="215.5" y="-103.8" font-family="Helvetica,sans-Serif" font-size="11.00" fill="#000000">&lt; 2</text>
<polygon fill="#ffffff" stroke="transparent" points="300.5,-97.7 300.5,-116.7 405.5,-116.7 405.5,-97.7 300.5,-97.7"/>
<polygon fill="none" stroke="#000000" points="300.5,-97.7 300.5,-116.7 405.5,-116.7 405.5,-97.7 300.5,-97.7"/>
<text text-anchor="start" x="370.1105" y="-103.8" font-family="Helvetica,sans-Serif" font-size="11.00" fill="#000000">0 rows</text>
<polygon fill="#ffffff" stroke="transparent" points="405.5,-97.7 405.5,-116.7 447.5,-116.7 447.5,-97.7 405.5,-97.7"/>
<polygon fill="none" stroke="#000000" points="405.5,-97.7 405.5,-116.7 447.5,-116.7 447.5,-97.7 405.5,-97.7"/>
<text text-anchor="start" x="428.9053" y="-103.8" font-family="Helvetica,sans-Serif" font-size="11.00" fill="#000000">0 &gt;</text>
<polygon fill="none" stroke="#000000" stroke-width="2" points="211,-96.7 211,-184.7 448,-184.7 448,-96.7 211,-96.7"/>
</a>
</g>
</g>
<!-- dataset -->
<g id="node2" class="node">
<title>dataset</title>
<g id="a_node2"><a xlink:href="../../tables/dataset.html" xlink:title="dataset" target="_top">
<polygon fill="#ffffff" stroke="transparent" points="36,-38.2 36,-121.2 133,-121.2 133,-38.2 36,-38.2"/>
<polygon fill="#f5f5f5" stroke="transparent" points="36.5,-97.7 36.5,-120.7 133.5,-120.7 133.5,-97.7 36.5,-97.7"/>
<polygon fill="none" stroke="#000000" points="36.5,-97.7 36.5,-120.7 133.5,-120.7 133.5,-97.7 36.5,-97.7"/>
<text text-anchor="start" x="41.5" y="-106.3" font-family="Helvetica,sans-Serif" font-weight="bold" font-size="11.00" fill="#000000">dataset</text>
<text text-anchor="start" x="98.5437" y="-105.8" font-family="Helvetica,sans-Serif" font-size="11.00" fill="#000000">[table]</text>
<polygon fill="none" stroke="#000000" points="36.5,-75.7 36.5,-97.7 133.5,-97.7 133.5,-75.7 36.5,-75.7"/>
<image xlink:href="../../images/primaryKeys.png" width="11px" height="12px" preserveAspectRatio="xMinYMin meet" x="41.5" y="-92.7"/>
<text text-anchor="start" x="56.5" y="-82.8" font-family="Helvetica,sans-Serif" font-size="11.00" fill="#000000">dataset_id</text>
<polygon fill="none" stroke="#000000" points="36.5,-56.7 36.5,-75.7 133.5,-75.7 133.5,-56.7 36.5,-56.7"/>
<text text-anchor="start" x="39.5" y="-62.8" font-family="Helvetica,sans-Serif" font-size="11.00" fill="#000000">...</text>
<polygon fill="#ffffff" stroke="transparent" points="36.5,-37.7 36.5,-56.7 61.5,-56.7 61.5,-37.7 36.5,-37.7"/>
<polygon fill="none" stroke="#000000" points="36.5,-37.7 36.5,-56.7 61.5,-56.7 61.5,-37.7 36.5,-37.7"/>
<text text-anchor="start" x="39.5" y="-43.8" font-family="Helvetica,sans-Serif" font-size="11.00" fill="#000000"> &#160;</text>
<polygon fill="#ffffff" stroke="transparent" points="61.5,-37.7 61.5,-56.7 105.5,-56.7 105.5,-37.7 61.5,-37.7"/>
<polygon fill="none" stroke="#000000" points="61.5,-37.7 61.5,-56.7 105.5,-56.7 105.5,-37.7 61.5,-37.7"/>
<text text-anchor="start" x="70.1105" y="-43.8" font-family="Helvetica,sans-Serif" font-size="11.00" fill="#000000">0 rows</text>
<polygon fill="#ffffff" stroke="transparent" points="105.5,-37.7 105.5,-56.7 133.5,-56.7 133.5,-37.7 105.5,-37.7"/>
<polygon fill="none" stroke="#000000" points="105.5,-37.7 105.5,-56.7 133.5,-56.7 133.5,-37.7 105.5,-37.7"/>
<text text-anchor="start" x="114.9053" y="-43.8" font-family="Helvetica,sans-Serif" font-size="11.00" fill="#000000">1 &gt;</text>
</a>
</g>
</g>
<!-- dependency_rule_dataset&#45;&gt;dataset -->
<g id="edge1" class="edge">
<title>dependency_rule_dataset:w&#45;&gt;dataset:e</title>
<path fill="none" stroke="#000000" d="M197.9445,-125.4957C172.19,-116.9795 167.4952,-86.7 133.5,-86.7"/>
<polygon fill="#000000" stroke="#000000" points="204.5902,-126.5021 211.9609,-131.2594 208.5451,-127.101 212.5,-127.7 212.5,-127.7 212.5,-127.7 208.5451,-127.101 213.0391,-124.1406 204.5902,-126.5021 204.5902,-126.5021"/>
<ellipse fill="none" stroke="#000000" cx="201.4263" cy="-126.0229" rx="3.2" ry="3.2"/>
</g>
<!-- dependency_rule -->
<g id="node3" class="node">
<title>dependency_rule</title>
<g id="a_node3"><a xlink:href="../../tables/dependency_rule.html" xlink:title="dependency_rule" target="_top">
<polygon fill="#ffffff" stroke="transparent" points="8,-142.2 8,-225.2 161,-225.2 161,-142.2 8,-142.2"/>
<polygon fill="#f5f5f5" stroke="transparent" points="8.5,-201.7 8.5,-224.7 161.5,-224.7 161.5,-201.7 8.5,-201.7"/>
<polygon fill="none" stroke="#000000" points="8.5,-201.7 8.5,-224.7 161.5,-224.7 161.5,-201.7 8.5,-201.7"/>
<text text-anchor="start" x="13.5" y="-210.3" font-family="Helvetica,sans-Serif" font-weight="bold" font-size="11.00" fill="#000000">dependency_rule</text>
<text text-anchor="start" x="127.0219" y="-209.8" font-family="Helvetica,sans-Serif" font-size="11.00" fill="#000000">[table]</text>
<polygon fill="none" stroke="#000000" points="8.5,-179.7 8.5,-201.7 161.5,-201.7 161.5,-179.7 8.5,-179.7"/>
<image xlink:href="../../images/primaryKeys.png" width="11px" height="12px" preserveAspectRatio="xMinYMin meet" x="13.5" y="-196.7"/>
<text text-anchor="start" x="37.5" y="-186.8" font-family="Helvetica,sans-Serif" font-size="11.00" fill="#000000">rule_id</text>
<polygon fill="none" stroke="#000000" points="8.5,-160.7 8.5,-179.7 161.5,-179.7 161.5,-160.7 8.5,-160.7"/>
<text text-anchor="start" x="11.5" y="-166.8" font-family="Helvetica,sans-Serif" font-size="11.00" fill="#000000">...</text>
<polygon fill="#ffffff" stroke="transparent" points="8.5,-141.7 8.5,-160.7 61.5,-160.7 61.5,-141.7 8.5,-141.7"/>
<polygon fill="none" stroke="#000000" points="8.5,-141.7 8.5,-160.7 61.5,-160.7 61.5,-141.7 8.5,-141.7"/>
<text text-anchor="start" x="11.5" y="-147.8" font-family="Helvetica,sans-Serif" font-size="11.00" fill="#000000"> &#160;</text>
<polygon fill="#ffffff" stroke="transparent" points="61.5,-141.7 61.5,-160.7 119.5,-160.7 119.5,-141.7 61.5,-141.7"/>
<polygon fill="none" stroke="#000000" points="61.5,-141.7 61.5,-160.7 119.5,-160.7 119.5,-141.7 61.5,-141.7"/>
<text text-anchor="start" x="84.1105" y="-147.8" font-family="Helvetica,sans-Serif" font-size="11.00" fill="#000000">0 rows</text>
<polygon fill="#ffffff" stroke="transparent" points="119.5,-141.7 119.5,-160.7 161.5,-160.7 161.5,-141.7 119.5,-141.7"/>
<polygon fill="none" stroke="#000000" points="119.5,-141.7 119.5,-160.7 161.5,-160.7 161.5,-141.7 119.5,-141.7"/>
<text text-anchor="start" x="142.9053" y="-147.8" font-family="Helvetica,sans-Serif" font-size="11.00" fill="#000000">7 &gt;</text>
</a>
</g>
</g>
<!-- dependency_rule_dataset&#45;&gt;dependency_rule -->
<g id="edge2" class="edge">
<title>dependency_rule_dataset:w&#45;&gt;dependency_rule:e</title>
<path fill="none" stroke="#000000" d="M198.6568,-154.0877C184.8325,-164.6646 184.6756,-190.7 161.5,-190.7"/>
<polygon fill="#000000" stroke="#000000" points="204.8739,-152.1172 213.5877,-153.1317 208.6869,-150.9086 212.5,-149.7 212.5,-149.7 212.5,-149.7 208.6869,-150.9086 211.4123,-146.2683 204.8739,-152.1172 204.8739,-152.1172"/>
<ellipse fill="none" stroke="#000000" cx="201.8235" cy="-153.0841" rx="3.2" ry="3.2"/>
</g>
</g>
</svg>
