<?xml version="1.0" encoding="UTF-8" standalone="no"?>
<!DOCTYPE svg PUBLIC "-//W3C//DTD SVG 1.1//EN"
 "http://www.w3.org/Graphics/SVG/1.1/DTD/svg11.dtd">
<!-- Generated by graphviz version 2.40.1 (20161225.0304)
 -->
<!-- Title: twoDegreesRelationshipsDiagram Pages: 1 -->
<svg width="756pt" height="629pt"
 viewBox="0.00 0.00 756.00 629.20" xmlns="http://www.w3.org/2000/svg" xmlns:xlink="http://www.w3.org/1999/xlink">
<g id="graph0" class="graph" transform="scale(1 1) rotate(0) translate(4 625.2)">
<title>twoDegreesRelationshipsDiagram</title>
<polygon fill="#ffffff" stroke="transparent" points="-4,4 -4,-625.2 752,-625.2 752,4 -4,4"/>
<text text-anchor="middle" x="72.4936" y="-7.3" font-family="Helvetica,sans-Serif" font-size="11.00" fill="#000000">Generated by SchemaSpy</text>
<!-- dependency_rule_dataset -->
<g id="node1" class="node">
<title>dependency_rule_dataset</title>
<g id="a_node1"><a xlink:href="../../tables/dependency_rule_dataset.html" xlink:title="dependency_rule_dataset" target="_top">
<polygon fill="#ffffff" stroke="transparent" points="280,-531.2 280,-617.2 491,-617.2 491,-531.2 280,-531.2"/>
<polygon fill="#f5f5f5" stroke="transparent" points="280.5,-594.2 280.5,-617.2 491.5,-617.2 491.5,-594.2 280.5,-594.2"/>
<polygon fill="none" stroke="#000000" points="280.5,-594.2 280.5,-617.2 491.5,-617.2 491.5,-594.2 280.5,-594.2"/>
<text text-anchor="start" x="285.5" y="-602.8" font-family="Helvetica,sans-Serif" font-weight="bold" font-size="11.00" fill="#000000">dependency_rule_dataset</text>
<text text-anchor="start" x="457.0219" y="-602.3" font-family="Helvetica,sans-Serif" font-size="11.00" fill="#000000">[table]</text>
<polygon fill="none" stroke="#000000" points="280.5,-572.2 280.5,-594.2 491.5,-594.2 491.5,-572.2 280.5,-572.2"/>
<image xlink:href="../../images/primaryKeys.png" width="11px" height="12px" preserveAspectRatio="xMinYMin meet" x="285.5" y="-589.2"/>
<text text-anchor="start" x="309.5" y="-579.3" font-family="Helvetica,sans-Serif" font-size="11.00" fill="#000000">rule_id</text>
<polygon fill="none" stroke="#000000" points="280.5,-550.2 280.5,-572.2 491.5,-572.2 491.5,-550.2 280.5,-550.2"/>
<image xlink:href="../../images/primaryKeys.png" width="11px" height="12px" preserveAspectRatio="xMinYMin meet" x="285.5" y="-567.2"/>
<text text-anchor="start" x="309.5" y="-557.3" font-family="Helvetica,sans-Serif" font-size="11.00" fill="#000000">dataset_id</text>
<polygon fill="#ffffff" stroke="transparent" points="280.5,-531.2 280.5,-550.2 371.5,-550.2 371.5,-531.2 280.5,-531.2"/>
<polygon fill="none" stroke="#000000" points="280.5,-531.2 280.5,-550.2 371.5,-550.2 371.5,-531.2 280.5,-531.2"/>
<text text-anchor="start" x="283.5" y="-537.3" font-family="Helvetica,sans-Serif" font-size="11.00" fill="#000000">&lt; 2</text>
<polygon fill="#ffffff" stroke="transparent" points="371.5,-531.2 371.5,-550.2 444.5,-550.2 444.5,-531.2 371.5,-531.2"/>
<polygon fill="none" stroke="#000000" points="371.5,-531.2 371.5,-550.2 444.5,-550.2 444.5,-531.2 371.5,-531.2"/>
<text text-anchor="start" x="409.1105" y="-537.3" font-family="Helvetica,sans-Serif" font-size="11.00" fill="#000000">0 rows</text>
<polygon fill="#ffffff" stroke="transparent" points="444.5,-531.2 444.5,-550.2 491.5,-550.2 491.5,-531.2 444.5,-531.2"/>
<polygon fill="none" stroke="#000000" points="444.5,-531.2 444.5,-550.2 491.5,-550.2 491.5,-531.2 444.5,-531.2"/>
<text text-anchor="start" x="482.3862" y="-537.3" font-family="Helvetica,sans-Serif" font-size="11.00" fill="#000000"> &#160;</text>
</a>
</g>
</g>
<!-- dataset -->
<g id="node2" class="node">
<title>dataset</title>
<g id="a_node2"><a xlink:href="../../tables/dataset.html" xlink:title="dataset" target="_top">
<polygon fill="#ffffff" stroke="transparent" points="74.5,-533.7 74.5,-594.7 164.5,-594.7 164.5,-533.7 74.5,-533.7"/>
<polygon fill="#f5f5f5" stroke="transparent" points="74.5,-571.2 74.5,-594.2 164.5,-594.2 164.5,-571.2 74.5,-571.2"/>
<polygon fill="none" stroke="#000000" points="74.5,-571.2 74.5,-594.2 164.5,-594.2 164.5,-571.2 74.5,-571.2"/>
<text text-anchor="start" x="79.5" y="-579.8" font-family="Helvetica,sans-Serif" font-weight="bold" font-size="11.00" fill="#000000">dataset</text>
<text text-anchor="start" x="130.0219" y="-579.3" font-family="Helvetica,sans-Serif" font-size="11.00" fill="#000000">[table]</text>
<polygon fill="none" stroke="#000000" points="74.5,-552.2 74.5,-571.2 164.5,-571.2 164.5,-552.2 74.5,-552.2"/>
<text text-anchor="start" x="77.5" y="-558.3" font-family="Helvetica,sans-Serif" font-size="11.00" fill="#000000">...</text>
<polygon fill="#ffffff" stroke="transparent" points="74.5,-533.2 74.5,-552.2 95.5,-552.2 95.5,-533.2 74.5,-533.2"/>
<polygon fill="none" stroke="#000000" points="74.5,-533.2 74.5,-552.2 95.5,-552.2 95.5,-533.2 74.5,-533.2"/>
<text text-anchor="start" x="77.5" y="-539.3" font-family="Helvetica,sans-Serif" font-size="11.00" fill="#000000"> &#160;</text>
<polygon fill="#ffffff" stroke="transparent" points="95.5,-533.2 95.5,-552.2 138.5,-552.2 138.5,-533.2 95.5,-533.2"/>
<polygon fill="none" stroke="#000000" points="95.5,-533.2 95.5,-552.2 138.5,-552.2 138.5,-533.2 95.5,-533.2"/>
<text text-anchor="start" x="103.1105" y="-539.3" font-family="Helvetica,sans-Serif" font-size="11.00" fill="#000000">0 rows</text>
<polygon fill="#ffffff" stroke="transparent" points="138.5,-533.2 138.5,-552.2 164.5,-552.2 164.5,-533.2 138.5,-533.2"/>
<polygon fill="none" stroke="#000000" points="138.5,-533.2 138.5,-552.2 164.5,-552.2 164.5,-533.2 138.5,-533.2"/>
<text text-anchor="start" x="145.9053" y="-539.3" font-family="Helvetica,sans-Serif" font-size="11.00" fill="#000000">1 &gt;</text>
</a>
</g>
</g>
<!-- dependency_rule_dataset&#45;&gt;dataset -->
<g id="edge1" class="edge">
<title>dependency_rule_dataset:w&#45;&gt;dataset:e</title>
<path fill="none" stroke="#000000" d="M265.9072,-561.2C225.9275,-561.2 210.8194,-561.2 164.5,-561.2"/>
<polygon fill="#000000" stroke="#000000" points="272.5,-561.2001 280.5,-564.8 276.5,-561.2 280.5,-561.2 280.5,-561.2 280.5,-561.2 276.5,-561.2 280.5,-557.6 272.5,-561.2001 272.5,-561.2001"/>
<ellipse fill="none" stroke="#000000" cx="269.3" cy="-561.2001" rx="3.2" ry="3.2"/>
</g>
<!-- dependency_rule -->
<g id="node3" class="node">
<title>dependency_rule</title>
<g id="a_node3"><a xlink:href="../../tables/dependency_rule.html" xlink:title="dependency_rule" target="_top">
<polygon fill="#ffffff" stroke="transparent" points="8,-141.2 8,-319.2 231,-319.2 231,-141.2 8,-141.2"/>
<polygon fill="#f5f5f5" stroke="transparent" points="10.5,-294.2 10.5,-317.2 229.5,-317.2 229.5,-294.2 10.5,-294.2"/>
<polygon fill="none" stroke="#000000" points="10.5,-294.2 10.5,-317.2 229.5,-317.2 229.5,-294.2 10.5,-294.2"/>
<text text-anchor="start" x="15.5" y="-302.8" font-family="Helvetica,sans-Serif" font-weight="bold" font-size="11.00" fill="#000000">dependency_rule</text>
<text text-anchor="start" x="194.5437" y="-302.3" font-family="Helvetica,sans-Serif" font-size="11.00" fill="#000000">[table]</text>
<polygon fill="none" stroke="#000000" points="10.5,-272.2 10.5,-294.2 145.5,-294.2 145.5,-272.2 10.5,-272.2"/>
<image xlink:href="../../images/primaryKeys.png" width="11px" height="12px" preserveAspectRatio="xMinYMin meet" x="15.5" y="-289.2"/>
<text text-anchor="start" x="30.5" y="-279.3" font-family="Helvetica,sans-Serif" font-size="11.00" fill="#000000">rule_id</text>
<polygon fill="none" stroke="#000000" points="145.5,-272.2 145.5,-294.2 229.5,-294.2 229.5,-272.2 145.5,-272.2"/>
<text text-anchor="start" x="148.5" y="-279.9" font-family="Helvetica,sans-Serif" font-size="11.00" fill="#000000">int4[10]</text>
<polygon fill="none" stroke="#000000" points="10.5,-250.2 10.5,-272.2 145.5,-272.2 145.5,-250.2 10.5,-250.2"/>
<text text-anchor="start" x="30.5" y="-257.3" font-family="Helvetica,sans-Serif" font-size="11.00" fill="#000000">description</text>
<polygon fill="none" stroke="#000000" points="145.5,-250.2 145.5,-272.2 229.5,-272.2 229.5,-250.2 145.5,-250.2"/>
<text text-anchor="start" x="148.5" y="-257.9" font-family="Helvetica,sans-Serif" font-size="11.00" fill="#000000">varchar[50]</text>
<polygon fill="none" stroke="#000000" points="10.5,-228.2 10.5,-250.2 145.5,-250.2 145.5,-228.2 10.5,-228.2"/>
<text text-anchor="start" x="30.5" y="-235.3" font-family="Helvetica,sans-Serif" font-size="11.00" fill="#000000">start_time</text>
<polygon fill="none" stroke="#000000" points="145.5,-228.2 145.5,-250.2 229.5,-250.2 229.5,-228.2 145.5,-228.2"/>
<text text-anchor="start" x="148.3807" y="-235.9" font-family="Helvetica,sans-Serif" font-size="11.00" fill="#000000">timestamp[29,6]</text>
<polygon fill="none" stroke="#000000" points="10.5,-206.2 10.5,-228.2 145.5,-228.2 145.5,-206.2 10.5,-206.2"/>
<text text-anchor="start" x="30.5" y="-213.3" font-family="Helvetica,sans-Serif" font-size="11.00" fill="#000000">end_time</text>
<polygon fill="none" stroke="#000000" points="145.5,-206.2 145.5,-228.2 229.5,-228.2 229.5,-206.2 145.5,-206.2"/>
<text text-anchor="start" x="148.3807" y="-213.9" font-family="Helvetica,sans-Serif" font-size="11.00" fill="#000000">timestamp[29,6]</text>
<polygon fill="none" stroke="#000000" points="10.5,-184.2 10.5,-206.2 145.5,-206.2 145.5,-184.2 10.5,-184.2"/>
<text text-anchor="start" x="30.5" y="-191.3" font-family="Helvetica,sans-Serif" font-size="11.00" fill="#000000">confidence</text>
<polygon fill="none" stroke="#000000" points="145.5,-184.2 145.5,-206.2 229.5,-206.2 229.5,-184.2 145.5,-184.2"/>
<text text-anchor="start" x="148.5" y="-191.9" font-family="Helvetica,sans-Serif" font-size="11.00" fill="#000000">int4[10]</text>
<polygon fill="none" stroke="#000000" points="10.5,-162.2 10.5,-184.2 145.5,-184.2 145.5,-162.2 10.5,-162.2"/>
<text text-anchor="start" x="30.5" y="-169.3" font-family="Helvetica,sans-Serif" font-size="11.00" fill="#000000">dr_type</text>
<polygon fill="none" stroke="#000000" points="145.5,-162.2 145.5,-184.2 229.5,-184.2 229.5,-162.2 145.5,-162.2"/>
<text text-anchor="start" x="148.5" y="-169.9" font-family="Helvetica,sans-Serif" font-size="11.00" fill="#000000">int4[10]</text>
<polygon fill="#ffffff" stroke="transparent" points="10.5,-143.2 10.5,-162.2 69.5,-162.2 69.5,-143.2 10.5,-143.2"/>
<polygon fill="none" stroke="#000000" points="10.5,-143.2 10.5,-162.2 69.5,-162.2 69.5,-143.2 10.5,-143.2"/>
<text text-anchor="start" x="13.5" y="-149.3" font-family="Helvetica,sans-Serif" font-size="11.00" fill="#000000">&lt; 0</text>
<polygon fill="#ffffff" stroke="transparent" points="69.5,-143.2 69.5,-162.2 145.5,-162.2 145.5,-143.2 69.5,-143.2"/>
<polygon fill="none" stroke="#000000" points="69.5,-143.2 69.5,-162.2 145.5,-162.2 145.5,-143.2 69.5,-143.2"/>
<text text-anchor="start" x="110.1105" y="-149.3" font-family="Helvetica,sans-Serif" font-size="11.00" fill="#000000">0 rows</text>
<polygon fill="#ffffff" stroke="transparent" points="145.5,-143.2 145.5,-162.2 229.5,-162.2 229.5,-143.2 145.5,-143.2"/>
<polygon fill="none" stroke="#000000" points="145.5,-143.2 145.5,-162.2 229.5,-162.2 229.5,-143.2 145.5,-143.2"/>
<text text-anchor="start" x="210.9053" y="-149.3" font-family="Helvetica,sans-Serif" font-size="11.00" fill="#000000">7 &gt;</text>
<polygon fill="none" stroke="#000000" stroke-width="2" points="9,-142.2 9,-318.2 230,-318.2 230,-142.2 9,-142.2"/>
</a>
</g>
</g>
<!-- dependency_rule_dataset&#45;&gt;dependency_rule -->
<g id="edge2" class="edge">
<title>dependency_rule_dataset:w&#45;&gt;dependency_rule:e</title>
<path fill="none" stroke="#000000" d="M267.0202,-577.7368C225.3956,-537.0769 291.708,-283.2 229.5,-283.2"/>
<polygon fill="#000000" stroke="#000000" points="273.0858,-580.1951 279.1478,-586.5364 276.7929,-581.6975 280.5,-583.2 280.5,-583.2 280.5,-583.2 276.7929,-581.6975 281.8522,-579.8636 273.0858,-580.1951 273.0858,-580.1951"/>
<ellipse fill="none" stroke="#000000" cx="270.1201" cy="-578.9931" rx="3.2" ry="3.2"/>
</g>
<!-- mat_dr -->
<g id="node4" class="node">
<title>mat_dr</title>
<g id="a_node4"><a xlink:href="../../tables/mat_dr.html" xlink:title="mat_dr" target="_top">
<polygon fill="#ffffff" stroke="transparent" points="343,-126.2 343,-190.2 428,-190.2 428,-126.2 343,-126.2"/>
<polygon fill="#f5f5f5" stroke="transparent" points="343.5,-167.2 343.5,-190.2 428.5,-190.2 428.5,-167.2 343.5,-167.2"/>
<polygon fill="none" stroke="#000000" points="343.5,-167.2 343.5,-190.2 428.5,-190.2 428.5,-167.2 343.5,-167.2"/>
<text text-anchor="start" x="348.5" y="-175.8" font-family="Helvetica,sans-Serif" font-weight="bold" font-size="11.00" fill="#000000">mat_dr</text>
<text text-anchor="start" x="394.0219" y="-175.3" font-family="Helvetica,sans-Serif" font-size="11.00" fill="#000000">[table]</text>
<polygon fill="none" stroke="#000000" points="343.5,-145.2 343.5,-167.2 428.5,-167.2 428.5,-145.2 343.5,-145.2"/>
<image xlink:href="../../images/primaryKeys.png" width="11px" height="12px" preserveAspectRatio="xMinYMin meet" x="348.5" y="-162.2"/>
<text text-anchor="start" x="372.5" y="-152.3" font-family="Helvetica,sans-Serif" font-size="11.00" fill="#000000">rule_id</text>
<polygon fill="#ffffff" stroke="transparent" points="343.5,-126.2 343.5,-145.2 366.5,-145.2 366.5,-126.2 343.5,-126.2"/>
<polygon fill="none" stroke="#000000" points="343.5,-126.2 343.5,-145.2 366.5,-145.2 366.5,-126.2 343.5,-126.2"/>
<text text-anchor="start" x="346.5" y="-132.3" font-family="Helvetica,sans-Serif" font-size="11.00" fill="#000000">&lt; 1</text>
<polygon fill="#ffffff" stroke="transparent" points="366.5,-126.2 366.5,-145.2 405.5,-145.2 405.5,-126.2 366.5,-126.2"/>
<polygon fill="none" stroke="#000000" points="366.5,-126.2 366.5,-145.2 405.5,-145.2 405.5,-126.2 366.5,-126.2"/>
<text text-anchor="start" x="370.1105" y="-132.3" font-family="Helvetica,sans-Serif" font-size="11.00" fill="#000000">0 rows</text>
<polygon fill="#ffffff" stroke="transparent" points="405.5,-126.2 405.5,-145.2 428.5,-145.2 428.5,-126.2 405.5,-126.2"/>
<polygon fill="none" stroke="#000000" points="405.5,-126.2 405.5,-145.2 428.5,-145.2 428.5,-126.2 405.5,-126.2"/>
<text text-anchor="start" x="409.9053" y="-132.3" font-family="Helvetica,sans-Serif" font-size="11.00" fill="#000000">1 &gt;</text>
</a>
</g>
</g>
<!-- mat_dr&#45;&gt;dependency_rule -->
<g id="edge3" class="edge">
<title>mat_dr:w&#45;&gt;dependency_rule:e</title>
<path fill="none" stroke="#000000" d="M332.8533,-156.7521C303.869,-159.9823 294.9201,-177.1565 272,-202.2 244.5525,-232.1904 270.1545,-283.2 229.5,-283.2"/>
<polygon fill="#000000" stroke="#000000" points="342.4939,-152.2468 342.9083,-160.2361 341.3104,-160.3189 340.896,-152.3297 342.4939,-152.2468"/>
<polyline fill="none" stroke="#000000" points="343.5,-156.2 339.5054,-156.4072 "/>
<ellipse fill="none" stroke="#000000" cx="336.3097" cy="-156.5729" rx="3.2" ry="3.2"/>
</g>
<!-- mat_mat_dr -->
<g id="node5" class="node">
<title>mat_mat_dr</title>
<g id="a_node5"><a xlink:href="../../tables/mat_mat_dr.html" xlink:title="mat_mat_dr" target="_top">
<polygon fill="#ffffff" stroke="transparent" points="581,-121.7 581,-182.7 699,-182.7 699,-121.7 581,-121.7"/>
<polygon fill="#f5f5f5" stroke="transparent" points="581,-159.2 581,-182.2 699,-182.2 699,-159.2 581,-159.2"/>
<polygon fill="none" stroke="#000000" points="581,-159.2 581,-182.2 699,-182.2 699,-159.2 581,-159.2"/>
<text text-anchor="start" x="586" y="-167.8" font-family="Helvetica,sans-Serif" font-weight="bold" font-size="11.00" fill="#000000">mat_mat_dr</text>
<text text-anchor="start" x="664.5219" y="-167.3" font-family="Helvetica,sans-Serif" font-size="11.00" fill="#000000">[table]</text>
<polygon fill="none" stroke="#000000" points="581,-140.2 581,-159.2 699,-159.2 699,-140.2 581,-140.2"/>
<text text-anchor="start" x="584" y="-146.3" font-family="Helvetica,sans-Serif" font-size="11.00" fill="#000000">...</text>
<polygon fill="#ffffff" stroke="transparent" points="581,-121.2 581,-140.2 625,-140.2 625,-121.2 581,-121.2"/>
<polygon fill="none" stroke="#000000" points="581,-121.2 581,-140.2 625,-140.2 625,-121.2 581,-121.2"/>
<text text-anchor="start" x="584" y="-127.3" font-family="Helvetica,sans-Serif" font-size="11.00" fill="#000000">&lt; 2</text>
<polygon fill="#ffffff" stroke="transparent" points="625,-121.2 625,-140.2 675,-140.2 675,-121.2 625,-121.2"/>
<polygon fill="none" stroke="#000000" points="625,-121.2 625,-140.2 675,-140.2 675,-121.2 625,-121.2"/>
<text text-anchor="start" x="639.6105" y="-127.3" font-family="Helvetica,sans-Serif" font-size="11.00" fill="#000000">0 rows</text>
<polygon fill="#ffffff" stroke="transparent" points="675,-121.2 675,-140.2 699,-140.2 699,-121.2 675,-121.2"/>
<polygon fill="none" stroke="#000000" points="675,-121.2 675,-140.2 699,-140.2 699,-121.2 675,-121.2"/>
<text text-anchor="start" x="689.8862" y="-127.3" font-family="Helvetica,sans-Serif" font-size="11.00" fill="#000000"> &#160;</text>
</a>
</g>
</g>
<!-- mat_mat_dr&#45;&gt;mat_dr -->
<g id="edge4" class="edge">
<title>mat_mat_dr:w&#45;&gt;mat_dr:e</title>
<path fill="none" stroke="#000000" d="M566.3388,-149.3157C510.295,-150.2258 491.1809,-156.2 428.5,-156.2"/>
<polygon fill="#000000" stroke="#000000" points="573.0002,-149.2632 581.0284,-152.7999 577.0001,-149.2316 581,-149.2 581,-149.2 581,-149.2 577.0001,-149.2316 580.9716,-145.6001 573.0002,-149.2632 573.0002,-149.2632"/>
<ellipse fill="none" stroke="#000000" cx="569.8003" cy="-149.2884" rx="3.2" ry="3.2"/>
</g>
<!-- mo_dr -->
<g id="node6" class="node">
<title>mo_dr</title>
<g id="a_node6"><a xlink:href="../../tables/mo_dr.html" xlink:title="mo_dr" target="_top">
<polygon fill="#ffffff" stroke="transparent" points="345.5,-38.2 345.5,-102.2 425.5,-102.2 425.5,-38.2 345.5,-38.2"/>
<polygon fill="#f5f5f5" stroke="transparent" points="345.5,-79.2 345.5,-102.2 425.5,-102.2 425.5,-79.2 345.5,-79.2"/>
<polygon fill="none" stroke="#000000" points="345.5,-79.2 345.5,-102.2 425.5,-102.2 425.5,-79.2 345.5,-79.2"/>
<text text-anchor="start" x="350.5" y="-87.8" font-family="Helvetica,sans-Serif" font-weight="bold" font-size="11.00" fill="#000000">mo_dr</text>
<text text-anchor="start" x="391.0219" y="-87.3" font-family="Helvetica,sans-Serif" font-size="11.00" fill="#000000">[table]</text>
<polygon fill="none" stroke="#000000" points="345.5,-57.2 345.5,-79.2 425.5,-79.2 425.5,-57.2 345.5,-57.2"/>
<image xlink:href="../../images/primaryKeys.png" width="11px" height="12px" preserveAspectRatio="xMinYMin meet" x="350.5" y="-74.2"/>
<text text-anchor="start" x="372.5" y="-64.3" font-family="Helvetica,sans-Serif" font-size="11.00" fill="#000000">rule_id</text>
<polygon fill="#ffffff" stroke="transparent" points="345.5,-38.2 345.5,-57.2 366.5,-57.2 366.5,-38.2 345.5,-38.2"/>
<polygon fill="none" stroke="#000000" points="345.5,-38.2 345.5,-57.2 366.5,-57.2 366.5,-38.2 345.5,-38.2"/>
<text text-anchor="start" x="348.2027" y="-44.3" font-family="Helvetica,sans-Serif" font-size="11.00" fill="#000000">&lt; 1</text>
<polygon fill="#ffffff" stroke="transparent" points="366.5,-38.2 366.5,-57.2 404.5,-57.2 404.5,-38.2 366.5,-38.2"/>
<polygon fill="none" stroke="#000000" points="366.5,-38.2 366.5,-57.2 404.5,-57.2 404.5,-38.2 366.5,-38.2"/>
<text text-anchor="start" x="369.3053" y="-44.3" font-family="Helvetica,sans-Serif" font-size="11.00" fill="#000000">0 rows</text>
<polygon fill="#ffffff" stroke="transparent" points="404.5,-38.2 404.5,-57.2 425.5,-57.2 425.5,-38.2 404.5,-38.2"/>
<polygon fill="none" stroke="#000000" points="404.5,-38.2 404.5,-57.2 425.5,-57.2 425.5,-38.2 404.5,-38.2"/>
<text text-anchor="start" x="407.2027" y="-44.3" font-family="Helvetica,sans-Serif" font-size="11.00" fill="#000000">1 &gt;</text>
</a>
</g>
</g>
<!-- mo_dr&#45;&gt;dependency_rule -->
<g id="edge5" class="edge">
<title>mo_dr:w&#45;&gt;dependency_rule:e</title>
<path fill="none" stroke="#000000" d="M334.8703,-68.6453C304.2717,-71.389 292.4663,-86.8225 272,-115.2 226.9475,-177.6674 306.5188,-283.2 229.5,-283.2"/>
<polygon fill="#000000" stroke="#000000" points="344.5333,-64.237 344.8681,-72.23 343.2695,-72.297 342.9347,-64.304 344.5333,-64.237"/>
<polyline fill="none" stroke="#000000" points="345.5,-68.2 341.5035,-68.3674 "/>
<ellipse fill="none" stroke="#000000" cx="338.3063" cy="-68.5014" rx="3.2" ry="3.2"/>
</g>
<!-- mo_relationship_mor_dr -->
<g id="node7" class="node">
<title>mo_relationship_mor_dr</title>
<g id="a_node7"><a xlink:href="../../tables/mo_relationship_mor_dr.html" xlink:title="mo_relationship_mor_dr" target="_top">
<polygon fill="#ffffff" stroke="transparent" points="540,-449.7 540,-510.7 740,-510.7 740,-449.7 540,-449.7"/>
<polygon fill="#f5f5f5" stroke="transparent" points="540,-487.2 540,-510.2 740,-510.2 740,-487.2 540,-487.2"/>
<polygon fill="none" stroke="#000000" points="540,-487.2 540,-510.2 740,-510.2 740,-487.2 540,-487.2"/>
<text text-anchor="start" x="545" y="-495.8" font-family="Helvetica,sans-Serif" font-weight="bold" font-size="11.00" fill="#000000">mo_relationship_mor_dr</text>
<text text-anchor="start" x="705.5219" y="-495.3" font-family="Helvetica,sans-Serif" font-size="11.00" fill="#000000">[table]</text>
<polygon fill="none" stroke="#000000" points="540,-468.2 540,-487.2 740,-487.2 740,-468.2 540,-468.2"/>
<text text-anchor="start" x="543" y="-474.3" font-family="Helvetica,sans-Serif" font-size="11.00" fill="#000000">...</text>
<polygon fill="#ffffff" stroke="transparent" points="540,-449.2 540,-468.2 625,-468.2 625,-449.2 540,-449.2"/>
<polygon fill="none" stroke="#000000" points="540,-449.2 540,-468.2 625,-468.2 625,-449.2 540,-449.2"/>
<text text-anchor="start" x="543" y="-455.3" font-family="Helvetica,sans-Serif" font-size="11.00" fill="#000000">&lt; 2</text>
<polygon fill="#ffffff" stroke="transparent" points="625,-449.2 625,-468.2 695,-468.2 695,-449.2 625,-449.2"/>
<polygon fill="none" stroke="#000000" points="625,-449.2 625,-468.2 695,-468.2 695,-449.2 625,-449.2"/>
<text text-anchor="start" x="659.6105" y="-455.3" font-family="Helvetica,sans-Serif" font-size="11.00" fill="#000000">0 rows</text>
<polygon fill="#ffffff" stroke="transparent" points="695,-449.2 695,-468.2 740,-468.2 740,-449.2 695,-449.2"/>
<polygon fill="none" stroke="#000000" points="695,-449.2 695,-468.2 740,-468.2 740,-449.2 695,-449.2"/>
<text text-anchor="start" x="730.8862" y="-455.3" font-family="Helvetica,sans-Serif" font-size="11.00" fill="#000000"> &#160;</text>
</a>
</g>
</g>
<!-- mor_dr -->
<g id="node8" class="node">
<title>mor_dr</title>
<g id="a_node8"><a xlink:href="../../tables/mor_dr.html" xlink:title="mor_dr" target="_top">
<polygon fill="#ffffff" stroke="transparent" points="342.5,-446.2 342.5,-510.2 428.5,-510.2 428.5,-446.2 342.5,-446.2"/>
<polygon fill="#f5f5f5" stroke="transparent" points="342.5,-487.2 342.5,-510.2 428.5,-510.2 428.5,-487.2 342.5,-487.2"/>
<polygon fill="none" stroke="#000000" points="342.5,-487.2 342.5,-510.2 428.5,-510.2 428.5,-487.2 342.5,-487.2"/>
<text text-anchor="start" x="347.5" y="-495.8" font-family="Helvetica,sans-Serif" font-weight="bold" font-size="11.00" fill="#000000">mor_dr</text>
<text text-anchor="start" x="394.0219" y="-495.3" font-family="Helvetica,sans-Serif" font-size="11.00" fill="#000000">[table]</text>
<polygon fill="none" stroke="#000000" points="342.5,-465.2 342.5,-487.2 428.5,-487.2 428.5,-465.2 342.5,-465.2"/>
<image xlink:href="../../images/primaryKeys.png" width="11px" height="12px" preserveAspectRatio="xMinYMin meet" x="347.5" y="-482.2"/>
<text text-anchor="start" x="371.5" y="-472.3" font-family="Helvetica,sans-Serif" font-size="11.00" fill="#000000">rule_id</text>
<polygon fill="#ffffff" stroke="transparent" points="342.5,-446.2 342.5,-465.2 366.5,-465.2 366.5,-446.2 342.5,-446.2"/>
<polygon fill="none" stroke="#000000" points="342.5,-446.2 342.5,-465.2 366.5,-465.2 366.5,-446.2 342.5,-446.2"/>
<text text-anchor="start" x="345.5" y="-452.3" font-family="Helvetica,sans-Serif" font-size="11.00" fill="#000000">&lt; 1</text>
<polygon fill="#ffffff" stroke="transparent" points="366.5,-446.2 366.5,-465.2 405.5,-465.2 405.5,-446.2 366.5,-446.2"/>
<polygon fill="none" stroke="#000000" points="366.5,-446.2 366.5,-465.2 405.5,-465.2 405.5,-446.2 366.5,-446.2"/>
<text text-anchor="start" x="370.1105" y="-452.3" font-family="Helvetica,sans-Serif" font-size="11.00" fill="#000000">0 rows</text>
<polygon fill="#ffffff" stroke="transparent" points="405.5,-446.2 405.5,-465.2 428.5,-465.2 428.5,-446.2 405.5,-446.2"/>
<polygon fill="none" stroke="#000000" points="405.5,-446.2 405.5,-465.2 428.5,-465.2 428.5,-446.2 405.5,-446.2"/>
<text text-anchor="start" x="409.9053" y="-452.3" font-family="Helvetica,sans-Serif" font-size="11.00" fill="#000000">1 &gt;</text>
</a>
</g>
</g>
<!-- mo_relationship_mor_dr&#45;&gt;mor_dr -->
<g id="edge6" class="edge">
<title>mo_relationship_mor_dr:w&#45;&gt;mor_dr:e</title>
<path fill="none" stroke="#000000" d="M525.4729,-477.169C487.4165,-477.0002 472.8308,-476.2 428.5,-476.2"/>
<polygon fill="#000000" stroke="#000000" points="532,-477.1829 539.9923,-480.8 536,-477.1914 540,-477.2 540,-477.2 540,-477.2 536,-477.1914 540.0077,-473.6 532,-477.1829 532,-477.1829"/>
<ellipse fill="none" stroke="#000000" cx="528.8" cy="-477.176" rx="3.2" ry="3.2"/>
</g>
<!-- mor_dr&#45;&gt;dependency_rule -->
<g id="edge7" class="edge">
<title>mor_dr:w&#45;&gt;dependency_rule:e</title>
<path fill="none" stroke="#000000" d="M331.8535,-475.8067C303.769,-473.5657 291.8301,-461.6022 272,-436.2 228.5719,-380.5691 300.0747,-283.2 229.5,-283.2"/>
<polygon fill="#000000" stroke="#000000" points="341.8482,-472.1732 341.5528,-480.1677 339.9539,-480.1087 340.2493,-472.1141 341.8482,-472.1732"/>
<polyline fill="none" stroke="#000000" points="342.5,-476.2 338.5027,-476.0523 "/>
<ellipse fill="none" stroke="#000000" cx="335.3049" cy="-475.9341" rx="3.2" ry="3.2"/>
</g>
<!-- moving_object_mo_dr -->
<g id="node9" class="node">
<title>moving_object_mo_dr</title>
<g id="a_node9"><a xlink:href="../../tables/moving_object_mo_dr.html" xlink:title="moving_object_mo_dr" target="_top">
<polygon fill="#ffffff" stroke="transparent" points="548,-39.7 548,-100.7 732,-100.7 732,-39.7 548,-39.7"/>
<polygon fill="#f5f5f5" stroke="transparent" points="548,-77.2 548,-100.2 732,-100.2 732,-77.2 548,-77.2"/>
<polygon fill="none" stroke="#000000" points="548,-77.2 548,-100.2 732,-100.2 732,-77.2 548,-77.2"/>
<text text-anchor="start" x="553" y="-85.8" font-family="Helvetica,sans-Serif" font-weight="bold" font-size="11.00" fill="#000000">moving_object_mo_dr</text>
<text text-anchor="start" x="697.5219" y="-85.3" font-family="Helvetica,sans-Serif" font-size="11.00" fill="#000000">[table]</text>
<polygon fill="none" stroke="#000000" points="548,-58.2 548,-77.2 732,-77.2 732,-58.2 548,-58.2"/>
<text text-anchor="start" x="551" y="-64.3" font-family="Helvetica,sans-Serif" font-size="11.00" fill="#000000">...</text>
<polygon fill="#ffffff" stroke="transparent" points="548,-39.2 548,-58.2 625,-58.2 625,-39.2 548,-39.2"/>
<polygon fill="none" stroke="#000000" points="548,-39.2 548,-58.2 625,-58.2 625,-39.2 548,-39.2"/>
<text text-anchor="start" x="551" y="-45.3" font-family="Helvetica,sans-Serif" font-size="11.00" fill="#000000">&lt; 2</text>
<polygon fill="#ffffff" stroke="transparent" points="625,-39.2 625,-58.2 691,-58.2 691,-39.2 625,-39.2"/>
<polygon fill="none" stroke="#000000" points="625,-39.2 625,-58.2 691,-58.2 691,-39.2 625,-39.2"/>
<text text-anchor="start" x="655.6105" y="-45.3" font-family="Helvetica,sans-Serif" font-size="11.00" fill="#000000">0 rows</text>
<polygon fill="#ffffff" stroke="transparent" points="691,-39.2 691,-58.2 732,-58.2 732,-39.2 691,-39.2"/>
<polygon fill="none" stroke="#000000" points="691,-39.2 691,-58.2 732,-58.2 732,-39.2 691,-39.2"/>
<text text-anchor="start" x="722.8862" y="-45.3" font-family="Helvetica,sans-Serif" font-size="11.00" fill="#000000"> &#160;</text>
</a>
</g>
</g>
<!-- moving_object_mo_dr&#45;&gt;mo_dr -->
<g id="edge8" class="edge">
<title>moving_object_mo_dr:w&#45;&gt;mo_dr:e</title>
<path fill="none" stroke="#000000" d="M533.4185,-67.2257C490.5751,-67.3822 474.7356,-68.2 425.5,-68.2"/>
<polygon fill="#000000" stroke="#000000" points="540,-67.2142 548.0064,-70.8 544,-67.2071 548,-67.2 548,-67.2 548,-67.2 544,-67.2071 547.9936,-63.6 540,-67.2142 540,-67.2142"/>
<ellipse fill="none" stroke="#000000" cx="536.8" cy="-67.2198" rx="3.2" ry="3.2"/>
</g>
<!-- point_dr -->
<g id="node10" class="node">
<title>point_dr</title>
<g id="a_node10"><a xlink:href="../../tables/point_dr.html" xlink:title="point_dr" target="_top">
<polygon fill="#ffffff" stroke="transparent" points="338.5,-361.2 338.5,-425.2 432.5,-425.2 432.5,-361.2 338.5,-361.2"/>
<polygon fill="#f5f5f5" stroke="transparent" points="338.5,-402.2 338.5,-425.2 432.5,-425.2 432.5,-402.2 338.5,-402.2"/>
<polygon fill="none" stroke="#000000" points="338.5,-402.2 338.5,-425.2 432.5,-425.2 432.5,-402.2 338.5,-402.2"/>
<text text-anchor="start" x="343.5" y="-410.8" font-family="Helvetica,sans-Serif" font-weight="bold" font-size="11.00" fill="#000000">point_dr</text>
<text text-anchor="start" x="398.0219" y="-410.3" font-family="Helvetica,sans-Serif" font-size="11.00" fill="#000000">[table]</text>
<polygon fill="none" stroke="#000000" points="338.5,-380.2 338.5,-402.2 432.5,-402.2 432.5,-380.2 338.5,-380.2"/>
<image xlink:href="../../images/primaryKeys.png" width="11px" height="12px" preserveAspectRatio="xMinYMin meet" x="343.5" y="-397.2"/>
<text text-anchor="start" x="367.5" y="-387.3" font-family="Helvetica,sans-Serif" font-size="11.00" fill="#000000">rule_id</text>
<polygon fill="#ffffff" stroke="transparent" points="338.5,-361.2 338.5,-380.2 366.5,-380.2 366.5,-361.2 338.5,-361.2"/>
<polygon fill="none" stroke="#000000" points="338.5,-361.2 338.5,-380.2 366.5,-380.2 366.5,-361.2 338.5,-361.2"/>
<text text-anchor="start" x="341.5" y="-367.3" font-family="Helvetica,sans-Serif" font-size="11.00" fill="#000000">&lt; 1</text>
<polygon fill="#ffffff" stroke="transparent" points="366.5,-361.2 366.5,-380.2 407.5,-380.2 407.5,-361.2 366.5,-361.2"/>
<polygon fill="none" stroke="#000000" points="366.5,-361.2 366.5,-380.2 407.5,-380.2 407.5,-361.2 366.5,-361.2"/>
<text text-anchor="start" x="372.1105" y="-367.3" font-family="Helvetica,sans-Serif" font-size="11.00" fill="#000000">0 rows</text>
<polygon fill="#ffffff" stroke="transparent" points="407.5,-361.2 407.5,-380.2 432.5,-380.2 432.5,-361.2 407.5,-361.2"/>
<polygon fill="none" stroke="#000000" points="407.5,-361.2 407.5,-380.2 432.5,-380.2 432.5,-361.2 407.5,-361.2"/>
<text text-anchor="start" x="413.9053" y="-367.3" font-family="Helvetica,sans-Serif" font-size="11.00" fill="#000000">1 &gt;</text>
</a>
</g>
</g>
<!-- point_dr&#45;&gt;dependency_rule -->
<g id="edge9" class="edge">
<title>point_dr:w&#45;&gt;dependency_rule:e</title>
<path fill="none" stroke="#000000" d="M328.0401,-390.6156C302.0209,-387.4743 294.0058,-371.9262 272,-350.2 246.9061,-325.4249 264.7634,-283.2 229.5,-283.2"/>
<polygon fill="#000000" stroke="#000000" points="337.9244,-387.1616 337.4781,-395.1491 335.8806,-395.0599 336.3269,-387.0723 337.9244,-387.1616"/>
<polyline fill="none" stroke="#000000" points="338.5,-391.2 334.5062,-390.9768 "/>
<ellipse fill="none" stroke="#000000" cx="331.3112" cy="-390.7983" rx="3.2" ry="3.2"/>
</g>
<!-- point_point_dr -->
<g id="node11" class="node">
<title>point_point_dr</title>
<g id="a_node11"><a xlink:href="../../tables/point_point_dr.html" xlink:title="point_point_dr" target="_top">
<polygon fill="#ffffff" stroke="transparent" points="572.5,-367.7 572.5,-428.7 707.5,-428.7 707.5,-367.7 572.5,-367.7"/>
<polygon fill="#f5f5f5" stroke="transparent" points="573,-405.2 573,-428.2 708,-428.2 708,-405.2 573,-405.2"/>
<polygon fill="none" stroke="#000000" points="573,-405.2 573,-428.2 708,-428.2 708,-405.2 573,-405.2"/>
<text text-anchor="start" x="578" y="-413.8" font-family="Helvetica,sans-Serif" font-weight="bold" font-size="11.00" fill="#000000">point_point_dr</text>
<text text-anchor="start" x="673.5219" y="-413.3" font-family="Helvetica,sans-Serif" font-size="11.00" fill="#000000">[table]</text>
<polygon fill="none" stroke="#000000" points="573,-386.2 573,-405.2 708,-405.2 708,-386.2 573,-386.2"/>
<text text-anchor="start" x="576" y="-392.3" font-family="Helvetica,sans-Serif" font-size="11.00" fill="#000000">...</text>
<polygon fill="#ffffff" stroke="transparent" points="573,-367.2 573,-386.2 626,-386.2 626,-367.2 573,-367.2"/>
<polygon fill="none" stroke="#000000" points="573,-367.2 573,-386.2 626,-386.2 626,-367.2 573,-367.2"/>
<text text-anchor="start" x="576" y="-373.3" font-family="Helvetica,sans-Serif" font-size="11.00" fill="#000000">&lt; 2</text>
<polygon fill="#ffffff" stroke="transparent" points="626,-367.2 626,-386.2 680,-386.2 680,-367.2 626,-367.2"/>
<polygon fill="none" stroke="#000000" points="626,-367.2 626,-386.2 680,-386.2 680,-367.2 626,-367.2"/>
<text text-anchor="start" x="644.6105" y="-373.3" font-family="Helvetica,sans-Serif" font-size="11.00" fill="#000000">0 rows</text>
<polygon fill="#ffffff" stroke="transparent" points="680,-367.2 680,-386.2 708,-386.2 708,-367.2 680,-367.2"/>
<polygon fill="none" stroke="#000000" points="680,-367.2 680,-386.2 708,-386.2 708,-367.2 680,-367.2"/>
<text text-anchor="start" x="698.8862" y="-373.3" font-family="Helvetica,sans-Serif" font-size="11.00" fill="#000000"> &#160;</text>
</a>
</g>
</g>
<!-- point_point_dr&#45;&gt;point_dr -->
<g id="edge10" class="edge">
<title>point_point_dr:w&#45;&gt;point_dr:e</title>
<path fill="none" stroke="#000000" d="M558.5218,-395.1237C507.6617,-394.5707 489.8453,-391.2 432.5,-391.2"/>
<polygon fill="#000000" stroke="#000000" points="565.0001,-395.1578 572.981,-398.7999 569.0001,-395.1789 573,-395.2 573,-395.2 573,-395.2 569.0001,-395.1789 573.019,-391.6001 565.0001,-395.1578 565.0001,-395.1578"/>
<ellipse fill="none" stroke="#000000" cx="561.8002" cy="-395.1409" rx="3.2" ry="3.2"/>
</g>
<!-- predicate -->
<g id="node12" class="node">
<title>predicate</title>
<g id="a_node12"><a xlink:href="../../tables/predicate.html" xlink:title="predicate" target="_top">
<polygon fill="#ffffff" stroke="transparent" points="306.5,-212.7 306.5,-339.7 464.5,-339.7 464.5,-212.7 306.5,-212.7"/>
<polygon fill="#f5f5f5" stroke="transparent" points="306.5,-316.2 306.5,-339.2 464.5,-339.2 464.5,-316.2 306.5,-316.2"/>
<polygon fill="none" stroke="#000000" points="306.5,-316.2 306.5,-339.2 464.5,-339.2 464.5,-316.2 306.5,-316.2"/>
<text text-anchor="start" x="311.5" y="-324.8" font-family="Helvetica,sans-Serif" font-weight="bold" font-size="11.00" fill="#000000">predicate</text>
<text text-anchor="start" x="429.5437" y="-324.3" font-family="Helvetica,sans-Serif" font-size="11.00" fill="#000000">[table]</text>
<polygon fill="none" stroke="#000000" points="306.5,-294.2 306.5,-316.2 464.5,-316.2 464.5,-294.2 306.5,-294.2"/>
<image xlink:href="../../images/primaryKeys.png" width="11px" height="12px" preserveAspectRatio="xMinYMin meet" x="311.5" y="-311.2"/>
<text text-anchor="start" x="326.5" y="-301.3" font-family="Helvetica,sans-Serif" font-size="11.00" fill="#000000">predicate_id</text>
<polygon fill="#ffffff" stroke="transparent" points="306.5,-272.2 306.5,-294.2 464.5,-294.2 464.5,-272.2 306.5,-272.2"/>
<polygon fill="none" stroke="#000000" points="306.5,-272.2 306.5,-294.2 464.5,-294.2 464.5,-272.2 306.5,-272.2"/>
<image xlink:href="../../images/foreignKeys.png" width="11px" height="12px" preserveAspectRatio="xMinYMin meet" x="311.5" y="-289.2"/>
<text text-anchor="start" x="326.5" y="-279.3" font-family="Helvetica,sans-Serif" font-size="11.00" fill="#000000">determined</text>
<polygon fill="#ffffff" stroke="transparent" points="306.5,-250.2 306.5,-272.2 464.5,-272.2 464.5,-250.2 306.5,-250.2"/>
<polygon fill="none" stroke="#000000" points="306.5,-250.2 306.5,-272.2 464.5,-272.2 464.5,-250.2 306.5,-250.2"/>
<image xlink:href="../../images/foreignKeys.png" width="11px" height="12px" preserveAspectRatio="xMinYMin meet" x="311.5" y="-267.2"/>
<text text-anchor="start" x="326.5" y="-257.3" font-family="Helvetica,sans-Serif" font-size="11.00" fill="#000000">determinant</text>
<polygon fill="none" stroke="#000000" points="306.5,-231.2 306.5,-250.2 464.5,-250.2 464.5,-231.2 306.5,-231.2"/>
<text text-anchor="start" x="309.5" y="-237.3" font-family="Helvetica,sans-Serif" font-size="11.00" fill="#000000">...</text>
<polygon fill="#ffffff" stroke="transparent" points="306.5,-212.2 306.5,-231.2 366.5,-231.2 366.5,-212.2 306.5,-212.2"/>
<polygon fill="none" stroke="#000000" points="306.5,-212.2 306.5,-231.2 366.5,-231.2 366.5,-212.2 306.5,-212.2"/>
<text text-anchor="start" x="309.5" y="-218.3" font-family="Helvetica,sans-Serif" font-size="11.00" fill="#000000">&lt; 2</text>
<polygon fill="#ffffff" stroke="transparent" points="366.5,-212.2 366.5,-231.2 423.5,-231.2 423.5,-212.2 366.5,-212.2"/>
<polygon fill="none" stroke="#000000" points="366.5,-212.2 366.5,-231.2 423.5,-231.2 423.5,-212.2 366.5,-212.2"/>
<text text-anchor="start" x="388.1105" y="-218.3" font-family="Helvetica,sans-Serif" font-size="11.00" fill="#000000">0 rows</text>
<polygon fill="#ffffff" stroke="transparent" points="423.5,-212.2 423.5,-231.2 464.5,-231.2 464.5,-212.2 423.5,-212.2"/>
<polygon fill="none" stroke="#000000" points="423.5,-212.2 423.5,-231.2 464.5,-231.2 464.5,-212.2 423.5,-212.2"/>
<text text-anchor="start" x="445.9053" y="-218.3" font-family="Helvetica,sans-Serif" font-size="11.00" fill="#000000">2 &gt;</text>
</a>
</g>
</g>
<!-- predicate&#45;&gt;dependency_rule -->
<g id="edge11" class="edge">
<title>predicate:w&#45;&gt;dependency_rule:e</title>
<path fill="none" stroke="#000000" d="M292.0961,-262.5762C268.445,-267.3925 259.6695,-283.2 229.5,-283.2"/>
<polygon fill="#000000" stroke="#000000" points="298.5363,-261.9609 306.8424,-264.7837 302.5181,-261.5805 306.5,-261.2 306.5,-261.2 306.5,-261.2 302.5181,-261.5805 306.1576,-257.6163 298.5363,-261.9609 298.5363,-261.9609"/>
<ellipse fill="none" stroke="#000000" cx="295.3508" cy="-262.2653" rx="3.2" ry="3.2"/>
</g>
<!-- predicate&#45;&gt;dependency_rule -->
<g id="edge12" class="edge">
<title>predicate:w&#45;&gt;dependency_rule:e</title>
<path fill="none" stroke="#000000" d="M291.8215,-283.2C268.879,-283.2 258.2413,-283.2 229.5,-283.2"/>
<polygon fill="#000000" stroke="#000000" points="298.5,-283.2001 306.5,-286.8 302.5,-283.2 306.5,-283.2 306.5,-283.2 306.5,-283.2 302.5,-283.2 306.5,-279.6 298.5,-283.2001 298.5,-283.2001"/>
<ellipse fill="none" stroke="#000000" cx="295.3" cy="-283.2001" rx="3.2" ry="3.2"/>
</g>
<!-- predicate_aspect -->
<g id="node13" class="node">
<title>predicate_aspect</title>
<g id="a_node13"><a xlink:href="../../tables/predicate_aspect.html" xlink:title="predicate_aspect" target="_top">
<polygon fill="#ffffff" stroke="transparent" points="563,-285.7 563,-346.7 717,-346.7 717,-285.7 563,-285.7"/>
<polygon fill="#f5f5f5" stroke="transparent" points="563,-323.2 563,-346.2 717,-346.2 717,-323.2 563,-323.2"/>
<polygon fill="none" stroke="#000000" points="563,-323.2 563,-346.2 717,-346.2 717,-323.2 563,-323.2"/>
<text text-anchor="start" x="568" y="-331.8" font-family="Helvetica,sans-Serif" font-weight="bold" font-size="11.00" fill="#000000">predicate_aspect</text>
<text text-anchor="start" x="682.5219" y="-331.3" font-family="Helvetica,sans-Serif" font-size="11.00" fill="#000000">[table]</text>
<polygon fill="none" stroke="#000000" points="563,-304.2 563,-323.2 717,-323.2 717,-304.2 563,-304.2"/>
<text text-anchor="start" x="566" y="-310.3" font-family="Helvetica,sans-Serif" font-size="11.00" fill="#000000">...</text>
<polygon fill="#ffffff" stroke="transparent" points="563,-285.2 563,-304.2 625,-304.2 625,-285.2 563,-285.2"/>
<polygon fill="none" stroke="#000000" points="563,-285.2 563,-304.2 625,-304.2 625,-285.2 563,-285.2"/>
<text text-anchor="start" x="566" y="-291.3" font-family="Helvetica,sans-Serif" font-size="11.00" fill="#000000">&lt; 2</text>
<polygon fill="#ffffff" stroke="transparent" points="625,-285.2 625,-304.2 684,-304.2 684,-285.2 625,-285.2"/>
<polygon fill="none" stroke="#000000" points="625,-285.2 625,-304.2 684,-304.2 684,-285.2 625,-285.2"/>
<text text-anchor="start" x="648.6105" y="-291.3" font-family="Helvetica,sans-Serif" font-size="11.00" fill="#000000">0 rows</text>
<polygon fill="#ffffff" stroke="transparent" points="684,-285.2 684,-304.2 717,-304.2 717,-285.2 684,-285.2"/>
<polygon fill="none" stroke="#000000" points="684,-285.2 684,-304.2 717,-304.2 717,-285.2 684,-285.2"/>
<text text-anchor="start" x="707.8862" y="-291.3" font-family="Helvetica,sans-Serif" font-size="11.00" fill="#000000"> &#160;</text>
</a>
</g>
</g>
<!-- predicate_aspect&#45;&gt;predicate -->
<g id="edge13" class="edge">
<title>predicate_aspect:w&#45;&gt;predicate:e</title>
<path fill="none" stroke="#000000" d="M548.3892,-312.8765C516.0095,-311.3798 503.1033,-305.2 464.5,-305.2"/>
<polygon fill="#000000" stroke="#000000" points="555.002,-313.0229 562.9203,-316.7991 559.001,-313.1114 563,-313.2 563,-313.2 563,-313.2 559.001,-313.1114 563.0797,-309.6009 555.002,-313.0229 555.002,-313.0229"/>
<ellipse fill="none" stroke="#000000" cx="551.8027" cy="-312.952" rx="3.2" ry="3.2"/>
</g>
<!-- predicate_aspect_type -->
<g id="node14" class="node">
<title>predicate_aspect_type</title>
<g id="a_node14"><a xlink:href="../../tables/predicate_aspect_type.html" xlink:title="predicate_aspect_type" target="_top">
<polygon fill="#ffffff" stroke="transparent" points="545,-203.7 545,-264.7 735,-264.7 735,-203.7 545,-203.7"/>
<polygon fill="#f5f5f5" stroke="transparent" points="545,-241.2 545,-264.2 735,-264.2 735,-241.2 545,-241.2"/>
<polygon fill="none" stroke="#000000" points="545,-241.2 545,-264.2 735,-264.2 735,-241.2 545,-241.2"/>
<text text-anchor="start" x="550" y="-249.8" font-family="Helvetica,sans-Serif" font-weight="bold" font-size="11.00" fill="#000000">predicate_aspect_type</text>
<text text-anchor="start" x="700.5219" y="-249.3" font-family="Helvetica,sans-Serif" font-size="11.00" fill="#000000">[table]</text>
<polygon fill="none" stroke="#000000" points="545,-222.2 545,-241.2 735,-241.2 735,-222.2 545,-222.2"/>
<text text-anchor="start" x="548" y="-228.3" font-family="Helvetica,sans-Serif" font-size="11.00" fill="#000000">...</text>
<polygon fill="#ffffff" stroke="transparent" points="545,-203.2 545,-222.2 625,-222.2 625,-203.2 545,-203.2"/>
<polygon fill="none" stroke="#000000" points="545,-203.2 545,-222.2 625,-222.2 625,-203.2 545,-203.2"/>
<text text-anchor="start" x="548" y="-209.3" font-family="Helvetica,sans-Serif" font-size="11.00" fill="#000000">&lt; 2</text>
<polygon fill="#ffffff" stroke="transparent" points="625,-203.2 625,-222.2 693,-222.2 693,-203.2 625,-203.2"/>
<polygon fill="none" stroke="#000000" points="625,-203.2 625,-222.2 693,-222.2 693,-203.2 625,-203.2"/>
<text text-anchor="start" x="657.6105" y="-209.3" font-family="Helvetica,sans-Serif" font-size="11.00" fill="#000000">0 rows</text>
<polygon fill="#ffffff" stroke="transparent" points="693,-203.2 693,-222.2 735,-222.2 735,-203.2 693,-203.2"/>
<polygon fill="none" stroke="#000000" points="693,-203.2 693,-222.2 735,-222.2 735,-203.2 693,-203.2"/>
<text text-anchor="start" x="725.8862" y="-209.3" font-family="Helvetica,sans-Serif" font-size="11.00" fill="#000000"> &#160;</text>
</a>
</g>
</g>
<!-- predicate_aspect_type&#45;&gt;predicate -->
<g id="edge14" class="edge">
<title>predicate_aspect_type:w&#45;&gt;predicate:e</title>
<path fill="none" stroke="#000000" d="M530.8082,-233.8337C499.347,-247.016 507.5924,-305.2 464.5,-305.2"/>
<polygon fill="#000000" stroke="#000000" points="537.1343,-232.6598 545.6569,-234.7396 541.0671,-231.9299 545,-231.2 545,-231.2 545,-231.2 541.0671,-231.9299 544.3431,-227.6604 537.1343,-232.6598 537.1343,-232.6598"/>
<ellipse fill="none" stroke="#000000" cx="533.988" cy="-233.2437" rx="3.2" ry="3.2"/>
</g>
</g>
</svg>
