<?xml version="1.0" encoding="UTF-8" standalone="no"?>
<!DOCTYPE svg PUBLIC "-//W3C//DTD SVG 1.1//EN"
 "http://www.w3.org/Graphics/SVG/1.1/DTD/svg11.dtd">
<!-- Generated by graphviz version 2.40.1 (20161225.0304)
 -->
<!-- Title: twoDegreesRelationshipsDiagram Pages: 1 -->
<svg width="465pt" height="551pt"
 viewBox="0.00 0.00 465.00 550.70" xmlns="http://www.w3.org/2000/svg" xmlns:xlink="http://www.w3.org/1999/xlink">
<g id="graph0" class="graph" transform="scale(1 1) rotate(0) translate(4 546.7)">
<title>twoDegreesRelationshipsDiagram</title>
<polygon fill="#ffffff" stroke="transparent" points="-4,4 -4,-546.7 461,-546.7 461,4 -4,4"/>
<text text-anchor="middle" x="72.4936" y="-7.3" font-family="Helvetica,sans-Serif" font-size="11.00" fill="#000000">Generated by SchemaSpy</text>
<!-- dependency_rule_dataset -->
<g id="node1" class="node">
<title>dependency_rule_dataset</title>
<g id="a_node1"><a xlink:href="../../tables/dependency_rule_dataset.html" xlink:title="dependency_rule_dataset" target="_top">
<polygon fill="#ffffff" stroke="transparent" points="210,-448.7 210,-538.7 449,-538.7 449,-448.7 210,-448.7"/>
<polygon fill="#f5f5f5" stroke="transparent" points="212.5,-513.7 212.5,-536.7 447.5,-536.7 447.5,-513.7 212.5,-513.7"/>
<polygon fill="none" stroke="#000000" points="212.5,-513.7 212.5,-536.7 447.5,-536.7 447.5,-513.7 212.5,-513.7"/>
<text text-anchor="start" x="217.5" y="-522.3" font-family="Helvetica,sans-Serif" font-weight="bold" font-size="11.00" fill="#000000">dependency_rule_dataset</text>
<text text-anchor="start" x="412.5437" y="-521.8" font-family="Helvetica,sans-Serif" font-size="11.00" fill="#000000">[table]</text>
<polygon fill="none" stroke="#000000" points="212.5,-491.7 212.5,-513.7 405.5,-513.7 405.5,-491.7 212.5,-491.7"/>
<image xlink:href="../../images/primaryKeys.png" width="11px" height="12px" preserveAspectRatio="xMinYMin meet" x="217.5" y="-508.7"/>
<text text-anchor="start" x="232.5" y="-498.8" font-family="Helvetica,sans-Serif" font-size="11.00" fill="#000000">rule_id</text>
<polygon fill="none" stroke="#000000" points="405.5,-491.7 405.5,-513.7 447.5,-513.7 447.5,-491.7 405.5,-491.7"/>
<text text-anchor="start" x="408.4644" y="-499.4" font-family="Helvetica,sans-Serif" font-size="11.00" fill="#000000">int4[10]</text>
<polygon fill="none" stroke="#000000" points="212.5,-469.7 212.5,-491.7 405.5,-491.7 405.5,-469.7 212.5,-469.7"/>
<image xlink:href="../../images/primaryKeys.png" width="11px" height="12px" preserveAspectRatio="xMinYMin meet" x="217.5" y="-486.7"/>
<text text-anchor="start" x="232.5" y="-476.8" font-family="Helvetica,sans-Serif" font-size="11.00" fill="#000000">dataset_id</text>
<polygon fill="none" stroke="#000000" points="405.5,-469.7 405.5,-491.7 447.5,-491.7 447.5,-469.7 405.5,-469.7"/>
<text text-anchor="start" x="408.4644" y="-477.4" font-family="Helvetica,sans-Serif" font-size="11.00" fill="#000000">int4[10]</text>
<polygon fill="#ffffff" stroke="transparent" points="212.5,-450.7 212.5,-469.7 300.5,-469.7 300.5,-450.7 212.5,-450.7"/>
<polygon fill="none" stroke="#000000" points="212.5,-450.7 212.5,-469.7 300.5,-469.7 300.5,-450.7 212.5,-450.7"/>
<text text-anchor="start" x="215.5" y="-456.8" font-family="Helvetica,sans-Serif" font-size="11.00" fill="#000000">&lt; 2</text>
<polygon fill="#ffffff" stroke="transparent" points="300.5,-450.7 300.5,-469.7 405.5,-469.7 405.5,-450.7 300.5,-450.7"/>
<polygon fill="none" stroke="#000000" points="300.5,-450.7 300.5,-469.7 405.5,-469.7 405.5,-450.7 300.5,-450.7"/>
<text text-anchor="start" x="370.1105" y="-456.8" font-family="Helvetica,sans-Serif" font-size="11.00" fill="#000000">0 rows</text>
<polygon fill="#ffffff" stroke="transparent" points="405.5,-450.7 405.5,-469.7 447.5,-469.7 447.5,-450.7 405.5,-450.7"/>
<polygon fill="none" stroke="#000000" points="405.5,-450.7 405.5,-469.7 447.5,-469.7 447.5,-450.7 405.5,-450.7"/>
<text text-anchor="start" x="428.9053" y="-456.8" font-family="Helvetica,sans-Serif" font-size="11.00" fill="#000000">0 &gt;</text>
<polygon fill="none" stroke="#000000" stroke-width="2" points="211,-449.7 211,-537.7 448,-537.7 448,-449.7 211,-449.7"/>
</a>
</g>
</g>
<!-- dataset -->
<g id="node2" class="node">
<title>dataset</title>
<g id="a_node2"><a xlink:href="../../tables/dataset.html" xlink:title="dataset" target="_top">
<polygon fill="#ffffff" stroke="transparent" points="36,-432.2 36,-515.2 133,-515.2 133,-432.2 36,-432.2"/>
<polygon fill="#f5f5f5" stroke="transparent" points="36.5,-491.7 36.5,-514.7 133.5,-514.7 133.5,-491.7 36.5,-491.7"/>
<polygon fill="none" stroke="#000000" points="36.5,-491.7 36.5,-514.7 133.5,-514.7 133.5,-491.7 36.5,-491.7"/>
<text text-anchor="start" x="41.5" y="-500.3" font-family="Helvetica,sans-Serif" font-weight="bold" font-size="11.00" fill="#000000">dataset</text>
<text text-anchor="start" x="98.5437" y="-499.8" font-family="Helvetica,sans-Serif" font-size="11.00" fill="#000000">[table]</text>
<polygon fill="none" stroke="#000000" points="36.5,-469.7 36.5,-491.7 133.5,-491.7 133.5,-469.7 36.5,-469.7"/>
<image xlink:href="../../images/primaryKeys.png" width="11px" height="12px" preserveAspectRatio="xMinYMin meet" x="41.5" y="-486.7"/>
<text text-anchor="start" x="56.5" y="-476.8" font-family="Helvetica,sans-Serif" font-size="11.00" fill="#000000">dataset_id</text>
<polygon fill="none" stroke="#000000" points="36.5,-450.7 36.5,-469.7 133.5,-469.7 133.5,-450.7 36.5,-450.7"/>
<text text-anchor="start" x="39.5" y="-456.8" font-family="Helvetica,sans-Serif" font-size="11.00" fill="#000000">...</text>
<polygon fill="#ffffff" stroke="transparent" points="36.5,-431.7 36.5,-450.7 61.5,-450.7 61.5,-431.7 36.5,-431.7"/>
<polygon fill="none" stroke="#000000" points="36.5,-431.7 36.5,-450.7 61.5,-450.7 61.5,-431.7 36.5,-431.7"/>
<text text-anchor="start" x="39.5" y="-437.8" font-family="Helvetica,sans-Serif" font-size="11.00" fill="#000000"> &#160;</text>
<polygon fill="#ffffff" stroke="transparent" points="61.5,-431.7 61.5,-450.7 105.5,-450.7 105.5,-431.7 61.5,-431.7"/>
<polygon fill="none" stroke="#000000" points="61.5,-431.7 61.5,-450.7 105.5,-450.7 105.5,-431.7 61.5,-431.7"/>
<text text-anchor="start" x="70.1105" y="-437.8" font-family="Helvetica,sans-Serif" font-size="11.00" fill="#000000">0 rows</text>
<polygon fill="#ffffff" stroke="transparent" points="105.5,-431.7 105.5,-450.7 133.5,-450.7 133.5,-431.7 105.5,-431.7"/>
<polygon fill="none" stroke="#000000" points="105.5,-431.7 105.5,-450.7 133.5,-450.7 133.5,-431.7 105.5,-431.7"/>
<text text-anchor="start" x="114.9053" y="-437.8" font-family="Helvetica,sans-Serif" font-size="11.00" fill="#000000">1 &gt;</text>
</a>
</g>
</g>
<!-- dependency_rule_dataset&#45;&gt;dataset -->
<g id="edge1" class="edge">
<title>dependency_rule_dataset:w&#45;&gt;dataset:e</title>
<path fill="none" stroke="#000000" d="M197.7695,-480.7C174.0029,-480.7 163.125,-480.7 133.5,-480.7"/>
<polygon fill="#000000" stroke="#000000" points="204.5,-480.7001 212.5,-484.3 208.5,-480.7 212.5,-480.7 212.5,-480.7 212.5,-480.7 208.5,-480.7 212.5,-477.1 204.5,-480.7001 204.5,-480.7001"/>
<ellipse fill="none" stroke="#000000" cx="201.3" cy="-480.7001" rx="3.2" ry="3.2"/>
</g>
<!-- dependency_rule -->
<g id="node3" class="node">
<title>dependency_rule</title>
<g id="a_node3"><a xlink:href="../../tables/dependency_rule.html" xlink:title="dependency_rule" target="_top">
<polygon fill="#ffffff" stroke="transparent" points="8,-181.2 8,-264.2 161,-264.2 161,-181.2 8,-181.2"/>
<polygon fill="#f5f5f5" stroke="transparent" points="8.5,-240.7 8.5,-263.7 161.5,-263.7 161.5,-240.7 8.5,-240.7"/>
<polygon fill="none" stroke="#000000" points="8.5,-240.7 8.5,-263.7 161.5,-263.7 161.5,-240.7 8.5,-240.7"/>
<text text-anchor="start" x="13.5" y="-249.3" font-family="Helvetica,sans-Serif" font-weight="bold" font-size="11.00" fill="#000000">dependency_rule</text>
<text text-anchor="start" x="127.0219" y="-248.8" font-family="Helvetica,sans-Serif" font-size="11.00" fill="#000000">[table]</text>
<polygon fill="none" stroke="#000000" points="8.5,-218.7 8.5,-240.7 161.5,-240.7 161.5,-218.7 8.5,-218.7"/>
<image xlink:href="../../images/primaryKeys.png" width="11px" height="12px" preserveAspectRatio="xMinYMin meet" x="13.5" y="-235.7"/>
<text text-anchor="start" x="37.5" y="-225.8" font-family="Helvetica,sans-Serif" font-size="11.00" fill="#000000">rule_id</text>
<polygon fill="none" stroke="#000000" points="8.5,-199.7 8.5,-218.7 161.5,-218.7 161.5,-199.7 8.5,-199.7"/>
<text text-anchor="start" x="11.5" y="-205.8" font-family="Helvetica,sans-Serif" font-size="11.00" fill="#000000">...</text>
<polygon fill="#ffffff" stroke="transparent" points="8.5,-180.7 8.5,-199.7 61.5,-199.7 61.5,-180.7 8.5,-180.7"/>
<polygon fill="none" stroke="#000000" points="8.5,-180.7 8.5,-199.7 61.5,-199.7 61.5,-180.7 8.5,-180.7"/>
<text text-anchor="start" x="11.5" y="-186.8" font-family="Helvetica,sans-Serif" font-size="11.00" fill="#000000"> &#160;</text>
<polygon fill="#ffffff" stroke="transparent" points="61.5,-180.7 61.5,-199.7 119.5,-199.7 119.5,-180.7 61.5,-180.7"/>
<polygon fill="none" stroke="#000000" points="61.5,-180.7 61.5,-199.7 119.5,-199.7 119.5,-180.7 61.5,-180.7"/>
<text text-anchor="start" x="84.1105" y="-186.8" font-family="Helvetica,sans-Serif" font-size="11.00" fill="#000000">0 rows</text>
<polygon fill="#ffffff" stroke="transparent" points="119.5,-180.7 119.5,-199.7 161.5,-199.7 161.5,-180.7 119.5,-180.7"/>
<polygon fill="none" stroke="#000000" points="119.5,-180.7 119.5,-199.7 161.5,-199.7 161.5,-180.7 119.5,-180.7"/>
<text text-anchor="start" x="142.9053" y="-186.8" font-family="Helvetica,sans-Serif" font-size="11.00" fill="#000000">7 &gt;</text>
</a>
</g>
</g>
<!-- dependency_rule_dataset&#45;&gt;dependency_rule -->
<g id="edge2" class="edge">
<title>dependency_rule_dataset:w&#45;&gt;dependency_rule:e</title>
<path fill="none" stroke="#000000" d="M199.1538,-496.7441C162.4798,-456.8206 217.7919,-229.7 161.5,-229.7"/>
<polygon fill="#000000" stroke="#000000" points="205.1944,-499.4398 211.0329,-505.9875 208.8472,-501.0699 212.5,-502.7 212.5,-502.7 212.5,-502.7 208.8472,-501.0699 213.9671,-499.4125 205.1944,-499.4398 205.1944,-499.4398"/>
<ellipse fill="none" stroke="#000000" cx="202.2722" cy="-498.1357" rx="3.2" ry="3.2"/>
</g>
<!-- mat_dr -->
<g id="node4" class="node">
<title>mat_dr</title>
<g id="a_node4"><a xlink:href="../../tables/mat_dr.html" xlink:title="mat_dr" target="_top">
<polygon fill="#ffffff" stroke="transparent" points="287,-120.2 287,-181.2 372,-181.2 372,-120.2 287,-120.2"/>
<polygon fill="#f5f5f5" stroke="transparent" points="287.5,-157.7 287.5,-180.7 372.5,-180.7 372.5,-157.7 287.5,-157.7"/>
<polygon fill="none" stroke="#000000" points="287.5,-157.7 287.5,-180.7 372.5,-180.7 372.5,-157.7 287.5,-157.7"/>
<text text-anchor="start" x="292.5" y="-166.3" font-family="Helvetica,sans-Serif" font-weight="bold" font-size="11.00" fill="#000000">mat_dr</text>
<text text-anchor="start" x="338.0219" y="-165.8" font-family="Helvetica,sans-Serif" font-size="11.00" fill="#000000">[table]</text>
<polygon fill="none" stroke="#000000" points="287.5,-138.7 287.5,-157.7 372.5,-157.7 372.5,-138.7 287.5,-138.7"/>
<text text-anchor="start" x="290.5" y="-144.8" font-family="Helvetica,sans-Serif" font-size="11.00" fill="#000000">...</text>
<polygon fill="#ffffff" stroke="transparent" points="287.5,-119.7 287.5,-138.7 310.5,-138.7 310.5,-119.7 287.5,-119.7"/>
<polygon fill="none" stroke="#000000" points="287.5,-119.7 287.5,-138.7 310.5,-138.7 310.5,-119.7 287.5,-119.7"/>
<text text-anchor="start" x="290.5" y="-125.8" font-family="Helvetica,sans-Serif" font-size="11.00" fill="#000000">&lt; 1</text>
<polygon fill="#ffffff" stroke="transparent" points="310.5,-119.7 310.5,-138.7 349.5,-138.7 349.5,-119.7 310.5,-119.7"/>
<polygon fill="none" stroke="#000000" points="310.5,-119.7 310.5,-138.7 349.5,-138.7 349.5,-119.7 310.5,-119.7"/>
<text text-anchor="start" x="314.1105" y="-125.8" font-family="Helvetica,sans-Serif" font-size="11.00" fill="#000000">0 rows</text>
<polygon fill="#ffffff" stroke="transparent" points="349.5,-119.7 349.5,-138.7 372.5,-138.7 372.5,-119.7 349.5,-119.7"/>
<polygon fill="none" stroke="#000000" points="349.5,-119.7 349.5,-138.7 372.5,-138.7 372.5,-119.7 349.5,-119.7"/>
<text text-anchor="start" x="353.9053" y="-125.8" font-family="Helvetica,sans-Serif" font-size="11.00" fill="#000000">1 &gt;</text>
</a>
</g>
</g>
<!-- mat_dr&#45;&gt;dependency_rule -->
<g id="edge3" class="edge">
<title>mat_dr:w&#45;&gt;dependency_rule:e</title>
<path fill="none" stroke="#000000" d="M276.7812,-148.1587C243.1355,-151.2219 233.7831,-169.2765 202,-191.7 181.8316,-205.9292 186.1827,-229.7 161.5,-229.7"/>
<polygon fill="#000000" stroke="#000000" points="286.5297,-143.7379 286.8718,-151.7306 285.2732,-151.799 284.9312,-143.8063 286.5297,-143.7379"/>
<polyline fill="none" stroke="#000000" points="287.5,-147.7 283.5037,-147.871 "/>
<ellipse fill="none" stroke="#000000" cx="280.3066" cy="-148.0079" rx="3.2" ry="3.2"/>
</g>
<!-- mo_dr -->
<g id="node5" class="node">
<title>mo_dr</title>
<g id="a_node5"><a xlink:href="../../tables/mo_dr.html" xlink:title="mo_dr" target="_top">
<polygon fill="#ffffff" stroke="transparent" points="289.5,-38.2 289.5,-99.2 369.5,-99.2 369.5,-38.2 289.5,-38.2"/>
<polygon fill="#f5f5f5" stroke="transparent" points="289.5,-75.7 289.5,-98.7 369.5,-98.7 369.5,-75.7 289.5,-75.7"/>
<polygon fill="none" stroke="#000000" points="289.5,-75.7 289.5,-98.7 369.5,-98.7 369.5,-75.7 289.5,-75.7"/>
<text text-anchor="start" x="294.5" y="-84.3" font-family="Helvetica,sans-Serif" font-weight="bold" font-size="11.00" fill="#000000">mo_dr</text>
<text text-anchor="start" x="335.0219" y="-83.8" font-family="Helvetica,sans-Serif" font-size="11.00" fill="#000000">[table]</text>
<polygon fill="none" stroke="#000000" points="289.5,-56.7 289.5,-75.7 369.5,-75.7 369.5,-56.7 289.5,-56.7"/>
<text text-anchor="start" x="292.5" y="-62.8" font-family="Helvetica,sans-Serif" font-size="11.00" fill="#000000">...</text>
<polygon fill="#ffffff" stroke="transparent" points="289.5,-37.7 289.5,-56.7 310.5,-56.7 310.5,-37.7 289.5,-37.7"/>
<polygon fill="none" stroke="#000000" points="289.5,-37.7 289.5,-56.7 310.5,-56.7 310.5,-37.7 289.5,-37.7"/>
<text text-anchor="start" x="292.2027" y="-43.8" font-family="Helvetica,sans-Serif" font-size="11.00" fill="#000000">&lt; 1</text>
<polygon fill="#ffffff" stroke="transparent" points="310.5,-37.7 310.5,-56.7 348.5,-56.7 348.5,-37.7 310.5,-37.7"/>
<polygon fill="none" stroke="#000000" points="310.5,-37.7 310.5,-56.7 348.5,-56.7 348.5,-37.7 310.5,-37.7"/>
<text text-anchor="start" x="313.3053" y="-43.8" font-family="Helvetica,sans-Serif" font-size="11.00" fill="#000000">0 rows</text>
<polygon fill="#ffffff" stroke="transparent" points="348.5,-37.7 348.5,-56.7 369.5,-56.7 369.5,-37.7 348.5,-37.7"/>
<polygon fill="none" stroke="#000000" points="348.5,-37.7 348.5,-56.7 369.5,-56.7 369.5,-37.7 348.5,-37.7"/>
<text text-anchor="start" x="351.2027" y="-43.8" font-family="Helvetica,sans-Serif" font-size="11.00" fill="#000000">1 &gt;</text>
</a>
</g>
</g>
<!-- mo_dr&#45;&gt;dependency_rule -->
<g id="edge4" class="edge">
<title>mo_dr:w&#45;&gt;dependency_rule:e</title>
<path fill="none" stroke="#000000" d="M278.8742,-65.9535C243.2227,-67.7746 228.0912,-79.661 202,-109.7 165.0883,-152.1967 217.7889,-229.7 161.5,-229.7"/>
<polygon fill="#000000" stroke="#000000" points="288.6048,-61.7202 288.7957,-69.7179 287.1961,-69.7561 287.0053,-61.7584 288.6048,-61.7202"/>
<polyline fill="none" stroke="#000000" points="289.5,-65.7 285.5011,-65.7954 "/>
<ellipse fill="none" stroke="#000000" cx="282.302" cy="-65.8718" rx="3.2" ry="3.2"/>
</g>
<!-- mor_dr -->
<g id="node6" class="node">
<title>mor_dr</title>
<g id="a_node6"><a xlink:href="../../tables/mor_dr.html" xlink:title="mor_dr" target="_top">
<polygon fill="#ffffff" stroke="transparent" points="286.5,-366.2 286.5,-427.2 372.5,-427.2 372.5,-366.2 286.5,-366.2"/>
<polygon fill="#f5f5f5" stroke="transparent" points="286.5,-403.7 286.5,-426.7 372.5,-426.7 372.5,-403.7 286.5,-403.7"/>
<polygon fill="none" stroke="#000000" points="286.5,-403.7 286.5,-426.7 372.5,-426.7 372.5,-403.7 286.5,-403.7"/>
<text text-anchor="start" x="291.5" y="-412.3" font-family="Helvetica,sans-Serif" font-weight="bold" font-size="11.00" fill="#000000">mor_dr</text>
<text text-anchor="start" x="338.0219" y="-411.8" font-family="Helvetica,sans-Serif" font-size="11.00" fill="#000000">[table]</text>
<polygon fill="none" stroke="#000000" points="286.5,-384.7 286.5,-403.7 372.5,-403.7 372.5,-384.7 286.5,-384.7"/>
<text text-anchor="start" x="289.5" y="-390.8" font-family="Helvetica,sans-Serif" font-size="11.00" fill="#000000">...</text>
<polygon fill="#ffffff" stroke="transparent" points="286.5,-365.7 286.5,-384.7 310.5,-384.7 310.5,-365.7 286.5,-365.7"/>
<polygon fill="none" stroke="#000000" points="286.5,-365.7 286.5,-384.7 310.5,-384.7 310.5,-365.7 286.5,-365.7"/>
<text text-anchor="start" x="289.5" y="-371.8" font-family="Helvetica,sans-Serif" font-size="11.00" fill="#000000">&lt; 1</text>
<polygon fill="#ffffff" stroke="transparent" points="310.5,-365.7 310.5,-384.7 349.5,-384.7 349.5,-365.7 310.5,-365.7"/>
<polygon fill="none" stroke="#000000" points="310.5,-365.7 310.5,-384.7 349.5,-384.7 349.5,-365.7 310.5,-365.7"/>
<text text-anchor="start" x="314.1105" y="-371.8" font-family="Helvetica,sans-Serif" font-size="11.00" fill="#000000">0 rows</text>
<polygon fill="#ffffff" stroke="transparent" points="349.5,-365.7 349.5,-384.7 372.5,-384.7 372.5,-365.7 349.5,-365.7"/>
<polygon fill="none" stroke="#000000" points="349.5,-365.7 349.5,-384.7 372.5,-384.7 372.5,-365.7 349.5,-365.7"/>
<text text-anchor="start" x="353.9053" y="-371.8" font-family="Helvetica,sans-Serif" font-size="11.00" fill="#000000">1 &gt;</text>
</a>
</g>
</g>
<!-- mor_dr&#45;&gt;dependency_rule -->
<g id="edge5" class="edge">
<title>mor_dr:w&#45;&gt;dependency_rule:e</title>
<path fill="none" stroke="#000000" d="M275.9872,-393.5115C242.376,-392.1988 226.9821,-383.6383 202,-355.7 162.7914,-311.8516 220.3218,-229.7 161.5,-229.7"/>
<polygon fill="#000000" stroke="#000000" points="285.7719,-389.6863 285.6284,-397.685 284.0286,-397.6563 284.1721,-389.6576 285.7719,-389.6863"/>
<polyline fill="none" stroke="#000000" points="286.5,-393.7 282.5006,-393.6282 "/>
<ellipse fill="none" stroke="#000000" cx="279.3012" cy="-393.5708" rx="3.2" ry="3.2"/>
</g>
<!-- point_dr -->
<g id="node7" class="node">
<title>point_dr</title>
<g id="a_node7"><a xlink:href="../../tables/point_dr.html" xlink:title="point_dr" target="_top">
<polygon fill="#ffffff" stroke="transparent" points="282.5,-284.2 282.5,-345.2 376.5,-345.2 376.5,-284.2 282.5,-284.2"/>
<polygon fill="#f5f5f5" stroke="transparent" points="282.5,-321.7 282.5,-344.7 376.5,-344.7 376.5,-321.7 282.5,-321.7"/>
<polygon fill="none" stroke="#000000" points="282.5,-321.7 282.5,-344.7 376.5,-344.7 376.5,-321.7 282.5,-321.7"/>
<text text-anchor="start" x="287.5" y="-330.3" font-family="Helvetica,sans-Serif" font-weight="bold" font-size="11.00" fill="#000000">point_dr</text>
<text text-anchor="start" x="342.0219" y="-329.8" font-family="Helvetica,sans-Serif" font-size="11.00" fill="#000000">[table]</text>
<polygon fill="none" stroke="#000000" points="282.5,-302.7 282.5,-321.7 376.5,-321.7 376.5,-302.7 282.5,-302.7"/>
<text text-anchor="start" x="285.5" y="-308.8" font-family="Helvetica,sans-Serif" font-size="11.00" fill="#000000">...</text>
<polygon fill="#ffffff" stroke="transparent" points="282.5,-283.7 282.5,-302.7 310.5,-302.7 310.5,-283.7 282.5,-283.7"/>
<polygon fill="none" stroke="#000000" points="282.5,-283.7 282.5,-302.7 310.5,-302.7 310.5,-283.7 282.5,-283.7"/>
<text text-anchor="start" x="285.5" y="-289.8" font-family="Helvetica,sans-Serif" font-size="11.00" fill="#000000">&lt; 1</text>
<polygon fill="#ffffff" stroke="transparent" points="310.5,-283.7 310.5,-302.7 351.5,-302.7 351.5,-283.7 310.5,-283.7"/>
<polygon fill="none" stroke="#000000" points="310.5,-283.7 310.5,-302.7 351.5,-302.7 351.5,-283.7 310.5,-283.7"/>
<text text-anchor="start" x="316.1105" y="-289.8" font-family="Helvetica,sans-Serif" font-size="11.00" fill="#000000">0 rows</text>
<polygon fill="#ffffff" stroke="transparent" points="351.5,-283.7 351.5,-302.7 376.5,-302.7 376.5,-283.7 351.5,-283.7"/>
<polygon fill="none" stroke="#000000" points="351.5,-283.7 351.5,-302.7 376.5,-302.7 376.5,-283.7 351.5,-283.7"/>
<text text-anchor="start" x="357.9053" y="-289.8" font-family="Helvetica,sans-Serif" font-size="11.00" fill="#000000">1 &gt;</text>
</a>
</g>
</g>
<!-- point_dr&#45;&gt;dependency_rule -->
<g id="edge6" class="edge">
<title>point_dr:w&#45;&gt;dependency_rule:e</title>
<path fill="none" stroke="#000000" d="M271.7322,-311.2886C240.9493,-308.7705 230.764,-294.8453 202,-273.7 180.5853,-257.9574 188.0786,-229.7 161.5,-229.7"/>
<polygon fill="#000000" stroke="#000000" points="281.8533,-307.6724 281.5478,-315.6665 279.949,-315.6054 280.2545,-307.6113 281.8533,-307.6724"/>
<polyline fill="none" stroke="#000000" points="282.5,-311.7 278.5029,-311.5472 "/>
<ellipse fill="none" stroke="#000000" cx="275.3053" cy="-311.425" rx="3.2" ry="3.2"/>
</g>
<!-- predicate -->
<g id="node8" class="node">
<title>predicate</title>
<g id="a_node8"><a xlink:href="../../tables/predicate.html" xlink:title="predicate" target="_top">
<polygon fill="#ffffff" stroke="transparent" points="278,-202.2 278,-263.2 381,-263.2 381,-202.2 278,-202.2"/>
<polygon fill="#f5f5f5" stroke="transparent" points="278.5,-239.7 278.5,-262.7 381.5,-262.7 381.5,-239.7 278.5,-239.7"/>
<polygon fill="none" stroke="#000000" points="278.5,-239.7 278.5,-262.7 381.5,-262.7 381.5,-239.7 278.5,-239.7"/>
<text text-anchor="start" x="283.5" y="-248.3" font-family="Helvetica,sans-Serif" font-weight="bold" font-size="11.00" fill="#000000">predicate</text>
<text text-anchor="start" x="347.0219" y="-247.8" font-family="Helvetica,sans-Serif" font-size="11.00" fill="#000000">[table]</text>
<polygon fill="none" stroke="#000000" points="278.5,-220.7 278.5,-239.7 381.5,-239.7 381.5,-220.7 278.5,-220.7"/>
<text text-anchor="start" x="281.5" y="-226.8" font-family="Helvetica,sans-Serif" font-size="11.00" fill="#000000">...</text>
<polygon fill="#ffffff" stroke="transparent" points="278.5,-201.7 278.5,-220.7 310.5,-220.7 310.5,-201.7 278.5,-201.7"/>
<polygon fill="none" stroke="#000000" points="278.5,-201.7 278.5,-220.7 310.5,-220.7 310.5,-201.7 278.5,-201.7"/>
<text text-anchor="start" x="281.5" y="-207.8" font-family="Helvetica,sans-Serif" font-size="11.00" fill="#000000">&lt; 2</text>
<polygon fill="#ffffff" stroke="transparent" points="310.5,-201.7 310.5,-220.7 354.5,-220.7 354.5,-201.7 310.5,-201.7"/>
<polygon fill="none" stroke="#000000" points="310.5,-201.7 310.5,-220.7 354.5,-220.7 354.5,-201.7 310.5,-201.7"/>
<text text-anchor="start" x="319.1105" y="-207.8" font-family="Helvetica,sans-Serif" font-size="11.00" fill="#000000">0 rows</text>
<polygon fill="#ffffff" stroke="transparent" points="354.5,-201.7 354.5,-220.7 381.5,-220.7 381.5,-201.7 354.5,-201.7"/>
<polygon fill="none" stroke="#000000" points="354.5,-201.7 354.5,-220.7 381.5,-220.7 381.5,-201.7 354.5,-201.7"/>
<text text-anchor="start" x="362.9053" y="-207.8" font-family="Helvetica,sans-Serif" font-size="11.00" fill="#000000">2 &gt;</text>
</a>
</g>
</g>
<!-- predicate&#45;&gt;dependency_rule -->
<g id="edge7" class="edge">
<title>predicate:w&#45;&gt;dependency_rule:e</title>
<path fill="none" stroke="#000000" d="M264.0447,-228.0856C223.5232,-223.7595 208.3203,-224.2977 161.5,-229.7"/>
<polygon fill="#000000" stroke="#000000" points="270.5494,-228.812 278.1004,-233.2778 274.5247,-229.256 278.5,-229.7 278.5,-229.7 278.5,-229.7 274.5247,-229.256 278.8996,-226.1222 270.5494,-228.812 270.5494,-228.812"/>
<ellipse fill="none" stroke="#000000" cx="267.3692" cy="-228.4568" rx="3.2" ry="3.2"/>
</g>
<!-- predicate&#45;&gt;dependency_rule -->
<g id="edge8" class="edge">
<title>predicate:w&#45;&gt;dependency_rule:e</title>
<path fill="none" stroke="#000000" d="M264.0447,-231.5834C223.5232,-236.6305 208.3203,-236.0027 161.5,-229.7"/>
<polygon fill="#000000" stroke="#000000" points="270.5671,-230.7337 278.9651,-233.2698 274.5335,-230.2168 278.5,-229.7 278.5,-229.7 278.5,-229.7 274.5335,-230.2168 278.0349,-226.1302 270.5671,-230.7337 270.5671,-230.7337"/>
<ellipse fill="none" stroke="#000000" cx="267.3939" cy="-231.1471" rx="3.2" ry="3.2"/>
</g>
</g>
</svg>
