<?xml version="1.0" encoding="UTF-8" standalone="no"?>
<!DOCTYPE svg PUBLIC "-//W3C//DTD SVG 1.1//EN"
 "http://www.w3.org/Graphics/SVG/1.1/DTD/svg11.dtd">
<!-- Generated by graphviz version 2.40.1 (20161225.0304)
 -->
<!-- Title: oneDegreeRelationshipsDiagram Pages: 1 -->
<svg width="643pt" height="370pt"
 viewBox="0.00 0.00 643.00 369.70" xmlns="http://www.w3.org/2000/svg" xmlns:xlink="http://www.w3.org/1999/xlink">
<g id="graph0" class="graph" transform="scale(1 1) rotate(0) translate(4 365.7)">
<title>oneDegreeRelationshipsDiagram</title>
<polygon fill="#ffffff" stroke="transparent" points="-4,4 -4,-365.7 639,-365.7 639,4 -4,4"/>
<text text-anchor="middle" x="72.4936" y="-7.3" font-family="Helvetica,sans-Serif" font-size="11.00" fill="#000000">Generated by SchemaSpy</text>
<!-- mat -->
<g id="node1" class="node">
<title>mat</title>
<g id="a_node1"><a xlink:href="../../tables/mat.html" xlink:title="mat" target="_top">
<polygon fill="#ffffff" stroke="transparent" points="193,-74.7 193,-252.7 455,-252.7 455,-74.7 193,-74.7"/>
<polygon fill="#f5f5f5" stroke="transparent" points="195,-227.7 195,-250.7 453,-250.7 453,-227.7 195,-227.7"/>
<polygon fill="none" stroke="#000000" points="195,-227.7 195,-250.7 453,-250.7 453,-227.7 195,-227.7"/>
<text text-anchor="start" x="200" y="-236.3" font-family="Helvetica,sans-Serif" font-weight="bold" font-size="11.00" fill="#000000">mat</text>
<text text-anchor="start" x="418.0437" y="-235.8" font-family="Helvetica,sans-Serif" font-size="11.00" fill="#000000">[table]</text>
<polygon fill="none" stroke="#000000" points="195,-205.7 195,-227.7 326,-227.7 326,-205.7 195,-205.7"/>
<image xlink:href="../../images/primaryKeys.png" width="11px" height="12px" preserveAspectRatio="xMinYMin meet" x="200" y="-222.7"/>
<text text-anchor="start" x="215" y="-212.8" font-family="Helvetica,sans-Serif" font-size="11.00" fill="#000000">mat_id</text>
<polygon fill="none" stroke="#000000" points="326,-205.7 326,-227.7 453,-227.7 453,-205.7 326,-205.7"/>
<text text-anchor="start" x="329" y="-213.4" font-family="Helvetica,sans-Serif" font-size="11.00" fill="#000000">int4[10]</text>
<polygon fill="#ffffff" stroke="transparent" points="195,-183.7 195,-205.7 326,-205.7 326,-183.7 195,-183.7"/>
<polygon fill="none" stroke="#000000" points="195,-183.7 195,-205.7 326,-205.7 326,-183.7 195,-183.7"/>
<text text-anchor="start" x="215" y="-190.8" font-family="Helvetica,sans-Serif" font-size="11.00" fill="#000000">description</text>
<polygon fill="none" stroke="#000000" points="326,-183.7 326,-205.7 453,-205.7 453,-183.7 326,-183.7"/>
<text text-anchor="start" x="329" y="-191.4" font-family="Helvetica,sans-Serif" font-size="11.00" fill="#000000">varchar[50]</text>
<polygon fill="#ffffff" stroke="transparent" points="195,-161.7 195,-183.7 326,-183.7 326,-161.7 195,-161.7"/>
<polygon fill="none" stroke="#000000" points="195,-161.7 195,-183.7 326,-183.7 326,-161.7 195,-161.7"/>
<image xlink:href="../../images/foreignKeys.png" width="11px" height="12px" preserveAspectRatio="xMinYMin meet" x="200" y="-178.7"/>
<text text-anchor="start" x="215" y="-168.8" font-family="Helvetica,sans-Serif" font-size="11.00" fill="#000000">mo_id</text>
<polygon fill="none" stroke="#000000" points="326,-161.7 326,-183.7 453,-183.7 453,-161.7 326,-161.7"/>
<text text-anchor="start" x="329" y="-169.4" font-family="Helvetica,sans-Serif" font-size="11.00" fill="#000000">int4[10]</text>
<polygon fill="none" stroke="#000000" points="195,-139.7 195,-161.7 326,-161.7 326,-139.7 195,-139.7"/>
<text text-anchor="start" x="215" y="-146.8" font-family="Helvetica,sans-Serif" font-size="11.00" fill="#000000">raw_trajectory</text>
<polygon fill="none" stroke="#000000" points="326,-139.7 326,-161.7 453,-161.7 453,-139.7 326,-139.7"/>
<text text-anchor="start" x="328.6656" y="-147.4" font-family="Helvetica,sans-Serif" font-size="11.00" fill="#000000">tgeompoint[2147483647]</text>
<polygon fill="none" stroke="#000000" points="195,-117.7 195,-139.7 326,-139.7 326,-117.7 195,-117.7"/>
<text text-anchor="start" x="215" y="-124.8" font-family="Helvetica,sans-Serif" font-size="11.00" fill="#000000">trajectory_geom</text>
<polygon fill="none" stroke="#000000" points="326,-117.7 326,-139.7 453,-139.7 453,-117.7 326,-117.7"/>
<text text-anchor="start" x="329" y="-125.4" font-family="Helvetica,sans-Serif" font-size="11.00" fill="#000000">geometry[2147483647]</text>
<polygon fill="none" stroke="#000000" points="195,-95.7 195,-117.7 326,-117.7 326,-95.7 195,-95.7"/>
<text text-anchor="start" x="215" y="-102.8" font-family="Helvetica,sans-Serif" font-size="11.00" fill="#000000">mat_date</text>
<polygon fill="none" stroke="#000000" points="326,-95.7 326,-117.7 453,-117.7 453,-95.7 326,-95.7"/>
<text text-anchor="start" x="329" y="-103.4" font-family="Helvetica,sans-Serif" font-size="11.00" fill="#000000">date[13]</text>
<polygon fill="#ffffff" stroke="transparent" points="195,-76.7 195,-95.7 235,-95.7 235,-76.7 195,-76.7"/>
<polygon fill="none" stroke="#000000" points="195,-76.7 195,-95.7 235,-95.7 235,-76.7 195,-76.7"/>
<text text-anchor="start" x="198" y="-82.8" font-family="Helvetica,sans-Serif" font-size="11.00" fill="#000000">&lt; 1</text>
<polygon fill="#ffffff" stroke="transparent" points="235,-76.7 235,-95.7 326,-95.7 326,-76.7 235,-76.7"/>
<polygon fill="none" stroke="#000000" points="235,-76.7 235,-95.7 326,-95.7 326,-76.7 235,-76.7"/>
<text text-anchor="start" x="256.9791" y="-82.8" font-family="Helvetica,sans-Serif" font-size="11.00" fill="#000000">292.481 rows</text>
<polygon fill="#ffffff" stroke="transparent" points="326,-76.7 326,-95.7 453,-95.7 453,-76.7 326,-76.7"/>
<polygon fill="none" stroke="#000000" points="326,-76.7 326,-95.7 453,-95.7 453,-76.7 326,-76.7"/>
<text text-anchor="start" x="434.4053" y="-82.8" font-family="Helvetica,sans-Serif" font-size="11.00" fill="#000000">3 &gt;</text>
<polygon fill="none" stroke="#000000" stroke-width="2" points="194,-75.7 194,-251.7 454,-251.7 454,-75.7 194,-75.7"/>
</a>
</g>
</g>
<!-- moving_object -->
<g id="node2" class="node">
<title>moving_object</title>
<g id="a_node2"><a xlink:href="../../tables/moving_object.html" xlink:title="moving_object" target="_top">
<polygon fill="#ffffff" stroke="transparent" points="8,-98.7 8,-206.7 144,-206.7 144,-98.7 8,-98.7"/>
<polygon fill="#f5f5f5" stroke="transparent" points="8,-183.7 8,-206.7 144,-206.7 144,-183.7 8,-183.7"/>
<polygon fill="none" stroke="#000000" points="8,-183.7 8,-206.7 144,-206.7 144,-183.7 8,-183.7"/>
<text text-anchor="start" x="13" y="-192.3" font-family="Helvetica,sans-Serif" font-weight="bold" font-size="11.00" fill="#000000">moving_object</text>
<text text-anchor="start" x="109.5219" y="-191.8" font-family="Helvetica,sans-Serif" font-size="11.00" fill="#000000">[table]</text>
<polygon fill="none" stroke="#000000" points="8,-161.7 8,-183.7 144,-183.7 144,-161.7 8,-161.7"/>
<image xlink:href="../../images/primaryKeys.png" width="11px" height="12px" preserveAspectRatio="xMinYMin meet" x="13" y="-178.7"/>
<text text-anchor="start" x="37" y="-168.8" font-family="Helvetica,sans-Serif" font-size="11.00" fill="#000000">mo_id</text>
<polygon fill="#ffffff" stroke="transparent" points="8,-139.7 8,-161.7 144,-161.7 144,-139.7 8,-139.7"/>
<polygon fill="none" stroke="#000000" points="8,-139.7 8,-161.7 144,-161.7 144,-139.7 8,-139.7"/>
<text text-anchor="start" x="37" y="-146.8" font-family="Helvetica,sans-Serif" font-size="11.00" fill="#000000">description</text>
<polygon fill="#ffffff" stroke="transparent" points="8,-117.7 8,-139.7 144,-139.7 144,-117.7 8,-117.7"/>
<polygon fill="none" stroke="#000000" points="8,-117.7 8,-139.7 144,-139.7 144,-117.7 8,-117.7"/>
<image xlink:href="../../images/foreignKeys.png" width="11px" height="12px" preserveAspectRatio="xMinYMin meet" x="13" y="-134.7"/>
<text text-anchor="start" x="37" y="-124.8" font-family="Helvetica,sans-Serif" font-size="11.00" fill="#000000">mo_type_id</text>
<polygon fill="#ffffff" stroke="transparent" points="8,-98.7 8,-117.7 46,-117.7 46,-98.7 8,-98.7"/>
<polygon fill="none" stroke="#000000" points="8,-98.7 8,-117.7 46,-117.7 46,-98.7 8,-98.7"/>
<text text-anchor="start" x="11" y="-104.8" font-family="Helvetica,sans-Serif" font-size="11.00" fill="#000000">&lt; 1</text>
<polygon fill="#ffffff" stroke="transparent" points="46,-98.7 46,-117.7 114,-117.7 114,-98.7 46,-98.7"/>
<polygon fill="none" stroke="#000000" points="46,-98.7 46,-117.7 114,-117.7 114,-98.7 46,-98.7"/>
<text text-anchor="start" x="57.2089" y="-104.8" font-family="Helvetica,sans-Serif" font-size="11.00" fill="#000000">2.000 rows</text>
<polygon fill="#ffffff" stroke="transparent" points="114,-98.7 114,-117.7 144,-117.7 144,-98.7 114,-98.7"/>
<polygon fill="none" stroke="#000000" points="114,-98.7 114,-117.7 144,-117.7 144,-98.7 114,-98.7"/>
<text text-anchor="start" x="125.4053" y="-104.8" font-family="Helvetica,sans-Serif" font-size="11.00" fill="#000000">5 &gt;</text>
</a>
</g>
</g>
<!-- mat&#45;&gt;moving_object -->
<g id="edge1" class="edge">
<title>mat:w&#45;&gt;moving_object:e</title>
<path fill="none" stroke="#000000" d="M180.276,-172.7C168.2815,-172.7 160.8229,-172.7 144,-172.7"/>
<polygon fill="#000000" stroke="#000000" points="187,-172.7001 195,-176.3 191,-172.7 195,-172.7 195,-172.7 195,-172.7 191,-172.7 195,-169.1 187,-172.7001 187,-172.7001"/>
<ellipse fill="none" stroke="#000000" cx="183.8" cy="-172.7001" rx="3.2" ry="3.2"/>
</g>
<!-- mat_aspect -->
<g id="node3" class="node">
<title>mat_aspect</title>
<g id="a_node3"><a xlink:href="../../tables/mat_aspect.html" xlink:title="mat_aspect" target="_top">
<polygon fill="#ffffff" stroke="transparent" points="507.5,-271.7 507.5,-357.7 623.5,-357.7 623.5,-271.7 507.5,-271.7"/>
<polygon fill="#f5f5f5" stroke="transparent" points="507.5,-334.7 507.5,-357.7 623.5,-357.7 623.5,-334.7 507.5,-334.7"/>
<polygon fill="none" stroke="#000000" points="507.5,-334.7 507.5,-357.7 623.5,-357.7 623.5,-334.7 507.5,-334.7"/>
<text text-anchor="start" x="512.5" y="-343.3" font-family="Helvetica,sans-Serif" font-weight="bold" font-size="11.00" fill="#000000">mat_aspect</text>
<text text-anchor="start" x="589.0219" y="-342.8" font-family="Helvetica,sans-Serif" font-size="11.00" fill="#000000">[table]</text>
<polygon fill="none" stroke="#000000" points="507.5,-312.7 507.5,-334.7 623.5,-334.7 623.5,-312.7 507.5,-312.7"/>
<image xlink:href="../../images/primaryKeys.png" width="11px" height="12px" preserveAspectRatio="xMinYMin meet" x="512.5" y="-329.7"/>
<text text-anchor="start" x="536.5" y="-319.8" font-family="Helvetica,sans-Serif" font-size="11.00" fill="#000000">mat_id</text>
<polygon fill="none" stroke="#000000" points="507.5,-290.7 507.5,-312.7 623.5,-312.7 623.5,-290.7 507.5,-290.7"/>
<image xlink:href="../../images/primaryKeys.png" width="11px" height="12px" preserveAspectRatio="xMinYMin meet" x="512.5" y="-307.7"/>
<text text-anchor="start" x="536.5" y="-297.8" font-family="Helvetica,sans-Serif" font-size="11.00" fill="#000000">aspect_id</text>
<polygon fill="#ffffff" stroke="transparent" points="507.5,-271.7 507.5,-290.7 550.5,-290.7 550.5,-271.7 507.5,-271.7"/>
<polygon fill="none" stroke="#000000" points="507.5,-271.7 507.5,-290.7 550.5,-290.7 550.5,-271.7 507.5,-271.7"/>
<text text-anchor="start" x="510.5" y="-277.8" font-family="Helvetica,sans-Serif" font-size="11.00" fill="#000000">&lt; 2</text>
<polygon fill="#ffffff" stroke="transparent" points="550.5,-271.7 550.5,-290.7 599.5,-290.7 599.5,-271.7 550.5,-271.7"/>
<polygon fill="none" stroke="#000000" points="550.5,-271.7 550.5,-290.7 599.5,-290.7 599.5,-271.7 550.5,-271.7"/>
<text text-anchor="start" x="564.1105" y="-277.8" font-family="Helvetica,sans-Serif" font-size="11.00" fill="#000000">0 rows</text>
<polygon fill="#ffffff" stroke="transparent" points="599.5,-271.7 599.5,-290.7 623.5,-290.7 623.5,-271.7 599.5,-271.7"/>
<polygon fill="none" stroke="#000000" points="599.5,-271.7 599.5,-290.7 623.5,-290.7 623.5,-271.7 599.5,-271.7"/>
<text text-anchor="start" x="614.3862" y="-277.8" font-family="Helvetica,sans-Serif" font-size="11.00" fill="#000000"> &#160;</text>
</a>
</g>
</g>
<!-- mat_aspect&#45;&gt;mat -->
<g id="edge2" class="edge">
<title>mat_aspect:w&#45;&gt;mat:e</title>
<path fill="none" stroke="#000000" d="M493.502,-320.1399C464.2947,-301.5738 500.5317,-216.7 453,-216.7"/>
<polygon fill="#000000" stroke="#000000" points="499.7468,-321.7281 506.6126,-327.1889 503.6234,-322.7141 507.5,-323.7 507.5,-323.7 507.5,-323.7 503.6234,-322.7141 508.3874,-320.2111 499.7468,-321.7281 499.7468,-321.7281"/>
<ellipse fill="none" stroke="#000000" cx="496.6455" cy="-320.9393" rx="3.2" ry="3.2"/>
</g>
<!-- mat_mat_dr -->
<g id="node4" class="node">
<title>mat_mat_dr</title>
<g id="a_node4"><a xlink:href="../../tables/mat_mat_dr.html" xlink:title="mat_mat_dr" target="_top">
<polygon fill="#ffffff" stroke="transparent" points="506.5,-164.7 506.5,-250.7 624.5,-250.7 624.5,-164.7 506.5,-164.7"/>
<polygon fill="#f5f5f5" stroke="transparent" points="506.5,-227.7 506.5,-250.7 624.5,-250.7 624.5,-227.7 506.5,-227.7"/>
<polygon fill="none" stroke="#000000" points="506.5,-227.7 506.5,-250.7 624.5,-250.7 624.5,-227.7 506.5,-227.7"/>
<text text-anchor="start" x="511.5" y="-236.3" font-family="Helvetica,sans-Serif" font-weight="bold" font-size="11.00" fill="#000000">mat_mat_dr</text>
<text text-anchor="start" x="590.0219" y="-235.8" font-family="Helvetica,sans-Serif" font-size="11.00" fill="#000000">[table]</text>
<polygon fill="none" stroke="#000000" points="506.5,-205.7 506.5,-227.7 624.5,-227.7 624.5,-205.7 506.5,-205.7"/>
<image xlink:href="../../images/primaryKeys.png" width="11px" height="12px" preserveAspectRatio="xMinYMin meet" x="511.5" y="-222.7"/>
<text text-anchor="start" x="535.5" y="-212.8" font-family="Helvetica,sans-Serif" font-size="11.00" fill="#000000">mat_id</text>
<polygon fill="none" stroke="#000000" points="506.5,-183.7 506.5,-205.7 624.5,-205.7 624.5,-183.7 506.5,-183.7"/>
<image xlink:href="../../images/primaryKeys.png" width="11px" height="12px" preserveAspectRatio="xMinYMin meet" x="511.5" y="-200.7"/>
<text text-anchor="start" x="535.5" y="-190.8" font-family="Helvetica,sans-Serif" font-size="11.00" fill="#000000">rule_id</text>
<polygon fill="#ffffff" stroke="transparent" points="506.5,-164.7 506.5,-183.7 550.5,-183.7 550.5,-164.7 506.5,-164.7"/>
<polygon fill="none" stroke="#000000" points="506.5,-164.7 506.5,-183.7 550.5,-183.7 550.5,-164.7 506.5,-164.7"/>
<text text-anchor="start" x="509.5" y="-170.8" font-family="Helvetica,sans-Serif" font-size="11.00" fill="#000000">&lt; 2</text>
<polygon fill="#ffffff" stroke="transparent" points="550.5,-164.7 550.5,-183.7 600.5,-183.7 600.5,-164.7 550.5,-164.7"/>
<polygon fill="none" stroke="#000000" points="550.5,-164.7 550.5,-183.7 600.5,-183.7 600.5,-164.7 550.5,-164.7"/>
<text text-anchor="start" x="565.1105" y="-170.8" font-family="Helvetica,sans-Serif" font-size="11.00" fill="#000000">0 rows</text>
<polygon fill="#ffffff" stroke="transparent" points="600.5,-164.7 600.5,-183.7 624.5,-183.7 624.5,-164.7 600.5,-164.7"/>
<polygon fill="none" stroke="#000000" points="600.5,-164.7 600.5,-183.7 624.5,-183.7 624.5,-164.7 600.5,-164.7"/>
<text text-anchor="start" x="615.3862" y="-170.8" font-family="Helvetica,sans-Serif" font-size="11.00" fill="#000000"> &#160;</text>
</a>
</g>
</g>
<!-- mat_mat_dr&#45;&gt;mat -->
<g id="edge3" class="edge">
<title>mat_mat_dr:w&#45;&gt;mat:e</title>
<path fill="none" stroke="#000000" d="M491.8553,-216.7C478.7969,-216.7 471.0191,-216.7 453,-216.7"/>
<polygon fill="#000000" stroke="#000000" points="498.5,-216.7001 506.5,-220.3 502.5,-216.7 506.5,-216.7 506.5,-216.7 506.5,-216.7 502.5,-216.7 506.5,-213.1 498.5,-216.7001 498.5,-216.7001"/>
<ellipse fill="none" stroke="#000000" cx="495.3" cy="-216.7001" rx="3.2" ry="3.2"/>
</g>
<!-- point -->
<g id="node5" class="node">
<title>point</title>
<g id="a_node5"><a xlink:href="../../tables/point.html" xlink:title="point" target="_top">
<polygon fill="#ffffff" stroke="transparent" points="504,-38.2 504,-143.2 627,-143.2 627,-38.2 504,-38.2"/>
<polygon fill="#f5f5f5" stroke="transparent" points="504.5,-119.7 504.5,-142.7 627.5,-142.7 627.5,-119.7 504.5,-119.7"/>
<polygon fill="none" stroke="#000000" points="504.5,-119.7 504.5,-142.7 627.5,-142.7 627.5,-119.7 504.5,-119.7"/>
<text text-anchor="start" x="509.5" y="-128.3" font-family="Helvetica,sans-Serif" font-weight="bold" font-size="11.00" fill="#000000">point</text>
<text text-anchor="start" x="592.5437" y="-127.8" font-family="Helvetica,sans-Serif" font-size="11.00" fill="#000000">[table]</text>
<polygon fill="none" stroke="#000000" points="504.5,-97.7 504.5,-119.7 627.5,-119.7 627.5,-97.7 504.5,-97.7"/>
<image xlink:href="../../images/primaryKeys.png" width="11px" height="12px" preserveAspectRatio="xMinYMin meet" x="509.5" y="-114.7"/>
<text text-anchor="start" x="549.5" y="-104.8" font-family="Helvetica,sans-Serif" font-size="11.00" fill="#000000">point_id</text>
<polygon fill="#ffffff" stroke="transparent" points="504.5,-75.7 504.5,-97.7 627.5,-97.7 627.5,-75.7 504.5,-75.7"/>
<polygon fill="none" stroke="#000000" points="504.5,-75.7 504.5,-97.7 627.5,-97.7 627.5,-75.7 504.5,-75.7"/>
<image xlink:href="../../images/foreignKeys.png" width="11px" height="12px" preserveAspectRatio="xMinYMin meet" x="509.5" y="-92.7"/>
<text text-anchor="start" x="549.5" y="-82.8" font-family="Helvetica,sans-Serif" font-size="11.00" fill="#000000">mat_id</text>
<polygon fill="none" stroke="#000000" points="504.5,-56.7 504.5,-75.7 627.5,-75.7 627.5,-56.7 504.5,-56.7"/>
<text text-anchor="start" x="507.5" y="-62.8" font-family="Helvetica,sans-Serif" font-size="11.00" fill="#000000">...</text>
<polygon fill="#ffffff" stroke="transparent" points="504.5,-37.7 504.5,-56.7 525.5,-56.7 525.5,-37.7 504.5,-37.7"/>
<polygon fill="none" stroke="#000000" points="504.5,-37.7 504.5,-56.7 525.5,-56.7 525.5,-37.7 504.5,-37.7"/>
<text text-anchor="start" x="507.2027" y="-43.8" font-family="Helvetica,sans-Serif" font-size="11.00" fill="#000000">&lt; 1</text>
<polygon fill="#ffffff" stroke="transparent" points="525.5,-37.7 525.5,-56.7 606.5,-56.7 606.5,-37.7 525.5,-37.7"/>
<polygon fill="none" stroke="#000000" points="525.5,-37.7 525.5,-56.7 606.5,-56.7 606.5,-37.7 525.5,-37.7"/>
<text text-anchor="start" x="528.4037" y="-43.8" font-family="Helvetica,sans-Serif" font-size="11.00" fill="#000000">1.039.258 rows</text>
<polygon fill="#ffffff" stroke="transparent" points="606.5,-37.7 606.5,-56.7 627.5,-56.7 627.5,-37.7 606.5,-37.7"/>
<polygon fill="none" stroke="#000000" points="606.5,-37.7 606.5,-56.7 627.5,-56.7 627.5,-37.7 606.5,-37.7"/>
<text text-anchor="start" x="609.2026" y="-43.8" font-family="Helvetica,sans-Serif" font-size="11.00" fill="#000000">4 &gt;</text>
</a>
</g>
</g>
<!-- point&#45;&gt;mat -->
<g id="edge4" class="edge">
<title>point:w&#45;&gt;mat:e</title>
<path fill="none" stroke="#000000" d="M490.3569,-89.9135C454.8163,-109.9324 509.3202,-216.7 453,-216.7"/>
<polygon fill="#000000" stroke="#000000" points="496.6988,-88.4726 505.2977,-90.2105 500.5994,-87.5863 504.5,-86.7 504.5,-86.7 504.5,-86.7 500.5994,-87.5863 503.7023,-83.1895 496.6988,-88.4726 496.6988,-88.4726"/>
<ellipse fill="none" stroke="#000000" cx="493.5784" cy="-89.1816" rx="3.2" ry="3.2"/>
</g>
</g>
</svg>
