<?xml version="1.0" encoding="UTF-8" standalone="no"?>
<!DOCTYPE svg PUBLIC "-//W3C//DTD SVG 1.1//EN"
 "http://www.w3.org/Graphics/SVG/1.1/DTD/svg11.dtd">
<!-- Generated by graphviz version 2.40.1 (20161225.0304)
 -->
<!-- Title: twoDegreesRelationshipsDiagram Pages: 1 -->
<svg width="1171pt" height="598pt"
 viewBox="0.00 0.00 1171.00 598.20" xmlns="http://www.w3.org/2000/svg" xmlns:xlink="http://www.w3.org/1999/xlink">
<g id="graph0" class="graph" transform="scale(1 1) rotate(0) translate(4 594.2)">
<title>twoDegreesRelationshipsDiagram</title>
<polygon fill="#ffffff" stroke="transparent" points="-4,4 -4,-594.2 1167,-594.2 1167,4 -4,4"/>
<text text-anchor="middle" x="72.4936" y="-7.3" font-family="Helvetica,sans-Serif" font-size="11.00" fill="#000000">Generated by SchemaSpy</text>
<!-- mat -->
<g id="node1" class="node">
<title>mat</title>
<g id="a_node1"><a xlink:href="../../tables/mat.html" xlink:title="mat" target="_top">
<polygon fill="#ffffff" stroke="transparent" points="338,-202.7 338,-380.7 600,-380.7 600,-202.7 338,-202.7"/>
<polygon fill="#f5f5f5" stroke="transparent" points="340,-355.7 340,-378.7 598,-378.7 598,-355.7 340,-355.7"/>
<polygon fill="none" stroke="#000000" points="340,-355.7 340,-378.7 598,-378.7 598,-355.7 340,-355.7"/>
<text text-anchor="start" x="345" y="-364.3" font-family="Helvetica,sans-Serif" font-weight="bold" font-size="11.00" fill="#000000">mat</text>
<text text-anchor="start" x="563.0437" y="-363.8" font-family="Helvetica,sans-Serif" font-size="11.00" fill="#000000">[table]</text>
<polygon fill="none" stroke="#000000" points="340,-333.7 340,-355.7 471,-355.7 471,-333.7 340,-333.7"/>
<image xlink:href="../../images/primaryKeys.png" width="11px" height="12px" preserveAspectRatio="xMinYMin meet" x="345" y="-350.7"/>
<text text-anchor="start" x="360" y="-340.8" font-family="Helvetica,sans-Serif" font-size="11.00" fill="#000000">mat_id</text>
<polygon fill="none" stroke="#000000" points="471,-333.7 471,-355.7 598,-355.7 598,-333.7 471,-333.7"/>
<text text-anchor="start" x="474" y="-341.4" font-family="Helvetica,sans-Serif" font-size="11.00" fill="#000000">int4[10]</text>
<polygon fill="#ffffff" stroke="transparent" points="340,-311.7 340,-333.7 471,-333.7 471,-311.7 340,-311.7"/>
<polygon fill="none" stroke="#000000" points="340,-311.7 340,-333.7 471,-333.7 471,-311.7 340,-311.7"/>
<text text-anchor="start" x="360" y="-318.8" font-family="Helvetica,sans-Serif" font-size="11.00" fill="#000000">description</text>
<polygon fill="none" stroke="#000000" points="471,-311.7 471,-333.7 598,-333.7 598,-311.7 471,-311.7"/>
<text text-anchor="start" x="474" y="-319.4" font-family="Helvetica,sans-Serif" font-size="11.00" fill="#000000">varchar[50]</text>
<polygon fill="#ffffff" stroke="transparent" points="340,-289.7 340,-311.7 471,-311.7 471,-289.7 340,-289.7"/>
<polygon fill="none" stroke="#000000" points="340,-289.7 340,-311.7 471,-311.7 471,-289.7 340,-289.7"/>
<image xlink:href="../../images/foreignKeys.png" width="11px" height="12px" preserveAspectRatio="xMinYMin meet" x="345" y="-306.7"/>
<text text-anchor="start" x="360" y="-296.8" font-family="Helvetica,sans-Serif" font-size="11.00" fill="#000000">mo_id</text>
<polygon fill="none" stroke="#000000" points="471,-289.7 471,-311.7 598,-311.7 598,-289.7 471,-289.7"/>
<text text-anchor="start" x="474" y="-297.4" font-family="Helvetica,sans-Serif" font-size="11.00" fill="#000000">int4[10]</text>
<polygon fill="none" stroke="#000000" points="340,-267.7 340,-289.7 471,-289.7 471,-267.7 340,-267.7"/>
<text text-anchor="start" x="360" y="-274.8" font-family="Helvetica,sans-Serif" font-size="11.00" fill="#000000">raw_trajectory</text>
<polygon fill="none" stroke="#000000" points="471,-267.7 471,-289.7 598,-289.7 598,-267.7 471,-267.7"/>
<text text-anchor="start" x="473.6656" y="-275.4" font-family="Helvetica,sans-Serif" font-size="11.00" fill="#000000">tgeompoint[2147483647]</text>
<polygon fill="none" stroke="#000000" points="340,-245.7 340,-267.7 471,-267.7 471,-245.7 340,-245.7"/>
<text text-anchor="start" x="360" y="-252.8" font-family="Helvetica,sans-Serif" font-size="11.00" fill="#000000">trajectory_geom</text>
<polygon fill="none" stroke="#000000" points="471,-245.7 471,-267.7 598,-267.7 598,-245.7 471,-245.7"/>
<text text-anchor="start" x="474" y="-253.4" font-family="Helvetica,sans-Serif" font-size="11.00" fill="#000000">geometry[2147483647]</text>
<polygon fill="none" stroke="#000000" points="340,-223.7 340,-245.7 471,-245.7 471,-223.7 340,-223.7"/>
<text text-anchor="start" x="360" y="-230.8" font-family="Helvetica,sans-Serif" font-size="11.00" fill="#000000">mat_date</text>
<polygon fill="none" stroke="#000000" points="471,-223.7 471,-245.7 598,-245.7 598,-223.7 471,-223.7"/>
<text text-anchor="start" x="474" y="-231.4" font-family="Helvetica,sans-Serif" font-size="11.00" fill="#000000">date[13]</text>
<polygon fill="#ffffff" stroke="transparent" points="340,-204.7 340,-223.7 380,-223.7 380,-204.7 340,-204.7"/>
<polygon fill="none" stroke="#000000" points="340,-204.7 340,-223.7 380,-223.7 380,-204.7 340,-204.7"/>
<text text-anchor="start" x="343" y="-210.8" font-family="Helvetica,sans-Serif" font-size="11.00" fill="#000000">&lt; 1</text>
<polygon fill="#ffffff" stroke="transparent" points="380,-204.7 380,-223.7 471,-223.7 471,-204.7 380,-204.7"/>
<polygon fill="none" stroke="#000000" points="380,-204.7 380,-223.7 471,-223.7 471,-204.7 380,-204.7"/>
<text text-anchor="start" x="401.9791" y="-210.8" font-family="Helvetica,sans-Serif" font-size="11.00" fill="#000000">292.481 rows</text>
<polygon fill="#ffffff" stroke="transparent" points="471,-204.7 471,-223.7 598,-223.7 598,-204.7 471,-204.7"/>
<polygon fill="none" stroke="#000000" points="471,-204.7 471,-223.7 598,-223.7 598,-204.7 471,-204.7"/>
<text text-anchor="start" x="579.4053" y="-210.8" font-family="Helvetica,sans-Serif" font-size="11.00" fill="#000000">3 &gt;</text>
<polygon fill="none" stroke="#000000" stroke-width="2" points="339,-203.7 339,-379.7 599,-379.7 599,-203.7 339,-203.7"/>
</a>
</g>
</g>
<!-- moving_object -->
<g id="node2" class="node">
<title>moving_object</title>
<g id="a_node2"><a xlink:href="../../tables/moving_object.html" xlink:title="moving_object" target="_top">
<polygon fill="#ffffff" stroke="transparent" points="153,-226.7 153,-334.7 289,-334.7 289,-226.7 153,-226.7"/>
<polygon fill="#f5f5f5" stroke="transparent" points="153,-311.7 153,-334.7 289,-334.7 289,-311.7 153,-311.7"/>
<polygon fill="none" stroke="#000000" points="153,-311.7 153,-334.7 289,-334.7 289,-311.7 153,-311.7"/>
<text text-anchor="start" x="158" y="-320.3" font-family="Helvetica,sans-Serif" font-weight="bold" font-size="11.00" fill="#000000">moving_object</text>
<text text-anchor="start" x="254.5219" y="-319.8" font-family="Helvetica,sans-Serif" font-size="11.00" fill="#000000">[table]</text>
<polygon fill="none" stroke="#000000" points="153,-289.7 153,-311.7 289,-311.7 289,-289.7 153,-289.7"/>
<image xlink:href="../../images/primaryKeys.png" width="11px" height="12px" preserveAspectRatio="xMinYMin meet" x="158" y="-306.7"/>
<text text-anchor="start" x="182" y="-296.8" font-family="Helvetica,sans-Serif" font-size="11.00" fill="#000000">mo_id</text>
<polygon fill="#ffffff" stroke="transparent" points="153,-267.7 153,-289.7 289,-289.7 289,-267.7 153,-267.7"/>
<polygon fill="none" stroke="#000000" points="153,-267.7 153,-289.7 289,-289.7 289,-267.7 153,-267.7"/>
<text text-anchor="start" x="182" y="-274.8" font-family="Helvetica,sans-Serif" font-size="11.00" fill="#000000">description</text>
<polygon fill="#ffffff" stroke="transparent" points="153,-245.7 153,-267.7 289,-267.7 289,-245.7 153,-245.7"/>
<polygon fill="none" stroke="#000000" points="153,-245.7 153,-267.7 289,-267.7 289,-245.7 153,-245.7"/>
<image xlink:href="../../images/foreignKeys.png" width="11px" height="12px" preserveAspectRatio="xMinYMin meet" x="158" y="-262.7"/>
<text text-anchor="start" x="182" y="-252.8" font-family="Helvetica,sans-Serif" font-size="11.00" fill="#000000">mo_type_id</text>
<polygon fill="#ffffff" stroke="transparent" points="153,-226.7 153,-245.7 191,-245.7 191,-226.7 153,-226.7"/>
<polygon fill="none" stroke="#000000" points="153,-226.7 153,-245.7 191,-245.7 191,-226.7 153,-226.7"/>
<text text-anchor="start" x="156" y="-232.8" font-family="Helvetica,sans-Serif" font-size="11.00" fill="#000000">&lt; 1</text>
<polygon fill="#ffffff" stroke="transparent" points="191,-226.7 191,-245.7 259,-245.7 259,-226.7 191,-226.7"/>
<polygon fill="none" stroke="#000000" points="191,-226.7 191,-245.7 259,-245.7 259,-226.7 191,-226.7"/>
<text text-anchor="start" x="202.2089" y="-232.8" font-family="Helvetica,sans-Serif" font-size="11.00" fill="#000000">2.000 rows</text>
<polygon fill="#ffffff" stroke="transparent" points="259,-226.7 259,-245.7 289,-245.7 289,-226.7 259,-226.7"/>
<polygon fill="none" stroke="#000000" points="259,-226.7 259,-245.7 289,-245.7 289,-226.7 259,-226.7"/>
<text text-anchor="start" x="270.4053" y="-232.8" font-family="Helvetica,sans-Serif" font-size="11.00" fill="#000000">5 &gt;</text>
</a>
</g>
</g>
<!-- mat&#45;&gt;moving_object -->
<g id="edge1" class="edge">
<title>mat:w&#45;&gt;moving_object:e</title>
<path fill="none" stroke="#000000" d="M325.276,-300.7C313.2815,-300.7 305.8229,-300.7 289,-300.7"/>
<polygon fill="#000000" stroke="#000000" points="332,-300.7001 340,-304.3 336,-300.7 340,-300.7 340,-300.7 340,-300.7 336,-300.7 340,-297.1 332,-300.7001 332,-300.7001"/>
<ellipse fill="none" stroke="#000000" cx="328.8" cy="-300.7001" rx="3.2" ry="3.2"/>
</g>
<!-- mo_type -->
<g id="node9" class="node">
<title>mo_type</title>
<g id="a_node9"><a xlink:href="../../tables/mo_type.html" xlink:title="mo_type" target="_top">
<polygon fill="#ffffff" stroke="transparent" points="8,-229.2 8,-290.2 104,-290.2 104,-229.2 8,-229.2"/>
<polygon fill="#f5f5f5" stroke="transparent" points="8,-266.7 8,-289.7 104,-289.7 104,-266.7 8,-266.7"/>
<polygon fill="none" stroke="#000000" points="8,-266.7 8,-289.7 104,-289.7 104,-266.7 8,-266.7"/>
<text text-anchor="start" x="13" y="-275.3" font-family="Helvetica,sans-Serif" font-weight="bold" font-size="11.00" fill="#000000">mo_type</text>
<text text-anchor="start" x="69.5219" y="-274.8" font-family="Helvetica,sans-Serif" font-size="11.00" fill="#000000">[table]</text>
<polygon fill="none" stroke="#000000" points="8,-247.7 8,-266.7 104,-266.7 104,-247.7 8,-247.7"/>
<text text-anchor="start" x="11" y="-253.8" font-family="Helvetica,sans-Serif" font-size="11.00" fill="#000000">...</text>
<polygon fill="#ffffff" stroke="transparent" points="8,-228.7 8,-247.7 35,-247.7 35,-228.7 8,-228.7"/>
<polygon fill="none" stroke="#000000" points="8,-228.7 8,-247.7 35,-247.7 35,-228.7 8,-228.7"/>
<text text-anchor="start" x="11" y="-234.8" font-family="Helvetica,sans-Serif" font-size="11.00" fill="#000000"> &#160;</text>
<polygon fill="#ffffff" stroke="transparent" points="35,-228.7 35,-247.7 75,-247.7 75,-228.7 35,-228.7"/>
<polygon fill="none" stroke="#000000" points="35,-228.7 35,-247.7 75,-247.7 75,-228.7 35,-228.7"/>
<text text-anchor="start" x="45.1105" y="-234.8" font-family="Helvetica,sans-Serif" font-size="11.00" fill="#000000">1 row</text>
<polygon fill="#ffffff" stroke="transparent" points="75,-228.7 75,-247.7 104,-247.7 104,-228.7 75,-228.7"/>
<polygon fill="none" stroke="#000000" points="75,-228.7 75,-247.7 104,-247.7 104,-228.7 75,-228.7"/>
<text text-anchor="start" x="85.4053" y="-234.8" font-family="Helvetica,sans-Serif" font-size="11.00" fill="#000000">1 &gt;</text>
</a>
</g>
</g>
<!-- moving_object&#45;&gt;mo_type -->
<g id="edge10" class="edge">
<title>moving_object:w&#45;&gt;mo_type:e</title>
<path fill="none" stroke="#000000" d="M138.4909,-256.7C127.1774,-256.7 119.9931,-256.7 104,-256.7"/>
<polygon fill="#000000" stroke="#000000" points="145,-256.7001 153,-260.3 149,-256.7 153,-256.7 153,-256.7 153,-256.7 149,-256.7 153,-253.1 145,-256.7001 145,-256.7001"/>
<ellipse fill="none" stroke="#000000" cx="141.8" cy="-256.7001" rx="3.2" ry="3.2"/>
</g>
<!-- mat_aspect -->
<g id="node3" class="node">
<title>mat_aspect</title>
<g id="a_node3"><a xlink:href="../../tables/mat_aspect.html" xlink:title="mat_aspect" target="_top">
<polygon fill="#ffffff" stroke="transparent" points="652.5,-344.7 652.5,-430.7 768.5,-430.7 768.5,-344.7 652.5,-344.7"/>
<polygon fill="#f5f5f5" stroke="transparent" points="652.5,-407.7 652.5,-430.7 768.5,-430.7 768.5,-407.7 652.5,-407.7"/>
<polygon fill="none" stroke="#000000" points="652.5,-407.7 652.5,-430.7 768.5,-430.7 768.5,-407.7 652.5,-407.7"/>
<text text-anchor="start" x="657.5" y="-416.3" font-family="Helvetica,sans-Serif" font-weight="bold" font-size="11.00" fill="#000000">mat_aspect</text>
<text text-anchor="start" x="734.0219" y="-415.8" font-family="Helvetica,sans-Serif" font-size="11.00" fill="#000000">[table]</text>
<polygon fill="none" stroke="#000000" points="652.5,-385.7 652.5,-407.7 768.5,-407.7 768.5,-385.7 652.5,-385.7"/>
<image xlink:href="../../images/primaryKeys.png" width="11px" height="12px" preserveAspectRatio="xMinYMin meet" x="657.5" y="-402.7"/>
<text text-anchor="start" x="681.5" y="-392.8" font-family="Helvetica,sans-Serif" font-size="11.00" fill="#000000">mat_id</text>
<polygon fill="none" stroke="#000000" points="652.5,-363.7 652.5,-385.7 768.5,-385.7 768.5,-363.7 652.5,-363.7"/>
<image xlink:href="../../images/primaryKeys.png" width="11px" height="12px" preserveAspectRatio="xMinYMin meet" x="657.5" y="-380.7"/>
<text text-anchor="start" x="681.5" y="-370.8" font-family="Helvetica,sans-Serif" font-size="11.00" fill="#000000">aspect_id</text>
<polygon fill="#ffffff" stroke="transparent" points="652.5,-344.7 652.5,-363.7 695.5,-363.7 695.5,-344.7 652.5,-344.7"/>
<polygon fill="none" stroke="#000000" points="652.5,-344.7 652.5,-363.7 695.5,-363.7 695.5,-344.7 652.5,-344.7"/>
<text text-anchor="start" x="655.5" y="-350.8" font-family="Helvetica,sans-Serif" font-size="11.00" fill="#000000">&lt; 2</text>
<polygon fill="#ffffff" stroke="transparent" points="695.5,-344.7 695.5,-363.7 744.5,-363.7 744.5,-344.7 695.5,-344.7"/>
<polygon fill="none" stroke="#000000" points="695.5,-344.7 695.5,-363.7 744.5,-363.7 744.5,-344.7 695.5,-344.7"/>
<text text-anchor="start" x="709.1105" y="-350.8" font-family="Helvetica,sans-Serif" font-size="11.00" fill="#000000">0 rows</text>
<polygon fill="#ffffff" stroke="transparent" points="744.5,-344.7 744.5,-363.7 768.5,-363.7 768.5,-344.7 744.5,-344.7"/>
<polygon fill="none" stroke="#000000" points="744.5,-344.7 744.5,-363.7 768.5,-363.7 768.5,-344.7 744.5,-344.7"/>
<text text-anchor="start" x="759.3862" y="-350.8" font-family="Helvetica,sans-Serif" font-size="11.00" fill="#000000"> &#160;</text>
</a>
</g>
</g>
<!-- mat_aspect&#45;&gt;mat -->
<g id="edge3" class="edge">
<title>mat_aspect:w&#45;&gt;mat:e</title>
<path fill="none" stroke="#000000" d="M638.3693,-392.2665C622.0149,-379.6915 625.4632,-344.7 598,-344.7"/>
<polygon fill="#000000" stroke="#000000" points="644.8669,-394.3051 651.4223,-400.1349 648.6834,-395.5025 652.5,-396.7 652.5,-396.7 652.5,-396.7 648.6834,-395.5025 653.5777,-393.2651 644.8669,-394.3051 644.8669,-394.3051"/>
<ellipse fill="none" stroke="#000000" cx="641.8136" cy="-393.3471" rx="3.2" ry="3.2"/>
</g>
<!-- aspect -->
<g id="node4" class="node">
<title>aspect</title>
<g id="a_node4"><a xlink:href="../../tables/aspect.html" xlink:title="aspect" target="_top">
<polygon fill="#ffffff" stroke="transparent" points="418.5,-415.2 418.5,-476.2 519.5,-476.2 519.5,-415.2 418.5,-415.2"/>
<polygon fill="#f5f5f5" stroke="transparent" points="419,-452.7 419,-475.7 520,-475.7 520,-452.7 419,-452.7"/>
<polygon fill="none" stroke="#000000" points="419,-452.7 419,-475.7 520,-475.7 520,-452.7 419,-452.7"/>
<text text-anchor="start" x="424" y="-461.3" font-family="Helvetica,sans-Serif" font-weight="bold" font-size="11.00" fill="#000000">aspect</text>
<text text-anchor="start" x="485.0437" y="-460.8" font-family="Helvetica,sans-Serif" font-size="11.00" fill="#000000">[table]</text>
<polygon fill="none" stroke="#000000" points="419,-433.7 419,-452.7 520,-452.7 520,-433.7 419,-433.7"/>
<text text-anchor="start" x="422" y="-439.8" font-family="Helvetica,sans-Serif" font-size="11.00" fill="#000000">...</text>
<polygon fill="#ffffff" stroke="transparent" points="419,-414.7 419,-433.7 440,-433.7 440,-414.7 419,-414.7"/>
<polygon fill="none" stroke="#000000" points="419,-414.7 419,-433.7 440,-433.7 440,-414.7 419,-414.7"/>
<text text-anchor="start" x="421.7027" y="-420.8" font-family="Helvetica,sans-Serif" font-size="11.00" fill="#000000">&lt; 1</text>
<polygon fill="#ffffff" stroke="transparent" points="440,-414.7 440,-433.7 499,-433.7 499,-414.7 440,-414.7"/>
<polygon fill="none" stroke="#000000" points="440,-414.7 440,-433.7 499,-433.7 499,-414.7 440,-414.7"/>
<text text-anchor="start" x="442.6045" y="-420.8" font-family="Helvetica,sans-Serif" font-size="11.00" fill="#000000">2.300 rows</text>
<polygon fill="#ffffff" stroke="transparent" points="499,-414.7 499,-433.7 520,-433.7 520,-414.7 499,-414.7"/>
<polygon fill="none" stroke="#000000" points="499,-414.7 499,-433.7 520,-433.7 520,-414.7 499,-414.7"/>
<text text-anchor="start" x="501.7027" y="-420.8" font-family="Helvetica,sans-Serif" font-size="11.00" fill="#000000">6 &gt;</text>
</a>
</g>
</g>
<!-- mat_aspect&#45;&gt;aspect -->
<g id="edge2" class="edge">
<title>mat_aspect:w&#45;&gt;aspect:e</title>
<path fill="none" stroke="#000000" d="M638.1879,-377.7985C602.861,-391.1013 548.8294,-442.7 520,-442.7"/>
<polygon fill="#000000" stroke="#000000" points="644.6811,-376.3928 653.2618,-378.2185 648.5906,-375.5464 652.5,-374.7 652.5,-374.7 652.5,-374.7 648.5906,-375.5464 651.7382,-371.1815 644.6811,-376.3928 644.6811,-376.3928"/>
<ellipse fill="none" stroke="#000000" cx="641.5536" cy="-377.0699" rx="3.2" ry="3.2"/>
</g>
<!-- mat_mat_dr -->
<g id="node5" class="node">
<title>mat_mat_dr</title>
<g id="a_node5"><a xlink:href="../../tables/mat_mat_dr.html" xlink:title="mat_mat_dr" target="_top">
<polygon fill="#ffffff" stroke="transparent" points="651.5,-110.7 651.5,-196.7 769.5,-196.7 769.5,-110.7 651.5,-110.7"/>
<polygon fill="#f5f5f5" stroke="transparent" points="651.5,-173.7 651.5,-196.7 769.5,-196.7 769.5,-173.7 651.5,-173.7"/>
<polygon fill="none" stroke="#000000" points="651.5,-173.7 651.5,-196.7 769.5,-196.7 769.5,-173.7 651.5,-173.7"/>
<text text-anchor="start" x="656.5" y="-182.3" font-family="Helvetica,sans-Serif" font-weight="bold" font-size="11.00" fill="#000000">mat_mat_dr</text>
<text text-anchor="start" x="735.0219" y="-181.8" font-family="Helvetica,sans-Serif" font-size="11.00" fill="#000000">[table]</text>
<polygon fill="none" stroke="#000000" points="651.5,-151.7 651.5,-173.7 769.5,-173.7 769.5,-151.7 651.5,-151.7"/>
<image xlink:href="../../images/primaryKeys.png" width="11px" height="12px" preserveAspectRatio="xMinYMin meet" x="656.5" y="-168.7"/>
<text text-anchor="start" x="680.5" y="-158.8" font-family="Helvetica,sans-Serif" font-size="11.00" fill="#000000">mat_id</text>
<polygon fill="none" stroke="#000000" points="651.5,-129.7 651.5,-151.7 769.5,-151.7 769.5,-129.7 651.5,-129.7"/>
<image xlink:href="../../images/primaryKeys.png" width="11px" height="12px" preserveAspectRatio="xMinYMin meet" x="656.5" y="-146.7"/>
<text text-anchor="start" x="680.5" y="-136.8" font-family="Helvetica,sans-Serif" font-size="11.00" fill="#000000">rule_id</text>
<polygon fill="#ffffff" stroke="transparent" points="651.5,-110.7 651.5,-129.7 695.5,-129.7 695.5,-110.7 651.5,-110.7"/>
<polygon fill="none" stroke="#000000" points="651.5,-110.7 651.5,-129.7 695.5,-129.7 695.5,-110.7 651.5,-110.7"/>
<text text-anchor="start" x="654.5" y="-116.8" font-family="Helvetica,sans-Serif" font-size="11.00" fill="#000000">&lt; 2</text>
<polygon fill="#ffffff" stroke="transparent" points="695.5,-110.7 695.5,-129.7 745.5,-129.7 745.5,-110.7 695.5,-110.7"/>
<polygon fill="none" stroke="#000000" points="695.5,-110.7 695.5,-129.7 745.5,-129.7 745.5,-110.7 695.5,-110.7"/>
<text text-anchor="start" x="710.1105" y="-116.8" font-family="Helvetica,sans-Serif" font-size="11.00" fill="#000000">0 rows</text>
<polygon fill="#ffffff" stroke="transparent" points="745.5,-110.7 745.5,-129.7 769.5,-129.7 769.5,-110.7 745.5,-110.7"/>
<polygon fill="none" stroke="#000000" points="745.5,-110.7 745.5,-129.7 769.5,-129.7 769.5,-110.7 745.5,-110.7"/>
<text text-anchor="start" x="760.3862" y="-116.8" font-family="Helvetica,sans-Serif" font-size="11.00" fill="#000000"> &#160;</text>
</a>
</g>
</g>
<!-- mat_mat_dr&#45;&gt;mat -->
<g id="edge4" class="edge">
<title>mat_mat_dr:w&#45;&gt;mat:e</title>
<path fill="none" stroke="#000000" d="M637.2252,-165.0012C581.599,-186.0693 676.7125,-344.7 598,-344.7"/>
<polygon fill="#000000" stroke="#000000" points="643.602,-163.9732 652.073,-166.2541 647.551,-163.3366 651.5,-162.7 651.5,-162.7 651.5,-162.7 647.551,-163.3366 650.927,-159.1459 643.602,-163.9732 643.602,-163.9732"/>
<ellipse fill="none" stroke="#000000" cx="640.4427" cy="-164.4825" rx="3.2" ry="3.2"/>
</g>
<!-- mat_dr -->
<g id="node6" class="node">
<title>mat_dr</title>
<g id="a_node6"><a xlink:href="../../tables/mat_dr.html" xlink:title="mat_dr" target="_top">
<polygon fill="#ffffff" stroke="transparent" points="426.5,-120.2 426.5,-181.2 511.5,-181.2 511.5,-120.2 426.5,-120.2"/>
<polygon fill="#f5f5f5" stroke="transparent" points="427,-157.7 427,-180.7 512,-180.7 512,-157.7 427,-157.7"/>
<polygon fill="none" stroke="#000000" points="427,-157.7 427,-180.7 512,-180.7 512,-157.7 427,-157.7"/>
<text text-anchor="start" x="432" y="-166.3" font-family="Helvetica,sans-Serif" font-weight="bold" font-size="11.00" fill="#000000">mat_dr</text>
<text text-anchor="start" x="477.5219" y="-165.8" font-family="Helvetica,sans-Serif" font-size="11.00" fill="#000000">[table]</text>
<polygon fill="none" stroke="#000000" points="427,-138.7 427,-157.7 512,-157.7 512,-138.7 427,-138.7"/>
<text text-anchor="start" x="430" y="-144.8" font-family="Helvetica,sans-Serif" font-size="11.00" fill="#000000">...</text>
<polygon fill="#ffffff" stroke="transparent" points="427,-119.7 427,-138.7 450,-138.7 450,-119.7 427,-119.7"/>
<polygon fill="none" stroke="#000000" points="427,-119.7 427,-138.7 450,-138.7 450,-119.7 427,-119.7"/>
<text text-anchor="start" x="430" y="-125.8" font-family="Helvetica,sans-Serif" font-size="11.00" fill="#000000">&lt; 1</text>
<polygon fill="#ffffff" stroke="transparent" points="450,-119.7 450,-138.7 489,-138.7 489,-119.7 450,-119.7"/>
<polygon fill="none" stroke="#000000" points="450,-119.7 450,-138.7 489,-138.7 489,-119.7 450,-119.7"/>
<text text-anchor="start" x="453.6105" y="-125.8" font-family="Helvetica,sans-Serif" font-size="11.00" fill="#000000">0 rows</text>
<polygon fill="#ffffff" stroke="transparent" points="489,-119.7 489,-138.7 512,-138.7 512,-119.7 489,-119.7"/>
<polygon fill="none" stroke="#000000" points="489,-119.7 489,-138.7 512,-138.7 512,-119.7 489,-119.7"/>
<text text-anchor="start" x="493.4053" y="-125.8" font-family="Helvetica,sans-Serif" font-size="11.00" fill="#000000">1 &gt;</text>
</a>
</g>
</g>
<!-- mat_mat_dr&#45;&gt;mat_dr -->
<g id="edge5" class="edge">
<title>mat_mat_dr:w&#45;&gt;mat_dr:e</title>
<path fill="none" stroke="#000000" d="M636.7928,-140.8398C586.515,-141.8264 568.8644,-147.7 512,-147.7"/>
<polygon fill="#000000" stroke="#000000" points="643.5004,-140.7761 651.5342,-144.2998 647.5002,-140.7381 651.5,-140.7 651.5,-140.7 651.5,-140.7 647.5002,-140.7381 651.4658,-137.1002 643.5004,-140.7761 643.5004,-140.7761"/>
<ellipse fill="none" stroke="#000000" cx="640.3005" cy="-140.8066" rx="3.2" ry="3.2"/>
</g>
<!-- mo_aspect -->
<g id="node7" class="node">
<title>mo_aspect</title>
<g id="a_node7"><a xlink:href="../../tables/mo_aspect.html" xlink:title="mo_aspect" target="_top">
<polygon fill="#ffffff" stroke="transparent" points="655.5,-479.2 655.5,-540.2 765.5,-540.2 765.5,-479.2 655.5,-479.2"/>
<polygon fill="#f5f5f5" stroke="transparent" points="655.5,-516.7 655.5,-539.7 765.5,-539.7 765.5,-516.7 655.5,-516.7"/>
<polygon fill="none" stroke="#000000" points="655.5,-516.7 655.5,-539.7 765.5,-539.7 765.5,-516.7 655.5,-516.7"/>
<text text-anchor="start" x="660.5" y="-525.3" font-family="Helvetica,sans-Serif" font-weight="bold" font-size="11.00" fill="#000000">mo_aspect</text>
<text text-anchor="start" x="731.0219" y="-524.8" font-family="Helvetica,sans-Serif" font-size="11.00" fill="#000000">[table]</text>
<polygon fill="none" stroke="#000000" points="655.5,-497.7 655.5,-516.7 765.5,-516.7 765.5,-497.7 655.5,-497.7"/>
<text text-anchor="start" x="658.5" y="-503.8" font-family="Helvetica,sans-Serif" font-size="11.00" fill="#000000">...</text>
<polygon fill="#ffffff" stroke="transparent" points="655.5,-478.7 655.5,-497.7 685.5,-497.7 685.5,-478.7 655.5,-478.7"/>
<polygon fill="none" stroke="#000000" points="655.5,-478.7 655.5,-497.7 685.5,-497.7 685.5,-478.7 655.5,-478.7"/>
<text text-anchor="start" x="658.5" y="-484.8" font-family="Helvetica,sans-Serif" font-size="11.00" fill="#000000">&lt; 2</text>
<polygon fill="#ffffff" stroke="transparent" points="685.5,-478.7 685.5,-497.7 748.5,-497.7 748.5,-478.7 685.5,-478.7"/>
<polygon fill="none" stroke="#000000" points="685.5,-478.7 685.5,-497.7 748.5,-497.7 748.5,-478.7 685.5,-478.7"/>
<text text-anchor="start" x="691.7089" y="-484.8" font-family="Helvetica,sans-Serif" font-size="11.00" fill="#000000">2.000 rows</text>
<polygon fill="#ffffff" stroke="transparent" points="748.5,-478.7 748.5,-497.7 765.5,-497.7 765.5,-478.7 748.5,-478.7"/>
<polygon fill="none" stroke="#000000" points="748.5,-478.7 748.5,-497.7 765.5,-497.7 765.5,-478.7 748.5,-478.7"/>
<text text-anchor="start" x="756.3862" y="-484.8" font-family="Helvetica,sans-Serif" font-size="11.00" fill="#000000"> &#160;</text>
</a>
</g>
</g>
<!-- mo_aspect&#45;&gt;moving_object -->
<g id="edge7" class="edge">
<title>mo_aspect:w&#45;&gt;moving_object:e</title>
<path fill="none" stroke="#000000" d="M641.016,-506.9756C559.5825,-509.7103 381.737,-530.9541 330,-486.7 265.6716,-431.6756 373.6512,-300.7 289,-300.7"/>
<polygon fill="#000000" stroke="#000000" points="647.5014,-506.8523 655.5685,-510.2993 651.5007,-506.7761 655.5,-506.7 655.5,-506.7 655.5,-506.7 651.5007,-506.7761 655.4315,-503.1007 647.5014,-506.8523 647.5014,-506.8523"/>
<ellipse fill="none" stroke="#000000" cx="644.302" cy="-506.9132" rx="3.2" ry="3.2"/>
</g>
<!-- mo_aspect&#45;&gt;aspect -->
<g id="edge6" class="edge">
<title>mo_aspect:w&#45;&gt;aspect:e</title>
<path fill="none" stroke="#000000" d="M640.9999,-503.7837C605.0278,-491.2635 549.0082,-442.7 520,-442.7"/>
<polygon fill="#000000" stroke="#000000" points="647.657,-505.1226 654.7902,-510.2293 651.5785,-505.9113 655.5,-506.7 655.5,-506.7 655.5,-506.7 651.5785,-505.9113 656.2098,-503.1707 647.657,-505.1226 647.657,-505.1226"/>
<ellipse fill="none" stroke="#000000" cx="644.5199" cy="-504.4916" rx="3.2" ry="3.2"/>
</g>
<!-- mo_relationship -->
<g id="node8" class="node">
<title>mo_relationship</title>
<g id="a_node8"><a xlink:href="../../tables/mo_relationship.html" xlink:title="mo_relationship" target="_top">
<polygon fill="#ffffff" stroke="transparent" points="395.5,-38.2 395.5,-99.2 542.5,-99.2 542.5,-38.2 395.5,-38.2"/>
<polygon fill="#f5f5f5" stroke="transparent" points="396,-75.7 396,-98.7 543,-98.7 543,-75.7 396,-75.7"/>
<polygon fill="none" stroke="#000000" points="396,-75.7 396,-98.7 543,-98.7 543,-75.7 396,-75.7"/>
<text text-anchor="start" x="401" y="-84.3" font-family="Helvetica,sans-Serif" font-weight="bold" font-size="11.00" fill="#000000">mo_relationship</text>
<text text-anchor="start" x="508.5219" y="-83.8" font-family="Helvetica,sans-Serif" font-size="11.00" fill="#000000">[table]</text>
<polygon fill="none" stroke="#000000" points="396,-56.7 396,-75.7 543,-75.7 543,-56.7 396,-56.7"/>
<text text-anchor="start" x="399" y="-62.8" font-family="Helvetica,sans-Serif" font-size="11.00" fill="#000000">...</text>
<polygon fill="#ffffff" stroke="transparent" points="396,-37.7 396,-56.7 450,-56.7 450,-37.7 396,-37.7"/>
<polygon fill="none" stroke="#000000" points="396,-37.7 396,-56.7 450,-56.7 450,-37.7 396,-37.7"/>
<text text-anchor="start" x="399" y="-43.8" font-family="Helvetica,sans-Serif" font-size="11.00" fill="#000000">&lt; 2</text>
<polygon fill="#ffffff" stroke="transparent" points="450,-37.7 450,-56.7 505,-56.7 505,-37.7 450,-37.7"/>
<polygon fill="none" stroke="#000000" points="450,-37.7 450,-56.7 505,-56.7 505,-37.7 450,-37.7"/>
<text text-anchor="start" x="469.6105" y="-43.8" font-family="Helvetica,sans-Serif" font-size="11.00" fill="#000000">0 rows</text>
<polygon fill="#ffffff" stroke="transparent" points="505,-37.7 505,-56.7 543,-56.7 543,-37.7 505,-37.7"/>
<polygon fill="none" stroke="#000000" points="505,-37.7 505,-56.7 543,-56.7 543,-37.7 505,-37.7"/>
<text text-anchor="start" x="524.4053" y="-43.8" font-family="Helvetica,sans-Serif" font-size="11.00" fill="#000000">2 &gt;</text>
</a>
</g>
</g>
<!-- mo_relationship&#45;&gt;moving_object -->
<g id="edge8" class="edge">
<title>mo_relationship:w&#45;&gt;moving_object:e</title>
<path fill="none" stroke="#000000" d="M381.4643,-64.3861C357.2109,-64.5555 346.8025,-78.9876 330,-103.7 281.1827,-175.4986 375.8227,-294.7 289,-300.7"/>
<polygon fill="#000000" stroke="#000000" points="388.0325,-64.9798 395.6759,-69.2854 392.0162,-65.3399 396,-65.7 396,-65.7 396,-65.7 392.0162,-65.3399 396.3241,-62.1146 388.0325,-64.9798 388.0325,-64.9798"/>
<ellipse fill="none" stroke="#000000" cx="384.8455" cy="-64.6917" rx="3.2" ry="3.2"/>
</g>
<!-- mo_relationship&#45;&gt;moving_object -->
<g id="edge9" class="edge">
<title>mo_relationship:w&#45;&gt;moving_object:e</title>
<path fill="none" stroke="#000000" d="M381.8004,-69.357C357.3067,-77.4227 346.8799,-91.8737 330,-116.7 281.1827,-188.4986 375.8227,-307.7 289,-300.7"/>
<polygon fill="#000000" stroke="#000000" points="388.2528,-67.6953 396.8979,-69.1862 392.1264,-66.6976 396,-65.7 396,-65.7 396,-65.7 392.1264,-66.6976 395.1021,-62.2138 388.2528,-67.6953 388.2528,-67.6953"/>
<ellipse fill="none" stroke="#000000" cx="385.1539" cy="-68.4934" rx="3.2" ry="3.2"/>
</g>
<!-- moving_object_mo_dr -->
<g id="node10" class="node">
<title>moving_object_mo_dr</title>
<g id="a_node10"><a xlink:href="../../tables/moving_object_mo_dr.html" xlink:title="moving_object_mo_dr" target="_top">
<polygon fill="#ffffff" stroke="transparent" points="377,-525.2 377,-586.2 561,-586.2 561,-525.2 377,-525.2"/>
<polygon fill="#f5f5f5" stroke="transparent" points="377,-562.7 377,-585.7 561,-585.7 561,-562.7 377,-562.7"/>
<polygon fill="none" stroke="#000000" points="377,-562.7 377,-585.7 561,-585.7 561,-562.7 377,-562.7"/>
<text text-anchor="start" x="382" y="-571.3" font-family="Helvetica,sans-Serif" font-weight="bold" font-size="11.00" fill="#000000">moving_object_mo_dr</text>
<text text-anchor="start" x="526.5219" y="-570.8" font-family="Helvetica,sans-Serif" font-size="11.00" fill="#000000">[table]</text>
<polygon fill="none" stroke="#000000" points="377,-543.7 377,-562.7 561,-562.7 561,-543.7 377,-543.7"/>
<text text-anchor="start" x="380" y="-549.8" font-family="Helvetica,sans-Serif" font-size="11.00" fill="#000000">...</text>
<polygon fill="#ffffff" stroke="transparent" points="377,-524.7 377,-543.7 454,-543.7 454,-524.7 377,-524.7"/>
<polygon fill="none" stroke="#000000" points="377,-524.7 377,-543.7 454,-543.7 454,-524.7 377,-524.7"/>
<text text-anchor="start" x="380" y="-530.8" font-family="Helvetica,sans-Serif" font-size="11.00" fill="#000000">&lt; 2</text>
<polygon fill="#ffffff" stroke="transparent" points="454,-524.7 454,-543.7 520,-543.7 520,-524.7 454,-524.7"/>
<polygon fill="none" stroke="#000000" points="454,-524.7 454,-543.7 520,-543.7 520,-524.7 454,-524.7"/>
<text text-anchor="start" x="484.6105" y="-530.8" font-family="Helvetica,sans-Serif" font-size="11.00" fill="#000000">0 rows</text>
<polygon fill="#ffffff" stroke="transparent" points="520,-524.7 520,-543.7 561,-543.7 561,-524.7 520,-524.7"/>
<polygon fill="none" stroke="#000000" points="520,-524.7 520,-543.7 561,-543.7 561,-524.7 520,-524.7"/>
<text text-anchor="start" x="551.8862" y="-530.8" font-family="Helvetica,sans-Serif" font-size="11.00" fill="#000000"> &#160;</text>
</a>
</g>
</g>
<!-- moving_object_mo_dr&#45;&gt;moving_object -->
<g id="edge11" class="edge">
<title>moving_object_mo_dr:w&#45;&gt;moving_object:e</title>
<path fill="none" stroke="#000000" d="M362.496,-550.6071C346.5401,-545.2534 341.0373,-530.1043 330,-510.7 306.4915,-469.3703 336.5478,-300.7 289,-300.7"/>
<polygon fill="#000000" stroke="#000000" points="369.082,-551.5574 376.4858,-556.2631 373.041,-552.1287 377,-552.7 377,-552.7 377,-552.7 373.041,-552.1287 377.5142,-549.1369 369.082,-551.5574 369.082,-551.5574"/>
<ellipse fill="none" stroke="#000000" cx="365.9148" cy="-551.1004" rx="3.2" ry="3.2"/>
</g>
<!-- point -->
<g id="node11" class="node">
<title>point</title>
<g id="a_node11"><a xlink:href="../../tables/point.html" xlink:title="point" target="_top">
<polygon fill="#ffffff" stroke="transparent" points="649,-218.2 649,-323.2 772,-323.2 772,-218.2 649,-218.2"/>
<polygon fill="#f5f5f5" stroke="transparent" points="649.5,-299.7 649.5,-322.7 772.5,-322.7 772.5,-299.7 649.5,-299.7"/>
<polygon fill="none" stroke="#000000" points="649.5,-299.7 649.5,-322.7 772.5,-322.7 772.5,-299.7 649.5,-299.7"/>
<text text-anchor="start" x="654.5" y="-308.3" font-family="Helvetica,sans-Serif" font-weight="bold" font-size="11.00" fill="#000000">point</text>
<text text-anchor="start" x="737.5437" y="-307.8" font-family="Helvetica,sans-Serif" font-size="11.00" fill="#000000">[table]</text>
<polygon fill="none" stroke="#000000" points="649.5,-277.7 649.5,-299.7 772.5,-299.7 772.5,-277.7 649.5,-277.7"/>
<image xlink:href="../../images/primaryKeys.png" width="11px" height="12px" preserveAspectRatio="xMinYMin meet" x="654.5" y="-294.7"/>
<text text-anchor="start" x="694.5" y="-284.8" font-family="Helvetica,sans-Serif" font-size="11.00" fill="#000000">point_id</text>
<polygon fill="#ffffff" stroke="transparent" points="649.5,-255.7 649.5,-277.7 772.5,-277.7 772.5,-255.7 649.5,-255.7"/>
<polygon fill="none" stroke="#000000" points="649.5,-255.7 649.5,-277.7 772.5,-277.7 772.5,-255.7 649.5,-255.7"/>
<image xlink:href="../../images/foreignKeys.png" width="11px" height="12px" preserveAspectRatio="xMinYMin meet" x="654.5" y="-272.7"/>
<text text-anchor="start" x="694.5" y="-262.8" font-family="Helvetica,sans-Serif" font-size="11.00" fill="#000000">mat_id</text>
<polygon fill="none" stroke="#000000" points="649.5,-236.7 649.5,-255.7 772.5,-255.7 772.5,-236.7 649.5,-236.7"/>
<text text-anchor="start" x="652.5" y="-242.8" font-family="Helvetica,sans-Serif" font-size="11.00" fill="#000000">...</text>
<polygon fill="#ffffff" stroke="transparent" points="649.5,-217.7 649.5,-236.7 670.5,-236.7 670.5,-217.7 649.5,-217.7"/>
<polygon fill="none" stroke="#000000" points="649.5,-217.7 649.5,-236.7 670.5,-236.7 670.5,-217.7 649.5,-217.7"/>
<text text-anchor="start" x="652.2026" y="-223.8" font-family="Helvetica,sans-Serif" font-size="11.00" fill="#000000">&lt; 1</text>
<polygon fill="#ffffff" stroke="transparent" points="670.5,-217.7 670.5,-236.7 751.5,-236.7 751.5,-217.7 670.5,-217.7"/>
<polygon fill="none" stroke="#000000" points="670.5,-217.7 670.5,-236.7 751.5,-236.7 751.5,-217.7 670.5,-217.7"/>
<text text-anchor="start" x="673.4037" y="-223.8" font-family="Helvetica,sans-Serif" font-size="11.00" fill="#000000">1.039.258 rows</text>
<polygon fill="#ffffff" stroke="transparent" points="751.5,-217.7 751.5,-236.7 772.5,-236.7 772.5,-217.7 751.5,-217.7"/>
<polygon fill="none" stroke="#000000" points="751.5,-217.7 751.5,-236.7 772.5,-236.7 772.5,-217.7 751.5,-217.7"/>
<text text-anchor="start" x="754.2026" y="-223.8" font-family="Helvetica,sans-Serif" font-size="11.00" fill="#000000">4 &gt;</text>
</a>
</g>
</g>
<!-- point&#45;&gt;mat -->
<g id="edge12" class="edge">
<title>point:w&#45;&gt;mat:e</title>
<path fill="none" stroke="#000000" d="M635.6289,-271.1171C615.5605,-287.6175 633.5373,-344.7 598,-344.7"/>
<polygon fill="#000000" stroke="#000000" points="641.8772,-269.1275 650.5924,-270.1303 645.6886,-267.9137 649.5,-266.7 649.5,-266.7 649.5,-266.7 645.6886,-267.9137 648.4076,-263.2697 641.8772,-269.1275 641.8772,-269.1275"/>
<ellipse fill="none" stroke="#000000" cx="638.828" cy="-270.0984" rx="3.2" ry="3.2"/>
</g>
<!-- point_aspect -->
<g id="node12" class="node">
<title>point_aspect</title>
<g id="a_node12"><a xlink:href="../../tables/point_aspect.html" xlink:title="point_aspect" target="_top">
<polygon fill="#ffffff" stroke="transparent" points="826,-399.2 826,-460.2 951,-460.2 951,-399.2 826,-399.2"/>
<polygon fill="#f5f5f5" stroke="transparent" points="826.5,-436.7 826.5,-459.7 951.5,-459.7 951.5,-436.7 826.5,-436.7"/>
<polygon fill="none" stroke="#000000" points="826.5,-436.7 826.5,-459.7 951.5,-459.7 951.5,-436.7 826.5,-436.7"/>
<text text-anchor="start" x="831.5" y="-445.3" font-family="Helvetica,sans-Serif" font-weight="bold" font-size="11.00" fill="#000000">point_aspect</text>
<text text-anchor="start" x="917.0219" y="-444.8" font-family="Helvetica,sans-Serif" font-size="11.00" fill="#000000">[table]</text>
<polygon fill="none" stroke="#000000" points="826.5,-417.7 826.5,-436.7 951.5,-436.7 951.5,-417.7 826.5,-417.7"/>
<text text-anchor="start" x="829.5" y="-423.8" font-family="Helvetica,sans-Serif" font-size="11.00" fill="#000000">...</text>
<polygon fill="#ffffff" stroke="transparent" points="826.5,-398.7 826.5,-417.7 852.5,-417.7 852.5,-398.7 826.5,-398.7"/>
<polygon fill="none" stroke="#000000" points="826.5,-398.7 826.5,-417.7 852.5,-417.7 852.5,-398.7 826.5,-398.7"/>
<text text-anchor="start" x="829.5" y="-404.8" font-family="Helvetica,sans-Serif" font-size="11.00" fill="#000000">&lt; 2</text>
<polygon fill="#ffffff" stroke="transparent" points="852.5,-398.7 852.5,-417.7 936.5,-417.7 936.5,-398.7 852.5,-398.7"/>
<polygon fill="none" stroke="#000000" points="852.5,-398.7 852.5,-417.7 936.5,-417.7 936.5,-398.7 852.5,-398.7"/>
<text text-anchor="start" x="858.3073" y="-404.8" font-family="Helvetica,sans-Serif" font-size="11.00" fill="#000000">1.039.258 rows</text>
<polygon fill="#ffffff" stroke="transparent" points="936.5,-398.7 936.5,-417.7 951.5,-417.7 951.5,-398.7 936.5,-398.7"/>
<polygon fill="none" stroke="#000000" points="936.5,-398.7 936.5,-417.7 951.5,-417.7 951.5,-398.7 936.5,-398.7"/>
<text text-anchor="start" x="942.3862" y="-404.8" font-family="Helvetica,sans-Serif" font-size="11.00" fill="#000000"> &#160;</text>
</a>
</g>
</g>
<!-- point_aspect&#45;&gt;aspect -->
<g id="edge13" class="edge">
<title>point_aspect:w&#45;&gt;aspect:e</title>
<path fill="none" stroke="#000000" d="M812.0626,-428.8946C801.6046,-432.4245 795.5812,-439.2184 780,-441.7 665.882,-459.8757 635.5564,-442.7 520,-442.7"/>
<polygon fill="#000000" stroke="#000000" points="818.5909,-427.9023 827.041,-430.2591 822.5454,-427.3011 826.5,-426.7 826.5,-426.7 826.5,-426.7 822.5454,-427.3011 825.959,-423.1409 818.5909,-427.9023 818.5909,-427.9023"/>
<ellipse fill="none" stroke="#000000" cx="815.4272" cy="-428.3832" rx="3.2" ry="3.2"/>
</g>
<!-- point_aspect&#45;&gt;point -->
<g id="edge14" class="edge">
<title>point_aspect:w&#45;&gt;point:e</title>
<path fill="none" stroke="#000000" d="M812.2666,-423.6893C773.1914,-403.5082 832.5732,-288.7 772.5,-288.7"/>
<polygon fill="#000000" stroke="#000000" points="818.6732,-425.0444 825.755,-430.2221 822.5866,-425.8722 826.5,-426.7 826.5,-426.7 826.5,-426.7 822.5866,-425.8722 827.245,-423.1779 818.6732,-425.0444 818.6732,-425.0444"/>
<ellipse fill="none" stroke="#000000" cx="815.5424" cy="-424.3822" rx="3.2" ry="3.2"/>
</g>
<!-- point_point_dr -->
<g id="node13" class="node">
<title>point_point_dr</title>
<g id="a_node13"><a xlink:href="../../tables/point_point_dr.html" xlink:title="point_point_dr" target="_top">
<polygon fill="#ffffff" stroke="transparent" points="821,-179.2 821,-240.2 956,-240.2 956,-179.2 821,-179.2"/>
<polygon fill="#f5f5f5" stroke="transparent" points="821.5,-216.7 821.5,-239.7 956.5,-239.7 956.5,-216.7 821.5,-216.7"/>
<polygon fill="none" stroke="#000000" points="821.5,-216.7 821.5,-239.7 956.5,-239.7 956.5,-216.7 821.5,-216.7"/>
<text text-anchor="start" x="826.5" y="-225.3" font-family="Helvetica,sans-Serif" font-weight="bold" font-size="11.00" fill="#000000">point_point_dr</text>
<text text-anchor="start" x="922.0219" y="-224.8" font-family="Helvetica,sans-Serif" font-size="11.00" fill="#000000">[table]</text>
<polygon fill="none" stroke="#000000" points="821.5,-197.7 821.5,-216.7 956.5,-216.7 956.5,-197.7 821.5,-197.7"/>
<text text-anchor="start" x="824.5" y="-203.8" font-family="Helvetica,sans-Serif" font-size="11.00" fill="#000000">...</text>
<polygon fill="#ffffff" stroke="transparent" points="821.5,-178.7 821.5,-197.7 874.5,-197.7 874.5,-178.7 821.5,-178.7"/>
<polygon fill="none" stroke="#000000" points="821.5,-178.7 821.5,-197.7 874.5,-197.7 874.5,-178.7 821.5,-178.7"/>
<text text-anchor="start" x="824.5" y="-184.8" font-family="Helvetica,sans-Serif" font-size="11.00" fill="#000000">&lt; 2</text>
<polygon fill="#ffffff" stroke="transparent" points="874.5,-178.7 874.5,-197.7 928.5,-197.7 928.5,-178.7 874.5,-178.7"/>
<polygon fill="none" stroke="#000000" points="874.5,-178.7 874.5,-197.7 928.5,-197.7 928.5,-178.7 874.5,-178.7"/>
<text text-anchor="start" x="893.1105" y="-184.8" font-family="Helvetica,sans-Serif" font-size="11.00" fill="#000000">0 rows</text>
<polygon fill="#ffffff" stroke="transparent" points="928.5,-178.7 928.5,-197.7 956.5,-197.7 956.5,-178.7 928.5,-178.7"/>
<polygon fill="none" stroke="#000000" points="928.5,-178.7 928.5,-197.7 956.5,-197.7 956.5,-178.7 928.5,-178.7"/>
<text text-anchor="start" x="947.3862" y="-184.8" font-family="Helvetica,sans-Serif" font-size="11.00" fill="#000000"> &#160;</text>
</a>
</g>
</g>
<!-- point_point_dr&#45;&gt;point -->
<g id="edge15" class="edge">
<title>point_point_dr:w&#45;&gt;point:e</title>
<path fill="none" stroke="#000000" d="M807.5294,-211.3436C787.788,-228.6902 808.8194,-288.7 772.5,-288.7"/>
<polygon fill="#000000" stroke="#000000" points="813.9084,-209.2234 822.6355,-210.1162 817.7042,-207.9617 821.5,-206.7 821.5,-206.7 821.5,-206.7 817.7042,-207.9617 820.3645,-203.2838 813.9084,-209.2234 813.9084,-209.2234"/>
<ellipse fill="none" stroke="#000000" cx="810.8717" cy="-210.2327" rx="3.2" ry="3.2"/>
</g>
<!-- point_repr_point -->
<g id="node14" class="node">
<title>point_repr_point</title>
<g id="a_node14"><a xlink:href="../../tables/point_repr_point.html" xlink:title="point_repr_point" target="_top">
<polygon fill="#ffffff" stroke="transparent" points="1005,-290.2 1005,-351.2 1155,-351.2 1155,-290.2 1005,-290.2"/>
<polygon fill="#f5f5f5" stroke="transparent" points="1005,-327.7 1005,-350.7 1155,-350.7 1155,-327.7 1005,-327.7"/>
<polygon fill="none" stroke="#000000" points="1005,-327.7 1005,-350.7 1155,-350.7 1155,-327.7 1005,-327.7"/>
<text text-anchor="start" x="1010" y="-336.3" font-family="Helvetica,sans-Serif" font-weight="bold" font-size="11.00" fill="#000000">point_repr_point</text>
<text text-anchor="start" x="1120.5219" y="-335.8" font-family="Helvetica,sans-Serif" font-size="11.00" fill="#000000">[table]</text>
<polygon fill="none" stroke="#000000" points="1005,-308.7 1005,-327.7 1155,-327.7 1155,-308.7 1005,-308.7"/>
<text text-anchor="start" x="1008" y="-314.8" font-family="Helvetica,sans-Serif" font-size="11.00" fill="#000000">...</text>
<polygon fill="#ffffff" stroke="transparent" points="1005,-289.7 1005,-308.7 1065,-308.7 1065,-289.7 1005,-289.7"/>
<polygon fill="none" stroke="#000000" points="1005,-289.7 1005,-308.7 1065,-308.7 1065,-289.7 1005,-289.7"/>
<text text-anchor="start" x="1008" y="-295.8" font-family="Helvetica,sans-Serif" font-size="11.00" fill="#000000">&lt; 2</text>
<polygon fill="#ffffff" stroke="transparent" points="1065,-289.7 1065,-308.7 1123,-308.7 1123,-289.7 1065,-289.7"/>
<polygon fill="none" stroke="#000000" points="1065,-289.7 1065,-308.7 1123,-308.7 1123,-289.7 1065,-289.7"/>
<text text-anchor="start" x="1087.6105" y="-295.8" font-family="Helvetica,sans-Serif" font-size="11.00" fill="#000000">0 rows</text>
<polygon fill="#ffffff" stroke="transparent" points="1123,-289.7 1123,-308.7 1155,-308.7 1155,-289.7 1123,-289.7"/>
<polygon fill="none" stroke="#000000" points="1123,-289.7 1123,-308.7 1155,-308.7 1155,-289.7 1123,-289.7"/>
<text text-anchor="start" x="1145.8862" y="-295.8" font-family="Helvetica,sans-Serif" font-size="11.00" fill="#000000"> &#160;</text>
</a>
</g>
</g>
<!-- point_repr_point&#45;&gt;point -->
<g id="edge16" class="edge">
<title>point_repr_point:w&#45;&gt;point:e</title>
<path fill="none" stroke="#000000" d="M990.741,-320.4972C982.4173,-324.1556 977.1353,-330.3726 964,-332.7 897.9182,-344.4086 874.4578,-359.6601 813,-332.7 788.6604,-322.0228 799.0786,-288.7 772.5,-288.7"/>
<polygon fill="#000000" stroke="#000000" points="997.1496,-319.24 1005.693,-321.2327 1001.0748,-318.47 1005,-317.7 1005,-317.7 1005,-317.7 1001.0748,-318.47 1004.307,-314.1673 997.1496,-319.24 997.1496,-319.24"/>
<ellipse fill="none" stroke="#000000" cx="994.0095" cy="-319.8561" rx="3.2" ry="3.2"/>
</g>
<!-- repr_point -->
<g id="node15" class="node">
<title>repr_point</title>
<g id="a_node15"><a xlink:href="../../tables/repr_point.html" xlink:title="repr_point" target="_top">
<polygon fill="#ffffff" stroke="transparent" points="834.5,-261.2 834.5,-322.2 942.5,-322.2 942.5,-261.2 834.5,-261.2"/>
<polygon fill="#f5f5f5" stroke="transparent" points="834.5,-298.7 834.5,-321.7 942.5,-321.7 942.5,-298.7 834.5,-298.7"/>
<polygon fill="none" stroke="#000000" points="834.5,-298.7 834.5,-321.7 942.5,-321.7 942.5,-298.7 834.5,-298.7"/>
<text text-anchor="start" x="839.5" y="-307.3" font-family="Helvetica,sans-Serif" font-weight="bold" font-size="11.00" fill="#000000">repr_point</text>
<text text-anchor="start" x="908.0219" y="-306.8" font-family="Helvetica,sans-Serif" font-size="11.00" fill="#000000">[table]</text>
<polygon fill="none" stroke="#000000" points="834.5,-279.7 834.5,-298.7 942.5,-298.7 942.5,-279.7 834.5,-279.7"/>
<text text-anchor="start" x="837.5" y="-285.8" font-family="Helvetica,sans-Serif" font-size="11.00" fill="#000000">...</text>
<polygon fill="#ffffff" stroke="transparent" points="834.5,-260.7 834.5,-279.7 869.5,-279.7 869.5,-260.7 834.5,-260.7"/>
<polygon fill="none" stroke="#000000" points="834.5,-260.7 834.5,-279.7 869.5,-279.7 869.5,-260.7 834.5,-260.7"/>
<text text-anchor="start" x="837.5" y="-266.8" font-family="Helvetica,sans-Serif" font-size="11.00" fill="#000000">&lt; 1</text>
<polygon fill="#ffffff" stroke="transparent" points="869.5,-260.7 869.5,-279.7 914.5,-279.7 914.5,-260.7 869.5,-260.7"/>
<polygon fill="none" stroke="#000000" points="869.5,-260.7 869.5,-279.7 914.5,-279.7 914.5,-260.7 869.5,-260.7"/>
<text text-anchor="start" x="879.1105" y="-266.8" font-family="Helvetica,sans-Serif" font-size="11.00" fill="#000000">0 rows</text>
<polygon fill="#ffffff" stroke="transparent" points="914.5,-260.7 914.5,-279.7 942.5,-279.7 942.5,-260.7 914.5,-260.7"/>
<polygon fill="none" stroke="#000000" points="914.5,-260.7 914.5,-279.7 942.5,-279.7 942.5,-260.7 914.5,-260.7"/>
<text text-anchor="start" x="923.9053" y="-266.8" font-family="Helvetica,sans-Serif" font-size="11.00" fill="#000000">1 &gt;</text>
</a>
</g>
</g>
<!-- point_repr_point&#45;&gt;repr_point -->
<g id="edge17" class="edge">
<title>point_repr_point:w&#45;&gt;repr_point:e</title>
<path fill="none" stroke="#000000" d="M990.7399,-315.1264C972.9269,-308.0291 967.5003,-288.7 942.5,-288.7"/>
<polygon fill="#000000" stroke="#000000" points="997.1272,-316.2791 1004.3606,-321.2428 1001.0636,-316.9896 1005,-317.7 1005,-317.7 1005,-317.7 1001.0636,-316.9896 1005.6394,-314.1572 997.1272,-316.2791 997.1272,-316.2791"/>
<ellipse fill="none" stroke="#000000" cx="993.9781" cy="-315.7108" rx="3.2" ry="3.2"/>
</g>
<!-- repr_point&#45;&gt;point -->
<g id="edge18" class="edge">
<title>repr_point:w&#45;&gt;point:e</title>
<path fill="none" stroke="#000000" d="M823.9861,-288.7C804.5983,-288.7 796.1806,-288.7 772.5,-288.7"/>
<polygon fill="#000000" stroke="#000000" points="833.7,-284.7 833.7,-292.7 832.1,-292.7 832.1,-284.7 833.7,-284.7"/>
<polyline fill="none" stroke="#000000" points="834.5,-288.7 830.5,-288.7 "/>
<ellipse fill="none" stroke="#000000" cx="827.3" cy="-288.7001" rx="3.2" ry="3.2"/>
</g>
</g>
</svg>
