<?xml version="1.0" encoding="UTF-8" standalone="no"?>
<!DOCTYPE svg PUBLIC "-//W3C//DTD SVG 1.1//EN"
 "http://www.w3.org/Graphics/SVG/1.1/DTD/svg11.dtd">
<!-- Generated by graphviz version 2.40.1 (20161225.0304)
 -->
<!-- Title: oneDegreeRelationshipsDiagram Pages: 1 -->
<svg width="348pt" height="325pt"
 viewBox="0.00 0.00 348.00 325.20" xmlns="http://www.w3.org/2000/svg" xmlns:xlink="http://www.w3.org/1999/xlink">
<g id="graph0" class="graph" transform="scale(1 1) rotate(0) translate(4 321.2)">
<title>oneDegreeRelationshipsDiagram</title>
<polygon fill="#ffffff" stroke="transparent" points="-4,4 -4,-321.2 344,-321.2 344,4 -4,4"/>
<text text-anchor="middle" x="72.4936" y="-7.3" font-family="Helvetica,sans-Serif" font-size="11.00" fill="#000000">Generated by SchemaSpy</text>
<!-- mat_aspect -->
<g id="node1" class="node">
<title>mat_aspect</title>
<g id="a_node1"><a xlink:href="../../tables/mat_aspect.html" xlink:title="mat_aspect" target="_top">
<polygon fill="#ffffff" stroke="transparent" points="188,-161.7 188,-251.7 332,-251.7 332,-161.7 188,-161.7"/>
<polygon fill="#f5f5f5" stroke="transparent" points="190,-226.7 190,-249.7 330,-249.7 330,-226.7 190,-226.7"/>
<polygon fill="none" stroke="#000000" points="190,-226.7 190,-249.7 330,-249.7 330,-226.7 190,-226.7"/>
<text text-anchor="start" x="195" y="-235.3" font-family="Helvetica,sans-Serif" font-weight="bold" font-size="11.00" fill="#000000">mat_aspect</text>
<text text-anchor="start" x="295.0437" y="-234.8" font-family="Helvetica,sans-Serif" font-size="11.00" fill="#000000">[table]</text>
<polygon fill="none" stroke="#000000" points="190,-204.7 190,-226.7 288,-226.7 288,-204.7 190,-204.7"/>
<image xlink:href="../../images/primaryKeys.png" width="11px" height="12px" preserveAspectRatio="xMinYMin meet" x="195" y="-221.7"/>
<text text-anchor="start" x="210" y="-211.8" font-family="Helvetica,sans-Serif" font-size="11.00" fill="#000000">mat_id</text>
<polygon fill="none" stroke="#000000" points="288,-204.7 288,-226.7 330,-226.7 330,-204.7 288,-204.7"/>
<text text-anchor="start" x="290.9644" y="-212.4" font-family="Helvetica,sans-Serif" font-size="11.00" fill="#000000">int4[10]</text>
<polygon fill="none" stroke="#000000" points="190,-182.7 190,-204.7 288,-204.7 288,-182.7 190,-182.7"/>
<image xlink:href="../../images/primaryKeys.png" width="11px" height="12px" preserveAspectRatio="xMinYMin meet" x="195" y="-199.7"/>
<text text-anchor="start" x="210" y="-189.8" font-family="Helvetica,sans-Serif" font-size="11.00" fill="#000000">aspect_id</text>
<polygon fill="none" stroke="#000000" points="288,-182.7 288,-204.7 330,-204.7 330,-182.7 288,-182.7"/>
<text text-anchor="start" x="290.9644" y="-190.4" font-family="Helvetica,sans-Serif" font-size="11.00" fill="#000000">int4[10]</text>
<polygon fill="#ffffff" stroke="transparent" points="190,-163.7 190,-182.7 230,-182.7 230,-163.7 190,-163.7"/>
<polygon fill="none" stroke="#000000" points="190,-163.7 190,-182.7 230,-182.7 230,-163.7 190,-163.7"/>
<text text-anchor="start" x="193" y="-169.8" font-family="Helvetica,sans-Serif" font-size="11.00" fill="#000000">&lt; 2</text>
<polygon fill="#ffffff" stroke="transparent" points="230,-163.7 230,-182.7 288,-182.7 288,-163.7 230,-163.7"/>
<polygon fill="none" stroke="#000000" points="230,-163.7 230,-182.7 288,-182.7 288,-163.7 230,-163.7"/>
<text text-anchor="start" x="252.6105" y="-169.8" font-family="Helvetica,sans-Serif" font-size="11.00" fill="#000000">0 rows</text>
<polygon fill="#ffffff" stroke="transparent" points="288,-163.7 288,-182.7 330,-182.7 330,-163.7 288,-163.7"/>
<polygon fill="none" stroke="#000000" points="288,-163.7 288,-182.7 330,-182.7 330,-163.7 288,-163.7"/>
<text text-anchor="start" x="311.4053" y="-169.8" font-family="Helvetica,sans-Serif" font-size="11.00" fill="#000000">0 &gt;</text>
<polygon fill="none" stroke="#000000" stroke-width="2" points="189,-162.7 189,-250.7 331,-250.7 331,-162.7 189,-162.7"/>
</a>
</g>
</g>
<!-- aspect -->
<g id="node2" class="node">
<title>aspect</title>
<g id="a_node2"><a xlink:href="../../tables/aspect.html" xlink:title="aspect" target="_top">
<polygon fill="#ffffff" stroke="transparent" points="13.5,-38.2 13.5,-165.2 133.5,-165.2 133.5,-38.2 13.5,-38.2"/>
<polygon fill="#f5f5f5" stroke="transparent" points="13.5,-141.7 13.5,-164.7 133.5,-164.7 133.5,-141.7 13.5,-141.7"/>
<polygon fill="none" stroke="#000000" points="13.5,-141.7 13.5,-164.7 133.5,-164.7 133.5,-141.7 13.5,-141.7"/>
<text text-anchor="start" x="18.5" y="-150.3" font-family="Helvetica,sans-Serif" font-weight="bold" font-size="11.00" fill="#000000">aspect</text>
<text text-anchor="start" x="98.5437" y="-149.8" font-family="Helvetica,sans-Serif" font-size="11.00" fill="#000000">[table]</text>
<polygon fill="none" stroke="#000000" points="13.5,-119.7 13.5,-141.7 133.5,-141.7 133.5,-119.7 13.5,-119.7"/>
<image xlink:href="../../images/primaryKeys.png" width="11px" height="12px" preserveAspectRatio="xMinYMin meet" x="18.5" y="-136.7"/>
<text text-anchor="start" x="33.5" y="-126.8" font-family="Helvetica,sans-Serif" font-size="11.00" fill="#000000">aspect_id</text>
<polygon fill="#ffffff" stroke="transparent" points="13.5,-97.7 13.5,-119.7 133.5,-119.7 133.5,-97.7 13.5,-97.7"/>
<polygon fill="none" stroke="#000000" points="13.5,-97.7 13.5,-119.7 133.5,-119.7 133.5,-97.7 13.5,-97.7"/>
<text text-anchor="start" x="33.5" y="-104.8" font-family="Helvetica,sans-Serif" font-size="11.00" fill="#000000">description</text>
<polygon fill="#ffffff" stroke="transparent" points="13.5,-75.7 13.5,-97.7 133.5,-97.7 133.5,-75.7 13.5,-75.7"/>
<polygon fill="none" stroke="#000000" points="13.5,-75.7 13.5,-97.7 133.5,-97.7 133.5,-75.7 13.5,-75.7"/>
<image xlink:href="../../images/foreignKeys.png" width="11px" height="12px" preserveAspectRatio="xMinYMin meet" x="18.5" y="-92.7"/>
<text text-anchor="start" x="33.5" y="-82.8" font-family="Helvetica,sans-Serif" font-size="11.00" fill="#000000">aspect_type_id</text>
<polygon fill="none" stroke="#000000" points="13.5,-56.7 13.5,-75.7 133.5,-75.7 133.5,-56.7 13.5,-56.7"/>
<text text-anchor="start" x="16.5" y="-62.8" font-family="Helvetica,sans-Serif" font-size="11.00" fill="#000000">...</text>
<polygon fill="#ffffff" stroke="transparent" points="13.5,-37.7 13.5,-56.7 43.5,-56.7 43.5,-37.7 13.5,-37.7"/>
<polygon fill="none" stroke="#000000" points="13.5,-37.7 13.5,-56.7 43.5,-56.7 43.5,-37.7 13.5,-37.7"/>
<text text-anchor="start" x="16.5" y="-43.8" font-family="Helvetica,sans-Serif" font-size="11.00" fill="#000000">&lt; 1</text>
<polygon fill="#ffffff" stroke="transparent" points="43.5,-37.7 43.5,-56.7 107.5,-56.7 107.5,-37.7 43.5,-37.7"/>
<polygon fill="none" stroke="#000000" points="43.5,-37.7 43.5,-56.7 107.5,-56.7 107.5,-37.7 43.5,-37.7"/>
<text text-anchor="start" x="50.7089" y="-43.8" font-family="Helvetica,sans-Serif" font-size="11.00" fill="#000000">2.300 rows</text>
<polygon fill="#ffffff" stroke="transparent" points="107.5,-37.7 107.5,-56.7 133.5,-56.7 133.5,-37.7 107.5,-37.7"/>
<polygon fill="none" stroke="#000000" points="107.5,-37.7 107.5,-56.7 133.5,-56.7 133.5,-37.7 107.5,-37.7"/>
<text text-anchor="start" x="114.9053" y="-43.8" font-family="Helvetica,sans-Serif" font-size="11.00" fill="#000000">6 &gt;</text>
</a>
</g>
</g>
<!-- mat_aspect&#45;&gt;aspect -->
<g id="edge1" class="edge">
<title>mat_aspect:w&#45;&gt;aspect:e</title>
<path fill="none" stroke="#000000" d="M176.0661,-189.5664C156.8644,-175.5506 165.2341,-130.7 133.5,-130.7"/>
<polygon fill="#000000" stroke="#000000" points="182.3304,-191.4247 188.9761,-197.1513 186.1652,-192.5624 190,-193.7 190,-193.7 190,-193.7 186.1652,-192.5624 191.0239,-190.2487 182.3304,-191.4247 182.3304,-191.4247"/>
<ellipse fill="none" stroke="#000000" cx="179.2625" cy="-190.5146" rx="3.2" ry="3.2"/>
</g>
<!-- mat -->
<g id="node3" class="node">
<title>mat</title>
<g id="a_node3"><a xlink:href="../../tables/mat.html" xlink:title="mat" target="_top">
<polygon fill="#ffffff" stroke="transparent" points="8,-186.2 8,-313.2 139,-313.2 139,-186.2 8,-186.2"/>
<polygon fill="#f5f5f5" stroke="transparent" points="8.5,-289.7 8.5,-312.7 139.5,-312.7 139.5,-289.7 8.5,-289.7"/>
<polygon fill="none" stroke="#000000" points="8.5,-289.7 8.5,-312.7 139.5,-312.7 139.5,-289.7 8.5,-289.7"/>
<text text-anchor="start" x="13.5" y="-298.3" font-family="Helvetica,sans-Serif" font-weight="bold" font-size="11.00" fill="#000000">mat</text>
<text text-anchor="start" x="104.5437" y="-297.8" font-family="Helvetica,sans-Serif" font-size="11.00" fill="#000000">[table]</text>
<polygon fill="none" stroke="#000000" points="8.5,-267.7 8.5,-289.7 139.5,-289.7 139.5,-267.7 8.5,-267.7"/>
<image xlink:href="../../images/primaryKeys.png" width="11px" height="12px" preserveAspectRatio="xMinYMin meet" x="13.5" y="-284.7"/>
<text text-anchor="start" x="28.5" y="-274.8" font-family="Helvetica,sans-Serif" font-size="11.00" fill="#000000">mat_id</text>
<polygon fill="#ffffff" stroke="transparent" points="8.5,-245.7 8.5,-267.7 139.5,-267.7 139.5,-245.7 8.5,-245.7"/>
<polygon fill="none" stroke="#000000" points="8.5,-245.7 8.5,-267.7 139.5,-267.7 139.5,-245.7 8.5,-245.7"/>
<text text-anchor="start" x="28.5" y="-252.8" font-family="Helvetica,sans-Serif" font-size="11.00" fill="#000000">description</text>
<polygon fill="#ffffff" stroke="transparent" points="8.5,-223.7 8.5,-245.7 139.5,-245.7 139.5,-223.7 8.5,-223.7"/>
<polygon fill="none" stroke="#000000" points="8.5,-223.7 8.5,-245.7 139.5,-245.7 139.5,-223.7 8.5,-223.7"/>
<image xlink:href="../../images/foreignKeys.png" width="11px" height="12px" preserveAspectRatio="xMinYMin meet" x="13.5" y="-240.7"/>
<text text-anchor="start" x="28.5" y="-230.8" font-family="Helvetica,sans-Serif" font-size="11.00" fill="#000000">mo_id</text>
<polygon fill="none" stroke="#000000" points="8.5,-204.7 8.5,-223.7 139.5,-223.7 139.5,-204.7 8.5,-204.7"/>
<text text-anchor="start" x="11.5" y="-210.8" font-family="Helvetica,sans-Serif" font-size="11.00" fill="#000000">...</text>
<polygon fill="#ffffff" stroke="transparent" points="8.5,-185.7 8.5,-204.7 37.5,-204.7 37.5,-185.7 8.5,-185.7"/>
<polygon fill="none" stroke="#000000" points="8.5,-185.7 8.5,-204.7 37.5,-204.7 37.5,-185.7 8.5,-185.7"/>
<text text-anchor="start" x="11.5" y="-191.8" font-family="Helvetica,sans-Serif" font-size="11.00" fill="#000000">&lt; 1</text>
<polygon fill="#ffffff" stroke="transparent" points="37.5,-185.7 37.5,-204.7 113.5,-204.7 113.5,-185.7 37.5,-185.7"/>
<polygon fill="none" stroke="#000000" points="37.5,-185.7 37.5,-204.7 113.5,-204.7 113.5,-185.7 37.5,-185.7"/>
<text text-anchor="start" x="44.4791" y="-191.8" font-family="Helvetica,sans-Serif" font-size="11.00" fill="#000000">292.481 rows</text>
<polygon fill="#ffffff" stroke="transparent" points="113.5,-185.7 113.5,-204.7 139.5,-204.7 139.5,-185.7 113.5,-185.7"/>
<polygon fill="none" stroke="#000000" points="113.5,-185.7 113.5,-204.7 139.5,-204.7 139.5,-185.7 113.5,-185.7"/>
<text text-anchor="start" x="120.9053" y="-191.8" font-family="Helvetica,sans-Serif" font-size="11.00" fill="#000000">3 &gt;</text>
</a>
</g>
</g>
<!-- mat_aspect&#45;&gt;mat -->
<g id="edge2" class="edge">
<title>mat_aspect:w&#45;&gt;mat:e</title>
<path fill="none" stroke="#000000" d="M175.9816,-220.6435C159.738,-235.4952 169.2175,-278.7 139.5,-278.7"/>
<polygon fill="#000000" stroke="#000000" points="182.4554,-218.3606 191.1973,-219.0951 186.2277,-217.0303 190,-215.7 190,-215.7 190,-215.7 186.2277,-217.0303 188.8027,-212.3049 182.4554,-218.3606 182.4554,-218.3606"/>
<ellipse fill="none" stroke="#000000" cx="179.4375" cy="-219.4248" rx="3.2" ry="3.2"/>
</g>
</g>
</svg>
