<?xml version="1.0" encoding="UTF-8" standalone="no"?>
<!DOCTYPE svg PUBLIC "-//W3C//DTD SVG 1.1//EN"
 "http://www.w3.org/Graphics/SVG/1.1/DTD/svg11.dtd">
<!-- Generated by graphviz version 2.40.1 (20161225.0304)
 -->
<!-- Title: oneDegreeRelationshipsDiagram Pages: 1 -->
<svg width="506pt" height="155pt"
 viewBox="0.00 0.00 506.00 154.70" xmlns="http://www.w3.org/2000/svg" xmlns:xlink="http://www.w3.org/1999/xlink">
<g id="graph0" class="graph" transform="scale(1 1) rotate(0) translate(4 150.7)">
<title>oneDegreeRelationshipsDiagram</title>
<polygon fill="#ffffff" stroke="transparent" points="-4,4 -4,-150.7 502,-150.7 502,4 -4,4"/>
<text text-anchor="middle" x="72.4936" y="-7.3" font-family="Helvetica,sans-Serif" font-size="11.00" fill="#000000">Generated by SchemaSpy</text>
<!-- mat_dr -->
<g id="node1" class="node">
<title>mat_dr</title>
<g id="a_node1"><a xlink:href="../../tables/mat_dr.html" xlink:title="mat_dr" target="_top">
<polygon fill="#ffffff" stroke="transparent" points="210,-54.7 210,-122.7 323,-122.7 323,-54.7 210,-54.7"/>
<polygon fill="#f5f5f5" stroke="transparent" points="212.5,-97.7 212.5,-120.7 321.5,-120.7 321.5,-97.7 212.5,-97.7"/>
<polygon fill="none" stroke="#000000" points="212.5,-97.7 212.5,-120.7 321.5,-120.7 321.5,-97.7 212.5,-97.7"/>
<text text-anchor="start" x="217.5" y="-106.3" font-family="Helvetica,sans-Serif" font-weight="bold" font-size="11.00" fill="#000000">mat_dr</text>
<text text-anchor="start" x="286.5437" y="-105.8" font-family="Helvetica,sans-Serif" font-size="11.00" fill="#000000">[table]</text>
<polygon fill="none" stroke="#000000" points="212.5,-75.7 212.5,-97.7 279.5,-97.7 279.5,-75.7 212.5,-75.7"/>
<image xlink:href="../../images/primaryKeys.png" width="11px" height="12px" preserveAspectRatio="xMinYMin meet" x="217.5" y="-92.7"/>
<text text-anchor="start" x="232.5" y="-82.8" font-family="Helvetica,sans-Serif" font-size="11.00" fill="#000000">rule_id</text>
<polygon fill="none" stroke="#000000" points="279.5,-75.7 279.5,-97.7 321.5,-97.7 321.5,-75.7 279.5,-75.7"/>
<text text-anchor="start" x="282.4644" y="-83.4" font-family="Helvetica,sans-Serif" font-size="11.00" fill="#000000">int4[10]</text>
<polygon fill="#ffffff" stroke="transparent" points="212.5,-56.7 212.5,-75.7 237.5,-75.7 237.5,-56.7 212.5,-56.7"/>
<polygon fill="none" stroke="#000000" points="212.5,-56.7 212.5,-75.7 237.5,-75.7 237.5,-56.7 212.5,-56.7"/>
<text text-anchor="start" x="215.5" y="-62.8" font-family="Helvetica,sans-Serif" font-size="11.00" fill="#000000">&lt; 1</text>
<polygon fill="#ffffff" stroke="transparent" points="237.5,-56.7 237.5,-75.7 279.5,-75.7 279.5,-56.7 237.5,-56.7"/>
<polygon fill="none" stroke="#000000" points="237.5,-56.7 237.5,-75.7 279.5,-75.7 279.5,-56.7 237.5,-56.7"/>
<text text-anchor="start" x="244.1105" y="-62.8" font-family="Helvetica,sans-Serif" font-size="11.00" fill="#000000">0 rows</text>
<polygon fill="#ffffff" stroke="transparent" points="279.5,-56.7 279.5,-75.7 321.5,-75.7 321.5,-56.7 279.5,-56.7"/>
<polygon fill="none" stroke="#000000" points="279.5,-56.7 279.5,-75.7 321.5,-75.7 321.5,-56.7 279.5,-56.7"/>
<text text-anchor="start" x="302.9053" y="-62.8" font-family="Helvetica,sans-Serif" font-size="11.00" fill="#000000">1 &gt;</text>
<polygon fill="none" stroke="#000000" stroke-width="2" points="211,-55.7 211,-121.7 322,-121.7 322,-55.7 211,-55.7"/>
</a>
</g>
</g>
<!-- dependency_rule -->
<g id="node2" class="node">
<title>dependency_rule</title>
<g id="a_node2"><a xlink:href="../../tables/dependency_rule.html" xlink:title="dependency_rule" target="_top">
<polygon fill="#ffffff" stroke="transparent" points="8,-38.2 8,-121.2 161,-121.2 161,-38.2 8,-38.2"/>
<polygon fill="#f5f5f5" stroke="transparent" points="8.5,-97.7 8.5,-120.7 161.5,-120.7 161.5,-97.7 8.5,-97.7"/>
<polygon fill="none" stroke="#000000" points="8.5,-97.7 8.5,-120.7 161.5,-120.7 161.5,-97.7 8.5,-97.7"/>
<text text-anchor="start" x="13.5" y="-106.3" font-family="Helvetica,sans-Serif" font-weight="bold" font-size="11.00" fill="#000000">dependency_rule</text>
<text text-anchor="start" x="127.0219" y="-105.8" font-family="Helvetica,sans-Serif" font-size="11.00" fill="#000000">[table]</text>
<polygon fill="none" stroke="#000000" points="8.5,-75.7 8.5,-97.7 161.5,-97.7 161.5,-75.7 8.5,-75.7"/>
<image xlink:href="../../images/primaryKeys.png" width="11px" height="12px" preserveAspectRatio="xMinYMin meet" x="13.5" y="-92.7"/>
<text text-anchor="start" x="37.5" y="-82.8" font-family="Helvetica,sans-Serif" font-size="11.00" fill="#000000">rule_id</text>
<polygon fill="none" stroke="#000000" points="8.5,-56.7 8.5,-75.7 161.5,-75.7 161.5,-56.7 8.5,-56.7"/>
<text text-anchor="start" x="11.5" y="-62.8" font-family="Helvetica,sans-Serif" font-size="11.00" fill="#000000">...</text>
<polygon fill="#ffffff" stroke="transparent" points="8.5,-37.7 8.5,-56.7 61.5,-56.7 61.5,-37.7 8.5,-37.7"/>
<polygon fill="none" stroke="#000000" points="8.5,-37.7 8.5,-56.7 61.5,-56.7 61.5,-37.7 8.5,-37.7"/>
<text text-anchor="start" x="11.5" y="-43.8" font-family="Helvetica,sans-Serif" font-size="11.00" fill="#000000"> &#160;</text>
<polygon fill="#ffffff" stroke="transparent" points="61.5,-37.7 61.5,-56.7 119.5,-56.7 119.5,-37.7 61.5,-37.7"/>
<polygon fill="none" stroke="#000000" points="61.5,-37.7 61.5,-56.7 119.5,-56.7 119.5,-37.7 61.5,-37.7"/>
<text text-anchor="start" x="84.1105" y="-43.8" font-family="Helvetica,sans-Serif" font-size="11.00" fill="#000000">0 rows</text>
<polygon fill="#ffffff" stroke="transparent" points="119.5,-37.7 119.5,-56.7 161.5,-56.7 161.5,-37.7 119.5,-37.7"/>
<polygon fill="none" stroke="#000000" points="119.5,-37.7 119.5,-56.7 161.5,-56.7 161.5,-37.7 119.5,-37.7"/>
<text text-anchor="start" x="142.9053" y="-43.8" font-family="Helvetica,sans-Serif" font-size="11.00" fill="#000000">7 &gt;</text>
</a>
</g>
</g>
<!-- mat_dr&#45;&gt;dependency_rule -->
<g id="edge1" class="edge">
<title>mat_dr:w&#45;&gt;dependency_rule:e</title>
<path fill="none" stroke="#000000" d="M201.7307,-86.7C187.248,-86.7 180.0938,-86.7 161.5,-86.7"/>
<polygon fill="#000000" stroke="#000000" points="211.7,-82.7 211.7,-90.7 210.1,-90.7 210.1,-82.7 211.7,-82.7"/>
<polyline fill="none" stroke="#000000" points="212.5,-86.7 208.5,-86.7 "/>
<ellipse fill="none" stroke="#000000" cx="205.3" cy="-86.7001" rx="3.2" ry="3.2"/>
</g>
<!-- mat_mat_dr -->
<g id="node3" class="node">
<title>mat_mat_dr</title>
<g id="a_node3"><a xlink:href="../../tables/mat_mat_dr.html" xlink:title="mat_mat_dr" target="_top">
<polygon fill="#ffffff" stroke="transparent" points="372,-56.7 372,-142.7 490,-142.7 490,-56.7 372,-56.7"/>
<polygon fill="#f5f5f5" stroke="transparent" points="372,-119.7 372,-142.7 490,-142.7 490,-119.7 372,-119.7"/>
<polygon fill="none" stroke="#000000" points="372,-119.7 372,-142.7 490,-142.7 490,-119.7 372,-119.7"/>
<text text-anchor="start" x="377" y="-128.3" font-family="Helvetica,sans-Serif" font-weight="bold" font-size="11.00" fill="#000000">mat_mat_dr</text>
<text text-anchor="start" x="455.5219" y="-127.8" font-family="Helvetica,sans-Serif" font-size="11.00" fill="#000000">[table]</text>
<polygon fill="none" stroke="#000000" points="372,-97.7 372,-119.7 490,-119.7 490,-97.7 372,-97.7"/>
<image xlink:href="../../images/primaryKeys.png" width="11px" height="12px" preserveAspectRatio="xMinYMin meet" x="377" y="-114.7"/>
<text text-anchor="start" x="401" y="-104.8" font-family="Helvetica,sans-Serif" font-size="11.00" fill="#000000">mat_id</text>
<polygon fill="none" stroke="#000000" points="372,-75.7 372,-97.7 490,-97.7 490,-75.7 372,-75.7"/>
<image xlink:href="../../images/primaryKeys.png" width="11px" height="12px" preserveAspectRatio="xMinYMin meet" x="377" y="-92.7"/>
<text text-anchor="start" x="401" y="-82.8" font-family="Helvetica,sans-Serif" font-size="11.00" fill="#000000">rule_id</text>
<polygon fill="#ffffff" stroke="transparent" points="372,-56.7 372,-75.7 416,-75.7 416,-56.7 372,-56.7"/>
<polygon fill="none" stroke="#000000" points="372,-56.7 372,-75.7 416,-75.7 416,-56.7 372,-56.7"/>
<text text-anchor="start" x="375" y="-62.8" font-family="Helvetica,sans-Serif" font-size="11.00" fill="#000000">&lt; 2</text>
<polygon fill="#ffffff" stroke="transparent" points="416,-56.7 416,-75.7 466,-75.7 466,-56.7 416,-56.7"/>
<polygon fill="none" stroke="#000000" points="416,-56.7 416,-75.7 466,-75.7 466,-56.7 416,-56.7"/>
<text text-anchor="start" x="430.6105" y="-62.8" font-family="Helvetica,sans-Serif" font-size="11.00" fill="#000000">0 rows</text>
<polygon fill="#ffffff" stroke="transparent" points="466,-56.7 466,-75.7 490,-75.7 490,-56.7 466,-56.7"/>
<polygon fill="none" stroke="#000000" points="466,-56.7 466,-75.7 490,-75.7 490,-56.7 466,-56.7"/>
<text text-anchor="start" x="480.8862" y="-62.8" font-family="Helvetica,sans-Serif" font-size="11.00" fill="#000000"> &#160;</text>
</a>
</g>
</g>
<!-- mat_mat_dr&#45;&gt;mat_dr -->
<g id="edge2" class="edge">
<title>mat_mat_dr:w&#45;&gt;mat_dr:e</title>
<path fill="none" stroke="#000000" d="M357.4203,-86.7C345.5435,-86.7 338.158,-86.7 321.5,-86.7"/>
<polygon fill="#000000" stroke="#000000" points="364,-86.7001 372,-90.3 368,-86.7 372,-86.7 372,-86.7 372,-86.7 368,-86.7 372,-83.1 364,-86.7001 364,-86.7001"/>
<ellipse fill="none" stroke="#000000" cx="360.8" cy="-86.7001" rx="3.2" ry="3.2"/>
</g>
</g>
</svg>
