<?xml version="1.0" encoding="UTF-8" standalone="no"?>
<!DOCTYPE svg PUBLIC "-//W3C//DTD SVG 1.1//EN"
 "http://www.w3.org/Graphics/SVG/1.1/DTD/svg11.dtd">
<!-- Generated by graphviz version 2.40.1 (20161225.0304)
 -->
<!-- Title: twoDegreesRelationshipsDiagram Pages: 1 -->
<svg width="552pt" height="333pt"
 viewBox="0.00 0.00 552.00 332.70" xmlns="http://www.w3.org/2000/svg" xmlns:xlink="http://www.w3.org/1999/xlink">
<g id="graph0" class="graph" transform="scale(1 1) rotate(0) translate(4 328.7)">
<title>twoDegreesRelationshipsDiagram</title>
<polygon fill="#ffffff" stroke="transparent" points="-4,4 -4,-328.7 548,-328.7 548,4 -4,4"/>
<text text-anchor="middle" x="72.4936" y="-7.3" font-family="Helvetica,sans-Serif" font-size="11.00" fill="#000000">Generated by SchemaSpy</text>
<!-- mat -->
<g id="node1" class="node">
<title>mat</title>
<g id="a_node1"><a xlink:href="../../tables/mat.html" xlink:title="mat" target="_top">
<polygon fill="#ffffff" stroke="transparent" points="210,-123.7 210,-250.7 341,-250.7 341,-123.7 210,-123.7"/>
<polygon fill="#f5f5f5" stroke="transparent" points="210.5,-227.2 210.5,-250.2 341.5,-250.2 341.5,-227.2 210.5,-227.2"/>
<polygon fill="none" stroke="#000000" points="210.5,-227.2 210.5,-250.2 341.5,-250.2 341.5,-227.2 210.5,-227.2"/>
<text text-anchor="start" x="215.5" y="-235.8" font-family="Helvetica,sans-Serif" font-weight="bold" font-size="11.00" fill="#000000">mat</text>
<text text-anchor="start" x="306.5437" y="-235.3" font-family="Helvetica,sans-Serif" font-size="11.00" fill="#000000">[table]</text>
<polygon fill="none" stroke="#000000" points="210.5,-205.2 210.5,-227.2 341.5,-227.2 341.5,-205.2 210.5,-205.2"/>
<image xlink:href="../../images/primaryKeys.png" width="11px" height="12px" preserveAspectRatio="xMinYMin meet" x="215.5" y="-222.2"/>
<text text-anchor="start" x="230.5" y="-212.3" font-family="Helvetica,sans-Serif" font-size="11.00" fill="#000000">mat_id</text>
<polygon fill="#ffffff" stroke="transparent" points="210.5,-183.2 210.5,-205.2 341.5,-205.2 341.5,-183.2 210.5,-183.2"/>
<polygon fill="none" stroke="#000000" points="210.5,-183.2 210.5,-205.2 341.5,-205.2 341.5,-183.2 210.5,-183.2"/>
<text text-anchor="start" x="230.5" y="-190.3" font-family="Helvetica,sans-Serif" font-size="11.00" fill="#000000">description</text>
<polygon fill="#ffffff" stroke="transparent" points="210.5,-161.2 210.5,-183.2 341.5,-183.2 341.5,-161.2 210.5,-161.2"/>
<polygon fill="none" stroke="#000000" points="210.5,-161.2 210.5,-183.2 341.5,-183.2 341.5,-161.2 210.5,-161.2"/>
<image xlink:href="../../images/foreignKeys.png" width="11px" height="12px" preserveAspectRatio="xMinYMin meet" x="215.5" y="-178.2"/>
<text text-anchor="start" x="230.5" y="-168.3" font-family="Helvetica,sans-Serif" font-size="11.00" fill="#000000">mo_id</text>
<polygon fill="none" stroke="#000000" points="210.5,-142.2 210.5,-161.2 341.5,-161.2 341.5,-142.2 210.5,-142.2"/>
<text text-anchor="start" x="213.5" y="-148.3" font-family="Helvetica,sans-Serif" font-size="11.00" fill="#000000">...</text>
<polygon fill="#ffffff" stroke="transparent" points="210.5,-123.2 210.5,-142.2 239.5,-142.2 239.5,-123.2 210.5,-123.2"/>
<polygon fill="none" stroke="#000000" points="210.5,-123.2 210.5,-142.2 239.5,-142.2 239.5,-123.2 210.5,-123.2"/>
<text text-anchor="start" x="213.5" y="-129.3" font-family="Helvetica,sans-Serif" font-size="11.00" fill="#000000">&lt; 1</text>
<polygon fill="#ffffff" stroke="transparent" points="239.5,-123.2 239.5,-142.2 315.5,-142.2 315.5,-123.2 239.5,-123.2"/>
<polygon fill="none" stroke="#000000" points="239.5,-123.2 239.5,-142.2 315.5,-142.2 315.5,-123.2 239.5,-123.2"/>
<text text-anchor="start" x="246.4791" y="-129.3" font-family="Helvetica,sans-Serif" font-size="11.00" fill="#000000">292.481 rows</text>
<polygon fill="#ffffff" stroke="transparent" points="315.5,-123.2 315.5,-142.2 341.5,-142.2 341.5,-123.2 315.5,-123.2"/>
<polygon fill="none" stroke="#000000" points="315.5,-123.2 315.5,-142.2 341.5,-142.2 341.5,-123.2 315.5,-123.2"/>
<text text-anchor="start" x="322.9053" y="-129.3" font-family="Helvetica,sans-Serif" font-size="11.00" fill="#000000">3 &gt;</text>
</a>
</g>
</g>
<!-- moving_object -->
<g id="node2" class="node">
<title>moving_object</title>
<g id="a_node2"><a xlink:href="../../tables/moving_object.html" xlink:title="moving_object" target="_top">
<polygon fill="#ffffff" stroke="transparent" points="16.5,-144.7 16.5,-205.7 152.5,-205.7 152.5,-144.7 16.5,-144.7"/>
<polygon fill="#f5f5f5" stroke="transparent" points="16.5,-182.2 16.5,-205.2 152.5,-205.2 152.5,-182.2 16.5,-182.2"/>
<polygon fill="none" stroke="#000000" points="16.5,-182.2 16.5,-205.2 152.5,-205.2 152.5,-182.2 16.5,-182.2"/>
<text text-anchor="start" x="21.5" y="-190.8" font-family="Helvetica,sans-Serif" font-weight="bold" font-size="11.00" fill="#000000">moving_object</text>
<text text-anchor="start" x="118.0219" y="-190.3" font-family="Helvetica,sans-Serif" font-size="11.00" fill="#000000">[table]</text>
<polygon fill="none" stroke="#000000" points="16.5,-163.2 16.5,-182.2 152.5,-182.2 152.5,-163.2 16.5,-163.2"/>
<text text-anchor="start" x="19.5" y="-169.3" font-family="Helvetica,sans-Serif" font-size="11.00" fill="#000000">...</text>
<polygon fill="#ffffff" stroke="transparent" points="16.5,-144.2 16.5,-163.2 54.5,-163.2 54.5,-144.2 16.5,-144.2"/>
<polygon fill="none" stroke="#000000" points="16.5,-144.2 16.5,-163.2 54.5,-163.2 54.5,-144.2 16.5,-144.2"/>
<text text-anchor="start" x="19.5" y="-150.3" font-family="Helvetica,sans-Serif" font-size="11.00" fill="#000000">&lt; 1</text>
<polygon fill="#ffffff" stroke="transparent" points="54.5,-144.2 54.5,-163.2 122.5,-163.2 122.5,-144.2 54.5,-144.2"/>
<polygon fill="none" stroke="#000000" points="54.5,-144.2 54.5,-163.2 122.5,-163.2 122.5,-144.2 54.5,-144.2"/>
<text text-anchor="start" x="65.7089" y="-150.3" font-family="Helvetica,sans-Serif" font-size="11.00" fill="#000000">2.000 rows</text>
<polygon fill="#ffffff" stroke="transparent" points="122.5,-144.2 122.5,-163.2 152.5,-163.2 152.5,-144.2 122.5,-144.2"/>
<polygon fill="none" stroke="#000000" points="122.5,-144.2 122.5,-163.2 152.5,-163.2 152.5,-144.2 122.5,-144.2"/>
<text text-anchor="start" x="133.9053" y="-150.3" font-family="Helvetica,sans-Serif" font-size="11.00" fill="#000000">5 &gt;</text>
</a>
</g>
</g>
<!-- mat&#45;&gt;moving_object -->
<g id="edge1" class="edge">
<title>mat:w&#45;&gt;moving_object:e</title>
<path fill="none" stroke="#000000" d="M195.954,-172.2C180.9776,-172.2 172.6389,-172.2 152.5,-172.2"/>
<polygon fill="#000000" stroke="#000000" points="202.5,-172.2001 210.5,-175.8 206.5,-172.2 210.5,-172.2 210.5,-172.2 210.5,-172.2 206.5,-172.2 210.5,-168.6 202.5,-172.2001 202.5,-172.2001"/>
<ellipse fill="none" stroke="#000000" cx="199.3" cy="-172.2001" rx="3.2" ry="3.2"/>
</g>
<!-- mat_aspect -->
<g id="node3" class="node">
<title>mat_aspect</title>
<g id="a_node3"><a xlink:href="../../tables/mat_aspect.html" xlink:title="mat_aspect" target="_top">
<polygon fill="#ffffff" stroke="transparent" points="405,-259.7 405,-320.7 521,-320.7 521,-259.7 405,-259.7"/>
<polygon fill="#f5f5f5" stroke="transparent" points="405,-297.2 405,-320.2 521,-320.2 521,-297.2 405,-297.2"/>
<polygon fill="none" stroke="#000000" points="405,-297.2 405,-320.2 521,-320.2 521,-297.2 405,-297.2"/>
<text text-anchor="start" x="410" y="-305.8" font-family="Helvetica,sans-Serif" font-weight="bold" font-size="11.00" fill="#000000">mat_aspect</text>
<text text-anchor="start" x="486.5219" y="-305.3" font-family="Helvetica,sans-Serif" font-size="11.00" fill="#000000">[table]</text>
<polygon fill="none" stroke="#000000" points="405,-278.2 405,-297.2 521,-297.2 521,-278.2 405,-278.2"/>
<text text-anchor="start" x="408" y="-284.3" font-family="Helvetica,sans-Serif" font-size="11.00" fill="#000000">...</text>
<polygon fill="#ffffff" stroke="transparent" points="405,-259.2 405,-278.2 448,-278.2 448,-259.2 405,-259.2"/>
<polygon fill="none" stroke="#000000" points="405,-259.2 405,-278.2 448,-278.2 448,-259.2 405,-259.2"/>
<text text-anchor="start" x="408" y="-265.3" font-family="Helvetica,sans-Serif" font-size="11.00" fill="#000000">&lt; 2</text>
<polygon fill="#ffffff" stroke="transparent" points="448,-259.2 448,-278.2 497,-278.2 497,-259.2 448,-259.2"/>
<polygon fill="none" stroke="#000000" points="448,-259.2 448,-278.2 497,-278.2 497,-259.2 448,-259.2"/>
<text text-anchor="start" x="461.6105" y="-265.3" font-family="Helvetica,sans-Serif" font-size="11.00" fill="#000000">0 rows</text>
<polygon fill="#ffffff" stroke="transparent" points="497,-259.2 497,-278.2 521,-278.2 521,-259.2 497,-259.2"/>
<polygon fill="none" stroke="#000000" points="497,-259.2 497,-278.2 521,-278.2 521,-259.2 497,-259.2"/>
<text text-anchor="start" x="511.8862" y="-265.3" font-family="Helvetica,sans-Serif" font-size="11.00" fill="#000000"> &#160;</text>
</a>
</g>
</g>
<!-- mat_aspect&#45;&gt;mat -->
<g id="edge2" class="edge">
<title>mat_aspect:w&#45;&gt;mat:e</title>
<path fill="none" stroke="#000000" d="M390.8726,-283.5815C367.2667,-269.1131 378.047,-216.2 341.5,-216.2"/>
<polygon fill="#000000" stroke="#000000" points="397.2502,-285.215 404.1067,-290.6874 401.1251,-286.2075 405,-287.2 405,-287.2 405,-287.2 401.1251,-286.2075 405.8933,-283.7126 397.2502,-285.215 397.2502,-285.215"/>
<ellipse fill="none" stroke="#000000" cx="394.1502" cy="-284.421" rx="3.2" ry="3.2"/>
</g>
<!-- mat_dr -->
<g id="node4" class="node">
<title>mat_dr</title>
<g id="a_node4"><a xlink:href="../../tables/mat_dr.html" xlink:title="mat_dr" target="_top">
<polygon fill="#ffffff" stroke="transparent" points="233,-38.2 233,-102.2 318,-102.2 318,-38.2 233,-38.2"/>
<polygon fill="#f5f5f5" stroke="transparent" points="233.5,-79.2 233.5,-102.2 318.5,-102.2 318.5,-79.2 233.5,-79.2"/>
<polygon fill="none" stroke="#000000" points="233.5,-79.2 233.5,-102.2 318.5,-102.2 318.5,-79.2 233.5,-79.2"/>
<text text-anchor="start" x="238.5" y="-87.8" font-family="Helvetica,sans-Serif" font-weight="bold" font-size="11.00" fill="#000000">mat_dr</text>
<text text-anchor="start" x="284.0219" y="-87.3" font-family="Helvetica,sans-Serif" font-size="11.00" fill="#000000">[table]</text>
<polygon fill="none" stroke="#000000" points="233.5,-57.2 233.5,-79.2 318.5,-79.2 318.5,-57.2 233.5,-57.2"/>
<image xlink:href="../../images/primaryKeys.png" width="11px" height="12px" preserveAspectRatio="xMinYMin meet" x="238.5" y="-74.2"/>
<text text-anchor="start" x="262.5" y="-64.3" font-family="Helvetica,sans-Serif" font-size="11.00" fill="#000000">rule_id</text>
<polygon fill="#ffffff" stroke="transparent" points="233.5,-38.2 233.5,-57.2 256.5,-57.2 256.5,-38.2 233.5,-38.2"/>
<polygon fill="none" stroke="#000000" points="233.5,-38.2 233.5,-57.2 256.5,-57.2 256.5,-38.2 233.5,-38.2"/>
<text text-anchor="start" x="236.5" y="-44.3" font-family="Helvetica,sans-Serif" font-size="11.00" fill="#000000">&lt; 1</text>
<polygon fill="#ffffff" stroke="transparent" points="256.5,-38.2 256.5,-57.2 295.5,-57.2 295.5,-38.2 256.5,-38.2"/>
<polygon fill="none" stroke="#000000" points="256.5,-38.2 256.5,-57.2 295.5,-57.2 295.5,-38.2 256.5,-38.2"/>
<text text-anchor="start" x="260.1105" y="-44.3" font-family="Helvetica,sans-Serif" font-size="11.00" fill="#000000">0 rows</text>
<polygon fill="#ffffff" stroke="transparent" points="295.5,-38.2 295.5,-57.2 318.5,-57.2 318.5,-38.2 295.5,-38.2"/>
<polygon fill="none" stroke="#000000" points="295.5,-38.2 295.5,-57.2 318.5,-57.2 318.5,-38.2 295.5,-38.2"/>
<text text-anchor="start" x="299.9053" y="-44.3" font-family="Helvetica,sans-Serif" font-size="11.00" fill="#000000">1 &gt;</text>
</a>
</g>
</g>
<!-- dependency_rule -->
<g id="node5" class="node">
<title>dependency_rule</title>
<g id="a_node5"><a xlink:href="../../tables/dependency_rule.html" xlink:title="dependency_rule" target="_top">
<polygon fill="#ffffff" stroke="transparent" points="8,-40.7 8,-101.7 161,-101.7 161,-40.7 8,-40.7"/>
<polygon fill="#f5f5f5" stroke="transparent" points="8.5,-78.2 8.5,-101.2 161.5,-101.2 161.5,-78.2 8.5,-78.2"/>
<polygon fill="none" stroke="#000000" points="8.5,-78.2 8.5,-101.2 161.5,-101.2 161.5,-78.2 8.5,-78.2"/>
<text text-anchor="start" x="13.5" y="-86.8" font-family="Helvetica,sans-Serif" font-weight="bold" font-size="11.00" fill="#000000">dependency_rule</text>
<text text-anchor="start" x="127.0219" y="-86.3" font-family="Helvetica,sans-Serif" font-size="11.00" fill="#000000">[table]</text>
<polygon fill="none" stroke="#000000" points="8.5,-59.2 8.5,-78.2 161.5,-78.2 161.5,-59.2 8.5,-59.2"/>
<text text-anchor="start" x="11.5" y="-65.3" font-family="Helvetica,sans-Serif" font-size="11.00" fill="#000000">...</text>
<polygon fill="#ffffff" stroke="transparent" points="8.5,-40.2 8.5,-59.2 61.5,-59.2 61.5,-40.2 8.5,-40.2"/>
<polygon fill="none" stroke="#000000" points="8.5,-40.2 8.5,-59.2 61.5,-59.2 61.5,-40.2 8.5,-40.2"/>
<text text-anchor="start" x="11.5" y="-46.3" font-family="Helvetica,sans-Serif" font-size="11.00" fill="#000000"> &#160;</text>
<polygon fill="#ffffff" stroke="transparent" points="61.5,-40.2 61.5,-59.2 119.5,-59.2 119.5,-40.2 61.5,-40.2"/>
<polygon fill="none" stroke="#000000" points="61.5,-40.2 61.5,-59.2 119.5,-59.2 119.5,-40.2 61.5,-40.2"/>
<text text-anchor="start" x="84.1105" y="-46.3" font-family="Helvetica,sans-Serif" font-size="11.00" fill="#000000">0 rows</text>
<polygon fill="#ffffff" stroke="transparent" points="119.5,-40.2 119.5,-59.2 161.5,-59.2 161.5,-40.2 119.5,-40.2"/>
<polygon fill="none" stroke="#000000" points="119.5,-40.2 119.5,-59.2 161.5,-59.2 161.5,-40.2 119.5,-40.2"/>
<text text-anchor="start" x="142.9053" y="-46.3" font-family="Helvetica,sans-Serif" font-size="11.00" fill="#000000">7 &gt;</text>
</a>
</g>
</g>
<!-- mat_dr&#45;&gt;dependency_rule -->
<g id="edge3" class="edge">
<title>mat_dr:w&#45;&gt;dependency_rule:e</title>
<path fill="none" stroke="#000000" d="M222.8456,-68.2C199.2106,-68.2 189.625,-68.2 161.5,-68.2"/>
<polygon fill="#000000" stroke="#000000" points="232.7,-64.2 232.7,-72.2 231.1,-72.2 231.1,-64.2 232.7,-64.2"/>
<polyline fill="none" stroke="#000000" points="233.5,-68.2 229.5,-68.2 "/>
<ellipse fill="none" stroke="#000000" cx="226.3" cy="-68.2001" rx="3.2" ry="3.2"/>
</g>
<!-- mat_mat_dr -->
<g id="node6" class="node">
<title>mat_mat_dr</title>
<g id="a_node6"><a xlink:href="../../tables/mat_mat_dr.html" xlink:title="mat_mat_dr" target="_top">
<polygon fill="#ffffff" stroke="transparent" points="390,-46.2 390,-136.2 536,-136.2 536,-46.2 390,-46.2"/>
<polygon fill="#f5f5f5" stroke="transparent" points="392,-111.2 392,-134.2 534,-134.2 534,-111.2 392,-111.2"/>
<polygon fill="none" stroke="#000000" points="392,-111.2 392,-134.2 534,-134.2 534,-111.2 392,-111.2"/>
<text text-anchor="start" x="397" y="-119.8" font-family="Helvetica,sans-Serif" font-weight="bold" font-size="11.00" fill="#000000">mat_mat_dr</text>
<text text-anchor="start" x="499.0437" y="-119.3" font-family="Helvetica,sans-Serif" font-size="11.00" fill="#000000">[table]</text>
<polygon fill="none" stroke="#000000" points="392,-89.2 392,-111.2 492,-111.2 492,-89.2 392,-89.2"/>
<image xlink:href="../../images/primaryKeys.png" width="11px" height="12px" preserveAspectRatio="xMinYMin meet" x="397" y="-106.2"/>
<text text-anchor="start" x="412" y="-96.3" font-family="Helvetica,sans-Serif" font-size="11.00" fill="#000000">mat_id</text>
<polygon fill="none" stroke="#000000" points="492,-89.2 492,-111.2 534,-111.2 534,-89.2 492,-89.2"/>
<text text-anchor="start" x="494.9644" y="-96.9" font-family="Helvetica,sans-Serif" font-size="11.00" fill="#000000">int4[10]</text>
<polygon fill="none" stroke="#000000" points="392,-67.2 392,-89.2 492,-89.2 492,-67.2 392,-67.2"/>
<image xlink:href="../../images/primaryKeys.png" width="11px" height="12px" preserveAspectRatio="xMinYMin meet" x="397" y="-84.2"/>
<text text-anchor="start" x="412" y="-74.3" font-family="Helvetica,sans-Serif" font-size="11.00" fill="#000000">rule_id</text>
<polygon fill="none" stroke="#000000" points="492,-67.2 492,-89.2 534,-89.2 534,-67.2 492,-67.2"/>
<text text-anchor="start" x="494.9644" y="-74.9" font-family="Helvetica,sans-Serif" font-size="11.00" fill="#000000">int4[10]</text>
<polygon fill="#ffffff" stroke="transparent" points="392,-48.2 392,-67.2 433,-67.2 433,-48.2 392,-48.2"/>
<polygon fill="none" stroke="#000000" points="392,-48.2 392,-67.2 433,-67.2 433,-48.2 392,-48.2"/>
<text text-anchor="start" x="395" y="-54.3" font-family="Helvetica,sans-Serif" font-size="11.00" fill="#000000">&lt; 2</text>
<polygon fill="#ffffff" stroke="transparent" points="433,-48.2 433,-67.2 492,-67.2 492,-48.2 433,-48.2"/>
<polygon fill="none" stroke="#000000" points="433,-48.2 433,-67.2 492,-67.2 492,-48.2 433,-48.2"/>
<text text-anchor="start" x="456.6105" y="-54.3" font-family="Helvetica,sans-Serif" font-size="11.00" fill="#000000">0 rows</text>
<polygon fill="#ffffff" stroke="transparent" points="492,-48.2 492,-67.2 534,-67.2 534,-48.2 492,-48.2"/>
<polygon fill="none" stroke="#000000" points="492,-48.2 492,-67.2 534,-67.2 534,-48.2 492,-48.2"/>
<text text-anchor="start" x="515.4053" y="-54.3" font-family="Helvetica,sans-Serif" font-size="11.00" fill="#000000">0 &gt;</text>
<polygon fill="none" stroke="#000000" stroke-width="2" points="391,-47.2 391,-135.2 535,-135.2 535,-47.2 391,-47.2"/>
</a>
</g>
</g>
<!-- mat_mat_dr&#45;&gt;mat -->
<g id="edge4" class="edge">
<title>mat_mat_dr:w&#45;&gt;mat:e</title>
<path fill="none" stroke="#000000" d="M377.8754,-103.7989C347.5254,-123.3784 391.7988,-216.2 341.5,-216.2"/>
<polygon fill="#000000" stroke="#000000" points="384.2477,-102.1753 392.8889,-103.6885 388.1238,-101.1876 392,-100.2 392,-100.2 392,-100.2 388.1238,-101.1876 391.1111,-96.7115 384.2477,-102.1753 384.2477,-102.1753"/>
<ellipse fill="none" stroke="#000000" cx="381.1468" cy="-102.9654" rx="3.2" ry="3.2"/>
</g>
<!-- mat_mat_dr&#45;&gt;mat_dr -->
<g id="edge5" class="edge">
<title>mat_mat_dr:w&#45;&gt;mat_dr:e</title>
<path fill="none" stroke="#000000" d="M377.6007,-77.4808C355.8664,-75.1879 346.0589,-68.2 318.5,-68.2"/>
<polygon fill="#000000" stroke="#000000" points="384.01,-77.8009 391.8204,-81.7955 388.005,-78.0004 392,-78.2 392,-78.2 392,-78.2 388.005,-78.0004 392.1796,-74.6045 384.01,-77.8009 384.01,-77.8009"/>
<ellipse fill="none" stroke="#000000" cx="380.8139" cy="-77.6412" rx="3.2" ry="3.2"/>
</g>
<!-- point -->
<g id="node7" class="node">
<title>point</title>
<g id="a_node7"><a xlink:href="../../tables/point.html" xlink:title="point" target="_top">
<polygon fill="#ffffff" stroke="transparent" points="401.5,-177.7 401.5,-238.7 524.5,-238.7 524.5,-177.7 401.5,-177.7"/>
<polygon fill="#f5f5f5" stroke="transparent" points="402,-215.2 402,-238.2 525,-238.2 525,-215.2 402,-215.2"/>
<polygon fill="none" stroke="#000000" points="402,-215.2 402,-238.2 525,-238.2 525,-215.2 402,-215.2"/>
<text text-anchor="start" x="407" y="-223.8" font-family="Helvetica,sans-Serif" font-weight="bold" font-size="11.00" fill="#000000">point</text>
<text text-anchor="start" x="490.0437" y="-223.3" font-family="Helvetica,sans-Serif" font-size="11.00" fill="#000000">[table]</text>
<polygon fill="none" stroke="#000000" points="402,-196.2 402,-215.2 525,-215.2 525,-196.2 402,-196.2"/>
<text text-anchor="start" x="405" y="-202.3" font-family="Helvetica,sans-Serif" font-size="11.00" fill="#000000">...</text>
<polygon fill="#ffffff" stroke="transparent" points="402,-177.2 402,-196.2 423,-196.2 423,-177.2 402,-177.2"/>
<polygon fill="none" stroke="#000000" points="402,-177.2 402,-196.2 423,-196.2 423,-177.2 402,-177.2"/>
<text text-anchor="start" x="404.7027" y="-183.3" font-family="Helvetica,sans-Serif" font-size="11.00" fill="#000000">&lt; 1</text>
<polygon fill="#ffffff" stroke="transparent" points="423,-177.2 423,-196.2 504,-196.2 504,-177.2 423,-177.2"/>
<polygon fill="none" stroke="#000000" points="423,-177.2 423,-196.2 504,-196.2 504,-177.2 423,-177.2"/>
<text text-anchor="start" x="425.9037" y="-183.3" font-family="Helvetica,sans-Serif" font-size="11.00" fill="#000000">1.039.258 rows</text>
<polygon fill="#ffffff" stroke="transparent" points="504,-177.2 504,-196.2 525,-196.2 525,-177.2 504,-177.2"/>
<polygon fill="none" stroke="#000000" points="504,-177.2 504,-196.2 525,-196.2 525,-177.2 504,-177.2"/>
<text text-anchor="start" x="506.7027" y="-183.3" font-family="Helvetica,sans-Serif" font-size="11.00" fill="#000000">4 &gt;</text>
</a>
</g>
</g>
<!-- point&#45;&gt;mat -->
<g id="edge6" class="edge">
<title>point:w&#45;&gt;mat:e</title>
<path fill="none" stroke="#000000" d="M387.6457,-206.3772C371.4109,-209.2149 363.2784,-216.2 341.5,-216.2"/>
<polygon fill="#000000" stroke="#000000" points="394.0268,-205.8539 402.2943,-208.788 398.0134,-205.527 402,-205.2 402,-205.2 402,-205.2 398.0134,-205.527 401.7057,-201.612 394.0268,-205.8539 394.0268,-205.8539"/>
<ellipse fill="none" stroke="#000000" cx="390.8375" cy="-206.1155" rx="3.2" ry="3.2"/>
</g>
</g>
</svg>
