<?xml version="1.0" encoding="UTF-8" standalone="no"?>
<!DOCTYPE svg PUBLIC "-//W3C//DTD SVG 1.1//EN"
 "http://www.w3.org/Graphics/SVG/1.1/DTD/svg11.dtd">
<!-- Generated by graphviz version 2.40.1 (20161225.0304)
 -->
<!-- Title: oneDegreeRelationshipsDiagram Pages: 1 -->
<svg width="350pt" height="263pt"
 viewBox="0.00 0.00 350.00 262.70" xmlns="http://www.w3.org/2000/svg" xmlns:xlink="http://www.w3.org/1999/xlink">
<g id="graph0" class="graph" transform="scale(1 1) rotate(0) translate(4 258.7)">
<title>oneDegreeRelationshipsDiagram</title>
<polygon fill="#ffffff" stroke="transparent" points="-4,4 -4,-258.7 346,-258.7 346,4 -4,4"/>
<text text-anchor="middle" x="72.4936" y="-7.3" font-family="Helvetica,sans-Serif" font-size="11.00" fill="#000000">Generated by SchemaSpy</text>
<!-- mat_mat_dr -->
<g id="node1" class="node">
<title>mat_mat_dr</title>
<g id="a_node1"><a xlink:href="../../tables/mat_mat_dr.html" xlink:title="mat_mat_dr" target="_top">
<polygon fill="#ffffff" stroke="transparent" points="188,-99.2 188,-189.2 334,-189.2 334,-99.2 188,-99.2"/>
<polygon fill="#f5f5f5" stroke="transparent" points="190,-164.2 190,-187.2 332,-187.2 332,-164.2 190,-164.2"/>
<polygon fill="none" stroke="#000000" points="190,-164.2 190,-187.2 332,-187.2 332,-164.2 190,-164.2"/>
<text text-anchor="start" x="195" y="-172.8" font-family="Helvetica,sans-Serif" font-weight="bold" font-size="11.00" fill="#000000">mat_mat_dr</text>
<text text-anchor="start" x="297.0437" y="-172.3" font-family="Helvetica,sans-Serif" font-size="11.00" fill="#000000">[table]</text>
<polygon fill="none" stroke="#000000" points="190,-142.2 190,-164.2 290,-164.2 290,-142.2 190,-142.2"/>
<image xlink:href="../../images/primaryKeys.png" width="11px" height="12px" preserveAspectRatio="xMinYMin meet" x="195" y="-159.2"/>
<text text-anchor="start" x="210" y="-149.3" font-family="Helvetica,sans-Serif" font-size="11.00" fill="#000000">mat_id</text>
<polygon fill="none" stroke="#000000" points="290,-142.2 290,-164.2 332,-164.2 332,-142.2 290,-142.2"/>
<text text-anchor="start" x="292.9644" y="-149.9" font-family="Helvetica,sans-Serif" font-size="11.00" fill="#000000">int4[10]</text>
<polygon fill="none" stroke="#000000" points="190,-120.2 190,-142.2 290,-142.2 290,-120.2 190,-120.2"/>
<image xlink:href="../../images/primaryKeys.png" width="11px" height="12px" preserveAspectRatio="xMinYMin meet" x="195" y="-137.2"/>
<text text-anchor="start" x="210" y="-127.3" font-family="Helvetica,sans-Serif" font-size="11.00" fill="#000000">rule_id</text>
<polygon fill="none" stroke="#000000" points="290,-120.2 290,-142.2 332,-142.2 332,-120.2 290,-120.2"/>
<text text-anchor="start" x="292.9644" y="-127.9" font-family="Helvetica,sans-Serif" font-size="11.00" fill="#000000">int4[10]</text>
<polygon fill="#ffffff" stroke="transparent" points="190,-101.2 190,-120.2 231,-120.2 231,-101.2 190,-101.2"/>
<polygon fill="none" stroke="#000000" points="190,-101.2 190,-120.2 231,-120.2 231,-101.2 190,-101.2"/>
<text text-anchor="start" x="193" y="-107.3" font-family="Helvetica,sans-Serif" font-size="11.00" fill="#000000">&lt; 2</text>
<polygon fill="#ffffff" stroke="transparent" points="231,-101.2 231,-120.2 290,-120.2 290,-101.2 231,-101.2"/>
<polygon fill="none" stroke="#000000" points="231,-101.2 231,-120.2 290,-120.2 290,-101.2 231,-101.2"/>
<text text-anchor="start" x="254.6105" y="-107.3" font-family="Helvetica,sans-Serif" font-size="11.00" fill="#000000">0 rows</text>
<polygon fill="#ffffff" stroke="transparent" points="290,-101.2 290,-120.2 332,-120.2 332,-101.2 290,-101.2"/>
<polygon fill="none" stroke="#000000" points="290,-101.2 290,-120.2 332,-120.2 332,-101.2 290,-101.2"/>
<text text-anchor="start" x="313.4053" y="-107.3" font-family="Helvetica,sans-Serif" font-size="11.00" fill="#000000">0 &gt;</text>
<polygon fill="none" stroke="#000000" stroke-width="2" points="189,-100.2 189,-188.2 333,-188.2 333,-100.2 189,-100.2"/>
</a>
</g>
</g>
<!-- mat -->
<g id="node2" class="node">
<title>mat</title>
<g id="a_node2"><a xlink:href="../../tables/mat.html" xlink:title="mat" target="_top">
<polygon fill="#ffffff" stroke="transparent" points="8,-123.7 8,-250.7 139,-250.7 139,-123.7 8,-123.7"/>
<polygon fill="#f5f5f5" stroke="transparent" points="8.5,-227.2 8.5,-250.2 139.5,-250.2 139.5,-227.2 8.5,-227.2"/>
<polygon fill="none" stroke="#000000" points="8.5,-227.2 8.5,-250.2 139.5,-250.2 139.5,-227.2 8.5,-227.2"/>
<text text-anchor="start" x="13.5" y="-235.8" font-family="Helvetica,sans-Serif" font-weight="bold" font-size="11.00" fill="#000000">mat</text>
<text text-anchor="start" x="104.5437" y="-235.3" font-family="Helvetica,sans-Serif" font-size="11.00" fill="#000000">[table]</text>
<polygon fill="none" stroke="#000000" points="8.5,-205.2 8.5,-227.2 139.5,-227.2 139.5,-205.2 8.5,-205.2"/>
<image xlink:href="../../images/primaryKeys.png" width="11px" height="12px" preserveAspectRatio="xMinYMin meet" x="13.5" y="-222.2"/>
<text text-anchor="start" x="28.5" y="-212.3" font-family="Helvetica,sans-Serif" font-size="11.00" fill="#000000">mat_id</text>
<polygon fill="#ffffff" stroke="transparent" points="8.5,-183.2 8.5,-205.2 139.5,-205.2 139.5,-183.2 8.5,-183.2"/>
<polygon fill="none" stroke="#000000" points="8.5,-183.2 8.5,-205.2 139.5,-205.2 139.5,-183.2 8.5,-183.2"/>
<text text-anchor="start" x="28.5" y="-190.3" font-family="Helvetica,sans-Serif" font-size="11.00" fill="#000000">description</text>
<polygon fill="#ffffff" stroke="transparent" points="8.5,-161.2 8.5,-183.2 139.5,-183.2 139.5,-161.2 8.5,-161.2"/>
<polygon fill="none" stroke="#000000" points="8.5,-161.2 8.5,-183.2 139.5,-183.2 139.5,-161.2 8.5,-161.2"/>
<image xlink:href="../../images/foreignKeys.png" width="11px" height="12px" preserveAspectRatio="xMinYMin meet" x="13.5" y="-178.2"/>
<text text-anchor="start" x="28.5" y="-168.3" font-family="Helvetica,sans-Serif" font-size="11.00" fill="#000000">mo_id</text>
<polygon fill="none" stroke="#000000" points="8.5,-142.2 8.5,-161.2 139.5,-161.2 139.5,-142.2 8.5,-142.2"/>
<text text-anchor="start" x="11.5" y="-148.3" font-family="Helvetica,sans-Serif" font-size="11.00" fill="#000000">...</text>
<polygon fill="#ffffff" stroke="transparent" points="8.5,-123.2 8.5,-142.2 37.5,-142.2 37.5,-123.2 8.5,-123.2"/>
<polygon fill="none" stroke="#000000" points="8.5,-123.2 8.5,-142.2 37.5,-142.2 37.5,-123.2 8.5,-123.2"/>
<text text-anchor="start" x="11.5" y="-129.3" font-family="Helvetica,sans-Serif" font-size="11.00" fill="#000000">&lt; 1</text>
<polygon fill="#ffffff" stroke="transparent" points="37.5,-123.2 37.5,-142.2 113.5,-142.2 113.5,-123.2 37.5,-123.2"/>
<polygon fill="none" stroke="#000000" points="37.5,-123.2 37.5,-142.2 113.5,-142.2 113.5,-123.2 37.5,-123.2"/>
<text text-anchor="start" x="44.4791" y="-129.3" font-family="Helvetica,sans-Serif" font-size="11.00" fill="#000000">292.481 rows</text>
<polygon fill="#ffffff" stroke="transparent" points="113.5,-123.2 113.5,-142.2 139.5,-142.2 139.5,-123.2 113.5,-123.2"/>
<polygon fill="none" stroke="#000000" points="113.5,-123.2 113.5,-142.2 139.5,-142.2 139.5,-123.2 113.5,-123.2"/>
<text text-anchor="start" x="120.9053" y="-129.3" font-family="Helvetica,sans-Serif" font-size="11.00" fill="#000000">3 &gt;</text>
</a>
</g>
</g>
<!-- mat_mat_dr&#45;&gt;mat -->
<g id="edge1" class="edge">
<title>mat_mat_dr:w&#45;&gt;mat:e</title>
<path fill="none" stroke="#000000" d="M175.9816,-158.1435C159.738,-172.9952 169.2175,-216.2 139.5,-216.2"/>
<polygon fill="#000000" stroke="#000000" points="182.4554,-155.8606 191.1973,-156.5951 186.2277,-154.5303 190,-153.2 190,-153.2 190,-153.2 186.2277,-154.5303 188.8027,-149.8049 182.4554,-155.8606 182.4554,-155.8606"/>
<ellipse fill="none" stroke="#000000" cx="179.4375" cy="-156.9248" rx="3.2" ry="3.2"/>
</g>
<!-- mat_dr -->
<g id="node3" class="node">
<title>mat_dr</title>
<g id="a_node3"><a xlink:href="../../tables/mat_dr.html" xlink:title="mat_dr" target="_top">
<polygon fill="#ffffff" stroke="transparent" points="31,-38.2 31,-102.2 116,-102.2 116,-38.2 31,-38.2"/>
<polygon fill="#f5f5f5" stroke="transparent" points="31.5,-79.2 31.5,-102.2 116.5,-102.2 116.5,-79.2 31.5,-79.2"/>
<polygon fill="none" stroke="#000000" points="31.5,-79.2 31.5,-102.2 116.5,-102.2 116.5,-79.2 31.5,-79.2"/>
<text text-anchor="start" x="36.5" y="-87.8" font-family="Helvetica,sans-Serif" font-weight="bold" font-size="11.00" fill="#000000">mat_dr</text>
<text text-anchor="start" x="82.0219" y="-87.3" font-family="Helvetica,sans-Serif" font-size="11.00" fill="#000000">[table]</text>
<polygon fill="none" stroke="#000000" points="31.5,-57.2 31.5,-79.2 116.5,-79.2 116.5,-57.2 31.5,-57.2"/>
<image xlink:href="../../images/primaryKeys.png" width="11px" height="12px" preserveAspectRatio="xMinYMin meet" x="36.5" y="-74.2"/>
<text text-anchor="start" x="60.5" y="-64.3" font-family="Helvetica,sans-Serif" font-size="11.00" fill="#000000">rule_id</text>
<polygon fill="#ffffff" stroke="transparent" points="31.5,-38.2 31.5,-57.2 54.5,-57.2 54.5,-38.2 31.5,-38.2"/>
<polygon fill="none" stroke="#000000" points="31.5,-38.2 31.5,-57.2 54.5,-57.2 54.5,-38.2 31.5,-38.2"/>
<text text-anchor="start" x="34.5" y="-44.3" font-family="Helvetica,sans-Serif" font-size="11.00" fill="#000000">&lt; 1</text>
<polygon fill="#ffffff" stroke="transparent" points="54.5,-38.2 54.5,-57.2 93.5,-57.2 93.5,-38.2 54.5,-38.2"/>
<polygon fill="none" stroke="#000000" points="54.5,-38.2 54.5,-57.2 93.5,-57.2 93.5,-38.2 54.5,-38.2"/>
<text text-anchor="start" x="58.1105" y="-44.3" font-family="Helvetica,sans-Serif" font-size="11.00" fill="#000000">0 rows</text>
<polygon fill="#ffffff" stroke="transparent" points="93.5,-38.2 93.5,-57.2 116.5,-57.2 116.5,-38.2 93.5,-38.2"/>
<polygon fill="none" stroke="#000000" points="93.5,-38.2 93.5,-57.2 116.5,-57.2 116.5,-38.2 93.5,-38.2"/>
<text text-anchor="start" x="97.9053" y="-44.3" font-family="Helvetica,sans-Serif" font-size="11.00" fill="#000000">1 &gt;</text>
</a>
</g>
</g>
<!-- mat_mat_dr&#45;&gt;mat_dr -->
<g id="edge2" class="edge">
<title>mat_mat_dr:w&#45;&gt;mat_dr:e</title>
<path fill="none" stroke="#000000" d="M175.5378,-128.1614C149.3285,-115.5769 153.8103,-68.2 116.5,-68.2"/>
<polygon fill="#000000" stroke="#000000" points="182.1709,-129.555 189.2598,-134.7231 186.0855,-130.3775 190,-131.2 190,-131.2 190,-131.2 186.0855,-130.3775 190.7402,-127.6769 182.1709,-129.555 182.1709,-129.555"/>
<ellipse fill="none" stroke="#000000" cx="179.0393" cy="-128.897" rx="3.2" ry="3.2"/>
</g>
</g>
</svg>
