<?xml version="1.0" encoding="UTF-8" standalone="no"?>
<!DOCTYPE svg PUBLIC "-//W3C//DTD SVG 1.1//EN"
 "http://www.w3.org/Graphics/SVG/1.1/DTD/svg11.dtd">
<!-- Generated by graphviz version 2.40.1 (20161225.0304)
 -->
<!-- Title: twoDegreesRelationshipsDiagram Pages: 1 -->
<svg width="717pt" height="661pt"
 viewBox="0.00 0.00 717.00 661.20" xmlns="http://www.w3.org/2000/svg" xmlns:xlink="http://www.w3.org/1999/xlink">
<g id="graph0" class="graph" transform="scale(1 1) rotate(0) translate(4 657.2)">
<title>twoDegreesRelationshipsDiagram</title>
<polygon fill="#ffffff" stroke="transparent" points="-4,4 -4,-657.2 713,-657.2 713,4 -4,4"/>
<text text-anchor="middle" x="72.4936" y="-7.3" font-family="Helvetica,sans-Serif" font-size="11.00" fill="#000000">Generated by SchemaSpy</text>
<!-- aspect -->
<g id="node1" class="node">
<title>aspect</title>
<g id="a_node1"><a xlink:href="../../tables/aspect.html" xlink:title="aspect" target="_top">
<polygon fill="#ffffff" stroke="transparent" points="198.5,-360.2 198.5,-487.2 318.5,-487.2 318.5,-360.2 198.5,-360.2"/>
<polygon fill="#f5f5f5" stroke="transparent" points="198.5,-463.7 198.5,-486.7 318.5,-486.7 318.5,-463.7 198.5,-463.7"/>
<polygon fill="none" stroke="#000000" points="198.5,-463.7 198.5,-486.7 318.5,-486.7 318.5,-463.7 198.5,-463.7"/>
<text text-anchor="start" x="203.5" y="-472.3" font-family="Helvetica,sans-Serif" font-weight="bold" font-size="11.00" fill="#000000">aspect</text>
<text text-anchor="start" x="283.5437" y="-471.8" font-family="Helvetica,sans-Serif" font-size="11.00" fill="#000000">[table]</text>
<polygon fill="none" stroke="#000000" points="198.5,-441.7 198.5,-463.7 318.5,-463.7 318.5,-441.7 198.5,-441.7"/>
<image xlink:href="../../images/primaryKeys.png" width="11px" height="12px" preserveAspectRatio="xMinYMin meet" x="203.5" y="-458.7"/>
<text text-anchor="start" x="218.5" y="-448.8" font-family="Helvetica,sans-Serif" font-size="11.00" fill="#000000">aspect_id</text>
<polygon fill="#ffffff" stroke="transparent" points="198.5,-419.7 198.5,-441.7 318.5,-441.7 318.5,-419.7 198.5,-419.7"/>
<polygon fill="none" stroke="#000000" points="198.5,-419.7 198.5,-441.7 318.5,-441.7 318.5,-419.7 198.5,-419.7"/>
<text text-anchor="start" x="218.5" y="-426.8" font-family="Helvetica,sans-Serif" font-size="11.00" fill="#000000">description</text>
<polygon fill="#ffffff" stroke="transparent" points="198.5,-397.7 198.5,-419.7 318.5,-419.7 318.5,-397.7 198.5,-397.7"/>
<polygon fill="none" stroke="#000000" points="198.5,-397.7 198.5,-419.7 318.5,-419.7 318.5,-397.7 198.5,-397.7"/>
<image xlink:href="../../images/foreignKeys.png" width="11px" height="12px" preserveAspectRatio="xMinYMin meet" x="203.5" y="-414.7"/>
<text text-anchor="start" x="218.5" y="-404.8" font-family="Helvetica,sans-Serif" font-size="11.00" fill="#000000">aspect_type_id</text>
<polygon fill="none" stroke="#000000" points="198.5,-378.7 198.5,-397.7 318.5,-397.7 318.5,-378.7 198.5,-378.7"/>
<text text-anchor="start" x="201.5" y="-384.8" font-family="Helvetica,sans-Serif" font-size="11.00" fill="#000000">...</text>
<polygon fill="#ffffff" stroke="transparent" points="198.5,-359.7 198.5,-378.7 228.5,-378.7 228.5,-359.7 198.5,-359.7"/>
<polygon fill="none" stroke="#000000" points="198.5,-359.7 198.5,-378.7 228.5,-378.7 228.5,-359.7 198.5,-359.7"/>
<text text-anchor="start" x="201.5" y="-365.8" font-family="Helvetica,sans-Serif" font-size="11.00" fill="#000000">&lt; 1</text>
<polygon fill="#ffffff" stroke="transparent" points="228.5,-359.7 228.5,-378.7 292.5,-378.7 292.5,-359.7 228.5,-359.7"/>
<polygon fill="none" stroke="#000000" points="228.5,-359.7 228.5,-378.7 292.5,-378.7 292.5,-359.7 228.5,-359.7"/>
<text text-anchor="start" x="235.7089" y="-365.8" font-family="Helvetica,sans-Serif" font-size="11.00" fill="#000000">2.300 rows</text>
<polygon fill="#ffffff" stroke="transparent" points="292.5,-359.7 292.5,-378.7 318.5,-378.7 318.5,-359.7 292.5,-359.7"/>
<polygon fill="none" stroke="#000000" points="292.5,-359.7 292.5,-378.7 318.5,-378.7 318.5,-359.7 292.5,-359.7"/>
<text text-anchor="start" x="299.9053" y="-365.8" font-family="Helvetica,sans-Serif" font-size="11.00" fill="#000000">6 &gt;</text>
</a>
</g>
</g>
<!-- aspect_type -->
<g id="node2" class="node">
<title>aspect_type</title>
<g id="a_node2"><a xlink:href="../../tables/aspect_type.html" xlink:title="aspect_type" target="_top">
<polygon fill="#ffffff" stroke="transparent" points="16,-381.2 16,-442.2 136,-442.2 136,-381.2 16,-381.2"/>
<polygon fill="#f5f5f5" stroke="transparent" points="16,-418.7 16,-441.7 136,-441.7 136,-418.7 16,-418.7"/>
<polygon fill="none" stroke="#000000" points="16,-418.7 16,-441.7 136,-441.7 136,-418.7 16,-418.7"/>
<text text-anchor="start" x="21" y="-427.3" font-family="Helvetica,sans-Serif" font-weight="bold" font-size="11.00" fill="#000000">aspect_type</text>
<text text-anchor="start" x="101.5219" y="-426.8" font-family="Helvetica,sans-Serif" font-size="11.00" fill="#000000">[table]</text>
<polygon fill="none" stroke="#000000" points="16,-399.7 16,-418.7 136,-418.7 136,-399.7 16,-399.7"/>
<text text-anchor="start" x="19" y="-405.8" font-family="Helvetica,sans-Serif" font-size="11.00" fill="#000000">...</text>
<polygon fill="#ffffff" stroke="transparent" points="16,-380.7 16,-399.7 57,-399.7 57,-380.7 16,-380.7"/>
<polygon fill="none" stroke="#000000" points="16,-380.7 16,-399.7 57,-399.7 57,-380.7 16,-380.7"/>
<text text-anchor="start" x="19" y="-386.8" font-family="Helvetica,sans-Serif" font-size="11.00" fill="#000000">&lt; 1</text>
<polygon fill="#ffffff" stroke="transparent" points="57,-380.7 57,-399.7 105,-399.7 105,-380.7 57,-380.7"/>
<polygon fill="none" stroke="#000000" points="57,-380.7 57,-399.7 105,-399.7 105,-380.7 57,-380.7"/>
<text text-anchor="start" x="69.6105" y="-386.8" font-family="Helvetica,sans-Serif" font-size="11.00" fill="#000000">4 rows</text>
<polygon fill="#ffffff" stroke="transparent" points="105,-380.7 105,-399.7 136,-399.7 136,-380.7 105,-380.7"/>
<polygon fill="none" stroke="#000000" points="105,-380.7 105,-399.7 136,-399.7 136,-380.7 105,-380.7"/>
<text text-anchor="start" x="117.4053" y="-386.8" font-family="Helvetica,sans-Serif" font-size="11.00" fill="#000000">4 &gt;</text>
</a>
</g>
</g>
<!-- aspect&#45;&gt;aspect_type -->
<g id="edge1" class="edge">
<title>aspect:w&#45;&gt;aspect_type:e</title>
<path fill="none" stroke="#000000" d="M183.8024,-408.7C167.0415,-408.7 158.1354,-408.7 136,-408.7"/>
<polygon fill="#000000" stroke="#000000" points="190.5,-408.7001 198.5,-412.3 194.5,-408.7 198.5,-408.7 198.5,-408.7 198.5,-408.7 194.5,-408.7 198.5,-405.1 190.5,-408.7001 190.5,-408.7001"/>
<ellipse fill="none" stroke="#000000" cx="187.3" cy="-408.7001" rx="3.2" ry="3.2"/>
</g>
<!-- aspect_attribute -->
<g id="node3" class="node">
<title>aspect_attribute</title>
<g id="a_node3"><a xlink:href="../../tables/aspect_attribute.html" xlink:title="aspect_attribute" target="_top">
<polygon fill="#ffffff" stroke="transparent" points="375,-588.2 375,-649.2 525,-649.2 525,-588.2 375,-588.2"/>
<polygon fill="#f5f5f5" stroke="transparent" points="375,-625.7 375,-648.7 525,-648.7 525,-625.7 375,-625.7"/>
<polygon fill="none" stroke="#000000" points="375,-625.7 375,-648.7 525,-648.7 525,-625.7 375,-625.7"/>
<text text-anchor="start" x="380" y="-634.3" font-family="Helvetica,sans-Serif" font-weight="bold" font-size="11.00" fill="#000000">aspect_attribute</text>
<text text-anchor="start" x="490.5219" y="-633.8" font-family="Helvetica,sans-Serif" font-size="11.00" fill="#000000">[table]</text>
<polygon fill="none" stroke="#000000" points="375,-606.7 375,-625.7 525,-625.7 525,-606.7 375,-606.7"/>
<text text-anchor="start" x="378" y="-612.8" font-family="Helvetica,sans-Serif" font-size="11.00" fill="#000000">...</text>
<polygon fill="#ffffff" stroke="transparent" points="375,-587.7 375,-606.7 425,-606.7 425,-587.7 375,-587.7"/>
<polygon fill="none" stroke="#000000" points="375,-587.7 375,-606.7 425,-606.7 425,-587.7 375,-587.7"/>
<text text-anchor="start" x="378" y="-593.8" font-family="Helvetica,sans-Serif" font-size="11.00" fill="#000000">&lt; 3</text>
<polygon fill="#ffffff" stroke="transparent" points="425,-587.7 425,-606.7 498,-606.7 498,-587.7 425,-587.7"/>
<polygon fill="none" stroke="#000000" points="425,-587.7 425,-606.7 498,-606.7 498,-587.7 425,-587.7"/>
<text text-anchor="start" x="441.2089" y="-593.8" font-family="Helvetica,sans-Serif" font-size="11.00" fill="#000000">6.100 rows</text>
<polygon fill="#ffffff" stroke="transparent" points="498,-587.7 498,-606.7 525,-606.7 525,-587.7 498,-587.7"/>
<polygon fill="none" stroke="#000000" points="498,-587.7 498,-606.7 525,-606.7 525,-587.7 498,-587.7"/>
<text text-anchor="start" x="515.8862" y="-593.8" font-family="Helvetica,sans-Serif" font-size="11.00" fill="#000000"> &#160;</text>
</a>
</g>
</g>
<!-- aspect_attribute&#45;&gt;aspect -->
<g id="edge2" class="edge">
<title>aspect_attribute:w&#45;&gt;aspect:e</title>
<path fill="none" stroke="#000000" d="M360.6538,-613.1397C311.7467,-592.4026 389.4825,-452.7 318.5,-452.7"/>
<polygon fill="#000000" stroke="#000000" points="367.1244,-614.2944 374.3675,-619.244 371.0622,-614.9972 375,-615.7 375,-615.7 375,-615.7 371.0622,-614.9972 375.6325,-612.156 367.1244,-614.2944 367.1244,-614.2944"/>
<ellipse fill="none" stroke="#000000" cx="363.9742" cy="-613.7322" rx="3.2" ry="3.2"/>
</g>
<!-- mat -->
<g id="node4" class="node">
<title>mat</title>
<g id="a_node4"><a xlink:href="../../tables/mat.html" xlink:title="mat" target="_top">
<polygon fill="#ffffff" stroke="transparent" points="193,-109.2 193,-236.2 324,-236.2 324,-109.2 193,-109.2"/>
<polygon fill="#f5f5f5" stroke="transparent" points="193.5,-212.7 193.5,-235.7 324.5,-235.7 324.5,-212.7 193.5,-212.7"/>
<polygon fill="none" stroke="#000000" points="193.5,-212.7 193.5,-235.7 324.5,-235.7 324.5,-212.7 193.5,-212.7"/>
<text text-anchor="start" x="198.5" y="-221.3" font-family="Helvetica,sans-Serif" font-weight="bold" font-size="11.00" fill="#000000">mat</text>
<text text-anchor="start" x="289.5437" y="-220.8" font-family="Helvetica,sans-Serif" font-size="11.00" fill="#000000">[table]</text>
<polygon fill="none" stroke="#000000" points="193.5,-190.7 193.5,-212.7 324.5,-212.7 324.5,-190.7 193.5,-190.7"/>
<image xlink:href="../../images/primaryKeys.png" width="11px" height="12px" preserveAspectRatio="xMinYMin meet" x="198.5" y="-207.7"/>
<text text-anchor="start" x="213.5" y="-197.8" font-family="Helvetica,sans-Serif" font-size="11.00" fill="#000000">mat_id</text>
<polygon fill="#ffffff" stroke="transparent" points="193.5,-168.7 193.5,-190.7 324.5,-190.7 324.5,-168.7 193.5,-168.7"/>
<polygon fill="none" stroke="#000000" points="193.5,-168.7 193.5,-190.7 324.5,-190.7 324.5,-168.7 193.5,-168.7"/>
<text text-anchor="start" x="213.5" y="-175.8" font-family="Helvetica,sans-Serif" font-size="11.00" fill="#000000">description</text>
<polygon fill="#ffffff" stroke="transparent" points="193.5,-146.7 193.5,-168.7 324.5,-168.7 324.5,-146.7 193.5,-146.7"/>
<polygon fill="none" stroke="#000000" points="193.5,-146.7 193.5,-168.7 324.5,-168.7 324.5,-146.7 193.5,-146.7"/>
<image xlink:href="../../images/foreignKeys.png" width="11px" height="12px" preserveAspectRatio="xMinYMin meet" x="198.5" y="-163.7"/>
<text text-anchor="start" x="213.5" y="-153.8" font-family="Helvetica,sans-Serif" font-size="11.00" fill="#000000">mo_id</text>
<polygon fill="none" stroke="#000000" points="193.5,-127.7 193.5,-146.7 324.5,-146.7 324.5,-127.7 193.5,-127.7"/>
<text text-anchor="start" x="196.5" y="-133.8" font-family="Helvetica,sans-Serif" font-size="11.00" fill="#000000">...</text>
<polygon fill="#ffffff" stroke="transparent" points="193.5,-108.7 193.5,-127.7 222.5,-127.7 222.5,-108.7 193.5,-108.7"/>
<polygon fill="none" stroke="#000000" points="193.5,-108.7 193.5,-127.7 222.5,-127.7 222.5,-108.7 193.5,-108.7"/>
<text text-anchor="start" x="196.5" y="-114.8" font-family="Helvetica,sans-Serif" font-size="11.00" fill="#000000">&lt; 1</text>
<polygon fill="#ffffff" stroke="transparent" points="222.5,-108.7 222.5,-127.7 298.5,-127.7 298.5,-108.7 222.5,-108.7"/>
<polygon fill="none" stroke="#000000" points="222.5,-108.7 222.5,-127.7 298.5,-127.7 298.5,-108.7 222.5,-108.7"/>
<text text-anchor="start" x="229.4791" y="-114.8" font-family="Helvetica,sans-Serif" font-size="11.00" fill="#000000">292.481 rows</text>
<polygon fill="#ffffff" stroke="transparent" points="298.5,-108.7 298.5,-127.7 324.5,-127.7 324.5,-108.7 298.5,-108.7"/>
<polygon fill="none" stroke="#000000" points="298.5,-108.7 298.5,-127.7 324.5,-127.7 324.5,-108.7 298.5,-108.7"/>
<text text-anchor="start" x="305.9053" y="-114.8" font-family="Helvetica,sans-Serif" font-size="11.00" fill="#000000">3 &gt;</text>
</a>
</g>
</g>
<!-- moving_object -->
<g id="node5" class="node">
<title>moving_object</title>
<g id="a_node5"><a xlink:href="../../tables/moving_object.html" xlink:title="moving_object" target="_top">
<polygon fill="#ffffff" stroke="transparent" points="8,-206.2 8,-267.2 144,-267.2 144,-206.2 8,-206.2"/>
<polygon fill="#f5f5f5" stroke="transparent" points="8,-243.7 8,-266.7 144,-266.7 144,-243.7 8,-243.7"/>
<polygon fill="none" stroke="#000000" points="8,-243.7 8,-266.7 144,-266.7 144,-243.7 8,-243.7"/>
<text text-anchor="start" x="13" y="-252.3" font-family="Helvetica,sans-Serif" font-weight="bold" font-size="11.00" fill="#000000">moving_object</text>
<text text-anchor="start" x="109.5219" y="-251.8" font-family="Helvetica,sans-Serif" font-size="11.00" fill="#000000">[table]</text>
<polygon fill="none" stroke="#000000" points="8,-224.7 8,-243.7 144,-243.7 144,-224.7 8,-224.7"/>
<text text-anchor="start" x="11" y="-230.8" font-family="Helvetica,sans-Serif" font-size="11.00" fill="#000000">...</text>
<polygon fill="#ffffff" stroke="transparent" points="8,-205.7 8,-224.7 46,-224.7 46,-205.7 8,-205.7"/>
<polygon fill="none" stroke="#000000" points="8,-205.7 8,-224.7 46,-224.7 46,-205.7 8,-205.7"/>
<text text-anchor="start" x="11" y="-211.8" font-family="Helvetica,sans-Serif" font-size="11.00" fill="#000000">&lt; 1</text>
<polygon fill="#ffffff" stroke="transparent" points="46,-205.7 46,-224.7 114,-224.7 114,-205.7 46,-205.7"/>
<polygon fill="none" stroke="#000000" points="46,-205.7 46,-224.7 114,-224.7 114,-205.7 46,-205.7"/>
<text text-anchor="start" x="57.2089" y="-211.8" font-family="Helvetica,sans-Serif" font-size="11.00" fill="#000000">2.000 rows</text>
<polygon fill="#ffffff" stroke="transparent" points="114,-205.7 114,-224.7 144,-224.7 144,-205.7 114,-205.7"/>
<polygon fill="none" stroke="#000000" points="114,-205.7 114,-224.7 144,-224.7 144,-205.7 114,-205.7"/>
<text text-anchor="start" x="125.4053" y="-211.8" font-family="Helvetica,sans-Serif" font-size="11.00" fill="#000000">5 &gt;</text>
</a>
</g>
</g>
<!-- mat&#45;&gt;moving_object -->
<g id="edge3" class="edge">
<title>mat:w&#45;&gt;moving_object:e</title>
<path fill="none" stroke="#000000" d="M179.8037,-162.2265C160.8546,-178.5879 178.3269,-233.7 144,-233.7"/>
<polygon fill="#000000" stroke="#000000" points="185.9041,-160.2104 194.6297,-161.1182 189.702,-158.9552 193.5,-157.7 193.5,-157.7 193.5,-157.7 189.702,-158.9552 192.3703,-154.2818 185.9041,-160.2104 185.9041,-160.2104"/>
<ellipse fill="none" stroke="#000000" cx="182.8657" cy="-161.2146" rx="3.2" ry="3.2"/>
</g>
<!-- mat_aspect -->
<g id="node6" class="node">
<title>mat_aspect</title>
<g id="a_node6"><a xlink:href="../../tables/mat_aspect.html" xlink:title="mat_aspect" target="_top">
<polygon fill="#ffffff" stroke="transparent" points="378,-202.7 378,-292.7 522,-292.7 522,-202.7 378,-202.7"/>
<polygon fill="#f5f5f5" stroke="transparent" points="380,-267.7 380,-290.7 520,-290.7 520,-267.7 380,-267.7"/>
<polygon fill="none" stroke="#000000" points="380,-267.7 380,-290.7 520,-290.7 520,-267.7 380,-267.7"/>
<text text-anchor="start" x="385" y="-276.3" font-family="Helvetica,sans-Serif" font-weight="bold" font-size="11.00" fill="#000000">mat_aspect</text>
<text text-anchor="start" x="485.0437" y="-275.8" font-family="Helvetica,sans-Serif" font-size="11.00" fill="#000000">[table]</text>
<polygon fill="none" stroke="#000000" points="380,-245.7 380,-267.7 478,-267.7 478,-245.7 380,-245.7"/>
<image xlink:href="../../images/primaryKeys.png" width="11px" height="12px" preserveAspectRatio="xMinYMin meet" x="385" y="-262.7"/>
<text text-anchor="start" x="400" y="-252.8" font-family="Helvetica,sans-Serif" font-size="11.00" fill="#000000">mat_id</text>
<polygon fill="none" stroke="#000000" points="478,-245.7 478,-267.7 520,-267.7 520,-245.7 478,-245.7"/>
<text text-anchor="start" x="480.9644" y="-253.4" font-family="Helvetica,sans-Serif" font-size="11.00" fill="#000000">int4[10]</text>
<polygon fill="none" stroke="#000000" points="380,-223.7 380,-245.7 478,-245.7 478,-223.7 380,-223.7"/>
<image xlink:href="../../images/primaryKeys.png" width="11px" height="12px" preserveAspectRatio="xMinYMin meet" x="385" y="-240.7"/>
<text text-anchor="start" x="400" y="-230.8" font-family="Helvetica,sans-Serif" font-size="11.00" fill="#000000">aspect_id</text>
<polygon fill="none" stroke="#000000" points="478,-223.7 478,-245.7 520,-245.7 520,-223.7 478,-223.7"/>
<text text-anchor="start" x="480.9644" y="-231.4" font-family="Helvetica,sans-Serif" font-size="11.00" fill="#000000">int4[10]</text>
<polygon fill="#ffffff" stroke="transparent" points="380,-204.7 380,-223.7 420,-223.7 420,-204.7 380,-204.7"/>
<polygon fill="none" stroke="#000000" points="380,-204.7 380,-223.7 420,-223.7 420,-204.7 380,-204.7"/>
<text text-anchor="start" x="383" y="-210.8" font-family="Helvetica,sans-Serif" font-size="11.00" fill="#000000">&lt; 2</text>
<polygon fill="#ffffff" stroke="transparent" points="420,-204.7 420,-223.7 478,-223.7 478,-204.7 420,-204.7"/>
<polygon fill="none" stroke="#000000" points="420,-204.7 420,-223.7 478,-223.7 478,-204.7 420,-204.7"/>
<text text-anchor="start" x="442.6105" y="-210.8" font-family="Helvetica,sans-Serif" font-size="11.00" fill="#000000">0 rows</text>
<polygon fill="#ffffff" stroke="transparent" points="478,-204.7 478,-223.7 520,-223.7 520,-204.7 478,-204.7"/>
<polygon fill="none" stroke="#000000" points="478,-204.7 478,-223.7 520,-223.7 520,-204.7 478,-204.7"/>
<text text-anchor="start" x="501.4053" y="-210.8" font-family="Helvetica,sans-Serif" font-size="11.00" fill="#000000">0 &gt;</text>
<polygon fill="none" stroke="#000000" stroke-width="2" points="379,-203.7 379,-291.7 521,-291.7 521,-203.7 379,-203.7"/>
</a>
</g>
</g>
<!-- mat_aspect&#45;&gt;aspect -->
<g id="edge4" class="edge">
<title>mat_aspect:w&#45;&gt;aspect:e</title>
<path fill="none" stroke="#000000" d="M365.563,-236.5846C293.9052,-257.8918 413.6652,-452.7 318.5,-452.7"/>
<polygon fill="#000000" stroke="#000000" points="372.0673,-235.7356 380.466,-238.2697 376.0337,-235.2178 380,-234.7 380,-234.7 380,-234.7 376.0337,-235.2178 379.534,-231.1303 372.0673,-235.7356 372.0673,-235.7356"/>
<ellipse fill="none" stroke="#000000" cx="368.8942" cy="-236.1498" rx="3.2" ry="3.2"/>
</g>
<!-- mat_aspect&#45;&gt;mat -->
<g id="edge5" class="edge">
<title>mat_aspect:w&#45;&gt;mat:e</title>
<path fill="none" stroke="#000000" d="M365.9138,-252.3842C348.6315,-239.4185 353.2584,-201.7 324.5,-201.7"/>
<polygon fill="#000000" stroke="#000000" points="372.351,-254.3564 378.9454,-260.1421 376.1755,-255.5282 380,-256.7 380,-256.7 380,-256.7 376.1755,-255.5282 381.0546,-253.2579 372.351,-254.3564 372.351,-254.3564"/>
<ellipse fill="none" stroke="#000000" cx="369.2913" cy="-253.419" rx="3.2" ry="3.2"/>
</g>
<!-- mat_mat_dr -->
<g id="node7" class="node">
<title>mat_mat_dr</title>
<g id="a_node7"><a xlink:href="../../tables/mat_mat_dr.html" xlink:title="mat_mat_dr" target="_top">
<polygon fill="#ffffff" stroke="transparent" points="391,-120.2 391,-181.2 509,-181.2 509,-120.2 391,-120.2"/>
<polygon fill="#f5f5f5" stroke="transparent" points="391,-157.7 391,-180.7 509,-180.7 509,-157.7 391,-157.7"/>
<polygon fill="none" stroke="#000000" points="391,-157.7 391,-180.7 509,-180.7 509,-157.7 391,-157.7"/>
<text text-anchor="start" x="396" y="-166.3" font-family="Helvetica,sans-Serif" font-weight="bold" font-size="11.00" fill="#000000">mat_mat_dr</text>
<text text-anchor="start" x="474.5219" y="-165.8" font-family="Helvetica,sans-Serif" font-size="11.00" fill="#000000">[table]</text>
<polygon fill="none" stroke="#000000" points="391,-138.7 391,-157.7 509,-157.7 509,-138.7 391,-138.7"/>
<text text-anchor="start" x="394" y="-144.8" font-family="Helvetica,sans-Serif" font-size="11.00" fill="#000000">...</text>
<polygon fill="#ffffff" stroke="transparent" points="391,-119.7 391,-138.7 435,-138.7 435,-119.7 391,-119.7"/>
<polygon fill="none" stroke="#000000" points="391,-119.7 391,-138.7 435,-138.7 435,-119.7 391,-119.7"/>
<text text-anchor="start" x="394" y="-125.8" font-family="Helvetica,sans-Serif" font-size="11.00" fill="#000000">&lt; 2</text>
<polygon fill="#ffffff" stroke="transparent" points="435,-119.7 435,-138.7 485,-138.7 485,-119.7 435,-119.7"/>
<polygon fill="none" stroke="#000000" points="435,-119.7 435,-138.7 485,-138.7 485,-119.7 435,-119.7"/>
<text text-anchor="start" x="449.6105" y="-125.8" font-family="Helvetica,sans-Serif" font-size="11.00" fill="#000000">0 rows</text>
<polygon fill="#ffffff" stroke="transparent" points="485,-119.7 485,-138.7 509,-138.7 509,-119.7 485,-119.7"/>
<polygon fill="none" stroke="#000000" points="485,-119.7 485,-138.7 509,-138.7 509,-119.7 485,-119.7"/>
<text text-anchor="start" x="499.8862" y="-125.8" font-family="Helvetica,sans-Serif" font-size="11.00" fill="#000000"> &#160;</text>
</a>
</g>
</g>
<!-- mat_mat_dr&#45;&gt;mat -->
<g id="edge6" class="edge">
<title>mat_mat_dr:w&#45;&gt;mat:e</title>
<path fill="none" stroke="#000000" d="M376.8878,-150.9162C354.7394,-162.5414 356.9213,-201.7 324.5,-201.7"/>
<polygon fill="#000000" stroke="#000000" points="383.2,-149.4777 391.8,-151.21 387.1,-148.5888 391,-147.7 391,-147.7 391,-147.7 387.1,-148.5888 390.2,-144.19 383.2,-149.4777 383.2,-149.4777"/>
<ellipse fill="none" stroke="#000000" cx="380.08" cy="-150.1888" rx="3.2" ry="3.2"/>
</g>
<!-- mo_aspect -->
<g id="node8" class="node">
<title>mo_aspect</title>
<g id="a_node8"><a xlink:href="../../tables/mo_aspect.html" xlink:title="mo_aspect" target="_top">
<polygon fill="#ffffff" stroke="transparent" points="395,-314.2 395,-375.2 505,-375.2 505,-314.2 395,-314.2"/>
<polygon fill="#f5f5f5" stroke="transparent" points="395,-351.7 395,-374.7 505,-374.7 505,-351.7 395,-351.7"/>
<polygon fill="none" stroke="#000000" points="395,-351.7 395,-374.7 505,-374.7 505,-351.7 395,-351.7"/>
<text text-anchor="start" x="400" y="-360.3" font-family="Helvetica,sans-Serif" font-weight="bold" font-size="11.00" fill="#000000">mo_aspect</text>
<text text-anchor="start" x="470.5219" y="-359.8" font-family="Helvetica,sans-Serif" font-size="11.00" fill="#000000">[table]</text>
<polygon fill="none" stroke="#000000" points="395,-332.7 395,-351.7 505,-351.7 505,-332.7 395,-332.7"/>
<text text-anchor="start" x="398" y="-338.8" font-family="Helvetica,sans-Serif" font-size="11.00" fill="#000000">...</text>
<polygon fill="#ffffff" stroke="transparent" points="395,-313.7 395,-332.7 425,-332.7 425,-313.7 395,-313.7"/>
<polygon fill="none" stroke="#000000" points="395,-313.7 395,-332.7 425,-332.7 425,-313.7 395,-313.7"/>
<text text-anchor="start" x="398" y="-319.8" font-family="Helvetica,sans-Serif" font-size="11.00" fill="#000000">&lt; 2</text>
<polygon fill="#ffffff" stroke="transparent" points="425,-313.7 425,-332.7 488,-332.7 488,-313.7 425,-313.7"/>
<polygon fill="none" stroke="#000000" points="425,-313.7 425,-332.7 488,-332.7 488,-313.7 425,-313.7"/>
<text text-anchor="start" x="431.2089" y="-319.8" font-family="Helvetica,sans-Serif" font-size="11.00" fill="#000000">2.000 rows</text>
<polygon fill="#ffffff" stroke="transparent" points="488,-313.7 488,-332.7 505,-332.7 505,-313.7 488,-313.7"/>
<polygon fill="none" stroke="#000000" points="488,-313.7 488,-332.7 505,-332.7 505,-313.7 488,-313.7"/>
<text text-anchor="start" x="495.8862" y="-319.8" font-family="Helvetica,sans-Serif" font-size="11.00" fill="#000000"> &#160;</text>
</a>
</g>
</g>
<!-- mo_aspect&#45;&gt;aspect -->
<g id="edge7" class="edge">
<title>mo_aspect:w&#45;&gt;aspect:e</title>
<path fill="none" stroke="#000000" d="M380.7011,-344.4438C342.3021,-361.5369 372.7977,-452.7 318.5,-452.7"/>
<polygon fill="#000000" stroke="#000000" points="387.1433,-343.2077 395.6785,-345.2355 391.0717,-342.4538 395,-341.7 395,-341.7 395,-341.7 391.0717,-342.4538 394.3215,-338.1645 387.1433,-343.2077 387.1433,-343.2077"/>
<ellipse fill="none" stroke="#000000" cx="384.0007" cy="-343.8107" rx="3.2" ry="3.2"/>
</g>
<!-- mo_aspect&#45;&gt;moving_object -->
<g id="edge8" class="edge">
<title>mo_aspect:w&#45;&gt;moving_object:e</title>
<path fill="none" stroke="#000000" d="M380.7855,-338.4678C326.9591,-320.4979 171.2182,-233.7 144,-233.7"/>
<polygon fill="#000000" stroke="#000000" points="387.1991,-339.9261 394.2018,-345.2104 391.0996,-340.8131 395,-341.7 395,-341.7 395,-341.7 391.0996,-340.8131 395.7982,-338.1896 387.1991,-339.9261 387.1991,-339.9261"/>
<ellipse fill="none" stroke="#000000" cx="384.0788" cy="-339.2166" rx="3.2" ry="3.2"/>
</g>
<!-- mor_aspect -->
<g id="node9" class="node">
<title>mor_aspect</title>
<g id="a_node9"><a xlink:href="../../tables/mor_aspect.html" xlink:title="mor_aspect" target="_top">
<polygon fill="#ffffff" stroke="transparent" points="392,-506.2 392,-567.2 508,-567.2 508,-506.2 392,-506.2"/>
<polygon fill="#f5f5f5" stroke="transparent" points="392,-543.7 392,-566.7 508,-566.7 508,-543.7 392,-543.7"/>
<polygon fill="none" stroke="#000000" points="392,-543.7 392,-566.7 508,-566.7 508,-543.7 392,-543.7"/>
<text text-anchor="start" x="397" y="-552.3" font-family="Helvetica,sans-Serif" font-weight="bold" font-size="11.00" fill="#000000">mor_aspect</text>
<text text-anchor="start" x="473.5219" y="-551.8" font-family="Helvetica,sans-Serif" font-size="11.00" fill="#000000">[table]</text>
<polygon fill="none" stroke="#000000" points="392,-524.7 392,-543.7 508,-543.7 508,-524.7 392,-524.7"/>
<text text-anchor="start" x="395" y="-530.8" font-family="Helvetica,sans-Serif" font-size="11.00" fill="#000000">...</text>
<polygon fill="#ffffff" stroke="transparent" points="392,-505.7 392,-524.7 435,-524.7 435,-505.7 392,-505.7"/>
<polygon fill="none" stroke="#000000" points="392,-505.7 392,-524.7 435,-524.7 435,-505.7 392,-505.7"/>
<text text-anchor="start" x="395" y="-511.8" font-family="Helvetica,sans-Serif" font-size="11.00" fill="#000000">&lt; 2</text>
<polygon fill="#ffffff" stroke="transparent" points="435,-505.7 435,-524.7 484,-524.7 484,-505.7 435,-505.7"/>
<polygon fill="none" stroke="#000000" points="435,-505.7 435,-524.7 484,-524.7 484,-505.7 435,-505.7"/>
<text text-anchor="start" x="448.6105" y="-511.8" font-family="Helvetica,sans-Serif" font-size="11.00" fill="#000000">0 rows</text>
<polygon fill="#ffffff" stroke="transparent" points="484,-505.7 484,-524.7 508,-524.7 508,-505.7 484,-505.7"/>
<polygon fill="none" stroke="#000000" points="484,-505.7 484,-524.7 508,-524.7 508,-505.7 484,-505.7"/>
<text text-anchor="start" x="498.8862" y="-511.8" font-family="Helvetica,sans-Serif" font-size="11.00" fill="#000000"> &#160;</text>
</a>
</g>
</g>
<!-- mor_aspect&#45;&gt;aspect -->
<g id="edge9" class="edge">
<title>mor_aspect:w&#45;&gt;aspect:e</title>
<path fill="none" stroke="#000000" d="M377.6572,-530.6236C347.955,-515.828 361.4151,-452.7 318.5,-452.7"/>
<polygon fill="#000000" stroke="#000000" points="384.1779,-532.0222 391.245,-537.2199 388.089,-532.8611 392,-533.7 392,-533.7 392,-533.7 388.089,-532.8611 392.755,-530.1801 384.1779,-532.0222 384.1779,-532.0222"/>
<ellipse fill="none" stroke="#000000" cx="381.0491" cy="-531.3511" rx="3.2" ry="3.2"/>
</g>
<!-- point -->
<g id="node10" class="node">
<title>point</title>
<g id="a_node10"><a xlink:href="../../tables/point.html" xlink:title="point" target="_top">
<polygon fill="#ffffff" stroke="transparent" points="388.5,-38.2 388.5,-99.2 511.5,-99.2 511.5,-38.2 388.5,-38.2"/>
<polygon fill="#f5f5f5" stroke="transparent" points="389,-75.7 389,-98.7 512,-98.7 512,-75.7 389,-75.7"/>
<polygon fill="none" stroke="#000000" points="389,-75.7 389,-98.7 512,-98.7 512,-75.7 389,-75.7"/>
<text text-anchor="start" x="394" y="-84.3" font-family="Helvetica,sans-Serif" font-weight="bold" font-size="11.00" fill="#000000">point</text>
<text text-anchor="start" x="477.0437" y="-83.8" font-family="Helvetica,sans-Serif" font-size="11.00" fill="#000000">[table]</text>
<polygon fill="none" stroke="#000000" points="389,-56.7 389,-75.7 512,-75.7 512,-56.7 389,-56.7"/>
<text text-anchor="start" x="392" y="-62.8" font-family="Helvetica,sans-Serif" font-size="11.00" fill="#000000">...</text>
<polygon fill="#ffffff" stroke="transparent" points="389,-37.7 389,-56.7 410,-56.7 410,-37.7 389,-37.7"/>
<polygon fill="none" stroke="#000000" points="389,-37.7 389,-56.7 410,-56.7 410,-37.7 389,-37.7"/>
<text text-anchor="start" x="391.7027" y="-43.8" font-family="Helvetica,sans-Serif" font-size="11.00" fill="#000000">&lt; 1</text>
<polygon fill="#ffffff" stroke="transparent" points="410,-37.7 410,-56.7 491,-56.7 491,-37.7 410,-37.7"/>
<polygon fill="none" stroke="#000000" points="410,-37.7 410,-56.7 491,-56.7 491,-37.7 410,-37.7"/>
<text text-anchor="start" x="412.9037" y="-43.8" font-family="Helvetica,sans-Serif" font-size="11.00" fill="#000000">1.039.258 rows</text>
<polygon fill="#ffffff" stroke="transparent" points="491,-37.7 491,-56.7 512,-56.7 512,-37.7 491,-37.7"/>
<polygon fill="none" stroke="#000000" points="491,-37.7 491,-56.7 512,-56.7 512,-37.7 491,-37.7"/>
<text text-anchor="start" x="493.7027" y="-43.8" font-family="Helvetica,sans-Serif" font-size="11.00" fill="#000000">4 &gt;</text>
</a>
</g>
</g>
<!-- point&#45;&gt;mat -->
<g id="edge10" class="edge">
<title>point:w&#45;&gt;mat:e</title>
<path fill="none" stroke="#000000" d="M374.5975,-68.5406C333.0066,-88.0706 385.6487,-201.7 324.5,-201.7"/>
<polygon fill="#000000" stroke="#000000" points="381.1512,-67.248 389.6966,-69.232 385.0756,-66.474 389,-65.7 389,-65.7 389,-65.7 385.0756,-66.474 388.3034,-62.168 381.1512,-67.248 381.1512,-67.248"/>
<ellipse fill="none" stroke="#000000" cx="378.0117" cy="-67.8673" rx="3.2" ry="3.2"/>
</g>
<!-- point_aspect -->
<g id="node11" class="node">
<title>point_aspect</title>
<g id="a_node11"><a xlink:href="../../tables/point_aspect.html" xlink:title="point_aspect" target="_top">
<polygon fill="#ffffff" stroke="transparent" points="576,-246.2 576,-307.2 701,-307.2 701,-246.2 576,-246.2"/>
<polygon fill="#f5f5f5" stroke="transparent" points="576.5,-283.7 576.5,-306.7 701.5,-306.7 701.5,-283.7 576.5,-283.7"/>
<polygon fill="none" stroke="#000000" points="576.5,-283.7 576.5,-306.7 701.5,-306.7 701.5,-283.7 576.5,-283.7"/>
<text text-anchor="start" x="581.5" y="-292.3" font-family="Helvetica,sans-Serif" font-weight="bold" font-size="11.00" fill="#000000">point_aspect</text>
<text text-anchor="start" x="667.0219" y="-291.8" font-family="Helvetica,sans-Serif" font-size="11.00" fill="#000000">[table]</text>
<polygon fill="none" stroke="#000000" points="576.5,-264.7 576.5,-283.7 701.5,-283.7 701.5,-264.7 576.5,-264.7"/>
<text text-anchor="start" x="579.5" y="-270.8" font-family="Helvetica,sans-Serif" font-size="11.00" fill="#000000">...</text>
<polygon fill="#ffffff" stroke="transparent" points="576.5,-245.7 576.5,-264.7 602.5,-264.7 602.5,-245.7 576.5,-245.7"/>
<polygon fill="none" stroke="#000000" points="576.5,-245.7 576.5,-264.7 602.5,-264.7 602.5,-245.7 576.5,-245.7"/>
<text text-anchor="start" x="579.5" y="-251.8" font-family="Helvetica,sans-Serif" font-size="11.00" fill="#000000">&lt; 2</text>
<polygon fill="#ffffff" stroke="transparent" points="602.5,-245.7 602.5,-264.7 686.5,-264.7 686.5,-245.7 602.5,-245.7"/>
<polygon fill="none" stroke="#000000" points="602.5,-245.7 602.5,-264.7 686.5,-264.7 686.5,-245.7 602.5,-245.7"/>
<text text-anchor="start" x="608.3073" y="-251.8" font-family="Helvetica,sans-Serif" font-size="11.00" fill="#000000">1.039.258 rows</text>
<polygon fill="#ffffff" stroke="transparent" points="686.5,-245.7 686.5,-264.7 701.5,-264.7 701.5,-245.7 686.5,-245.7"/>
<polygon fill="none" stroke="#000000" points="686.5,-245.7 686.5,-264.7 701.5,-264.7 701.5,-245.7 686.5,-245.7"/>
<text text-anchor="start" x="692.3862" y="-251.8" font-family="Helvetica,sans-Serif" font-size="11.00" fill="#000000"> &#160;</text>
</a>
</g>
</g>
<!-- point_aspect&#45;&gt;aspect -->
<g id="edge11" class="edge">
<title>point_aspect:w&#45;&gt;aspect:e</title>
<path fill="none" stroke="#000000" d="M561.8822,-275.3674C502.4177,-291.2154 599.1405,-415.8291 535,-467.7 476.2514,-515.2104 439.6378,-479.4405 365,-467.7 343.5484,-464.3257 340.2153,-452.7 318.5,-452.7"/>
<polygon fill="#000000" stroke="#000000" points="568.5515,-274.6067 576.908,-277.2768 572.5258,-274.1534 576.5,-273.7 576.5,-273.7 576.5,-273.7 572.5258,-274.1534 576.092,-270.1232 568.5515,-274.6067 568.5515,-274.6067"/>
<ellipse fill="none" stroke="#000000" cx="565.3722" cy="-274.9694" rx="3.2" ry="3.2"/>
</g>
<!-- point_aspect&#45;&gt;point -->
<g id="edge12" class="edge">
<title>point_aspect:w&#45;&gt;point:e</title>
<path fill="none" stroke="#000000" d="M562.1455,-271.7737C493.6099,-250.8048 603.3051,-65.7 512,-65.7"/>
<polygon fill="#000000" stroke="#000000" points="568.5711,-272.6359 576.0212,-277.268 572.5355,-273.168 576.5,-273.7 576.5,-273.7 576.5,-273.7 572.5355,-273.168 576.9788,-270.132 568.5711,-272.6359 568.5711,-272.6359"/>
<ellipse fill="none" stroke="#000000" cx="565.3995" cy="-272.2103" rx="3.2" ry="3.2"/>
</g>
<!-- predicate_aspect -->
<g id="node12" class="node">
<title>predicate_aspect</title>
<g id="a_node12"><a xlink:href="../../tables/predicate_aspect.html" xlink:title="predicate_aspect" target="_top">
<polygon fill="#ffffff" stroke="transparent" points="373,-396.2 373,-457.2 527,-457.2 527,-396.2 373,-396.2"/>
<polygon fill="#f5f5f5" stroke="transparent" points="373,-433.7 373,-456.7 527,-456.7 527,-433.7 373,-433.7"/>
<polygon fill="none" stroke="#000000" points="373,-433.7 373,-456.7 527,-456.7 527,-433.7 373,-433.7"/>
<text text-anchor="start" x="378" y="-442.3" font-family="Helvetica,sans-Serif" font-weight="bold" font-size="11.00" fill="#000000">predicate_aspect</text>
<text text-anchor="start" x="492.5219" y="-441.8" font-family="Helvetica,sans-Serif" font-size="11.00" fill="#000000">[table]</text>
<polygon fill="none" stroke="#000000" points="373,-414.7 373,-433.7 527,-433.7 527,-414.7 373,-414.7"/>
<text text-anchor="start" x="376" y="-420.8" font-family="Helvetica,sans-Serif" font-size="11.00" fill="#000000">...</text>
<polygon fill="#ffffff" stroke="transparent" points="373,-395.7 373,-414.7 435,-414.7 435,-395.7 373,-395.7"/>
<polygon fill="none" stroke="#000000" points="373,-395.7 373,-414.7 435,-414.7 435,-395.7 373,-395.7"/>
<text text-anchor="start" x="376" y="-401.8" font-family="Helvetica,sans-Serif" font-size="11.00" fill="#000000">&lt; 2</text>
<polygon fill="#ffffff" stroke="transparent" points="435,-395.7 435,-414.7 494,-414.7 494,-395.7 435,-395.7"/>
<polygon fill="none" stroke="#000000" points="435,-395.7 435,-414.7 494,-414.7 494,-395.7 435,-395.7"/>
<text text-anchor="start" x="458.6105" y="-401.8" font-family="Helvetica,sans-Serif" font-size="11.00" fill="#000000">0 rows</text>
<polygon fill="#ffffff" stroke="transparent" points="494,-395.7 494,-414.7 527,-414.7 527,-395.7 494,-395.7"/>
<polygon fill="none" stroke="#000000" points="494,-395.7 494,-414.7 527,-414.7 527,-395.7 494,-395.7"/>
<text text-anchor="start" x="517.8862" y="-401.8" font-family="Helvetica,sans-Serif" font-size="11.00" fill="#000000"> &#160;</text>
</a>
</g>
</g>
<!-- predicate_aspect&#45;&gt;aspect -->
<g id="edge13" class="edge">
<title>predicate_aspect:w&#45;&gt;aspect:e</title>
<path fill="none" stroke="#000000" d="M358.8275,-427.0267C344.4831,-434.644 340.1502,-452.7 318.5,-452.7"/>
<polygon fill="#000000" stroke="#000000" points="365.2117,-425.5282 373.8227,-427.2047 369.1058,-424.6141 373,-423.7 373,-423.7 373,-423.7 369.1058,-424.6141 372.1773,-420.1953 365.2117,-425.5282 365.2117,-425.5282"/>
<ellipse fill="none" stroke="#000000" cx="362.0963" cy="-426.2594" rx="3.2" ry="3.2"/>
</g>
</g>
</svg>
