<?xml version="1.0" encoding="UTF-8" standalone="no"?>
<!DOCTYPE svg PUBLIC "-//W3C//DTD SVG 1.1//EN"
 "http://www.w3.org/Graphics/SVG/1.1/DTD/svg11.dtd">
<!-- Generated by graphviz version 2.40.1 (20161225.0304)
 -->
<!-- Title: twoDegreesRelationshipsDiagram Pages: 1 -->
<svg width="604pt" height="611pt"
 viewBox="0.00 0.00 604.00 611.20" xmlns="http://www.w3.org/2000/svg" xmlns:xlink="http://www.w3.org/1999/xlink">
<g id="graph0" class="graph" transform="scale(1 1) rotate(0) translate(4 607.2)">
<title>twoDegreesRelationshipsDiagram</title>
<polygon fill="#ffffff" stroke="transparent" points="-4,4 -4,-607.2 600,-607.2 600,4 -4,4"/>
<text text-anchor="middle" x="72.4936" y="-7.3" font-family="Helvetica,sans-Serif" font-size="11.00" fill="#000000">Generated by SchemaSpy</text>
<!-- dependency_rule_dataset -->
<g id="node1" class="node">
<title>dependency_rule_dataset</title>
<g id="a_node1"><a xlink:href="../../tables/dependency_rule_dataset.html" xlink:title="dependency_rule_dataset" target="_top">
<polygon fill="#ffffff" stroke="transparent" points="210,-538.2 210,-599.2 421,-599.2 421,-538.2 210,-538.2"/>
<polygon fill="#f5f5f5" stroke="transparent" points="210.5,-575.7 210.5,-598.7 421.5,-598.7 421.5,-575.7 210.5,-575.7"/>
<polygon fill="none" stroke="#000000" points="210.5,-575.7 210.5,-598.7 421.5,-598.7 421.5,-575.7 210.5,-575.7"/>
<text text-anchor="start" x="215.5" y="-584.3" font-family="Helvetica,sans-Serif" font-weight="bold" font-size="11.00" fill="#000000">dependency_rule_dataset</text>
<text text-anchor="start" x="387.0219" y="-583.8" font-family="Helvetica,sans-Serif" font-size="11.00" fill="#000000">[table]</text>
<polygon fill="none" stroke="#000000" points="210.5,-556.7 210.5,-575.7 421.5,-575.7 421.5,-556.7 210.5,-556.7"/>
<text text-anchor="start" x="213.5" y="-562.8" font-family="Helvetica,sans-Serif" font-size="11.00" fill="#000000">...</text>
<polygon fill="#ffffff" stroke="transparent" points="210.5,-537.7 210.5,-556.7 301.5,-556.7 301.5,-537.7 210.5,-537.7"/>
<polygon fill="none" stroke="#000000" points="210.5,-537.7 210.5,-556.7 301.5,-556.7 301.5,-537.7 210.5,-537.7"/>
<text text-anchor="start" x="213.5" y="-543.8" font-family="Helvetica,sans-Serif" font-size="11.00" fill="#000000">&lt; 2</text>
<polygon fill="#ffffff" stroke="transparent" points="301.5,-537.7 301.5,-556.7 374.5,-556.7 374.5,-537.7 301.5,-537.7"/>
<polygon fill="none" stroke="#000000" points="301.5,-537.7 301.5,-556.7 374.5,-556.7 374.5,-537.7 301.5,-537.7"/>
<text text-anchor="start" x="339.1105" y="-543.8" font-family="Helvetica,sans-Serif" font-size="11.00" fill="#000000">0 rows</text>
<polygon fill="#ffffff" stroke="transparent" points="374.5,-537.7 374.5,-556.7 421.5,-556.7 421.5,-537.7 374.5,-537.7"/>
<polygon fill="none" stroke="#000000" points="374.5,-537.7 374.5,-556.7 421.5,-556.7 421.5,-537.7 374.5,-537.7"/>
<text text-anchor="start" x="412.3862" y="-543.8" font-family="Helvetica,sans-Serif" font-size="11.00" fill="#000000"> &#160;</text>
</a>
</g>
</g>
<!-- dependency_rule -->
<g id="node2" class="node">
<title>dependency_rule</title>
<g id="a_node2"><a xlink:href="../../tables/dependency_rule.html" xlink:title="dependency_rule" target="_top">
<polygon fill="#ffffff" stroke="transparent" points="8,-181.2 8,-264.2 161,-264.2 161,-181.2 8,-181.2"/>
<polygon fill="#f5f5f5" stroke="transparent" points="8.5,-240.7 8.5,-263.7 161.5,-263.7 161.5,-240.7 8.5,-240.7"/>
<polygon fill="none" stroke="#000000" points="8.5,-240.7 8.5,-263.7 161.5,-263.7 161.5,-240.7 8.5,-240.7"/>
<text text-anchor="start" x="13.5" y="-249.3" font-family="Helvetica,sans-Serif" font-weight="bold" font-size="11.00" fill="#000000">dependency_rule</text>
<text text-anchor="start" x="127.0219" y="-248.8" font-family="Helvetica,sans-Serif" font-size="11.00" fill="#000000">[table]</text>
<polygon fill="none" stroke="#000000" points="8.5,-218.7 8.5,-240.7 161.5,-240.7 161.5,-218.7 8.5,-218.7"/>
<image xlink:href="../../images/primaryKeys.png" width="11px" height="12px" preserveAspectRatio="xMinYMin meet" x="13.5" y="-235.7"/>
<text text-anchor="start" x="37.5" y="-225.8" font-family="Helvetica,sans-Serif" font-size="11.00" fill="#000000">rule_id</text>
<polygon fill="none" stroke="#000000" points="8.5,-199.7 8.5,-218.7 161.5,-218.7 161.5,-199.7 8.5,-199.7"/>
<text text-anchor="start" x="11.5" y="-205.8" font-family="Helvetica,sans-Serif" font-size="11.00" fill="#000000">...</text>
<polygon fill="#ffffff" stroke="transparent" points="8.5,-180.7 8.5,-199.7 61.5,-199.7 61.5,-180.7 8.5,-180.7"/>
<polygon fill="none" stroke="#000000" points="8.5,-180.7 8.5,-199.7 61.5,-199.7 61.5,-180.7 8.5,-180.7"/>
<text text-anchor="start" x="11.5" y="-186.8" font-family="Helvetica,sans-Serif" font-size="11.00" fill="#000000"> &#160;</text>
<polygon fill="#ffffff" stroke="transparent" points="61.5,-180.7 61.5,-199.7 119.5,-199.7 119.5,-180.7 61.5,-180.7"/>
<polygon fill="none" stroke="#000000" points="61.5,-180.7 61.5,-199.7 119.5,-199.7 119.5,-180.7 61.5,-180.7"/>
<text text-anchor="start" x="84.1105" y="-186.8" font-family="Helvetica,sans-Serif" font-size="11.00" fill="#000000">0 rows</text>
<polygon fill="#ffffff" stroke="transparent" points="119.5,-180.7 119.5,-199.7 161.5,-199.7 161.5,-180.7 119.5,-180.7"/>
<polygon fill="none" stroke="#000000" points="119.5,-180.7 119.5,-199.7 161.5,-199.7 161.5,-180.7 119.5,-180.7"/>
<text text-anchor="start" x="142.9053" y="-186.8" font-family="Helvetica,sans-Serif" font-size="11.00" fill="#000000">7 &gt;</text>
</a>
</g>
</g>
<!-- dependency_rule_dataset&#45;&gt;dependency_rule -->
<g id="edge1" class="edge">
<title>dependency_rule_dataset:w&#45;&gt;dependency_rule:e</title>
<path fill="none" stroke="#000000" d="M196.7862,-560.6895C148.8469,-518.8922 231.5036,-229.7 161.5,-229.7"/>
<polygon fill="#000000" stroke="#000000" points="202.9858,-562.9546 209.2646,-569.0814 206.7429,-564.3273 210.5,-565.7 210.5,-565.7 210.5,-565.7 206.7429,-564.3273 211.7354,-562.3186 202.9858,-562.9546 202.9858,-562.9546"/>
<ellipse fill="none" stroke="#000000" cx="199.9802" cy="-561.8564" rx="3.2" ry="3.2"/>
</g>
<!-- mat_dr -->
<g id="node3" class="node">
<title>mat_dr</title>
<g id="a_node3"><a xlink:href="../../tables/mat_dr.html" xlink:title="mat_dr" target="_top">
<polygon fill="#ffffff" stroke="transparent" points="259,-366.7 259,-434.7 372,-434.7 372,-366.7 259,-366.7"/>
<polygon fill="#f5f5f5" stroke="transparent" points="261.5,-409.7 261.5,-432.7 370.5,-432.7 370.5,-409.7 261.5,-409.7"/>
<polygon fill="none" stroke="#000000" points="261.5,-409.7 261.5,-432.7 370.5,-432.7 370.5,-409.7 261.5,-409.7"/>
<text text-anchor="start" x="266.5" y="-418.3" font-family="Helvetica,sans-Serif" font-weight="bold" font-size="11.00" fill="#000000">mat_dr</text>
<text text-anchor="start" x="335.5437" y="-417.8" font-family="Helvetica,sans-Serif" font-size="11.00" fill="#000000">[table]</text>
<polygon fill="none" stroke="#000000" points="261.5,-387.7 261.5,-409.7 328.5,-409.7 328.5,-387.7 261.5,-387.7"/>
<image xlink:href="../../images/primaryKeys.png" width="11px" height="12px" preserveAspectRatio="xMinYMin meet" x="266.5" y="-404.7"/>
<text text-anchor="start" x="281.5" y="-394.8" font-family="Helvetica,sans-Serif" font-size="11.00" fill="#000000">rule_id</text>
<polygon fill="none" stroke="#000000" points="328.5,-387.7 328.5,-409.7 370.5,-409.7 370.5,-387.7 328.5,-387.7"/>
<text text-anchor="start" x="331.4644" y="-395.4" font-family="Helvetica,sans-Serif" font-size="11.00" fill="#000000">int4[10]</text>
<polygon fill="#ffffff" stroke="transparent" points="261.5,-368.7 261.5,-387.7 286.5,-387.7 286.5,-368.7 261.5,-368.7"/>
<polygon fill="none" stroke="#000000" points="261.5,-368.7 261.5,-387.7 286.5,-387.7 286.5,-368.7 261.5,-368.7"/>
<text text-anchor="start" x="264.5" y="-374.8" font-family="Helvetica,sans-Serif" font-size="11.00" fill="#000000">&lt; 1</text>
<polygon fill="#ffffff" stroke="transparent" points="286.5,-368.7 286.5,-387.7 328.5,-387.7 328.5,-368.7 286.5,-368.7"/>
<polygon fill="none" stroke="#000000" points="286.5,-368.7 286.5,-387.7 328.5,-387.7 328.5,-368.7 286.5,-368.7"/>
<text text-anchor="start" x="293.1105" y="-374.8" font-family="Helvetica,sans-Serif" font-size="11.00" fill="#000000">0 rows</text>
<polygon fill="#ffffff" stroke="transparent" points="328.5,-368.7 328.5,-387.7 370.5,-387.7 370.5,-368.7 328.5,-368.7"/>
<polygon fill="none" stroke="#000000" points="328.5,-368.7 328.5,-387.7 370.5,-387.7 370.5,-368.7 328.5,-368.7"/>
<text text-anchor="start" x="351.9053" y="-374.8" font-family="Helvetica,sans-Serif" font-size="11.00" fill="#000000">1 &gt;</text>
<polygon fill="none" stroke="#000000" stroke-width="2" points="260,-367.7 260,-433.7 371,-433.7 371,-367.7 260,-367.7"/>
</a>
</g>
</g>
<!-- mat_dr&#45;&gt;dependency_rule -->
<g id="edge2" class="edge">
<title>mat_dr:w&#45;&gt;dependency_rule:e</title>
<path fill="none" stroke="#000000" d="M250.9977,-398.0271C226.9098,-394.6752 218.9231,-379.0081 202,-355.7 167.4405,-308.1012 220.3218,-229.7 161.5,-229.7"/>
<polygon fill="#000000" stroke="#000000" points="260.9574,-394.657 260.4458,-402.6407 258.8491,-402.5383 259.3607,-394.5547 260.9574,-394.657"/>
<polyline fill="none" stroke="#000000" points="261.5,-398.7 257.5082,-398.4442 "/>
<ellipse fill="none" stroke="#000000" cx="254.3147" cy="-398.2396" rx="3.2" ry="3.2"/>
</g>
<!-- mat_mat_dr -->
<g id="node4" class="node">
<title>mat_mat_dr</title>
<g id="a_node4"><a xlink:href="../../tables/mat_mat_dr.html" xlink:title="mat_mat_dr" target="_top">
<polygon fill="#ffffff" stroke="transparent" points="470,-399.7 470,-485.7 588,-485.7 588,-399.7 470,-399.7"/>
<polygon fill="#f5f5f5" stroke="transparent" points="470,-462.7 470,-485.7 588,-485.7 588,-462.7 470,-462.7"/>
<polygon fill="none" stroke="#000000" points="470,-462.7 470,-485.7 588,-485.7 588,-462.7 470,-462.7"/>
<text text-anchor="start" x="475" y="-471.3" font-family="Helvetica,sans-Serif" font-weight="bold" font-size="11.00" fill="#000000">mat_mat_dr</text>
<text text-anchor="start" x="553.5219" y="-470.8" font-family="Helvetica,sans-Serif" font-size="11.00" fill="#000000">[table]</text>
<polygon fill="none" stroke="#000000" points="470,-440.7 470,-462.7 588,-462.7 588,-440.7 470,-440.7"/>
<image xlink:href="../../images/primaryKeys.png" width="11px" height="12px" preserveAspectRatio="xMinYMin meet" x="475" y="-457.7"/>
<text text-anchor="start" x="499" y="-447.8" font-family="Helvetica,sans-Serif" font-size="11.00" fill="#000000">mat_id</text>
<polygon fill="none" stroke="#000000" points="470,-418.7 470,-440.7 588,-440.7 588,-418.7 470,-418.7"/>
<image xlink:href="../../images/primaryKeys.png" width="11px" height="12px" preserveAspectRatio="xMinYMin meet" x="475" y="-435.7"/>
<text text-anchor="start" x="499" y="-425.8" font-family="Helvetica,sans-Serif" font-size="11.00" fill="#000000">rule_id</text>
<polygon fill="#ffffff" stroke="transparent" points="470,-399.7 470,-418.7 514,-418.7 514,-399.7 470,-399.7"/>
<polygon fill="none" stroke="#000000" points="470,-399.7 470,-418.7 514,-418.7 514,-399.7 470,-399.7"/>
<text text-anchor="start" x="473" y="-405.8" font-family="Helvetica,sans-Serif" font-size="11.00" fill="#000000">&lt; 2</text>
<polygon fill="#ffffff" stroke="transparent" points="514,-399.7 514,-418.7 564,-418.7 564,-399.7 514,-399.7"/>
<polygon fill="none" stroke="#000000" points="514,-399.7 514,-418.7 564,-418.7 564,-399.7 514,-399.7"/>
<text text-anchor="start" x="528.6105" y="-405.8" font-family="Helvetica,sans-Serif" font-size="11.00" fill="#000000">0 rows</text>
<polygon fill="#ffffff" stroke="transparent" points="564,-399.7 564,-418.7 588,-418.7 588,-399.7 564,-399.7"/>
<polygon fill="none" stroke="#000000" points="564,-399.7 564,-418.7 588,-418.7 588,-399.7 564,-399.7"/>
<text text-anchor="start" x="578.8862" y="-405.8" font-family="Helvetica,sans-Serif" font-size="11.00" fill="#000000"> &#160;</text>
</a>
</g>
</g>
<!-- mat_mat_dr&#45;&gt;mat_dr -->
<g id="edge4" class="edge">
<title>mat_mat_dr:w&#45;&gt;mat_dr:e</title>
<path fill="none" stroke="#000000" d="M455.2146,-428.5226C421.531,-422.8601 411.3908,-398.7 370.5,-398.7"/>
<polygon fill="#000000" stroke="#000000" points="462.0252,-429.0649 469.7142,-433.2886 466.0126,-429.3825 470,-429.7 470,-429.7 470,-429.7 466.0126,-429.3825 470.2858,-426.1114 462.0252,-429.0649 462.0252,-429.0649"/>
<ellipse fill="none" stroke="#000000" cx="458.8353" cy="-428.8109" rx="3.2" ry="3.2"/>
</g>
<!-- mat -->
<g id="node5" class="node">
<title>mat</title>
<g id="a_node5"><a xlink:href="../../tables/mat.html" xlink:title="mat" target="_top">
<polygon fill="#ffffff" stroke="transparent" points="258.5,-456.2 258.5,-517.2 372.5,-517.2 372.5,-456.2 258.5,-456.2"/>
<polygon fill="#f5f5f5" stroke="transparent" points="258.5,-493.7 258.5,-516.7 372.5,-516.7 372.5,-493.7 258.5,-493.7"/>
<polygon fill="none" stroke="#000000" points="258.5,-493.7 258.5,-516.7 372.5,-516.7 372.5,-493.7 258.5,-493.7"/>
<text text-anchor="start" x="263.5" y="-502.3" font-family="Helvetica,sans-Serif" font-weight="bold" font-size="11.00" fill="#000000">mat</text>
<text text-anchor="start" x="337.5437" y="-501.8" font-family="Helvetica,sans-Serif" font-size="11.00" fill="#000000">[table]</text>
<polygon fill="none" stroke="#000000" points="258.5,-474.7 258.5,-493.7 372.5,-493.7 372.5,-474.7 258.5,-474.7"/>
<text text-anchor="start" x="261.5" y="-480.8" font-family="Helvetica,sans-Serif" font-size="11.00" fill="#000000">...</text>
<polygon fill="#ffffff" stroke="transparent" points="258.5,-455.7 258.5,-474.7 279.5,-474.7 279.5,-455.7 258.5,-455.7"/>
<polygon fill="none" stroke="#000000" points="258.5,-455.7 258.5,-474.7 279.5,-474.7 279.5,-455.7 258.5,-455.7"/>
<text text-anchor="start" x="261.2027" y="-461.8" font-family="Helvetica,sans-Serif" font-size="11.00" fill="#000000">&lt; 1</text>
<polygon fill="#ffffff" stroke="transparent" points="279.5,-455.7 279.5,-474.7 351.5,-474.7 351.5,-455.7 279.5,-455.7"/>
<polygon fill="none" stroke="#000000" points="279.5,-455.7 279.5,-474.7 351.5,-474.7 351.5,-455.7 279.5,-455.7"/>
<text text-anchor="start" x="282.4896" y="-461.8" font-family="Helvetica,sans-Serif" font-size="11.00" fill="#000000">292.481 rows</text>
<polygon fill="#ffffff" stroke="transparent" points="351.5,-455.7 351.5,-474.7 372.5,-474.7 372.5,-455.7 351.5,-455.7"/>
<polygon fill="none" stroke="#000000" points="351.5,-455.7 351.5,-474.7 372.5,-474.7 372.5,-455.7 351.5,-455.7"/>
<text text-anchor="start" x="354.2027" y="-461.8" font-family="Helvetica,sans-Serif" font-size="11.00" fill="#000000">3 &gt;</text>
</a>
</g>
</g>
<!-- mat_mat_dr&#45;&gt;mat -->
<g id="edge3" class="edge">
<title>mat_mat_dr:w&#45;&gt;mat:e</title>
<path fill="none" stroke="#000000" d="M455.4596,-452.9154C422.3794,-458.7605 412.7629,-483.7 372.5,-483.7"/>
<polygon fill="#000000" stroke="#000000" points="462.0278,-452.3664 470.2999,-455.2875 466.0139,-452.0332 470,-451.7 470,-451.7 470,-451.7 466.0139,-452.0332 469.7001,-448.1125 462.0278,-452.3664 462.0278,-452.3664"/>
<ellipse fill="none" stroke="#000000" cx="458.8389" cy="-452.633" rx="3.2" ry="3.2"/>
</g>
<!-- mo_dr -->
<g id="node6" class="node">
<title>mo_dr</title>
<g id="a_node6"><a xlink:href="../../tables/mo_dr.html" xlink:title="mo_dr" target="_top">
<polygon fill="#ffffff" stroke="transparent" points="275.5,-284.2 275.5,-345.2 355.5,-345.2 355.5,-284.2 275.5,-284.2"/>
<polygon fill="#f5f5f5" stroke="transparent" points="275.5,-321.7 275.5,-344.7 355.5,-344.7 355.5,-321.7 275.5,-321.7"/>
<polygon fill="none" stroke="#000000" points="275.5,-321.7 275.5,-344.7 355.5,-344.7 355.5,-321.7 275.5,-321.7"/>
<text text-anchor="start" x="280.5" y="-330.3" font-family="Helvetica,sans-Serif" font-weight="bold" font-size="11.00" fill="#000000">mo_dr</text>
<text text-anchor="start" x="321.0219" y="-329.8" font-family="Helvetica,sans-Serif" font-size="11.00" fill="#000000">[table]</text>
<polygon fill="none" stroke="#000000" points="275.5,-302.7 275.5,-321.7 355.5,-321.7 355.5,-302.7 275.5,-302.7"/>
<text text-anchor="start" x="278.5" y="-308.8" font-family="Helvetica,sans-Serif" font-size="11.00" fill="#000000">...</text>
<polygon fill="#ffffff" stroke="transparent" points="275.5,-283.7 275.5,-302.7 296.5,-302.7 296.5,-283.7 275.5,-283.7"/>
<polygon fill="none" stroke="#000000" points="275.5,-283.7 275.5,-302.7 296.5,-302.7 296.5,-283.7 275.5,-283.7"/>
<text text-anchor="start" x="278.2027" y="-289.8" font-family="Helvetica,sans-Serif" font-size="11.00" fill="#000000">&lt; 1</text>
<polygon fill="#ffffff" stroke="transparent" points="296.5,-283.7 296.5,-302.7 334.5,-302.7 334.5,-283.7 296.5,-283.7"/>
<polygon fill="none" stroke="#000000" points="296.5,-283.7 296.5,-302.7 334.5,-302.7 334.5,-283.7 296.5,-283.7"/>
<text text-anchor="start" x="299.3053" y="-289.8" font-family="Helvetica,sans-Serif" font-size="11.00" fill="#000000">0 rows</text>
<polygon fill="#ffffff" stroke="transparent" points="334.5,-283.7 334.5,-302.7 355.5,-302.7 355.5,-283.7 334.5,-283.7"/>
<polygon fill="none" stroke="#000000" points="334.5,-283.7 334.5,-302.7 355.5,-302.7 355.5,-283.7 334.5,-283.7"/>
<text text-anchor="start" x="337.2027" y="-289.8" font-family="Helvetica,sans-Serif" font-size="11.00" fill="#000000">1 &gt;</text>
</a>
</g>
</g>
<!-- mo_dr&#45;&gt;dependency_rule -->
<g id="edge5" class="edge">
<title>mo_dr:w&#45;&gt;dependency_rule:e</title>
<path fill="none" stroke="#000000" d="M264.7816,-311.1871C236.9031,-308.3173 228.1483,-293.6598 202,-273.7 180.8731,-257.5732 188.0786,-229.7 161.5,-229.7"/>
<polygon fill="#000000" stroke="#000000" points="274.8921,-307.6663 274.5097,-315.6572 272.9115,-315.5807 273.294,-307.5898 274.8921,-307.6663"/>
<polyline fill="none" stroke="#000000" points="275.5,-311.7 271.5046,-311.5088 "/>
<ellipse fill="none" stroke="#000000" cx="268.3082" cy="-311.3558" rx="3.2" ry="3.2"/>
</g>
<!-- mor_dr -->
<g id="node7" class="node">
<title>mor_dr</title>
<g id="a_node7"><a xlink:href="../../tables/mor_dr.html" xlink:title="mor_dr" target="_top">
<polygon fill="#ffffff" stroke="transparent" points="272.5,-202.2 272.5,-263.2 358.5,-263.2 358.5,-202.2 272.5,-202.2"/>
<polygon fill="#f5f5f5" stroke="transparent" points="272.5,-239.7 272.5,-262.7 358.5,-262.7 358.5,-239.7 272.5,-239.7"/>
<polygon fill="none" stroke="#000000" points="272.5,-239.7 272.5,-262.7 358.5,-262.7 358.5,-239.7 272.5,-239.7"/>
<text text-anchor="start" x="277.5" y="-248.3" font-family="Helvetica,sans-Serif" font-weight="bold" font-size="11.00" fill="#000000">mor_dr</text>
<text text-anchor="start" x="324.0219" y="-247.8" font-family="Helvetica,sans-Serif" font-size="11.00" fill="#000000">[table]</text>
<polygon fill="none" stroke="#000000" points="272.5,-220.7 272.5,-239.7 358.5,-239.7 358.5,-220.7 272.5,-220.7"/>
<text text-anchor="start" x="275.5" y="-226.8" font-family="Helvetica,sans-Serif" font-size="11.00" fill="#000000">...</text>
<polygon fill="#ffffff" stroke="transparent" points="272.5,-201.7 272.5,-220.7 296.5,-220.7 296.5,-201.7 272.5,-201.7"/>
<polygon fill="none" stroke="#000000" points="272.5,-201.7 272.5,-220.7 296.5,-220.7 296.5,-201.7 272.5,-201.7"/>
<text text-anchor="start" x="275.5" y="-207.8" font-family="Helvetica,sans-Serif" font-size="11.00" fill="#000000">&lt; 1</text>
<polygon fill="#ffffff" stroke="transparent" points="296.5,-201.7 296.5,-220.7 335.5,-220.7 335.5,-201.7 296.5,-201.7"/>
<polygon fill="none" stroke="#000000" points="296.5,-201.7 296.5,-220.7 335.5,-220.7 335.5,-201.7 296.5,-201.7"/>
<text text-anchor="start" x="300.1105" y="-207.8" font-family="Helvetica,sans-Serif" font-size="11.00" fill="#000000">0 rows</text>
<polygon fill="#ffffff" stroke="transparent" points="335.5,-201.7 335.5,-220.7 358.5,-220.7 358.5,-201.7 335.5,-201.7"/>
<polygon fill="none" stroke="#000000" points="335.5,-201.7 335.5,-220.7 358.5,-220.7 358.5,-201.7 335.5,-201.7"/>
<text text-anchor="start" x="339.9053" y="-207.8" font-family="Helvetica,sans-Serif" font-size="11.00" fill="#000000">1 &gt;</text>
</a>
</g>
</g>
<!-- mor_dr&#45;&gt;dependency_rule -->
<g id="edge6" class="edge">
<title>mor_dr:w&#45;&gt;dependency_rule:e</title>
<path fill="none" stroke="#000000" d="M262.0968,-229.7C221.1321,-229.7 207.1719,-229.7 161.5,-229.7"/>
<polygon fill="#000000" stroke="#000000" points="271.7,-225.7 271.7,-233.7 270.1,-233.7 270.1,-225.7 271.7,-225.7"/>
<polyline fill="none" stroke="#000000" points="272.5,-229.7 268.5,-229.7 "/>
<ellipse fill="none" stroke="#000000" cx="265.3" cy="-229.7001" rx="3.2" ry="3.2"/>
</g>
<!-- point_dr -->
<g id="node8" class="node">
<title>point_dr</title>
<g id="a_node8"><a xlink:href="../../tables/point_dr.html" xlink:title="point_dr" target="_top">
<polygon fill="#ffffff" stroke="transparent" points="268.5,-120.2 268.5,-181.2 362.5,-181.2 362.5,-120.2 268.5,-120.2"/>
<polygon fill="#f5f5f5" stroke="transparent" points="268.5,-157.7 268.5,-180.7 362.5,-180.7 362.5,-157.7 268.5,-157.7"/>
<polygon fill="none" stroke="#000000" points="268.5,-157.7 268.5,-180.7 362.5,-180.7 362.5,-157.7 268.5,-157.7"/>
<text text-anchor="start" x="273.5" y="-166.3" font-family="Helvetica,sans-Serif" font-weight="bold" font-size="11.00" fill="#000000">point_dr</text>
<text text-anchor="start" x="328.0219" y="-165.8" font-family="Helvetica,sans-Serif" font-size="11.00" fill="#000000">[table]</text>
<polygon fill="none" stroke="#000000" points="268.5,-138.7 268.5,-157.7 362.5,-157.7 362.5,-138.7 268.5,-138.7"/>
<text text-anchor="start" x="271.5" y="-144.8" font-family="Helvetica,sans-Serif" font-size="11.00" fill="#000000">...</text>
<polygon fill="#ffffff" stroke="transparent" points="268.5,-119.7 268.5,-138.7 296.5,-138.7 296.5,-119.7 268.5,-119.7"/>
<polygon fill="none" stroke="#000000" points="268.5,-119.7 268.5,-138.7 296.5,-138.7 296.5,-119.7 268.5,-119.7"/>
<text text-anchor="start" x="271.5" y="-125.8" font-family="Helvetica,sans-Serif" font-size="11.00" fill="#000000">&lt; 1</text>
<polygon fill="#ffffff" stroke="transparent" points="296.5,-119.7 296.5,-138.7 337.5,-138.7 337.5,-119.7 296.5,-119.7"/>
<polygon fill="none" stroke="#000000" points="296.5,-119.7 296.5,-138.7 337.5,-138.7 337.5,-119.7 296.5,-119.7"/>
<text text-anchor="start" x="302.1105" y="-125.8" font-family="Helvetica,sans-Serif" font-size="11.00" fill="#000000">0 rows</text>
<polygon fill="#ffffff" stroke="transparent" points="337.5,-119.7 337.5,-138.7 362.5,-138.7 362.5,-119.7 337.5,-119.7"/>
<polygon fill="none" stroke="#000000" points="337.5,-119.7 337.5,-138.7 362.5,-138.7 362.5,-119.7 337.5,-119.7"/>
<text text-anchor="start" x="343.9053" y="-125.8" font-family="Helvetica,sans-Serif" font-size="11.00" fill="#000000">1 &gt;</text>
</a>
</g>
</g>
<!-- point_dr&#45;&gt;dependency_rule -->
<g id="edge7" class="edge">
<title>point_dr:w&#45;&gt;dependency_rule:e</title>
<path fill="none" stroke="#000000" d="M257.9521,-148.4614C232.0536,-152.5162 226.7587,-172.1234 202,-191.7 182.6385,-207.0091 186.1827,-229.7 161.5,-229.7"/>
<polygon fill="#000000" stroke="#000000" points="267.4141,-143.768 267.9901,-151.7472 266.3942,-151.8624 265.8182,-143.8832 267.4141,-143.768"/>
<polyline fill="none" stroke="#000000" points="268.5,-147.7 264.5104,-147.988 "/>
<ellipse fill="none" stroke="#000000" cx="261.3187" cy="-148.2184" rx="3.2" ry="3.2"/>
</g>
<!-- predicate -->
<g id="node9" class="node">
<title>predicate</title>
<g id="a_node9"><a xlink:href="../../tables/predicate.html" xlink:title="predicate" target="_top">
<polygon fill="#ffffff" stroke="transparent" points="264,-38.2 264,-99.2 367,-99.2 367,-38.2 264,-38.2"/>
<polygon fill="#f5f5f5" stroke="transparent" points="264.5,-75.7 264.5,-98.7 367.5,-98.7 367.5,-75.7 264.5,-75.7"/>
<polygon fill="none" stroke="#000000" points="264.5,-75.7 264.5,-98.7 367.5,-98.7 367.5,-75.7 264.5,-75.7"/>
<text text-anchor="start" x="269.5" y="-84.3" font-family="Helvetica,sans-Serif" font-weight="bold" font-size="11.00" fill="#000000">predicate</text>
<text text-anchor="start" x="333.0219" y="-83.8" font-family="Helvetica,sans-Serif" font-size="11.00" fill="#000000">[table]</text>
<polygon fill="none" stroke="#000000" points="264.5,-56.7 264.5,-75.7 367.5,-75.7 367.5,-56.7 264.5,-56.7"/>
<text text-anchor="start" x="267.5" y="-62.8" font-family="Helvetica,sans-Serif" font-size="11.00" fill="#000000">...</text>
<polygon fill="#ffffff" stroke="transparent" points="264.5,-37.7 264.5,-56.7 296.5,-56.7 296.5,-37.7 264.5,-37.7"/>
<polygon fill="none" stroke="#000000" points="264.5,-37.7 264.5,-56.7 296.5,-56.7 296.5,-37.7 264.5,-37.7"/>
<text text-anchor="start" x="267.5" y="-43.8" font-family="Helvetica,sans-Serif" font-size="11.00" fill="#000000">&lt; 2</text>
<polygon fill="#ffffff" stroke="transparent" points="296.5,-37.7 296.5,-56.7 340.5,-56.7 340.5,-37.7 296.5,-37.7"/>
<polygon fill="none" stroke="#000000" points="296.5,-37.7 296.5,-56.7 340.5,-56.7 340.5,-37.7 296.5,-37.7"/>
<text text-anchor="start" x="305.1105" y="-43.8" font-family="Helvetica,sans-Serif" font-size="11.00" fill="#000000">0 rows</text>
<polygon fill="#ffffff" stroke="transparent" points="340.5,-37.7 340.5,-56.7 367.5,-56.7 367.5,-37.7 340.5,-37.7"/>
<polygon fill="none" stroke="#000000" points="340.5,-37.7 340.5,-56.7 367.5,-56.7 367.5,-37.7 340.5,-37.7"/>
<text text-anchor="start" x="348.9053" y="-43.8" font-family="Helvetica,sans-Serif" font-size="11.00" fill="#000000">2 &gt;</text>
</a>
</g>
</g>
<!-- predicate&#45;&gt;dependency_rule -->
<g id="edge8" class="edge">
<title>predicate:w&#45;&gt;dependency_rule:e</title>
<path fill="none" stroke="#000000" d="M250.0052,-64.5195C227.5907,-65.343 219.0712,-80.8406 202,-103.7 168.3194,-148.8006 217.7889,-223.7 161.5,-229.7"/>
<polygon fill="#000000" stroke="#000000" points="256.5264,-65.0506 264.2078,-69.2881 260.5132,-65.3753 264.5,-65.7 264.5,-65.7 264.5,-65.7 260.5132,-65.3753 264.7922,-62.1119 256.5264,-65.0506 256.5264,-65.0506"/>
<ellipse fill="none" stroke="#000000" cx="253.337" cy="-64.7908" rx="3.2" ry="3.2"/>
</g>
<!-- predicate&#45;&gt;dependency_rule -->
<g id="edge9" class="edge">
<title>predicate:w&#45;&gt;dependency_rule:e</title>
<path fill="none" stroke="#000000" d="M250.3189,-69.7002C227.6698,-78.199 219.1506,-93.7343 202,-116.7 168.3194,-161.8006 217.7889,-236.7 161.5,-229.7"/>
<polygon fill="#000000" stroke="#000000" points="256.8005,-67.8719 265.4774,-69.1648 260.6502,-66.786 264.5,-65.7 264.5,-65.7 264.5,-65.7 260.6502,-66.786 263.5226,-62.2352 256.8005,-67.8719 256.8005,-67.8719"/>
<ellipse fill="none" stroke="#000000" cx="253.7206" cy="-68.7407" rx="3.2" ry="3.2"/>
</g>
</g>
</svg>
