<?xml version="1.0" encoding="UTF-8" standalone="no"?>
<!DOCTYPE svg PUBLIC "-//W3C//DTD SVG 1.1//EN"
 "http://www.w3.org/Graphics/SVG/1.1/DTD/svg11.dtd">
<!-- Generated by graphviz version 2.40.1 (20161225.0304)
 -->
<!-- Title: twoDegreesRelationshipsDiagram Pages: 1 -->
<svg width="767pt" height="614pt"
 viewBox="0.00 0.00 767.00 614.20" xmlns="http://www.w3.org/2000/svg" xmlns:xlink="http://www.w3.org/1999/xlink">
<g id="graph0" class="graph" transform="scale(1 1) rotate(0) translate(4 610.2)">
<title>twoDegreesRelationshipsDiagram</title>
<polygon fill="#ffffff" stroke="transparent" points="-4,4 -4,-610.2 763,-610.2 763,4 -4,4"/>
<text text-anchor="middle" x="72.4936" y="-7.3" font-family="Helvetica,sans-Serif" font-size="11.00" fill="#000000">Generated by SchemaSpy</text>
<!-- aspect -->
<g id="node1" class="node">
<title>aspect</title>
<g id="a_node1"><a xlink:href="../../tables/aspect.html" xlink:title="aspect" target="_top">
<polygon fill="#ffffff" stroke="transparent" points="370,-312.2 370,-439.2 490,-439.2 490,-312.2 370,-312.2"/>
<polygon fill="#f5f5f5" stroke="transparent" points="370,-415.7 370,-438.7 490,-438.7 490,-415.7 370,-415.7"/>
<polygon fill="none" stroke="#000000" points="370,-415.7 370,-438.7 490,-438.7 490,-415.7 370,-415.7"/>
<text text-anchor="start" x="375" y="-424.3" font-family="Helvetica,sans-Serif" font-weight="bold" font-size="11.00" fill="#000000">aspect</text>
<text text-anchor="start" x="455.0437" y="-423.8" font-family="Helvetica,sans-Serif" font-size="11.00" fill="#000000">[table]</text>
<polygon fill="none" stroke="#000000" points="370,-393.7 370,-415.7 490,-415.7 490,-393.7 370,-393.7"/>
<image xlink:href="../../images/primaryKeys.png" width="11px" height="12px" preserveAspectRatio="xMinYMin meet" x="375" y="-410.7"/>
<text text-anchor="start" x="390" y="-400.8" font-family="Helvetica,sans-Serif" font-size="11.00" fill="#000000">aspect_id</text>
<polygon fill="#ffffff" stroke="transparent" points="370,-371.7 370,-393.7 490,-393.7 490,-371.7 370,-371.7"/>
<polygon fill="none" stroke="#000000" points="370,-371.7 370,-393.7 490,-393.7 490,-371.7 370,-371.7"/>
<text text-anchor="start" x="390" y="-378.8" font-family="Helvetica,sans-Serif" font-size="11.00" fill="#000000">description</text>
<polygon fill="#ffffff" stroke="transparent" points="370,-349.7 370,-371.7 490,-371.7 490,-349.7 370,-349.7"/>
<polygon fill="none" stroke="#000000" points="370,-349.7 370,-371.7 490,-371.7 490,-349.7 370,-349.7"/>
<image xlink:href="../../images/foreignKeys.png" width="11px" height="12px" preserveAspectRatio="xMinYMin meet" x="375" y="-366.7"/>
<text text-anchor="start" x="390" y="-356.8" font-family="Helvetica,sans-Serif" font-size="11.00" fill="#000000">aspect_type_id</text>
<polygon fill="none" stroke="#000000" points="370,-330.7 370,-349.7 490,-349.7 490,-330.7 370,-330.7"/>
<text text-anchor="start" x="373" y="-336.8" font-family="Helvetica,sans-Serif" font-size="11.00" fill="#000000">...</text>
<polygon fill="#ffffff" stroke="transparent" points="370,-311.7 370,-330.7 400,-330.7 400,-311.7 370,-311.7"/>
<polygon fill="none" stroke="#000000" points="370,-311.7 370,-330.7 400,-330.7 400,-311.7 370,-311.7"/>
<text text-anchor="start" x="373" y="-317.8" font-family="Helvetica,sans-Serif" font-size="11.00" fill="#000000">&lt; 1</text>
<polygon fill="#ffffff" stroke="transparent" points="400,-311.7 400,-330.7 464,-330.7 464,-311.7 400,-311.7"/>
<polygon fill="none" stroke="#000000" points="400,-311.7 400,-330.7 464,-330.7 464,-311.7 400,-311.7"/>
<text text-anchor="start" x="407.2089" y="-317.8" font-family="Helvetica,sans-Serif" font-size="11.00" fill="#000000">2.300 rows</text>
<polygon fill="#ffffff" stroke="transparent" points="464,-311.7 464,-330.7 490,-330.7 490,-311.7 464,-311.7"/>
<polygon fill="none" stroke="#000000" points="464,-311.7 464,-330.7 490,-330.7 490,-311.7 464,-311.7"/>
<text text-anchor="start" x="471.4053" y="-317.8" font-family="Helvetica,sans-Serif" font-size="11.00" fill="#000000">6 &gt;</text>
</a>
</g>
</g>
<!-- aspect_type -->
<g id="node2" class="node">
<title>aspect_type</title>
<g id="a_node2"><a xlink:href="../../tables/aspect_type.html" xlink:title="aspect_type" target="_top">
<polygon fill="#ffffff" stroke="transparent" points="161,-333.2 161,-394.2 281,-394.2 281,-333.2 161,-333.2"/>
<polygon fill="#f5f5f5" stroke="transparent" points="161,-370.7 161,-393.7 281,-393.7 281,-370.7 161,-370.7"/>
<polygon fill="none" stroke="#000000" points="161,-370.7 161,-393.7 281,-393.7 281,-370.7 161,-370.7"/>
<text text-anchor="start" x="166" y="-379.3" font-family="Helvetica,sans-Serif" font-weight="bold" font-size="11.00" fill="#000000">aspect_type</text>
<text text-anchor="start" x="246.5219" y="-378.8" font-family="Helvetica,sans-Serif" font-size="11.00" fill="#000000">[table]</text>
<polygon fill="none" stroke="#000000" points="161,-351.7 161,-370.7 281,-370.7 281,-351.7 161,-351.7"/>
<text text-anchor="start" x="164" y="-357.8" font-family="Helvetica,sans-Serif" font-size="11.00" fill="#000000">...</text>
<polygon fill="#ffffff" stroke="transparent" points="161,-332.7 161,-351.7 202,-351.7 202,-332.7 161,-332.7"/>
<polygon fill="none" stroke="#000000" points="161,-332.7 161,-351.7 202,-351.7 202,-332.7 161,-332.7"/>
<text text-anchor="start" x="164" y="-338.8" font-family="Helvetica,sans-Serif" font-size="11.00" fill="#000000">&lt; 1</text>
<polygon fill="#ffffff" stroke="transparent" points="202,-332.7 202,-351.7 250,-351.7 250,-332.7 202,-332.7"/>
<polygon fill="none" stroke="#000000" points="202,-332.7 202,-351.7 250,-351.7 250,-332.7 202,-332.7"/>
<text text-anchor="start" x="214.6105" y="-338.8" font-family="Helvetica,sans-Serif" font-size="11.00" fill="#000000">4 rows</text>
<polygon fill="#ffffff" stroke="transparent" points="250,-332.7 250,-351.7 281,-351.7 281,-332.7 250,-332.7"/>
<polygon fill="none" stroke="#000000" points="250,-332.7 250,-351.7 281,-351.7 281,-332.7 250,-332.7"/>
<text text-anchor="start" x="262.4053" y="-338.8" font-family="Helvetica,sans-Serif" font-size="11.00" fill="#000000">4 &gt;</text>
</a>
</g>
</g>
<!-- aspect&#45;&gt;aspect_type -->
<g id="edge1" class="edge">
<title>aspect:w&#45;&gt;aspect_type:e</title>
<path fill="none" stroke="#000000" d="M355.288,-360.7C327.1859,-360.7 315.1476,-360.7 281,-360.7"/>
<polygon fill="#000000" stroke="#000000" points="362,-360.7001 370,-364.3 366,-360.7 370,-360.7 370,-360.7 370,-360.7 366,-360.7 370,-357.1 362,-360.7001 362,-360.7001"/>
<ellipse fill="none" stroke="#000000" cx="358.8" cy="-360.7001" rx="3.2" ry="3.2"/>
</g>
<!-- aspect_attribute -->
<g id="node3" class="node">
<title>aspect_attribute</title>
<g id="a_node3"><a xlink:href="../../tables/aspect_attribute.html" xlink:title="aspect_attribute" target="_top">
<polygon fill="#ffffff" stroke="transparent" points="586,-541.2 586,-602.2 736,-602.2 736,-541.2 586,-541.2"/>
<polygon fill="#f5f5f5" stroke="transparent" points="586,-578.7 586,-601.7 736,-601.7 736,-578.7 586,-578.7"/>
<polygon fill="none" stroke="#000000" points="586,-578.7 586,-601.7 736,-601.7 736,-578.7 586,-578.7"/>
<text text-anchor="start" x="591" y="-587.3" font-family="Helvetica,sans-Serif" font-weight="bold" font-size="11.00" fill="#000000">aspect_attribute</text>
<text text-anchor="start" x="701.5219" y="-586.8" font-family="Helvetica,sans-Serif" font-size="11.00" fill="#000000">[table]</text>
<polygon fill="none" stroke="#000000" points="586,-559.7 586,-578.7 736,-578.7 736,-559.7 586,-559.7"/>
<text text-anchor="start" x="589" y="-565.8" font-family="Helvetica,sans-Serif" font-size="11.00" fill="#000000">...</text>
<polygon fill="#ffffff" stroke="transparent" points="586,-540.7 586,-559.7 636,-559.7 636,-540.7 586,-540.7"/>
<polygon fill="none" stroke="#000000" points="586,-540.7 586,-559.7 636,-559.7 636,-540.7 586,-540.7"/>
<text text-anchor="start" x="589" y="-546.8" font-family="Helvetica,sans-Serif" font-size="11.00" fill="#000000">&lt; 3</text>
<polygon fill="#ffffff" stroke="transparent" points="636,-540.7 636,-559.7 709,-559.7 709,-540.7 636,-540.7"/>
<polygon fill="none" stroke="#000000" points="636,-540.7 636,-559.7 709,-559.7 709,-540.7 636,-540.7"/>
<text text-anchor="start" x="652.2089" y="-546.8" font-family="Helvetica,sans-Serif" font-size="11.00" fill="#000000">6.100 rows</text>
<polygon fill="#ffffff" stroke="transparent" points="709,-540.7 709,-559.7 736,-559.7 736,-540.7 709,-540.7"/>
<polygon fill="none" stroke="#000000" points="709,-540.7 709,-559.7 736,-559.7 736,-540.7 709,-540.7"/>
<text text-anchor="start" x="726.8862" y="-546.8" font-family="Helvetica,sans-Serif" font-size="11.00" fill="#000000"> &#160;</text>
</a>
</g>
</g>
<!-- aspect_attribute&#45;&gt;aspect -->
<g id="edge2" class="edge">
<title>aspect_attribute:w&#45;&gt;aspect:e</title>
<path fill="none" stroke="#000000" d="M571.5462,-566.744C510.2872,-548.2407 569.0149,-404.7 490,-404.7"/>
<polygon fill="#000000" stroke="#000000" points="578.0723,-567.6271 585.5172,-572.2675 582.0361,-568.1635 586,-568.7 586,-568.7 586,-568.7 582.0361,-568.1635 586.4828,-565.1325 578.0723,-567.6271 578.0723,-567.6271"/>
<ellipse fill="none" stroke="#000000" cx="574.9012" cy="-567.1979" rx="3.2" ry="3.2"/>
</g>
<!-- mat -->
<g id="node4" class="node">
<title>mat</title>
<g id="a_node4"><a xlink:href="../../tables/mat.html" xlink:title="mat" target="_top">
<polygon fill="#ffffff" stroke="transparent" points="373,-38.2 373,-99.2 487,-99.2 487,-38.2 373,-38.2"/>
<polygon fill="#f5f5f5" stroke="transparent" points="373,-75.7 373,-98.7 487,-98.7 487,-75.7 373,-75.7"/>
<polygon fill="none" stroke="#000000" points="373,-75.7 373,-98.7 487,-98.7 487,-75.7 373,-75.7"/>
<text text-anchor="start" x="378" y="-84.3" font-family="Helvetica,sans-Serif" font-weight="bold" font-size="11.00" fill="#000000">mat</text>
<text text-anchor="start" x="452.0437" y="-83.8" font-family="Helvetica,sans-Serif" font-size="11.00" fill="#000000">[table]</text>
<polygon fill="none" stroke="#000000" points="373,-56.7 373,-75.7 487,-75.7 487,-56.7 373,-56.7"/>
<text text-anchor="start" x="376" y="-62.8" font-family="Helvetica,sans-Serif" font-size="11.00" fill="#000000">...</text>
<polygon fill="#ffffff" stroke="transparent" points="373,-37.7 373,-56.7 394,-56.7 394,-37.7 373,-37.7"/>
<polygon fill="none" stroke="#000000" points="373,-37.7 373,-56.7 394,-56.7 394,-37.7 373,-37.7"/>
<text text-anchor="start" x="375.7027" y="-43.8" font-family="Helvetica,sans-Serif" font-size="11.00" fill="#000000">&lt; 1</text>
<polygon fill="#ffffff" stroke="transparent" points="394,-37.7 394,-56.7 466,-56.7 466,-37.7 394,-37.7"/>
<polygon fill="none" stroke="#000000" points="394,-37.7 394,-56.7 466,-56.7 466,-37.7 394,-37.7"/>
<text text-anchor="start" x="396.9896" y="-43.8" font-family="Helvetica,sans-Serif" font-size="11.00" fill="#000000">292.481 rows</text>
<polygon fill="#ffffff" stroke="transparent" points="466,-37.7 466,-56.7 487,-56.7 487,-37.7 466,-37.7"/>
<polygon fill="none" stroke="#000000" points="466,-37.7 466,-56.7 487,-56.7 487,-37.7 466,-37.7"/>
<text text-anchor="start" x="468.7027" y="-43.8" font-family="Helvetica,sans-Serif" font-size="11.00" fill="#000000">3 &gt;</text>
</a>
</g>
</g>
<!-- moving_object -->
<g id="node5" class="node">
<title>moving_object</title>
<g id="a_node5"><a xlink:href="../../tables/moving_object.html" xlink:title="moving_object" target="_top">
<polygon fill="#ffffff" stroke="transparent" points="153,-155.7 153,-263.7 289,-263.7 289,-155.7 153,-155.7"/>
<polygon fill="#f5f5f5" stroke="transparent" points="153,-240.7 153,-263.7 289,-263.7 289,-240.7 153,-240.7"/>
<polygon fill="none" stroke="#000000" points="153,-240.7 153,-263.7 289,-263.7 289,-240.7 153,-240.7"/>
<text text-anchor="start" x="158" y="-249.3" font-family="Helvetica,sans-Serif" font-weight="bold" font-size="11.00" fill="#000000">moving_object</text>
<text text-anchor="start" x="254.5219" y="-248.8" font-family="Helvetica,sans-Serif" font-size="11.00" fill="#000000">[table]</text>
<polygon fill="none" stroke="#000000" points="153,-218.7 153,-240.7 289,-240.7 289,-218.7 153,-218.7"/>
<image xlink:href="../../images/primaryKeys.png" width="11px" height="12px" preserveAspectRatio="xMinYMin meet" x="158" y="-235.7"/>
<text text-anchor="start" x="182" y="-225.8" font-family="Helvetica,sans-Serif" font-size="11.00" fill="#000000">mo_id</text>
<polygon fill="#ffffff" stroke="transparent" points="153,-196.7 153,-218.7 289,-218.7 289,-196.7 153,-196.7"/>
<polygon fill="none" stroke="#000000" points="153,-196.7 153,-218.7 289,-218.7 289,-196.7 153,-196.7"/>
<text text-anchor="start" x="182" y="-203.8" font-family="Helvetica,sans-Serif" font-size="11.00" fill="#000000">description</text>
<polygon fill="#ffffff" stroke="transparent" points="153,-174.7 153,-196.7 289,-196.7 289,-174.7 153,-174.7"/>
<polygon fill="none" stroke="#000000" points="153,-174.7 153,-196.7 289,-196.7 289,-174.7 153,-174.7"/>
<image xlink:href="../../images/foreignKeys.png" width="11px" height="12px" preserveAspectRatio="xMinYMin meet" x="158" y="-191.7"/>
<text text-anchor="start" x="182" y="-181.8" font-family="Helvetica,sans-Serif" font-size="11.00" fill="#000000">mo_type_id</text>
<polygon fill="#ffffff" stroke="transparent" points="153,-155.7 153,-174.7 191,-174.7 191,-155.7 153,-155.7"/>
<polygon fill="none" stroke="#000000" points="153,-155.7 153,-174.7 191,-174.7 191,-155.7 153,-155.7"/>
<text text-anchor="start" x="156" y="-161.8" font-family="Helvetica,sans-Serif" font-size="11.00" fill="#000000">&lt; 1</text>
<polygon fill="#ffffff" stroke="transparent" points="191,-155.7 191,-174.7 259,-174.7 259,-155.7 191,-155.7"/>
<polygon fill="none" stroke="#000000" points="191,-155.7 191,-174.7 259,-174.7 259,-155.7 191,-155.7"/>
<text text-anchor="start" x="202.2089" y="-161.8" font-family="Helvetica,sans-Serif" font-size="11.00" fill="#000000">2.000 rows</text>
<polygon fill="#ffffff" stroke="transparent" points="259,-155.7 259,-174.7 289,-174.7 289,-155.7 259,-155.7"/>
<polygon fill="none" stroke="#000000" points="259,-155.7 259,-174.7 289,-174.7 289,-155.7 259,-155.7"/>
<text text-anchor="start" x="270.4053" y="-161.8" font-family="Helvetica,sans-Serif" font-size="11.00" fill="#000000">5 &gt;</text>
</a>
</g>
</g>
<!-- mat&#45;&gt;moving_object -->
<g id="edge3" class="edge">
<title>mat:w&#45;&gt;moving_object:e</title>
<path fill="none" stroke="#000000" d="M358.8032,-68.2945C344.5179,-74.5524 341.3061,-91.324 330,-109.7 300.4658,-157.7024 345.3604,-229.7 289,-229.7"/>
<polygon fill="#000000" stroke="#000000" points="365.1303,-67.1382 373.6472,-69.2413 369.0652,-66.4191 373,-65.7 373,-65.7 373,-65.7 369.0652,-66.4191 372.3528,-62.1587 365.1303,-67.1382 365.1303,-67.1382"/>
<ellipse fill="none" stroke="#000000" cx="361.9825" cy="-67.7135" rx="3.2" ry="3.2"/>
</g>
<!-- mo_type -->
<g id="node10" class="node">
<title>mo_type</title>
<g id="a_node10"><a xlink:href="../../tables/mo_type.html" xlink:title="mo_type" target="_top">
<polygon fill="#ffffff" stroke="transparent" points="8,-158.2 8,-219.2 104,-219.2 104,-158.2 8,-158.2"/>
<polygon fill="#f5f5f5" stroke="transparent" points="8,-195.7 8,-218.7 104,-218.7 104,-195.7 8,-195.7"/>
<polygon fill="none" stroke="#000000" points="8,-195.7 8,-218.7 104,-218.7 104,-195.7 8,-195.7"/>
<text text-anchor="start" x="13" y="-204.3" font-family="Helvetica,sans-Serif" font-weight="bold" font-size="11.00" fill="#000000">mo_type</text>
<text text-anchor="start" x="69.5219" y="-203.8" font-family="Helvetica,sans-Serif" font-size="11.00" fill="#000000">[table]</text>
<polygon fill="none" stroke="#000000" points="8,-176.7 8,-195.7 104,-195.7 104,-176.7 8,-176.7"/>
<text text-anchor="start" x="11" y="-182.8" font-family="Helvetica,sans-Serif" font-size="11.00" fill="#000000">...</text>
<polygon fill="#ffffff" stroke="transparent" points="8,-157.7 8,-176.7 35,-176.7 35,-157.7 8,-157.7"/>
<polygon fill="none" stroke="#000000" points="8,-157.7 8,-176.7 35,-176.7 35,-157.7 8,-157.7"/>
<text text-anchor="start" x="11" y="-163.8" font-family="Helvetica,sans-Serif" font-size="11.00" fill="#000000"> &#160;</text>
<polygon fill="#ffffff" stroke="transparent" points="35,-157.7 35,-176.7 75,-176.7 75,-157.7 35,-157.7"/>
<polygon fill="none" stroke="#000000" points="35,-157.7 35,-176.7 75,-176.7 75,-157.7 35,-157.7"/>
<text text-anchor="start" x="45.1105" y="-163.8" font-family="Helvetica,sans-Serif" font-size="11.00" fill="#000000">1 row</text>
<polygon fill="#ffffff" stroke="transparent" points="75,-157.7 75,-176.7 104,-176.7 104,-157.7 75,-157.7"/>
<polygon fill="none" stroke="#000000" points="75,-157.7 75,-176.7 104,-176.7 104,-157.7 75,-157.7"/>
<text text-anchor="start" x="85.4053" y="-163.8" font-family="Helvetica,sans-Serif" font-size="11.00" fill="#000000">1 &gt;</text>
</a>
</g>
</g>
<!-- moving_object&#45;&gt;mo_type -->
<g id="edge12" class="edge">
<title>moving_object:w&#45;&gt;mo_type:e</title>
<path fill="none" stroke="#000000" d="M138.4909,-185.7C127.1774,-185.7 119.9931,-185.7 104,-185.7"/>
<polygon fill="#000000" stroke="#000000" points="145,-185.7001 153,-189.3 149,-185.7 153,-185.7 153,-185.7 153,-185.7 149,-185.7 153,-182.1 145,-185.7001 145,-185.7001"/>
<ellipse fill="none" stroke="#000000" cx="141.8" cy="-185.7001" rx="3.2" ry="3.2"/>
</g>
<!-- mat_aspect -->
<g id="node6" class="node">
<title>mat_aspect</title>
<g id="a_node6"><a xlink:href="../../tables/mat_aspect.html" xlink:title="mat_aspect" target="_top">
<polygon fill="#ffffff" stroke="transparent" points="603,-48.2 603,-109.2 719,-109.2 719,-48.2 603,-48.2"/>
<polygon fill="#f5f5f5" stroke="transparent" points="603,-85.7 603,-108.7 719,-108.7 719,-85.7 603,-85.7"/>
<polygon fill="none" stroke="#000000" points="603,-85.7 603,-108.7 719,-108.7 719,-85.7 603,-85.7"/>
<text text-anchor="start" x="608" y="-94.3" font-family="Helvetica,sans-Serif" font-weight="bold" font-size="11.00" fill="#000000">mat_aspect</text>
<text text-anchor="start" x="684.5219" y="-93.8" font-family="Helvetica,sans-Serif" font-size="11.00" fill="#000000">[table]</text>
<polygon fill="none" stroke="#000000" points="603,-66.7 603,-85.7 719,-85.7 719,-66.7 603,-66.7"/>
<text text-anchor="start" x="606" y="-72.8" font-family="Helvetica,sans-Serif" font-size="11.00" fill="#000000">...</text>
<polygon fill="#ffffff" stroke="transparent" points="603,-47.7 603,-66.7 646,-66.7 646,-47.7 603,-47.7"/>
<polygon fill="none" stroke="#000000" points="603,-47.7 603,-66.7 646,-66.7 646,-47.7 603,-47.7"/>
<text text-anchor="start" x="606" y="-53.8" font-family="Helvetica,sans-Serif" font-size="11.00" fill="#000000">&lt; 2</text>
<polygon fill="#ffffff" stroke="transparent" points="646,-47.7 646,-66.7 695,-66.7 695,-47.7 646,-47.7"/>
<polygon fill="none" stroke="#000000" points="646,-47.7 646,-66.7 695,-66.7 695,-47.7 646,-47.7"/>
<text text-anchor="start" x="659.6105" y="-53.8" font-family="Helvetica,sans-Serif" font-size="11.00" fill="#000000">0 rows</text>
<polygon fill="#ffffff" stroke="transparent" points="695,-47.7 695,-66.7 719,-66.7 719,-47.7 695,-47.7"/>
<polygon fill="none" stroke="#000000" points="695,-47.7 695,-66.7 719,-66.7 719,-47.7 695,-47.7"/>
<text text-anchor="start" x="709.8862" y="-53.8" font-family="Helvetica,sans-Serif" font-size="11.00" fill="#000000"> &#160;</text>
</a>
</g>
</g>
<!-- mat_aspect&#45;&gt;aspect -->
<g id="edge4" class="edge">
<title>mat_aspect:w&#45;&gt;aspect:e</title>
<path fill="none" stroke="#000000" d="M588.3483,-76.8268C461.3965,-97.8059 639.3222,-404.7 490,-404.7"/>
<polygon fill="#000000" stroke="#000000" points="595.0236,-76.3135 603.2761,-79.2894 599.0118,-76.0067 603,-75.7 603,-75.7 603,-75.7 599.0118,-76.0067 602.7239,-72.1106 595.0236,-76.3135 595.0236,-76.3135"/>
<ellipse fill="none" stroke="#000000" cx="591.833" cy="-76.5589" rx="3.2" ry="3.2"/>
</g>
<!-- mat_aspect&#45;&gt;mat -->
<g id="edge5" class="edge">
<title>mat_aspect:w&#45;&gt;mat:e</title>
<path fill="none" stroke="#000000" d="M588.3655,-75.4115C548.3081,-73.7719 533.4912,-65.7 487,-65.7"/>
<polygon fill="#000000" stroke="#000000" points="595.0016,-75.5423 602.929,-79.2993 599.0008,-75.6211 603,-75.7 603,-75.7 603,-75.7 599.0008,-75.6211 603.071,-72.1007 595.0016,-75.5423 595.0016,-75.5423"/>
<ellipse fill="none" stroke="#000000" cx="591.8022" cy="-75.4792" rx="3.2" ry="3.2"/>
</g>
<!-- mo_aspect -->
<g id="node7" class="node">
<title>mo_aspect</title>
<g id="a_node7"><a xlink:href="../../tables/mo_aspect.html" xlink:title="mo_aspect" target="_top">
<polygon fill="#ffffff" stroke="transparent" points="571,-221.7 571,-355.7 751,-355.7 751,-221.7 571,-221.7"/>
<polygon fill="#f5f5f5" stroke="transparent" points="573,-330.7 573,-353.7 749,-353.7 749,-330.7 573,-330.7"/>
<polygon fill="none" stroke="#000000" points="573,-330.7 573,-353.7 749,-353.7 749,-330.7 573,-330.7"/>
<text text-anchor="start" x="578" y="-339.3" font-family="Helvetica,sans-Serif" font-weight="bold" font-size="11.00" fill="#000000">mo_aspect</text>
<text text-anchor="start" x="714.0437" y="-338.8" font-family="Helvetica,sans-Serif" font-size="11.00" fill="#000000">[table]</text>
<polygon fill="none" stroke="#000000" points="573,-308.7 573,-330.7 665,-330.7 665,-308.7 573,-308.7"/>
<image xlink:href="../../images/primaryKeys.png" width="11px" height="12px" preserveAspectRatio="xMinYMin meet" x="578" y="-325.7"/>
<text text-anchor="start" x="593" y="-315.8" font-family="Helvetica,sans-Serif" font-size="11.00" fill="#000000">mo_id</text>
<polygon fill="none" stroke="#000000" points="665,-308.7 665,-330.7 749,-330.7 749,-308.7 665,-308.7"/>
<text text-anchor="start" x="668" y="-316.4" font-family="Helvetica,sans-Serif" font-size="11.00" fill="#000000">int4[10]</text>
<polygon fill="none" stroke="#000000" points="573,-286.7 573,-308.7 665,-308.7 665,-286.7 573,-286.7"/>
<image xlink:href="../../images/primaryKeys.png" width="11px" height="12px" preserveAspectRatio="xMinYMin meet" x="578" y="-303.7"/>
<text text-anchor="start" x="593" y="-293.8" font-family="Helvetica,sans-Serif" font-size="11.00" fill="#000000">aspect_id</text>
<polygon fill="none" stroke="#000000" points="665,-286.7 665,-308.7 749,-308.7 749,-286.7 665,-286.7"/>
<text text-anchor="start" x="668" y="-294.4" font-family="Helvetica,sans-Serif" font-size="11.00" fill="#000000">int4[10]</text>
<polygon fill="none" stroke="#000000" points="573,-264.7 573,-286.7 665,-286.7 665,-264.7 573,-264.7"/>
<text text-anchor="start" x="593" y="-271.8" font-family="Helvetica,sans-Serif" font-size="11.00" fill="#000000">start_time</text>
<polygon fill="none" stroke="#000000" points="665,-264.7 665,-286.7 749,-286.7 749,-264.7 665,-264.7"/>
<text text-anchor="start" x="667.8807" y="-272.4" font-family="Helvetica,sans-Serif" font-size="11.00" fill="#000000">timestamp[29,6]</text>
<polygon fill="none" stroke="#000000" points="573,-242.7 573,-264.7 665,-264.7 665,-242.7 573,-242.7"/>
<text text-anchor="start" x="593" y="-249.8" font-family="Helvetica,sans-Serif" font-size="11.00" fill="#000000">end_time</text>
<polygon fill="none" stroke="#000000" points="665,-242.7 665,-264.7 749,-264.7 749,-242.7 665,-242.7"/>
<text text-anchor="start" x="667.8807" y="-250.4" font-family="Helvetica,sans-Serif" font-size="11.00" fill="#000000">timestamp[29,6]</text>
<polygon fill="#ffffff" stroke="transparent" points="573,-223.7 573,-242.7 600,-242.7 600,-223.7 573,-223.7"/>
<polygon fill="none" stroke="#000000" points="573,-223.7 573,-242.7 600,-242.7 600,-223.7 573,-223.7"/>
<text text-anchor="start" x="576" y="-229.8" font-family="Helvetica,sans-Serif" font-size="11.00" fill="#000000">&lt; 2</text>
<polygon fill="#ffffff" stroke="transparent" points="600,-223.7 600,-242.7 665,-242.7 665,-223.7 600,-223.7"/>
<polygon fill="none" stroke="#000000" points="600,-223.7 600,-242.7 665,-242.7 665,-223.7 600,-223.7"/>
<text text-anchor="start" x="608.2089" y="-229.8" font-family="Helvetica,sans-Serif" font-size="11.00" fill="#000000">2.000 rows</text>
<polygon fill="#ffffff" stroke="transparent" points="665,-223.7 665,-242.7 749,-242.7 749,-223.7 665,-223.7"/>
<polygon fill="none" stroke="#000000" points="665,-223.7 665,-242.7 749,-242.7 749,-223.7 665,-223.7"/>
<text text-anchor="start" x="730.4053" y="-229.8" font-family="Helvetica,sans-Serif" font-size="11.00" fill="#000000">0 &gt;</text>
<polygon fill="none" stroke="#000000" stroke-width="2" points="572,-222.7 572,-354.7 750,-354.7 750,-222.7 572,-222.7"/>
</a>
</g>
</g>
<!-- mo_aspect&#45;&gt;aspect -->
<g id="edge6" class="edge">
<title>mo_aspect:w&#45;&gt;aspect:e</title>
<path fill="none" stroke="#000000" d="M558.7407,-300.2394C518.8534,-316.4429 544.6609,-404.7 490,-404.7"/>
<polygon fill="#000000" stroke="#000000" points="565.1239,-299.1027 573.6312,-301.2442 569.062,-298.4013 573,-297.7 573,-297.7 573,-297.7 569.062,-298.4013 572.3688,-294.1558 565.1239,-299.1027 565.1239,-299.1027"/>
<ellipse fill="none" stroke="#000000" cx="561.9735" cy="-299.6638" rx="3.2" ry="3.2"/>
</g>
<!-- mo_aspect&#45;&gt;moving_object -->
<g id="edge7" class="edge">
<title>mo_aspect:w&#45;&gt;moving_object:e</title>
<path fill="none" stroke="#000000" d="M558.7781,-317.0343C549.4739,-313.0508 544.2043,-305.5971 530,-301.7 443.4428,-277.9524 409.6176,-315.1383 330,-273.7 306.2896,-261.3595 315.7296,-229.7 289,-229.7"/>
<polygon fill="#000000" stroke="#000000" points="565.1369,-318.2261 572.3368,-323.2384 569.0685,-318.9631 573,-319.7 573,-319.7 573,-319.7 569.0685,-318.9631 573.6632,-316.1616 565.1369,-318.2261 565.1369,-318.2261"/>
<ellipse fill="none" stroke="#000000" cx="561.9917" cy="-317.6366" rx="3.2" ry="3.2"/>
</g>
<!-- mo_relationship -->
<g id="node8" class="node">
<title>mo_relationship</title>
<g id="a_node8"><a xlink:href="../../tables/mo_relationship.html" xlink:title="mo_relationship" target="_top">
<polygon fill="#ffffff" stroke="transparent" points="356.5,-202.2 356.5,-263.2 503.5,-263.2 503.5,-202.2 356.5,-202.2"/>
<polygon fill="#f5f5f5" stroke="transparent" points="357,-239.7 357,-262.7 504,-262.7 504,-239.7 357,-239.7"/>
<polygon fill="none" stroke="#000000" points="357,-239.7 357,-262.7 504,-262.7 504,-239.7 357,-239.7"/>
<text text-anchor="start" x="362" y="-248.3" font-family="Helvetica,sans-Serif" font-weight="bold" font-size="11.00" fill="#000000">mo_relationship</text>
<text text-anchor="start" x="469.5219" y="-247.8" font-family="Helvetica,sans-Serif" font-size="11.00" fill="#000000">[table]</text>
<polygon fill="none" stroke="#000000" points="357,-220.7 357,-239.7 504,-239.7 504,-220.7 357,-220.7"/>
<text text-anchor="start" x="360" y="-226.8" font-family="Helvetica,sans-Serif" font-size="11.00" fill="#000000">...</text>
<polygon fill="#ffffff" stroke="transparent" points="357,-201.7 357,-220.7 411,-220.7 411,-201.7 357,-201.7"/>
<polygon fill="none" stroke="#000000" points="357,-201.7 357,-220.7 411,-220.7 411,-201.7 357,-201.7"/>
<text text-anchor="start" x="360" y="-207.8" font-family="Helvetica,sans-Serif" font-size="11.00" fill="#000000">&lt; 2</text>
<polygon fill="#ffffff" stroke="transparent" points="411,-201.7 411,-220.7 466,-220.7 466,-201.7 411,-201.7"/>
<polygon fill="none" stroke="#000000" points="411,-201.7 411,-220.7 466,-220.7 466,-201.7 411,-201.7"/>
<text text-anchor="start" x="430.6105" y="-207.8" font-family="Helvetica,sans-Serif" font-size="11.00" fill="#000000">0 rows</text>
<polygon fill="#ffffff" stroke="transparent" points="466,-201.7 466,-220.7 504,-220.7 504,-201.7 466,-201.7"/>
<polygon fill="none" stroke="#000000" points="466,-201.7 466,-220.7 504,-220.7 504,-201.7 466,-201.7"/>
<text text-anchor="start" x="485.4053" y="-207.8" font-family="Helvetica,sans-Serif" font-size="11.00" fill="#000000">2 &gt;</text>
</a>
</g>
</g>
<!-- mo_relationship&#45;&gt;moving_object -->
<g id="edge8" class="edge">
<title>mo_relationship:w&#45;&gt;moving_object:e</title>
<path fill="none" stroke="#000000" d="M342.6409,-227.0468C323.3306,-223.8937 313.7917,-224.7781 289,-229.7"/>
<polygon fill="#000000" stroke="#000000" points="349.1332,-228.2464 356.3459,-233.2401 353.0666,-228.9732 357,-229.7 357,-229.7 357,-229.7 353.0666,-228.9732 357.6541,-226.1599 349.1332,-228.2464 349.1332,-228.2464"/>
<ellipse fill="none" stroke="#000000" cx="345.9864" cy="-227.6649" rx="3.2" ry="3.2"/>
</g>
<!-- mo_relationship&#45;&gt;moving_object -->
<g id="edge9" class="edge">
<title>mo_relationship:w&#45;&gt;moving_object:e</title>
<path fill="none" stroke="#000000" d="M342.9174,-232.7425C323.4211,-236.4837 313.9097,-235.4695 289,-229.7"/>
<polygon fill="#000000" stroke="#000000" points="349.1804,-231.3895 357.7603,-233.2188 353.0902,-230.5447 357,-229.7 357,-229.7 357,-229.7 353.0902,-230.5447 356.2397,-226.1812 349.1804,-231.3895 349.1804,-231.3895"/>
<ellipse fill="none" stroke="#000000" cx="346.0526" cy="-232.0652" rx="3.2" ry="3.2"/>
</g>
<!-- mor_aspect -->
<g id="node9" class="node">
<title>mor_aspect</title>
<g id="a_node9"><a xlink:href="../../tables/mor_aspect.html" xlink:title="mor_aspect" target="_top">
<polygon fill="#ffffff" stroke="transparent" points="603,-139.2 603,-200.2 719,-200.2 719,-139.2 603,-139.2"/>
<polygon fill="#f5f5f5" stroke="transparent" points="603,-176.7 603,-199.7 719,-199.7 719,-176.7 603,-176.7"/>
<polygon fill="none" stroke="#000000" points="603,-176.7 603,-199.7 719,-199.7 719,-176.7 603,-176.7"/>
<text text-anchor="start" x="608" y="-185.3" font-family="Helvetica,sans-Serif" font-weight="bold" font-size="11.00" fill="#000000">mor_aspect</text>
<text text-anchor="start" x="684.5219" y="-184.8" font-family="Helvetica,sans-Serif" font-size="11.00" fill="#000000">[table]</text>
<polygon fill="none" stroke="#000000" points="603,-157.7 603,-176.7 719,-176.7 719,-157.7 603,-157.7"/>
<text text-anchor="start" x="606" y="-163.8" font-family="Helvetica,sans-Serif" font-size="11.00" fill="#000000">...</text>
<polygon fill="#ffffff" stroke="transparent" points="603,-138.7 603,-157.7 646,-157.7 646,-138.7 603,-138.7"/>
<polygon fill="none" stroke="#000000" points="603,-138.7 603,-157.7 646,-157.7 646,-138.7 603,-138.7"/>
<text text-anchor="start" x="606" y="-144.8" font-family="Helvetica,sans-Serif" font-size="11.00" fill="#000000">&lt; 2</text>
<polygon fill="#ffffff" stroke="transparent" points="646,-138.7 646,-157.7 695,-157.7 695,-138.7 646,-138.7"/>
<polygon fill="none" stroke="#000000" points="646,-138.7 646,-157.7 695,-157.7 695,-138.7 646,-138.7"/>
<text text-anchor="start" x="659.6105" y="-144.8" font-family="Helvetica,sans-Serif" font-size="11.00" fill="#000000">0 rows</text>
<polygon fill="#ffffff" stroke="transparent" points="695,-138.7 695,-157.7 719,-157.7 719,-138.7 695,-138.7"/>
<polygon fill="none" stroke="#000000" points="695,-138.7 695,-157.7 719,-157.7 719,-138.7 695,-138.7"/>
<text text-anchor="start" x="709.8862" y="-144.8" font-family="Helvetica,sans-Serif" font-size="11.00" fill="#000000"> &#160;</text>
</a>
</g>
</g>
<!-- mor_aspect&#45;&gt;aspect -->
<g id="edge10" class="edge">
<title>mor_aspect:w&#45;&gt;aspect:e</title>
<path fill="none" stroke="#000000" d="M588.619,-168.0977C496.3124,-187.6025 601.8348,-404.7 490,-404.7"/>
<polygon fill="#000000" stroke="#000000" points="595.0375,-167.4739 603.3483,-170.2831 599.0188,-167.087 603,-166.7 603,-166.7 603,-166.7 599.0188,-167.087 602.6517,-163.1169 595.0375,-167.4739 595.0375,-167.4739"/>
<ellipse fill="none" stroke="#000000" cx="591.8525" cy="-167.7835" rx="3.2" ry="3.2"/>
</g>
<!-- mor_aspect&#45;&gt;mo_relationship -->
<g id="edge11" class="edge">
<title>mor_aspect:w&#45;&gt;mo_relationship:e</title>
<path fill="none" stroke="#000000" d="M588.281,-168.6545C551.3267,-179.2883 550.653,-229.7 504,-229.7"/>
<polygon fill="#000000" stroke="#000000" points="595.0696,-167.7531 603.4739,-170.2687 599.0348,-167.2266 603,-166.7 603,-166.7 603,-166.7 599.0348,-167.2266 602.5261,-163.1313 595.0696,-167.7531 595.0696,-167.7531"/>
<ellipse fill="none" stroke="#000000" cx="591.8975" cy="-168.1744" rx="3.2" ry="3.2"/>
</g>
<!-- moving_object_mo_dr -->
<g id="node11" class="node">
<title>moving_object_mo_dr</title>
<g id="a_node11"><a xlink:href="../../tables/moving_object_mo_dr.html" xlink:title="moving_object_mo_dr" target="_top">
<polygon fill="#ffffff" stroke="transparent" points="338,-120.2 338,-181.2 522,-181.2 522,-120.2 338,-120.2"/>
<polygon fill="#f5f5f5" stroke="transparent" points="338,-157.7 338,-180.7 522,-180.7 522,-157.7 338,-157.7"/>
<polygon fill="none" stroke="#000000" points="338,-157.7 338,-180.7 522,-180.7 522,-157.7 338,-157.7"/>
<text text-anchor="start" x="343" y="-166.3" font-family="Helvetica,sans-Serif" font-weight="bold" font-size="11.00" fill="#000000">moving_object_mo_dr</text>
<text text-anchor="start" x="487.5219" y="-165.8" font-family="Helvetica,sans-Serif" font-size="11.00" fill="#000000">[table]</text>
<polygon fill="none" stroke="#000000" points="338,-138.7 338,-157.7 522,-157.7 522,-138.7 338,-138.7"/>
<text text-anchor="start" x="341" y="-144.8" font-family="Helvetica,sans-Serif" font-size="11.00" fill="#000000">...</text>
<polygon fill="#ffffff" stroke="transparent" points="338,-119.7 338,-138.7 415,-138.7 415,-119.7 338,-119.7"/>
<polygon fill="none" stroke="#000000" points="338,-119.7 338,-138.7 415,-138.7 415,-119.7 338,-119.7"/>
<text text-anchor="start" x="341" y="-125.8" font-family="Helvetica,sans-Serif" font-size="11.00" fill="#000000">&lt; 2</text>
<polygon fill="#ffffff" stroke="transparent" points="415,-119.7 415,-138.7 481,-138.7 481,-119.7 415,-119.7"/>
<polygon fill="none" stroke="#000000" points="415,-119.7 415,-138.7 481,-138.7 481,-119.7 415,-119.7"/>
<text text-anchor="start" x="445.6105" y="-125.8" font-family="Helvetica,sans-Serif" font-size="11.00" fill="#000000">0 rows</text>
<polygon fill="#ffffff" stroke="transparent" points="481,-119.7 481,-138.7 522,-138.7 522,-119.7 481,-119.7"/>
<polygon fill="none" stroke="#000000" points="481,-119.7 481,-138.7 522,-138.7 522,-119.7 481,-119.7"/>
<text text-anchor="start" x="512.8862" y="-125.8" font-family="Helvetica,sans-Serif" font-size="11.00" fill="#000000"> &#160;</text>
</a>
</g>
</g>
<!-- moving_object_mo_dr&#45;&gt;moving_object -->
<g id="edge13" class="edge">
<title>moving_object_mo_dr:w&#45;&gt;moving_object:e</title>
<path fill="none" stroke="#000000" d="M324.0294,-152.3436C304.288,-169.6902 325.3194,-229.7 289,-229.7"/>
<polygon fill="#000000" stroke="#000000" points="330.4084,-150.2234 339.1355,-151.1162 334.2042,-148.9617 338,-147.7 338,-147.7 338,-147.7 334.2042,-148.9617 336.8645,-144.2838 330.4084,-150.2234 330.4084,-150.2234"/>
<ellipse fill="none" stroke="#000000" cx="327.3717" cy="-151.2327" rx="3.2" ry="3.2"/>
</g>
<!-- point_aspect -->
<g id="node12" class="node">
<title>point_aspect</title>
<g id="a_node12"><a xlink:href="../../tables/point_aspect.html" xlink:title="point_aspect" target="_top">
<polygon fill="#ffffff" stroke="transparent" points="598.5,-459.2 598.5,-520.2 723.5,-520.2 723.5,-459.2 598.5,-459.2"/>
<polygon fill="#f5f5f5" stroke="transparent" points="599,-496.7 599,-519.7 724,-519.7 724,-496.7 599,-496.7"/>
<polygon fill="none" stroke="#000000" points="599,-496.7 599,-519.7 724,-519.7 724,-496.7 599,-496.7"/>
<text text-anchor="start" x="604" y="-505.3" font-family="Helvetica,sans-Serif" font-weight="bold" font-size="11.00" fill="#000000">point_aspect</text>
<text text-anchor="start" x="689.5219" y="-504.8" font-family="Helvetica,sans-Serif" font-size="11.00" fill="#000000">[table]</text>
<polygon fill="none" stroke="#000000" points="599,-477.7 599,-496.7 724,-496.7 724,-477.7 599,-477.7"/>
<text text-anchor="start" x="602" y="-483.8" font-family="Helvetica,sans-Serif" font-size="11.00" fill="#000000">...</text>
<polygon fill="#ffffff" stroke="transparent" points="599,-458.7 599,-477.7 625,-477.7 625,-458.7 599,-458.7"/>
<polygon fill="none" stroke="#000000" points="599,-458.7 599,-477.7 625,-477.7 625,-458.7 599,-458.7"/>
<text text-anchor="start" x="602" y="-464.8" font-family="Helvetica,sans-Serif" font-size="11.00" fill="#000000">&lt; 2</text>
<polygon fill="#ffffff" stroke="transparent" points="625,-458.7 625,-477.7 709,-477.7 709,-458.7 625,-458.7"/>
<polygon fill="none" stroke="#000000" points="625,-458.7 625,-477.7 709,-477.7 709,-458.7 625,-458.7"/>
<text text-anchor="start" x="630.8073" y="-464.8" font-family="Helvetica,sans-Serif" font-size="11.00" fill="#000000">1.039.258 rows</text>
<polygon fill="#ffffff" stroke="transparent" points="709,-458.7 709,-477.7 724,-477.7 724,-458.7 709,-458.7"/>
<polygon fill="none" stroke="#000000" points="709,-458.7 709,-477.7 724,-477.7 724,-458.7 709,-458.7"/>
<text text-anchor="start" x="714.8862" y="-464.8" font-family="Helvetica,sans-Serif" font-size="11.00" fill="#000000"> &#160;</text>
</a>
</g>
</g>
<!-- point_aspect&#45;&gt;aspect -->
<g id="edge14" class="edge">
<title>point_aspect:w&#45;&gt;aspect:e</title>
<path fill="none" stroke="#000000" d="M584.6053,-484.9111C539.9672,-472.9194 545.2942,-404.7 490,-404.7"/>
<polygon fill="#000000" stroke="#000000" points="591.0611,-485.7133 598.556,-490.2725 595.0305,-486.2067 599,-486.7 599,-486.7 599,-486.7 595.0305,-486.2067 599.444,-483.1275 591.0611,-485.7133 591.0611,-485.7133"/>
<ellipse fill="none" stroke="#000000" cx="587.8855" cy="-485.3186" rx="3.2" ry="3.2"/>
</g>
<!-- predicate_aspect -->
<g id="node13" class="node">
<title>predicate_aspect</title>
<g id="a_node13"><a xlink:href="../../tables/predicate_aspect.html" xlink:title="predicate_aspect" target="_top">
<polygon fill="#ffffff" stroke="transparent" points="584,-377.2 584,-438.2 738,-438.2 738,-377.2 584,-377.2"/>
<polygon fill="#f5f5f5" stroke="transparent" points="584,-414.7 584,-437.7 738,-437.7 738,-414.7 584,-414.7"/>
<polygon fill="none" stroke="#000000" points="584,-414.7 584,-437.7 738,-437.7 738,-414.7 584,-414.7"/>
<text text-anchor="start" x="589" y="-423.3" font-family="Helvetica,sans-Serif" font-weight="bold" font-size="11.00" fill="#000000">predicate_aspect</text>
<text text-anchor="start" x="703.5219" y="-422.8" font-family="Helvetica,sans-Serif" font-size="11.00" fill="#000000">[table]</text>
<polygon fill="none" stroke="#000000" points="584,-395.7 584,-414.7 738,-414.7 738,-395.7 584,-395.7"/>
<text text-anchor="start" x="587" y="-401.8" font-family="Helvetica,sans-Serif" font-size="11.00" fill="#000000">...</text>
<polygon fill="#ffffff" stroke="transparent" points="584,-376.7 584,-395.7 646,-395.7 646,-376.7 584,-376.7"/>
<polygon fill="none" stroke="#000000" points="584,-376.7 584,-395.7 646,-395.7 646,-376.7 584,-376.7"/>
<text text-anchor="start" x="587" y="-382.8" font-family="Helvetica,sans-Serif" font-size="11.00" fill="#000000">&lt; 2</text>
<polygon fill="#ffffff" stroke="transparent" points="646,-376.7 646,-395.7 705,-395.7 705,-376.7 646,-376.7"/>
<polygon fill="none" stroke="#000000" points="646,-376.7 646,-395.7 705,-395.7 705,-376.7 646,-376.7"/>
<text text-anchor="start" x="669.6105" y="-382.8" font-family="Helvetica,sans-Serif" font-size="11.00" fill="#000000">0 rows</text>
<polygon fill="#ffffff" stroke="transparent" points="705,-376.7 705,-395.7 738,-395.7 738,-376.7 705,-376.7"/>
<polygon fill="none" stroke="#000000" points="705,-376.7 705,-395.7 738,-395.7 738,-376.7 705,-376.7"/>
<text text-anchor="start" x="728.8862" y="-382.8" font-family="Helvetica,sans-Serif" font-size="11.00" fill="#000000"> &#160;</text>
</a>
</g>
</g>
<!-- predicate_aspect&#45;&gt;aspect -->
<g id="edge15" class="edge">
<title>predicate_aspect:w&#45;&gt;aspect:e</title>
<path fill="none" stroke="#000000" d="M569.2715,-404.7C539.0089,-404.7 526.3924,-404.7 490,-404.7"/>
<polygon fill="#000000" stroke="#000000" points="576,-404.7001 584,-408.3 580,-404.7 584,-404.7 584,-404.7 584,-404.7 580,-404.7 584,-401.1 576,-404.7001 576,-404.7001"/>
<ellipse fill="none" stroke="#000000" cx="572.8" cy="-404.7001" rx="3.2" ry="3.2"/>
</g>
</g>
</svg>
