<?xml version="1.0" encoding="UTF-8" standalone="no"?>
<!DOCTYPE svg PUBLIC "-//W3C//DTD SVG 1.1//EN"
 "http://www.w3.org/Graphics/SVG/1.1/DTD/svg11.dtd">
<!-- Generated by graphviz version 2.40.1 (20161225.0304)
 -->
<!-- Title: oneDegreeRelationshipsDiagram Pages: 1 -->
<svg width="389pt" height="307pt"
 viewBox="0.00 0.00 389.00 306.70" xmlns="http://www.w3.org/2000/svg" xmlns:xlink="http://www.w3.org/1999/xlink">
<g id="graph0" class="graph" transform="scale(1 1) rotate(0) translate(4 302.7)">
<title>oneDegreeRelationshipsDiagram</title>
<polygon fill="#ffffff" stroke="transparent" points="-4,4 -4,-302.7 385,-302.7 385,4 -4,4"/>
<text text-anchor="middle" x="72.4936" y="-7.3" font-family="Helvetica,sans-Serif" font-size="11.00" fill="#000000">Generated by SchemaSpy</text>
<!-- mo_aspect -->
<g id="node1" class="node">
<title>mo_aspect</title>
<g id="a_node1"><a xlink:href="../../tables/mo_aspect.html" xlink:title="mo_aspect" target="_top">
<polygon fill="#ffffff" stroke="transparent" points="193,-108.7 193,-242.7 373,-242.7 373,-108.7 193,-108.7"/>
<polygon fill="#f5f5f5" stroke="transparent" points="195,-217.7 195,-240.7 371,-240.7 371,-217.7 195,-217.7"/>
<polygon fill="none" stroke="#000000" points="195,-217.7 195,-240.7 371,-240.7 371,-217.7 195,-217.7"/>
<text text-anchor="start" x="200" y="-226.3" font-family="Helvetica,sans-Serif" font-weight="bold" font-size="11.00" fill="#000000">mo_aspect</text>
<text text-anchor="start" x="336.0437" y="-225.8" font-family="Helvetica,sans-Serif" font-size="11.00" fill="#000000">[table]</text>
<polygon fill="none" stroke="#000000" points="195,-195.7 195,-217.7 287,-217.7 287,-195.7 195,-195.7"/>
<image xlink:href="../../images/primaryKeys.png" width="11px" height="12px" preserveAspectRatio="xMinYMin meet" x="200" y="-212.7"/>
<text text-anchor="start" x="215" y="-202.8" font-family="Helvetica,sans-Serif" font-size="11.00" fill="#000000">mo_id</text>
<polygon fill="none" stroke="#000000" points="287,-195.7 287,-217.7 371,-217.7 371,-195.7 287,-195.7"/>
<text text-anchor="start" x="290" y="-203.4" font-family="Helvetica,sans-Serif" font-size="11.00" fill="#000000">int4[10]</text>
<polygon fill="none" stroke="#000000" points="195,-173.7 195,-195.7 287,-195.7 287,-173.7 195,-173.7"/>
<image xlink:href="../../images/primaryKeys.png" width="11px" height="12px" preserveAspectRatio="xMinYMin meet" x="200" y="-190.7"/>
<text text-anchor="start" x="215" y="-180.8" font-family="Helvetica,sans-Serif" font-size="11.00" fill="#000000">aspect_id</text>
<polygon fill="none" stroke="#000000" points="287,-173.7 287,-195.7 371,-195.7 371,-173.7 287,-173.7"/>
<text text-anchor="start" x="290" y="-181.4" font-family="Helvetica,sans-Serif" font-size="11.00" fill="#000000">int4[10]</text>
<polygon fill="none" stroke="#000000" points="195,-151.7 195,-173.7 287,-173.7 287,-151.7 195,-151.7"/>
<text text-anchor="start" x="215" y="-158.8" font-family="Helvetica,sans-Serif" font-size="11.00" fill="#000000">start_time</text>
<polygon fill="none" stroke="#000000" points="287,-151.7 287,-173.7 371,-173.7 371,-151.7 287,-151.7"/>
<text text-anchor="start" x="289.8807" y="-159.4" font-family="Helvetica,sans-Serif" font-size="11.00" fill="#000000">timestamp[29,6]</text>
<polygon fill="none" stroke="#000000" points="195,-129.7 195,-151.7 287,-151.7 287,-129.7 195,-129.7"/>
<text text-anchor="start" x="215" y="-136.8" font-family="Helvetica,sans-Serif" font-size="11.00" fill="#000000">end_time</text>
<polygon fill="none" stroke="#000000" points="287,-129.7 287,-151.7 371,-151.7 371,-129.7 287,-129.7"/>
<text text-anchor="start" x="289.8807" y="-137.4" font-family="Helvetica,sans-Serif" font-size="11.00" fill="#000000">timestamp[29,6]</text>
<polygon fill="#ffffff" stroke="transparent" points="195,-110.7 195,-129.7 222,-129.7 222,-110.7 195,-110.7"/>
<polygon fill="none" stroke="#000000" points="195,-110.7 195,-129.7 222,-129.7 222,-110.7 195,-110.7"/>
<text text-anchor="start" x="198" y="-116.8" font-family="Helvetica,sans-Serif" font-size="11.00" fill="#000000">&lt; 2</text>
<polygon fill="#ffffff" stroke="transparent" points="222,-110.7 222,-129.7 287,-129.7 287,-110.7 222,-110.7"/>
<polygon fill="none" stroke="#000000" points="222,-110.7 222,-129.7 287,-129.7 287,-110.7 222,-110.7"/>
<text text-anchor="start" x="230.2089" y="-116.8" font-family="Helvetica,sans-Serif" font-size="11.00" fill="#000000">2.000 rows</text>
<polygon fill="#ffffff" stroke="transparent" points="287,-110.7 287,-129.7 371,-129.7 371,-110.7 287,-110.7"/>
<polygon fill="none" stroke="#000000" points="287,-110.7 287,-129.7 371,-129.7 371,-110.7 287,-110.7"/>
<text text-anchor="start" x="352.4053" y="-116.8" font-family="Helvetica,sans-Serif" font-size="11.00" fill="#000000">0 &gt;</text>
<polygon fill="none" stroke="#000000" stroke-width="2" points="194,-109.7 194,-241.7 372,-241.7 372,-109.7 194,-109.7"/>
</a>
</g>
</g>
<!-- aspect -->
<g id="node2" class="node">
<title>aspect</title>
<g id="a_node2"><a xlink:href="../../tables/aspect.html" xlink:title="aspect" target="_top">
<polygon fill="#ffffff" stroke="transparent" points="16,-38.2 16,-165.2 136,-165.2 136,-38.2 16,-38.2"/>
<polygon fill="#f5f5f5" stroke="transparent" points="16,-141.7 16,-164.7 136,-164.7 136,-141.7 16,-141.7"/>
<polygon fill="none" stroke="#000000" points="16,-141.7 16,-164.7 136,-164.7 136,-141.7 16,-141.7"/>
<text text-anchor="start" x="21" y="-150.3" font-family="Helvetica,sans-Serif" font-weight="bold" font-size="11.00" fill="#000000">aspect</text>
<text text-anchor="start" x="101.0437" y="-149.8" font-family="Helvetica,sans-Serif" font-size="11.00" fill="#000000">[table]</text>
<polygon fill="none" stroke="#000000" points="16,-119.7 16,-141.7 136,-141.7 136,-119.7 16,-119.7"/>
<image xlink:href="../../images/primaryKeys.png" width="11px" height="12px" preserveAspectRatio="xMinYMin meet" x="21" y="-136.7"/>
<text text-anchor="start" x="36" y="-126.8" font-family="Helvetica,sans-Serif" font-size="11.00" fill="#000000">aspect_id</text>
<polygon fill="#ffffff" stroke="transparent" points="16,-97.7 16,-119.7 136,-119.7 136,-97.7 16,-97.7"/>
<polygon fill="none" stroke="#000000" points="16,-97.7 16,-119.7 136,-119.7 136,-97.7 16,-97.7"/>
<text text-anchor="start" x="36" y="-104.8" font-family="Helvetica,sans-Serif" font-size="11.00" fill="#000000">description</text>
<polygon fill="#ffffff" stroke="transparent" points="16,-75.7 16,-97.7 136,-97.7 136,-75.7 16,-75.7"/>
<polygon fill="none" stroke="#000000" points="16,-75.7 16,-97.7 136,-97.7 136,-75.7 16,-75.7"/>
<image xlink:href="../../images/foreignKeys.png" width="11px" height="12px" preserveAspectRatio="xMinYMin meet" x="21" y="-92.7"/>
<text text-anchor="start" x="36" y="-82.8" font-family="Helvetica,sans-Serif" font-size="11.00" fill="#000000">aspect_type_id</text>
<polygon fill="none" stroke="#000000" points="16,-56.7 16,-75.7 136,-75.7 136,-56.7 16,-56.7"/>
<text text-anchor="start" x="19" y="-62.8" font-family="Helvetica,sans-Serif" font-size="11.00" fill="#000000">...</text>
<polygon fill="#ffffff" stroke="transparent" points="16,-37.7 16,-56.7 46,-56.7 46,-37.7 16,-37.7"/>
<polygon fill="none" stroke="#000000" points="16,-37.7 16,-56.7 46,-56.7 46,-37.7 16,-37.7"/>
<text text-anchor="start" x="19" y="-43.8" font-family="Helvetica,sans-Serif" font-size="11.00" fill="#000000">&lt; 1</text>
<polygon fill="#ffffff" stroke="transparent" points="46,-37.7 46,-56.7 110,-56.7 110,-37.7 46,-37.7"/>
<polygon fill="none" stroke="#000000" points="46,-37.7 46,-56.7 110,-56.7 110,-37.7 46,-37.7"/>
<text text-anchor="start" x="53.2089" y="-43.8" font-family="Helvetica,sans-Serif" font-size="11.00" fill="#000000">2.300 rows</text>
<polygon fill="#ffffff" stroke="transparent" points="110,-37.7 110,-56.7 136,-56.7 136,-37.7 110,-37.7"/>
<polygon fill="none" stroke="#000000" points="110,-37.7 110,-56.7 136,-56.7 136,-37.7 110,-37.7"/>
<text text-anchor="start" x="117.4053" y="-43.8" font-family="Helvetica,sans-Serif" font-size="11.00" fill="#000000">6 &gt;</text>
</a>
</g>
</g>
<!-- mo_aspect&#45;&gt;aspect -->
<g id="edge1" class="edge">
<title>mo_aspect:w&#45;&gt;aspect:e</title>
<path fill="none" stroke="#000000" d="M180.9304,-180.8165C162.1389,-168.4347 165.7153,-130.7 136,-130.7"/>
<polygon fill="#000000" stroke="#000000" points="187.2884,-182.5714 194.0421,-188.1702 191.1442,-183.6357 195,-184.7 195,-184.7 195,-184.7 191.1442,-183.6357 195.9579,-181.2298 187.2884,-182.5714 187.2884,-182.5714"/>
<ellipse fill="none" stroke="#000000" cx="184.2037" cy="-181.7199" rx="3.2" ry="3.2"/>
</g>
<!-- moving_object -->
<g id="node3" class="node">
<title>moving_object</title>
<g id="a_node3"><a xlink:href="../../tables/moving_object.html" xlink:title="moving_object" target="_top">
<polygon fill="#ffffff" stroke="transparent" points="8,-186.7 8,-294.7 144,-294.7 144,-186.7 8,-186.7"/>
<polygon fill="#f5f5f5" stroke="transparent" points="8,-271.7 8,-294.7 144,-294.7 144,-271.7 8,-271.7"/>
<polygon fill="none" stroke="#000000" points="8,-271.7 8,-294.7 144,-294.7 144,-271.7 8,-271.7"/>
<text text-anchor="start" x="13" y="-280.3" font-family="Helvetica,sans-Serif" font-weight="bold" font-size="11.00" fill="#000000">moving_object</text>
<text text-anchor="start" x="109.5219" y="-279.8" font-family="Helvetica,sans-Serif" font-size="11.00" fill="#000000">[table]</text>
<polygon fill="none" stroke="#000000" points="8,-249.7 8,-271.7 144,-271.7 144,-249.7 8,-249.7"/>
<image xlink:href="../../images/primaryKeys.png" width="11px" height="12px" preserveAspectRatio="xMinYMin meet" x="13" y="-266.7"/>
<text text-anchor="start" x="37" y="-256.8" font-family="Helvetica,sans-Serif" font-size="11.00" fill="#000000">mo_id</text>
<polygon fill="#ffffff" stroke="transparent" points="8,-227.7 8,-249.7 144,-249.7 144,-227.7 8,-227.7"/>
<polygon fill="none" stroke="#000000" points="8,-227.7 8,-249.7 144,-249.7 144,-227.7 8,-227.7"/>
<text text-anchor="start" x="37" y="-234.8" font-family="Helvetica,sans-Serif" font-size="11.00" fill="#000000">description</text>
<polygon fill="#ffffff" stroke="transparent" points="8,-205.7 8,-227.7 144,-227.7 144,-205.7 8,-205.7"/>
<polygon fill="none" stroke="#000000" points="8,-205.7 8,-227.7 144,-227.7 144,-205.7 8,-205.7"/>
<image xlink:href="../../images/foreignKeys.png" width="11px" height="12px" preserveAspectRatio="xMinYMin meet" x="13" y="-222.7"/>
<text text-anchor="start" x="37" y="-212.8" font-family="Helvetica,sans-Serif" font-size="11.00" fill="#000000">mo_type_id</text>
<polygon fill="#ffffff" stroke="transparent" points="8,-186.7 8,-205.7 46,-205.7 46,-186.7 8,-186.7"/>
<polygon fill="none" stroke="#000000" points="8,-186.7 8,-205.7 46,-205.7 46,-186.7 8,-186.7"/>
<text text-anchor="start" x="11" y="-192.8" font-family="Helvetica,sans-Serif" font-size="11.00" fill="#000000">&lt; 1</text>
<polygon fill="#ffffff" stroke="transparent" points="46,-186.7 46,-205.7 114,-205.7 114,-186.7 46,-186.7"/>
<polygon fill="none" stroke="#000000" points="46,-186.7 46,-205.7 114,-205.7 114,-186.7 46,-186.7"/>
<text text-anchor="start" x="57.2089" y="-192.8" font-family="Helvetica,sans-Serif" font-size="11.00" fill="#000000">2.000 rows</text>
<polygon fill="#ffffff" stroke="transparent" points="114,-186.7 114,-205.7 144,-205.7 144,-186.7 114,-186.7"/>
<polygon fill="none" stroke="#000000" points="114,-186.7 114,-205.7 144,-205.7 144,-186.7 114,-186.7"/>
<text text-anchor="start" x="125.4053" y="-192.8" font-family="Helvetica,sans-Serif" font-size="11.00" fill="#000000">5 &gt;</text>
</a>
</g>
</g>
<!-- mo_aspect&#45;&gt;moving_object -->
<g id="edge2" class="edge">
<title>mo_aspect:w&#45;&gt;moving_object:e</title>
<path fill="none" stroke="#000000" d="M181.3001,-211.304C165.8364,-224.3627 171.08,-260.7 144,-260.7"/>
<polygon fill="#000000" stroke="#000000" points="187.4168,-209.2485 196.1468,-210.1125 191.2084,-207.9742 195,-206.7 195,-206.7 195,-206.7 191.2084,-207.9742 193.8532,-203.2875 187.4168,-209.2485 187.4168,-209.2485"/>
<ellipse fill="none" stroke="#000000" cx="184.3835" cy="-210.2678" rx="3.2" ry="3.2"/>
</g>
</g>
</svg>
