<?xml version="1.0" encoding="UTF-8" standalone="no"?>
<!DOCTYPE svg PUBLIC "-//W3C//DTD SVG 1.1//EN"
 "http://www.w3.org/Graphics/SVG/1.1/DTD/svg11.dtd">
<!-- Generated by graphviz version 2.40.1 (20161225.0304)
 -->
<!-- Title: twoDegreesRelationshipsDiagram Pages: 1 -->
<svg width="670pt" height="611pt"
 viewBox="0.00 0.00 670.00 611.20" xmlns="http://www.w3.org/2000/svg" xmlns:xlink="http://www.w3.org/1999/xlink">
<g id="graph0" class="graph" transform="scale(1 1) rotate(0) translate(4 607.2)">
<title>twoDegreesRelationshipsDiagram</title>
<polygon fill="#ffffff" stroke="transparent" points="-4,4 -4,-607.2 666,-607.2 666,4 -4,4"/>
<text text-anchor="middle" x="72.4936" y="-7.3" font-family="Helvetica,sans-Serif" font-size="11.00" fill="#000000">Generated by SchemaSpy</text>
<!-- dependency_rule_dataset -->
<g id="node1" class="node">
<title>dependency_rule_dataset</title>
<g id="a_node1"><a xlink:href="../../tables/dependency_rule_dataset.html" xlink:title="dependency_rule_dataset" target="_top">
<polygon fill="#ffffff" stroke="transparent" points="210,-538.2 210,-599.2 421,-599.2 421,-538.2 210,-538.2"/>
<polygon fill="#f5f5f5" stroke="transparent" points="210.5,-575.7 210.5,-598.7 421.5,-598.7 421.5,-575.7 210.5,-575.7"/>
<polygon fill="none" stroke="#000000" points="210.5,-575.7 210.5,-598.7 421.5,-598.7 421.5,-575.7 210.5,-575.7"/>
<text text-anchor="start" x="215.5" y="-584.3" font-family="Helvetica,sans-Serif" font-weight="bold" font-size="11.00" fill="#000000">dependency_rule_dataset</text>
<text text-anchor="start" x="387.0219" y="-583.8" font-family="Helvetica,sans-Serif" font-size="11.00" fill="#000000">[table]</text>
<polygon fill="none" stroke="#000000" points="210.5,-556.7 210.5,-575.7 421.5,-575.7 421.5,-556.7 210.5,-556.7"/>
<text text-anchor="start" x="213.5" y="-562.8" font-family="Helvetica,sans-Serif" font-size="11.00" fill="#000000">...</text>
<polygon fill="#ffffff" stroke="transparent" points="210.5,-537.7 210.5,-556.7 301.5,-556.7 301.5,-537.7 210.5,-537.7"/>
<polygon fill="none" stroke="#000000" points="210.5,-537.7 210.5,-556.7 301.5,-556.7 301.5,-537.7 210.5,-537.7"/>
<text text-anchor="start" x="213.5" y="-543.8" font-family="Helvetica,sans-Serif" font-size="11.00" fill="#000000">&lt; 2</text>
<polygon fill="#ffffff" stroke="transparent" points="301.5,-537.7 301.5,-556.7 374.5,-556.7 374.5,-537.7 301.5,-537.7"/>
<polygon fill="none" stroke="#000000" points="301.5,-537.7 301.5,-556.7 374.5,-556.7 374.5,-537.7 301.5,-537.7"/>
<text text-anchor="start" x="339.1105" y="-543.8" font-family="Helvetica,sans-Serif" font-size="11.00" fill="#000000">0 rows</text>
<polygon fill="#ffffff" stroke="transparent" points="374.5,-537.7 374.5,-556.7 421.5,-556.7 421.5,-537.7 374.5,-537.7"/>
<polygon fill="none" stroke="#000000" points="374.5,-537.7 374.5,-556.7 421.5,-556.7 421.5,-537.7 374.5,-537.7"/>
<text text-anchor="start" x="412.3862" y="-543.8" font-family="Helvetica,sans-Serif" font-size="11.00" fill="#000000"> &#160;</text>
</a>
</g>
</g>
<!-- dependency_rule -->
<g id="node2" class="node">
<title>dependency_rule</title>
<g id="a_node2"><a xlink:href="../../tables/dependency_rule.html" xlink:title="dependency_rule" target="_top">
<polygon fill="#ffffff" stroke="transparent" points="8,-181.2 8,-264.2 161,-264.2 161,-181.2 8,-181.2"/>
<polygon fill="#f5f5f5" stroke="transparent" points="8.5,-240.7 8.5,-263.7 161.5,-263.7 161.5,-240.7 8.5,-240.7"/>
<polygon fill="none" stroke="#000000" points="8.5,-240.7 8.5,-263.7 161.5,-263.7 161.5,-240.7 8.5,-240.7"/>
<text text-anchor="start" x="13.5" y="-249.3" font-family="Helvetica,sans-Serif" font-weight="bold" font-size="11.00" fill="#000000">dependency_rule</text>
<text text-anchor="start" x="127.0219" y="-248.8" font-family="Helvetica,sans-Serif" font-size="11.00" fill="#000000">[table]</text>
<polygon fill="none" stroke="#000000" points="8.5,-218.7 8.5,-240.7 161.5,-240.7 161.5,-218.7 8.5,-218.7"/>
<image xlink:href="../../images/primaryKeys.png" width="11px" height="12px" preserveAspectRatio="xMinYMin meet" x="13.5" y="-235.7"/>
<text text-anchor="start" x="37.5" y="-225.8" font-family="Helvetica,sans-Serif" font-size="11.00" fill="#000000">rule_id</text>
<polygon fill="none" stroke="#000000" points="8.5,-199.7 8.5,-218.7 161.5,-218.7 161.5,-199.7 8.5,-199.7"/>
<text text-anchor="start" x="11.5" y="-205.8" font-family="Helvetica,sans-Serif" font-size="11.00" fill="#000000">...</text>
<polygon fill="#ffffff" stroke="transparent" points="8.5,-180.7 8.5,-199.7 61.5,-199.7 61.5,-180.7 8.5,-180.7"/>
<polygon fill="none" stroke="#000000" points="8.5,-180.7 8.5,-199.7 61.5,-199.7 61.5,-180.7 8.5,-180.7"/>
<text text-anchor="start" x="11.5" y="-186.8" font-family="Helvetica,sans-Serif" font-size="11.00" fill="#000000"> &#160;</text>
<polygon fill="#ffffff" stroke="transparent" points="61.5,-180.7 61.5,-199.7 119.5,-199.7 119.5,-180.7 61.5,-180.7"/>
<polygon fill="none" stroke="#000000" points="61.5,-180.7 61.5,-199.7 119.5,-199.7 119.5,-180.7 61.5,-180.7"/>
<text text-anchor="start" x="84.1105" y="-186.8" font-family="Helvetica,sans-Serif" font-size="11.00" fill="#000000">0 rows</text>
<polygon fill="#ffffff" stroke="transparent" points="119.5,-180.7 119.5,-199.7 161.5,-199.7 161.5,-180.7 119.5,-180.7"/>
<polygon fill="none" stroke="#000000" points="119.5,-180.7 119.5,-199.7 161.5,-199.7 161.5,-180.7 119.5,-180.7"/>
<text text-anchor="start" x="142.9053" y="-186.8" font-family="Helvetica,sans-Serif" font-size="11.00" fill="#000000">7 &gt;</text>
</a>
</g>
</g>
<!-- dependency_rule_dataset&#45;&gt;dependency_rule -->
<g id="edge1" class="edge">
<title>dependency_rule_dataset:w&#45;&gt;dependency_rule:e</title>
<path fill="none" stroke="#000000" d="M196.7862,-560.6895C148.8469,-518.8922 231.5036,-229.7 161.5,-229.7"/>
<polygon fill="#000000" stroke="#000000" points="202.9858,-562.9546 209.2646,-569.0814 206.7429,-564.3273 210.5,-565.7 210.5,-565.7 210.5,-565.7 206.7429,-564.3273 211.7354,-562.3186 202.9858,-562.9546 202.9858,-562.9546"/>
<ellipse fill="none" stroke="#000000" cx="199.9802" cy="-561.8564" rx="3.2" ry="3.2"/>
</g>
<!-- mat_dr -->
<g id="node3" class="node">
<title>mat_dr</title>
<g id="a_node3"><a xlink:href="../../tables/mat_dr.html" xlink:title="mat_dr" target="_top">
<polygon fill="#ffffff" stroke="transparent" points="273,-456.2 273,-517.2 358,-517.2 358,-456.2 273,-456.2"/>
<polygon fill="#f5f5f5" stroke="transparent" points="273.5,-493.7 273.5,-516.7 358.5,-516.7 358.5,-493.7 273.5,-493.7"/>
<polygon fill="none" stroke="#000000" points="273.5,-493.7 273.5,-516.7 358.5,-516.7 358.5,-493.7 273.5,-493.7"/>
<text text-anchor="start" x="278.5" y="-502.3" font-family="Helvetica,sans-Serif" font-weight="bold" font-size="11.00" fill="#000000">mat_dr</text>
<text text-anchor="start" x="324.0219" y="-501.8" font-family="Helvetica,sans-Serif" font-size="11.00" fill="#000000">[table]</text>
<polygon fill="none" stroke="#000000" points="273.5,-474.7 273.5,-493.7 358.5,-493.7 358.5,-474.7 273.5,-474.7"/>
<text text-anchor="start" x="276.5" y="-480.8" font-family="Helvetica,sans-Serif" font-size="11.00" fill="#000000">...</text>
<polygon fill="#ffffff" stroke="transparent" points="273.5,-455.7 273.5,-474.7 296.5,-474.7 296.5,-455.7 273.5,-455.7"/>
<polygon fill="none" stroke="#000000" points="273.5,-455.7 273.5,-474.7 296.5,-474.7 296.5,-455.7 273.5,-455.7"/>
<text text-anchor="start" x="276.5" y="-461.8" font-family="Helvetica,sans-Serif" font-size="11.00" fill="#000000">&lt; 1</text>
<polygon fill="#ffffff" stroke="transparent" points="296.5,-455.7 296.5,-474.7 335.5,-474.7 335.5,-455.7 296.5,-455.7"/>
<polygon fill="none" stroke="#000000" points="296.5,-455.7 296.5,-474.7 335.5,-474.7 335.5,-455.7 296.5,-455.7"/>
<text text-anchor="start" x="300.1105" y="-461.8" font-family="Helvetica,sans-Serif" font-size="11.00" fill="#000000">0 rows</text>
<polygon fill="#ffffff" stroke="transparent" points="335.5,-455.7 335.5,-474.7 358.5,-474.7 358.5,-455.7 335.5,-455.7"/>
<polygon fill="none" stroke="#000000" points="335.5,-455.7 335.5,-474.7 358.5,-474.7 358.5,-455.7 335.5,-455.7"/>
<text text-anchor="start" x="339.9053" y="-461.8" font-family="Helvetica,sans-Serif" font-size="11.00" fill="#000000">1 &gt;</text>
</a>
</g>
</g>
<!-- mat_dr&#45;&gt;dependency_rule -->
<g id="edge2" class="edge">
<title>mat_dr:w&#45;&gt;dependency_rule:e</title>
<path fill="none" stroke="#000000" d="M262.8066,-483.3867C234.4385,-481.5786 221.0647,-471.639 202,-445.7 173.0777,-406.349 210.3365,-229.7 161.5,-229.7"/>
<polygon fill="#000000" stroke="#000000" points="272.8175,-479.6783 272.5832,-487.6748 270.9838,-487.628 271.2182,-479.6314 272.8175,-479.6783"/>
<polyline fill="none" stroke="#000000" points="273.5,-483.7 269.5017,-483.5828 "/>
<ellipse fill="none" stroke="#000000" cx="266.3031" cy="-483.4891" rx="3.2" ry="3.2"/>
</g>
<!-- mo_dr -->
<g id="node4" class="node">
<title>mo_dr</title>
<g id="a_node4"><a xlink:href="../../tables/mo_dr.html" xlink:title="mo_dr" target="_top">
<polygon fill="#ffffff" stroke="transparent" points="259.5,-284.7 259.5,-352.7 371.5,-352.7 371.5,-284.7 259.5,-284.7"/>
<polygon fill="#f5f5f5" stroke="transparent" points="261.5,-327.7 261.5,-350.7 369.5,-350.7 369.5,-327.7 261.5,-327.7"/>
<polygon fill="none" stroke="#000000" points="261.5,-327.7 261.5,-350.7 369.5,-350.7 369.5,-327.7 261.5,-327.7"/>
<text text-anchor="start" x="266.5" y="-336.3" font-family="Helvetica,sans-Serif" font-weight="bold" font-size="11.00" fill="#000000">mo_dr</text>
<text text-anchor="start" x="334.5437" y="-335.8" font-family="Helvetica,sans-Serif" font-size="11.00" fill="#000000">[table]</text>
<polygon fill="none" stroke="#000000" points="261.5,-305.7 261.5,-327.7 327.5,-327.7 327.5,-305.7 261.5,-305.7"/>
<image xlink:href="../../images/primaryKeys.png" width="11px" height="12px" preserveAspectRatio="xMinYMin meet" x="266.5" y="-322.7"/>
<text text-anchor="start" x="281.5" y="-312.8" font-family="Helvetica,sans-Serif" font-size="11.00" fill="#000000">rule_id</text>
<polygon fill="none" stroke="#000000" points="327.5,-305.7 327.5,-327.7 369.5,-327.7 369.5,-305.7 327.5,-305.7"/>
<text text-anchor="start" x="330.4644" y="-313.4" font-family="Helvetica,sans-Serif" font-size="11.00" fill="#000000">int4[10]</text>
<polygon fill="#ffffff" stroke="transparent" points="261.5,-286.7 261.5,-305.7 285.5,-305.7 285.5,-286.7 261.5,-286.7"/>
<polygon fill="none" stroke="#000000" points="261.5,-286.7 261.5,-305.7 285.5,-305.7 285.5,-286.7 261.5,-286.7"/>
<text text-anchor="start" x="264.5" y="-292.8" font-family="Helvetica,sans-Serif" font-size="11.00" fill="#000000">&lt; 1</text>
<polygon fill="#ffffff" stroke="transparent" points="285.5,-286.7 285.5,-305.7 327.5,-305.7 327.5,-286.7 285.5,-286.7"/>
<polygon fill="none" stroke="#000000" points="285.5,-286.7 285.5,-305.7 327.5,-305.7 327.5,-286.7 285.5,-286.7"/>
<text text-anchor="start" x="292.1105" y="-292.8" font-family="Helvetica,sans-Serif" font-size="11.00" fill="#000000">0 rows</text>
<polygon fill="#ffffff" stroke="transparent" points="327.5,-286.7 327.5,-305.7 369.5,-305.7 369.5,-286.7 327.5,-286.7"/>
<polygon fill="none" stroke="#000000" points="327.5,-286.7 327.5,-305.7 369.5,-305.7 369.5,-286.7 327.5,-286.7"/>
<text text-anchor="start" x="350.9053" y="-292.8" font-family="Helvetica,sans-Serif" font-size="11.00" fill="#000000">1 &gt;</text>
<polygon fill="none" stroke="#000000" stroke-width="2" points="260.5,-285.7 260.5,-351.7 370.5,-351.7 370.5,-285.7 260.5,-285.7"/>
</a>
</g>
</g>
<!-- mo_dr&#45;&gt;dependency_rule -->
<g id="edge3" class="edge">
<title>mo_dr:w&#45;&gt;dependency_rule:e</title>
<path fill="none" stroke="#000000" d="M250.8809,-315.7989C227.9509,-311.5287 223.4396,-292.7441 202,-273.7 182.1288,-256.0491 188.0786,-229.7 161.5,-229.7"/>
<polygon fill="#000000" stroke="#000000" points="261.0411,-312.6467 260.3646,-320.618 258.7703,-320.4827 259.4469,-312.5114 261.0411,-312.6467"/>
<polyline fill="none" stroke="#000000" points="261.5,-316.7 257.5143,-316.3617 "/>
<ellipse fill="none" stroke="#000000" cx="254.3258" cy="-316.0911" rx="3.2" ry="3.2"/>
</g>
<!-- mor_dr -->
<g id="node5" class="node">
<title>mor_dr</title>
<g id="a_node5"><a xlink:href="../../tables/mor_dr.html" xlink:title="mor_dr" target="_top">
<polygon fill="#ffffff" stroke="transparent" points="272.5,-202.2 272.5,-263.2 358.5,-263.2 358.5,-202.2 272.5,-202.2"/>
<polygon fill="#f5f5f5" stroke="transparent" points="272.5,-239.7 272.5,-262.7 358.5,-262.7 358.5,-239.7 272.5,-239.7"/>
<polygon fill="none" stroke="#000000" points="272.5,-239.7 272.5,-262.7 358.5,-262.7 358.5,-239.7 272.5,-239.7"/>
<text text-anchor="start" x="277.5" y="-248.3" font-family="Helvetica,sans-Serif" font-weight="bold" font-size="11.00" fill="#000000">mor_dr</text>
<text text-anchor="start" x="324.0219" y="-247.8" font-family="Helvetica,sans-Serif" font-size="11.00" fill="#000000">[table]</text>
<polygon fill="none" stroke="#000000" points="272.5,-220.7 272.5,-239.7 358.5,-239.7 358.5,-220.7 272.5,-220.7"/>
<text text-anchor="start" x="275.5" y="-226.8" font-family="Helvetica,sans-Serif" font-size="11.00" fill="#000000">...</text>
<polygon fill="#ffffff" stroke="transparent" points="272.5,-201.7 272.5,-220.7 296.5,-220.7 296.5,-201.7 272.5,-201.7"/>
<polygon fill="none" stroke="#000000" points="272.5,-201.7 272.5,-220.7 296.5,-220.7 296.5,-201.7 272.5,-201.7"/>
<text text-anchor="start" x="275.5" y="-207.8" font-family="Helvetica,sans-Serif" font-size="11.00" fill="#000000">&lt; 1</text>
<polygon fill="#ffffff" stroke="transparent" points="296.5,-201.7 296.5,-220.7 335.5,-220.7 335.5,-201.7 296.5,-201.7"/>
<polygon fill="none" stroke="#000000" points="296.5,-201.7 296.5,-220.7 335.5,-220.7 335.5,-201.7 296.5,-201.7"/>
<text text-anchor="start" x="300.1105" y="-207.8" font-family="Helvetica,sans-Serif" font-size="11.00" fill="#000000">0 rows</text>
<polygon fill="#ffffff" stroke="transparent" points="335.5,-201.7 335.5,-220.7 358.5,-220.7 358.5,-201.7 335.5,-201.7"/>
<polygon fill="none" stroke="#000000" points="335.5,-201.7 335.5,-220.7 358.5,-220.7 358.5,-201.7 335.5,-201.7"/>
<text text-anchor="start" x="339.9053" y="-207.8" font-family="Helvetica,sans-Serif" font-size="11.00" fill="#000000">1 &gt;</text>
</a>
</g>
</g>
<!-- mor_dr&#45;&gt;dependency_rule -->
<g id="edge4" class="edge">
<title>mor_dr:w&#45;&gt;dependency_rule:e</title>
<path fill="none" stroke="#000000" d="M262.0968,-229.7C221.1321,-229.7 207.1719,-229.7 161.5,-229.7"/>
<polygon fill="#000000" stroke="#000000" points="271.7,-225.7 271.7,-233.7 270.1,-233.7 270.1,-225.7 271.7,-225.7"/>
<polyline fill="none" stroke="#000000" points="272.5,-229.7 268.5,-229.7 "/>
<ellipse fill="none" stroke="#000000" cx="265.3" cy="-229.7001" rx="3.2" ry="3.2"/>
</g>
<!-- moving_object_mo_dr -->
<g id="node6" class="node">
<title>moving_object_mo_dr</title>
<g id="a_node6"><a xlink:href="../../tables/moving_object_mo_dr.html" xlink:title="moving_object_mo_dr" target="_top">
<polygon fill="#ffffff" stroke="transparent" points="470,-317.7 470,-403.7 654,-403.7 654,-317.7 470,-317.7"/>
<polygon fill="#f5f5f5" stroke="transparent" points="470,-380.7 470,-403.7 654,-403.7 654,-380.7 470,-380.7"/>
<polygon fill="none" stroke="#000000" points="470,-380.7 470,-403.7 654,-403.7 654,-380.7 470,-380.7"/>
<text text-anchor="start" x="475" y="-389.3" font-family="Helvetica,sans-Serif" font-weight="bold" font-size="11.00" fill="#000000">moving_object_mo_dr</text>
<text text-anchor="start" x="619.5219" y="-388.8" font-family="Helvetica,sans-Serif" font-size="11.00" fill="#000000">[table]</text>
<polygon fill="none" stroke="#000000" points="470,-358.7 470,-380.7 654,-380.7 654,-358.7 470,-358.7"/>
<image xlink:href="../../images/primaryKeys.png" width="11px" height="12px" preserveAspectRatio="xMinYMin meet" x="475" y="-375.7"/>
<text text-anchor="start" x="499" y="-365.8" font-family="Helvetica,sans-Serif" font-size="11.00" fill="#000000">mo_id</text>
<polygon fill="none" stroke="#000000" points="470,-336.7 470,-358.7 654,-358.7 654,-336.7 470,-336.7"/>
<image xlink:href="../../images/primaryKeys.png" width="11px" height="12px" preserveAspectRatio="xMinYMin meet" x="475" y="-353.7"/>
<text text-anchor="start" x="499" y="-343.8" font-family="Helvetica,sans-Serif" font-size="11.00" fill="#000000">rule_id</text>
<polygon fill="#ffffff" stroke="transparent" points="470,-317.7 470,-336.7 547,-336.7 547,-317.7 470,-317.7"/>
<polygon fill="none" stroke="#000000" points="470,-317.7 470,-336.7 547,-336.7 547,-317.7 470,-317.7"/>
<text text-anchor="start" x="473" y="-323.8" font-family="Helvetica,sans-Serif" font-size="11.00" fill="#000000">&lt; 2</text>
<polygon fill="#ffffff" stroke="transparent" points="547,-317.7 547,-336.7 613,-336.7 613,-317.7 547,-317.7"/>
<polygon fill="none" stroke="#000000" points="547,-317.7 547,-336.7 613,-336.7 613,-317.7 547,-317.7"/>
<text text-anchor="start" x="577.6105" y="-323.8" font-family="Helvetica,sans-Serif" font-size="11.00" fill="#000000">0 rows</text>
<polygon fill="#ffffff" stroke="transparent" points="613,-317.7 613,-336.7 654,-336.7 654,-317.7 613,-317.7"/>
<polygon fill="none" stroke="#000000" points="613,-317.7 613,-336.7 654,-336.7 654,-317.7 613,-317.7"/>
<text text-anchor="start" x="644.8862" y="-323.8" font-family="Helvetica,sans-Serif" font-size="11.00" fill="#000000"> &#160;</text>
</a>
</g>
</g>
<!-- moving_object_mo_dr&#45;&gt;mo_dr -->
<g id="edge6" class="edge">
<title>moving_object_mo_dr:w&#45;&gt;mo_dr:e</title>
<path fill="none" stroke="#000000" d="M455.5286,-346.5967C421.1579,-341.0744 410.9482,-316.7 369.5,-316.7"/>
<polygon fill="#000000" stroke="#000000" points="462.0231,-347.0918 469.7263,-351.2896 466.0116,-347.3959 470,-347.7 470,-347.7 470,-347.7 466.0116,-347.3959 470.2737,-344.1104 462.0231,-347.0918 462.0231,-347.0918"/>
<ellipse fill="none" stroke="#000000" cx="458.8324" cy="-346.8485" rx="3.2" ry="3.2"/>
</g>
<!-- moving_object -->
<g id="node7" class="node">
<title>moving_object</title>
<g id="a_node7"><a xlink:href="../../tables/moving_object.html" xlink:title="moving_object" target="_top">
<polygon fill="#ffffff" stroke="transparent" points="247.5,-374.2 247.5,-435.2 383.5,-435.2 383.5,-374.2 247.5,-374.2"/>
<polygon fill="#f5f5f5" stroke="transparent" points="247.5,-411.7 247.5,-434.7 383.5,-434.7 383.5,-411.7 247.5,-411.7"/>
<polygon fill="none" stroke="#000000" points="247.5,-411.7 247.5,-434.7 383.5,-434.7 383.5,-411.7 247.5,-411.7"/>
<text text-anchor="start" x="252.5" y="-420.3" font-family="Helvetica,sans-Serif" font-weight="bold" font-size="11.00" fill="#000000">moving_object</text>
<text text-anchor="start" x="349.0219" y="-419.8" font-family="Helvetica,sans-Serif" font-size="11.00" fill="#000000">[table]</text>
<polygon fill="none" stroke="#000000" points="247.5,-392.7 247.5,-411.7 383.5,-411.7 383.5,-392.7 247.5,-392.7"/>
<text text-anchor="start" x="250.5" y="-398.8" font-family="Helvetica,sans-Serif" font-size="11.00" fill="#000000">...</text>
<polygon fill="#ffffff" stroke="transparent" points="247.5,-373.7 247.5,-392.7 285.5,-392.7 285.5,-373.7 247.5,-373.7"/>
<polygon fill="none" stroke="#000000" points="247.5,-373.7 247.5,-392.7 285.5,-392.7 285.5,-373.7 247.5,-373.7"/>
<text text-anchor="start" x="250.5" y="-379.8" font-family="Helvetica,sans-Serif" font-size="11.00" fill="#000000">&lt; 1</text>
<polygon fill="#ffffff" stroke="transparent" points="285.5,-373.7 285.5,-392.7 353.5,-392.7 353.5,-373.7 285.5,-373.7"/>
<polygon fill="none" stroke="#000000" points="285.5,-373.7 285.5,-392.7 353.5,-392.7 353.5,-373.7 285.5,-373.7"/>
<text text-anchor="start" x="296.7089" y="-379.8" font-family="Helvetica,sans-Serif" font-size="11.00" fill="#000000">2.000 rows</text>
<polygon fill="#ffffff" stroke="transparent" points="353.5,-373.7 353.5,-392.7 383.5,-392.7 383.5,-373.7 353.5,-373.7"/>
<polygon fill="none" stroke="#000000" points="353.5,-373.7 353.5,-392.7 383.5,-392.7 383.5,-373.7 353.5,-373.7"/>
<text text-anchor="start" x="364.9053" y="-379.8" font-family="Helvetica,sans-Serif" font-size="11.00" fill="#000000">5 &gt;</text>
</a>
</g>
</g>
<!-- moving_object_mo_dr&#45;&gt;moving_object -->
<g id="edge5" class="edge">
<title>moving_object_mo_dr:w&#45;&gt;moving_object:e</title>
<path fill="none" stroke="#000000" d="M455.4269,-371.2434C427.1656,-377.6355 419.0467,-401.7 383.5,-401.7"/>
<polygon fill="#000000" stroke="#000000" points="462.0445,-370.5426 470.3792,-373.28 466.0222,-370.1213 470,-369.7 470,-369.7 470,-369.7 466.0222,-370.1213 469.6208,-366.12 462.0445,-370.5426 462.0445,-370.5426"/>
<ellipse fill="none" stroke="#000000" cx="458.8623" cy="-370.8797" rx="3.2" ry="3.2"/>
</g>
<!-- point_dr -->
<g id="node8" class="node">
<title>point_dr</title>
<g id="a_node8"><a xlink:href="../../tables/point_dr.html" xlink:title="point_dr" target="_top">
<polygon fill="#ffffff" stroke="transparent" points="268.5,-120.2 268.5,-181.2 362.5,-181.2 362.5,-120.2 268.5,-120.2"/>
<polygon fill="#f5f5f5" stroke="transparent" points="268.5,-157.7 268.5,-180.7 362.5,-180.7 362.5,-157.7 268.5,-157.7"/>
<polygon fill="none" stroke="#000000" points="268.5,-157.7 268.5,-180.7 362.5,-180.7 362.5,-157.7 268.5,-157.7"/>
<text text-anchor="start" x="273.5" y="-166.3" font-family="Helvetica,sans-Serif" font-weight="bold" font-size="11.00" fill="#000000">point_dr</text>
<text text-anchor="start" x="328.0219" y="-165.8" font-family="Helvetica,sans-Serif" font-size="11.00" fill="#000000">[table]</text>
<polygon fill="none" stroke="#000000" points="268.5,-138.7 268.5,-157.7 362.5,-157.7 362.5,-138.7 268.5,-138.7"/>
<text text-anchor="start" x="271.5" y="-144.8" font-family="Helvetica,sans-Serif" font-size="11.00" fill="#000000">...</text>
<polygon fill="#ffffff" stroke="transparent" points="268.5,-119.7 268.5,-138.7 296.5,-138.7 296.5,-119.7 268.5,-119.7"/>
<polygon fill="none" stroke="#000000" points="268.5,-119.7 268.5,-138.7 296.5,-138.7 296.5,-119.7 268.5,-119.7"/>
<text text-anchor="start" x="271.5" y="-125.8" font-family="Helvetica,sans-Serif" font-size="11.00" fill="#000000">&lt; 1</text>
<polygon fill="#ffffff" stroke="transparent" points="296.5,-119.7 296.5,-138.7 337.5,-138.7 337.5,-119.7 296.5,-119.7"/>
<polygon fill="none" stroke="#000000" points="296.5,-119.7 296.5,-138.7 337.5,-138.7 337.5,-119.7 296.5,-119.7"/>
<text text-anchor="start" x="302.1105" y="-125.8" font-family="Helvetica,sans-Serif" font-size="11.00" fill="#000000">0 rows</text>
<polygon fill="#ffffff" stroke="transparent" points="337.5,-119.7 337.5,-138.7 362.5,-138.7 362.5,-119.7 337.5,-119.7"/>
<polygon fill="none" stroke="#000000" points="337.5,-119.7 337.5,-138.7 362.5,-138.7 362.5,-119.7 337.5,-119.7"/>
<text text-anchor="start" x="343.9053" y="-125.8" font-family="Helvetica,sans-Serif" font-size="11.00" fill="#000000">1 &gt;</text>
</a>
</g>
</g>
<!-- point_dr&#45;&gt;dependency_rule -->
<g id="edge7" class="edge">
<title>point_dr:w&#45;&gt;dependency_rule:e</title>
<path fill="none" stroke="#000000" d="M257.9521,-148.4614C232.0536,-152.5162 226.7587,-172.1234 202,-191.7 182.6385,-207.0091 186.1827,-229.7 161.5,-229.7"/>
<polygon fill="#000000" stroke="#000000" points="267.4141,-143.768 267.9901,-151.7472 266.3942,-151.8624 265.8182,-143.8832 267.4141,-143.768"/>
<polyline fill="none" stroke="#000000" points="268.5,-147.7 264.5104,-147.988 "/>
<ellipse fill="none" stroke="#000000" cx="261.3187" cy="-148.2184" rx="3.2" ry="3.2"/>
</g>
<!-- predicate -->
<g id="node9" class="node">
<title>predicate</title>
<g id="a_node9"><a xlink:href="../../tables/predicate.html" xlink:title="predicate" target="_top">
<polygon fill="#ffffff" stroke="transparent" points="264,-38.2 264,-99.2 367,-99.2 367,-38.2 264,-38.2"/>
<polygon fill="#f5f5f5" stroke="transparent" points="264.5,-75.7 264.5,-98.7 367.5,-98.7 367.5,-75.7 264.5,-75.7"/>
<polygon fill="none" stroke="#000000" points="264.5,-75.7 264.5,-98.7 367.5,-98.7 367.5,-75.7 264.5,-75.7"/>
<text text-anchor="start" x="269.5" y="-84.3" font-family="Helvetica,sans-Serif" font-weight="bold" font-size="11.00" fill="#000000">predicate</text>
<text text-anchor="start" x="333.0219" y="-83.8" font-family="Helvetica,sans-Serif" font-size="11.00" fill="#000000">[table]</text>
<polygon fill="none" stroke="#000000" points="264.5,-56.7 264.5,-75.7 367.5,-75.7 367.5,-56.7 264.5,-56.7"/>
<text text-anchor="start" x="267.5" y="-62.8" font-family="Helvetica,sans-Serif" font-size="11.00" fill="#000000">...</text>
<polygon fill="#ffffff" stroke="transparent" points="264.5,-37.7 264.5,-56.7 296.5,-56.7 296.5,-37.7 264.5,-37.7"/>
<polygon fill="none" stroke="#000000" points="264.5,-37.7 264.5,-56.7 296.5,-56.7 296.5,-37.7 264.5,-37.7"/>
<text text-anchor="start" x="267.5" y="-43.8" font-family="Helvetica,sans-Serif" font-size="11.00" fill="#000000">&lt; 2</text>
<polygon fill="#ffffff" stroke="transparent" points="296.5,-37.7 296.5,-56.7 340.5,-56.7 340.5,-37.7 296.5,-37.7"/>
<polygon fill="none" stroke="#000000" points="296.5,-37.7 296.5,-56.7 340.5,-56.7 340.5,-37.7 296.5,-37.7"/>
<text text-anchor="start" x="305.1105" y="-43.8" font-family="Helvetica,sans-Serif" font-size="11.00" fill="#000000">0 rows</text>
<polygon fill="#ffffff" stroke="transparent" points="340.5,-37.7 340.5,-56.7 367.5,-56.7 367.5,-37.7 340.5,-37.7"/>
<polygon fill="none" stroke="#000000" points="340.5,-37.7 340.5,-56.7 367.5,-56.7 367.5,-37.7 340.5,-37.7"/>
<text text-anchor="start" x="348.9053" y="-43.8" font-family="Helvetica,sans-Serif" font-size="11.00" fill="#000000">2 &gt;</text>
</a>
</g>
</g>
<!-- predicate&#45;&gt;dependency_rule -->
<g id="edge8" class="edge">
<title>predicate:w&#45;&gt;dependency_rule:e</title>
<path fill="none" stroke="#000000" d="M250.0052,-64.5195C227.5907,-65.343 219.0712,-80.8406 202,-103.7 168.3194,-148.8006 217.7889,-223.7 161.5,-229.7"/>
<polygon fill="#000000" stroke="#000000" points="256.5264,-65.0506 264.2078,-69.2881 260.5132,-65.3753 264.5,-65.7 264.5,-65.7 264.5,-65.7 260.5132,-65.3753 264.7922,-62.1119 256.5264,-65.0506 256.5264,-65.0506"/>
<ellipse fill="none" stroke="#000000" cx="253.337" cy="-64.7908" rx="3.2" ry="3.2"/>
</g>
<!-- predicate&#45;&gt;dependency_rule -->
<g id="edge9" class="edge">
<title>predicate:w&#45;&gt;dependency_rule:e</title>
<path fill="none" stroke="#000000" d="M250.3189,-69.7002C227.6698,-78.199 219.1506,-93.7343 202,-116.7 168.3194,-161.8006 217.7889,-236.7 161.5,-229.7"/>
<polygon fill="#000000" stroke="#000000" points="256.8005,-67.8719 265.4774,-69.1648 260.6502,-66.786 264.5,-65.7 264.5,-65.7 264.5,-65.7 260.6502,-66.786 263.5226,-62.2352 256.8005,-67.8719 256.8005,-67.8719"/>
<ellipse fill="none" stroke="#000000" cx="253.7206" cy="-68.7407" rx="3.2" ry="3.2"/>
</g>
</g>
</svg>
