<?xml version="1.0" encoding="UTF-8" standalone="no"?>
<!DOCTYPE svg PUBLIC "-//W3C//DTD SVG 1.1//EN"
 "http://www.w3.org/Graphics/SVG/1.1/DTD/svg11.dtd">
<!-- Generated by graphviz version 2.40.1 (20161225.0304)
 -->
<!-- Title: twoDegreesRelationshipsDiagram Pages: 1 -->
<svg width="650pt" height="263pt"
 viewBox="0.00 0.00 650.00 262.70" xmlns="http://www.w3.org/2000/svg" xmlns:xlink="http://www.w3.org/1999/xlink">
<g id="graph0" class="graph" transform="scale(1 1) rotate(0) translate(4 258.7)">
<title>twoDegreesRelationshipsDiagram</title>
<polygon fill="#ffffff" stroke="transparent" points="-4,4 -4,-258.7 646,-258.7 646,4 -4,4"/>
<text text-anchor="middle" x="72.4936" y="-7.3" font-family="Helvetica,sans-Serif" font-size="11.00" fill="#000000">Generated by SchemaSpy</text>
<!-- mo_relationship -->
<g id="node1" class="node">
<title>mo_relationship</title>
<g id="a_node1"><a xlink:href="../../tables/mo_relationship.html" xlink:title="mo_relationship" target="_top">
<polygon fill="#ffffff" stroke="transparent" points="210,-123.7 210,-250.7 357,-250.7 357,-123.7 210,-123.7"/>
<polygon fill="#f5f5f5" stroke="transparent" points="210.5,-227.2 210.5,-250.2 357.5,-250.2 357.5,-227.2 210.5,-227.2"/>
<polygon fill="none" stroke="#000000" points="210.5,-227.2 210.5,-250.2 357.5,-250.2 357.5,-227.2 210.5,-227.2"/>
<text text-anchor="start" x="215.5" y="-235.8" font-family="Helvetica,sans-Serif" font-weight="bold" font-size="11.00" fill="#000000">mo_relationship</text>
<text text-anchor="start" x="323.0219" y="-235.3" font-family="Helvetica,sans-Serif" font-size="11.00" fill="#000000">[table]</text>
<polygon fill="none" stroke="#000000" points="210.5,-205.2 210.5,-227.2 357.5,-227.2 357.5,-205.2 210.5,-205.2"/>
<image xlink:href="../../images/primaryKeys.png" width="11px" height="12px" preserveAspectRatio="xMinYMin meet" x="215.5" y="-222.2"/>
<text text-anchor="start" x="239.5" y="-212.3" font-family="Helvetica,sans-Serif" font-size="11.00" fill="#000000">mor_id</text>
<polygon fill="#ffffff" stroke="transparent" points="210.5,-183.2 210.5,-205.2 357.5,-205.2 357.5,-183.2 210.5,-183.2"/>
<polygon fill="none" stroke="#000000" points="210.5,-183.2 210.5,-205.2 357.5,-205.2 357.5,-183.2 210.5,-183.2"/>
<image xlink:href="../../images/foreignKeys.png" width="11px" height="12px" preserveAspectRatio="xMinYMin meet" x="215.5" y="-200.2"/>
<text text-anchor="start" x="239.5" y="-190.3" font-family="Helvetica,sans-Serif" font-size="11.00" fill="#000000">mo_target</text>
<polygon fill="#ffffff" stroke="transparent" points="210.5,-161.2 210.5,-183.2 357.5,-183.2 357.5,-161.2 210.5,-161.2"/>
<polygon fill="none" stroke="#000000" points="210.5,-161.2 210.5,-183.2 357.5,-183.2 357.5,-161.2 210.5,-161.2"/>
<image xlink:href="../../images/foreignKeys.png" width="11px" height="12px" preserveAspectRatio="xMinYMin meet" x="215.5" y="-178.2"/>
<text text-anchor="start" x="239.5" y="-168.3" font-family="Helvetica,sans-Serif" font-size="11.00" fill="#000000">mo_source</text>
<polygon fill="none" stroke="#000000" points="210.5,-142.2 210.5,-161.2 357.5,-161.2 357.5,-142.2 210.5,-142.2"/>
<text text-anchor="start" x="213.5" y="-148.3" font-family="Helvetica,sans-Serif" font-size="11.00" fill="#000000">...</text>
<polygon fill="#ffffff" stroke="transparent" points="210.5,-123.2 210.5,-142.2 264.5,-142.2 264.5,-123.2 210.5,-123.2"/>
<polygon fill="none" stroke="#000000" points="210.5,-123.2 210.5,-142.2 264.5,-142.2 264.5,-123.2 210.5,-123.2"/>
<text text-anchor="start" x="213.5" y="-129.3" font-family="Helvetica,sans-Serif" font-size="11.00" fill="#000000">&lt; 2</text>
<polygon fill="#ffffff" stroke="transparent" points="264.5,-123.2 264.5,-142.2 319.5,-142.2 319.5,-123.2 264.5,-123.2"/>
<polygon fill="none" stroke="#000000" points="264.5,-123.2 264.5,-142.2 319.5,-142.2 319.5,-123.2 264.5,-123.2"/>
<text text-anchor="start" x="284.1105" y="-129.3" font-family="Helvetica,sans-Serif" font-size="11.00" fill="#000000">0 rows</text>
<polygon fill="#ffffff" stroke="transparent" points="319.5,-123.2 319.5,-142.2 357.5,-142.2 357.5,-123.2 319.5,-123.2"/>
<polygon fill="none" stroke="#000000" points="319.5,-123.2 319.5,-142.2 357.5,-142.2 357.5,-123.2 319.5,-123.2"/>
<text text-anchor="start" x="338.9053" y="-129.3" font-family="Helvetica,sans-Serif" font-size="11.00" fill="#000000">2 &gt;</text>
</a>
</g>
</g>
<!-- moving_object -->
<g id="node2" class="node">
<title>moving_object</title>
<g id="a_node2"><a xlink:href="../../tables/moving_object.html" xlink:title="moving_object" target="_top">
<polygon fill="#ffffff" stroke="transparent" points="16.5,-155.7 16.5,-216.7 152.5,-216.7 152.5,-155.7 16.5,-155.7"/>
<polygon fill="#f5f5f5" stroke="transparent" points="16.5,-193.2 16.5,-216.2 152.5,-216.2 152.5,-193.2 16.5,-193.2"/>
<polygon fill="none" stroke="#000000" points="16.5,-193.2 16.5,-216.2 152.5,-216.2 152.5,-193.2 16.5,-193.2"/>
<text text-anchor="start" x="21.5" y="-201.8" font-family="Helvetica,sans-Serif" font-weight="bold" font-size="11.00" fill="#000000">moving_object</text>
<text text-anchor="start" x="118.0219" y="-201.3" font-family="Helvetica,sans-Serif" font-size="11.00" fill="#000000">[table]</text>
<polygon fill="none" stroke="#000000" points="16.5,-174.2 16.5,-193.2 152.5,-193.2 152.5,-174.2 16.5,-174.2"/>
<text text-anchor="start" x="19.5" y="-180.3" font-family="Helvetica,sans-Serif" font-size="11.00" fill="#000000">...</text>
<polygon fill="#ffffff" stroke="transparent" points="16.5,-155.2 16.5,-174.2 54.5,-174.2 54.5,-155.2 16.5,-155.2"/>
<polygon fill="none" stroke="#000000" points="16.5,-155.2 16.5,-174.2 54.5,-174.2 54.5,-155.2 16.5,-155.2"/>
<text text-anchor="start" x="19.5" y="-161.3" font-family="Helvetica,sans-Serif" font-size="11.00" fill="#000000">&lt; 1</text>
<polygon fill="#ffffff" stroke="transparent" points="54.5,-155.2 54.5,-174.2 122.5,-174.2 122.5,-155.2 54.5,-155.2"/>
<polygon fill="none" stroke="#000000" points="54.5,-155.2 54.5,-174.2 122.5,-174.2 122.5,-155.2 54.5,-155.2"/>
<text text-anchor="start" x="65.7089" y="-161.3" font-family="Helvetica,sans-Serif" font-size="11.00" fill="#000000">2.000 rows</text>
<polygon fill="#ffffff" stroke="transparent" points="122.5,-155.2 122.5,-174.2 152.5,-174.2 152.5,-155.2 122.5,-155.2"/>
<polygon fill="none" stroke="#000000" points="122.5,-155.2 122.5,-174.2 152.5,-174.2 152.5,-155.2 122.5,-155.2"/>
<text text-anchor="start" x="133.9053" y="-161.3" font-family="Helvetica,sans-Serif" font-size="11.00" fill="#000000">5 &gt;</text>
</a>
</g>
</g>
<!-- mo_relationship&#45;&gt;moving_object -->
<g id="edge1" class="edge">
<title>mo_relationship:w&#45;&gt;moving_object:e</title>
<path fill="none" stroke="#000000" d="M195.8215,-173.5488C180.8542,-176.4861 172.9979,-183.2 152.5,-183.2"/>
<polygon fill="#000000" stroke="#000000" points="202.5336,-172.9321 210.8294,-175.7849 206.5168,-172.566 210.5,-172.2 210.5,-172.2 210.5,-172.2 206.5168,-172.566 210.1706,-168.6151 202.5336,-172.9321 202.5336,-172.9321"/>
<ellipse fill="none" stroke="#000000" cx="199.347" cy="-173.2249" rx="3.2" ry="3.2"/>
</g>
<!-- mo_relationship&#45;&gt;moving_object -->
<g id="edge2" class="edge">
<title>mo_relationship:w&#45;&gt;moving_object:e</title>
<path fill="none" stroke="#000000" d="M195.8215,-192.8512C180.8542,-189.9139 172.9979,-183.2 152.5,-183.2"/>
<polygon fill="#000000" stroke="#000000" points="202.5336,-193.4679 210.1706,-197.7849 206.5168,-193.834 210.5,-194.2 210.5,-194.2 210.5,-194.2 206.5168,-193.834 210.8294,-190.6151 202.5336,-193.4679 202.5336,-193.4679"/>
<ellipse fill="none" stroke="#000000" cx="199.347" cy="-193.1751" rx="3.2" ry="3.2"/>
</g>
<!-- mo_relationship_mor_dr -->
<g id="node3" class="node">
<title>mo_relationship_mor_dr</title>
<g id="a_node3"><a xlink:href="../../tables/mo_relationship_mor_dr.html" xlink:title="mo_relationship_mor_dr" target="_top">
<polygon fill="#ffffff" stroke="transparent" points="406,-56.2 406,-146.2 634,-146.2 634,-56.2 406,-56.2"/>
<polygon fill="#f5f5f5" stroke="transparent" points="408,-121.2 408,-144.2 632,-144.2 632,-121.2 408,-121.2"/>
<polygon fill="none" stroke="#000000" points="408,-121.2 408,-144.2 632,-144.2 632,-121.2 408,-121.2"/>
<text text-anchor="start" x="413" y="-129.8" font-family="Helvetica,sans-Serif" font-weight="bold" font-size="11.00" fill="#000000">mo_relationship_mor_dr</text>
<text text-anchor="start" x="597.0437" y="-129.3" font-family="Helvetica,sans-Serif" font-size="11.00" fill="#000000">[table]</text>
<polygon fill="none" stroke="#000000" points="408,-99.2 408,-121.2 590,-121.2 590,-99.2 408,-99.2"/>
<image xlink:href="../../images/primaryKeys.png" width="11px" height="12px" preserveAspectRatio="xMinYMin meet" x="413" y="-116.2"/>
<text text-anchor="start" x="428" y="-106.3" font-family="Helvetica,sans-Serif" font-size="11.00" fill="#000000">mor_id</text>
<polygon fill="none" stroke="#000000" points="590,-99.2 590,-121.2 632,-121.2 632,-99.2 590,-99.2"/>
<text text-anchor="start" x="592.9644" y="-106.9" font-family="Helvetica,sans-Serif" font-size="11.00" fill="#000000">int4[10]</text>
<polygon fill="none" stroke="#000000" points="408,-77.2 408,-99.2 590,-99.2 590,-77.2 408,-77.2"/>
<image xlink:href="../../images/primaryKeys.png" width="11px" height="12px" preserveAspectRatio="xMinYMin meet" x="413" y="-94.2"/>
<text text-anchor="start" x="428" y="-84.3" font-family="Helvetica,sans-Serif" font-size="11.00" fill="#000000">rule_id</text>
<polygon fill="none" stroke="#000000" points="590,-77.2 590,-99.2 632,-99.2 632,-77.2 590,-77.2"/>
<text text-anchor="start" x="592.9644" y="-84.9" font-family="Helvetica,sans-Serif" font-size="11.00" fill="#000000">int4[10]</text>
<polygon fill="#ffffff" stroke="transparent" points="408,-58.2 408,-77.2 490,-77.2 490,-58.2 408,-58.2"/>
<polygon fill="none" stroke="#000000" points="408,-58.2 408,-77.2 490,-77.2 490,-58.2 408,-58.2"/>
<text text-anchor="start" x="411" y="-64.3" font-family="Helvetica,sans-Serif" font-size="11.00" fill="#000000">&lt; 2</text>
<polygon fill="#ffffff" stroke="transparent" points="490,-58.2 490,-77.2 590,-77.2 590,-58.2 490,-58.2"/>
<polygon fill="none" stroke="#000000" points="490,-58.2 490,-77.2 590,-77.2 590,-58.2 490,-58.2"/>
<text text-anchor="start" x="554.6105" y="-64.3" font-family="Helvetica,sans-Serif" font-size="11.00" fill="#000000">0 rows</text>
<polygon fill="#ffffff" stroke="transparent" points="590,-58.2 590,-77.2 632,-77.2 632,-58.2 590,-58.2"/>
<polygon fill="none" stroke="#000000" points="590,-58.2 590,-77.2 632,-77.2 632,-58.2 590,-58.2"/>
<text text-anchor="start" x="613.4053" y="-64.3" font-family="Helvetica,sans-Serif" font-size="11.00" fill="#000000">0 &gt;</text>
<polygon fill="none" stroke="#000000" stroke-width="2" points="407,-57.2 407,-145.2 633,-145.2 633,-57.2 407,-57.2"/>
</a>
</g>
</g>
<!-- mo_relationship_mor_dr&#45;&gt;mo_relationship -->
<g id="edge3" class="edge">
<title>mo_relationship_mor_dr:w&#45;&gt;mo_relationship:e</title>
<path fill="none" stroke="#000000" d="M394.04,-113.9726C366.6593,-132.8554 403.7729,-216.2 357.5,-216.2"/>
<polygon fill="#000000" stroke="#000000" points="400.277,-112.2871 408.9392,-113.6753 404.1385,-111.2436 408,-110.2 408,-110.2 408,-110.2 404.1385,-111.2436 407.0608,-106.7247 400.277,-112.2871 400.277,-112.2871"/>
<ellipse fill="none" stroke="#000000" cx="397.1879" cy="-113.122" rx="3.2" ry="3.2"/>
</g>
<!-- mor_dr -->
<g id="node4" class="node">
<title>mor_dr</title>
<g id="a_node4"><a xlink:href="../../tables/mor_dr.html" xlink:title="mor_dr" target="_top">
<polygon fill="#ffffff" stroke="transparent" points="240.5,-38.2 240.5,-102.2 326.5,-102.2 326.5,-38.2 240.5,-38.2"/>
<polygon fill="#f5f5f5" stroke="transparent" points="240.5,-79.2 240.5,-102.2 326.5,-102.2 326.5,-79.2 240.5,-79.2"/>
<polygon fill="none" stroke="#000000" points="240.5,-79.2 240.5,-102.2 326.5,-102.2 326.5,-79.2 240.5,-79.2"/>
<text text-anchor="start" x="245.5" y="-87.8" font-family="Helvetica,sans-Serif" font-weight="bold" font-size="11.00" fill="#000000">mor_dr</text>
<text text-anchor="start" x="292.0219" y="-87.3" font-family="Helvetica,sans-Serif" font-size="11.00" fill="#000000">[table]</text>
<polygon fill="none" stroke="#000000" points="240.5,-57.2 240.5,-79.2 326.5,-79.2 326.5,-57.2 240.5,-57.2"/>
<image xlink:href="../../images/primaryKeys.png" width="11px" height="12px" preserveAspectRatio="xMinYMin meet" x="245.5" y="-74.2"/>
<text text-anchor="start" x="269.5" y="-64.3" font-family="Helvetica,sans-Serif" font-size="11.00" fill="#000000">rule_id</text>
<polygon fill="#ffffff" stroke="transparent" points="240.5,-38.2 240.5,-57.2 264.5,-57.2 264.5,-38.2 240.5,-38.2"/>
<polygon fill="none" stroke="#000000" points="240.5,-38.2 240.5,-57.2 264.5,-57.2 264.5,-38.2 240.5,-38.2"/>
<text text-anchor="start" x="243.5" y="-44.3" font-family="Helvetica,sans-Serif" font-size="11.00" fill="#000000">&lt; 1</text>
<polygon fill="#ffffff" stroke="transparent" points="264.5,-38.2 264.5,-57.2 303.5,-57.2 303.5,-38.2 264.5,-38.2"/>
<polygon fill="none" stroke="#000000" points="264.5,-38.2 264.5,-57.2 303.5,-57.2 303.5,-38.2 264.5,-38.2"/>
<text text-anchor="start" x="268.1105" y="-44.3" font-family="Helvetica,sans-Serif" font-size="11.00" fill="#000000">0 rows</text>
<polygon fill="#ffffff" stroke="transparent" points="303.5,-38.2 303.5,-57.2 326.5,-57.2 326.5,-38.2 303.5,-38.2"/>
<polygon fill="none" stroke="#000000" points="303.5,-38.2 303.5,-57.2 326.5,-57.2 326.5,-38.2 303.5,-38.2"/>
<text text-anchor="start" x="307.9053" y="-44.3" font-family="Helvetica,sans-Serif" font-size="11.00" fill="#000000">1 &gt;</text>
</a>
</g>
</g>
<!-- mo_relationship_mor_dr&#45;&gt;mor_dr -->
<g id="edge4" class="edge">
<title>mo_relationship_mor_dr:w&#45;&gt;mor_dr:e</title>
<path fill="none" stroke="#000000" d="M393.5493,-87.0674C368.0719,-82.8365 358.4064,-68.2 326.5,-68.2"/>
<polygon fill="#000000" stroke="#000000" points="400.0245,-87.5749 407.7187,-91.789 404.0122,-87.8874 408,-88.2 408,-88.2 408,-88.2 404.0122,-87.8874 408.2813,-84.611 400.0245,-87.5749 400.0245,-87.5749"/>
<ellipse fill="none" stroke="#000000" cx="396.8342" cy="-87.3248" rx="3.2" ry="3.2"/>
</g>
<!-- dependency_rule -->
<g id="node6" class="node">
<title>dependency_rule</title>
<g id="a_node6"><a xlink:href="../../tables/dependency_rule.html" xlink:title="dependency_rule" target="_top">
<polygon fill="#ffffff" stroke="transparent" points="8,-40.7 8,-101.7 161,-101.7 161,-40.7 8,-40.7"/>
<polygon fill="#f5f5f5" stroke="transparent" points="8.5,-78.2 8.5,-101.2 161.5,-101.2 161.5,-78.2 8.5,-78.2"/>
<polygon fill="none" stroke="#000000" points="8.5,-78.2 8.5,-101.2 161.5,-101.2 161.5,-78.2 8.5,-78.2"/>
<text text-anchor="start" x="13.5" y="-86.8" font-family="Helvetica,sans-Serif" font-weight="bold" font-size="11.00" fill="#000000">dependency_rule</text>
<text text-anchor="start" x="127.0219" y="-86.3" font-family="Helvetica,sans-Serif" font-size="11.00" fill="#000000">[table]</text>
<polygon fill="none" stroke="#000000" points="8.5,-59.2 8.5,-78.2 161.5,-78.2 161.5,-59.2 8.5,-59.2"/>
<text text-anchor="start" x="11.5" y="-65.3" font-family="Helvetica,sans-Serif" font-size="11.00" fill="#000000">...</text>
<polygon fill="#ffffff" stroke="transparent" points="8.5,-40.2 8.5,-59.2 61.5,-59.2 61.5,-40.2 8.5,-40.2"/>
<polygon fill="none" stroke="#000000" points="8.5,-40.2 8.5,-59.2 61.5,-59.2 61.5,-40.2 8.5,-40.2"/>
<text text-anchor="start" x="11.5" y="-46.3" font-family="Helvetica,sans-Serif" font-size="11.00" fill="#000000"> &#160;</text>
<polygon fill="#ffffff" stroke="transparent" points="61.5,-40.2 61.5,-59.2 119.5,-59.2 119.5,-40.2 61.5,-40.2"/>
<polygon fill="none" stroke="#000000" points="61.5,-40.2 61.5,-59.2 119.5,-59.2 119.5,-40.2 61.5,-40.2"/>
<text text-anchor="start" x="84.1105" y="-46.3" font-family="Helvetica,sans-Serif" font-size="11.00" fill="#000000">0 rows</text>
<polygon fill="#ffffff" stroke="transparent" points="119.5,-40.2 119.5,-59.2 161.5,-59.2 161.5,-40.2 119.5,-40.2"/>
<polygon fill="none" stroke="#000000" points="119.5,-40.2 119.5,-59.2 161.5,-59.2 161.5,-40.2 119.5,-40.2"/>
<text text-anchor="start" x="142.9053" y="-46.3" font-family="Helvetica,sans-Serif" font-size="11.00" fill="#000000">7 &gt;</text>
</a>
</g>
</g>
<!-- mor_dr&#45;&gt;dependency_rule -->
<g id="edge6" class="edge">
<title>mor_dr:w&#45;&gt;dependency_rule:e</title>
<path fill="none" stroke="#000000" d="M229.8553,-68.2C203.1537,-68.2 192.7708,-68.2 161.5,-68.2"/>
<polygon fill="#000000" stroke="#000000" points="239.7,-64.2 239.7,-72.2 238.1,-72.2 238.1,-64.2 239.7,-64.2"/>
<polyline fill="none" stroke="#000000" points="240.5,-68.2 236.5,-68.2 "/>
<ellipse fill="none" stroke="#000000" cx="233.3" cy="-68.2001" rx="3.2" ry="3.2"/>
</g>
<!-- mor_aspect -->
<g id="node5" class="node">
<title>mor_aspect</title>
<g id="a_node5"><a xlink:href="../../tables/mor_aspect.html" xlink:title="mor_aspect" target="_top">
<polygon fill="#ffffff" stroke="transparent" points="462,-188.7 462,-249.7 578,-249.7 578,-188.7 462,-188.7"/>
<polygon fill="#f5f5f5" stroke="transparent" points="462,-226.2 462,-249.2 578,-249.2 578,-226.2 462,-226.2"/>
<polygon fill="none" stroke="#000000" points="462,-226.2 462,-249.2 578,-249.2 578,-226.2 462,-226.2"/>
<text text-anchor="start" x="467" y="-234.8" font-family="Helvetica,sans-Serif" font-weight="bold" font-size="11.00" fill="#000000">mor_aspect</text>
<text text-anchor="start" x="543.5219" y="-234.3" font-family="Helvetica,sans-Serif" font-size="11.00" fill="#000000">[table]</text>
<polygon fill="none" stroke="#000000" points="462,-207.2 462,-226.2 578,-226.2 578,-207.2 462,-207.2"/>
<text text-anchor="start" x="465" y="-213.3" font-family="Helvetica,sans-Serif" font-size="11.00" fill="#000000">...</text>
<polygon fill="#ffffff" stroke="transparent" points="462,-188.2 462,-207.2 505,-207.2 505,-188.2 462,-188.2"/>
<polygon fill="none" stroke="#000000" points="462,-188.2 462,-207.2 505,-207.2 505,-188.2 462,-188.2"/>
<text text-anchor="start" x="465" y="-194.3" font-family="Helvetica,sans-Serif" font-size="11.00" fill="#000000">&lt; 2</text>
<polygon fill="#ffffff" stroke="transparent" points="505,-188.2 505,-207.2 554,-207.2 554,-188.2 505,-188.2"/>
<polygon fill="none" stroke="#000000" points="505,-188.2 505,-207.2 554,-207.2 554,-188.2 505,-188.2"/>
<text text-anchor="start" x="518.6105" y="-194.3" font-family="Helvetica,sans-Serif" font-size="11.00" fill="#000000">0 rows</text>
<polygon fill="#ffffff" stroke="transparent" points="554,-188.2 554,-207.2 578,-207.2 578,-188.2 554,-188.2"/>
<polygon fill="none" stroke="#000000" points="554,-188.2 554,-207.2 578,-207.2 578,-188.2 554,-188.2"/>
<text text-anchor="start" x="568.8862" y="-194.3" font-family="Helvetica,sans-Serif" font-size="11.00" fill="#000000"> &#160;</text>
</a>
</g>
</g>
<!-- mor_aspect&#45;&gt;mo_relationship -->
<g id="edge5" class="edge">
<title>mor_aspect:w&#45;&gt;mo_relationship:e</title>
<path fill="none" stroke="#000000" d="M447.4559,-216.2C412.4779,-216.2 398.6832,-216.2 357.5,-216.2"/>
<polygon fill="#000000" stroke="#000000" points="454,-216.2001 462,-219.8 458,-216.2 462,-216.2 462,-216.2 462,-216.2 458,-216.2 462,-212.6 454,-216.2001 454,-216.2001"/>
<ellipse fill="none" stroke="#000000" cx="450.8" cy="-216.2001" rx="3.2" ry="3.2"/>
</g>
</g>
</svg>
