<?xml version="1.0" encoding="UTF-8" standalone="no"?>
<!DOCTYPE svg PUBLIC "-//W3C//DTD SVG 1.1//EN"
 "http://www.w3.org/Graphics/SVG/1.1/DTD/svg11.dtd">
<!-- Generated by graphviz version 2.40.1 (20161225.0304)
 -->
<!-- Title: twoDegreesRelationshipsDiagram Pages: 1 -->
<svg width="820pt" height="585pt"
 viewBox="0.00 0.00 820.00 585.20" xmlns="http://www.w3.org/2000/svg" xmlns:xlink="http://www.w3.org/1999/xlink">
<g id="graph0" class="graph" transform="scale(1 1) rotate(0) translate(4 581.2)">
<title>twoDegreesRelationshipsDiagram</title>
<polygon fill="#ffffff" stroke="transparent" points="-4,4 -4,-581.2 816,-581.2 816,4 -4,4"/>
<text text-anchor="middle" x="72.4936" y="-7.3" font-family="Helvetica,sans-Serif" font-size="11.00" fill="#000000">Generated by SchemaSpy</text>
<!-- mat -->
<g id="node1" class="node">
<title>mat</title>
<g id="a_node1"><a xlink:href="../../tables/mat.html" xlink:title="mat" target="_top">
<polygon fill="#ffffff" stroke="transparent" points="389.5,-512.2 389.5,-573.2 503.5,-573.2 503.5,-512.2 389.5,-512.2"/>
<polygon fill="#f5f5f5" stroke="transparent" points="389.5,-549.7 389.5,-572.7 503.5,-572.7 503.5,-549.7 389.5,-549.7"/>
<polygon fill="none" stroke="#000000" points="389.5,-549.7 389.5,-572.7 503.5,-572.7 503.5,-549.7 389.5,-549.7"/>
<text text-anchor="start" x="394.5" y="-558.3" font-family="Helvetica,sans-Serif" font-weight="bold" font-size="11.00" fill="#000000">mat</text>
<text text-anchor="start" x="468.5437" y="-557.8" font-family="Helvetica,sans-Serif" font-size="11.00" fill="#000000">[table]</text>
<polygon fill="none" stroke="#000000" points="389.5,-530.7 389.5,-549.7 503.5,-549.7 503.5,-530.7 389.5,-530.7"/>
<text text-anchor="start" x="392.5" y="-536.8" font-family="Helvetica,sans-Serif" font-size="11.00" fill="#000000">...</text>
<polygon fill="#ffffff" stroke="transparent" points="389.5,-511.7 389.5,-530.7 410.5,-530.7 410.5,-511.7 389.5,-511.7"/>
<polygon fill="none" stroke="#000000" points="389.5,-511.7 389.5,-530.7 410.5,-530.7 410.5,-511.7 389.5,-511.7"/>
<text text-anchor="start" x="392.2027" y="-517.8" font-family="Helvetica,sans-Serif" font-size="11.00" fill="#000000">&lt; 1</text>
<polygon fill="#ffffff" stroke="transparent" points="410.5,-511.7 410.5,-530.7 482.5,-530.7 482.5,-511.7 410.5,-511.7"/>
<polygon fill="none" stroke="#000000" points="410.5,-511.7 410.5,-530.7 482.5,-530.7 482.5,-511.7 410.5,-511.7"/>
<text text-anchor="start" x="413.4896" y="-517.8" font-family="Helvetica,sans-Serif" font-size="11.00" fill="#000000">292.481 rows</text>
<polygon fill="#ffffff" stroke="transparent" points="482.5,-511.7 482.5,-530.7 503.5,-530.7 503.5,-511.7 482.5,-511.7"/>
<polygon fill="none" stroke="#000000" points="482.5,-511.7 482.5,-530.7 503.5,-530.7 503.5,-511.7 482.5,-511.7"/>
<text text-anchor="start" x="485.2027" y="-517.8" font-family="Helvetica,sans-Serif" font-size="11.00" fill="#000000">3 &gt;</text>
</a>
</g>
</g>
<!-- moving_object -->
<g id="node2" class="node">
<title>moving_object</title>
<g id="a_node2"><a xlink:href="../../tables/moving_object.html" xlink:title="moving_object" target="_top">
<polygon fill="#ffffff" stroke="transparent" points="153,-273.7 153,-381.7 289,-381.7 289,-273.7 153,-273.7"/>
<polygon fill="#f5f5f5" stroke="transparent" points="153,-358.7 153,-381.7 289,-381.7 289,-358.7 153,-358.7"/>
<polygon fill="none" stroke="#000000" points="153,-358.7 153,-381.7 289,-381.7 289,-358.7 153,-358.7"/>
<text text-anchor="start" x="158" y="-367.3" font-family="Helvetica,sans-Serif" font-weight="bold" font-size="11.00" fill="#000000">moving_object</text>
<text text-anchor="start" x="254.5219" y="-366.8" font-family="Helvetica,sans-Serif" font-size="11.00" fill="#000000">[table]</text>
<polygon fill="none" stroke="#000000" points="153,-336.7 153,-358.7 289,-358.7 289,-336.7 153,-336.7"/>
<image xlink:href="../../images/primaryKeys.png" width="11px" height="12px" preserveAspectRatio="xMinYMin meet" x="158" y="-353.7"/>
<text text-anchor="start" x="182" y="-343.8" font-family="Helvetica,sans-Serif" font-size="11.00" fill="#000000">mo_id</text>
<polygon fill="#ffffff" stroke="transparent" points="153,-314.7 153,-336.7 289,-336.7 289,-314.7 153,-314.7"/>
<polygon fill="none" stroke="#000000" points="153,-314.7 153,-336.7 289,-336.7 289,-314.7 153,-314.7"/>
<text text-anchor="start" x="182" y="-321.8" font-family="Helvetica,sans-Serif" font-size="11.00" fill="#000000">description</text>
<polygon fill="#ffffff" stroke="transparent" points="153,-292.7 153,-314.7 289,-314.7 289,-292.7 153,-292.7"/>
<polygon fill="none" stroke="#000000" points="153,-292.7 153,-314.7 289,-314.7 289,-292.7 153,-292.7"/>
<image xlink:href="../../images/foreignKeys.png" width="11px" height="12px" preserveAspectRatio="xMinYMin meet" x="158" y="-309.7"/>
<text text-anchor="start" x="182" y="-299.8" font-family="Helvetica,sans-Serif" font-size="11.00" fill="#000000">mo_type_id</text>
<polygon fill="#ffffff" stroke="transparent" points="153,-273.7 153,-292.7 191,-292.7 191,-273.7 153,-273.7"/>
<polygon fill="none" stroke="#000000" points="153,-273.7 153,-292.7 191,-292.7 191,-273.7 153,-273.7"/>
<text text-anchor="start" x="156" y="-279.8" font-family="Helvetica,sans-Serif" font-size="11.00" fill="#000000">&lt; 1</text>
<polygon fill="#ffffff" stroke="transparent" points="191,-273.7 191,-292.7 259,-292.7 259,-273.7 191,-273.7"/>
<polygon fill="none" stroke="#000000" points="191,-273.7 191,-292.7 259,-292.7 259,-273.7 191,-273.7"/>
<text text-anchor="start" x="202.2089" y="-279.8" font-family="Helvetica,sans-Serif" font-size="11.00" fill="#000000">2.000 rows</text>
<polygon fill="#ffffff" stroke="transparent" points="259,-273.7 259,-292.7 289,-292.7 289,-273.7 259,-273.7"/>
<polygon fill="none" stroke="#000000" points="259,-273.7 259,-292.7 289,-292.7 289,-273.7 259,-273.7"/>
<text text-anchor="start" x="270.4053" y="-279.8" font-family="Helvetica,sans-Serif" font-size="11.00" fill="#000000">5 &gt;</text>
</a>
</g>
</g>
<!-- mat&#45;&gt;moving_object -->
<g id="edge1" class="edge">
<title>mat:w&#45;&gt;moving_object:e</title>
<path fill="none" stroke="#000000" d="M375.0448,-538.4097C353.9761,-534.1837 345.461,-519.752 330,-497.7 290.3244,-441.1108 358.1122,-347.7 289,-347.7"/>
<polygon fill="#000000" stroke="#000000" points="381.5317,-538.9887 389.1799,-543.2857 385.5158,-539.3443 389.5,-539.7 389.5,-539.7 389.5,-539.7 385.5158,-539.3443 389.8201,-536.1143 381.5317,-538.9887 381.5317,-538.9887"/>
<ellipse fill="none" stroke="#000000" cx="378.3444" cy="-538.7041" rx="3.2" ry="3.2"/>
</g>
<!-- mo_type -->
<g id="node9" class="node">
<title>mo_type</title>
<g id="a_node9"><a xlink:href="../../tables/mo_type.html" xlink:title="mo_type" target="_top">
<polygon fill="#ffffff" stroke="transparent" points="8,-276.2 8,-337.2 104,-337.2 104,-276.2 8,-276.2"/>
<polygon fill="#f5f5f5" stroke="transparent" points="8,-313.7 8,-336.7 104,-336.7 104,-313.7 8,-313.7"/>
<polygon fill="none" stroke="#000000" points="8,-313.7 8,-336.7 104,-336.7 104,-313.7 8,-313.7"/>
<text text-anchor="start" x="13" y="-322.3" font-family="Helvetica,sans-Serif" font-weight="bold" font-size="11.00" fill="#000000">mo_type</text>
<text text-anchor="start" x="69.5219" y="-321.8" font-family="Helvetica,sans-Serif" font-size="11.00" fill="#000000">[table]</text>
<polygon fill="none" stroke="#000000" points="8,-294.7 8,-313.7 104,-313.7 104,-294.7 8,-294.7"/>
<text text-anchor="start" x="11" y="-300.8" font-family="Helvetica,sans-Serif" font-size="11.00" fill="#000000">...</text>
<polygon fill="#ffffff" stroke="transparent" points="8,-275.7 8,-294.7 35,-294.7 35,-275.7 8,-275.7"/>
<polygon fill="none" stroke="#000000" points="8,-275.7 8,-294.7 35,-294.7 35,-275.7 8,-275.7"/>
<text text-anchor="start" x="11" y="-281.8" font-family="Helvetica,sans-Serif" font-size="11.00" fill="#000000"> &#160;</text>
<polygon fill="#ffffff" stroke="transparent" points="35,-275.7 35,-294.7 75,-294.7 75,-275.7 35,-275.7"/>
<polygon fill="none" stroke="#000000" points="35,-275.7 35,-294.7 75,-294.7 75,-275.7 35,-275.7"/>
<text text-anchor="start" x="45.1105" y="-281.8" font-family="Helvetica,sans-Serif" font-size="11.00" fill="#000000">1 row</text>
<polygon fill="#ffffff" stroke="transparent" points="75,-275.7 75,-294.7 104,-294.7 104,-275.7 75,-275.7"/>
<polygon fill="none" stroke="#000000" points="75,-275.7 75,-294.7 104,-294.7 104,-275.7 75,-275.7"/>
<text text-anchor="start" x="85.4053" y="-281.8" font-family="Helvetica,sans-Serif" font-size="11.00" fill="#000000">1 &gt;</text>
</a>
</g>
</g>
<!-- moving_object&#45;&gt;mo_type -->
<g id="edge10" class="edge">
<title>moving_object:w&#45;&gt;mo_type:e</title>
<path fill="none" stroke="#000000" d="M138.4909,-303.7C127.1774,-303.7 119.9931,-303.7 104,-303.7"/>
<polygon fill="#000000" stroke="#000000" points="145,-303.7001 153,-307.3 149,-303.7 153,-303.7 153,-303.7 153,-303.7 149,-303.7 153,-300.1 145,-303.7001 145,-303.7001"/>
<ellipse fill="none" stroke="#000000" cx="141.8" cy="-303.7001" rx="3.2" ry="3.2"/>
</g>
<!-- mo_aspect -->
<g id="node3" class="node">
<title>mo_aspect</title>
<g id="a_node3"><a xlink:href="../../tables/mo_aspect.html" xlink:title="mo_aspect" target="_top">
<polygon fill="#ffffff" stroke="transparent" points="649,-431.2 649,-492.2 759,-492.2 759,-431.2 649,-431.2"/>
<polygon fill="#f5f5f5" stroke="transparent" points="649,-468.7 649,-491.7 759,-491.7 759,-468.7 649,-468.7"/>
<polygon fill="none" stroke="#000000" points="649,-468.7 649,-491.7 759,-491.7 759,-468.7 649,-468.7"/>
<text text-anchor="start" x="654" y="-477.3" font-family="Helvetica,sans-Serif" font-weight="bold" font-size="11.00" fill="#000000">mo_aspect</text>
<text text-anchor="start" x="724.5219" y="-476.8" font-family="Helvetica,sans-Serif" font-size="11.00" fill="#000000">[table]</text>
<polygon fill="none" stroke="#000000" points="649,-449.7 649,-468.7 759,-468.7 759,-449.7 649,-449.7"/>
<text text-anchor="start" x="652" y="-455.8" font-family="Helvetica,sans-Serif" font-size="11.00" fill="#000000">...</text>
<polygon fill="#ffffff" stroke="transparent" points="649,-430.7 649,-449.7 679,-449.7 679,-430.7 649,-430.7"/>
<polygon fill="none" stroke="#000000" points="649,-430.7 649,-449.7 679,-449.7 679,-430.7 649,-430.7"/>
<text text-anchor="start" x="652" y="-436.8" font-family="Helvetica,sans-Serif" font-size="11.00" fill="#000000">&lt; 2</text>
<polygon fill="#ffffff" stroke="transparent" points="679,-430.7 679,-449.7 742,-449.7 742,-430.7 679,-430.7"/>
<polygon fill="none" stroke="#000000" points="679,-430.7 679,-449.7 742,-449.7 742,-430.7 679,-430.7"/>
<text text-anchor="start" x="685.2089" y="-436.8" font-family="Helvetica,sans-Serif" font-size="11.00" fill="#000000">2.000 rows</text>
<polygon fill="#ffffff" stroke="transparent" points="742,-430.7 742,-449.7 759,-449.7 759,-430.7 742,-430.7"/>
<polygon fill="none" stroke="#000000" points="742,-430.7 742,-449.7 759,-449.7 759,-430.7 742,-430.7"/>
<text text-anchor="start" x="749.8862" y="-436.8" font-family="Helvetica,sans-Serif" font-size="11.00" fill="#000000"> &#160;</text>
</a>
</g>
</g>
<!-- mo_aspect&#45;&gt;moving_object -->
<g id="edge3" class="edge">
<title>mo_aspect:w&#45;&gt;moving_object:e</title>
<path fill="none" stroke="#000000" d="M634.2585,-459.3359C607.2018,-461.8134 596.2189,-470.8247 563,-473.7 511.4151,-478.165 371.8957,-504.1252 330,-473.7 282.3494,-439.0955 347.8901,-347.7 289,-347.7"/>
<polygon fill="#000000" stroke="#000000" points="641.0074,-459.0448 649.1552,-462.2967 645.0037,-458.8724 649,-458.7 649,-458.7 649,-458.7 645.0037,-458.8724 648.8448,-455.1033 641.0074,-459.0448 641.0074,-459.0448"/>
<ellipse fill="none" stroke="#000000" cx="637.8104" cy="-459.1827" rx="3.2" ry="3.2"/>
</g>
<!-- aspect -->
<g id="node4" class="node">
<title>aspect</title>
<g id="a_node4"><a xlink:href="../../tables/aspect.html" xlink:title="aspect" target="_top">
<polygon fill="#ffffff" stroke="transparent" points="396,-402.2 396,-463.2 497,-463.2 497,-402.2 396,-402.2"/>
<polygon fill="#f5f5f5" stroke="transparent" points="396.5,-439.7 396.5,-462.7 497.5,-462.7 497.5,-439.7 396.5,-439.7"/>
<polygon fill="none" stroke="#000000" points="396.5,-439.7 396.5,-462.7 497.5,-462.7 497.5,-439.7 396.5,-439.7"/>
<text text-anchor="start" x="401.5" y="-448.3" font-family="Helvetica,sans-Serif" font-weight="bold" font-size="11.00" fill="#000000">aspect</text>
<text text-anchor="start" x="462.5437" y="-447.8" font-family="Helvetica,sans-Serif" font-size="11.00" fill="#000000">[table]</text>
<polygon fill="none" stroke="#000000" points="396.5,-420.7 396.5,-439.7 497.5,-439.7 497.5,-420.7 396.5,-420.7"/>
<text text-anchor="start" x="399.5" y="-426.8" font-family="Helvetica,sans-Serif" font-size="11.00" fill="#000000">...</text>
<polygon fill="#ffffff" stroke="transparent" points="396.5,-401.7 396.5,-420.7 417.5,-420.7 417.5,-401.7 396.5,-401.7"/>
<polygon fill="none" stroke="#000000" points="396.5,-401.7 396.5,-420.7 417.5,-420.7 417.5,-401.7 396.5,-401.7"/>
<text text-anchor="start" x="399.2027" y="-407.8" font-family="Helvetica,sans-Serif" font-size="11.00" fill="#000000">&lt; 1</text>
<polygon fill="#ffffff" stroke="transparent" points="417.5,-401.7 417.5,-420.7 476.5,-420.7 476.5,-401.7 417.5,-401.7"/>
<polygon fill="none" stroke="#000000" points="417.5,-401.7 417.5,-420.7 476.5,-420.7 476.5,-401.7 417.5,-401.7"/>
<text text-anchor="start" x="420.1045" y="-407.8" font-family="Helvetica,sans-Serif" font-size="11.00" fill="#000000">2.300 rows</text>
<polygon fill="#ffffff" stroke="transparent" points="476.5,-401.7 476.5,-420.7 497.5,-420.7 497.5,-401.7 476.5,-401.7"/>
<polygon fill="none" stroke="#000000" points="476.5,-401.7 476.5,-420.7 497.5,-420.7 497.5,-401.7 476.5,-401.7"/>
<text text-anchor="start" x="479.2027" y="-407.8" font-family="Helvetica,sans-Serif" font-size="11.00" fill="#000000">6 &gt;</text>
</a>
</g>
</g>
<!-- mo_aspect&#45;&gt;aspect -->
<g id="edge2" class="edge">
<title>mo_aspect:w&#45;&gt;aspect:e</title>
<path fill="none" stroke="#000000" d="M634.5865,-458.2445C578.01,-454.5551 560.9677,-429.7 497.5,-429.7"/>
<polygon fill="#000000" stroke="#000000" points="641.004,-458.4472 648.8863,-462.2982 645.002,-458.5736 649,-458.7 649,-458.7 649,-458.7 645.002,-458.5736 649.1137,-455.1018 641.004,-458.4472 641.004,-458.4472"/>
<ellipse fill="none" stroke="#000000" cx="637.8056" cy="-458.3461" rx="3.2" ry="3.2"/>
</g>
<!-- mo_relationship -->
<g id="node5" class="node">
<title>mo_relationship</title>
<g id="a_node5"><a xlink:href="../../tables/mo_relationship.html" xlink:title="mo_relationship" target="_top">
<polygon fill="#ffffff" stroke="transparent" points="338,-120.7 338,-298.7 555,-298.7 555,-120.7 338,-120.7"/>
<polygon fill="#f5f5f5" stroke="transparent" points="340.5,-273.7 340.5,-296.7 553.5,-296.7 553.5,-273.7 340.5,-273.7"/>
<polygon fill="none" stroke="#000000" points="340.5,-273.7 340.5,-296.7 553.5,-296.7 553.5,-273.7 340.5,-273.7"/>
<text text-anchor="start" x="345.5" y="-282.3" font-family="Helvetica,sans-Serif" font-weight="bold" font-size="11.00" fill="#000000">mo_relationship</text>
<text text-anchor="start" x="518.5437" y="-281.8" font-family="Helvetica,sans-Serif" font-size="11.00" fill="#000000">[table]</text>
<polygon fill="none" stroke="#000000" points="340.5,-251.7 340.5,-273.7 469.5,-273.7 469.5,-251.7 340.5,-251.7"/>
<image xlink:href="../../images/primaryKeys.png" width="11px" height="12px" preserveAspectRatio="xMinYMin meet" x="345.5" y="-268.7"/>
<text text-anchor="start" x="360.5" y="-258.8" font-family="Helvetica,sans-Serif" font-size="11.00" fill="#000000">mor_id</text>
<polygon fill="none" stroke="#000000" points="469.5,-251.7 469.5,-273.7 553.5,-273.7 553.5,-251.7 469.5,-251.7"/>
<text text-anchor="start" x="472.5" y="-259.4" font-family="Helvetica,sans-Serif" font-size="11.00" fill="#000000">int4[10]</text>
<polygon fill="none" stroke="#000000" points="340.5,-229.7 340.5,-251.7 469.5,-251.7 469.5,-229.7 340.5,-229.7"/>
<text text-anchor="start" x="360.5" y="-236.8" font-family="Helvetica,sans-Serif" font-size="11.00" fill="#000000">description</text>
<polygon fill="none" stroke="#000000" points="469.5,-229.7 469.5,-251.7 553.5,-251.7 553.5,-229.7 469.5,-229.7"/>
<text text-anchor="start" x="472.5" y="-237.4" font-family="Helvetica,sans-Serif" font-size="11.00" fill="#000000">varchar[50]</text>
<polygon fill="none" stroke="#000000" points="340.5,-207.7 340.5,-229.7 469.5,-229.7 469.5,-207.7 340.5,-207.7"/>
<text text-anchor="start" x="360.5" y="-214.8" font-family="Helvetica,sans-Serif" font-size="11.00" fill="#000000">start_time</text>
<polygon fill="none" stroke="#000000" points="469.5,-207.7 469.5,-229.7 553.5,-229.7 553.5,-207.7 469.5,-207.7"/>
<text text-anchor="start" x="472.3807" y="-215.4" font-family="Helvetica,sans-Serif" font-size="11.00" fill="#000000">timestamp[29,6]</text>
<polygon fill="none" stroke="#000000" points="340.5,-185.7 340.5,-207.7 469.5,-207.7 469.5,-185.7 340.5,-185.7"/>
<text text-anchor="start" x="360.5" y="-192.8" font-family="Helvetica,sans-Serif" font-size="11.00" fill="#000000">end_time</text>
<polygon fill="none" stroke="#000000" points="469.5,-185.7 469.5,-207.7 553.5,-207.7 553.5,-185.7 469.5,-185.7"/>
<text text-anchor="start" x="472.3807" y="-193.4" font-family="Helvetica,sans-Serif" font-size="11.00" fill="#000000">timestamp[29,6]</text>
<polygon fill="#ffffff" stroke="transparent" points="340.5,-163.7 340.5,-185.7 469.5,-185.7 469.5,-163.7 340.5,-163.7"/>
<polygon fill="none" stroke="#000000" points="340.5,-163.7 340.5,-185.7 469.5,-185.7 469.5,-163.7 340.5,-163.7"/>
<image xlink:href="../../images/foreignKeys.png" width="11px" height="12px" preserveAspectRatio="xMinYMin meet" x="345.5" y="-180.7"/>
<text text-anchor="start" x="360.5" y="-170.8" font-family="Helvetica,sans-Serif" font-size="11.00" fill="#000000">mo_target</text>
<polygon fill="none" stroke="#000000" points="469.5,-163.7 469.5,-185.7 553.5,-185.7 553.5,-163.7 469.5,-163.7"/>
<text text-anchor="start" x="472.5" y="-171.4" font-family="Helvetica,sans-Serif" font-size="11.00" fill="#000000">int4[10]</text>
<polygon fill="#ffffff" stroke="transparent" points="340.5,-141.7 340.5,-163.7 469.5,-163.7 469.5,-141.7 340.5,-141.7"/>
<polygon fill="none" stroke="#000000" points="340.5,-141.7 340.5,-163.7 469.5,-163.7 469.5,-141.7 340.5,-141.7"/>
<image xlink:href="../../images/foreignKeys.png" width="11px" height="12px" preserveAspectRatio="xMinYMin meet" x="345.5" y="-158.7"/>
<text text-anchor="start" x="360.5" y="-148.8" font-family="Helvetica,sans-Serif" font-size="11.00" fill="#000000">mo_source</text>
<polygon fill="none" stroke="#000000" points="469.5,-141.7 469.5,-163.7 553.5,-163.7 553.5,-141.7 469.5,-141.7"/>
<text text-anchor="start" x="472.5" y="-149.4" font-family="Helvetica,sans-Serif" font-size="11.00" fill="#000000">int4[10]</text>
<polygon fill="#ffffff" stroke="transparent" points="340.5,-122.7 340.5,-141.7 396.5,-141.7 396.5,-122.7 340.5,-122.7"/>
<polygon fill="none" stroke="#000000" points="340.5,-122.7 340.5,-141.7 396.5,-141.7 396.5,-122.7 340.5,-122.7"/>
<text text-anchor="start" x="343.5" y="-128.8" font-family="Helvetica,sans-Serif" font-size="11.00" fill="#000000">&lt; 2</text>
<polygon fill="#ffffff" stroke="transparent" points="396.5,-122.7 396.5,-141.7 469.5,-141.7 469.5,-122.7 396.5,-122.7"/>
<polygon fill="none" stroke="#000000" points="396.5,-122.7 396.5,-141.7 469.5,-141.7 469.5,-122.7 396.5,-122.7"/>
<text text-anchor="start" x="434.1105" y="-128.8" font-family="Helvetica,sans-Serif" font-size="11.00" fill="#000000">0 rows</text>
<polygon fill="#ffffff" stroke="transparent" points="469.5,-122.7 469.5,-141.7 553.5,-141.7 553.5,-122.7 469.5,-122.7"/>
<polygon fill="none" stroke="#000000" points="469.5,-122.7 469.5,-141.7 553.5,-141.7 553.5,-122.7 469.5,-122.7"/>
<text text-anchor="start" x="534.9053" y="-128.8" font-family="Helvetica,sans-Serif" font-size="11.00" fill="#000000">2 &gt;</text>
<polygon fill="none" stroke="#000000" stroke-width="2" points="339,-121.7 339,-297.7 554,-297.7 554,-121.7 339,-121.7"/>
</a>
</g>
</g>
<!-- mo_relationship&#45;&gt;moving_object -->
<g id="edge4" class="edge">
<title>mo_relationship:w&#45;&gt;moving_object:e</title>
<path fill="none" stroke="#000000" d="M326.1345,-154.8899C265.9846,-176.3133 373.0358,-347.7 289,-347.7"/>
<polygon fill="#000000" stroke="#000000" points="332.5914,-153.9057 341.0426,-156.2589 336.5457,-153.3028 340.5,-152.7 340.5,-152.7 340.5,-152.7 336.5457,-153.3028 339.9574,-149.1411 332.5914,-153.9057 332.5914,-153.9057"/>
<ellipse fill="none" stroke="#000000" cx="329.4279" cy="-154.3879" rx="3.2" ry="3.2"/>
</g>
<!-- mo_relationship&#45;&gt;moving_object -->
<g id="edge5" class="edge">
<title>mo_relationship:w&#45;&gt;moving_object:e</title>
<path fill="none" stroke="#000000" d="M326.252,-177.1456C274.662,-198.1728 363.5827,-347.7 289,-347.7"/>
<polygon fill="#000000" stroke="#000000" points="332.6153,-176.0534 341.109,-178.2481 336.5577,-175.3767 340.5,-174.7 340.5,-174.7 340.5,-174.7 336.5577,-175.3767 339.891,-171.1519 332.6153,-176.0534 332.6153,-176.0534"/>
<ellipse fill="none" stroke="#000000" cx="329.4614" cy="-176.5948" rx="3.2" ry="3.2"/>
</g>
<!-- mo_relationship_mor_dr -->
<g id="node6" class="node">
<title>mo_relationship_mor_dr</title>
<g id="a_node6"><a xlink:href="../../tables/mo_relationship_mor_dr.html" xlink:title="mo_relationship_mor_dr" target="_top">
<polygon fill="#ffffff" stroke="transparent" points="604,-69.7 604,-155.7 804,-155.7 804,-69.7 604,-69.7"/>
<polygon fill="#f5f5f5" stroke="transparent" points="604,-132.7 604,-155.7 804,-155.7 804,-132.7 604,-132.7"/>
<polygon fill="none" stroke="#000000" points="604,-132.7 604,-155.7 804,-155.7 804,-132.7 604,-132.7"/>
<text text-anchor="start" x="609" y="-141.3" font-family="Helvetica,sans-Serif" font-weight="bold" font-size="11.00" fill="#000000">mo_relationship_mor_dr</text>
<text text-anchor="start" x="769.5219" y="-140.8" font-family="Helvetica,sans-Serif" font-size="11.00" fill="#000000">[table]</text>
<polygon fill="none" stroke="#000000" points="604,-110.7 604,-132.7 804,-132.7 804,-110.7 604,-110.7"/>
<image xlink:href="../../images/primaryKeys.png" width="11px" height="12px" preserveAspectRatio="xMinYMin meet" x="609" y="-127.7"/>
<text text-anchor="start" x="633" y="-117.8" font-family="Helvetica,sans-Serif" font-size="11.00" fill="#000000">mor_id</text>
<polygon fill="none" stroke="#000000" points="604,-88.7 604,-110.7 804,-110.7 804,-88.7 604,-88.7"/>
<image xlink:href="../../images/primaryKeys.png" width="11px" height="12px" preserveAspectRatio="xMinYMin meet" x="609" y="-105.7"/>
<text text-anchor="start" x="633" y="-95.8" font-family="Helvetica,sans-Serif" font-size="11.00" fill="#000000">rule_id</text>
<polygon fill="#ffffff" stroke="transparent" points="604,-69.7 604,-88.7 689,-88.7 689,-69.7 604,-69.7"/>
<polygon fill="none" stroke="#000000" points="604,-69.7 604,-88.7 689,-88.7 689,-69.7 604,-69.7"/>
<text text-anchor="start" x="607" y="-75.8" font-family="Helvetica,sans-Serif" font-size="11.00" fill="#000000">&lt; 2</text>
<polygon fill="#ffffff" stroke="transparent" points="689,-69.7 689,-88.7 759,-88.7 759,-69.7 689,-69.7"/>
<polygon fill="none" stroke="#000000" points="689,-69.7 689,-88.7 759,-88.7 759,-69.7 689,-69.7"/>
<text text-anchor="start" x="723.6105" y="-75.8" font-family="Helvetica,sans-Serif" font-size="11.00" fill="#000000">0 rows</text>
<polygon fill="#ffffff" stroke="transparent" points="759,-69.7 759,-88.7 804,-88.7 804,-69.7 759,-69.7"/>
<polygon fill="none" stroke="#000000" points="759,-69.7 759,-88.7 804,-88.7 804,-69.7 759,-69.7"/>
<text text-anchor="start" x="794.8862" y="-75.8" font-family="Helvetica,sans-Serif" font-size="11.00" fill="#000000"> &#160;</text>
</a>
</g>
</g>
<!-- mo_relationship_mor_dr&#45;&gt;mo_relationship -->
<g id="edge6" class="edge">
<title>mo_relationship_mor_dr:w&#45;&gt;mo_relationship:e</title>
<path fill="none" stroke="#000000" d="M589.4552,-124.9099C551.0785,-145.8978 614.0843,-262.7 553.5,-262.7"/>
<polygon fill="#000000" stroke="#000000" points="596.188,-123.4241 604.7758,-125.2154 600.094,-122.562 604,-121.7 604,-121.7 604,-121.7 600.094,-122.562 603.2242,-118.1846 596.188,-123.4241 596.188,-123.4241"/>
<ellipse fill="none" stroke="#000000" cx="593.0632" cy="-124.1137" rx="3.2" ry="3.2"/>
</g>
<!-- mor_dr -->
<g id="node7" class="node">
<title>mor_dr</title>
<g id="a_node7"><a xlink:href="../../tables/mor_dr.html" xlink:title="mor_dr" target="_top">
<polygon fill="#ffffff" stroke="transparent" points="403.5,-38.2 403.5,-99.2 489.5,-99.2 489.5,-38.2 403.5,-38.2"/>
<polygon fill="#f5f5f5" stroke="transparent" points="403.5,-75.7 403.5,-98.7 489.5,-98.7 489.5,-75.7 403.5,-75.7"/>
<polygon fill="none" stroke="#000000" points="403.5,-75.7 403.5,-98.7 489.5,-98.7 489.5,-75.7 403.5,-75.7"/>
<text text-anchor="start" x="408.5" y="-84.3" font-family="Helvetica,sans-Serif" font-weight="bold" font-size="11.00" fill="#000000">mor_dr</text>
<text text-anchor="start" x="455.0219" y="-83.8" font-family="Helvetica,sans-Serif" font-size="11.00" fill="#000000">[table]</text>
<polygon fill="none" stroke="#000000" points="403.5,-56.7 403.5,-75.7 489.5,-75.7 489.5,-56.7 403.5,-56.7"/>
<text text-anchor="start" x="406.5" y="-62.8" font-family="Helvetica,sans-Serif" font-size="11.00" fill="#000000">...</text>
<polygon fill="#ffffff" stroke="transparent" points="403.5,-37.7 403.5,-56.7 427.5,-56.7 427.5,-37.7 403.5,-37.7"/>
<polygon fill="none" stroke="#000000" points="403.5,-37.7 403.5,-56.7 427.5,-56.7 427.5,-37.7 403.5,-37.7"/>
<text text-anchor="start" x="406.5" y="-43.8" font-family="Helvetica,sans-Serif" font-size="11.00" fill="#000000">&lt; 1</text>
<polygon fill="#ffffff" stroke="transparent" points="427.5,-37.7 427.5,-56.7 466.5,-56.7 466.5,-37.7 427.5,-37.7"/>
<polygon fill="none" stroke="#000000" points="427.5,-37.7 427.5,-56.7 466.5,-56.7 466.5,-37.7 427.5,-37.7"/>
<text text-anchor="start" x="431.1105" y="-43.8" font-family="Helvetica,sans-Serif" font-size="11.00" fill="#000000">0 rows</text>
<polygon fill="#ffffff" stroke="transparent" points="466.5,-37.7 466.5,-56.7 489.5,-56.7 489.5,-37.7 466.5,-37.7"/>
<polygon fill="none" stroke="#000000" points="466.5,-37.7 466.5,-56.7 489.5,-56.7 489.5,-37.7 466.5,-37.7"/>
<text text-anchor="start" x="470.9053" y="-43.8" font-family="Helvetica,sans-Serif" font-size="11.00" fill="#000000">1 &gt;</text>
</a>
</g>
</g>
<!-- mo_relationship_mor_dr&#45;&gt;mor_dr -->
<g id="edge7" class="edge">
<title>mo_relationship_mor_dr:w&#45;&gt;mor_dr:e</title>
<path fill="none" stroke="#000000" d="M589.3804,-98.7552C548.8114,-93.2639 537.2973,-65.7 489.5,-65.7"/>
<polygon fill="#000000" stroke="#000000" points="596.0167,-99.184 603.7678,-103.2925 600.0083,-99.442 604,-99.7 604,-99.7 604,-99.7 600.0083,-99.442 604.2322,-96.1075 596.0167,-99.184 596.0167,-99.184"/>
<ellipse fill="none" stroke="#000000" cx="592.8233" cy="-98.9776" rx="3.2" ry="3.2"/>
</g>
<!-- mor_aspect -->
<g id="node8" class="node">
<title>mor_aspect</title>
<g id="a_node8"><a xlink:href="../../tables/mor_aspect.html" xlink:title="mor_aspect" target="_top">
<polygon fill="#ffffff" stroke="transparent" points="646,-266.7 646,-352.7 762,-352.7 762,-266.7 646,-266.7"/>
<polygon fill="#f5f5f5" stroke="transparent" points="646,-329.7 646,-352.7 762,-352.7 762,-329.7 646,-329.7"/>
<polygon fill="none" stroke="#000000" points="646,-329.7 646,-352.7 762,-352.7 762,-329.7 646,-329.7"/>
<text text-anchor="start" x="651" y="-338.3" font-family="Helvetica,sans-Serif" font-weight="bold" font-size="11.00" fill="#000000">mor_aspect</text>
<text text-anchor="start" x="727.5219" y="-337.8" font-family="Helvetica,sans-Serif" font-size="11.00" fill="#000000">[table]</text>
<polygon fill="none" stroke="#000000" points="646,-307.7 646,-329.7 762,-329.7 762,-307.7 646,-307.7"/>
<image xlink:href="../../images/primaryKeys.png" width="11px" height="12px" preserveAspectRatio="xMinYMin meet" x="651" y="-324.7"/>
<text text-anchor="start" x="675" y="-314.8" font-family="Helvetica,sans-Serif" font-size="11.00" fill="#000000">mor_id</text>
<polygon fill="none" stroke="#000000" points="646,-285.7 646,-307.7 762,-307.7 762,-285.7 646,-285.7"/>
<image xlink:href="../../images/primaryKeys.png" width="11px" height="12px" preserveAspectRatio="xMinYMin meet" x="651" y="-302.7"/>
<text text-anchor="start" x="675" y="-292.8" font-family="Helvetica,sans-Serif" font-size="11.00" fill="#000000">aspect_id</text>
<polygon fill="#ffffff" stroke="transparent" points="646,-266.7 646,-285.7 689,-285.7 689,-266.7 646,-266.7"/>
<polygon fill="none" stroke="#000000" points="646,-266.7 646,-285.7 689,-285.7 689,-266.7 646,-266.7"/>
<text text-anchor="start" x="649" y="-272.8" font-family="Helvetica,sans-Serif" font-size="11.00" fill="#000000">&lt; 2</text>
<polygon fill="#ffffff" stroke="transparent" points="689,-266.7 689,-285.7 738,-285.7 738,-266.7 689,-266.7"/>
<polygon fill="none" stroke="#000000" points="689,-266.7 689,-285.7 738,-285.7 738,-266.7 689,-266.7"/>
<text text-anchor="start" x="702.6105" y="-272.8" font-family="Helvetica,sans-Serif" font-size="11.00" fill="#000000">0 rows</text>
<polygon fill="#ffffff" stroke="transparent" points="738,-266.7 738,-285.7 762,-285.7 762,-266.7 738,-266.7"/>
<polygon fill="none" stroke="#000000" points="738,-266.7 738,-285.7 762,-285.7 762,-266.7 738,-266.7"/>
<text text-anchor="start" x="752.8862" y="-272.8" font-family="Helvetica,sans-Serif" font-size="11.00" fill="#000000"> &#160;</text>
</a>
</g>
</g>
<!-- mor_aspect&#45;&gt;aspect -->
<g id="edge8" class="edge">
<title>mor_aspect:w&#45;&gt;aspect:e</title>
<path fill="none" stroke="#000000" d="M631.5227,-298.3206C592.5553,-308.065 602.0442,-359.5275 563,-391.7 537.0263,-413.1023 531.1555,-429.7 497.5,-429.7"/>
<polygon fill="#000000" stroke="#000000" points="638.0497,-297.59 646.4005,-300.2777 642.0248,-297.145 646,-296.7 646,-296.7 646,-296.7 642.0248,-297.145 645.5995,-293.1223 638.0497,-297.59 638.0497,-297.59"/>
<ellipse fill="none" stroke="#000000" cx="634.8695" cy="-297.946" rx="3.2" ry="3.2"/>
</g>
<!-- mor_aspect&#45;&gt;mo_relationship -->
<g id="edge9" class="edge">
<title>mor_aspect:w&#45;&gt;mo_relationship:e</title>
<path fill="none" stroke="#000000" d="M631.5069,-316.7069C598.0981,-306.7311 596.114,-262.7 553.5,-262.7"/>
<polygon fill="#000000" stroke="#000000" points="638.0746,-317.6101 645.5095,-322.2664 642.0373,-318.155 646,-318.7 646,-318.7 646,-318.7 642.0373,-318.155 646.4905,-315.1336 638.0746,-317.6101 638.0746,-317.6101"/>
<ellipse fill="none" stroke="#000000" cx="634.9044" cy="-317.1741" rx="3.2" ry="3.2"/>
</g>
<!-- moving_object_mo_dr -->
<g id="node10" class="node">
<title>moving_object_mo_dr</title>
<g id="a_node10"><a xlink:href="../../tables/moving_object_mo_dr.html" xlink:title="moving_object_mo_dr" target="_top">
<polygon fill="#ffffff" stroke="transparent" points="354.5,-320.2 354.5,-381.2 538.5,-381.2 538.5,-320.2 354.5,-320.2"/>
<polygon fill="#f5f5f5" stroke="transparent" points="354.5,-357.7 354.5,-380.7 538.5,-380.7 538.5,-357.7 354.5,-357.7"/>
<polygon fill="none" stroke="#000000" points="354.5,-357.7 354.5,-380.7 538.5,-380.7 538.5,-357.7 354.5,-357.7"/>
<text text-anchor="start" x="359.5" y="-366.3" font-family="Helvetica,sans-Serif" font-weight="bold" font-size="11.00" fill="#000000">moving_object_mo_dr</text>
<text text-anchor="start" x="504.0219" y="-365.8" font-family="Helvetica,sans-Serif" font-size="11.00" fill="#000000">[table]</text>
<polygon fill="none" stroke="#000000" points="354.5,-338.7 354.5,-357.7 538.5,-357.7 538.5,-338.7 354.5,-338.7"/>
<text text-anchor="start" x="357.5" y="-344.8" font-family="Helvetica,sans-Serif" font-size="11.00" fill="#000000">...</text>
<polygon fill="#ffffff" stroke="transparent" points="354.5,-319.7 354.5,-338.7 431.5,-338.7 431.5,-319.7 354.5,-319.7"/>
<polygon fill="none" stroke="#000000" points="354.5,-319.7 354.5,-338.7 431.5,-338.7 431.5,-319.7 354.5,-319.7"/>
<text text-anchor="start" x="357.5" y="-325.8" font-family="Helvetica,sans-Serif" font-size="11.00" fill="#000000">&lt; 2</text>
<polygon fill="#ffffff" stroke="transparent" points="431.5,-319.7 431.5,-338.7 497.5,-338.7 497.5,-319.7 431.5,-319.7"/>
<polygon fill="none" stroke="#000000" points="431.5,-319.7 431.5,-338.7 497.5,-338.7 497.5,-319.7 431.5,-319.7"/>
<text text-anchor="start" x="462.1105" y="-325.8" font-family="Helvetica,sans-Serif" font-size="11.00" fill="#000000">0 rows</text>
<polygon fill="#ffffff" stroke="transparent" points="497.5,-319.7 497.5,-338.7 538.5,-338.7 538.5,-319.7 497.5,-319.7"/>
<polygon fill="none" stroke="#000000" points="497.5,-319.7 497.5,-338.7 538.5,-338.7 538.5,-319.7 497.5,-319.7"/>
<text text-anchor="start" x="529.3862" y="-325.8" font-family="Helvetica,sans-Serif" font-size="11.00" fill="#000000"> &#160;</text>
</a>
</g>
</g>
<!-- moving_object_mo_dr&#45;&gt;moving_object -->
<g id="edge11" class="edge">
<title>moving_object_mo_dr:w&#45;&gt;moving_object:e</title>
<path fill="none" stroke="#000000" d="M339.8773,-347.7C321.803,-347.7 312.5391,-347.7 289,-347.7"/>
<polygon fill="#000000" stroke="#000000" points="346.5,-347.7001 354.5,-351.3 350.5,-347.7 354.5,-347.7 354.5,-347.7 354.5,-347.7 350.5,-347.7 354.5,-344.1 346.5,-347.7001 346.5,-347.7001"/>
<ellipse fill="none" stroke="#000000" cx="343.3" cy="-347.7001" rx="3.2" ry="3.2"/>
</g>
</g>
</svg>
