<?xml version="1.0" encoding="UTF-8" standalone="no"?>
<!DOCTYPE svg PUBLIC "-//W3C//DTD SVG 1.1//EN"
 "http://www.w3.org/Graphics/SVG/1.1/DTD/svg11.dtd">
<!-- Generated by graphviz version 2.40.1 (20161225.0304)
 -->
<!-- Title: oneDegreeRelationshipsDiagram Pages: 1 -->
<svg width="448pt" height="263pt"
 viewBox="0.00 0.00 448.00 262.70" xmlns="http://www.w3.org/2000/svg" xmlns:xlink="http://www.w3.org/1999/xlink">
<g id="graph0" class="graph" transform="scale(1 1) rotate(0) translate(4 258.7)">
<title>oneDegreeRelationshipsDiagram</title>
<polygon fill="#ffffff" stroke="transparent" points="-4,4 -4,-258.7 444,-258.7 444,4 -4,4"/>
<text text-anchor="middle" x="72.4936" y="-7.3" font-family="Helvetica,sans-Serif" font-size="11.00" fill="#000000">Generated by SchemaSpy</text>
<!-- mo_relationship_mor_dr -->
<g id="node1" class="node">
<title>mo_relationship_mor_dr</title>
<g id="a_node1"><a xlink:href="../../tables/mo_relationship_mor_dr.html" xlink:title="mo_relationship_mor_dr" target="_top">
<polygon fill="#ffffff" stroke="transparent" points="204,-99.2 204,-189.2 432,-189.2 432,-99.2 204,-99.2"/>
<polygon fill="#f5f5f5" stroke="transparent" points="206,-164.2 206,-187.2 430,-187.2 430,-164.2 206,-164.2"/>
<polygon fill="none" stroke="#000000" points="206,-164.2 206,-187.2 430,-187.2 430,-164.2 206,-164.2"/>
<text text-anchor="start" x="211" y="-172.8" font-family="Helvetica,sans-Serif" font-weight="bold" font-size="11.00" fill="#000000">mo_relationship_mor_dr</text>
<text text-anchor="start" x="395.0437" y="-172.3" font-family="Helvetica,sans-Serif" font-size="11.00" fill="#000000">[table]</text>
<polygon fill="none" stroke="#000000" points="206,-142.2 206,-164.2 388,-164.2 388,-142.2 206,-142.2"/>
<image xlink:href="../../images/primaryKeys.png" width="11px" height="12px" preserveAspectRatio="xMinYMin meet" x="211" y="-159.2"/>
<text text-anchor="start" x="226" y="-149.3" font-family="Helvetica,sans-Serif" font-size="11.00" fill="#000000">mor_id</text>
<polygon fill="none" stroke="#000000" points="388,-142.2 388,-164.2 430,-164.2 430,-142.2 388,-142.2"/>
<text text-anchor="start" x="390.9644" y="-149.9" font-family="Helvetica,sans-Serif" font-size="11.00" fill="#000000">int4[10]</text>
<polygon fill="none" stroke="#000000" points="206,-120.2 206,-142.2 388,-142.2 388,-120.2 206,-120.2"/>
<image xlink:href="../../images/primaryKeys.png" width="11px" height="12px" preserveAspectRatio="xMinYMin meet" x="211" y="-137.2"/>
<text text-anchor="start" x="226" y="-127.3" font-family="Helvetica,sans-Serif" font-size="11.00" fill="#000000">rule_id</text>
<polygon fill="none" stroke="#000000" points="388,-120.2 388,-142.2 430,-142.2 430,-120.2 388,-120.2"/>
<text text-anchor="start" x="390.9644" y="-127.9" font-family="Helvetica,sans-Serif" font-size="11.00" fill="#000000">int4[10]</text>
<polygon fill="#ffffff" stroke="transparent" points="206,-101.2 206,-120.2 288,-120.2 288,-101.2 206,-101.2"/>
<polygon fill="none" stroke="#000000" points="206,-101.2 206,-120.2 288,-120.2 288,-101.2 206,-101.2"/>
<text text-anchor="start" x="209" y="-107.3" font-family="Helvetica,sans-Serif" font-size="11.00" fill="#000000">&lt; 2</text>
<polygon fill="#ffffff" stroke="transparent" points="288,-101.2 288,-120.2 388,-120.2 388,-101.2 288,-101.2"/>
<polygon fill="none" stroke="#000000" points="288,-101.2 288,-120.2 388,-120.2 388,-101.2 288,-101.2"/>
<text text-anchor="start" x="352.6105" y="-107.3" font-family="Helvetica,sans-Serif" font-size="11.00" fill="#000000">0 rows</text>
<polygon fill="#ffffff" stroke="transparent" points="388,-101.2 388,-120.2 430,-120.2 430,-101.2 388,-101.2"/>
<polygon fill="none" stroke="#000000" points="388,-101.2 388,-120.2 430,-120.2 430,-101.2 388,-101.2"/>
<text text-anchor="start" x="411.4053" y="-107.3" font-family="Helvetica,sans-Serif" font-size="11.00" fill="#000000">0 &gt;</text>
<polygon fill="none" stroke="#000000" stroke-width="2" points="205,-100.2 205,-188.2 431,-188.2 431,-100.2 205,-100.2"/>
</a>
</g>
</g>
<!-- mo_relationship -->
<g id="node2" class="node">
<title>mo_relationship</title>
<g id="a_node2"><a xlink:href="../../tables/mo_relationship.html" xlink:title="mo_relationship" target="_top">
<polygon fill="#ffffff" stroke="transparent" points="8,-123.7 8,-250.7 155,-250.7 155,-123.7 8,-123.7"/>
<polygon fill="#f5f5f5" stroke="transparent" points="8.5,-227.2 8.5,-250.2 155.5,-250.2 155.5,-227.2 8.5,-227.2"/>
<polygon fill="none" stroke="#000000" points="8.5,-227.2 8.5,-250.2 155.5,-250.2 155.5,-227.2 8.5,-227.2"/>
<text text-anchor="start" x="13.5" y="-235.8" font-family="Helvetica,sans-Serif" font-weight="bold" font-size="11.00" fill="#000000">mo_relationship</text>
<text text-anchor="start" x="121.0219" y="-235.3" font-family="Helvetica,sans-Serif" font-size="11.00" fill="#000000">[table]</text>
<polygon fill="none" stroke="#000000" points="8.5,-205.2 8.5,-227.2 155.5,-227.2 155.5,-205.2 8.5,-205.2"/>
<image xlink:href="../../images/primaryKeys.png" width="11px" height="12px" preserveAspectRatio="xMinYMin meet" x="13.5" y="-222.2"/>
<text text-anchor="start" x="37.5" y="-212.3" font-family="Helvetica,sans-Serif" font-size="11.00" fill="#000000">mor_id</text>
<polygon fill="#ffffff" stroke="transparent" points="8.5,-183.2 8.5,-205.2 155.5,-205.2 155.5,-183.2 8.5,-183.2"/>
<polygon fill="none" stroke="#000000" points="8.5,-183.2 8.5,-205.2 155.5,-205.2 155.5,-183.2 8.5,-183.2"/>
<image xlink:href="../../images/foreignKeys.png" width="11px" height="12px" preserveAspectRatio="xMinYMin meet" x="13.5" y="-200.2"/>
<text text-anchor="start" x="37.5" y="-190.3" font-family="Helvetica,sans-Serif" font-size="11.00" fill="#000000">mo_target</text>
<polygon fill="#ffffff" stroke="transparent" points="8.5,-161.2 8.5,-183.2 155.5,-183.2 155.5,-161.2 8.5,-161.2"/>
<polygon fill="none" stroke="#000000" points="8.5,-161.2 8.5,-183.2 155.5,-183.2 155.5,-161.2 8.5,-161.2"/>
<image xlink:href="../../images/foreignKeys.png" width="11px" height="12px" preserveAspectRatio="xMinYMin meet" x="13.5" y="-178.2"/>
<text text-anchor="start" x="37.5" y="-168.3" font-family="Helvetica,sans-Serif" font-size="11.00" fill="#000000">mo_source</text>
<polygon fill="none" stroke="#000000" points="8.5,-142.2 8.5,-161.2 155.5,-161.2 155.5,-142.2 8.5,-142.2"/>
<text text-anchor="start" x="11.5" y="-148.3" font-family="Helvetica,sans-Serif" font-size="11.00" fill="#000000">...</text>
<polygon fill="#ffffff" stroke="transparent" points="8.5,-123.2 8.5,-142.2 62.5,-142.2 62.5,-123.2 8.5,-123.2"/>
<polygon fill="none" stroke="#000000" points="8.5,-123.2 8.5,-142.2 62.5,-142.2 62.5,-123.2 8.5,-123.2"/>
<text text-anchor="start" x="11.5" y="-129.3" font-family="Helvetica,sans-Serif" font-size="11.00" fill="#000000">&lt; 2</text>
<polygon fill="#ffffff" stroke="transparent" points="62.5,-123.2 62.5,-142.2 117.5,-142.2 117.5,-123.2 62.5,-123.2"/>
<polygon fill="none" stroke="#000000" points="62.5,-123.2 62.5,-142.2 117.5,-142.2 117.5,-123.2 62.5,-123.2"/>
<text text-anchor="start" x="82.1105" y="-129.3" font-family="Helvetica,sans-Serif" font-size="11.00" fill="#000000">0 rows</text>
<polygon fill="#ffffff" stroke="transparent" points="117.5,-123.2 117.5,-142.2 155.5,-142.2 155.5,-123.2 117.5,-123.2"/>
<polygon fill="none" stroke="#000000" points="117.5,-123.2 117.5,-142.2 155.5,-142.2 155.5,-123.2 117.5,-123.2"/>
<text text-anchor="start" x="136.9053" y="-129.3" font-family="Helvetica,sans-Serif" font-size="11.00" fill="#000000">2 &gt;</text>
</a>
</g>
</g>
<!-- mo_relationship_mor_dr&#45;&gt;mo_relationship -->
<g id="edge1" class="edge">
<title>mo_relationship_mor_dr:w&#45;&gt;mo_relationship:e</title>
<path fill="none" stroke="#000000" d="M191.9816,-158.1435C175.738,-172.9952 185.2175,-216.2 155.5,-216.2"/>
<polygon fill="#000000" stroke="#000000" points="198.4554,-155.8606 207.1973,-156.5951 202.2277,-154.5303 206,-153.2 206,-153.2 206,-153.2 202.2277,-154.5303 204.8027,-149.8049 198.4554,-155.8606 198.4554,-155.8606"/>
<ellipse fill="none" stroke="#000000" cx="195.4375" cy="-156.9248" rx="3.2" ry="3.2"/>
</g>
<!-- mor_dr -->
<g id="node3" class="node">
<title>mor_dr</title>
<g id="a_node3"><a xlink:href="../../tables/mor_dr.html" xlink:title="mor_dr" target="_top">
<polygon fill="#ffffff" stroke="transparent" points="38.5,-38.2 38.5,-102.2 124.5,-102.2 124.5,-38.2 38.5,-38.2"/>
<polygon fill="#f5f5f5" stroke="transparent" points="38.5,-79.2 38.5,-102.2 124.5,-102.2 124.5,-79.2 38.5,-79.2"/>
<polygon fill="none" stroke="#000000" points="38.5,-79.2 38.5,-102.2 124.5,-102.2 124.5,-79.2 38.5,-79.2"/>
<text text-anchor="start" x="43.5" y="-87.8" font-family="Helvetica,sans-Serif" font-weight="bold" font-size="11.00" fill="#000000">mor_dr</text>
<text text-anchor="start" x="90.0219" y="-87.3" font-family="Helvetica,sans-Serif" font-size="11.00" fill="#000000">[table]</text>
<polygon fill="none" stroke="#000000" points="38.5,-57.2 38.5,-79.2 124.5,-79.2 124.5,-57.2 38.5,-57.2"/>
<image xlink:href="../../images/primaryKeys.png" width="11px" height="12px" preserveAspectRatio="xMinYMin meet" x="43.5" y="-74.2"/>
<text text-anchor="start" x="67.5" y="-64.3" font-family="Helvetica,sans-Serif" font-size="11.00" fill="#000000">rule_id</text>
<polygon fill="#ffffff" stroke="transparent" points="38.5,-38.2 38.5,-57.2 62.5,-57.2 62.5,-38.2 38.5,-38.2"/>
<polygon fill="none" stroke="#000000" points="38.5,-38.2 38.5,-57.2 62.5,-57.2 62.5,-38.2 38.5,-38.2"/>
<text text-anchor="start" x="41.5" y="-44.3" font-family="Helvetica,sans-Serif" font-size="11.00" fill="#000000">&lt; 1</text>
<polygon fill="#ffffff" stroke="transparent" points="62.5,-38.2 62.5,-57.2 101.5,-57.2 101.5,-38.2 62.5,-38.2"/>
<polygon fill="none" stroke="#000000" points="62.5,-38.2 62.5,-57.2 101.5,-57.2 101.5,-38.2 62.5,-38.2"/>
<text text-anchor="start" x="66.1105" y="-44.3" font-family="Helvetica,sans-Serif" font-size="11.00" fill="#000000">0 rows</text>
<polygon fill="#ffffff" stroke="transparent" points="101.5,-38.2 101.5,-57.2 124.5,-57.2 124.5,-38.2 101.5,-38.2"/>
<polygon fill="none" stroke="#000000" points="101.5,-38.2 101.5,-57.2 124.5,-57.2 124.5,-38.2 101.5,-38.2"/>
<text text-anchor="start" x="105.9053" y="-44.3" font-family="Helvetica,sans-Serif" font-size="11.00" fill="#000000">1 &gt;</text>
</a>
</g>
</g>
<!-- mo_relationship_mor_dr&#45;&gt;mor_dr -->
<g id="edge2" class="edge">
<title>mo_relationship_mor_dr:w&#45;&gt;mor_dr:e</title>
<path fill="none" stroke="#000000" d="M191.6265,-128.6523C161.8361,-116.866 164.7386,-68.2 124.5,-68.2"/>
<polygon fill="#000000" stroke="#000000" points="198.1228,-129.8037 205.3717,-134.7447 202.0614,-130.5019 206,-131.2 206,-131.2 206,-131.2 202.0614,-130.5019 206.6283,-127.6553 198.1228,-129.8037 198.1228,-129.8037"/>
<ellipse fill="none" stroke="#000000" cx="194.9719" cy="-129.2452" rx="3.2" ry="3.2"/>
</g>
</g>
</svg>
