<?xml version="1.0" encoding="UTF-8" standalone="no"?>
<!DOCTYPE svg PUBLIC "-//W3C//DTD SVG 1.1//EN"
 "http://www.w3.org/Graphics/SVG/1.1/DTD/svg11.dtd">
<!-- Generated by graphviz version 2.40.1 (20161225.0304)
 -->
<!-- Title: twoDegreesRelationshipsDiagram Pages: 1 -->
<svg width="604pt" height="357pt"
 viewBox="0.00 0.00 604.00 357.20" xmlns="http://www.w3.org/2000/svg" xmlns:xlink="http://www.w3.org/1999/xlink">
<g id="graph0" class="graph" transform="scale(1 1) rotate(0) translate(4 353.2)">
<title>twoDegreesRelationshipsDiagram</title>
<polygon fill="#ffffff" stroke="transparent" points="-4,4 -4,-353.2 600,-353.2 600,4 -4,4"/>
<text text-anchor="middle" x="72.4936" y="-7.3" font-family="Helvetica,sans-Serif" font-size="11.00" fill="#000000">Generated by SchemaSpy</text>
<!-- mat -->
<g id="node1" class="node">
<title>mat</title>
<g id="a_node1"><a xlink:href="../../tables/mat.html" xlink:title="mat" target="_top">
<polygon fill="#ffffff" stroke="transparent" points="439,-284.2 439,-345.2 553,-345.2 553,-284.2 439,-284.2"/>
<polygon fill="#f5f5f5" stroke="transparent" points="439,-321.7 439,-344.7 553,-344.7 553,-321.7 439,-321.7"/>
<polygon fill="none" stroke="#000000" points="439,-321.7 439,-344.7 553,-344.7 553,-321.7 439,-321.7"/>
<text text-anchor="start" x="444" y="-330.3" font-family="Helvetica,sans-Serif" font-weight="bold" font-size="11.00" fill="#000000">mat</text>
<text text-anchor="start" x="518.0437" y="-329.8" font-family="Helvetica,sans-Serif" font-size="11.00" fill="#000000">[table]</text>
<polygon fill="none" stroke="#000000" points="439,-302.7 439,-321.7 553,-321.7 553,-302.7 439,-302.7"/>
<text text-anchor="start" x="442" y="-308.8" font-family="Helvetica,sans-Serif" font-size="11.00" fill="#000000">...</text>
<polygon fill="#ffffff" stroke="transparent" points="439,-283.7 439,-302.7 460,-302.7 460,-283.7 439,-283.7"/>
<polygon fill="none" stroke="#000000" points="439,-283.7 439,-302.7 460,-302.7 460,-283.7 439,-283.7"/>
<text text-anchor="start" x="441.7027" y="-289.8" font-family="Helvetica,sans-Serif" font-size="11.00" fill="#000000">&lt; 1</text>
<polygon fill="#ffffff" stroke="transparent" points="460,-283.7 460,-302.7 532,-302.7 532,-283.7 460,-283.7"/>
<polygon fill="none" stroke="#000000" points="460,-283.7 460,-302.7 532,-302.7 532,-283.7 460,-283.7"/>
<text text-anchor="start" x="462.9896" y="-289.8" font-family="Helvetica,sans-Serif" font-size="11.00" fill="#000000">292.481 rows</text>
<polygon fill="#ffffff" stroke="transparent" points="532,-283.7 532,-302.7 553,-302.7 553,-283.7 532,-283.7"/>
<polygon fill="none" stroke="#000000" points="532,-283.7 532,-302.7 553,-302.7 553,-283.7 532,-283.7"/>
<text text-anchor="start" x="534.7026" y="-289.8" font-family="Helvetica,sans-Serif" font-size="11.00" fill="#000000">3 &gt;</text>
</a>
</g>
</g>
<!-- moving_object -->
<g id="node2" class="node">
<title>moving_object</title>
<g id="a_node2"><a xlink:href="../../tables/moving_object.html" xlink:title="moving_object" target="_top">
<polygon fill="#ffffff" stroke="transparent" points="219,-73.7 219,-181.7 355,-181.7 355,-73.7 219,-73.7"/>
<polygon fill="#f5f5f5" stroke="transparent" points="219,-158.7 219,-181.7 355,-181.7 355,-158.7 219,-158.7"/>
<polygon fill="none" stroke="#000000" points="219,-158.7 219,-181.7 355,-181.7 355,-158.7 219,-158.7"/>
<text text-anchor="start" x="224" y="-167.3" font-family="Helvetica,sans-Serif" font-weight="bold" font-size="11.00" fill="#000000">moving_object</text>
<text text-anchor="start" x="320.5219" y="-166.8" font-family="Helvetica,sans-Serif" font-size="11.00" fill="#000000">[table]</text>
<polygon fill="none" stroke="#000000" points="219,-136.7 219,-158.7 355,-158.7 355,-136.7 219,-136.7"/>
<image xlink:href="../../images/primaryKeys.png" width="11px" height="12px" preserveAspectRatio="xMinYMin meet" x="224" y="-153.7"/>
<text text-anchor="start" x="248" y="-143.8" font-family="Helvetica,sans-Serif" font-size="11.00" fill="#000000">mo_id</text>
<polygon fill="#ffffff" stroke="transparent" points="219,-114.7 219,-136.7 355,-136.7 355,-114.7 219,-114.7"/>
<polygon fill="none" stroke="#000000" points="219,-114.7 219,-136.7 355,-136.7 355,-114.7 219,-114.7"/>
<text text-anchor="start" x="248" y="-121.8" font-family="Helvetica,sans-Serif" font-size="11.00" fill="#000000">description</text>
<polygon fill="#ffffff" stroke="transparent" points="219,-92.7 219,-114.7 355,-114.7 355,-92.7 219,-92.7"/>
<polygon fill="none" stroke="#000000" points="219,-92.7 219,-114.7 355,-114.7 355,-92.7 219,-92.7"/>
<image xlink:href="../../images/foreignKeys.png" width="11px" height="12px" preserveAspectRatio="xMinYMin meet" x="224" y="-109.7"/>
<text text-anchor="start" x="248" y="-99.8" font-family="Helvetica,sans-Serif" font-size="11.00" fill="#000000">mo_type_id</text>
<polygon fill="#ffffff" stroke="transparent" points="219,-73.7 219,-92.7 257,-92.7 257,-73.7 219,-73.7"/>
<polygon fill="none" stroke="#000000" points="219,-73.7 219,-92.7 257,-92.7 257,-73.7 219,-73.7"/>
<text text-anchor="start" x="222" y="-79.8" font-family="Helvetica,sans-Serif" font-size="11.00" fill="#000000">&lt; 1</text>
<polygon fill="#ffffff" stroke="transparent" points="257,-73.7 257,-92.7 325,-92.7 325,-73.7 257,-73.7"/>
<polygon fill="none" stroke="#000000" points="257,-73.7 257,-92.7 325,-92.7 325,-73.7 257,-73.7"/>
<text text-anchor="start" x="268.2089" y="-79.8" font-family="Helvetica,sans-Serif" font-size="11.00" fill="#000000">2.000 rows</text>
<polygon fill="#ffffff" stroke="transparent" points="325,-73.7 325,-92.7 355,-92.7 355,-73.7 325,-73.7"/>
<polygon fill="none" stroke="#000000" points="325,-73.7 325,-92.7 355,-92.7 355,-73.7 325,-73.7"/>
<text text-anchor="start" x="336.4053" y="-79.8" font-family="Helvetica,sans-Serif" font-size="11.00" fill="#000000">5 &gt;</text>
</a>
</g>
</g>
<!-- mat&#45;&gt;moving_object -->
<g id="edge1" class="edge">
<title>mat:w&#45;&gt;moving_object:e</title>
<path fill="none" stroke="#000000" d="M424.6754,-309.2717C411.3706,-303.9044 406.8238,-290.1912 396,-273.7 363.6864,-224.4671 413.8901,-147.7 355,-147.7"/>
<polygon fill="#000000" stroke="#000000" points="431.1125,-310.3629 438.3983,-315.2494 435.0563,-311.0314 439,-311.7 439,-311.7 439,-311.7 435.0563,-311.0314 439.6017,-308.1506 431.1125,-310.3629 431.1125,-310.3629"/>
<ellipse fill="none" stroke="#000000" cx="427.9575" cy="-309.828" rx="3.2" ry="3.2"/>
</g>
<!-- mo_type -->
<g id="node5" class="node">
<title>mo_type</title>
<g id="a_node5"><a xlink:href="../../tables/mo_type.html" xlink:title="mo_type" target="_top">
<polygon fill="#ffffff" stroke="transparent" points="8,-49.7 8,-139.7 170,-139.7 170,-49.7 8,-49.7"/>
<polygon fill="#f5f5f5" stroke="transparent" points="10,-114.7 10,-137.7 168,-137.7 168,-114.7 10,-114.7"/>
<polygon fill="none" stroke="#000000" points="10,-114.7 10,-137.7 168,-137.7 168,-114.7 10,-114.7"/>
<text text-anchor="start" x="15" y="-123.3" font-family="Helvetica,sans-Serif" font-weight="bold" font-size="11.00" fill="#000000">mo_type</text>
<text text-anchor="start" x="133.0437" y="-122.8" font-family="Helvetica,sans-Serif" font-size="11.00" fill="#000000">[table]</text>
<polygon fill="none" stroke="#000000" points="10,-92.7 10,-114.7 107,-114.7 107,-92.7 10,-92.7"/>
<image xlink:href="../../images/primaryKeys.png" width="11px" height="12px" preserveAspectRatio="xMinYMin meet" x="15" y="-109.7"/>
<text text-anchor="start" x="30" y="-99.8" font-family="Helvetica,sans-Serif" font-size="11.00" fill="#000000">mo_type_id</text>
<polygon fill="none" stroke="#000000" points="107,-92.7 107,-114.7 168,-114.7 168,-92.7 107,-92.7"/>
<text text-anchor="start" x="110" y="-100.4" font-family="Helvetica,sans-Serif" font-size="11.00" fill="#000000">int4[10]</text>
<polygon fill="none" stroke="#000000" points="10,-70.7 10,-92.7 107,-92.7 107,-70.7 10,-70.7"/>
<text text-anchor="start" x="30" y="-77.8" font-family="Helvetica,sans-Serif" font-size="11.00" fill="#000000">description</text>
<polygon fill="none" stroke="#000000" points="107,-70.7 107,-92.7 168,-92.7 168,-70.7 107,-70.7"/>
<text text-anchor="start" x="109.994" y="-78.4" font-family="Helvetica,sans-Serif" font-size="11.00" fill="#000000">varchar[50]</text>
<polygon fill="#ffffff" stroke="transparent" points="10,-51.7 10,-70.7 53,-70.7 53,-51.7 10,-51.7"/>
<polygon fill="none" stroke="#000000" points="10,-51.7 10,-70.7 53,-70.7 53,-51.7 10,-51.7"/>
<text text-anchor="start" x="13" y="-57.8" font-family="Helvetica,sans-Serif" font-size="11.00" fill="#000000">&lt; 0</text>
<polygon fill="#ffffff" stroke="transparent" points="53,-51.7 53,-70.7 107,-70.7 107,-51.7 53,-51.7"/>
<polygon fill="none" stroke="#000000" points="53,-51.7 53,-70.7 107,-70.7 107,-51.7 53,-51.7"/>
<text text-anchor="start" x="77.1105" y="-57.8" font-family="Helvetica,sans-Serif" font-size="11.00" fill="#000000">1 row</text>
<polygon fill="#ffffff" stroke="transparent" points="107,-51.7 107,-70.7 168,-70.7 168,-51.7 107,-51.7"/>
<polygon fill="none" stroke="#000000" points="107,-51.7 107,-70.7 168,-70.7 168,-51.7 107,-51.7"/>
<text text-anchor="start" x="149.4053" y="-57.8" font-family="Helvetica,sans-Serif" font-size="11.00" fill="#000000">1 &gt;</text>
<polygon fill="none" stroke="#000000" stroke-width="2" points="9,-50.7 9,-138.7 169,-138.7 169,-50.7 9,-50.7"/>
</a>
</g>
</g>
<!-- moving_object&#45;&gt;mo_type -->
<g id="edge5" class="edge">
<title>moving_object:w&#45;&gt;mo_type:e</title>
<path fill="none" stroke="#000000" d="M204.276,-103.7C192.2815,-103.7 184.8229,-103.7 168,-103.7"/>
<polygon fill="#000000" stroke="#000000" points="211,-103.7001 219,-107.3 215,-103.7 219,-103.7 219,-103.7 219,-103.7 215,-103.7 219,-100.1 211,-103.7001 211,-103.7001"/>
<ellipse fill="none" stroke="#000000" cx="207.8" cy="-103.7001" rx="3.2" ry="3.2"/>
</g>
<!-- mo_aspect -->
<g id="node3" class="node">
<title>mo_aspect</title>
<g id="a_node3"><a xlink:href="../../tables/mo_aspect.html" xlink:title="mo_aspect" target="_top">
<polygon fill="#ffffff" stroke="transparent" points="441,-202.2 441,-263.2 551,-263.2 551,-202.2 441,-202.2"/>
<polygon fill="#f5f5f5" stroke="transparent" points="441,-239.7 441,-262.7 551,-262.7 551,-239.7 441,-239.7"/>
<polygon fill="none" stroke="#000000" points="441,-239.7 441,-262.7 551,-262.7 551,-239.7 441,-239.7"/>
<text text-anchor="start" x="446" y="-248.3" font-family="Helvetica,sans-Serif" font-weight="bold" font-size="11.00" fill="#000000">mo_aspect</text>
<text text-anchor="start" x="516.5219" y="-247.8" font-family="Helvetica,sans-Serif" font-size="11.00" fill="#000000">[table]</text>
<polygon fill="none" stroke="#000000" points="441,-220.7 441,-239.7 551,-239.7 551,-220.7 441,-220.7"/>
<text text-anchor="start" x="444" y="-226.8" font-family="Helvetica,sans-Serif" font-size="11.00" fill="#000000">...</text>
<polygon fill="#ffffff" stroke="transparent" points="441,-201.7 441,-220.7 471,-220.7 471,-201.7 441,-201.7"/>
<polygon fill="none" stroke="#000000" points="441,-201.7 441,-220.7 471,-220.7 471,-201.7 441,-201.7"/>
<text text-anchor="start" x="444" y="-207.8" font-family="Helvetica,sans-Serif" font-size="11.00" fill="#000000">&lt; 2</text>
<polygon fill="#ffffff" stroke="transparent" points="471,-201.7 471,-220.7 534,-220.7 534,-201.7 471,-201.7"/>
<polygon fill="none" stroke="#000000" points="471,-201.7 471,-220.7 534,-220.7 534,-201.7 471,-201.7"/>
<text text-anchor="start" x="477.2089" y="-207.8" font-family="Helvetica,sans-Serif" font-size="11.00" fill="#000000">2.000 rows</text>
<polygon fill="#ffffff" stroke="transparent" points="534,-201.7 534,-220.7 551,-220.7 551,-201.7 534,-201.7"/>
<polygon fill="none" stroke="#000000" points="534,-201.7 534,-220.7 551,-220.7 551,-201.7 534,-201.7"/>
<text text-anchor="start" x="541.8862" y="-207.8" font-family="Helvetica,sans-Serif" font-size="11.00" fill="#000000"> &#160;</text>
</a>
</g>
</g>
<!-- mo_aspect&#45;&gt;moving_object -->
<g id="edge2" class="edge">
<title>mo_aspect:w&#45;&gt;moving_object:e</title>
<path fill="none" stroke="#000000" d="M426.7314,-226.8822C413.9036,-220.7585 410.6617,-205.6623 396,-191.7 376.6433,-173.2667 381.7296,-147.7 355,-147.7"/>
<polygon fill="#000000" stroke="#000000" points="433.1516,-228.15 440.3025,-233.2318 437.0758,-228.925 441,-229.7 441,-229.7 441,-229.7 437.0758,-228.925 441.6975,-226.1682 433.1516,-228.15 433.1516,-228.15"/>
<ellipse fill="none" stroke="#000000" cx="430.0122" cy="-227.5301" rx="3.2" ry="3.2"/>
</g>
<!-- mo_relationship -->
<g id="node4" class="node">
<title>mo_relationship</title>
<g id="a_node4"><a xlink:href="../../tables/mo_relationship.html" xlink:title="mo_relationship" target="_top">
<polygon fill="#ffffff" stroke="transparent" points="422.5,-120.2 422.5,-181.2 569.5,-181.2 569.5,-120.2 422.5,-120.2"/>
<polygon fill="#f5f5f5" stroke="transparent" points="423,-157.7 423,-180.7 570,-180.7 570,-157.7 423,-157.7"/>
<polygon fill="none" stroke="#000000" points="423,-157.7 423,-180.7 570,-180.7 570,-157.7 423,-157.7"/>
<text text-anchor="start" x="428" y="-166.3" font-family="Helvetica,sans-Serif" font-weight="bold" font-size="11.00" fill="#000000">mo_relationship</text>
<text text-anchor="start" x="535.5219" y="-165.8" font-family="Helvetica,sans-Serif" font-size="11.00" fill="#000000">[table]</text>
<polygon fill="none" stroke="#000000" points="423,-138.7 423,-157.7 570,-157.7 570,-138.7 423,-138.7"/>
<text text-anchor="start" x="426" y="-144.8" font-family="Helvetica,sans-Serif" font-size="11.00" fill="#000000">...</text>
<polygon fill="#ffffff" stroke="transparent" points="423,-119.7 423,-138.7 477,-138.7 477,-119.7 423,-119.7"/>
<polygon fill="none" stroke="#000000" points="423,-119.7 423,-138.7 477,-138.7 477,-119.7 423,-119.7"/>
<text text-anchor="start" x="426" y="-125.8" font-family="Helvetica,sans-Serif" font-size="11.00" fill="#000000">&lt; 2</text>
<polygon fill="#ffffff" stroke="transparent" points="477,-119.7 477,-138.7 532,-138.7 532,-119.7 477,-119.7"/>
<polygon fill="none" stroke="#000000" points="477,-119.7 477,-138.7 532,-138.7 532,-119.7 477,-119.7"/>
<text text-anchor="start" x="496.6105" y="-125.8" font-family="Helvetica,sans-Serif" font-size="11.00" fill="#000000">0 rows</text>
<polygon fill="#ffffff" stroke="transparent" points="532,-119.7 532,-138.7 570,-138.7 570,-119.7 532,-119.7"/>
<polygon fill="none" stroke="#000000" points="532,-119.7 532,-138.7 570,-138.7 570,-119.7 532,-119.7"/>
<text text-anchor="start" x="551.4053" y="-125.8" font-family="Helvetica,sans-Serif" font-size="11.00" fill="#000000">2 &gt;</text>
</a>
</g>
</g>
<!-- mo_relationship&#45;&gt;moving_object -->
<g id="edge3" class="edge">
<title>mo_relationship:w&#45;&gt;moving_object:e</title>
<path fill="none" stroke="#000000" d="M408.6409,-145.0468C389.3306,-141.8937 379.7917,-142.7781 355,-147.7"/>
<polygon fill="#000000" stroke="#000000" points="415.1332,-146.2464 422.3459,-151.2401 419.0666,-146.9732 423,-147.7 423,-147.7 423,-147.7 419.0666,-146.9732 423.6541,-144.1599 415.1332,-146.2464 415.1332,-146.2464"/>
<ellipse fill="none" stroke="#000000" cx="411.9864" cy="-145.6649" rx="3.2" ry="3.2"/>
</g>
<!-- mo_relationship&#45;&gt;moving_object -->
<g id="edge4" class="edge">
<title>mo_relationship:w&#45;&gt;moving_object:e</title>
<path fill="none" stroke="#000000" d="M408.9174,-150.7425C389.4211,-154.4837 379.9097,-153.4695 355,-147.7"/>
<polygon fill="#000000" stroke="#000000" points="415.1804,-149.3895 423.7603,-151.2188 419.0902,-148.5447 423,-147.7 423,-147.7 423,-147.7 419.0902,-148.5447 422.2397,-144.1812 415.1804,-149.3895 415.1804,-149.3895"/>
<ellipse fill="none" stroke="#000000" cx="412.0526" cy="-150.0652" rx="3.2" ry="3.2"/>
</g>
<!-- moving_object_mo_dr -->
<g id="node6" class="node">
<title>moving_object_mo_dr</title>
<g id="a_node6"><a xlink:href="../../tables/moving_object_mo_dr.html" xlink:title="moving_object_mo_dr" target="_top">
<polygon fill="#ffffff" stroke="transparent" points="404,-38.2 404,-99.2 588,-99.2 588,-38.2 404,-38.2"/>
<polygon fill="#f5f5f5" stroke="transparent" points="404,-75.7 404,-98.7 588,-98.7 588,-75.7 404,-75.7"/>
<polygon fill="none" stroke="#000000" points="404,-75.7 404,-98.7 588,-98.7 588,-75.7 404,-75.7"/>
<text text-anchor="start" x="409" y="-84.3" font-family="Helvetica,sans-Serif" font-weight="bold" font-size="11.00" fill="#000000">moving_object_mo_dr</text>
<text text-anchor="start" x="553.5219" y="-83.8" font-family="Helvetica,sans-Serif" font-size="11.00" fill="#000000">[table]</text>
<polygon fill="none" stroke="#000000" points="404,-56.7 404,-75.7 588,-75.7 588,-56.7 404,-56.7"/>
<text text-anchor="start" x="407" y="-62.8" font-family="Helvetica,sans-Serif" font-size="11.00" fill="#000000">...</text>
<polygon fill="#ffffff" stroke="transparent" points="404,-37.7 404,-56.7 481,-56.7 481,-37.7 404,-37.7"/>
<polygon fill="none" stroke="#000000" points="404,-37.7 404,-56.7 481,-56.7 481,-37.7 404,-37.7"/>
<text text-anchor="start" x="407" y="-43.8" font-family="Helvetica,sans-Serif" font-size="11.00" fill="#000000">&lt; 2</text>
<polygon fill="#ffffff" stroke="transparent" points="481,-37.7 481,-56.7 547,-56.7 547,-37.7 481,-37.7"/>
<polygon fill="none" stroke="#000000" points="481,-37.7 481,-56.7 547,-56.7 547,-37.7 481,-37.7"/>
<text text-anchor="start" x="511.6105" y="-43.8" font-family="Helvetica,sans-Serif" font-size="11.00" fill="#000000">0 rows</text>
<polygon fill="#ffffff" stroke="transparent" points="547,-37.7 547,-56.7 588,-56.7 588,-37.7 547,-37.7"/>
<polygon fill="none" stroke="#000000" points="547,-37.7 547,-56.7 588,-56.7 588,-37.7 547,-37.7"/>
<text text-anchor="start" x="578.8862" y="-43.8" font-family="Helvetica,sans-Serif" font-size="11.00" fill="#000000"> &#160;</text>
</a>
</g>
</g>
<!-- moving_object_mo_dr&#45;&gt;moving_object -->
<g id="edge6" class="edge">
<title>moving_object_mo_dr:w&#45;&gt;moving_object:e</title>
<path fill="none" stroke="#000000" d="M390.0294,-70.3436C370.288,-87.6902 391.3194,-147.7 355,-147.7"/>
<polygon fill="#000000" stroke="#000000" points="396.4084,-68.2234 405.1355,-69.1162 400.2042,-66.9617 404,-65.7 404,-65.7 404,-65.7 400.2042,-66.9617 402.8645,-62.2838 396.4084,-68.2234 396.4084,-68.2234"/>
<ellipse fill="none" stroke="#000000" cx="393.3717" cy="-69.2327" rx="3.2" ry="3.2"/>
</g>
</g>
</svg>
