<?xml version="1.0" encoding="UTF-8" standalone="no"?>
<!DOCTYPE svg PUBLIC "-//W3C//DTD SVG 1.1//EN"
 "http://www.w3.org/Graphics/SVG/1.1/DTD/svg11.dtd">
<!-- Generated by graphviz version 2.40.1 (20161225.0304)
 -->
<!-- Title: oneDegreeRelationshipsDiagram Pages: 1 -->
<svg width="371pt" height="182pt"
 viewBox="0.00 0.00 371.00 182.20" xmlns="http://www.w3.org/2000/svg" xmlns:xlink="http://www.w3.org/1999/xlink">
<g id="graph0" class="graph" transform="scale(1 1) rotate(0) translate(4 178.2)">
<title>oneDegreeRelationshipsDiagram</title>
<polygon fill="#ffffff" stroke="transparent" points="-4,4 -4,-178.2 367,-178.2 367,4 -4,4"/>
<text text-anchor="middle" x="72.4936" y="-7.3" font-family="Helvetica,sans-Serif" font-size="11.00" fill="#000000">Generated by SchemaSpy</text>
<!-- moving_object -->
<g id="node1" class="node">
<title>moving_object</title>
<g id="a_node1"><a xlink:href="../../tables/moving_object.html" xlink:title="moving_object" target="_top">
<polygon fill="#ffffff" stroke="transparent" points="219,-62.2 219,-170.2 355,-170.2 355,-62.2 219,-62.2"/>
<polygon fill="#f5f5f5" stroke="transparent" points="219,-147.2 219,-170.2 355,-170.2 355,-147.2 219,-147.2"/>
<polygon fill="none" stroke="#000000" points="219,-147.2 219,-170.2 355,-170.2 355,-147.2 219,-147.2"/>
<text text-anchor="start" x="224" y="-155.8" font-family="Helvetica,sans-Serif" font-weight="bold" font-size="11.00" fill="#000000">moving_object</text>
<text text-anchor="start" x="320.5219" y="-155.3" font-family="Helvetica,sans-Serif" font-size="11.00" fill="#000000">[table]</text>
<polygon fill="none" stroke="#000000" points="219,-125.2 219,-147.2 355,-147.2 355,-125.2 219,-125.2"/>
<image xlink:href="../../images/primaryKeys.png" width="11px" height="12px" preserveAspectRatio="xMinYMin meet" x="224" y="-142.2"/>
<text text-anchor="start" x="248" y="-132.3" font-family="Helvetica,sans-Serif" font-size="11.00" fill="#000000">mo_id</text>
<polygon fill="#ffffff" stroke="transparent" points="219,-103.2 219,-125.2 355,-125.2 355,-103.2 219,-103.2"/>
<polygon fill="none" stroke="#000000" points="219,-103.2 219,-125.2 355,-125.2 355,-103.2 219,-103.2"/>
<text text-anchor="start" x="248" y="-110.3" font-family="Helvetica,sans-Serif" font-size="11.00" fill="#000000">description</text>
<polygon fill="#ffffff" stroke="transparent" points="219,-81.2 219,-103.2 355,-103.2 355,-81.2 219,-81.2"/>
<polygon fill="none" stroke="#000000" points="219,-81.2 219,-103.2 355,-103.2 355,-81.2 219,-81.2"/>
<image xlink:href="../../images/foreignKeys.png" width="11px" height="12px" preserveAspectRatio="xMinYMin meet" x="224" y="-98.2"/>
<text text-anchor="start" x="248" y="-88.3" font-family="Helvetica,sans-Serif" font-size="11.00" fill="#000000">mo_type_id</text>
<polygon fill="#ffffff" stroke="transparent" points="219,-62.2 219,-81.2 257,-81.2 257,-62.2 219,-62.2"/>
<polygon fill="none" stroke="#000000" points="219,-62.2 219,-81.2 257,-81.2 257,-62.2 219,-62.2"/>
<text text-anchor="start" x="222" y="-68.3" font-family="Helvetica,sans-Serif" font-size="11.00" fill="#000000">&lt; 1</text>
<polygon fill="#ffffff" stroke="transparent" points="257,-62.2 257,-81.2 325,-81.2 325,-62.2 257,-62.2"/>
<polygon fill="none" stroke="#000000" points="257,-62.2 257,-81.2 325,-81.2 325,-62.2 257,-62.2"/>
<text text-anchor="start" x="268.2089" y="-68.3" font-family="Helvetica,sans-Serif" font-size="11.00" fill="#000000">2.000 rows</text>
<polygon fill="#ffffff" stroke="transparent" points="325,-62.2 325,-81.2 355,-81.2 355,-62.2 325,-62.2"/>
<polygon fill="none" stroke="#000000" points="325,-62.2 325,-81.2 355,-81.2 355,-62.2 325,-62.2"/>
<text text-anchor="start" x="336.4053" y="-68.3" font-family="Helvetica,sans-Serif" font-size="11.00" fill="#000000">5 &gt;</text>
</a>
</g>
</g>
<!-- mo_type -->
<g id="node2" class="node">
<title>mo_type</title>
<g id="a_node2"><a xlink:href="../../tables/mo_type.html" xlink:title="mo_type" target="_top">
<polygon fill="#ffffff" stroke="transparent" points="8,-38.2 8,-128.2 170,-128.2 170,-38.2 8,-38.2"/>
<polygon fill="#f5f5f5" stroke="transparent" points="10,-103.2 10,-126.2 168,-126.2 168,-103.2 10,-103.2"/>
<polygon fill="none" stroke="#000000" points="10,-103.2 10,-126.2 168,-126.2 168,-103.2 10,-103.2"/>
<text text-anchor="start" x="15" y="-111.8" font-family="Helvetica,sans-Serif" font-weight="bold" font-size="11.00" fill="#000000">mo_type</text>
<text text-anchor="start" x="133.0437" y="-111.3" font-family="Helvetica,sans-Serif" font-size="11.00" fill="#000000">[table]</text>
<polygon fill="none" stroke="#000000" points="10,-81.2 10,-103.2 107,-103.2 107,-81.2 10,-81.2"/>
<image xlink:href="../../images/primaryKeys.png" width="11px" height="12px" preserveAspectRatio="xMinYMin meet" x="15" y="-98.2"/>
<text text-anchor="start" x="30" y="-88.3" font-family="Helvetica,sans-Serif" font-size="11.00" fill="#000000">mo_type_id</text>
<polygon fill="none" stroke="#000000" points="107,-81.2 107,-103.2 168,-103.2 168,-81.2 107,-81.2"/>
<text text-anchor="start" x="110" y="-88.9" font-family="Helvetica,sans-Serif" font-size="11.00" fill="#000000">int4[10]</text>
<polygon fill="none" stroke="#000000" points="10,-59.2 10,-81.2 107,-81.2 107,-59.2 10,-59.2"/>
<text text-anchor="start" x="30" y="-66.3" font-family="Helvetica,sans-Serif" font-size="11.00" fill="#000000">description</text>
<polygon fill="none" stroke="#000000" points="107,-59.2 107,-81.2 168,-81.2 168,-59.2 107,-59.2"/>
<text text-anchor="start" x="109.994" y="-66.9" font-family="Helvetica,sans-Serif" font-size="11.00" fill="#000000">varchar[50]</text>
<polygon fill="#ffffff" stroke="transparent" points="10,-40.2 10,-59.2 53,-59.2 53,-40.2 10,-40.2"/>
<polygon fill="none" stroke="#000000" points="10,-40.2 10,-59.2 53,-59.2 53,-40.2 10,-40.2"/>
<text text-anchor="start" x="13" y="-46.3" font-family="Helvetica,sans-Serif" font-size="11.00" fill="#000000">&lt; 0</text>
<polygon fill="#ffffff" stroke="transparent" points="53,-40.2 53,-59.2 107,-59.2 107,-40.2 53,-40.2"/>
<polygon fill="none" stroke="#000000" points="53,-40.2 53,-59.2 107,-59.2 107,-40.2 53,-40.2"/>
<text text-anchor="start" x="77.1105" y="-46.3" font-family="Helvetica,sans-Serif" font-size="11.00" fill="#000000">1 row</text>
<polygon fill="#ffffff" stroke="transparent" points="107,-40.2 107,-59.2 168,-59.2 168,-40.2 107,-40.2"/>
<polygon fill="none" stroke="#000000" points="107,-40.2 107,-59.2 168,-59.2 168,-40.2 107,-40.2"/>
<text text-anchor="start" x="149.4053" y="-46.3" font-family="Helvetica,sans-Serif" font-size="11.00" fill="#000000">1 &gt;</text>
<polygon fill="none" stroke="#000000" stroke-width="2" points="9,-39.2 9,-127.2 169,-127.2 169,-39.2 9,-39.2"/>
</a>
</g>
</g>
<!-- moving_object&#45;&gt;mo_type -->
<g id="edge1" class="edge">
<title>moving_object:w&#45;&gt;mo_type:e</title>
<path fill="none" stroke="#000000" d="M204.276,-92.2C192.2815,-92.2 184.8229,-92.2 168,-92.2"/>
<polygon fill="#000000" stroke="#000000" points="211,-92.2001 219,-95.8 215,-92.2 219,-92.2 219,-92.2 219,-92.2 215,-92.2 219,-88.6 211,-92.2001 211,-92.2001"/>
<ellipse fill="none" stroke="#000000" cx="207.8" cy="-92.2001" rx="3.2" ry="3.2"/>
</g>
</g>
</svg>
