<?xml version="1.0" encoding="UTF-8" standalone="no"?>
<!DOCTYPE svg PUBLIC "-//W3C//DTD SVG 1.1//EN"
 "http://www.w3.org/Graphics/SVG/1.1/DTD/svg11.dtd">
<!-- Generated by graphviz version 2.40.1 (20161225.0304)
 -->
<!-- Title: twoDegreesRelationshipsDiagram Pages: 1 -->
<svg width="686pt" height="611pt"
 viewBox="0.00 0.00 686.00 611.20" xmlns="http://www.w3.org/2000/svg" xmlns:xlink="http://www.w3.org/1999/xlink">
<g id="graph0" class="graph" transform="scale(1 1) rotate(0) translate(4 607.2)">
<title>twoDegreesRelationshipsDiagram</title>
<polygon fill="#ffffff" stroke="transparent" points="-4,4 -4,-607.2 682,-607.2 682,4 -4,4"/>
<text text-anchor="middle" x="72.4936" y="-7.3" font-family="Helvetica,sans-Serif" font-size="11.00" fill="#000000">Generated by SchemaSpy</text>
<!-- dependency_rule_dataset -->
<g id="node1" class="node">
<title>dependency_rule_dataset</title>
<g id="a_node1"><a xlink:href="../../tables/dependency_rule_dataset.html" xlink:title="dependency_rule_dataset" target="_top">
<polygon fill="#ffffff" stroke="transparent" points="210,-538.2 210,-599.2 421,-599.2 421,-538.2 210,-538.2"/>
<polygon fill="#f5f5f5" stroke="transparent" points="210.5,-575.7 210.5,-598.7 421.5,-598.7 421.5,-575.7 210.5,-575.7"/>
<polygon fill="none" stroke="#000000" points="210.5,-575.7 210.5,-598.7 421.5,-598.7 421.5,-575.7 210.5,-575.7"/>
<text text-anchor="start" x="215.5" y="-584.3" font-family="Helvetica,sans-Serif" font-weight="bold" font-size="11.00" fill="#000000">dependency_rule_dataset</text>
<text text-anchor="start" x="387.0219" y="-583.8" font-family="Helvetica,sans-Serif" font-size="11.00" fill="#000000">[table]</text>
<polygon fill="none" stroke="#000000" points="210.5,-556.7 210.5,-575.7 421.5,-575.7 421.5,-556.7 210.5,-556.7"/>
<text text-anchor="start" x="213.5" y="-562.8" font-family="Helvetica,sans-Serif" font-size="11.00" fill="#000000">...</text>
<polygon fill="#ffffff" stroke="transparent" points="210.5,-537.7 210.5,-556.7 301.5,-556.7 301.5,-537.7 210.5,-537.7"/>
<polygon fill="none" stroke="#000000" points="210.5,-537.7 210.5,-556.7 301.5,-556.7 301.5,-537.7 210.5,-537.7"/>
<text text-anchor="start" x="213.5" y="-543.8" font-family="Helvetica,sans-Serif" font-size="11.00" fill="#000000">&lt; 2</text>
<polygon fill="#ffffff" stroke="transparent" points="301.5,-537.7 301.5,-556.7 374.5,-556.7 374.5,-537.7 301.5,-537.7"/>
<polygon fill="none" stroke="#000000" points="301.5,-537.7 301.5,-556.7 374.5,-556.7 374.5,-537.7 301.5,-537.7"/>
<text text-anchor="start" x="339.1105" y="-543.8" font-family="Helvetica,sans-Serif" font-size="11.00" fill="#000000">0 rows</text>
<polygon fill="#ffffff" stroke="transparent" points="374.5,-537.7 374.5,-556.7 421.5,-556.7 421.5,-537.7 374.5,-537.7"/>
<polygon fill="none" stroke="#000000" points="374.5,-537.7 374.5,-556.7 421.5,-556.7 421.5,-537.7 374.5,-537.7"/>
<text text-anchor="start" x="412.3862" y="-543.8" font-family="Helvetica,sans-Serif" font-size="11.00" fill="#000000"> &#160;</text>
</a>
</g>
</g>
<!-- dependency_rule -->
<g id="node2" class="node">
<title>dependency_rule</title>
<g id="a_node2"><a xlink:href="../../tables/dependency_rule.html" xlink:title="dependency_rule" target="_top">
<polygon fill="#ffffff" stroke="transparent" points="8,-186.2 8,-269.2 161,-269.2 161,-186.2 8,-186.2"/>
<polygon fill="#f5f5f5" stroke="transparent" points="8.5,-245.7 8.5,-268.7 161.5,-268.7 161.5,-245.7 8.5,-245.7"/>
<polygon fill="none" stroke="#000000" points="8.5,-245.7 8.5,-268.7 161.5,-268.7 161.5,-245.7 8.5,-245.7"/>
<text text-anchor="start" x="13.5" y="-254.3" font-family="Helvetica,sans-Serif" font-weight="bold" font-size="11.00" fill="#000000">dependency_rule</text>
<text text-anchor="start" x="127.0219" y="-253.8" font-family="Helvetica,sans-Serif" font-size="11.00" fill="#000000">[table]</text>
<polygon fill="none" stroke="#000000" points="8.5,-223.7 8.5,-245.7 161.5,-245.7 161.5,-223.7 8.5,-223.7"/>
<image xlink:href="../../images/primaryKeys.png" width="11px" height="12px" preserveAspectRatio="xMinYMin meet" x="13.5" y="-240.7"/>
<text text-anchor="start" x="37.5" y="-230.8" font-family="Helvetica,sans-Serif" font-size="11.00" fill="#000000">rule_id</text>
<polygon fill="none" stroke="#000000" points="8.5,-204.7 8.5,-223.7 161.5,-223.7 161.5,-204.7 8.5,-204.7"/>
<text text-anchor="start" x="11.5" y="-210.8" font-family="Helvetica,sans-Serif" font-size="11.00" fill="#000000">...</text>
<polygon fill="#ffffff" stroke="transparent" points="8.5,-185.7 8.5,-204.7 61.5,-204.7 61.5,-185.7 8.5,-185.7"/>
<polygon fill="none" stroke="#000000" points="8.5,-185.7 8.5,-204.7 61.5,-204.7 61.5,-185.7 8.5,-185.7"/>
<text text-anchor="start" x="11.5" y="-191.8" font-family="Helvetica,sans-Serif" font-size="11.00" fill="#000000"> &#160;</text>
<polygon fill="#ffffff" stroke="transparent" points="61.5,-185.7 61.5,-204.7 119.5,-204.7 119.5,-185.7 61.5,-185.7"/>
<polygon fill="none" stroke="#000000" points="61.5,-185.7 61.5,-204.7 119.5,-204.7 119.5,-185.7 61.5,-185.7"/>
<text text-anchor="start" x="84.1105" y="-191.8" font-family="Helvetica,sans-Serif" font-size="11.00" fill="#000000">0 rows</text>
<polygon fill="#ffffff" stroke="transparent" points="119.5,-185.7 119.5,-204.7 161.5,-204.7 161.5,-185.7 119.5,-185.7"/>
<polygon fill="none" stroke="#000000" points="119.5,-185.7 119.5,-204.7 161.5,-204.7 161.5,-185.7 119.5,-185.7"/>
<text text-anchor="start" x="142.9053" y="-191.8" font-family="Helvetica,sans-Serif" font-size="11.00" fill="#000000">7 &gt;</text>
</a>
</g>
</g>
<!-- dependency_rule_dataset&#45;&gt;dependency_rule -->
<g id="edge1" class="edge">
<title>dependency_rule_dataset:w&#45;&gt;dependency_rule:e</title>
<path fill="none" stroke="#000000" d="M196.6782,-560.5008C149.9853,-518.3905 230.3385,-234.7 161.5,-234.7"/>
<polygon fill="#000000" stroke="#000000" points="203.0122,-562.8834 209.2325,-569.0695 206.7561,-564.2917 210.5,-565.7 210.5,-565.7 210.5,-565.7 206.7561,-564.2917 211.7675,-562.3305 203.0122,-562.8834 203.0122,-562.8834"/>
<ellipse fill="none" stroke="#000000" cx="200.0171" cy="-561.7567" rx="3.2" ry="3.2"/>
</g>
<!-- mat_dr -->
<g id="node3" class="node">
<title>mat_dr</title>
<g id="a_node3"><a xlink:href="../../tables/mat_dr.html" xlink:title="mat_dr" target="_top">
<polygon fill="#ffffff" stroke="transparent" points="273,-456.2 273,-517.2 358,-517.2 358,-456.2 273,-456.2"/>
<polygon fill="#f5f5f5" stroke="transparent" points="273.5,-493.7 273.5,-516.7 358.5,-516.7 358.5,-493.7 273.5,-493.7"/>
<polygon fill="none" stroke="#000000" points="273.5,-493.7 273.5,-516.7 358.5,-516.7 358.5,-493.7 273.5,-493.7"/>
<text text-anchor="start" x="278.5" y="-502.3" font-family="Helvetica,sans-Serif" font-weight="bold" font-size="11.00" fill="#000000">mat_dr</text>
<text text-anchor="start" x="324.0219" y="-501.8" font-family="Helvetica,sans-Serif" font-size="11.00" fill="#000000">[table]</text>
<polygon fill="none" stroke="#000000" points="273.5,-474.7 273.5,-493.7 358.5,-493.7 358.5,-474.7 273.5,-474.7"/>
<text text-anchor="start" x="276.5" y="-480.8" font-family="Helvetica,sans-Serif" font-size="11.00" fill="#000000">...</text>
<polygon fill="#ffffff" stroke="transparent" points="273.5,-455.7 273.5,-474.7 296.5,-474.7 296.5,-455.7 273.5,-455.7"/>
<polygon fill="none" stroke="#000000" points="273.5,-455.7 273.5,-474.7 296.5,-474.7 296.5,-455.7 273.5,-455.7"/>
<text text-anchor="start" x="276.5" y="-461.8" font-family="Helvetica,sans-Serif" font-size="11.00" fill="#000000">&lt; 1</text>
<polygon fill="#ffffff" stroke="transparent" points="296.5,-455.7 296.5,-474.7 335.5,-474.7 335.5,-455.7 296.5,-455.7"/>
<polygon fill="none" stroke="#000000" points="296.5,-455.7 296.5,-474.7 335.5,-474.7 335.5,-455.7 296.5,-455.7"/>
<text text-anchor="start" x="300.1105" y="-461.8" font-family="Helvetica,sans-Serif" font-size="11.00" fill="#000000">0 rows</text>
<polygon fill="#ffffff" stroke="transparent" points="335.5,-455.7 335.5,-474.7 358.5,-474.7 358.5,-455.7 335.5,-455.7"/>
<polygon fill="none" stroke="#000000" points="335.5,-455.7 335.5,-474.7 358.5,-474.7 358.5,-455.7 335.5,-455.7"/>
<text text-anchor="start" x="339.9053" y="-461.8" font-family="Helvetica,sans-Serif" font-size="11.00" fill="#000000">1 &gt;</text>
</a>
</g>
</g>
<!-- mat_dr&#45;&gt;dependency_rule -->
<g id="edge2" class="edge">
<title>mat_dr:w&#45;&gt;dependency_rule:e</title>
<path fill="none" stroke="#000000" d="M262.8085,-483.3853C234.4502,-481.5699 221.1202,-471.598 202,-445.7 145.2836,-368.8787 256.9896,-234.7 161.5,-234.7"/>
<polygon fill="#000000" stroke="#000000" points="272.8181,-479.6782 272.5826,-487.6747 270.9833,-487.6276 271.2188,-479.6311 272.8181,-479.6782"/>
<polyline fill="none" stroke="#000000" points="273.5,-483.7 269.5017,-483.5823 "/>
<ellipse fill="none" stroke="#000000" cx="266.3031" cy="-483.4881" rx="3.2" ry="3.2"/>
</g>
<!-- mo_dr -->
<g id="node4" class="node">
<title>mo_dr</title>
<g id="a_node4"><a xlink:href="../../tables/mo_dr.html" xlink:title="mo_dr" target="_top">
<polygon fill="#ffffff" stroke="transparent" points="275.5,-374.2 275.5,-435.2 355.5,-435.2 355.5,-374.2 275.5,-374.2"/>
<polygon fill="#f5f5f5" stroke="transparent" points="275.5,-411.7 275.5,-434.7 355.5,-434.7 355.5,-411.7 275.5,-411.7"/>
<polygon fill="none" stroke="#000000" points="275.5,-411.7 275.5,-434.7 355.5,-434.7 355.5,-411.7 275.5,-411.7"/>
<text text-anchor="start" x="280.5" y="-420.3" font-family="Helvetica,sans-Serif" font-weight="bold" font-size="11.00" fill="#000000">mo_dr</text>
<text text-anchor="start" x="321.0219" y="-419.8" font-family="Helvetica,sans-Serif" font-size="11.00" fill="#000000">[table]</text>
<polygon fill="none" stroke="#000000" points="275.5,-392.7 275.5,-411.7 355.5,-411.7 355.5,-392.7 275.5,-392.7"/>
<text text-anchor="start" x="278.5" y="-398.8" font-family="Helvetica,sans-Serif" font-size="11.00" fill="#000000">...</text>
<polygon fill="#ffffff" stroke="transparent" points="275.5,-373.7 275.5,-392.7 296.5,-392.7 296.5,-373.7 275.5,-373.7"/>
<polygon fill="none" stroke="#000000" points="275.5,-373.7 275.5,-392.7 296.5,-392.7 296.5,-373.7 275.5,-373.7"/>
<text text-anchor="start" x="278.2027" y="-379.8" font-family="Helvetica,sans-Serif" font-size="11.00" fill="#000000">&lt; 1</text>
<polygon fill="#ffffff" stroke="transparent" points="296.5,-373.7 296.5,-392.7 334.5,-392.7 334.5,-373.7 296.5,-373.7"/>
<polygon fill="none" stroke="#000000" points="296.5,-373.7 296.5,-392.7 334.5,-392.7 334.5,-373.7 296.5,-373.7"/>
<text text-anchor="start" x="299.3053" y="-379.8" font-family="Helvetica,sans-Serif" font-size="11.00" fill="#000000">0 rows</text>
<polygon fill="#ffffff" stroke="transparent" points="334.5,-373.7 334.5,-392.7 355.5,-392.7 355.5,-373.7 334.5,-373.7"/>
<polygon fill="none" stroke="#000000" points="334.5,-373.7 334.5,-392.7 355.5,-392.7 355.5,-373.7 334.5,-373.7"/>
<text text-anchor="start" x="337.2027" y="-379.8" font-family="Helvetica,sans-Serif" font-size="11.00" fill="#000000">1 &gt;</text>
</a>
</g>
</g>
<!-- mo_dr&#45;&gt;dependency_rule -->
<g id="edge3" class="edge">
<title>mo_dr:w&#45;&gt;dependency_rule:e</title>
<path fill="none" stroke="#000000" d="M264.9931,-401.3864C235.9625,-399.5108 223.2573,-388.9928 202,-363.7 163.3369,-317.697 221.5925,-234.7 161.5,-234.7"/>
<polygon fill="#000000" stroke="#000000" points="274.8197,-397.6779 274.581,-405.6743 272.9817,-405.6266 273.2204,-397.6302 274.8197,-397.6779"/>
<polyline fill="none" stroke="#000000" points="275.5,-401.7 271.5018,-401.5806 "/>
<ellipse fill="none" stroke="#000000" cx="268.3032" cy="-401.4851" rx="3.2" ry="3.2"/>
</g>
<!-- mo_relationship_mor_dr -->
<g id="node5" class="node">
<title>mo_relationship_mor_dr</title>
<g id="a_node5"><a xlink:href="../../tables/mo_relationship_mor_dr.html" xlink:title="mo_relationship_mor_dr" target="_top">
<polygon fill="#ffffff" stroke="transparent" points="470,-235.7 470,-321.7 670,-321.7 670,-235.7 470,-235.7"/>
<polygon fill="#f5f5f5" stroke="transparent" points="470,-298.7 470,-321.7 670,-321.7 670,-298.7 470,-298.7"/>
<polygon fill="none" stroke="#000000" points="470,-298.7 470,-321.7 670,-321.7 670,-298.7 470,-298.7"/>
<text text-anchor="start" x="475" y="-307.3" font-family="Helvetica,sans-Serif" font-weight="bold" font-size="11.00" fill="#000000">mo_relationship_mor_dr</text>
<text text-anchor="start" x="635.5219" y="-306.8" font-family="Helvetica,sans-Serif" font-size="11.00" fill="#000000">[table]</text>
<polygon fill="none" stroke="#000000" points="470,-276.7 470,-298.7 670,-298.7 670,-276.7 470,-276.7"/>
<image xlink:href="../../images/primaryKeys.png" width="11px" height="12px" preserveAspectRatio="xMinYMin meet" x="475" y="-293.7"/>
<text text-anchor="start" x="499" y="-283.8" font-family="Helvetica,sans-Serif" font-size="11.00" fill="#000000">mor_id</text>
<polygon fill="none" stroke="#000000" points="470,-254.7 470,-276.7 670,-276.7 670,-254.7 470,-254.7"/>
<image xlink:href="../../images/primaryKeys.png" width="11px" height="12px" preserveAspectRatio="xMinYMin meet" x="475" y="-271.7"/>
<text text-anchor="start" x="499" y="-261.8" font-family="Helvetica,sans-Serif" font-size="11.00" fill="#000000">rule_id</text>
<polygon fill="#ffffff" stroke="transparent" points="470,-235.7 470,-254.7 555,-254.7 555,-235.7 470,-235.7"/>
<polygon fill="none" stroke="#000000" points="470,-235.7 470,-254.7 555,-254.7 555,-235.7 470,-235.7"/>
<text text-anchor="start" x="473" y="-241.8" font-family="Helvetica,sans-Serif" font-size="11.00" fill="#000000">&lt; 2</text>
<polygon fill="#ffffff" stroke="transparent" points="555,-235.7 555,-254.7 625,-254.7 625,-235.7 555,-235.7"/>
<polygon fill="none" stroke="#000000" points="555,-235.7 555,-254.7 625,-254.7 625,-235.7 555,-235.7"/>
<text text-anchor="start" x="589.6105" y="-241.8" font-family="Helvetica,sans-Serif" font-size="11.00" fill="#000000">0 rows</text>
<polygon fill="#ffffff" stroke="transparent" points="625,-235.7 625,-254.7 670,-254.7 670,-235.7 625,-235.7"/>
<polygon fill="none" stroke="#000000" points="625,-235.7 625,-254.7 670,-254.7 670,-235.7 625,-235.7"/>
<text text-anchor="start" x="660.8862" y="-241.8" font-family="Helvetica,sans-Serif" font-size="11.00" fill="#000000"> &#160;</text>
</a>
</g>
</g>
<!-- mo_relationship -->
<g id="node6" class="node">
<title>mo_relationship</title>
<g id="a_node6"><a xlink:href="../../tables/mo_relationship.html" xlink:title="mo_relationship" target="_top">
<polygon fill="#ffffff" stroke="transparent" points="242,-292.2 242,-353.2 389,-353.2 389,-292.2 242,-292.2"/>
<polygon fill="#f5f5f5" stroke="transparent" points="242.5,-329.7 242.5,-352.7 389.5,-352.7 389.5,-329.7 242.5,-329.7"/>
<polygon fill="none" stroke="#000000" points="242.5,-329.7 242.5,-352.7 389.5,-352.7 389.5,-329.7 242.5,-329.7"/>
<text text-anchor="start" x="247.5" y="-338.3" font-family="Helvetica,sans-Serif" font-weight="bold" font-size="11.00" fill="#000000">mo_relationship</text>
<text text-anchor="start" x="355.0219" y="-337.8" font-family="Helvetica,sans-Serif" font-size="11.00" fill="#000000">[table]</text>
<polygon fill="none" stroke="#000000" points="242.5,-310.7 242.5,-329.7 389.5,-329.7 389.5,-310.7 242.5,-310.7"/>
<text text-anchor="start" x="245.5" y="-316.8" font-family="Helvetica,sans-Serif" font-size="11.00" fill="#000000">...</text>
<polygon fill="#ffffff" stroke="transparent" points="242.5,-291.7 242.5,-310.7 296.5,-310.7 296.5,-291.7 242.5,-291.7"/>
<polygon fill="none" stroke="#000000" points="242.5,-291.7 242.5,-310.7 296.5,-310.7 296.5,-291.7 242.5,-291.7"/>
<text text-anchor="start" x="245.5" y="-297.8" font-family="Helvetica,sans-Serif" font-size="11.00" fill="#000000">&lt; 2</text>
<polygon fill="#ffffff" stroke="transparent" points="296.5,-291.7 296.5,-310.7 351.5,-310.7 351.5,-291.7 296.5,-291.7"/>
<polygon fill="none" stroke="#000000" points="296.5,-291.7 296.5,-310.7 351.5,-310.7 351.5,-291.7 296.5,-291.7"/>
<text text-anchor="start" x="316.1105" y="-297.8" font-family="Helvetica,sans-Serif" font-size="11.00" fill="#000000">0 rows</text>
<polygon fill="#ffffff" stroke="transparent" points="351.5,-291.7 351.5,-310.7 389.5,-310.7 389.5,-291.7 351.5,-291.7"/>
<polygon fill="none" stroke="#000000" points="351.5,-291.7 351.5,-310.7 389.5,-310.7 389.5,-291.7 351.5,-291.7"/>
<text text-anchor="start" x="370.9053" y="-297.8" font-family="Helvetica,sans-Serif" font-size="11.00" fill="#000000">2 &gt;</text>
</a>
</g>
</g>
<!-- mo_relationship_mor_dr&#45;&gt;mo_relationship -->
<g id="edge4" class="edge">
<title>mo_relationship_mor_dr:w&#45;&gt;mo_relationship:e</title>
<path fill="none" stroke="#000000" d="M455.6393,-289.4205C429.823,-296.0672 422.5867,-319.7 389.5,-319.7"/>
<polygon fill="#000000" stroke="#000000" points="462.0568,-288.6517 470.4283,-291.2744 466.0284,-288.1758 470,-287.7 470,-287.7 470,-287.7 466.0284,-288.1758 469.5717,-284.1256 462.0568,-288.6517 462.0568,-288.6517"/>
<ellipse fill="none" stroke="#000000" cx="458.8795" cy="-289.0323" rx="3.2" ry="3.2"/>
</g>
<!-- mor_dr -->
<g id="node7" class="node">
<title>mor_dr</title>
<g id="a_node7"><a xlink:href="../../tables/mor_dr.html" xlink:title="mor_dr" target="_top">
<polygon fill="#ffffff" stroke="transparent" points="258.5,-202.7 258.5,-270.7 372.5,-270.7 372.5,-202.7 258.5,-202.7"/>
<polygon fill="#f5f5f5" stroke="transparent" points="260.5,-245.7 260.5,-268.7 370.5,-268.7 370.5,-245.7 260.5,-245.7"/>
<polygon fill="none" stroke="#000000" points="260.5,-245.7 260.5,-268.7 370.5,-268.7 370.5,-245.7 260.5,-245.7"/>
<text text-anchor="start" x="265.5" y="-254.3" font-family="Helvetica,sans-Serif" font-weight="bold" font-size="11.00" fill="#000000">mor_dr</text>
<text text-anchor="start" x="335.5437" y="-253.8" font-family="Helvetica,sans-Serif" font-size="11.00" fill="#000000">[table]</text>
<polygon fill="none" stroke="#000000" points="260.5,-223.7 260.5,-245.7 328.5,-245.7 328.5,-223.7 260.5,-223.7"/>
<image xlink:href="../../images/primaryKeys.png" width="11px" height="12px" preserveAspectRatio="xMinYMin meet" x="265.5" y="-240.7"/>
<text text-anchor="start" x="280.5" y="-230.8" font-family="Helvetica,sans-Serif" font-size="11.00" fill="#000000">rule_id</text>
<polygon fill="none" stroke="#000000" points="328.5,-223.7 328.5,-245.7 370.5,-245.7 370.5,-223.7 328.5,-223.7"/>
<text text-anchor="start" x="331.4644" y="-231.4" font-family="Helvetica,sans-Serif" font-size="11.00" fill="#000000">int4[10]</text>
<polygon fill="#ffffff" stroke="transparent" points="260.5,-204.7 260.5,-223.7 285.5,-223.7 285.5,-204.7 260.5,-204.7"/>
<polygon fill="none" stroke="#000000" points="260.5,-204.7 260.5,-223.7 285.5,-223.7 285.5,-204.7 260.5,-204.7"/>
<text text-anchor="start" x="263.5" y="-210.8" font-family="Helvetica,sans-Serif" font-size="11.00" fill="#000000">&lt; 1</text>
<polygon fill="#ffffff" stroke="transparent" points="285.5,-204.7 285.5,-223.7 328.5,-223.7 328.5,-204.7 285.5,-204.7"/>
<polygon fill="none" stroke="#000000" points="285.5,-204.7 285.5,-223.7 328.5,-223.7 328.5,-204.7 285.5,-204.7"/>
<text text-anchor="start" x="293.1105" y="-210.8" font-family="Helvetica,sans-Serif" font-size="11.00" fill="#000000">0 rows</text>
<polygon fill="#ffffff" stroke="transparent" points="328.5,-204.7 328.5,-223.7 370.5,-223.7 370.5,-204.7 328.5,-204.7"/>
<polygon fill="none" stroke="#000000" points="328.5,-204.7 328.5,-223.7 370.5,-223.7 370.5,-204.7 328.5,-204.7"/>
<text text-anchor="start" x="351.9053" y="-210.8" font-family="Helvetica,sans-Serif" font-size="11.00" fill="#000000">1 &gt;</text>
<polygon fill="none" stroke="#000000" stroke-width="2" points="259.5,-203.7 259.5,-269.7 371.5,-269.7 371.5,-203.7 259.5,-203.7"/>
</a>
</g>
</g>
<!-- mo_relationship_mor_dr&#45;&gt;mor_dr -->
<g id="edge5" class="edge">
<title>mo_relationship_mor_dr:w&#45;&gt;mor_dr:e</title>
<path fill="none" stroke="#000000" d="M455.2146,-264.5226C421.531,-258.8601 411.3908,-234.7 370.5,-234.7"/>
<polygon fill="#000000" stroke="#000000" points="462.0252,-265.0649 469.7142,-269.2886 466.0126,-265.3825 470,-265.7 470,-265.7 470,-265.7 466.0126,-265.3825 470.2858,-262.1114 462.0252,-265.0649 462.0252,-265.0649"/>
<ellipse fill="none" stroke="#000000" cx="458.8353" cy="-264.8109" rx="3.2" ry="3.2"/>
</g>
<!-- mor_dr&#45;&gt;dependency_rule -->
<g id="edge6" class="edge">
<title>mor_dr:w&#45;&gt;dependency_rule:e</title>
<path fill="none" stroke="#000000" d="M249.8455,-234.7C214.3657,-234.7 201.7188,-234.7 161.5,-234.7"/>
<polygon fill="#000000" stroke="#000000" points="259.7,-230.7 259.7,-238.7 258.1,-238.7 258.1,-230.7 259.7,-230.7"/>
<polyline fill="none" stroke="#000000" points="260.5,-234.7 256.5,-234.7 "/>
<ellipse fill="none" stroke="#000000" cx="253.3" cy="-234.7001" rx="3.2" ry="3.2"/>
</g>
<!-- point_dr -->
<g id="node8" class="node">
<title>point_dr</title>
<g id="a_node8"><a xlink:href="../../tables/point_dr.html" xlink:title="point_dr" target="_top">
<polygon fill="#ffffff" stroke="transparent" points="268.5,-120.2 268.5,-181.2 362.5,-181.2 362.5,-120.2 268.5,-120.2"/>
<polygon fill="#f5f5f5" stroke="transparent" points="268.5,-157.7 268.5,-180.7 362.5,-180.7 362.5,-157.7 268.5,-157.7"/>
<polygon fill="none" stroke="#000000" points="268.5,-157.7 268.5,-180.7 362.5,-180.7 362.5,-157.7 268.5,-157.7"/>
<text text-anchor="start" x="273.5" y="-166.3" font-family="Helvetica,sans-Serif" font-weight="bold" font-size="11.00" fill="#000000">point_dr</text>
<text text-anchor="start" x="328.0219" y="-165.8" font-family="Helvetica,sans-Serif" font-size="11.00" fill="#000000">[table]</text>
<polygon fill="none" stroke="#000000" points="268.5,-138.7 268.5,-157.7 362.5,-157.7 362.5,-138.7 268.5,-138.7"/>
<text text-anchor="start" x="271.5" y="-144.8" font-family="Helvetica,sans-Serif" font-size="11.00" fill="#000000">...</text>
<polygon fill="#ffffff" stroke="transparent" points="268.5,-119.7 268.5,-138.7 296.5,-138.7 296.5,-119.7 268.5,-119.7"/>
<polygon fill="none" stroke="#000000" points="268.5,-119.7 268.5,-138.7 296.5,-138.7 296.5,-119.7 268.5,-119.7"/>
<text text-anchor="start" x="271.5" y="-125.8" font-family="Helvetica,sans-Serif" font-size="11.00" fill="#000000">&lt; 1</text>
<polygon fill="#ffffff" stroke="transparent" points="296.5,-119.7 296.5,-138.7 337.5,-138.7 337.5,-119.7 296.5,-119.7"/>
<polygon fill="none" stroke="#000000" points="296.5,-119.7 296.5,-138.7 337.5,-138.7 337.5,-119.7 296.5,-119.7"/>
<text text-anchor="start" x="302.1105" y="-125.8" font-family="Helvetica,sans-Serif" font-size="11.00" fill="#000000">0 rows</text>
<polygon fill="#ffffff" stroke="transparent" points="337.5,-119.7 337.5,-138.7 362.5,-138.7 362.5,-119.7 337.5,-119.7"/>
<polygon fill="none" stroke="#000000" points="337.5,-119.7 337.5,-138.7 362.5,-138.7 362.5,-119.7 337.5,-119.7"/>
<text text-anchor="start" x="343.9053" y="-125.8" font-family="Helvetica,sans-Serif" font-size="11.00" fill="#000000">1 &gt;</text>
</a>
</g>
</g>
<!-- point_dr&#45;&gt;dependency_rule -->
<g id="edge7" class="edge">
<title>point_dr:w&#45;&gt;dependency_rule:e</title>
<path fill="none" stroke="#000000" d="M257.9299,-148.4343C231.9188,-152.351 226.1424,-171.3682 202,-191.7 181.9191,-208.6114 187.7533,-234.7 161.5,-234.7"/>
<polygon fill="#000000" stroke="#000000" points="267.4247,-143.7651 267.9792,-151.7458 266.383,-151.8567 265.8285,-143.876 267.4247,-143.7651"/>
<polyline fill="none" stroke="#000000" points="268.5,-147.7 264.5096,-147.9772 "/>
<ellipse fill="none" stroke="#000000" cx="261.3173" cy="-148.199" rx="3.2" ry="3.2"/>
</g>
<!-- predicate -->
<g id="node9" class="node">
<title>predicate</title>
<g id="a_node9"><a xlink:href="../../tables/predicate.html" xlink:title="predicate" target="_top">
<polygon fill="#ffffff" stroke="transparent" points="264,-38.2 264,-99.2 367,-99.2 367,-38.2 264,-38.2"/>
<polygon fill="#f5f5f5" stroke="transparent" points="264.5,-75.7 264.5,-98.7 367.5,-98.7 367.5,-75.7 264.5,-75.7"/>
<polygon fill="none" stroke="#000000" points="264.5,-75.7 264.5,-98.7 367.5,-98.7 367.5,-75.7 264.5,-75.7"/>
<text text-anchor="start" x="269.5" y="-84.3" font-family="Helvetica,sans-Serif" font-weight="bold" font-size="11.00" fill="#000000">predicate</text>
<text text-anchor="start" x="333.0219" y="-83.8" font-family="Helvetica,sans-Serif" font-size="11.00" fill="#000000">[table]</text>
<polygon fill="none" stroke="#000000" points="264.5,-56.7 264.5,-75.7 367.5,-75.7 367.5,-56.7 264.5,-56.7"/>
<text text-anchor="start" x="267.5" y="-62.8" font-family="Helvetica,sans-Serif" font-size="11.00" fill="#000000">...</text>
<polygon fill="#ffffff" stroke="transparent" points="264.5,-37.7 264.5,-56.7 296.5,-56.7 296.5,-37.7 264.5,-37.7"/>
<polygon fill="none" stroke="#000000" points="264.5,-37.7 264.5,-56.7 296.5,-56.7 296.5,-37.7 264.5,-37.7"/>
<text text-anchor="start" x="267.5" y="-43.8" font-family="Helvetica,sans-Serif" font-size="11.00" fill="#000000">&lt; 2</text>
<polygon fill="#ffffff" stroke="transparent" points="296.5,-37.7 296.5,-56.7 340.5,-56.7 340.5,-37.7 296.5,-37.7"/>
<polygon fill="none" stroke="#000000" points="296.5,-37.7 296.5,-56.7 340.5,-56.7 340.5,-37.7 296.5,-37.7"/>
<text text-anchor="start" x="305.1105" y="-43.8" font-family="Helvetica,sans-Serif" font-size="11.00" fill="#000000">0 rows</text>
<polygon fill="#ffffff" stroke="transparent" points="340.5,-37.7 340.5,-56.7 367.5,-56.7 367.5,-37.7 340.5,-37.7"/>
<polygon fill="none" stroke="#000000" points="340.5,-37.7 340.5,-56.7 367.5,-56.7 367.5,-37.7 340.5,-37.7"/>
<text text-anchor="start" x="348.9053" y="-43.8" font-family="Helvetica,sans-Serif" font-size="11.00" fill="#000000">2 &gt;</text>
</a>
</g>
</g>
<!-- predicate&#45;&gt;dependency_rule -->
<g id="edge8" class="edge">
<title>predicate:w&#45;&gt;dependency_rule:e</title>
<path fill="none" stroke="#000000" d="M249.9945,-64.5115C227.5461,-65.3099 218.9318,-80.7372 202,-103.7 167.3423,-150.7028 219.8988,-228.7 161.5,-234.7"/>
<polygon fill="#000000" stroke="#000000" points="256.5267,-65.0467 264.206,-69.288 260.5134,-65.3733 264.5,-65.7 264.5,-65.7 264.5,-65.7 260.5134,-65.3733 264.794,-62.112 256.5267,-65.0467 256.5267,-65.0467"/>
<ellipse fill="none" stroke="#000000" cx="253.3374" cy="-64.7854" rx="3.2" ry="3.2"/>
</g>
<!-- predicate&#45;&gt;dependency_rule -->
<g id="edge9" class="edge">
<title>predicate:w&#45;&gt;dependency_rule:e</title>
<path fill="none" stroke="#000000" d="M250.6246,-69.5753C227.7056,-78.0235 219.0893,-93.5235 202,-116.7 167.3423,-163.7028 219.8988,-241.7 161.5,-234.7"/>
<polygon fill="#000000" stroke="#000000" points="256.7949,-67.852 265.4684,-69.1673 260.6474,-66.776 264.5,-65.7 264.5,-65.7 264.5,-65.7 260.6474,-66.776 263.5316,-62.2327 256.7949,-67.852 256.7949,-67.852"/>
<ellipse fill="none" stroke="#000000" cx="253.7128" cy="-68.7128" rx="3.2" ry="3.2"/>
</g>
</g>
</svg>
