<?xml version="1.0" encoding="UTF-8" standalone="no"?>
<!DOCTYPE svg PUBLIC "-//W3C//DTD SVG 1.1//EN"
 "http://www.w3.org/Graphics/SVG/1.1/DTD/svg11.dtd">
<!-- Generated by graphviz version 2.40.1 (20161225.0304)
 -->
<!-- Title: oneDegreeRelationshipsDiagram Pages: 1 -->
<svg width="364pt" height="325pt"
 viewBox="0.00 0.00 364.00 325.20" xmlns="http://www.w3.org/2000/svg" xmlns:xlink="http://www.w3.org/1999/xlink">
<g id="graph0" class="graph" transform="scale(1 1) rotate(0) translate(4 321.2)">
<title>oneDegreeRelationshipsDiagram</title>
<polygon fill="#ffffff" stroke="transparent" points="-4,4 -4,-321.2 360,-321.2 360,4 -4,4"/>
<text text-anchor="middle" x="72.4936" y="-7.3" font-family="Helvetica,sans-Serif" font-size="11.00" fill="#000000">Generated by SchemaSpy</text>
<!-- mor_aspect -->
<g id="node1" class="node">
<title>mor_aspect</title>
<g id="a_node1"><a xlink:href="../../tables/mor_aspect.html" xlink:title="mor_aspect" target="_top">
<polygon fill="#ffffff" stroke="transparent" points="204,-161.7 204,-251.7 348,-251.7 348,-161.7 204,-161.7"/>
<polygon fill="#f5f5f5" stroke="transparent" points="206,-226.7 206,-249.7 346,-249.7 346,-226.7 206,-226.7"/>
<polygon fill="none" stroke="#000000" points="206,-226.7 206,-249.7 346,-249.7 346,-226.7 206,-226.7"/>
<text text-anchor="start" x="211" y="-235.3" font-family="Helvetica,sans-Serif" font-weight="bold" font-size="11.00" fill="#000000">mor_aspect</text>
<text text-anchor="start" x="311.0437" y="-234.8" font-family="Helvetica,sans-Serif" font-size="11.00" fill="#000000">[table]</text>
<polygon fill="none" stroke="#000000" points="206,-204.7 206,-226.7 304,-226.7 304,-204.7 206,-204.7"/>
<image xlink:href="../../images/primaryKeys.png" width="11px" height="12px" preserveAspectRatio="xMinYMin meet" x="211" y="-221.7"/>
<text text-anchor="start" x="226" y="-211.8" font-family="Helvetica,sans-Serif" font-size="11.00" fill="#000000">mor_id</text>
<polygon fill="none" stroke="#000000" points="304,-204.7 304,-226.7 346,-226.7 346,-204.7 304,-204.7"/>
<text text-anchor="start" x="306.9644" y="-212.4" font-family="Helvetica,sans-Serif" font-size="11.00" fill="#000000">int4[10]</text>
<polygon fill="none" stroke="#000000" points="206,-182.7 206,-204.7 304,-204.7 304,-182.7 206,-182.7"/>
<image xlink:href="../../images/primaryKeys.png" width="11px" height="12px" preserveAspectRatio="xMinYMin meet" x="211" y="-199.7"/>
<text text-anchor="start" x="226" y="-189.8" font-family="Helvetica,sans-Serif" font-size="11.00" fill="#000000">aspect_id</text>
<polygon fill="none" stroke="#000000" points="304,-182.7 304,-204.7 346,-204.7 346,-182.7 304,-182.7"/>
<text text-anchor="start" x="306.9644" y="-190.4" font-family="Helvetica,sans-Serif" font-size="11.00" fill="#000000">int4[10]</text>
<polygon fill="#ffffff" stroke="transparent" points="206,-163.7 206,-182.7 246,-182.7 246,-163.7 206,-163.7"/>
<polygon fill="none" stroke="#000000" points="206,-163.7 206,-182.7 246,-182.7 246,-163.7 206,-163.7"/>
<text text-anchor="start" x="209" y="-169.8" font-family="Helvetica,sans-Serif" font-size="11.00" fill="#000000">&lt; 2</text>
<polygon fill="#ffffff" stroke="transparent" points="246,-163.7 246,-182.7 304,-182.7 304,-163.7 246,-163.7"/>
<polygon fill="none" stroke="#000000" points="246,-163.7 246,-182.7 304,-182.7 304,-163.7 246,-163.7"/>
<text text-anchor="start" x="268.6105" y="-169.8" font-family="Helvetica,sans-Serif" font-size="11.00" fill="#000000">0 rows</text>
<polygon fill="#ffffff" stroke="transparent" points="304,-163.7 304,-182.7 346,-182.7 346,-163.7 304,-163.7"/>
<polygon fill="none" stroke="#000000" points="304,-163.7 304,-182.7 346,-182.7 346,-163.7 304,-163.7"/>
<text text-anchor="start" x="327.4053" y="-169.8" font-family="Helvetica,sans-Serif" font-size="11.00" fill="#000000">0 &gt;</text>
<polygon fill="none" stroke="#000000" stroke-width="2" points="205,-162.7 205,-250.7 347,-250.7 347,-162.7 205,-162.7"/>
</a>
</g>
</g>
<!-- aspect -->
<g id="node2" class="node">
<title>aspect</title>
<g id="a_node2"><a xlink:href="../../tables/aspect.html" xlink:title="aspect" target="_top">
<polygon fill="#ffffff" stroke="transparent" points="21.5,-38.2 21.5,-165.2 141.5,-165.2 141.5,-38.2 21.5,-38.2"/>
<polygon fill="#f5f5f5" stroke="transparent" points="21.5,-141.7 21.5,-164.7 141.5,-164.7 141.5,-141.7 21.5,-141.7"/>
<polygon fill="none" stroke="#000000" points="21.5,-141.7 21.5,-164.7 141.5,-164.7 141.5,-141.7 21.5,-141.7"/>
<text text-anchor="start" x="26.5" y="-150.3" font-family="Helvetica,sans-Serif" font-weight="bold" font-size="11.00" fill="#000000">aspect</text>
<text text-anchor="start" x="106.5437" y="-149.8" font-family="Helvetica,sans-Serif" font-size="11.00" fill="#000000">[table]</text>
<polygon fill="none" stroke="#000000" points="21.5,-119.7 21.5,-141.7 141.5,-141.7 141.5,-119.7 21.5,-119.7"/>
<image xlink:href="../../images/primaryKeys.png" width="11px" height="12px" preserveAspectRatio="xMinYMin meet" x="26.5" y="-136.7"/>
<text text-anchor="start" x="41.5" y="-126.8" font-family="Helvetica,sans-Serif" font-size="11.00" fill="#000000">aspect_id</text>
<polygon fill="#ffffff" stroke="transparent" points="21.5,-97.7 21.5,-119.7 141.5,-119.7 141.5,-97.7 21.5,-97.7"/>
<polygon fill="none" stroke="#000000" points="21.5,-97.7 21.5,-119.7 141.5,-119.7 141.5,-97.7 21.5,-97.7"/>
<text text-anchor="start" x="41.5" y="-104.8" font-family="Helvetica,sans-Serif" font-size="11.00" fill="#000000">description</text>
<polygon fill="#ffffff" stroke="transparent" points="21.5,-75.7 21.5,-97.7 141.5,-97.7 141.5,-75.7 21.5,-75.7"/>
<polygon fill="none" stroke="#000000" points="21.5,-75.7 21.5,-97.7 141.5,-97.7 141.5,-75.7 21.5,-75.7"/>
<image xlink:href="../../images/foreignKeys.png" width="11px" height="12px" preserveAspectRatio="xMinYMin meet" x="26.5" y="-92.7"/>
<text text-anchor="start" x="41.5" y="-82.8" font-family="Helvetica,sans-Serif" font-size="11.00" fill="#000000">aspect_type_id</text>
<polygon fill="none" stroke="#000000" points="21.5,-56.7 21.5,-75.7 141.5,-75.7 141.5,-56.7 21.5,-56.7"/>
<text text-anchor="start" x="24.5" y="-62.8" font-family="Helvetica,sans-Serif" font-size="11.00" fill="#000000">...</text>
<polygon fill="#ffffff" stroke="transparent" points="21.5,-37.7 21.5,-56.7 51.5,-56.7 51.5,-37.7 21.5,-37.7"/>
<polygon fill="none" stroke="#000000" points="21.5,-37.7 21.5,-56.7 51.5,-56.7 51.5,-37.7 21.5,-37.7"/>
<text text-anchor="start" x="24.5" y="-43.8" font-family="Helvetica,sans-Serif" font-size="11.00" fill="#000000">&lt; 1</text>
<polygon fill="#ffffff" stroke="transparent" points="51.5,-37.7 51.5,-56.7 115.5,-56.7 115.5,-37.7 51.5,-37.7"/>
<polygon fill="none" stroke="#000000" points="51.5,-37.7 51.5,-56.7 115.5,-56.7 115.5,-37.7 51.5,-37.7"/>
<text text-anchor="start" x="58.7089" y="-43.8" font-family="Helvetica,sans-Serif" font-size="11.00" fill="#000000">2.300 rows</text>
<polygon fill="#ffffff" stroke="transparent" points="115.5,-37.7 115.5,-56.7 141.5,-56.7 141.5,-37.7 115.5,-37.7"/>
<polygon fill="none" stroke="#000000" points="115.5,-37.7 115.5,-56.7 141.5,-56.7 141.5,-37.7 115.5,-37.7"/>
<text text-anchor="start" x="122.9053" y="-43.8" font-family="Helvetica,sans-Serif" font-size="11.00" fill="#000000">6 &gt;</text>
</a>
</g>
</g>
<!-- mor_aspect&#45;&gt;aspect -->
<g id="edge1" class="edge">
<title>mor_aspect:w&#45;&gt;aspect:e</title>
<path fill="none" stroke="#000000" d="M191.7802,-190.1323C169.2862,-176.8051 175.7805,-130.7 141.5,-130.7"/>
<polygon fill="#000000" stroke="#000000" points="198.2405,-191.7532 205.1239,-197.1918 202.1202,-192.7266 206,-193.7 206,-193.7 206,-193.7 202.1202,-192.7266 206.8761,-190.2082 198.2405,-191.7532 198.2405,-191.7532"/>
<ellipse fill="none" stroke="#000000" cx="195.1367" cy="-190.9744" rx="3.2" ry="3.2"/>
</g>
<!-- mo_relationship -->
<g id="node3" class="node">
<title>mo_relationship</title>
<g id="a_node3"><a xlink:href="../../tables/mo_relationship.html" xlink:title="mo_relationship" target="_top">
<polygon fill="#ffffff" stroke="transparent" points="8,-186.2 8,-313.2 155,-313.2 155,-186.2 8,-186.2"/>
<polygon fill="#f5f5f5" stroke="transparent" points="8.5,-289.7 8.5,-312.7 155.5,-312.7 155.5,-289.7 8.5,-289.7"/>
<polygon fill="none" stroke="#000000" points="8.5,-289.7 8.5,-312.7 155.5,-312.7 155.5,-289.7 8.5,-289.7"/>
<text text-anchor="start" x="13.5" y="-298.3" font-family="Helvetica,sans-Serif" font-weight="bold" font-size="11.00" fill="#000000">mo_relationship</text>
<text text-anchor="start" x="121.0219" y="-297.8" font-family="Helvetica,sans-Serif" font-size="11.00" fill="#000000">[table]</text>
<polygon fill="none" stroke="#000000" points="8.5,-267.7 8.5,-289.7 155.5,-289.7 155.5,-267.7 8.5,-267.7"/>
<image xlink:href="../../images/primaryKeys.png" width="11px" height="12px" preserveAspectRatio="xMinYMin meet" x="13.5" y="-284.7"/>
<text text-anchor="start" x="37.5" y="-274.8" font-family="Helvetica,sans-Serif" font-size="11.00" fill="#000000">mor_id</text>
<polygon fill="#ffffff" stroke="transparent" points="8.5,-245.7 8.5,-267.7 155.5,-267.7 155.5,-245.7 8.5,-245.7"/>
<polygon fill="none" stroke="#000000" points="8.5,-245.7 8.5,-267.7 155.5,-267.7 155.5,-245.7 8.5,-245.7"/>
<image xlink:href="../../images/foreignKeys.png" width="11px" height="12px" preserveAspectRatio="xMinYMin meet" x="13.5" y="-262.7"/>
<text text-anchor="start" x="37.5" y="-252.8" font-family="Helvetica,sans-Serif" font-size="11.00" fill="#000000">mo_target</text>
<polygon fill="#ffffff" stroke="transparent" points="8.5,-223.7 8.5,-245.7 155.5,-245.7 155.5,-223.7 8.5,-223.7"/>
<polygon fill="none" stroke="#000000" points="8.5,-223.7 8.5,-245.7 155.5,-245.7 155.5,-223.7 8.5,-223.7"/>
<image xlink:href="../../images/foreignKeys.png" width="11px" height="12px" preserveAspectRatio="xMinYMin meet" x="13.5" y="-240.7"/>
<text text-anchor="start" x="37.5" y="-230.8" font-family="Helvetica,sans-Serif" font-size="11.00" fill="#000000">mo_source</text>
<polygon fill="none" stroke="#000000" points="8.5,-204.7 8.5,-223.7 155.5,-223.7 155.5,-204.7 8.5,-204.7"/>
<text text-anchor="start" x="11.5" y="-210.8" font-family="Helvetica,sans-Serif" font-size="11.00" fill="#000000">...</text>
<polygon fill="#ffffff" stroke="transparent" points="8.5,-185.7 8.5,-204.7 62.5,-204.7 62.5,-185.7 8.5,-185.7"/>
<polygon fill="none" stroke="#000000" points="8.5,-185.7 8.5,-204.7 62.5,-204.7 62.5,-185.7 8.5,-185.7"/>
<text text-anchor="start" x="11.5" y="-191.8" font-family="Helvetica,sans-Serif" font-size="11.00" fill="#000000">&lt; 2</text>
<polygon fill="#ffffff" stroke="transparent" points="62.5,-185.7 62.5,-204.7 117.5,-204.7 117.5,-185.7 62.5,-185.7"/>
<polygon fill="none" stroke="#000000" points="62.5,-185.7 62.5,-204.7 117.5,-204.7 117.5,-185.7 62.5,-185.7"/>
<text text-anchor="start" x="82.1105" y="-191.8" font-family="Helvetica,sans-Serif" font-size="11.00" fill="#000000">0 rows</text>
<polygon fill="#ffffff" stroke="transparent" points="117.5,-185.7 117.5,-204.7 155.5,-204.7 155.5,-185.7 117.5,-185.7"/>
<polygon fill="none" stroke="#000000" points="117.5,-185.7 117.5,-204.7 155.5,-204.7 155.5,-185.7 117.5,-185.7"/>
<text text-anchor="start" x="136.9053" y="-191.8" font-family="Helvetica,sans-Serif" font-size="11.00" fill="#000000">2 &gt;</text>
</a>
</g>
</g>
<!-- mor_aspect&#45;&gt;mo_relationship -->
<g id="edge2" class="edge">
<title>mor_aspect:w&#45;&gt;mo_relationship:e</title>
<path fill="none" stroke="#000000" d="M191.9816,-220.6435C175.738,-235.4952 185.2175,-278.7 155.5,-278.7"/>
<polygon fill="#000000" stroke="#000000" points="198.4554,-218.3606 207.1973,-219.0951 202.2277,-217.0303 206,-215.7 206,-215.7 206,-215.7 202.2277,-217.0303 204.8027,-212.3049 198.4554,-218.3606 198.4554,-218.3606"/>
<ellipse fill="none" stroke="#000000" cx="195.4375" cy="-219.4248" rx="3.2" ry="3.2"/>
</g>
</g>
</svg>
