<?xml version="1.0" encoding="UTF-8" standalone="no"?>
<!DOCTYPE svg PUBLIC "-//W3C//DTD SVG 1.1//EN"
 "http://www.w3.org/Graphics/SVG/1.1/DTD/svg11.dtd">
<!-- Generated by graphviz version 2.40.1 (20161225.0304)
 -->
<!-- Title: twoDegreesRelationshipsDiagram Pages: 1 -->
<svg width="605pt" height="633pt"
 viewBox="0.00 0.00 605.00 633.20" xmlns="http://www.w3.org/2000/svg" xmlns:xlink="http://www.w3.org/1999/xlink">
<g id="graph0" class="graph" transform="scale(1 1) rotate(0) translate(4 629.2)">
<title>twoDegreesRelationshipsDiagram</title>
<polygon fill="#ffffff" stroke="transparent" points="-4,4 -4,-629.2 601,-629.2 601,4 -4,4"/>
<text text-anchor="middle" x="72.4936" y="-7.3" font-family="Helvetica,sans-Serif" font-size="11.00" fill="#000000">Generated by SchemaSpy</text>
<!-- aspect -->
<g id="node1" class="node">
<title>aspect</title>
<g id="a_node1"><a xlink:href="../../tables/aspect.html" xlink:title="aspect" target="_top">
<polygon fill="#ffffff" stroke="transparent" points="206.5,-301.2 206.5,-428.2 326.5,-428.2 326.5,-301.2 206.5,-301.2"/>
<polygon fill="#f5f5f5" stroke="transparent" points="206.5,-404.7 206.5,-427.7 326.5,-427.7 326.5,-404.7 206.5,-404.7"/>
<polygon fill="none" stroke="#000000" points="206.5,-404.7 206.5,-427.7 326.5,-427.7 326.5,-404.7 206.5,-404.7"/>
<text text-anchor="start" x="211.5" y="-413.3" font-family="Helvetica,sans-Serif" font-weight="bold" font-size="11.00" fill="#000000">aspect</text>
<text text-anchor="start" x="291.5437" y="-412.8" font-family="Helvetica,sans-Serif" font-size="11.00" fill="#000000">[table]</text>
<polygon fill="none" stroke="#000000" points="206.5,-382.7 206.5,-404.7 326.5,-404.7 326.5,-382.7 206.5,-382.7"/>
<image xlink:href="../../images/primaryKeys.png" width="11px" height="12px" preserveAspectRatio="xMinYMin meet" x="211.5" y="-399.7"/>
<text text-anchor="start" x="226.5" y="-389.8" font-family="Helvetica,sans-Serif" font-size="11.00" fill="#000000">aspect_id</text>
<polygon fill="#ffffff" stroke="transparent" points="206.5,-360.7 206.5,-382.7 326.5,-382.7 326.5,-360.7 206.5,-360.7"/>
<polygon fill="none" stroke="#000000" points="206.5,-360.7 206.5,-382.7 326.5,-382.7 326.5,-360.7 206.5,-360.7"/>
<text text-anchor="start" x="226.5" y="-367.8" font-family="Helvetica,sans-Serif" font-size="11.00" fill="#000000">description</text>
<polygon fill="#ffffff" stroke="transparent" points="206.5,-338.7 206.5,-360.7 326.5,-360.7 326.5,-338.7 206.5,-338.7"/>
<polygon fill="none" stroke="#000000" points="206.5,-338.7 206.5,-360.7 326.5,-360.7 326.5,-338.7 206.5,-338.7"/>
<image xlink:href="../../images/foreignKeys.png" width="11px" height="12px" preserveAspectRatio="xMinYMin meet" x="211.5" y="-355.7"/>
<text text-anchor="start" x="226.5" y="-345.8" font-family="Helvetica,sans-Serif" font-size="11.00" fill="#000000">aspect_type_id</text>
<polygon fill="none" stroke="#000000" points="206.5,-319.7 206.5,-338.7 326.5,-338.7 326.5,-319.7 206.5,-319.7"/>
<text text-anchor="start" x="209.5" y="-325.8" font-family="Helvetica,sans-Serif" font-size="11.00" fill="#000000">...</text>
<polygon fill="#ffffff" stroke="transparent" points="206.5,-300.7 206.5,-319.7 236.5,-319.7 236.5,-300.7 206.5,-300.7"/>
<polygon fill="none" stroke="#000000" points="206.5,-300.7 206.5,-319.7 236.5,-319.7 236.5,-300.7 206.5,-300.7"/>
<text text-anchor="start" x="209.5" y="-306.8" font-family="Helvetica,sans-Serif" font-size="11.00" fill="#000000">&lt; 1</text>
<polygon fill="#ffffff" stroke="transparent" points="236.5,-300.7 236.5,-319.7 300.5,-319.7 300.5,-300.7 236.5,-300.7"/>
<polygon fill="none" stroke="#000000" points="236.5,-300.7 236.5,-319.7 300.5,-319.7 300.5,-300.7 236.5,-300.7"/>
<text text-anchor="start" x="243.7089" y="-306.8" font-family="Helvetica,sans-Serif" font-size="11.00" fill="#000000">2.300 rows</text>
<polygon fill="#ffffff" stroke="transparent" points="300.5,-300.7 300.5,-319.7 326.5,-319.7 326.5,-300.7 300.5,-300.7"/>
<polygon fill="none" stroke="#000000" points="300.5,-300.7 300.5,-319.7 326.5,-319.7 326.5,-300.7 300.5,-300.7"/>
<text text-anchor="start" x="307.9053" y="-306.8" font-family="Helvetica,sans-Serif" font-size="11.00" fill="#000000">6 &gt;</text>
</a>
</g>
</g>
<!-- aspect_type -->
<g id="node2" class="node">
<title>aspect_type</title>
<g id="a_node2"><a xlink:href="../../tables/aspect_type.html" xlink:title="aspect_type" target="_top">
<polygon fill="#ffffff" stroke="transparent" points="16,-322.2 16,-383.2 136,-383.2 136,-322.2 16,-322.2"/>
<polygon fill="#f5f5f5" stroke="transparent" points="16,-359.7 16,-382.7 136,-382.7 136,-359.7 16,-359.7"/>
<polygon fill="none" stroke="#000000" points="16,-359.7 16,-382.7 136,-382.7 136,-359.7 16,-359.7"/>
<text text-anchor="start" x="21" y="-368.3" font-family="Helvetica,sans-Serif" font-weight="bold" font-size="11.00" fill="#000000">aspect_type</text>
<text text-anchor="start" x="101.5219" y="-367.8" font-family="Helvetica,sans-Serif" font-size="11.00" fill="#000000">[table]</text>
<polygon fill="none" stroke="#000000" points="16,-340.7 16,-359.7 136,-359.7 136,-340.7 16,-340.7"/>
<text text-anchor="start" x="19" y="-346.8" font-family="Helvetica,sans-Serif" font-size="11.00" fill="#000000">...</text>
<polygon fill="#ffffff" stroke="transparent" points="16,-321.7 16,-340.7 57,-340.7 57,-321.7 16,-321.7"/>
<polygon fill="none" stroke="#000000" points="16,-321.7 16,-340.7 57,-340.7 57,-321.7 16,-321.7"/>
<text text-anchor="start" x="19" y="-327.8" font-family="Helvetica,sans-Serif" font-size="11.00" fill="#000000">&lt; 1</text>
<polygon fill="#ffffff" stroke="transparent" points="57,-321.7 57,-340.7 105,-340.7 105,-321.7 57,-321.7"/>
<polygon fill="none" stroke="#000000" points="57,-321.7 57,-340.7 105,-340.7 105,-321.7 57,-321.7"/>
<text text-anchor="start" x="69.6105" y="-327.8" font-family="Helvetica,sans-Serif" font-size="11.00" fill="#000000">4 rows</text>
<polygon fill="#ffffff" stroke="transparent" points="105,-321.7 105,-340.7 136,-340.7 136,-321.7 105,-321.7"/>
<polygon fill="none" stroke="#000000" points="105,-321.7 105,-340.7 136,-340.7 136,-321.7 105,-321.7"/>
<text text-anchor="start" x="117.4053" y="-327.8" font-family="Helvetica,sans-Serif" font-size="11.00" fill="#000000">4 &gt;</text>
</a>
</g>
</g>
<!-- aspect&#45;&gt;aspect_type -->
<g id="edge1" class="edge">
<title>aspect:w&#45;&gt;aspect_type:e</title>
<path fill="none" stroke="#000000" d="M191.8997,-349.7C171.6866,-349.7 161.8255,-349.7 136,-349.7"/>
<polygon fill="#000000" stroke="#000000" points="198.5,-349.7001 206.5,-353.3 202.5,-349.7 206.5,-349.7 206.5,-349.7 206.5,-349.7 202.5,-349.7 206.5,-346.1 198.5,-349.7001 198.5,-349.7001"/>
<ellipse fill="none" stroke="#000000" cx="195.3" cy="-349.7001" rx="3.2" ry="3.2"/>
</g>
<!-- aspect_attribute -->
<g id="node3" class="node">
<title>aspect_attribute</title>
<g id="a_node3"><a xlink:href="../../tables/aspect_attribute.html" xlink:title="aspect_attribute" target="_top">
<polygon fill="#ffffff" stroke="transparent" points="414,-478.2 414,-539.2 564,-539.2 564,-478.2 414,-478.2"/>
<polygon fill="#f5f5f5" stroke="transparent" points="414,-515.7 414,-538.7 564,-538.7 564,-515.7 414,-515.7"/>
<polygon fill="none" stroke="#000000" points="414,-515.7 414,-538.7 564,-538.7 564,-515.7 414,-515.7"/>
<text text-anchor="start" x="419" y="-524.3" font-family="Helvetica,sans-Serif" font-weight="bold" font-size="11.00" fill="#000000">aspect_attribute</text>
<text text-anchor="start" x="529.5219" y="-523.8" font-family="Helvetica,sans-Serif" font-size="11.00" fill="#000000">[table]</text>
<polygon fill="none" stroke="#000000" points="414,-496.7 414,-515.7 564,-515.7 564,-496.7 414,-496.7"/>
<text text-anchor="start" x="417" y="-502.8" font-family="Helvetica,sans-Serif" font-size="11.00" fill="#000000">...</text>
<polygon fill="#ffffff" stroke="transparent" points="414,-477.7 414,-496.7 464,-496.7 464,-477.7 414,-477.7"/>
<polygon fill="none" stroke="#000000" points="414,-477.7 414,-496.7 464,-496.7 464,-477.7 414,-477.7"/>
<text text-anchor="start" x="417" y="-483.8" font-family="Helvetica,sans-Serif" font-size="11.00" fill="#000000">&lt; 3</text>
<polygon fill="#ffffff" stroke="transparent" points="464,-477.7 464,-496.7 537,-496.7 537,-477.7 464,-477.7"/>
<polygon fill="none" stroke="#000000" points="464,-477.7 464,-496.7 537,-496.7 537,-477.7 464,-477.7"/>
<text text-anchor="start" x="480.2089" y="-483.8" font-family="Helvetica,sans-Serif" font-size="11.00" fill="#000000">6.100 rows</text>
<polygon fill="#ffffff" stroke="transparent" points="537,-477.7 537,-496.7 564,-496.7 564,-477.7 537,-477.7"/>
<polygon fill="none" stroke="#000000" points="537,-477.7 537,-496.7 564,-496.7 564,-477.7 537,-477.7"/>
<text text-anchor="start" x="554.8862" y="-483.8" font-family="Helvetica,sans-Serif" font-size="11.00" fill="#000000"> &#160;</text>
</a>
</g>
</g>
<!-- aspect_attribute&#45;&gt;aspect -->
<g id="edge2" class="edge">
<title>aspect_attribute:w&#45;&gt;aspect:e</title>
<path fill="none" stroke="#000000" d="M399.5698,-503.2566C356.8708,-486.8777 384.116,-393.7 326.5,-393.7"/>
<polygon fill="#000000" stroke="#000000" points="406.1123,-504.3643 413.399,-509.2495 410.0561,-505.0322 414,-505.7 414,-505.7 414,-505.7 410.0561,-505.0322 414.601,-502.1505 406.1123,-504.3643 406.1123,-504.3643"/>
<ellipse fill="none" stroke="#000000" cx="402.9572" cy="-503.8301" rx="3.2" ry="3.2"/>
</g>
<!-- mat_aspect -->
<g id="node4" class="node">
<title>mat_aspect</title>
<g id="a_node4"><a xlink:href="../../tables/mat_aspect.html" xlink:title="mat_aspect" target="_top">
<polygon fill="#ffffff" stroke="transparent" points="431,-396.2 431,-457.2 547,-457.2 547,-396.2 431,-396.2"/>
<polygon fill="#f5f5f5" stroke="transparent" points="431,-433.7 431,-456.7 547,-456.7 547,-433.7 431,-433.7"/>
<polygon fill="none" stroke="#000000" points="431,-433.7 431,-456.7 547,-456.7 547,-433.7 431,-433.7"/>
<text text-anchor="start" x="436" y="-442.3" font-family="Helvetica,sans-Serif" font-weight="bold" font-size="11.00" fill="#000000">mat_aspect</text>
<text text-anchor="start" x="512.5219" y="-441.8" font-family="Helvetica,sans-Serif" font-size="11.00" fill="#000000">[table]</text>
<polygon fill="none" stroke="#000000" points="431,-414.7 431,-433.7 547,-433.7 547,-414.7 431,-414.7"/>
<text text-anchor="start" x="434" y="-420.8" font-family="Helvetica,sans-Serif" font-size="11.00" fill="#000000">...</text>
<polygon fill="#ffffff" stroke="transparent" points="431,-395.7 431,-414.7 474,-414.7 474,-395.7 431,-395.7"/>
<polygon fill="none" stroke="#000000" points="431,-395.7 431,-414.7 474,-414.7 474,-395.7 431,-395.7"/>
<text text-anchor="start" x="434" y="-401.8" font-family="Helvetica,sans-Serif" font-size="11.00" fill="#000000">&lt; 2</text>
<polygon fill="#ffffff" stroke="transparent" points="474,-395.7 474,-414.7 523,-414.7 523,-395.7 474,-395.7"/>
<polygon fill="none" stroke="#000000" points="474,-395.7 474,-414.7 523,-414.7 523,-395.7 474,-395.7"/>
<text text-anchor="start" x="487.6105" y="-401.8" font-family="Helvetica,sans-Serif" font-size="11.00" fill="#000000">0 rows</text>
<polygon fill="#ffffff" stroke="transparent" points="523,-395.7 523,-414.7 547,-414.7 547,-395.7 523,-395.7"/>
<polygon fill="none" stroke="#000000" points="523,-395.7 523,-414.7 547,-414.7 547,-395.7 523,-395.7"/>
<text text-anchor="start" x="537.8862" y="-401.8" font-family="Helvetica,sans-Serif" font-size="11.00" fill="#000000"> &#160;</text>
</a>
</g>
</g>
<!-- mat_aspect&#45;&gt;aspect -->
<g id="edge3" class="edge">
<title>mat_aspect:w&#45;&gt;aspect:e</title>
<path fill="none" stroke="#000000" d="M416.4911,-422.7018C380.4763,-417.4964 369.5354,-393.7 326.5,-393.7"/>
<polygon fill="#000000" stroke="#000000" points="423.0189,-423.1509 430.7529,-427.2915 427.0094,-423.4254 431,-423.7 431,-423.7 431,-423.7 427.0094,-423.4254 431.2471,-420.1085 423.0189,-423.1509 423.0189,-423.1509"/>
<ellipse fill="none" stroke="#000000" cx="419.8264" cy="-422.9312" rx="3.2" ry="3.2"/>
</g>
<!-- mo_aspect -->
<g id="node5" class="node">
<title>mo_aspect</title>
<g id="a_node5"><a xlink:href="../../tables/mo_aspect.html" xlink:title="mo_aspect" target="_top">
<polygon fill="#ffffff" stroke="transparent" points="434,-232.2 434,-293.2 544,-293.2 544,-232.2 434,-232.2"/>
<polygon fill="#f5f5f5" stroke="transparent" points="434,-269.7 434,-292.7 544,-292.7 544,-269.7 434,-269.7"/>
<polygon fill="none" stroke="#000000" points="434,-269.7 434,-292.7 544,-292.7 544,-269.7 434,-269.7"/>
<text text-anchor="start" x="439" y="-278.3" font-family="Helvetica,sans-Serif" font-weight="bold" font-size="11.00" fill="#000000">mo_aspect</text>
<text text-anchor="start" x="509.5219" y="-277.8" font-family="Helvetica,sans-Serif" font-size="11.00" fill="#000000">[table]</text>
<polygon fill="none" stroke="#000000" points="434,-250.7 434,-269.7 544,-269.7 544,-250.7 434,-250.7"/>
<text text-anchor="start" x="437" y="-256.8" font-family="Helvetica,sans-Serif" font-size="11.00" fill="#000000">...</text>
<polygon fill="#ffffff" stroke="transparent" points="434,-231.7 434,-250.7 464,-250.7 464,-231.7 434,-231.7"/>
<polygon fill="none" stroke="#000000" points="434,-231.7 434,-250.7 464,-250.7 464,-231.7 434,-231.7"/>
<text text-anchor="start" x="437" y="-237.8" font-family="Helvetica,sans-Serif" font-size="11.00" fill="#000000">&lt; 2</text>
<polygon fill="#ffffff" stroke="transparent" points="464,-231.7 464,-250.7 527,-250.7 527,-231.7 464,-231.7"/>
<polygon fill="none" stroke="#000000" points="464,-231.7 464,-250.7 527,-250.7 527,-231.7 464,-231.7"/>
<text text-anchor="start" x="470.2089" y="-237.8" font-family="Helvetica,sans-Serif" font-size="11.00" fill="#000000">2.000 rows</text>
<polygon fill="#ffffff" stroke="transparent" points="527,-231.7 527,-250.7 544,-250.7 544,-231.7 527,-231.7"/>
<polygon fill="none" stroke="#000000" points="527,-231.7 527,-250.7 544,-250.7 544,-231.7 527,-231.7"/>
<text text-anchor="start" x="534.8862" y="-237.8" font-family="Helvetica,sans-Serif" font-size="11.00" fill="#000000"> &#160;</text>
</a>
</g>
</g>
<!-- mo_aspect&#45;&gt;aspect -->
<g id="edge4" class="edge">
<title>mo_aspect:w&#45;&gt;aspect:e</title>
<path fill="none" stroke="#000000" d="M419.7074,-261.69C401.9106,-267.4204 397.315,-284.7649 381,-303.7 350.476,-339.126 373.2623,-393.7 326.5,-393.7"/>
<polygon fill="#000000" stroke="#000000" points="426.0764,-260.8033 434.4965,-263.2656 430.0382,-260.2516 434,-259.7 434,-259.7 434,-259.7 430.0382,-260.2516 433.5035,-256.1344 426.0764,-260.8033 426.0764,-260.8033"/>
<ellipse fill="none" stroke="#000000" cx="422.907" cy="-261.2446" rx="3.2" ry="3.2"/>
</g>
<!-- moving_object -->
<g id="node6" class="node">
<title>moving_object</title>
<g id="a_node6"><a xlink:href="../../tables/moving_object.html" xlink:title="moving_object" target="_top">
<polygon fill="#ffffff" stroke="transparent" points="8,-125.2 8,-186.2 144,-186.2 144,-125.2 8,-125.2"/>
<polygon fill="#f5f5f5" stroke="transparent" points="8,-162.7 8,-185.7 144,-185.7 144,-162.7 8,-162.7"/>
<polygon fill="none" stroke="#000000" points="8,-162.7 8,-185.7 144,-185.7 144,-162.7 8,-162.7"/>
<text text-anchor="start" x="13" y="-171.3" font-family="Helvetica,sans-Serif" font-weight="bold" font-size="11.00" fill="#000000">moving_object</text>
<text text-anchor="start" x="109.5219" y="-170.8" font-family="Helvetica,sans-Serif" font-size="11.00" fill="#000000">[table]</text>
<polygon fill="none" stroke="#000000" points="8,-143.7 8,-162.7 144,-162.7 144,-143.7 8,-143.7"/>
<text text-anchor="start" x="11" y="-149.8" font-family="Helvetica,sans-Serif" font-size="11.00" fill="#000000">...</text>
<polygon fill="#ffffff" stroke="transparent" points="8,-124.7 8,-143.7 46,-143.7 46,-124.7 8,-124.7"/>
<polygon fill="none" stroke="#000000" points="8,-124.7 8,-143.7 46,-143.7 46,-124.7 8,-124.7"/>
<text text-anchor="start" x="11" y="-130.8" font-family="Helvetica,sans-Serif" font-size="11.00" fill="#000000">&lt; 1</text>
<polygon fill="#ffffff" stroke="transparent" points="46,-124.7 46,-143.7 114,-143.7 114,-124.7 46,-124.7"/>
<polygon fill="none" stroke="#000000" points="46,-124.7 46,-143.7 114,-143.7 114,-124.7 46,-124.7"/>
<text text-anchor="start" x="57.2089" y="-130.8" font-family="Helvetica,sans-Serif" font-size="11.00" fill="#000000">2.000 rows</text>
<polygon fill="#ffffff" stroke="transparent" points="114,-124.7 114,-143.7 144,-143.7 144,-124.7 114,-124.7"/>
<polygon fill="none" stroke="#000000" points="114,-124.7 114,-143.7 144,-143.7 144,-124.7 114,-124.7"/>
<text text-anchor="start" x="125.4053" y="-130.8" font-family="Helvetica,sans-Serif" font-size="11.00" fill="#000000">5 &gt;</text>
</a>
</g>
</g>
<!-- mo_aspect&#45;&gt;moving_object -->
<g id="edge5" class="edge">
<title>mo_aspect:w&#45;&gt;moving_object:e</title>
<path fill="none" stroke="#000000" d="M419.2974,-259.8259C317.8792,-261.5416 273.925,-279.2998 185,-219.7 156.0002,-200.2636 178.9108,-152.7 144,-152.7"/>
<polygon fill="#000000" stroke="#000000" points="426.0003,-259.7686 434.0309,-263.2999 430.0001,-259.7343 434,-259.7 434,-259.7 434,-259.7 430.0001,-259.7343 433.9691,-256.1001 426.0003,-259.7686 426.0003,-259.7686"/>
<ellipse fill="none" stroke="#000000" cx="422.8004" cy="-259.796" rx="3.2" ry="3.2"/>
</g>
<!-- mo_relationship -->
<g id="node7" class="node">
<title>mo_relationship</title>
<g id="a_node7"><a xlink:href="../../tables/mo_relationship.html" xlink:title="mo_relationship" target="_top">
<polygon fill="#ffffff" stroke="transparent" points="193,-82.2 193,-209.2 340,-209.2 340,-82.2 193,-82.2"/>
<polygon fill="#f5f5f5" stroke="transparent" points="193.5,-185.7 193.5,-208.7 340.5,-208.7 340.5,-185.7 193.5,-185.7"/>
<polygon fill="none" stroke="#000000" points="193.5,-185.7 193.5,-208.7 340.5,-208.7 340.5,-185.7 193.5,-185.7"/>
<text text-anchor="start" x="198.5" y="-194.3" font-family="Helvetica,sans-Serif" font-weight="bold" font-size="11.00" fill="#000000">mo_relationship</text>
<text text-anchor="start" x="306.0219" y="-193.8" font-family="Helvetica,sans-Serif" font-size="11.00" fill="#000000">[table]</text>
<polygon fill="none" stroke="#000000" points="193.5,-163.7 193.5,-185.7 340.5,-185.7 340.5,-163.7 193.5,-163.7"/>
<image xlink:href="../../images/primaryKeys.png" width="11px" height="12px" preserveAspectRatio="xMinYMin meet" x="198.5" y="-180.7"/>
<text text-anchor="start" x="222.5" y="-170.8" font-family="Helvetica,sans-Serif" font-size="11.00" fill="#000000">mor_id</text>
<polygon fill="#ffffff" stroke="transparent" points="193.5,-141.7 193.5,-163.7 340.5,-163.7 340.5,-141.7 193.5,-141.7"/>
<polygon fill="none" stroke="#000000" points="193.5,-141.7 193.5,-163.7 340.5,-163.7 340.5,-141.7 193.5,-141.7"/>
<image xlink:href="../../images/foreignKeys.png" width="11px" height="12px" preserveAspectRatio="xMinYMin meet" x="198.5" y="-158.7"/>
<text text-anchor="start" x="222.5" y="-148.8" font-family="Helvetica,sans-Serif" font-size="11.00" fill="#000000">mo_target</text>
<polygon fill="#ffffff" stroke="transparent" points="193.5,-119.7 193.5,-141.7 340.5,-141.7 340.5,-119.7 193.5,-119.7"/>
<polygon fill="none" stroke="#000000" points="193.5,-119.7 193.5,-141.7 340.5,-141.7 340.5,-119.7 193.5,-119.7"/>
<image xlink:href="../../images/foreignKeys.png" width="11px" height="12px" preserveAspectRatio="xMinYMin meet" x="198.5" y="-136.7"/>
<text text-anchor="start" x="222.5" y="-126.8" font-family="Helvetica,sans-Serif" font-size="11.00" fill="#000000">mo_source</text>
<polygon fill="none" stroke="#000000" points="193.5,-100.7 193.5,-119.7 340.5,-119.7 340.5,-100.7 193.5,-100.7"/>
<text text-anchor="start" x="196.5" y="-106.8" font-family="Helvetica,sans-Serif" font-size="11.00" fill="#000000">...</text>
<polygon fill="#ffffff" stroke="transparent" points="193.5,-81.7 193.5,-100.7 247.5,-100.7 247.5,-81.7 193.5,-81.7"/>
<polygon fill="none" stroke="#000000" points="193.5,-81.7 193.5,-100.7 247.5,-100.7 247.5,-81.7 193.5,-81.7"/>
<text text-anchor="start" x="196.5" y="-87.8" font-family="Helvetica,sans-Serif" font-size="11.00" fill="#000000">&lt; 2</text>
<polygon fill="#ffffff" stroke="transparent" points="247.5,-81.7 247.5,-100.7 302.5,-100.7 302.5,-81.7 247.5,-81.7"/>
<polygon fill="none" stroke="#000000" points="247.5,-81.7 247.5,-100.7 302.5,-100.7 302.5,-81.7 247.5,-81.7"/>
<text text-anchor="start" x="267.1105" y="-87.8" font-family="Helvetica,sans-Serif" font-size="11.00" fill="#000000">0 rows</text>
<polygon fill="#ffffff" stroke="transparent" points="302.5,-81.7 302.5,-100.7 340.5,-100.7 340.5,-81.7 302.5,-81.7"/>
<polygon fill="none" stroke="#000000" points="302.5,-81.7 302.5,-100.7 340.5,-100.7 340.5,-81.7 302.5,-81.7"/>
<text text-anchor="start" x="321.9053" y="-87.8" font-family="Helvetica,sans-Serif" font-size="11.00" fill="#000000">2 &gt;</text>
</a>
</g>
</g>
<!-- mo_relationship&#45;&gt;moving_object -->
<g id="edge6" class="edge">
<title>mo_relationship:w&#45;&gt;moving_object:e</title>
<path fill="none" stroke="#000000" d="M179.3612,-133.9462C167.4382,-140.0658 162.2443,-152.7 144,-152.7"/>
<polygon fill="#000000" stroke="#000000" points="185.7029,-132.4902 194.3056,-134.2087 189.6014,-131.5951 193.5,-130.7 193.5,-130.7 193.5,-130.7 189.6014,-131.5951 192.6944,-127.1913 185.7029,-132.4902 185.7029,-132.4902"/>
<ellipse fill="none" stroke="#000000" cx="182.584" cy="-133.2063" rx="3.2" ry="3.2"/>
</g>
<!-- mo_relationship&#45;&gt;moving_object -->
<g id="edge7" class="edge">
<title>mo_relationship:w&#45;&gt;moving_object:e</title>
<path fill="none" stroke="#000000" d="M178.8428,-152.7C167.4139,-152.7 160.1563,-152.7 144,-152.7"/>
<polygon fill="#000000" stroke="#000000" points="185.5,-152.7001 193.5,-156.3 189.5,-152.7 193.5,-152.7 193.5,-152.7 193.5,-152.7 189.5,-152.7 193.5,-149.1 185.5,-152.7001 185.5,-152.7001"/>
<ellipse fill="none" stroke="#000000" cx="182.3" cy="-152.7001" rx="3.2" ry="3.2"/>
</g>
<!-- mo_relationship_mor_dr -->
<g id="node8" class="node">
<title>mo_relationship_mor_dr</title>
<g id="a_node8"><a xlink:href="../../tables/mo_relationship_mor_dr.html" xlink:title="mo_relationship_mor_dr" target="_top">
<polygon fill="#ffffff" stroke="transparent" points="389,-38.2 389,-99.2 589,-99.2 589,-38.2 389,-38.2"/>
<polygon fill="#f5f5f5" stroke="transparent" points="389,-75.7 389,-98.7 589,-98.7 589,-75.7 389,-75.7"/>
<polygon fill="none" stroke="#000000" points="389,-75.7 389,-98.7 589,-98.7 589,-75.7 389,-75.7"/>
<text text-anchor="start" x="394" y="-84.3" font-family="Helvetica,sans-Serif" font-weight="bold" font-size="11.00" fill="#000000">mo_relationship_mor_dr</text>
<text text-anchor="start" x="554.5219" y="-83.8" font-family="Helvetica,sans-Serif" font-size="11.00" fill="#000000">[table]</text>
<polygon fill="none" stroke="#000000" points="389,-56.7 389,-75.7 589,-75.7 589,-56.7 389,-56.7"/>
<text text-anchor="start" x="392" y="-62.8" font-family="Helvetica,sans-Serif" font-size="11.00" fill="#000000">...</text>
<polygon fill="#ffffff" stroke="transparent" points="389,-37.7 389,-56.7 474,-56.7 474,-37.7 389,-37.7"/>
<polygon fill="none" stroke="#000000" points="389,-37.7 389,-56.7 474,-56.7 474,-37.7 389,-37.7"/>
<text text-anchor="start" x="392" y="-43.8" font-family="Helvetica,sans-Serif" font-size="11.00" fill="#000000">&lt; 2</text>
<polygon fill="#ffffff" stroke="transparent" points="474,-37.7 474,-56.7 544,-56.7 544,-37.7 474,-37.7"/>
<polygon fill="none" stroke="#000000" points="474,-37.7 474,-56.7 544,-56.7 544,-37.7 474,-37.7"/>
<text text-anchor="start" x="508.6105" y="-43.8" font-family="Helvetica,sans-Serif" font-size="11.00" fill="#000000">0 rows</text>
<polygon fill="#ffffff" stroke="transparent" points="544,-37.7 544,-56.7 589,-56.7 589,-37.7 544,-37.7"/>
<polygon fill="none" stroke="#000000" points="544,-37.7 544,-56.7 589,-56.7 589,-37.7 544,-37.7"/>
<text text-anchor="start" x="579.8862" y="-43.8" font-family="Helvetica,sans-Serif" font-size="11.00" fill="#000000"> &#160;</text>
</a>
</g>
</g>
<!-- mo_relationship_mor_dr&#45;&gt;mo_relationship -->
<g id="edge8" class="edge">
<title>mo_relationship_mor_dr:w&#45;&gt;mo_relationship:e</title>
<path fill="none" stroke="#000000" d="M374.9155,-69.5794C347.5955,-88.9966 387.5171,-174.7 340.5,-174.7"/>
<polygon fill="#000000" stroke="#000000" points="381.2872,-67.8244 389.956,-69.1708 385.1436,-66.7622 389,-65.7 389,-65.7 389,-65.7 385.1436,-66.7622 388.044,-62.2292 381.2872,-67.8244 381.2872,-67.8244"/>
<ellipse fill="none" stroke="#000000" cx="378.2021" cy="-68.6742" rx="3.2" ry="3.2"/>
</g>
<!-- mor_aspect -->
<g id="node9" class="node">
<title>mor_aspect</title>
<g id="a_node9"><a xlink:href="../../tables/mor_aspect.html" xlink:title="mor_aspect" target="_top">
<polygon fill="#ffffff" stroke="transparent" points="417,-120.7 417,-210.7 561,-210.7 561,-120.7 417,-120.7"/>
<polygon fill="#f5f5f5" stroke="transparent" points="419,-185.7 419,-208.7 559,-208.7 559,-185.7 419,-185.7"/>
<polygon fill="none" stroke="#000000" points="419,-185.7 419,-208.7 559,-208.7 559,-185.7 419,-185.7"/>
<text text-anchor="start" x="424" y="-194.3" font-family="Helvetica,sans-Serif" font-weight="bold" font-size="11.00" fill="#000000">mor_aspect</text>
<text text-anchor="start" x="524.0437" y="-193.8" font-family="Helvetica,sans-Serif" font-size="11.00" fill="#000000">[table]</text>
<polygon fill="none" stroke="#000000" points="419,-163.7 419,-185.7 517,-185.7 517,-163.7 419,-163.7"/>
<image xlink:href="../../images/primaryKeys.png" width="11px" height="12px" preserveAspectRatio="xMinYMin meet" x="424" y="-180.7"/>
<text text-anchor="start" x="439" y="-170.8" font-family="Helvetica,sans-Serif" font-size="11.00" fill="#000000">mor_id</text>
<polygon fill="none" stroke="#000000" points="517,-163.7 517,-185.7 559,-185.7 559,-163.7 517,-163.7"/>
<text text-anchor="start" x="519.9644" y="-171.4" font-family="Helvetica,sans-Serif" font-size="11.00" fill="#000000">int4[10]</text>
<polygon fill="none" stroke="#000000" points="419,-141.7 419,-163.7 517,-163.7 517,-141.7 419,-141.7"/>
<image xlink:href="../../images/primaryKeys.png" width="11px" height="12px" preserveAspectRatio="xMinYMin meet" x="424" y="-158.7"/>
<text text-anchor="start" x="439" y="-148.8" font-family="Helvetica,sans-Serif" font-size="11.00" fill="#000000">aspect_id</text>
<polygon fill="none" stroke="#000000" points="517,-141.7 517,-163.7 559,-163.7 559,-141.7 517,-141.7"/>
<text text-anchor="start" x="519.9644" y="-149.4" font-family="Helvetica,sans-Serif" font-size="11.00" fill="#000000">int4[10]</text>
<polygon fill="#ffffff" stroke="transparent" points="419,-122.7 419,-141.7 459,-141.7 459,-122.7 419,-122.7"/>
<polygon fill="none" stroke="#000000" points="419,-122.7 419,-141.7 459,-141.7 459,-122.7 419,-122.7"/>
<text text-anchor="start" x="422" y="-128.8" font-family="Helvetica,sans-Serif" font-size="11.00" fill="#000000">&lt; 2</text>
<polygon fill="#ffffff" stroke="transparent" points="459,-122.7 459,-141.7 517,-141.7 517,-122.7 459,-122.7"/>
<polygon fill="none" stroke="#000000" points="459,-122.7 459,-141.7 517,-141.7 517,-122.7 459,-122.7"/>
<text text-anchor="start" x="481.6105" y="-128.8" font-family="Helvetica,sans-Serif" font-size="11.00" fill="#000000">0 rows</text>
<polygon fill="#ffffff" stroke="transparent" points="517,-122.7 517,-141.7 559,-141.7 559,-122.7 517,-122.7"/>
<polygon fill="none" stroke="#000000" points="517,-122.7 517,-141.7 559,-141.7 559,-122.7 517,-122.7"/>
<text text-anchor="start" x="540.4053" y="-128.8" font-family="Helvetica,sans-Serif" font-size="11.00" fill="#000000">0 &gt;</text>
<polygon fill="none" stroke="#000000" stroke-width="2" points="418,-121.7 418,-209.7 560,-209.7 560,-121.7 418,-121.7"/>
</a>
</g>
</g>
<!-- mor_aspect&#45;&gt;aspect -->
<g id="edge9" class="edge">
<title>mor_aspect:w&#45;&gt;aspect:e</title>
<path fill="none" stroke="#000000" d="M404.4734,-154.239C316.5572,-174.7642 435.8518,-393.7 326.5,-393.7"/>
<polygon fill="#000000" stroke="#000000" points="411.0445,-153.5429 419.3793,-156.28 415.0223,-153.1214 419,-152.7 419,-152.7 419,-152.7 415.0223,-153.1214 418.6207,-149.12 411.0445,-153.5429 411.0445,-153.5429"/>
<ellipse fill="none" stroke="#000000" cx="407.8623" cy="-153.88" rx="3.2" ry="3.2"/>
</g>
<!-- mor_aspect&#45;&gt;mo_relationship -->
<g id="edge10" class="edge">
<title>mor_aspect:w&#45;&gt;mo_relationship:e</title>
<path fill="none" stroke="#000000" d="M404.3627,-174.7C380.7466,-174.7 369.9375,-174.7 340.5,-174.7"/>
<polygon fill="#000000" stroke="#000000" points="411,-174.7001 419,-178.3 415,-174.7 419,-174.7 419,-174.7 419,-174.7 415,-174.7 419,-171.1 411,-174.7001 411,-174.7001"/>
<ellipse fill="none" stroke="#000000" cx="407.8" cy="-174.7001" rx="3.2" ry="3.2"/>
</g>
<!-- point_aspect -->
<g id="node10" class="node">
<title>point_aspect</title>
<g id="a_node10"><a xlink:href="../../tables/point_aspect.html" xlink:title="point_aspect" target="_top">
<polygon fill="#ffffff" stroke="transparent" points="426.5,-314.2 426.5,-375.2 551.5,-375.2 551.5,-314.2 426.5,-314.2"/>
<polygon fill="#f5f5f5" stroke="transparent" points="427,-351.7 427,-374.7 552,-374.7 552,-351.7 427,-351.7"/>
<polygon fill="none" stroke="#000000" points="427,-351.7 427,-374.7 552,-374.7 552,-351.7 427,-351.7"/>
<text text-anchor="start" x="432" y="-360.3" font-family="Helvetica,sans-Serif" font-weight="bold" font-size="11.00" fill="#000000">point_aspect</text>
<text text-anchor="start" x="517.5219" y="-359.8" font-family="Helvetica,sans-Serif" font-size="11.00" fill="#000000">[table]</text>
<polygon fill="none" stroke="#000000" points="427,-332.7 427,-351.7 552,-351.7 552,-332.7 427,-332.7"/>
<text text-anchor="start" x="430" y="-338.8" font-family="Helvetica,sans-Serif" font-size="11.00" fill="#000000">...</text>
<polygon fill="#ffffff" stroke="transparent" points="427,-313.7 427,-332.7 453,-332.7 453,-313.7 427,-313.7"/>
<polygon fill="none" stroke="#000000" points="427,-313.7 427,-332.7 453,-332.7 453,-313.7 427,-313.7"/>
<text text-anchor="start" x="430" y="-319.8" font-family="Helvetica,sans-Serif" font-size="11.00" fill="#000000">&lt; 2</text>
<polygon fill="#ffffff" stroke="transparent" points="453,-313.7 453,-332.7 537,-332.7 537,-313.7 453,-313.7"/>
<polygon fill="none" stroke="#000000" points="453,-313.7 453,-332.7 537,-332.7 537,-313.7 453,-313.7"/>
<text text-anchor="start" x="458.8073" y="-319.8" font-family="Helvetica,sans-Serif" font-size="11.00" fill="#000000">1.039.258 rows</text>
<polygon fill="#ffffff" stroke="transparent" points="537,-313.7 537,-332.7 552,-332.7 552,-313.7 537,-313.7"/>
<polygon fill="none" stroke="#000000" points="537,-313.7 537,-332.7 552,-332.7 552,-313.7 537,-313.7"/>
<text text-anchor="start" x="542.8862" y="-319.8" font-family="Helvetica,sans-Serif" font-size="11.00" fill="#000000"> &#160;</text>
</a>
</g>
</g>
<!-- point_aspect&#45;&gt;aspect -->
<g id="edge11" class="edge">
<title>point_aspect:w&#45;&gt;aspect:e</title>
<path fill="none" stroke="#000000" d="M412.6503,-343.3133C376.1657,-352.0903 371.4873,-393.7 326.5,-393.7"/>
<polygon fill="#000000" stroke="#000000" points="419.0501,-342.5938 427.4022,-345.2775 423.025,-342.1469 427,-341.7 427,-341.7 427,-341.7 423.025,-342.1469 426.5978,-338.1225 419.0501,-342.5938 419.0501,-342.5938"/>
<ellipse fill="none" stroke="#000000" cx="415.8701" cy="-342.9514" rx="3.2" ry="3.2"/>
</g>
<!-- predicate_aspect -->
<g id="node11" class="node">
<title>predicate_aspect</title>
<g id="a_node11"><a xlink:href="../../tables/predicate_aspect.html" xlink:title="predicate_aspect" target="_top">
<polygon fill="#ffffff" stroke="transparent" points="412,-560.2 412,-621.2 566,-621.2 566,-560.2 412,-560.2"/>
<polygon fill="#f5f5f5" stroke="transparent" points="412,-597.7 412,-620.7 566,-620.7 566,-597.7 412,-597.7"/>
<polygon fill="none" stroke="#000000" points="412,-597.7 412,-620.7 566,-620.7 566,-597.7 412,-597.7"/>
<text text-anchor="start" x="417" y="-606.3" font-family="Helvetica,sans-Serif" font-weight="bold" font-size="11.00" fill="#000000">predicate_aspect</text>
<text text-anchor="start" x="531.5219" y="-605.8" font-family="Helvetica,sans-Serif" font-size="11.00" fill="#000000">[table]</text>
<polygon fill="none" stroke="#000000" points="412,-578.7 412,-597.7 566,-597.7 566,-578.7 412,-578.7"/>
<text text-anchor="start" x="415" y="-584.8" font-family="Helvetica,sans-Serif" font-size="11.00" fill="#000000">...</text>
<polygon fill="#ffffff" stroke="transparent" points="412,-559.7 412,-578.7 474,-578.7 474,-559.7 412,-559.7"/>
<polygon fill="none" stroke="#000000" points="412,-559.7 412,-578.7 474,-578.7 474,-559.7 412,-559.7"/>
<text text-anchor="start" x="415" y="-565.8" font-family="Helvetica,sans-Serif" font-size="11.00" fill="#000000">&lt; 2</text>
<polygon fill="#ffffff" stroke="transparent" points="474,-559.7 474,-578.7 533,-578.7 533,-559.7 474,-559.7"/>
<polygon fill="none" stroke="#000000" points="474,-559.7 474,-578.7 533,-578.7 533,-559.7 474,-559.7"/>
<text text-anchor="start" x="497.6105" y="-565.8" font-family="Helvetica,sans-Serif" font-size="11.00" fill="#000000">0 rows</text>
<polygon fill="#ffffff" stroke="transparent" points="533,-559.7 533,-578.7 566,-578.7 566,-559.7 533,-559.7"/>
<polygon fill="none" stroke="#000000" points="533,-559.7 533,-578.7 566,-578.7 566,-559.7 533,-559.7"/>
<text text-anchor="start" x="556.8862" y="-565.8" font-family="Helvetica,sans-Serif" font-size="11.00" fill="#000000"> &#160;</text>
</a>
</g>
</g>
<!-- predicate_aspect&#45;&gt;aspect -->
<g id="edge12" class="edge">
<title>predicate_aspect:w&#45;&gt;aspect:e</title>
<path fill="none" stroke="#000000" d="M397.3886,-585.7799C329.1628,-565.6317 415.2036,-393.7 326.5,-393.7"/>
<polygon fill="#000000" stroke="#000000" points="404.0682,-586.6576 411.5309,-591.2693 408.0341,-587.1788 412,-587.7 412,-587.7 412,-587.7 408.0341,-587.1788 412.4691,-584.1307 404.0682,-586.6576 404.0682,-586.6576"/>
<ellipse fill="none" stroke="#000000" cx="400.8955" cy="-586.2407" rx="3.2" ry="3.2"/>
</g>
</g>
</svg>
