<?xml version="1.0" encoding="UTF-8" standalone="no"?>
<!DOCTYPE svg PUBLIC "-//W3C//DTD SVG 1.1//EN"
 "http://www.w3.org/Graphics/SVG/1.1/DTD/svg11.dtd">
<!-- Generated by graphviz version 2.40.1 (20161225.0304)
 -->
<!-- Title: twoDegreesRelationshipsDiagram Pages: 1 -->
<svg width="835pt" height="656pt"
 viewBox="0.00 0.00 835.00 655.70" xmlns="http://www.w3.org/2000/svg" xmlns:xlink="http://www.w3.org/1999/xlink">
<g id="graph0" class="graph" transform="scale(1 1) rotate(0) translate(4 651.7)">
<title>twoDegreesRelationshipsDiagram</title>
<polygon fill="#ffffff" stroke="transparent" points="-4,4 -4,-651.7 831,-651.7 831,4 -4,4"/>
<text text-anchor="middle" x="72.4936" y="-7.3" font-family="Helvetica,sans-Serif" font-size="11.00" fill="#000000">Generated by SchemaSpy</text>
<!-- mat -->
<g id="node1" class="node">
<title>mat</title>
<g id="a_node1"><a xlink:href="../../tables/mat.html" xlink:title="mat" target="_top">
<polygon fill="#ffffff" stroke="transparent" points="412.5,-419.7 412.5,-546.7 543.5,-546.7 543.5,-419.7 412.5,-419.7"/>
<polygon fill="#f5f5f5" stroke="transparent" points="413,-523.2 413,-546.2 544,-546.2 544,-523.2 413,-523.2"/>
<polygon fill="none" stroke="#000000" points="413,-523.2 413,-546.2 544,-546.2 544,-523.2 413,-523.2"/>
<text text-anchor="start" x="418" y="-531.8" font-family="Helvetica,sans-Serif" font-weight="bold" font-size="11.00" fill="#000000">mat</text>
<text text-anchor="start" x="509.0437" y="-531.3" font-family="Helvetica,sans-Serif" font-size="11.00" fill="#000000">[table]</text>
<polygon fill="none" stroke="#000000" points="413,-501.2 413,-523.2 544,-523.2 544,-501.2 413,-501.2"/>
<image xlink:href="../../images/primaryKeys.png" width="11px" height="12px" preserveAspectRatio="xMinYMin meet" x="418" y="-518.2"/>
<text text-anchor="start" x="433" y="-508.3" font-family="Helvetica,sans-Serif" font-size="11.00" fill="#000000">mat_id</text>
<polygon fill="#ffffff" stroke="transparent" points="413,-479.2 413,-501.2 544,-501.2 544,-479.2 413,-479.2"/>
<polygon fill="none" stroke="#000000" points="413,-479.2 413,-501.2 544,-501.2 544,-479.2 413,-479.2"/>
<text text-anchor="start" x="433" y="-486.3" font-family="Helvetica,sans-Serif" font-size="11.00" fill="#000000">description</text>
<polygon fill="#ffffff" stroke="transparent" points="413,-457.2 413,-479.2 544,-479.2 544,-457.2 413,-457.2"/>
<polygon fill="none" stroke="#000000" points="413,-457.2 413,-479.2 544,-479.2 544,-457.2 413,-457.2"/>
<image xlink:href="../../images/foreignKeys.png" width="11px" height="12px" preserveAspectRatio="xMinYMin meet" x="418" y="-474.2"/>
<text text-anchor="start" x="433" y="-464.3" font-family="Helvetica,sans-Serif" font-size="11.00" fill="#000000">mo_id</text>
<polygon fill="none" stroke="#000000" points="413,-438.2 413,-457.2 544,-457.2 544,-438.2 413,-438.2"/>
<text text-anchor="start" x="416" y="-444.3" font-family="Helvetica,sans-Serif" font-size="11.00" fill="#000000">...</text>
<polygon fill="#ffffff" stroke="transparent" points="413,-419.2 413,-438.2 442,-438.2 442,-419.2 413,-419.2"/>
<polygon fill="none" stroke="#000000" points="413,-419.2 413,-438.2 442,-438.2 442,-419.2 413,-419.2"/>
<text text-anchor="start" x="416" y="-425.3" font-family="Helvetica,sans-Serif" font-size="11.00" fill="#000000">&lt; 1</text>
<polygon fill="#ffffff" stroke="transparent" points="442,-419.2 442,-438.2 518,-438.2 518,-419.2 442,-419.2"/>
<polygon fill="none" stroke="#000000" points="442,-419.2 442,-438.2 518,-438.2 518,-419.2 442,-419.2"/>
<text text-anchor="start" x="448.9791" y="-425.3" font-family="Helvetica,sans-Serif" font-size="11.00" fill="#000000">292.481 rows</text>
<polygon fill="#ffffff" stroke="transparent" points="518,-419.2 518,-438.2 544,-438.2 544,-419.2 518,-419.2"/>
<polygon fill="none" stroke="#000000" points="518,-419.2 518,-438.2 544,-438.2 544,-419.2 518,-419.2"/>
<text text-anchor="start" x="525.4053" y="-425.3" font-family="Helvetica,sans-Serif" font-size="11.00" fill="#000000">3 &gt;</text>
</a>
</g>
</g>
<!-- moving_object -->
<g id="node2" class="node">
<title>moving_object</title>
<g id="a_node2"><a xlink:href="../../tables/moving_object.html" xlink:title="moving_object" target="_top">
<polygon fill="#ffffff" stroke="transparent" points="154,-140.2 154,-252.2 337,-252.2 337,-140.2 154,-140.2"/>
<polygon fill="#f5f5f5" stroke="transparent" points="156.5,-227.2 156.5,-250.2 335.5,-250.2 335.5,-227.2 156.5,-227.2"/>
<polygon fill="none" stroke="#000000" points="156.5,-227.2 156.5,-250.2 335.5,-250.2 335.5,-227.2 156.5,-227.2"/>
<text text-anchor="start" x="161.5" y="-235.8" font-family="Helvetica,sans-Serif" font-weight="bold" font-size="11.00" fill="#000000">moving_object</text>
<text text-anchor="start" x="300.5437" y="-235.3" font-family="Helvetica,sans-Serif" font-size="11.00" fill="#000000">[table]</text>
<polygon fill="none" stroke="#000000" points="156.5,-205.2 156.5,-227.2 274.5,-227.2 274.5,-205.2 156.5,-205.2"/>
<image xlink:href="../../images/primaryKeys.png" width="11px" height="12px" preserveAspectRatio="xMinYMin meet" x="161.5" y="-222.2"/>
<text text-anchor="start" x="176.5" y="-212.3" font-family="Helvetica,sans-Serif" font-size="11.00" fill="#000000">mo_id</text>
<polygon fill="none" stroke="#000000" points="274.5,-205.2 274.5,-227.2 335.5,-227.2 335.5,-205.2 274.5,-205.2"/>
<text text-anchor="start" x="277.5" y="-212.9" font-family="Helvetica,sans-Serif" font-size="11.00" fill="#000000">int4[10]</text>
<polygon fill="#ffffff" stroke="transparent" points="156.5,-183.2 156.5,-205.2 274.5,-205.2 274.5,-183.2 156.5,-183.2"/>
<polygon fill="none" stroke="#000000" points="156.5,-183.2 156.5,-205.2 274.5,-205.2 274.5,-183.2 156.5,-183.2"/>
<text text-anchor="start" x="176.5" y="-190.3" font-family="Helvetica,sans-Serif" font-size="11.00" fill="#000000">description</text>
<polygon fill="none" stroke="#000000" points="274.5,-183.2 274.5,-205.2 335.5,-205.2 335.5,-183.2 274.5,-183.2"/>
<text text-anchor="start" x="277.494" y="-190.9" font-family="Helvetica,sans-Serif" font-size="11.00" fill="#000000">varchar[50]</text>
<polygon fill="#ffffff" stroke="transparent" points="156.5,-161.2 156.5,-183.2 274.5,-183.2 274.5,-161.2 156.5,-161.2"/>
<polygon fill="none" stroke="#000000" points="156.5,-161.2 156.5,-183.2 274.5,-183.2 274.5,-161.2 156.5,-161.2"/>
<image xlink:href="../../images/foreignKeys.png" width="11px" height="12px" preserveAspectRatio="xMinYMin meet" x="161.5" y="-178.2"/>
<text text-anchor="start" x="176.5" y="-168.3" font-family="Helvetica,sans-Serif" font-size="11.00" fill="#000000">mo_type_id</text>
<polygon fill="none" stroke="#000000" points="274.5,-161.2 274.5,-183.2 335.5,-183.2 335.5,-161.2 274.5,-161.2"/>
<text text-anchor="start" x="277.5" y="-168.9" font-family="Helvetica,sans-Serif" font-size="11.00" fill="#000000">int4[10]</text>
<polygon fill="#ffffff" stroke="transparent" points="156.5,-142.2 156.5,-161.2 196.5,-161.2 196.5,-142.2 156.5,-142.2"/>
<polygon fill="none" stroke="#000000" points="156.5,-142.2 156.5,-161.2 196.5,-161.2 196.5,-142.2 156.5,-142.2"/>
<text text-anchor="start" x="159.5" y="-148.3" font-family="Helvetica,sans-Serif" font-size="11.00" fill="#000000">&lt; 1</text>
<polygon fill="#ffffff" stroke="transparent" points="196.5,-142.2 196.5,-161.2 274.5,-161.2 274.5,-142.2 196.5,-142.2"/>
<polygon fill="none" stroke="#000000" points="196.5,-142.2 196.5,-161.2 274.5,-161.2 274.5,-142.2 196.5,-142.2"/>
<text text-anchor="start" x="217.7089" y="-148.3" font-family="Helvetica,sans-Serif" font-size="11.00" fill="#000000">2.000 rows</text>
<polygon fill="#ffffff" stroke="transparent" points="274.5,-142.2 274.5,-161.2 335.5,-161.2 335.5,-142.2 274.5,-142.2"/>
<polygon fill="none" stroke="#000000" points="274.5,-142.2 274.5,-161.2 335.5,-161.2 335.5,-142.2 274.5,-142.2"/>
<text text-anchor="start" x="316.9053" y="-148.3" font-family="Helvetica,sans-Serif" font-size="11.00" fill="#000000">5 &gt;</text>
<polygon fill="none" stroke="#000000" stroke-width="2" points="155,-141.2 155,-251.2 336,-251.2 336,-141.2 155,-141.2"/>
</a>
</g>
</g>
<!-- mat&#45;&gt;moving_object -->
<g id="edge1" class="edge">
<title>mat:w&#45;&gt;moving_object:e</title>
<path fill="none" stroke="#000000" d="M398.6549,-465.2625C378.8489,-455.0239 388.4682,-419.8647 378,-389.2 352.4209,-314.2707 414.6751,-216.2 335.5,-216.2"/>
<polygon fill="#000000" stroke="#000000" points="405.1626,-466.5951 412.2778,-471.7268 409.0813,-467.3975 413,-468.2 413,-468.2 413,-468.2 409.0813,-467.3975 413.7222,-464.6732 405.1626,-466.5951 405.1626,-466.5951"/>
<ellipse fill="none" stroke="#000000" cx="402.0277" cy="-465.9531" rx="3.2" ry="3.2"/>
</g>
<!-- mo_type -->
<g id="node10" class="node">
<title>mo_type</title>
<g id="a_node10"><a xlink:href="../../tables/mo_type.html" xlink:title="mo_type" target="_top">
<polygon fill="#ffffff" stroke="transparent" points="8,-123.7 8,-206.7 105,-206.7 105,-123.7 8,-123.7"/>
<polygon fill="#f5f5f5" stroke="transparent" points="8.5,-183.2 8.5,-206.2 105.5,-206.2 105.5,-183.2 8.5,-183.2"/>
<polygon fill="none" stroke="#000000" points="8.5,-183.2 8.5,-206.2 105.5,-206.2 105.5,-183.2 8.5,-183.2"/>
<text text-anchor="start" x="13.5" y="-191.8" font-family="Helvetica,sans-Serif" font-weight="bold" font-size="11.00" fill="#000000">mo_type</text>
<text text-anchor="start" x="71.0219" y="-191.3" font-family="Helvetica,sans-Serif" font-size="11.00" fill="#000000">[table]</text>
<polygon fill="none" stroke="#000000" points="8.5,-161.2 8.5,-183.2 105.5,-183.2 105.5,-161.2 8.5,-161.2"/>
<image xlink:href="../../images/primaryKeys.png" width="11px" height="12px" preserveAspectRatio="xMinYMin meet" x="13.5" y="-178.2"/>
<text text-anchor="start" x="28.5" y="-168.3" font-family="Helvetica,sans-Serif" font-size="11.00" fill="#000000">mo_type_id</text>
<polygon fill="none" stroke="#000000" points="8.5,-142.2 8.5,-161.2 105.5,-161.2 105.5,-142.2 8.5,-142.2"/>
<text text-anchor="start" x="11.5" y="-148.3" font-family="Helvetica,sans-Serif" font-size="11.00" fill="#000000">...</text>
<polygon fill="#ffffff" stroke="transparent" points="8.5,-123.2 8.5,-142.2 36.5,-142.2 36.5,-123.2 8.5,-123.2"/>
<polygon fill="none" stroke="#000000" points="8.5,-123.2 8.5,-142.2 36.5,-142.2 36.5,-123.2 8.5,-123.2"/>
<text text-anchor="start" x="11.5" y="-129.3" font-family="Helvetica,sans-Serif" font-size="11.00" fill="#000000"> &#160;</text>
<polygon fill="#ffffff" stroke="transparent" points="36.5,-123.2 36.5,-142.2 76.5,-142.2 76.5,-123.2 36.5,-123.2"/>
<polygon fill="none" stroke="#000000" points="36.5,-123.2 36.5,-142.2 76.5,-142.2 76.5,-123.2 36.5,-123.2"/>
<text text-anchor="start" x="46.6105" y="-129.3" font-family="Helvetica,sans-Serif" font-size="11.00" fill="#000000">1 row</text>
<polygon fill="#ffffff" stroke="transparent" points="76.5,-123.2 76.5,-142.2 105.5,-142.2 105.5,-123.2 76.5,-123.2"/>
<polygon fill="none" stroke="#000000" points="76.5,-123.2 76.5,-142.2 105.5,-142.2 105.5,-123.2 76.5,-123.2"/>
<text text-anchor="start" x="86.9053" y="-129.3" font-family="Helvetica,sans-Serif" font-size="11.00" fill="#000000">1 &gt;</text>
</a>
</g>
</g>
<!-- moving_object&#45;&gt;mo_type -->
<g id="edge12" class="edge">
<title>moving_object:w&#45;&gt;mo_type:e</title>
<path fill="none" stroke="#000000" d="M141.776,-172.2C129.7815,-172.2 122.3229,-172.2 105.5,-172.2"/>
<polygon fill="#000000" stroke="#000000" points="148.5,-172.2001 156.5,-175.8 152.5,-172.2 156.5,-172.2 156.5,-172.2 156.5,-172.2 152.5,-172.2 156.5,-168.6 148.5,-172.2001 148.5,-172.2001"/>
<ellipse fill="none" stroke="#000000" cx="145.3" cy="-172.2001" rx="3.2" ry="3.2"/>
</g>
<!-- mat_aspect -->
<g id="node3" class="node">
<title>mat_aspect</title>
<g id="a_node3"><a xlink:href="../../tables/mat_aspect.html" xlink:title="mat_aspect" target="_top">
<polygon fill="#ffffff" stroke="transparent" points="661,-418.7 661,-479.7 777,-479.7 777,-418.7 661,-418.7"/>
<polygon fill="#f5f5f5" stroke="transparent" points="661,-456.2 661,-479.2 777,-479.2 777,-456.2 661,-456.2"/>
<polygon fill="none" stroke="#000000" points="661,-456.2 661,-479.2 777,-479.2 777,-456.2 661,-456.2"/>
<text text-anchor="start" x="666" y="-464.8" font-family="Helvetica,sans-Serif" font-weight="bold" font-size="11.00" fill="#000000">mat_aspect</text>
<text text-anchor="start" x="742.5219" y="-464.3" font-family="Helvetica,sans-Serif" font-size="11.00" fill="#000000">[table]</text>
<polygon fill="none" stroke="#000000" points="661,-437.2 661,-456.2 777,-456.2 777,-437.2 661,-437.2"/>
<text text-anchor="start" x="664" y="-443.3" font-family="Helvetica,sans-Serif" font-size="11.00" fill="#000000">...</text>
<polygon fill="#ffffff" stroke="transparent" points="661,-418.2 661,-437.2 704,-437.2 704,-418.2 661,-418.2"/>
<polygon fill="none" stroke="#000000" points="661,-418.2 661,-437.2 704,-437.2 704,-418.2 661,-418.2"/>
<text text-anchor="start" x="664" y="-424.3" font-family="Helvetica,sans-Serif" font-size="11.00" fill="#000000">&lt; 2</text>
<polygon fill="#ffffff" stroke="transparent" points="704,-418.2 704,-437.2 753,-437.2 753,-418.2 704,-418.2"/>
<polygon fill="none" stroke="#000000" points="704,-418.2 704,-437.2 753,-437.2 753,-418.2 704,-418.2"/>
<text text-anchor="start" x="717.6105" y="-424.3" font-family="Helvetica,sans-Serif" font-size="11.00" fill="#000000">0 rows</text>
<polygon fill="#ffffff" stroke="transparent" points="753,-418.2 753,-437.2 777,-437.2 777,-418.2 753,-418.2"/>
<polygon fill="none" stroke="#000000" points="753,-418.2 753,-437.2 777,-437.2 777,-418.2 753,-418.2"/>
<text text-anchor="start" x="767.8862" y="-424.3" font-family="Helvetica,sans-Serif" font-size="11.00" fill="#000000"> &#160;</text>
</a>
</g>
</g>
<!-- mat_aspect&#45;&gt;mat -->
<g id="edge3" class="edge">
<title>mat_aspect:w&#45;&gt;mat:e</title>
<path fill="none" stroke="#000000" d="M646.613,-447.6399C601.2402,-457.2917 598.4556,-512.2 544,-512.2"/>
<polygon fill="#000000" stroke="#000000" points="653.0398,-446.9967 661.3585,-449.7821 657.0199,-446.5984 661,-446.2 661,-446.2 661,-446.2 657.0199,-446.5984 660.6415,-442.6179 653.0398,-446.9967 653.0398,-446.9967"/>
<ellipse fill="none" stroke="#000000" cx="649.8557" cy="-447.3154" rx="3.2" ry="3.2"/>
</g>
<!-- aspect -->
<g id="node4" class="node">
<title>aspect</title>
<g id="a_node4"><a xlink:href="../../tables/aspect.html" xlink:title="aspect" target="_top">
<polygon fill="#ffffff" stroke="transparent" points="427.5,-293.7 427.5,-354.7 528.5,-354.7 528.5,-293.7 427.5,-293.7"/>
<polygon fill="#f5f5f5" stroke="transparent" points="428,-331.2 428,-354.2 529,-354.2 529,-331.2 428,-331.2"/>
<polygon fill="none" stroke="#000000" points="428,-331.2 428,-354.2 529,-354.2 529,-331.2 428,-331.2"/>
<text text-anchor="start" x="433" y="-339.8" font-family="Helvetica,sans-Serif" font-weight="bold" font-size="11.00" fill="#000000">aspect</text>
<text text-anchor="start" x="494.0437" y="-339.3" font-family="Helvetica,sans-Serif" font-size="11.00" fill="#000000">[table]</text>
<polygon fill="none" stroke="#000000" points="428,-312.2 428,-331.2 529,-331.2 529,-312.2 428,-312.2"/>
<text text-anchor="start" x="431" y="-318.3" font-family="Helvetica,sans-Serif" font-size="11.00" fill="#000000">...</text>
<polygon fill="#ffffff" stroke="transparent" points="428,-293.2 428,-312.2 449,-312.2 449,-293.2 428,-293.2"/>
<polygon fill="none" stroke="#000000" points="428,-293.2 428,-312.2 449,-312.2 449,-293.2 428,-293.2"/>
<text text-anchor="start" x="430.7027" y="-299.3" font-family="Helvetica,sans-Serif" font-size="11.00" fill="#000000">&lt; 1</text>
<polygon fill="#ffffff" stroke="transparent" points="449,-293.2 449,-312.2 508,-312.2 508,-293.2 449,-293.2"/>
<polygon fill="none" stroke="#000000" points="449,-293.2 449,-312.2 508,-312.2 508,-293.2 449,-293.2"/>
<text text-anchor="start" x="451.6045" y="-299.3" font-family="Helvetica,sans-Serif" font-size="11.00" fill="#000000">2.300 rows</text>
<polygon fill="#ffffff" stroke="transparent" points="508,-293.2 508,-312.2 529,-312.2 529,-293.2 508,-293.2"/>
<polygon fill="none" stroke="#000000" points="508,-293.2 508,-312.2 529,-312.2 529,-293.2 508,-293.2"/>
<text text-anchor="start" x="510.7027" y="-299.3" font-family="Helvetica,sans-Serif" font-size="11.00" fill="#000000">6 &gt;</text>
</a>
</g>
</g>
<!-- mat_aspect&#45;&gt;aspect -->
<g id="edge2" class="edge">
<title>mat_aspect:w&#45;&gt;aspect:e</title>
<path fill="none" stroke="#000000" d="M646.2994,-444.6195C583.6465,-430.1497 604.4318,-321.2 529,-321.2"/>
<polygon fill="#000000" stroke="#000000" points="653.0458,-445.3448 660.6152,-449.7794 657.0229,-445.7724 661,-446.2 661,-446.2 661,-446.2 657.0229,-445.7724 661.3848,-442.6206 653.0458,-445.3448 653.0458,-445.3448"/>
<ellipse fill="none" stroke="#000000" cx="649.8642" cy="-445.0027" rx="3.2" ry="3.2"/>
</g>
<!-- mat_mat_dr -->
<g id="node5" class="node">
<title>mat_mat_dr</title>
<g id="a_node5"><a xlink:href="../../tables/mat_mat_dr.html" xlink:title="mat_mat_dr" target="_top">
<polygon fill="#ffffff" stroke="transparent" points="660,-582.7 660,-643.7 778,-643.7 778,-582.7 660,-582.7"/>
<polygon fill="#f5f5f5" stroke="transparent" points="660,-620.2 660,-643.2 778,-643.2 778,-620.2 660,-620.2"/>
<polygon fill="none" stroke="#000000" points="660,-620.2 660,-643.2 778,-643.2 778,-620.2 660,-620.2"/>
<text text-anchor="start" x="665" y="-628.8" font-family="Helvetica,sans-Serif" font-weight="bold" font-size="11.00" fill="#000000">mat_mat_dr</text>
<text text-anchor="start" x="743.5219" y="-628.3" font-family="Helvetica,sans-Serif" font-size="11.00" fill="#000000">[table]</text>
<polygon fill="none" stroke="#000000" points="660,-601.2 660,-620.2 778,-620.2 778,-601.2 660,-601.2"/>
<text text-anchor="start" x="663" y="-607.3" font-family="Helvetica,sans-Serif" font-size="11.00" fill="#000000">...</text>
<polygon fill="#ffffff" stroke="transparent" points="660,-582.2 660,-601.2 704,-601.2 704,-582.2 660,-582.2"/>
<polygon fill="none" stroke="#000000" points="660,-582.2 660,-601.2 704,-601.2 704,-582.2 660,-582.2"/>
<text text-anchor="start" x="663" y="-588.3" font-family="Helvetica,sans-Serif" font-size="11.00" fill="#000000">&lt; 2</text>
<polygon fill="#ffffff" stroke="transparent" points="704,-582.2 704,-601.2 754,-601.2 754,-582.2 704,-582.2"/>
<polygon fill="none" stroke="#000000" points="704,-582.2 704,-601.2 754,-601.2 754,-582.2 704,-582.2"/>
<text text-anchor="start" x="718.6105" y="-588.3" font-family="Helvetica,sans-Serif" font-size="11.00" fill="#000000">0 rows</text>
<polygon fill="#ffffff" stroke="transparent" points="754,-582.2 754,-601.2 778,-601.2 778,-582.2 754,-582.2"/>
<polygon fill="none" stroke="#000000" points="754,-582.2 754,-601.2 778,-601.2 778,-582.2 754,-582.2"/>
<text text-anchor="start" x="768.8862" y="-588.3" font-family="Helvetica,sans-Serif" font-size="11.00" fill="#000000"> &#160;</text>
</a>
</g>
</g>
<!-- mat_mat_dr&#45;&gt;mat -->
<g id="edge4" class="edge">
<title>mat_mat_dr:w&#45;&gt;mat:e</title>
<path fill="none" stroke="#000000" d="M645.6827,-608.499C594.947,-595.4856 606.2184,-512.2 544,-512.2"/>
<polygon fill="#000000" stroke="#000000" points="652.0559,-609.2561 659.5753,-613.7749 656.0279,-609.7281 660,-610.2 660,-610.2 660,-610.2 656.0279,-609.7281 660.4247,-606.6251 652.0559,-609.2561 652.0559,-609.2561"/>
<ellipse fill="none" stroke="#000000" cx="648.8782" cy="-608.8786" rx="3.2" ry="3.2"/>
</g>
<!-- mo_aspect -->
<g id="node6" class="node">
<title>mo_aspect</title>
<g id="a_node6"><a xlink:href="../../tables/mo_aspect.html" xlink:title="mo_aspect" target="_top">
<polygon fill="#ffffff" stroke="transparent" points="664,-292.7 664,-397.7 774,-397.7 774,-292.7 664,-292.7"/>
<polygon fill="#f5f5f5" stroke="transparent" points="664,-374.2 664,-397.2 774,-397.2 774,-374.2 664,-374.2"/>
<polygon fill="none" stroke="#000000" points="664,-374.2 664,-397.2 774,-397.2 774,-374.2 664,-374.2"/>
<text text-anchor="start" x="669" y="-382.8" font-family="Helvetica,sans-Serif" font-weight="bold" font-size="11.00" fill="#000000">mo_aspect</text>
<text text-anchor="start" x="739.5219" y="-382.3" font-family="Helvetica,sans-Serif" font-size="11.00" fill="#000000">[table]</text>
<polygon fill="none" stroke="#000000" points="664,-352.2 664,-374.2 774,-374.2 774,-352.2 664,-352.2"/>
<image xlink:href="../../images/primaryKeys.png" width="11px" height="12px" preserveAspectRatio="xMinYMin meet" x="669" y="-369.2"/>
<text text-anchor="start" x="693" y="-359.3" font-family="Helvetica,sans-Serif" font-size="11.00" fill="#000000">mo_id</text>
<polygon fill="none" stroke="#000000" points="664,-330.2 664,-352.2 774,-352.2 774,-330.2 664,-330.2"/>
<image xlink:href="../../images/primaryKeys.png" width="11px" height="12px" preserveAspectRatio="xMinYMin meet" x="669" y="-347.2"/>
<text text-anchor="start" x="693" y="-337.3" font-family="Helvetica,sans-Serif" font-size="11.00" fill="#000000">aspect_id</text>
<polygon fill="none" stroke="#000000" points="664,-311.2 664,-330.2 774,-330.2 774,-311.2 664,-311.2"/>
<text text-anchor="start" x="667" y="-317.3" font-family="Helvetica,sans-Serif" font-size="11.00" fill="#000000">...</text>
<polygon fill="#ffffff" stroke="transparent" points="664,-292.2 664,-311.2 694,-311.2 694,-292.2 664,-292.2"/>
<polygon fill="none" stroke="#000000" points="664,-292.2 664,-311.2 694,-311.2 694,-292.2 664,-292.2"/>
<text text-anchor="start" x="667" y="-298.3" font-family="Helvetica,sans-Serif" font-size="11.00" fill="#000000">&lt; 2</text>
<polygon fill="#ffffff" stroke="transparent" points="694,-292.2 694,-311.2 757,-311.2 757,-292.2 694,-292.2"/>
<polygon fill="none" stroke="#000000" points="694,-292.2 694,-311.2 757,-311.2 757,-292.2 694,-292.2"/>
<text text-anchor="start" x="700.2089" y="-298.3" font-family="Helvetica,sans-Serif" font-size="11.00" fill="#000000">2.000 rows</text>
<polygon fill="#ffffff" stroke="transparent" points="757,-292.2 757,-311.2 774,-311.2 774,-292.2 757,-292.2"/>
<polygon fill="none" stroke="#000000" points="757,-292.2 757,-311.2 774,-311.2 774,-292.2 757,-292.2"/>
<text text-anchor="start" x="764.8862" y="-298.3" font-family="Helvetica,sans-Serif" font-size="11.00" fill="#000000"> &#160;</text>
</a>
</g>
</g>
<!-- mo_aspect&#45;&gt;moving_object -->
<g id="edge6" class="edge">
<title>mo_aspect:w&#45;&gt;moving_object:e</title>
<path fill="none" stroke="#000000" d="M649.4161,-363.5457C532.3325,-369.1016 475.501,-438.7791 378,-365.2 323.0322,-323.7186 404.3634,-216.2 335.5,-216.2"/>
<polygon fill="#000000" stroke="#000000" points="656.0022,-363.3897 664.0853,-366.799 660.0011,-363.2948 664,-363.2 664,-363.2 664,-363.2 660.0011,-363.2948 663.9147,-359.601 656.0022,-363.3897 656.0022,-363.3897"/>
<ellipse fill="none" stroke="#000000" cx="652.8031" cy="-363.4655" rx="3.2" ry="3.2"/>
</g>
<!-- mo_aspect&#45;&gt;aspect -->
<g id="edge5" class="edge">
<title>mo_aspect:w&#45;&gt;aspect:e</title>
<path fill="none" stroke="#000000" d="M649.3433,-340.7823C600.6453,-337.9102 584.4423,-321.2 529,-321.2"/>
<polygon fill="#000000" stroke="#000000" points="656.0032,-340.972 663.8974,-344.7985 660.0016,-341.086 664,-341.2 664,-341.2 664,-341.2 660.0016,-341.086 664.1026,-337.6015 656.0032,-340.972 656.0032,-340.972"/>
<ellipse fill="none" stroke="#000000" cx="652.8045" cy="-340.8808" rx="3.2" ry="3.2"/>
</g>
<!-- mo_relationship -->
<g id="node7" class="node">
<title>mo_relationship</title>
<g id="a_node7"><a xlink:href="../../tables/mo_relationship.html" xlink:title="mo_relationship" target="_top">
<polygon fill="#ffffff" stroke="transparent" points="404.5,-145.7 404.5,-272.7 551.5,-272.7 551.5,-145.7 404.5,-145.7"/>
<polygon fill="#f5f5f5" stroke="transparent" points="405,-249.2 405,-272.2 552,-272.2 552,-249.2 405,-249.2"/>
<polygon fill="none" stroke="#000000" points="405,-249.2 405,-272.2 552,-272.2 552,-249.2 405,-249.2"/>
<text text-anchor="start" x="410" y="-257.8" font-family="Helvetica,sans-Serif" font-weight="bold" font-size="11.00" fill="#000000">mo_relationship</text>
<text text-anchor="start" x="517.5219" y="-257.3" font-family="Helvetica,sans-Serif" font-size="11.00" fill="#000000">[table]</text>
<polygon fill="none" stroke="#000000" points="405,-227.2 405,-249.2 552,-249.2 552,-227.2 405,-227.2"/>
<image xlink:href="../../images/primaryKeys.png" width="11px" height="12px" preserveAspectRatio="xMinYMin meet" x="410" y="-244.2"/>
<text text-anchor="start" x="434" y="-234.3" font-family="Helvetica,sans-Serif" font-size="11.00" fill="#000000">mor_id</text>
<polygon fill="#ffffff" stroke="transparent" points="405,-205.2 405,-227.2 552,-227.2 552,-205.2 405,-205.2"/>
<polygon fill="none" stroke="#000000" points="405,-205.2 405,-227.2 552,-227.2 552,-205.2 405,-205.2"/>
<image xlink:href="../../images/foreignKeys.png" width="11px" height="12px" preserveAspectRatio="xMinYMin meet" x="410" y="-222.2"/>
<text text-anchor="start" x="434" y="-212.3" font-family="Helvetica,sans-Serif" font-size="11.00" fill="#000000">mo_target</text>
<polygon fill="#ffffff" stroke="transparent" points="405,-183.2 405,-205.2 552,-205.2 552,-183.2 405,-183.2"/>
<polygon fill="none" stroke="#000000" points="405,-183.2 405,-205.2 552,-205.2 552,-183.2 405,-183.2"/>
<image xlink:href="../../images/foreignKeys.png" width="11px" height="12px" preserveAspectRatio="xMinYMin meet" x="410" y="-200.2"/>
<text text-anchor="start" x="434" y="-190.3" font-family="Helvetica,sans-Serif" font-size="11.00" fill="#000000">mo_source</text>
<polygon fill="none" stroke="#000000" points="405,-164.2 405,-183.2 552,-183.2 552,-164.2 405,-164.2"/>
<text text-anchor="start" x="408" y="-170.3" font-family="Helvetica,sans-Serif" font-size="11.00" fill="#000000">...</text>
<polygon fill="#ffffff" stroke="transparent" points="405,-145.2 405,-164.2 459,-164.2 459,-145.2 405,-145.2"/>
<polygon fill="none" stroke="#000000" points="405,-145.2 405,-164.2 459,-164.2 459,-145.2 405,-145.2"/>
<text text-anchor="start" x="408" y="-151.3" font-family="Helvetica,sans-Serif" font-size="11.00" fill="#000000">&lt; 2</text>
<polygon fill="#ffffff" stroke="transparent" points="459,-145.2 459,-164.2 514,-164.2 514,-145.2 459,-145.2"/>
<polygon fill="none" stroke="#000000" points="459,-145.2 459,-164.2 514,-164.2 514,-145.2 459,-145.2"/>
<text text-anchor="start" x="478.6105" y="-151.3" font-family="Helvetica,sans-Serif" font-size="11.00" fill="#000000">0 rows</text>
<polygon fill="#ffffff" stroke="transparent" points="514,-145.2 514,-164.2 552,-164.2 552,-145.2 514,-145.2"/>
<polygon fill="none" stroke="#000000" points="514,-145.2 514,-164.2 552,-164.2 552,-145.2 514,-145.2"/>
<text text-anchor="start" x="533.4053" y="-151.3" font-family="Helvetica,sans-Serif" font-size="11.00" fill="#000000">2 &gt;</text>
</a>
</g>
</g>
<!-- mo_relationship&#45;&gt;moving_object -->
<g id="edge7" class="edge">
<title>mo_relationship:w&#45;&gt;moving_object:e</title>
<path fill="none" stroke="#000000" d="M390.4675,-195.9263C370.1663,-201.1126 362.3308,-216.2 335.5,-216.2"/>
<polygon fill="#000000" stroke="#000000" points="397.0559,-195.1437 405.4247,-197.7749 401.0279,-194.6719 405,-194.2 405,-194.2 405,-194.2 401.0279,-194.6719 404.5753,-190.6251 397.0559,-195.1437 397.0559,-195.1437"/>
<ellipse fill="none" stroke="#000000" cx="393.8782" cy="-195.5212" rx="3.2" ry="3.2"/>
</g>
<!-- mo_relationship&#45;&gt;moving_object -->
<g id="edge8" class="edge">
<title>mo_relationship:w&#45;&gt;moving_object:e</title>
<path fill="none" stroke="#000000" d="M390.3241,-216.2C370.5879,-216.2 360.8385,-216.2 335.5,-216.2"/>
<polygon fill="#000000" stroke="#000000" points="397,-216.2001 405,-219.8 401,-216.2 405,-216.2 405,-216.2 405,-216.2 401,-216.2 405,-212.6 397,-216.2001 397,-216.2001"/>
<ellipse fill="none" stroke="#000000" cx="393.8" cy="-216.2001" rx="3.2" ry="3.2"/>
</g>
<!-- mo_relationship_mor_dr -->
<g id="node8" class="node">
<title>mo_relationship_mor_dr</title>
<g id="a_node8"><a xlink:href="../../tables/mo_relationship_mor_dr.html" xlink:title="mo_relationship_mor_dr" target="_top">
<polygon fill="#ffffff" stroke="transparent" points="619,-128.7 619,-189.7 819,-189.7 819,-128.7 619,-128.7"/>
<polygon fill="#f5f5f5" stroke="transparent" points="619,-166.2 619,-189.2 819,-189.2 819,-166.2 619,-166.2"/>
<polygon fill="none" stroke="#000000" points="619,-166.2 619,-189.2 819,-189.2 819,-166.2 619,-166.2"/>
<text text-anchor="start" x="624" y="-174.8" font-family="Helvetica,sans-Serif" font-weight="bold" font-size="11.00" fill="#000000">mo_relationship_mor_dr</text>
<text text-anchor="start" x="784.5219" y="-174.3" font-family="Helvetica,sans-Serif" font-size="11.00" fill="#000000">[table]</text>
<polygon fill="none" stroke="#000000" points="619,-147.2 619,-166.2 819,-166.2 819,-147.2 619,-147.2"/>
<text text-anchor="start" x="622" y="-153.3" font-family="Helvetica,sans-Serif" font-size="11.00" fill="#000000">...</text>
<polygon fill="#ffffff" stroke="transparent" points="619,-128.2 619,-147.2 704,-147.2 704,-128.2 619,-128.2"/>
<polygon fill="none" stroke="#000000" points="619,-128.2 619,-147.2 704,-147.2 704,-128.2 619,-128.2"/>
<text text-anchor="start" x="622" y="-134.3" font-family="Helvetica,sans-Serif" font-size="11.00" fill="#000000">&lt; 2</text>
<polygon fill="#ffffff" stroke="transparent" points="704,-128.2 704,-147.2 774,-147.2 774,-128.2 704,-128.2"/>
<polygon fill="none" stroke="#000000" points="704,-128.2 704,-147.2 774,-147.2 774,-128.2 704,-128.2"/>
<text text-anchor="start" x="738.6105" y="-134.3" font-family="Helvetica,sans-Serif" font-size="11.00" fill="#000000">0 rows</text>
<polygon fill="#ffffff" stroke="transparent" points="774,-128.2 774,-147.2 819,-147.2 819,-128.2 774,-128.2"/>
<polygon fill="none" stroke="#000000" points="774,-128.2 774,-147.2 819,-147.2 819,-128.2 774,-128.2"/>
<text text-anchor="start" x="809.8862" y="-134.3" font-family="Helvetica,sans-Serif" font-size="11.00" fill="#000000"> &#160;</text>
</a>
</g>
</g>
<!-- mo_relationship_mor_dr&#45;&gt;mo_relationship -->
<g id="edge9" class="edge">
<title>mo_relationship_mor_dr:w&#45;&gt;mo_relationship:e</title>
<path fill="none" stroke="#000000" d="M604.9031,-159.5161C577.4188,-174.857 593.3638,-238.2 552,-238.2"/>
<polygon fill="#000000" stroke="#000000" points="611.2126,-158.0319 619.8244,-159.7044 615.1063,-157.116 619,-156.2 619,-156.2 619,-156.2 615.1063,-157.116 618.1756,-152.6956 611.2126,-158.0319 611.2126,-158.0319"/>
<ellipse fill="none" stroke="#000000" cx="608.0976" cy="-158.7647" rx="3.2" ry="3.2"/>
</g>
<!-- mor_aspect -->
<g id="node9" class="node">
<title>mor_aspect</title>
<g id="a_node9"><a xlink:href="../../tables/mor_aspect.html" xlink:title="mor_aspect" target="_top">
<polygon fill="#ffffff" stroke="transparent" points="661,-210.7 661,-271.7 777,-271.7 777,-210.7 661,-210.7"/>
<polygon fill="#f5f5f5" stroke="transparent" points="661,-248.2 661,-271.2 777,-271.2 777,-248.2 661,-248.2"/>
<polygon fill="none" stroke="#000000" points="661,-248.2 661,-271.2 777,-271.2 777,-248.2 661,-248.2"/>
<text text-anchor="start" x="666" y="-256.8" font-family="Helvetica,sans-Serif" font-weight="bold" font-size="11.00" fill="#000000">mor_aspect</text>
<text text-anchor="start" x="742.5219" y="-256.3" font-family="Helvetica,sans-Serif" font-size="11.00" fill="#000000">[table]</text>
<polygon fill="none" stroke="#000000" points="661,-229.2 661,-248.2 777,-248.2 777,-229.2 661,-229.2"/>
<text text-anchor="start" x="664" y="-235.3" font-family="Helvetica,sans-Serif" font-size="11.00" fill="#000000">...</text>
<polygon fill="#ffffff" stroke="transparent" points="661,-210.2 661,-229.2 704,-229.2 704,-210.2 661,-210.2"/>
<polygon fill="none" stroke="#000000" points="661,-210.2 661,-229.2 704,-229.2 704,-210.2 661,-210.2"/>
<text text-anchor="start" x="664" y="-216.3" font-family="Helvetica,sans-Serif" font-size="11.00" fill="#000000">&lt; 2</text>
<polygon fill="#ffffff" stroke="transparent" points="704,-210.2 704,-229.2 753,-229.2 753,-210.2 704,-210.2"/>
<polygon fill="none" stroke="#000000" points="704,-210.2 704,-229.2 753,-229.2 753,-210.2 704,-210.2"/>
<text text-anchor="start" x="717.6105" y="-216.3" font-family="Helvetica,sans-Serif" font-size="11.00" fill="#000000">0 rows</text>
<polygon fill="#ffffff" stroke="transparent" points="753,-210.2 753,-229.2 777,-229.2 777,-210.2 753,-210.2"/>
<polygon fill="none" stroke="#000000" points="753,-210.2 753,-229.2 777,-229.2 777,-210.2 753,-210.2"/>
<text text-anchor="start" x="767.8862" y="-216.3" font-family="Helvetica,sans-Serif" font-size="11.00" fill="#000000"> &#160;</text>
</a>
</g>
</g>
<!-- mor_aspect&#45;&gt;aspect -->
<g id="edge10" class="edge">
<title>mor_aspect:w&#45;&gt;aspect:e</title>
<path fill="none" stroke="#000000" d="M646.4178,-239.5714C592.2647,-250.363 593.0218,-321.2 529,-321.2"/>
<polygon fill="#000000" stroke="#000000" points="653.0351,-238.9491 661.3371,-241.7842 657.0176,-238.5745 661,-238.2 661,-238.2 661,-238.2 657.0176,-238.5745 660.6629,-234.6158 653.0351,-238.9491 653.0351,-238.9491"/>
<ellipse fill="none" stroke="#000000" cx="649.8492" cy="-239.2487" rx="3.2" ry="3.2"/>
</g>
<!-- mor_aspect&#45;&gt;mo_relationship -->
<g id="edge11" class="edge">
<title>mor_aspect:w&#45;&gt;mo_relationship:e</title>
<path fill="none" stroke="#000000" d="M646.313,-238.2C609.4716,-238.2 595.1458,-238.2 552,-238.2"/>
<polygon fill="#000000" stroke="#000000" points="653,-238.2001 661,-241.8 657,-238.2 661,-238.2 661,-238.2 661,-238.2 657,-238.2 661,-234.6 653,-238.2001 653,-238.2001"/>
<ellipse fill="none" stroke="#000000" cx="649.8" cy="-238.2001" rx="3.2" ry="3.2"/>
</g>
<!-- moving_object_mo_dr -->
<g id="node11" class="node">
<title>moving_object_mo_dr</title>
<g id="a_node11"><a xlink:href="../../tables/moving_object_mo_dr.html" xlink:title="moving_object_mo_dr" target="_top">
<polygon fill="#ffffff" stroke="transparent" points="386,-38.2 386,-124.2 570,-124.2 570,-38.2 386,-38.2"/>
<polygon fill="#f5f5f5" stroke="transparent" points="386,-101.2 386,-124.2 570,-124.2 570,-101.2 386,-101.2"/>
<polygon fill="none" stroke="#000000" points="386,-101.2 386,-124.2 570,-124.2 570,-101.2 386,-101.2"/>
<text text-anchor="start" x="391" y="-109.8" font-family="Helvetica,sans-Serif" font-weight="bold" font-size="11.00" fill="#000000">moving_object_mo_dr</text>
<text text-anchor="start" x="535.5219" y="-109.3" font-family="Helvetica,sans-Serif" font-size="11.00" fill="#000000">[table]</text>
<polygon fill="none" stroke="#000000" points="386,-79.2 386,-101.2 570,-101.2 570,-79.2 386,-79.2"/>
<image xlink:href="../../images/primaryKeys.png" width="11px" height="12px" preserveAspectRatio="xMinYMin meet" x="391" y="-96.2"/>
<text text-anchor="start" x="415" y="-86.3" font-family="Helvetica,sans-Serif" font-size="11.00" fill="#000000">mo_id</text>
<polygon fill="none" stroke="#000000" points="386,-57.2 386,-79.2 570,-79.2 570,-57.2 386,-57.2"/>
<image xlink:href="../../images/primaryKeys.png" width="11px" height="12px" preserveAspectRatio="xMinYMin meet" x="391" y="-74.2"/>
<text text-anchor="start" x="415" y="-64.3" font-family="Helvetica,sans-Serif" font-size="11.00" fill="#000000">rule_id</text>
<polygon fill="#ffffff" stroke="transparent" points="386,-38.2 386,-57.2 463,-57.2 463,-38.2 386,-38.2"/>
<polygon fill="none" stroke="#000000" points="386,-38.2 386,-57.2 463,-57.2 463,-38.2 386,-38.2"/>
<text text-anchor="start" x="389" y="-44.3" font-family="Helvetica,sans-Serif" font-size="11.00" fill="#000000">&lt; 2</text>
<polygon fill="#ffffff" stroke="transparent" points="463,-38.2 463,-57.2 529,-57.2 529,-38.2 463,-38.2"/>
<polygon fill="none" stroke="#000000" points="463,-38.2 463,-57.2 529,-57.2 529,-38.2 463,-38.2"/>
<text text-anchor="start" x="493.6105" y="-44.3" font-family="Helvetica,sans-Serif" font-size="11.00" fill="#000000">0 rows</text>
<polygon fill="#ffffff" stroke="transparent" points="529,-38.2 529,-57.2 570,-57.2 570,-38.2 529,-38.2"/>
<polygon fill="none" stroke="#000000" points="529,-38.2 529,-57.2 570,-57.2 570,-38.2 529,-38.2"/>
<text text-anchor="start" x="560.8862" y="-44.3" font-family="Helvetica,sans-Serif" font-size="11.00" fill="#000000"> &#160;</text>
</a>
</g>
</g>
<!-- moving_object_mo_dr&#45;&gt;moving_object -->
<g id="edge13" class="edge">
<title>moving_object_mo_dr:w&#45;&gt;moving_object:e</title>
<path fill="none" stroke="#000000" d="M371.8154,-93.5702C338.1284,-113.6077 389.9387,-216.2 335.5,-216.2"/>
<polygon fill="#000000" stroke="#000000" points="378.2167,-92.0493 386.8322,-93.7025 382.1083,-91.1247 386,-90.2 386,-90.2 386,-90.2 382.1083,-91.1247 385.1678,-86.6975 378.2167,-92.0493 378.2167,-92.0493"/>
<ellipse fill="none" stroke="#000000" cx="375.1033" cy="-92.7891" rx="3.2" ry="3.2"/>
</g>
<!-- mo_dr -->
<g id="node12" class="node">
<title>mo_dr</title>
<g id="a_node12"><a xlink:href="../../tables/mo_dr.html" xlink:title="mo_dr" target="_top">
<polygon fill="#ffffff" stroke="transparent" points="205.5,-40.7 205.5,-101.7 285.5,-101.7 285.5,-40.7 205.5,-40.7"/>
<polygon fill="#f5f5f5" stroke="transparent" points="205.5,-78.2 205.5,-101.2 285.5,-101.2 285.5,-78.2 205.5,-78.2"/>
<polygon fill="none" stroke="#000000" points="205.5,-78.2 205.5,-101.2 285.5,-101.2 285.5,-78.2 205.5,-78.2"/>
<text text-anchor="start" x="210.5" y="-86.8" font-family="Helvetica,sans-Serif" font-weight="bold" font-size="11.00" fill="#000000">mo_dr</text>
<text text-anchor="start" x="251.0219" y="-86.3" font-family="Helvetica,sans-Serif" font-size="11.00" fill="#000000">[table]</text>
<polygon fill="none" stroke="#000000" points="205.5,-59.2 205.5,-78.2 285.5,-78.2 285.5,-59.2 205.5,-59.2"/>
<text text-anchor="start" x="208.5" y="-65.3" font-family="Helvetica,sans-Serif" font-size="11.00" fill="#000000">...</text>
<polygon fill="#ffffff" stroke="transparent" points="205.5,-40.2 205.5,-59.2 226.5,-59.2 226.5,-40.2 205.5,-40.2"/>
<polygon fill="none" stroke="#000000" points="205.5,-40.2 205.5,-59.2 226.5,-59.2 226.5,-40.2 205.5,-40.2"/>
<text text-anchor="start" x="208.2027" y="-46.3" font-family="Helvetica,sans-Serif" font-size="11.00" fill="#000000">&lt; 1</text>
<polygon fill="#ffffff" stroke="transparent" points="226.5,-40.2 226.5,-59.2 264.5,-59.2 264.5,-40.2 226.5,-40.2"/>
<polygon fill="none" stroke="#000000" points="226.5,-40.2 226.5,-59.2 264.5,-59.2 264.5,-40.2 226.5,-40.2"/>
<text text-anchor="start" x="229.3053" y="-46.3" font-family="Helvetica,sans-Serif" font-size="11.00" fill="#000000">0 rows</text>
<polygon fill="#ffffff" stroke="transparent" points="264.5,-40.2 264.5,-59.2 285.5,-59.2 285.5,-40.2 264.5,-40.2"/>
<polygon fill="none" stroke="#000000" points="264.5,-40.2 264.5,-59.2 285.5,-59.2 285.5,-40.2 264.5,-40.2"/>
<text text-anchor="start" x="267.2027" y="-46.3" font-family="Helvetica,sans-Serif" font-size="11.00" fill="#000000">1 &gt;</text>
</a>
</g>
</g>
<!-- moving_object_mo_dr&#45;&gt;mo_dr -->
<g id="edge14" class="edge">
<title>moving_object_mo_dr:w&#45;&gt;mo_dr:e</title>
<path fill="none" stroke="#000000" d="M371.5692,-68.2C338.2561,-68.2 324.9323,-68.2 285.5,-68.2"/>
<polygon fill="#000000" stroke="#000000" points="378,-68.2001 386,-71.8 382,-68.2 386,-68.2 386,-68.2 386,-68.2 382,-68.2 386,-64.6 378,-68.2001 378,-68.2001"/>
<ellipse fill="none" stroke="#000000" cx="374.8" cy="-68.2001" rx="3.2" ry="3.2"/>
</g>
<!-- point -->
<g id="node13" class="node">
<title>point</title>
<g id="a_node13"><a xlink:href="../../tables/point.html" xlink:title="point" target="_top">
<polygon fill="#ffffff" stroke="transparent" points="657.5,-500.7 657.5,-561.7 780.5,-561.7 780.5,-500.7 657.5,-500.7"/>
<polygon fill="#f5f5f5" stroke="transparent" points="658,-538.2 658,-561.2 781,-561.2 781,-538.2 658,-538.2"/>
<polygon fill="none" stroke="#000000" points="658,-538.2 658,-561.2 781,-561.2 781,-538.2 658,-538.2"/>
<text text-anchor="start" x="663" y="-546.8" font-family="Helvetica,sans-Serif" font-weight="bold" font-size="11.00" fill="#000000">point</text>
<text text-anchor="start" x="746.0437" y="-546.3" font-family="Helvetica,sans-Serif" font-size="11.00" fill="#000000">[table]</text>
<polygon fill="none" stroke="#000000" points="658,-519.2 658,-538.2 781,-538.2 781,-519.2 658,-519.2"/>
<text text-anchor="start" x="661" y="-525.3" font-family="Helvetica,sans-Serif" font-size="11.00" fill="#000000">...</text>
<polygon fill="#ffffff" stroke="transparent" points="658,-500.2 658,-519.2 679,-519.2 679,-500.2 658,-500.2"/>
<polygon fill="none" stroke="#000000" points="658,-500.2 658,-519.2 679,-519.2 679,-500.2 658,-500.2"/>
<text text-anchor="start" x="660.7026" y="-506.3" font-family="Helvetica,sans-Serif" font-size="11.00" fill="#000000">&lt; 1</text>
<polygon fill="#ffffff" stroke="transparent" points="679,-500.2 679,-519.2 760,-519.2 760,-500.2 679,-500.2"/>
<polygon fill="none" stroke="#000000" points="679,-500.2 679,-519.2 760,-519.2 760,-500.2 679,-500.2"/>
<text text-anchor="start" x="681.9037" y="-506.3" font-family="Helvetica,sans-Serif" font-size="11.00" fill="#000000">1.039.258 rows</text>
<polygon fill="#ffffff" stroke="transparent" points="760,-500.2 760,-519.2 781,-519.2 781,-500.2 760,-500.2"/>
<polygon fill="none" stroke="#000000" points="760,-500.2 760,-519.2 781,-519.2 781,-500.2 760,-500.2"/>
<text text-anchor="start" x="762.7026" y="-506.3" font-family="Helvetica,sans-Serif" font-size="11.00" fill="#000000">4 &gt;</text>
</a>
</g>
</g>
<!-- point&#45;&gt;mat -->
<g id="edge15" class="edge">
<title>point:w&#45;&gt;mat:e</title>
<path fill="none" stroke="#000000" d="M643.5505,-527.7384C604.0582,-525.115 589.967,-512.2 544,-512.2"/>
<polygon fill="#000000" stroke="#000000" points="650.0041,-527.9445 657.885,-531.7982 654.002,-528.0723 658,-528.2 658,-528.2 658,-528.2 654.002,-528.0723 658.115,-524.6018 650.0041,-527.9445 650.0041,-527.9445"/>
<ellipse fill="none" stroke="#000000" cx="646.8057" cy="-527.8423" rx="3.2" ry="3.2"/>
</g>
</g>
</svg>
