<?xml version="1.0" encoding="UTF-8" standalone="no"?>
<!DOCTYPE svg PUBLIC "-//W3C//DTD SVG 1.1//EN"
 "http://www.w3.org/Graphics/SVG/1.1/DTD/svg11.dtd">
<!-- Generated by graphviz version 2.40.1 (20161225.0304)
 -->
<!-- Title: twoDegreesRelationshipsDiagram Pages: 1 -->
<svg width="623pt" height="401pt"
 viewBox="0.00 0.00 623.00 400.70" xmlns="http://www.w3.org/2000/svg" xmlns:xlink="http://www.w3.org/1999/xlink">
<g id="graph0" class="graph" transform="scale(1 1) rotate(0) translate(4 396.7)">
<title>twoDegreesRelationshipsDiagram</title>
<polygon fill="#ffffff" stroke="transparent" points="-4,4 -4,-396.7 619,-396.7 619,4 -4,4"/>
<text text-anchor="middle" x="72.4936" y="-7.3" font-family="Helvetica,sans-Serif" font-size="11.00" fill="#000000">Generated by SchemaSpy</text>
<!-- mat -->
<g id="node1" class="node">
<title>mat</title>
<g id="a_node1"><a xlink:href="../../tables/mat.html" xlink:title="mat" target="_top">
<polygon fill="#ffffff" stroke="transparent" points="444,-327.7 444,-388.7 558,-388.7 558,-327.7 444,-327.7"/>
<polygon fill="#f5f5f5" stroke="transparent" points="444,-365.2 444,-388.2 558,-388.2 558,-365.2 444,-365.2"/>
<polygon fill="none" stroke="#000000" points="444,-365.2 444,-388.2 558,-388.2 558,-365.2 444,-365.2"/>
<text text-anchor="start" x="449" y="-373.8" font-family="Helvetica,sans-Serif" font-weight="bold" font-size="11.00" fill="#000000">mat</text>
<text text-anchor="start" x="523.0437" y="-373.3" font-family="Helvetica,sans-Serif" font-size="11.00" fill="#000000">[table]</text>
<polygon fill="none" stroke="#000000" points="444,-346.2 444,-365.2 558,-365.2 558,-346.2 444,-346.2"/>
<text text-anchor="start" x="447" y="-352.3" font-family="Helvetica,sans-Serif" font-size="11.00" fill="#000000">...</text>
<polygon fill="#ffffff" stroke="transparent" points="444,-327.2 444,-346.2 465,-346.2 465,-327.2 444,-327.2"/>
<polygon fill="none" stroke="#000000" points="444,-327.2 444,-346.2 465,-346.2 465,-327.2 444,-327.2"/>
<text text-anchor="start" x="446.7027" y="-333.3" font-family="Helvetica,sans-Serif" font-size="11.00" fill="#000000">&lt; 1</text>
<polygon fill="#ffffff" stroke="transparent" points="465,-327.2 465,-346.2 537,-346.2 537,-327.2 465,-327.2"/>
<polygon fill="none" stroke="#000000" points="465,-327.2 465,-346.2 537,-346.2 537,-327.2 465,-327.2"/>
<text text-anchor="start" x="467.9896" y="-333.3" font-family="Helvetica,sans-Serif" font-size="11.00" fill="#000000">292.481 rows</text>
<polygon fill="#ffffff" stroke="transparent" points="537,-327.2 537,-346.2 558,-346.2 558,-327.2 537,-327.2"/>
<polygon fill="none" stroke="#000000" points="537,-327.2 537,-346.2 558,-346.2 558,-327.2 537,-327.2"/>
<text text-anchor="start" x="539.7026" y="-333.3" font-family="Helvetica,sans-Serif" font-size="11.00" fill="#000000">3 &gt;</text>
</a>
</g>
</g>
<!-- moving_object -->
<g id="node2" class="node">
<title>moving_object</title>
<g id="a_node2"><a xlink:href="../../tables/moving_object.html" xlink:title="moving_object" target="_top">
<polygon fill="#ffffff" stroke="transparent" points="210,-123.2 210,-231.2 346,-231.2 346,-123.2 210,-123.2"/>
<polygon fill="#f5f5f5" stroke="transparent" points="210,-208.2 210,-231.2 346,-231.2 346,-208.2 210,-208.2"/>
<polygon fill="none" stroke="#000000" points="210,-208.2 210,-231.2 346,-231.2 346,-208.2 210,-208.2"/>
<text text-anchor="start" x="215" y="-216.8" font-family="Helvetica,sans-Serif" font-weight="bold" font-size="11.00" fill="#000000">moving_object</text>
<text text-anchor="start" x="311.5219" y="-216.3" font-family="Helvetica,sans-Serif" font-size="11.00" fill="#000000">[table]</text>
<polygon fill="none" stroke="#000000" points="210,-186.2 210,-208.2 346,-208.2 346,-186.2 210,-186.2"/>
<image xlink:href="../../images/primaryKeys.png" width="11px" height="12px" preserveAspectRatio="xMinYMin meet" x="215" y="-203.2"/>
<text text-anchor="start" x="239" y="-193.3" font-family="Helvetica,sans-Serif" font-size="11.00" fill="#000000">mo_id</text>
<polygon fill="#ffffff" stroke="transparent" points="210,-164.2 210,-186.2 346,-186.2 346,-164.2 210,-164.2"/>
<polygon fill="none" stroke="#000000" points="210,-164.2 210,-186.2 346,-186.2 346,-164.2 210,-164.2"/>
<text text-anchor="start" x="239" y="-171.3" font-family="Helvetica,sans-Serif" font-size="11.00" fill="#000000">description</text>
<polygon fill="#ffffff" stroke="transparent" points="210,-142.2 210,-164.2 346,-164.2 346,-142.2 210,-142.2"/>
<polygon fill="none" stroke="#000000" points="210,-142.2 210,-164.2 346,-164.2 346,-142.2 210,-142.2"/>
<image xlink:href="../../images/foreignKeys.png" width="11px" height="12px" preserveAspectRatio="xMinYMin meet" x="215" y="-159.2"/>
<text text-anchor="start" x="239" y="-149.3" font-family="Helvetica,sans-Serif" font-size="11.00" fill="#000000">mo_type_id</text>
<polygon fill="#ffffff" stroke="transparent" points="210,-123.2 210,-142.2 248,-142.2 248,-123.2 210,-123.2"/>
<polygon fill="none" stroke="#000000" points="210,-123.2 210,-142.2 248,-142.2 248,-123.2 210,-123.2"/>
<text text-anchor="start" x="213" y="-129.3" font-family="Helvetica,sans-Serif" font-size="11.00" fill="#000000">&lt; 1</text>
<polygon fill="#ffffff" stroke="transparent" points="248,-123.2 248,-142.2 316,-142.2 316,-123.2 248,-123.2"/>
<polygon fill="none" stroke="#000000" points="248,-123.2 248,-142.2 316,-142.2 316,-123.2 248,-123.2"/>
<text text-anchor="start" x="259.2089" y="-129.3" font-family="Helvetica,sans-Serif" font-size="11.00" fill="#000000">2.000 rows</text>
<polygon fill="#ffffff" stroke="transparent" points="316,-123.2 316,-142.2 346,-142.2 346,-123.2 316,-123.2"/>
<polygon fill="none" stroke="#000000" points="316,-123.2 316,-142.2 346,-142.2 346,-123.2 316,-123.2"/>
<text text-anchor="start" x="327.4053" y="-129.3" font-family="Helvetica,sans-Serif" font-size="11.00" fill="#000000">5 &gt;</text>
</a>
</g>
</g>
<!-- mat&#45;&gt;moving_object -->
<g id="edge1" class="edge">
<title>mat:w&#45;&gt;moving_object:e</title>
<path fill="none" stroke="#000000" d="M429.5715,-353.8772C410.3428,-349.8833 402.2344,-336.9917 387,-317.2 352.6223,-272.5383 402.3604,-197.2 346,-197.2"/>
<polygon fill="#000000" stroke="#000000" points="436.0334,-354.4696 443.6713,-358.785 440.0167,-354.8348 444,-355.2 444,-355.2 444,-355.2 440.0167,-354.8348 444.3287,-351.615 436.0334,-354.4696 436.0334,-354.4696"/>
<ellipse fill="none" stroke="#000000" cx="432.8468" cy="-354.1774" rx="3.2" ry="3.2"/>
</g>
<!-- mo_type -->
<g id="node7" class="node">
<title>mo_type</title>
<g id="a_node7"><a xlink:href="../../tables/mo_type.html" xlink:title="mo_type" target="_top">
<polygon fill="#ffffff" stroke="transparent" points="36.5,-125.7 36.5,-186.7 132.5,-186.7 132.5,-125.7 36.5,-125.7"/>
<polygon fill="#f5f5f5" stroke="transparent" points="36.5,-163.2 36.5,-186.2 132.5,-186.2 132.5,-163.2 36.5,-163.2"/>
<polygon fill="none" stroke="#000000" points="36.5,-163.2 36.5,-186.2 132.5,-186.2 132.5,-163.2 36.5,-163.2"/>
<text text-anchor="start" x="41.5" y="-171.8" font-family="Helvetica,sans-Serif" font-weight="bold" font-size="11.00" fill="#000000">mo_type</text>
<text text-anchor="start" x="98.0219" y="-171.3" font-family="Helvetica,sans-Serif" font-size="11.00" fill="#000000">[table]</text>
<polygon fill="none" stroke="#000000" points="36.5,-144.2 36.5,-163.2 132.5,-163.2 132.5,-144.2 36.5,-144.2"/>
<text text-anchor="start" x="39.5" y="-150.3" font-family="Helvetica,sans-Serif" font-size="11.00" fill="#000000">...</text>
<polygon fill="#ffffff" stroke="transparent" points="36.5,-125.2 36.5,-144.2 63.5,-144.2 63.5,-125.2 36.5,-125.2"/>
<polygon fill="none" stroke="#000000" points="36.5,-125.2 36.5,-144.2 63.5,-144.2 63.5,-125.2 36.5,-125.2"/>
<text text-anchor="start" x="39.5" y="-131.3" font-family="Helvetica,sans-Serif" font-size="11.00" fill="#000000"> &#160;</text>
<polygon fill="#ffffff" stroke="transparent" points="63.5,-125.2 63.5,-144.2 103.5,-144.2 103.5,-125.2 63.5,-125.2"/>
<polygon fill="none" stroke="#000000" points="63.5,-125.2 63.5,-144.2 103.5,-144.2 103.5,-125.2 63.5,-125.2"/>
<text text-anchor="start" x="73.6105" y="-131.3" font-family="Helvetica,sans-Serif" font-size="11.00" fill="#000000">1 row</text>
<polygon fill="#ffffff" stroke="transparent" points="103.5,-125.2 103.5,-144.2 132.5,-144.2 132.5,-125.2 103.5,-125.2"/>
<polygon fill="none" stroke="#000000" points="103.5,-125.2 103.5,-144.2 132.5,-144.2 132.5,-125.2 103.5,-125.2"/>
<text text-anchor="start" x="113.9053" y="-131.3" font-family="Helvetica,sans-Serif" font-size="11.00" fill="#000000">1 &gt;</text>
</a>
</g>
</g>
<!-- moving_object&#45;&gt;mo_type -->
<g id="edge6" class="edge">
<title>moving_object:w&#45;&gt;mo_type:e</title>
<path fill="none" stroke="#000000" d="M195.5492,-153.2C172.2339,-153.2 161.5625,-153.2 132.5,-153.2"/>
<polygon fill="#000000" stroke="#000000" points="202,-153.2001 210,-156.8 206,-153.2 210,-153.2 210,-153.2 210,-153.2 206,-153.2 210,-149.6 202,-153.2001 202,-153.2001"/>
<ellipse fill="none" stroke="#000000" cx="198.8" cy="-153.2001" rx="3.2" ry="3.2"/>
</g>
<!-- mo_aspect -->
<g id="node3" class="node">
<title>mo_aspect</title>
<g id="a_node3"><a xlink:href="../../tables/mo_aspect.html" xlink:title="mo_aspect" target="_top">
<polygon fill="#ffffff" stroke="transparent" points="446,-245.7 446,-306.7 556,-306.7 556,-245.7 446,-245.7"/>
<polygon fill="#f5f5f5" stroke="transparent" points="446,-283.2 446,-306.2 556,-306.2 556,-283.2 446,-283.2"/>
<polygon fill="none" stroke="#000000" points="446,-283.2 446,-306.2 556,-306.2 556,-283.2 446,-283.2"/>
<text text-anchor="start" x="451" y="-291.8" font-family="Helvetica,sans-Serif" font-weight="bold" font-size="11.00" fill="#000000">mo_aspect</text>
<text text-anchor="start" x="521.5219" y="-291.3" font-family="Helvetica,sans-Serif" font-size="11.00" fill="#000000">[table]</text>
<polygon fill="none" stroke="#000000" points="446,-264.2 446,-283.2 556,-283.2 556,-264.2 446,-264.2"/>
<text text-anchor="start" x="449" y="-270.3" font-family="Helvetica,sans-Serif" font-size="11.00" fill="#000000">...</text>
<polygon fill="#ffffff" stroke="transparent" points="446,-245.2 446,-264.2 476,-264.2 476,-245.2 446,-245.2"/>
<polygon fill="none" stroke="#000000" points="446,-245.2 446,-264.2 476,-264.2 476,-245.2 446,-245.2"/>
<text text-anchor="start" x="449" y="-251.3" font-family="Helvetica,sans-Serif" font-size="11.00" fill="#000000">&lt; 2</text>
<polygon fill="#ffffff" stroke="transparent" points="476,-245.2 476,-264.2 539,-264.2 539,-245.2 476,-245.2"/>
<polygon fill="none" stroke="#000000" points="476,-245.2 476,-264.2 539,-264.2 539,-245.2 476,-245.2"/>
<text text-anchor="start" x="482.2089" y="-251.3" font-family="Helvetica,sans-Serif" font-size="11.00" fill="#000000">2.000 rows</text>
<polygon fill="#ffffff" stroke="transparent" points="539,-245.2 539,-264.2 556,-264.2 556,-245.2 539,-245.2"/>
<polygon fill="none" stroke="#000000" points="539,-245.2 539,-264.2 556,-264.2 556,-245.2 539,-245.2"/>
<text text-anchor="start" x="546.8862" y="-251.3" font-family="Helvetica,sans-Serif" font-size="11.00" fill="#000000"> &#160;</text>
</a>
</g>
</g>
<!-- mo_aspect&#45;&gt;moving_object -->
<g id="edge2" class="edge">
<title>mo_aspect:w&#45;&gt;moving_object:e</title>
<path fill="none" stroke="#000000" d="M431.6138,-271.4793C412.9784,-266.4069 407.2155,-250.8834 387,-235.2 367.3697,-219.9706 370.8452,-197.2 346,-197.2"/>
<polygon fill="#000000" stroke="#000000" points="438.0566,-272.2499 445.5724,-276.7745 442.0283,-272.7249 446,-273.2 446,-273.2 446,-273.2 442.0283,-272.7249 446.4276,-269.6255 438.0566,-272.2499 438.0566,-272.2499"/>
<ellipse fill="none" stroke="#000000" cx="434.8793" cy="-271.8698" rx="3.2" ry="3.2"/>
</g>
<!-- mo_dr -->
<g id="node4" class="node">
<title>mo_dr</title>
<g id="a_node4"><a xlink:href="../../tables/mo_dr.html" xlink:title="mo_dr" target="_top">
<polygon fill="#ffffff" stroke="transparent" points="238,-38.2 238,-102.2 318,-102.2 318,-38.2 238,-38.2"/>
<polygon fill="#f5f5f5" stroke="transparent" points="238,-79.2 238,-102.2 318,-102.2 318,-79.2 238,-79.2"/>
<polygon fill="none" stroke="#000000" points="238,-79.2 238,-102.2 318,-102.2 318,-79.2 238,-79.2"/>
<text text-anchor="start" x="243" y="-87.8" font-family="Helvetica,sans-Serif" font-weight="bold" font-size="11.00" fill="#000000">mo_dr</text>
<text text-anchor="start" x="283.5219" y="-87.3" font-family="Helvetica,sans-Serif" font-size="11.00" fill="#000000">[table]</text>
<polygon fill="none" stroke="#000000" points="238,-57.2 238,-79.2 318,-79.2 318,-57.2 238,-57.2"/>
<image xlink:href="../../images/primaryKeys.png" width="11px" height="12px" preserveAspectRatio="xMinYMin meet" x="243" y="-74.2"/>
<text text-anchor="start" x="265" y="-64.3" font-family="Helvetica,sans-Serif" font-size="11.00" fill="#000000">rule_id</text>
<polygon fill="#ffffff" stroke="transparent" points="238,-38.2 238,-57.2 259,-57.2 259,-38.2 238,-38.2"/>
<polygon fill="none" stroke="#000000" points="238,-38.2 238,-57.2 259,-57.2 259,-38.2 238,-38.2"/>
<text text-anchor="start" x="240.7027" y="-44.3" font-family="Helvetica,sans-Serif" font-size="11.00" fill="#000000">&lt; 1</text>
<polygon fill="#ffffff" stroke="transparent" points="259,-38.2 259,-57.2 297,-57.2 297,-38.2 259,-38.2"/>
<polygon fill="none" stroke="#000000" points="259,-38.2 259,-57.2 297,-57.2 297,-38.2 259,-38.2"/>
<text text-anchor="start" x="261.8053" y="-44.3" font-family="Helvetica,sans-Serif" font-size="11.00" fill="#000000">0 rows</text>
<polygon fill="#ffffff" stroke="transparent" points="297,-38.2 297,-57.2 318,-57.2 318,-38.2 297,-38.2"/>
<polygon fill="none" stroke="#000000" points="297,-38.2 297,-57.2 318,-57.2 318,-38.2 297,-38.2"/>
<text text-anchor="start" x="299.7027" y="-44.3" font-family="Helvetica,sans-Serif" font-size="11.00" fill="#000000">1 &gt;</text>
</a>
</g>
</g>
<!-- dependency_rule -->
<g id="node5" class="node">
<title>dependency_rule</title>
<g id="a_node5"><a xlink:href="../../tables/dependency_rule.html" xlink:title="dependency_rule" target="_top">
<polygon fill="#ffffff" stroke="transparent" points="8,-40.7 8,-101.7 161,-101.7 161,-40.7 8,-40.7"/>
<polygon fill="#f5f5f5" stroke="transparent" points="8.5,-78.2 8.5,-101.2 161.5,-101.2 161.5,-78.2 8.5,-78.2"/>
<polygon fill="none" stroke="#000000" points="8.5,-78.2 8.5,-101.2 161.5,-101.2 161.5,-78.2 8.5,-78.2"/>
<text text-anchor="start" x="13.5" y="-86.8" font-family="Helvetica,sans-Serif" font-weight="bold" font-size="11.00" fill="#000000">dependency_rule</text>
<text text-anchor="start" x="127.0219" y="-86.3" font-family="Helvetica,sans-Serif" font-size="11.00" fill="#000000">[table]</text>
<polygon fill="none" stroke="#000000" points="8.5,-59.2 8.5,-78.2 161.5,-78.2 161.5,-59.2 8.5,-59.2"/>
<text text-anchor="start" x="11.5" y="-65.3" font-family="Helvetica,sans-Serif" font-size="11.00" fill="#000000">...</text>
<polygon fill="#ffffff" stroke="transparent" points="8.5,-40.2 8.5,-59.2 61.5,-59.2 61.5,-40.2 8.5,-40.2"/>
<polygon fill="none" stroke="#000000" points="8.5,-40.2 8.5,-59.2 61.5,-59.2 61.5,-40.2 8.5,-40.2"/>
<text text-anchor="start" x="11.5" y="-46.3" font-family="Helvetica,sans-Serif" font-size="11.00" fill="#000000"> &#160;</text>
<polygon fill="#ffffff" stroke="transparent" points="61.5,-40.2 61.5,-59.2 119.5,-59.2 119.5,-40.2 61.5,-40.2"/>
<polygon fill="none" stroke="#000000" points="61.5,-40.2 61.5,-59.2 119.5,-59.2 119.5,-40.2 61.5,-40.2"/>
<text text-anchor="start" x="84.1105" y="-46.3" font-family="Helvetica,sans-Serif" font-size="11.00" fill="#000000">0 rows</text>
<polygon fill="#ffffff" stroke="transparent" points="119.5,-40.2 119.5,-59.2 161.5,-59.2 161.5,-40.2 119.5,-40.2"/>
<polygon fill="none" stroke="#000000" points="119.5,-40.2 119.5,-59.2 161.5,-59.2 161.5,-40.2 119.5,-40.2"/>
<text text-anchor="start" x="142.9053" y="-46.3" font-family="Helvetica,sans-Serif" font-size="11.00" fill="#000000">7 &gt;</text>
</a>
</g>
</g>
<!-- mo_dr&#45;&gt;dependency_rule -->
<g id="edge3" class="edge">
<title>mo_dr:w&#45;&gt;dependency_rule:e</title>
<path fill="none" stroke="#000000" d="M227.3529,-68.2C201.747,-68.2 191.6484,-68.2 161.5,-68.2"/>
<polygon fill="#000000" stroke="#000000" points="237.2,-64.2 237.2,-72.2 235.6,-72.2 235.6,-64.2 237.2,-64.2"/>
<polyline fill="none" stroke="#000000" points="238,-68.2 234,-68.2 "/>
<ellipse fill="none" stroke="#000000" cx="230.8" cy="-68.2001" rx="3.2" ry="3.2"/>
</g>
<!-- mo_relationship -->
<g id="node6" class="node">
<title>mo_relationship</title>
<g id="a_node6"><a xlink:href="../../tables/mo_relationship.html" xlink:title="mo_relationship" target="_top">
<polygon fill="#ffffff" stroke="transparent" points="427.5,-163.7 427.5,-224.7 574.5,-224.7 574.5,-163.7 427.5,-163.7"/>
<polygon fill="#f5f5f5" stroke="transparent" points="428,-201.2 428,-224.2 575,-224.2 575,-201.2 428,-201.2"/>
<polygon fill="none" stroke="#000000" points="428,-201.2 428,-224.2 575,-224.2 575,-201.2 428,-201.2"/>
<text text-anchor="start" x="433" y="-209.8" font-family="Helvetica,sans-Serif" font-weight="bold" font-size="11.00" fill="#000000">mo_relationship</text>
<text text-anchor="start" x="540.5219" y="-209.3" font-family="Helvetica,sans-Serif" font-size="11.00" fill="#000000">[table]</text>
<polygon fill="none" stroke="#000000" points="428,-182.2 428,-201.2 575,-201.2 575,-182.2 428,-182.2"/>
<text text-anchor="start" x="431" y="-188.3" font-family="Helvetica,sans-Serif" font-size="11.00" fill="#000000">...</text>
<polygon fill="#ffffff" stroke="transparent" points="428,-163.2 428,-182.2 482,-182.2 482,-163.2 428,-163.2"/>
<polygon fill="none" stroke="#000000" points="428,-163.2 428,-182.2 482,-182.2 482,-163.2 428,-163.2"/>
<text text-anchor="start" x="431" y="-169.3" font-family="Helvetica,sans-Serif" font-size="11.00" fill="#000000">&lt; 2</text>
<polygon fill="#ffffff" stroke="transparent" points="482,-163.2 482,-182.2 537,-182.2 537,-163.2 482,-163.2"/>
<polygon fill="none" stroke="#000000" points="482,-163.2 482,-182.2 537,-182.2 537,-163.2 482,-163.2"/>
<text text-anchor="start" x="501.6105" y="-169.3" font-family="Helvetica,sans-Serif" font-size="11.00" fill="#000000">0 rows</text>
<polygon fill="#ffffff" stroke="transparent" points="537,-163.2 537,-182.2 575,-182.2 575,-163.2 537,-163.2"/>
<polygon fill="none" stroke="#000000" points="537,-163.2 537,-182.2 575,-182.2 575,-163.2 537,-163.2"/>
<text text-anchor="start" x="556.4053" y="-169.3" font-family="Helvetica,sans-Serif" font-size="11.00" fill="#000000">2 &gt;</text>
</a>
</g>
</g>
<!-- mo_relationship&#45;&gt;moving_object -->
<g id="edge4" class="edge">
<title>mo_relationship:w&#45;&gt;moving_object:e</title>
<path fill="none" stroke="#000000" d="M413.7201,-189.3142C388.3037,-186.9344 377.2604,-192.0672 346,-197.2"/>
<polygon fill="#000000" stroke="#000000" points="420.0689,-190.1526 427.5287,-194.769 424.0344,-190.6763 428,-191.2 428,-191.2 428,-191.2 424.0344,-190.6763 428.4713,-187.631 420.0689,-190.1526 420.0689,-190.1526"/>
<ellipse fill="none" stroke="#000000" cx="416.8964" cy="-189.7336" rx="3.2" ry="3.2"/>
</g>
<!-- mo_relationship&#45;&gt;moving_object -->
<g id="edge5" class="edge">
<title>mo_relationship:w&#45;&gt;moving_object:e</title>
<path fill="none" stroke="#000000" d="M413.7201,-194.1363C388.3037,-199.6628 377.2604,-203.1883 346,-197.2"/>
<polygon fill="#000000" stroke="#000000" points="420.1639,-192.8113 428.7251,-194.7262 424.082,-192.0057 428,-191.2 428,-191.2 428,-191.2 424.082,-192.0057 427.2749,-187.6738 420.1639,-192.8113 420.1639,-192.8113"/>
<ellipse fill="none" stroke="#000000" cx="417.0295" cy="-193.4558" rx="3.2" ry="3.2"/>
</g>
<!-- moving_object_mo_dr -->
<g id="node8" class="node">
<title>moving_object_mo_dr</title>
<g id="a_node8"><a xlink:href="../../tables/moving_object_mo_dr.html" xlink:title="moving_object_mo_dr" target="_top">
<polygon fill="#ffffff" stroke="transparent" points="395,-47.2 395,-137.2 607,-137.2 607,-47.2 395,-47.2"/>
<polygon fill="#f5f5f5" stroke="transparent" points="397,-112.2 397,-135.2 605,-135.2 605,-112.2 397,-112.2"/>
<polygon fill="none" stroke="#000000" points="397,-112.2 397,-135.2 605,-135.2 605,-112.2 397,-112.2"/>
<text text-anchor="start" x="402" y="-120.8" font-family="Helvetica,sans-Serif" font-weight="bold" font-size="11.00" fill="#000000">moving_object_mo_dr</text>
<text text-anchor="start" x="570.0437" y="-120.3" font-family="Helvetica,sans-Serif" font-size="11.00" fill="#000000">[table]</text>
<polygon fill="none" stroke="#000000" points="397,-90.2 397,-112.2 563,-112.2 563,-90.2 397,-90.2"/>
<image xlink:href="../../images/primaryKeys.png" width="11px" height="12px" preserveAspectRatio="xMinYMin meet" x="402" y="-107.2"/>
<text text-anchor="start" x="417" y="-97.3" font-family="Helvetica,sans-Serif" font-size="11.00" fill="#000000">mo_id</text>
<polygon fill="none" stroke="#000000" points="563,-90.2 563,-112.2 605,-112.2 605,-90.2 563,-90.2"/>
<text text-anchor="start" x="565.9644" y="-97.9" font-family="Helvetica,sans-Serif" font-size="11.00" fill="#000000">int4[10]</text>
<polygon fill="none" stroke="#000000" points="397,-68.2 397,-90.2 563,-90.2 563,-68.2 397,-68.2"/>
<image xlink:href="../../images/primaryKeys.png" width="11px" height="12px" preserveAspectRatio="xMinYMin meet" x="402" y="-85.2"/>
<text text-anchor="start" x="417" y="-75.3" font-family="Helvetica,sans-Serif" font-size="11.00" fill="#000000">rule_id</text>
<polygon fill="none" stroke="#000000" points="563,-68.2 563,-90.2 605,-90.2 605,-68.2 563,-68.2"/>
<text text-anchor="start" x="565.9644" y="-75.9" font-family="Helvetica,sans-Serif" font-size="11.00" fill="#000000">int4[10]</text>
<polygon fill="#ffffff" stroke="transparent" points="397,-49.2 397,-68.2 471,-68.2 471,-49.2 397,-49.2"/>
<polygon fill="none" stroke="#000000" points="397,-49.2 397,-68.2 471,-68.2 471,-49.2 397,-49.2"/>
<text text-anchor="start" x="400" y="-55.3" font-family="Helvetica,sans-Serif" font-size="11.00" fill="#000000">&lt; 2</text>
<polygon fill="#ffffff" stroke="transparent" points="471,-49.2 471,-68.2 563,-68.2 563,-49.2 471,-49.2"/>
<polygon fill="none" stroke="#000000" points="471,-49.2 471,-68.2 563,-68.2 563,-49.2 471,-49.2"/>
<text text-anchor="start" x="527.6105" y="-55.3" font-family="Helvetica,sans-Serif" font-size="11.00" fill="#000000">0 rows</text>
<polygon fill="#ffffff" stroke="transparent" points="563,-49.2 563,-68.2 605,-68.2 605,-49.2 563,-49.2"/>
<polygon fill="none" stroke="#000000" points="563,-49.2 563,-68.2 605,-68.2 605,-49.2 563,-49.2"/>
<text text-anchor="start" x="586.4053" y="-55.3" font-family="Helvetica,sans-Serif" font-size="11.00" fill="#000000">0 &gt;</text>
<polygon fill="none" stroke="#000000" stroke-width="2" points="396,-48.2 396,-136.2 606,-136.2 606,-48.2 396,-48.2"/>
</a>
</g>
</g>
<!-- moving_object_mo_dr&#45;&gt;moving_object -->
<g id="edge7" class="edge">
<title>moving_object_mo_dr:w&#45;&gt;moving_object:e</title>
<path fill="none" stroke="#000000" d="M382.9189,-105.325C358.6253,-123.7 388.2746,-197.2 346,-197.2"/>
<polygon fill="#000000" stroke="#000000" points="389.3226,-103.4491 398.0121,-104.6548 393.1613,-102.3245 397,-101.2 397,-101.2 397,-101.2 393.1613,-102.3245 395.9879,-97.7452 389.3226,-103.4491 389.3226,-103.4491"/>
<ellipse fill="none" stroke="#000000" cx="386.2517" cy="-104.3487" rx="3.2" ry="3.2"/>
</g>
<!-- moving_object_mo_dr&#45;&gt;mo_dr -->
<g id="edge8" class="edge">
<title>moving_object_mo_dr:w&#45;&gt;mo_dr:e</title>
<path fill="none" stroke="#000000" d="M382.5091,-78.5119C358.4473,-76.1037 348.0493,-68.2 318,-68.2"/>
<polygon fill="#000000" stroke="#000000" points="389.009,-78.8205 396.8292,-82.7959 393.0045,-79.0102 397,-79.2 397,-79.2 397,-79.2 393.0045,-79.0102 397.1708,-75.6041 389.009,-78.8205 389.009,-78.8205"/>
<ellipse fill="none" stroke="#000000" cx="385.8126" cy="-78.6687" rx="3.2" ry="3.2"/>
</g>
</g>
</svg>
