<?xml version="1.0" encoding="UTF-8" standalone="no"?>
<!DOCTYPE svg PUBLIC "-//W3C//DTD SVG 1.1//EN"
 "http://www.w3.org/Graphics/SVG/1.1/DTD/svg11.dtd">
<!-- Generated by graphviz version 2.40.1 (20161225.0304)
 -->
<!-- Title: oneDegreeRelationshipsDiagram Pages: 1 -->
<svg width="421pt" height="243pt"
 viewBox="0.00 0.00 421.00 243.20" xmlns="http://www.w3.org/2000/svg" xmlns:xlink="http://www.w3.org/1999/xlink">
<g id="graph0" class="graph" transform="scale(1 1) rotate(0) translate(4 239.2)">
<title>oneDegreeRelationshipsDiagram</title>
<polygon fill="#ffffff" stroke="transparent" points="-4,4 -4,-239.2 417,-239.2 417,4 -4,4"/>
<text text-anchor="middle" x="72.4936" y="-7.3" font-family="Helvetica,sans-Serif" font-size="11.00" fill="#000000">Generated by SchemaSpy</text>
<!-- moving_object_mo_dr -->
<g id="node1" class="node">
<title>moving_object_mo_dr</title>
<g id="a_node1"><a xlink:href="../../tables/moving_object_mo_dr.html" xlink:title="moving_object_mo_dr" target="_top">
<polygon fill="#ffffff" stroke="transparent" points="193,-89.2 193,-179.2 405,-179.2 405,-89.2 193,-89.2"/>
<polygon fill="#f5f5f5" stroke="transparent" points="195,-154.2 195,-177.2 403,-177.2 403,-154.2 195,-154.2"/>
<polygon fill="none" stroke="#000000" points="195,-154.2 195,-177.2 403,-177.2 403,-154.2 195,-154.2"/>
<text text-anchor="start" x="200" y="-162.8" font-family="Helvetica,sans-Serif" font-weight="bold" font-size="11.00" fill="#000000">moving_object_mo_dr</text>
<text text-anchor="start" x="368.0437" y="-162.3" font-family="Helvetica,sans-Serif" font-size="11.00" fill="#000000">[table]</text>
<polygon fill="none" stroke="#000000" points="195,-132.2 195,-154.2 361,-154.2 361,-132.2 195,-132.2"/>
<image xlink:href="../../images/primaryKeys.png" width="11px" height="12px" preserveAspectRatio="xMinYMin meet" x="200" y="-149.2"/>
<text text-anchor="start" x="215" y="-139.3" font-family="Helvetica,sans-Serif" font-size="11.00" fill="#000000">mo_id</text>
<polygon fill="none" stroke="#000000" points="361,-132.2 361,-154.2 403,-154.2 403,-132.2 361,-132.2"/>
<text text-anchor="start" x="363.9644" y="-139.9" font-family="Helvetica,sans-Serif" font-size="11.00" fill="#000000">int4[10]</text>
<polygon fill="none" stroke="#000000" points="195,-110.2 195,-132.2 361,-132.2 361,-110.2 195,-110.2"/>
<image xlink:href="../../images/primaryKeys.png" width="11px" height="12px" preserveAspectRatio="xMinYMin meet" x="200" y="-127.2"/>
<text text-anchor="start" x="215" y="-117.3" font-family="Helvetica,sans-Serif" font-size="11.00" fill="#000000">rule_id</text>
<polygon fill="none" stroke="#000000" points="361,-110.2 361,-132.2 403,-132.2 403,-110.2 361,-110.2"/>
<text text-anchor="start" x="363.9644" y="-117.9" font-family="Helvetica,sans-Serif" font-size="11.00" fill="#000000">int4[10]</text>
<polygon fill="#ffffff" stroke="transparent" points="195,-91.2 195,-110.2 269,-110.2 269,-91.2 195,-91.2"/>
<polygon fill="none" stroke="#000000" points="195,-91.2 195,-110.2 269,-110.2 269,-91.2 195,-91.2"/>
<text text-anchor="start" x="198" y="-97.3" font-family="Helvetica,sans-Serif" font-size="11.00" fill="#000000">&lt; 2</text>
<polygon fill="#ffffff" stroke="transparent" points="269,-91.2 269,-110.2 361,-110.2 361,-91.2 269,-91.2"/>
<polygon fill="none" stroke="#000000" points="269,-91.2 269,-110.2 361,-110.2 361,-91.2 269,-91.2"/>
<text text-anchor="start" x="325.6105" y="-97.3" font-family="Helvetica,sans-Serif" font-size="11.00" fill="#000000">0 rows</text>
<polygon fill="#ffffff" stroke="transparent" points="361,-91.2 361,-110.2 403,-110.2 403,-91.2 361,-91.2"/>
<polygon fill="none" stroke="#000000" points="361,-91.2 361,-110.2 403,-110.2 403,-91.2 361,-91.2"/>
<text text-anchor="start" x="384.4053" y="-97.3" font-family="Helvetica,sans-Serif" font-size="11.00" fill="#000000">0 &gt;</text>
<polygon fill="none" stroke="#000000" stroke-width="2" points="194,-90.2 194,-178.2 404,-178.2 404,-90.2 194,-90.2"/>
</a>
</g>
</g>
<!-- moving_object -->
<g id="node2" class="node">
<title>moving_object</title>
<g id="a_node2"><a xlink:href="../../tables/moving_object.html" xlink:title="moving_object" target="_top">
<polygon fill="#ffffff" stroke="transparent" points="8,-123.2 8,-231.2 144,-231.2 144,-123.2 8,-123.2"/>
<polygon fill="#f5f5f5" stroke="transparent" points="8,-208.2 8,-231.2 144,-231.2 144,-208.2 8,-208.2"/>
<polygon fill="none" stroke="#000000" points="8,-208.2 8,-231.2 144,-231.2 144,-208.2 8,-208.2"/>
<text text-anchor="start" x="13" y="-216.8" font-family="Helvetica,sans-Serif" font-weight="bold" font-size="11.00" fill="#000000">moving_object</text>
<text text-anchor="start" x="109.5219" y="-216.3" font-family="Helvetica,sans-Serif" font-size="11.00" fill="#000000">[table]</text>
<polygon fill="none" stroke="#000000" points="8,-186.2 8,-208.2 144,-208.2 144,-186.2 8,-186.2"/>
<image xlink:href="../../images/primaryKeys.png" width="11px" height="12px" preserveAspectRatio="xMinYMin meet" x="13" y="-203.2"/>
<text text-anchor="start" x="37" y="-193.3" font-family="Helvetica,sans-Serif" font-size="11.00" fill="#000000">mo_id</text>
<polygon fill="#ffffff" stroke="transparent" points="8,-164.2 8,-186.2 144,-186.2 144,-164.2 8,-164.2"/>
<polygon fill="none" stroke="#000000" points="8,-164.2 8,-186.2 144,-186.2 144,-164.2 8,-164.2"/>
<text text-anchor="start" x="37" y="-171.3" font-family="Helvetica,sans-Serif" font-size="11.00" fill="#000000">description</text>
<polygon fill="#ffffff" stroke="transparent" points="8,-142.2 8,-164.2 144,-164.2 144,-142.2 8,-142.2"/>
<polygon fill="none" stroke="#000000" points="8,-142.2 8,-164.2 144,-164.2 144,-142.2 8,-142.2"/>
<image xlink:href="../../images/foreignKeys.png" width="11px" height="12px" preserveAspectRatio="xMinYMin meet" x="13" y="-159.2"/>
<text text-anchor="start" x="37" y="-149.3" font-family="Helvetica,sans-Serif" font-size="11.00" fill="#000000">mo_type_id</text>
<polygon fill="#ffffff" stroke="transparent" points="8,-123.2 8,-142.2 46,-142.2 46,-123.2 8,-123.2"/>
<polygon fill="none" stroke="#000000" points="8,-123.2 8,-142.2 46,-142.2 46,-123.2 8,-123.2"/>
<text text-anchor="start" x="11" y="-129.3" font-family="Helvetica,sans-Serif" font-size="11.00" fill="#000000">&lt; 1</text>
<polygon fill="#ffffff" stroke="transparent" points="46,-123.2 46,-142.2 114,-142.2 114,-123.2 46,-123.2"/>
<polygon fill="none" stroke="#000000" points="46,-123.2 46,-142.2 114,-142.2 114,-123.2 46,-123.2"/>
<text text-anchor="start" x="57.2089" y="-129.3" font-family="Helvetica,sans-Serif" font-size="11.00" fill="#000000">2.000 rows</text>
<polygon fill="#ffffff" stroke="transparent" points="114,-123.2 114,-142.2 144,-142.2 144,-123.2 114,-123.2"/>
<polygon fill="none" stroke="#000000" points="114,-123.2 114,-142.2 144,-142.2 144,-123.2 114,-123.2"/>
<text text-anchor="start" x="125.4053" y="-129.3" font-family="Helvetica,sans-Serif" font-size="11.00" fill="#000000">5 &gt;</text>
</a>
</g>
</g>
<!-- moving_object_mo_dr&#45;&gt;moving_object -->
<g id="edge1" class="edge">
<title>moving_object_mo_dr:w&#45;&gt;moving_object:e</title>
<path fill="none" stroke="#000000" d="M181.3001,-147.804C165.8364,-160.8627 171.08,-197.2 144,-197.2"/>
<polygon fill="#000000" stroke="#000000" points="187.4168,-145.7485 196.1468,-146.6125 191.2084,-144.4742 195,-143.2 195,-143.2 195,-143.2 191.2084,-144.4742 193.8532,-139.7875 187.4168,-145.7485 187.4168,-145.7485"/>
<ellipse fill="none" stroke="#000000" cx="184.3835" cy="-146.7678" rx="3.2" ry="3.2"/>
</g>
<!-- mo_dr -->
<g id="node3" class="node">
<title>mo_dr</title>
<g id="a_node3"><a xlink:href="../../tables/mo_dr.html" xlink:title="mo_dr" target="_top">
<polygon fill="#ffffff" stroke="transparent" points="36,-38.2 36,-102.2 116,-102.2 116,-38.2 36,-38.2"/>
<polygon fill="#f5f5f5" stroke="transparent" points="36,-79.2 36,-102.2 116,-102.2 116,-79.2 36,-79.2"/>
<polygon fill="none" stroke="#000000" points="36,-79.2 36,-102.2 116,-102.2 116,-79.2 36,-79.2"/>
<text text-anchor="start" x="41" y="-87.8" font-family="Helvetica,sans-Serif" font-weight="bold" font-size="11.00" fill="#000000">mo_dr</text>
<text text-anchor="start" x="81.5219" y="-87.3" font-family="Helvetica,sans-Serif" font-size="11.00" fill="#000000">[table]</text>
<polygon fill="none" stroke="#000000" points="36,-57.2 36,-79.2 116,-79.2 116,-57.2 36,-57.2"/>
<image xlink:href="../../images/primaryKeys.png" width="11px" height="12px" preserveAspectRatio="xMinYMin meet" x="41" y="-74.2"/>
<text text-anchor="start" x="63" y="-64.3" font-family="Helvetica,sans-Serif" font-size="11.00" fill="#000000">rule_id</text>
<polygon fill="#ffffff" stroke="transparent" points="36,-38.2 36,-57.2 57,-57.2 57,-38.2 36,-38.2"/>
<polygon fill="none" stroke="#000000" points="36,-38.2 36,-57.2 57,-57.2 57,-38.2 36,-38.2"/>
<text text-anchor="start" x="38.7027" y="-44.3" font-family="Helvetica,sans-Serif" font-size="11.00" fill="#000000">&lt; 1</text>
<polygon fill="#ffffff" stroke="transparent" points="57,-38.2 57,-57.2 95,-57.2 95,-38.2 57,-38.2"/>
<polygon fill="none" stroke="#000000" points="57,-38.2 57,-57.2 95,-57.2 95,-38.2 57,-38.2"/>
<text text-anchor="start" x="59.8053" y="-44.3" font-family="Helvetica,sans-Serif" font-size="11.00" fill="#000000">0 rows</text>
<polygon fill="#ffffff" stroke="transparent" points="95,-38.2 95,-57.2 116,-57.2 116,-38.2 95,-38.2"/>
<polygon fill="none" stroke="#000000" points="95,-38.2 95,-57.2 116,-57.2 116,-38.2 95,-38.2"/>
<text text-anchor="start" x="97.7027" y="-44.3" font-family="Helvetica,sans-Serif" font-size="11.00" fill="#000000">1 &gt;</text>
</a>
</g>
</g>
<!-- moving_object_mo_dr&#45;&gt;mo_dr -->
<g id="edge2" class="edge">
<title>moving_object_mo_dr:w&#45;&gt;mo_dr:e</title>
<path fill="none" stroke="#000000" d="M180.4613,-118.6437C153.3527,-108.0568 152.6653,-68.2 116,-68.2"/>
<polygon fill="#000000" stroke="#000000" points="187.1209,-119.8146 194.3766,-124.7456 191.0604,-120.5073 195,-121.2 195,-121.2 195,-121.2 191.0604,-120.5073 195.6234,-117.6544 187.1209,-119.8146 187.1209,-119.8146"/>
<ellipse fill="none" stroke="#000000" cx="183.9692" cy="-119.2604" rx="3.2" ry="3.2"/>
</g>
</g>
</svg>
