<?xml version="1.0" encoding="UTF-8" standalone="no"?>
<!DOCTYPE svg PUBLIC "-//W3C//DTD SVG 1.1//EN"
 "http://www.w3.org/Graphics/SVG/1.1/DTD/svg11.dtd">
<!-- Generated by graphviz version 2.40.1 (20161225.0304)
 -->
<!-- Title: twoDegreesRelationshipsDiagramImplied Pages: 1 -->
<svg width="714pt" height="462pt"
 viewBox="0.00 0.00 714.00 462.20" xmlns="http://www.w3.org/2000/svg" xmlns:xlink="http://www.w3.org/1999/xlink">
<g id="graph0" class="graph" transform="scale(1 1) rotate(0) translate(4 458.2)">
<title>twoDegreesRelationshipsDiagramImplied</title>
<polygon fill="#ffffff" stroke="transparent" points="-4,4 -4,-458.2 710,-458.2 710,4 -4,4"/>
<text text-anchor="middle" x="72.4936" y="-7.3" font-family="Helvetica,sans-Serif" font-size="11.00" fill="#000000">Generated by SchemaSpy</text>
<!-- mat -->
<g id="node1" class="node">
<title>mat</title>
<g id="a_node1"><a xlink:href="../../tables/mat.html" xlink:title="mat" target="_top">
<polygon fill="#ffffff" stroke="transparent" points="394,-38.2 394,-165.2 525,-165.2 525,-38.2 394,-38.2"/>
<polygon fill="#f5f5f5" stroke="transparent" points="394.5,-141.7 394.5,-164.7 525.5,-164.7 525.5,-141.7 394.5,-141.7"/>
<polygon fill="none" stroke="#000000" points="394.5,-141.7 394.5,-164.7 525.5,-164.7 525.5,-141.7 394.5,-141.7"/>
<text text-anchor="start" x="399.5" y="-150.3" font-family="Helvetica,sans-Serif" font-weight="bold" font-size="11.00" fill="#000000">mat</text>
<text text-anchor="start" x="490.5437" y="-149.8" font-family="Helvetica,sans-Serif" font-size="11.00" fill="#000000">[table]</text>
<polygon fill="none" stroke="#000000" points="394.5,-119.7 394.5,-141.7 525.5,-141.7 525.5,-119.7 394.5,-119.7"/>
<image xlink:href="../../images/primaryKeys.png" width="11px" height="12px" preserveAspectRatio="xMinYMin meet" x="399.5" y="-136.7"/>
<text text-anchor="start" x="414.5" y="-126.8" font-family="Helvetica,sans-Serif" font-size="11.00" fill="#000000">mat_id</text>
<polygon fill="#ffffff" stroke="transparent" points="394.5,-97.7 394.5,-119.7 525.5,-119.7 525.5,-97.7 394.5,-97.7"/>
<polygon fill="none" stroke="#000000" points="394.5,-97.7 394.5,-119.7 525.5,-119.7 525.5,-97.7 394.5,-97.7"/>
<text text-anchor="start" x="414.5" y="-104.8" font-family="Helvetica,sans-Serif" font-size="11.00" fill="#000000">description</text>
<polygon fill="#ffffff" stroke="transparent" points="394.5,-75.7 394.5,-97.7 525.5,-97.7 525.5,-75.7 394.5,-75.7"/>
<polygon fill="none" stroke="#000000" points="394.5,-75.7 394.5,-97.7 525.5,-97.7 525.5,-75.7 394.5,-75.7"/>
<image xlink:href="../../images/foreignKeys.png" width="11px" height="12px" preserveAspectRatio="xMinYMin meet" x="399.5" y="-92.7"/>
<text text-anchor="start" x="414.5" y="-82.8" font-family="Helvetica,sans-Serif" font-size="11.00" fill="#000000">mo_id</text>
<polygon fill="none" stroke="#000000" points="394.5,-56.7 394.5,-75.7 525.5,-75.7 525.5,-56.7 394.5,-56.7"/>
<text text-anchor="start" x="397.5" y="-62.8" font-family="Helvetica,sans-Serif" font-size="11.00" fill="#000000">...</text>
<polygon fill="#ffffff" stroke="transparent" points="394.5,-37.7 394.5,-56.7 440.5,-56.7 440.5,-37.7 394.5,-37.7"/>
<polygon fill="none" stroke="#000000" points="394.5,-37.7 394.5,-56.7 440.5,-56.7 440.5,-37.7 394.5,-37.7"/>
<text text-anchor="start" x="397.5" y="-43.8" font-family="Helvetica,sans-Serif" font-size="11.00" fill="#000000">&lt; 1</text>
<polygon fill="#ffffff" stroke="transparent" points="440.5,-37.7 440.5,-56.7 491.5,-56.7 491.5,-37.7 440.5,-37.7"/>
<polygon fill="none" stroke="#000000" points="440.5,-37.7 440.5,-56.7 491.5,-56.7 491.5,-37.7 440.5,-37.7"/>
<text text-anchor="start" x="456.1105" y="-43.8" font-family="Helvetica,sans-Serif" font-size="11.00" fill="#000000">0 rows</text>
<polygon fill="#ffffff" stroke="transparent" points="491.5,-37.7 491.5,-56.7 525.5,-56.7 525.5,-37.7 491.5,-37.7"/>
<polygon fill="none" stroke="#000000" points="491.5,-37.7 491.5,-56.7 525.5,-56.7 525.5,-37.7 491.5,-37.7"/>
<text text-anchor="start" x="506.9053" y="-43.8" font-family="Helvetica,sans-Serif" font-size="11.00" fill="#000000">1 &gt;</text>
</a>
</g>
</g>
<!-- moving_object -->
<g id="node2" class="node">
<title>moving_object</title>
<g id="a_node2"><a xlink:href="../../tables/moving_object.html" xlink:title="moving_object" target="_top">
<polygon fill="#ffffff" stroke="transparent" points="154,-169.7 154,-281.7 337,-281.7 337,-169.7 154,-169.7"/>
<polygon fill="#f5f5f5" stroke="transparent" points="156.5,-256.7 156.5,-279.7 335.5,-279.7 335.5,-256.7 156.5,-256.7"/>
<polygon fill="none" stroke="#000000" points="156.5,-256.7 156.5,-279.7 335.5,-279.7 335.5,-256.7 156.5,-256.7"/>
<text text-anchor="start" x="161.5" y="-265.3" font-family="Helvetica,sans-Serif" font-weight="bold" font-size="11.00" fill="#000000">moving_object</text>
<text text-anchor="start" x="300.5437" y="-264.8" font-family="Helvetica,sans-Serif" font-size="11.00" fill="#000000">[table]</text>
<polygon fill="none" stroke="#000000" points="156.5,-234.7 156.5,-256.7 274.5,-256.7 274.5,-234.7 156.5,-234.7"/>
<image xlink:href="../../images/primaryKeys.png" width="11px" height="12px" preserveAspectRatio="xMinYMin meet" x="161.5" y="-251.7"/>
<text text-anchor="start" x="176.5" y="-241.8" font-family="Helvetica,sans-Serif" font-size="11.00" fill="#000000">mo_id</text>
<polygon fill="none" stroke="#000000" points="274.5,-234.7 274.5,-256.7 335.5,-256.7 335.5,-234.7 274.5,-234.7"/>
<text text-anchor="start" x="277.5" y="-242.4" font-family="Helvetica,sans-Serif" font-size="11.00" fill="#000000">int4[10]</text>
<polygon fill="#ffffff" stroke="transparent" points="156.5,-212.7 156.5,-234.7 274.5,-234.7 274.5,-212.7 156.5,-212.7"/>
<polygon fill="none" stroke="#000000" points="156.5,-212.7 156.5,-234.7 274.5,-234.7 274.5,-212.7 156.5,-212.7"/>
<text text-anchor="start" x="176.5" y="-219.8" font-family="Helvetica,sans-Serif" font-size="11.00" fill="#000000">description</text>
<polygon fill="none" stroke="#000000" points="274.5,-212.7 274.5,-234.7 335.5,-234.7 335.5,-212.7 274.5,-212.7"/>
<text text-anchor="start" x="277.494" y="-220.4" font-family="Helvetica,sans-Serif" font-size="11.00" fill="#000000">varchar[50]</text>
<polygon fill="#ffffff" stroke="transparent" points="156.5,-190.7 156.5,-212.7 274.5,-212.7 274.5,-190.7 156.5,-190.7"/>
<polygon fill="none" stroke="#000000" points="156.5,-190.7 156.5,-212.7 274.5,-212.7 274.5,-190.7 156.5,-190.7"/>
<image xlink:href="../../images/foreignKeys.png" width="11px" height="12px" preserveAspectRatio="xMinYMin meet" x="161.5" y="-207.7"/>
<text text-anchor="start" x="176.5" y="-197.8" font-family="Helvetica,sans-Serif" font-size="11.00" fill="#000000">mo_type_id</text>
<polygon fill="none" stroke="#000000" points="274.5,-190.7 274.5,-212.7 335.5,-212.7 335.5,-190.7 274.5,-190.7"/>
<text text-anchor="start" x="277.5" y="-198.4" font-family="Helvetica,sans-Serif" font-size="11.00" fill="#000000">int4[10]</text>
<polygon fill="#ffffff" stroke="transparent" points="156.5,-171.7 156.5,-190.7 196.5,-190.7 196.5,-171.7 156.5,-171.7"/>
<polygon fill="none" stroke="#000000" points="156.5,-171.7 156.5,-190.7 196.5,-190.7 196.5,-171.7 156.5,-171.7"/>
<text text-anchor="start" x="159.5" y="-177.8" font-family="Helvetica,sans-Serif" font-size="11.00" fill="#000000">&lt; 1</text>
<polygon fill="#ffffff" stroke="transparent" points="196.5,-171.7 196.5,-190.7 274.5,-190.7 274.5,-171.7 196.5,-171.7"/>
<polygon fill="none" stroke="#000000" points="196.5,-171.7 196.5,-190.7 274.5,-190.7 274.5,-171.7 196.5,-171.7"/>
<text text-anchor="start" x="217.7089" y="-177.8" font-family="Helvetica,sans-Serif" font-size="11.00" fill="#000000">3.376 rows</text>
<polygon fill="#ffffff" stroke="transparent" points="274.5,-171.7 274.5,-190.7 335.5,-190.7 335.5,-171.7 274.5,-171.7"/>
<polygon fill="none" stroke="#000000" points="274.5,-171.7 274.5,-190.7 335.5,-190.7 335.5,-171.7 274.5,-171.7"/>
<text text-anchor="start" x="316.9053" y="-177.8" font-family="Helvetica,sans-Serif" font-size="11.00" fill="#000000">4 &gt;</text>
<polygon fill="none" stroke="#000000" stroke-width="2" points="155,-170.7 155,-280.7 336,-280.7 336,-170.7 155,-170.7"/>
</a>
</g>
</g>
<!-- mat&#45;&gt;moving_object -->
<g id="edge1" class="edge">
<title>mat:w&#45;&gt;moving_object:e</title>
<path fill="none" stroke="#000000" d="M380.037,-89.3271C332.1329,-110.0001 405.1335,-245.7 335.5,-245.7"/>
<polygon fill="#000000" stroke="#000000" points="386.6288,-88.1298 395.1434,-90.242 390.5644,-87.4149 394.5,-86.7 394.5,-86.7 394.5,-86.7 390.5644,-87.4149 393.8566,-83.158 386.6288,-88.1298 386.6288,-88.1298"/>
<ellipse fill="none" stroke="#000000" cx="383.4803" cy="-88.7017" rx="3.2" ry="3.2"/>
</g>
<!-- mo_type -->
<g id="node7" class="node">
<title>mo_type</title>
<g id="a_node7"><a xlink:href="../../tables/mo_type.html" xlink:title="mo_type" target="_top">
<polygon fill="#ffffff" stroke="transparent" points="8,-153.2 8,-236.2 105,-236.2 105,-153.2 8,-153.2"/>
<polygon fill="#f5f5f5" stroke="transparent" points="8.5,-212.7 8.5,-235.7 105.5,-235.7 105.5,-212.7 8.5,-212.7"/>
<polygon fill="none" stroke="#000000" points="8.5,-212.7 8.5,-235.7 105.5,-235.7 105.5,-212.7 8.5,-212.7"/>
<text text-anchor="start" x="13.5" y="-221.3" font-family="Helvetica,sans-Serif" font-weight="bold" font-size="11.00" fill="#000000">mo_type</text>
<text text-anchor="start" x="71.0219" y="-220.8" font-family="Helvetica,sans-Serif" font-size="11.00" fill="#000000">[table]</text>
<polygon fill="none" stroke="#000000" points="8.5,-190.7 8.5,-212.7 105.5,-212.7 105.5,-190.7 8.5,-190.7"/>
<image xlink:href="../../images/primaryKeys.png" width="11px" height="12px" preserveAspectRatio="xMinYMin meet" x="13.5" y="-207.7"/>
<text text-anchor="start" x="28.5" y="-197.8" font-family="Helvetica,sans-Serif" font-size="11.00" fill="#000000">mo_type_id</text>
<polygon fill="none" stroke="#000000" points="8.5,-171.7 8.5,-190.7 105.5,-190.7 105.5,-171.7 8.5,-171.7"/>
<text text-anchor="start" x="11.5" y="-177.8" font-family="Helvetica,sans-Serif" font-size="11.00" fill="#000000">...</text>
<polygon fill="#ffffff" stroke="transparent" points="8.5,-152.7 8.5,-171.7 36.5,-171.7 36.5,-152.7 8.5,-152.7"/>
<polygon fill="none" stroke="#000000" points="8.5,-152.7 8.5,-171.7 36.5,-171.7 36.5,-152.7 8.5,-152.7"/>
<text text-anchor="start" x="11.5" y="-158.8" font-family="Helvetica,sans-Serif" font-size="11.00" fill="#000000"> &#160;</text>
<polygon fill="#ffffff" stroke="transparent" points="36.5,-152.7 36.5,-171.7 76.5,-171.7 76.5,-152.7 36.5,-152.7"/>
<polygon fill="none" stroke="#000000" points="36.5,-152.7 36.5,-171.7 76.5,-171.7 76.5,-152.7 36.5,-152.7"/>
<text text-anchor="start" x="46.6105" y="-158.8" font-family="Helvetica,sans-Serif" font-size="11.00" fill="#000000">1 row</text>
<polygon fill="#ffffff" stroke="transparent" points="76.5,-152.7 76.5,-171.7 105.5,-171.7 105.5,-152.7 76.5,-152.7"/>
<polygon fill="none" stroke="#000000" points="76.5,-152.7 76.5,-171.7 105.5,-171.7 105.5,-152.7 76.5,-152.7"/>
<text text-anchor="start" x="86.9053" y="-158.8" font-family="Helvetica,sans-Serif" font-size="11.00" fill="#000000">1 &gt;</text>
</a>
</g>
</g>
<!-- moving_object&#45;&gt;mo_type -->
<g id="edge8" class="edge">
<title>moving_object:w&#45;&gt;mo_type:e</title>
<path fill="none" stroke="#000000" d="M141.776,-201.7C129.7815,-201.7 122.3229,-201.7 105.5,-201.7"/>
<polygon fill="#000000" stroke="#000000" points="148.5,-201.7001 156.5,-205.3 152.5,-201.7 156.5,-201.7 156.5,-201.7 156.5,-201.7 152.5,-201.7 156.5,-198.1 148.5,-201.7001 148.5,-201.7001"/>
<ellipse fill="none" stroke="#000000" cx="145.3" cy="-201.7001" rx="3.2" ry="3.2"/>
</g>
<!-- mo_aspect -->
<g id="node3" class="node">
<title>mo_aspect</title>
<g id="a_node3"><a xlink:href="../../tables/mo_aspect.html" xlink:title="mo_aspect" target="_top">
<polygon fill="#ffffff" stroke="transparent" points="585,-345.2 585,-450.2 695,-450.2 695,-345.2 585,-345.2"/>
<polygon fill="#f5f5f5" stroke="transparent" points="585,-426.7 585,-449.7 695,-449.7 695,-426.7 585,-426.7"/>
<polygon fill="none" stroke="#000000" points="585,-426.7 585,-449.7 695,-449.7 695,-426.7 585,-426.7"/>
<text text-anchor="start" x="590" y="-435.3" font-family="Helvetica,sans-Serif" font-weight="bold" font-size="11.00" fill="#000000">mo_aspect</text>
<text text-anchor="start" x="660.5219" y="-434.8" font-family="Helvetica,sans-Serif" font-size="11.00" fill="#000000">[table]</text>
<polygon fill="none" stroke="#000000" points="585,-404.7 585,-426.7 695,-426.7 695,-404.7 585,-404.7"/>
<image xlink:href="../../images/primaryKeys.png" width="11px" height="12px" preserveAspectRatio="xMinYMin meet" x="590" y="-421.7"/>
<text text-anchor="start" x="614" y="-411.8" font-family="Helvetica,sans-Serif" font-size="11.00" fill="#000000">mo_id</text>
<polygon fill="none" stroke="#000000" points="585,-382.7 585,-404.7 695,-404.7 695,-382.7 585,-382.7"/>
<image xlink:href="../../images/primaryKeys.png" width="11px" height="12px" preserveAspectRatio="xMinYMin meet" x="590" y="-399.7"/>
<text text-anchor="start" x="614" y="-389.8" font-family="Helvetica,sans-Serif" font-size="11.00" fill="#000000">aspect_id</text>
<polygon fill="none" stroke="#000000" points="585,-363.7 585,-382.7 695,-382.7 695,-363.7 585,-363.7"/>
<text text-anchor="start" x="588" y="-369.8" font-family="Helvetica,sans-Serif" font-size="11.00" fill="#000000">...</text>
<polygon fill="#ffffff" stroke="transparent" points="585,-344.7 585,-363.7 625,-363.7 625,-344.7 585,-344.7"/>
<polygon fill="none" stroke="#000000" points="585,-344.7 585,-363.7 625,-363.7 625,-344.7 585,-344.7"/>
<text text-anchor="start" x="588" y="-350.8" font-family="Helvetica,sans-Serif" font-size="11.00" fill="#000000">&lt; 2</text>
<polygon fill="#ffffff" stroke="transparent" points="625,-344.7 625,-363.7 673,-363.7 673,-344.7 625,-344.7"/>
<polygon fill="none" stroke="#000000" points="625,-344.7 625,-363.7 673,-363.7 673,-344.7 625,-344.7"/>
<text text-anchor="start" x="637.6105" y="-350.8" font-family="Helvetica,sans-Serif" font-size="11.00" fill="#000000">0 rows</text>
<polygon fill="#ffffff" stroke="transparent" points="673,-344.7 673,-363.7 695,-363.7 695,-344.7 673,-344.7"/>
<polygon fill="none" stroke="#000000" points="673,-344.7 673,-363.7 695,-363.7 695,-344.7 673,-344.7"/>
<text text-anchor="start" x="685.8862" y="-350.8" font-family="Helvetica,sans-Serif" font-size="11.00" fill="#000000"> &#160;</text>
</a>
</g>
</g>
<!-- mo_aspect&#45;&gt;moving_object -->
<g id="edge3" class="edge">
<title>mo_aspect:w&#45;&gt;moving_object:e</title>
<path fill="none" stroke="#000000" d="M570.5693,-416.0907C488.1642,-420.5399 445.7887,-460.4866 378,-405.7 320.7755,-359.4513 409.077,-245.7 335.5,-245.7"/>
<polygon fill="#000000" stroke="#000000" points="577.0029,-415.9166 585.0975,-419.2987 581.0015,-415.8083 585,-415.7 585,-415.7 585,-415.7 581.0015,-415.8083 584.9025,-412.1013 577.0029,-415.9166 577.0029,-415.9166"/>
<ellipse fill="none" stroke="#000000" cx="573.8041" cy="-416.0032" rx="3.2" ry="3.2"/>
</g>
<!-- aspect -->
<g id="node4" class="node">
<title>aspect</title>
<g id="a_node4"><a xlink:href="../../tables/aspect.html" xlink:title="aspect" target="_top">
<polygon fill="#ffffff" stroke="transparent" points="402.5,-334.2 402.5,-395.2 516.5,-395.2 516.5,-334.2 402.5,-334.2"/>
<polygon fill="#f5f5f5" stroke="transparent" points="402.5,-371.7 402.5,-394.7 516.5,-394.7 516.5,-371.7 402.5,-371.7"/>
<polygon fill="none" stroke="#000000" points="402.5,-371.7 402.5,-394.7 516.5,-394.7 516.5,-371.7 402.5,-371.7"/>
<text text-anchor="start" x="407.5" y="-380.3" font-family="Helvetica,sans-Serif" font-weight="bold" font-size="11.00" fill="#000000">aspect</text>
<text text-anchor="start" x="481.5437" y="-379.8" font-family="Helvetica,sans-Serif" font-size="11.00" fill="#000000">[table]</text>
<polygon fill="none" stroke="#000000" points="402.5,-352.7 402.5,-371.7 516.5,-371.7 516.5,-352.7 402.5,-352.7"/>
<text text-anchor="start" x="405.5" y="-358.8" font-family="Helvetica,sans-Serif" font-size="11.00" fill="#000000">...</text>
<polygon fill="#ffffff" stroke="transparent" points="402.5,-333.7 402.5,-352.7 423.5,-352.7 423.5,-333.7 402.5,-333.7"/>
<polygon fill="none" stroke="#000000" points="402.5,-333.7 402.5,-352.7 423.5,-352.7 423.5,-333.7 402.5,-333.7"/>
<text text-anchor="start" x="405.2027" y="-339.8" font-family="Helvetica,sans-Serif" font-size="11.00" fill="#000000">&lt; 1</text>
<polygon fill="#ffffff" stroke="transparent" points="423.5,-333.7 423.5,-352.7 495.5,-352.7 495.5,-333.7 423.5,-333.7"/>
<polygon fill="none" stroke="#000000" points="423.5,-333.7 423.5,-352.7 495.5,-352.7 495.5,-333.7 423.5,-333.7"/>
<text text-anchor="start" x="426.4896" y="-339.8" font-family="Helvetica,sans-Serif" font-size="11.00" fill="#000000">100.191 rows</text>
<polygon fill="#ffffff" stroke="transparent" points="495.5,-333.7 495.5,-352.7 516.5,-352.7 516.5,-333.7 495.5,-333.7"/>
<polygon fill="none" stroke="#000000" points="495.5,-333.7 495.5,-352.7 516.5,-352.7 516.5,-333.7 495.5,-333.7"/>
<text text-anchor="start" x="498.2027" y="-339.8" font-family="Helvetica,sans-Serif" font-size="11.00" fill="#000000">5 &gt;</text>
</a>
</g>
</g>
<!-- mo_aspect&#45;&gt;aspect -->
<g id="edge2" class="edge">
<title>mo_aspect:w&#45;&gt;aspect:e</title>
<path fill="none" stroke="#000000" d="M570.7847,-391.3986C550.1029,-384.0613 544.5897,-361.7 516.5,-361.7"/>
<polygon fill="#000000" stroke="#000000" points="577.1028,-392.4215 584.4247,-397.2537 581.0514,-393.0607 585,-393.7 585,-393.7 585,-393.7 581.0514,-393.0607 585.5753,-390.1463 577.1028,-392.4215 577.1028,-392.4215"/>
<ellipse fill="none" stroke="#000000" cx="573.9439" cy="-391.91" rx="3.2" ry="3.2"/>
</g>
<!-- mo_relationship -->
<g id="node5" class="node">
<title>mo_relationship</title>
<g id="a_node5"><a xlink:href="../../tables/mo_relationship.html" xlink:title="mo_relationship" target="_top">
<polygon fill="#ffffff" stroke="transparent" points="386,-186.2 386,-313.2 533,-313.2 533,-186.2 386,-186.2"/>
<polygon fill="#f5f5f5" stroke="transparent" points="386.5,-289.7 386.5,-312.7 533.5,-312.7 533.5,-289.7 386.5,-289.7"/>
<polygon fill="none" stroke="#000000" points="386.5,-289.7 386.5,-312.7 533.5,-312.7 533.5,-289.7 386.5,-289.7"/>
<text text-anchor="start" x="391.5" y="-298.3" font-family="Helvetica,sans-Serif" font-weight="bold" font-size="11.00" fill="#000000">mo_relationship</text>
<text text-anchor="start" x="499.0219" y="-297.8" font-family="Helvetica,sans-Serif" font-size="11.00" fill="#000000">[table]</text>
<polygon fill="none" stroke="#000000" points="386.5,-267.7 386.5,-289.7 533.5,-289.7 533.5,-267.7 386.5,-267.7"/>
<image xlink:href="../../images/primaryKeys.png" width="11px" height="12px" preserveAspectRatio="xMinYMin meet" x="391.5" y="-284.7"/>
<text text-anchor="start" x="415.5" y="-274.8" font-family="Helvetica,sans-Serif" font-size="11.00" fill="#000000">mor_id</text>
<polygon fill="#ffffff" stroke="transparent" points="386.5,-245.7 386.5,-267.7 533.5,-267.7 533.5,-245.7 386.5,-245.7"/>
<polygon fill="none" stroke="#000000" points="386.5,-245.7 386.5,-267.7 533.5,-267.7 533.5,-245.7 386.5,-245.7"/>
<image xlink:href="../../images/foreignKeys.png" width="11px" height="12px" preserveAspectRatio="xMinYMin meet" x="391.5" y="-262.7"/>
<text text-anchor="start" x="415.5" y="-252.8" font-family="Helvetica,sans-Serif" font-size="11.00" fill="#000000">mo_target</text>
<polygon fill="#ffffff" stroke="transparent" points="386.5,-223.7 386.5,-245.7 533.5,-245.7 533.5,-223.7 386.5,-223.7"/>
<polygon fill="none" stroke="#000000" points="386.5,-223.7 386.5,-245.7 533.5,-245.7 533.5,-223.7 386.5,-223.7"/>
<image xlink:href="../../images/foreignKeys.png" width="11px" height="12px" preserveAspectRatio="xMinYMin meet" x="391.5" y="-240.7"/>
<text text-anchor="start" x="415.5" y="-230.8" font-family="Helvetica,sans-Serif" font-size="11.00" fill="#000000">mo_source</text>
<polygon fill="none" stroke="#000000" points="386.5,-204.7 386.5,-223.7 533.5,-223.7 533.5,-204.7 386.5,-204.7"/>
<text text-anchor="start" x="389.5" y="-210.8" font-family="Helvetica,sans-Serif" font-size="11.00" fill="#000000">...</text>
<polygon fill="#ffffff" stroke="transparent" points="386.5,-185.7 386.5,-204.7 440.5,-204.7 440.5,-185.7 386.5,-185.7"/>
<polygon fill="none" stroke="#000000" points="386.5,-185.7 386.5,-204.7 440.5,-204.7 440.5,-185.7 386.5,-185.7"/>
<text text-anchor="start" x="389.5" y="-191.8" font-family="Helvetica,sans-Serif" font-size="11.00" fill="#000000">&lt; 2</text>
<polygon fill="#ffffff" stroke="transparent" points="440.5,-185.7 440.5,-204.7 495.5,-204.7 495.5,-185.7 440.5,-185.7"/>
<polygon fill="none" stroke="#000000" points="440.5,-185.7 440.5,-204.7 495.5,-204.7 495.5,-185.7 440.5,-185.7"/>
<text text-anchor="start" x="460.1105" y="-191.8" font-family="Helvetica,sans-Serif" font-size="11.00" fill="#000000">0 rows</text>
<polygon fill="#ffffff" stroke="transparent" points="495.5,-185.7 495.5,-204.7 533.5,-204.7 533.5,-185.7 495.5,-185.7"/>
<polygon fill="none" stroke="#000000" points="495.5,-185.7 495.5,-204.7 533.5,-204.7 533.5,-185.7 495.5,-185.7"/>
<text text-anchor="start" x="514.9053" y="-191.8" font-family="Helvetica,sans-Serif" font-size="11.00" fill="#000000">1 &gt;</text>
</a>
</g>
</g>
<!-- mo_relationship&#45;&gt;moving_object -->
<g id="edge4" class="edge">
<title>mo_relationship:w&#45;&gt;moving_object:e</title>
<path fill="none" stroke="#000000" d="M372.0097,-236.4188C359.8398,-239.5125 352.8909,-245.7 335.5,-245.7"/>
<polygon fill="#000000" stroke="#000000" points="378.5557,-235.6424 386.9241,-238.2749 382.5278,-235.1712 386.5,-234.7 386.5,-234.7 386.5,-234.7 382.5278,-235.1712 386.0759,-231.1251 378.5557,-235.6424 378.5557,-235.6424"/>
<ellipse fill="none" stroke="#000000" cx="375.378" cy="-236.0193" rx="3.2" ry="3.2"/>
</g>
<!-- mo_relationship&#45;&gt;moving_object -->
<g id="edge5" class="edge">
<title>mo_relationship:w&#45;&gt;moving_object:e</title>
<path fill="none" stroke="#000000" d="M372.0097,-254.9813C359.8398,-251.8875 352.8909,-245.7 335.5,-245.7"/>
<polygon fill="#000000" stroke="#000000" points="378.5557,-255.7576 386.0759,-260.2749 382.5278,-256.2288 386.5,-256.7 386.5,-256.7 386.5,-256.7 382.5278,-256.2288 386.9241,-253.1251 378.5557,-255.7576 378.5557,-255.7576"/>
<ellipse fill="none" stroke="#000000" cx="375.378" cy="-255.3807" rx="3.2" ry="3.2"/>
</g>
<!-- mor_aspect -->
<g id="node6" class="node">
<title>mor_aspect</title>
<g id="a_node6"><a xlink:href="../../tables/mor_aspect.html" xlink:title="mor_aspect" target="_top">
<polygon fill="#ffffff" stroke="transparent" points="582,-255.2 582,-316.2 698,-316.2 698,-255.2 582,-255.2"/>
<polygon fill="#f5f5f5" stroke="transparent" points="582,-292.7 582,-315.7 698,-315.7 698,-292.7 582,-292.7"/>
<polygon fill="none" stroke="#000000" points="582,-292.7 582,-315.7 698,-315.7 698,-292.7 582,-292.7"/>
<text text-anchor="start" x="587" y="-301.3" font-family="Helvetica,sans-Serif" font-weight="bold" font-size="11.00" fill="#000000">mor_aspect</text>
<text text-anchor="start" x="663.5219" y="-300.8" font-family="Helvetica,sans-Serif" font-size="11.00" fill="#000000">[table]</text>
<polygon fill="none" stroke="#000000" points="582,-273.7 582,-292.7 698,-292.7 698,-273.7 582,-273.7"/>
<text text-anchor="start" x="585" y="-279.8" font-family="Helvetica,sans-Serif" font-size="11.00" fill="#000000">...</text>
<polygon fill="#ffffff" stroke="transparent" points="582,-254.7 582,-273.7 625,-273.7 625,-254.7 582,-254.7"/>
<polygon fill="none" stroke="#000000" points="582,-254.7 582,-273.7 625,-273.7 625,-254.7 582,-254.7"/>
<text text-anchor="start" x="585" y="-260.8" font-family="Helvetica,sans-Serif" font-size="11.00" fill="#000000">&lt; 2</text>
<polygon fill="#ffffff" stroke="transparent" points="625,-254.7 625,-273.7 674,-273.7 674,-254.7 625,-254.7"/>
<polygon fill="none" stroke="#000000" points="625,-254.7 625,-273.7 674,-273.7 674,-254.7 625,-254.7"/>
<text text-anchor="start" x="638.6105" y="-260.8" font-family="Helvetica,sans-Serif" font-size="11.00" fill="#000000">0 rows</text>
<polygon fill="#ffffff" stroke="transparent" points="674,-254.7 674,-273.7 698,-273.7 698,-254.7 674,-254.7"/>
<polygon fill="none" stroke="#000000" points="674,-254.7 674,-273.7 698,-273.7 698,-254.7 674,-254.7"/>
<text text-anchor="start" x="688.8862" y="-260.8" font-family="Helvetica,sans-Serif" font-size="11.00" fill="#000000"> &#160;</text>
</a>
</g>
</g>
<!-- mor_aspect&#45;&gt;aspect -->
<g id="edge6" class="edge">
<title>mor_aspect:w&#45;&gt;aspect:e</title>
<path fill="none" stroke="#000000" d="M567.9613,-286.0945C541.7056,-301.2156 556.4085,-361.7 516.5,-361.7"/>
<polygon fill="#000000" stroke="#000000" points="574.2241,-284.5802 582.8461,-286.1992 578.112,-283.6401 582,-282.7 582,-282.7 582,-282.7 578.112,-283.6401 581.1539,-279.2008 574.2241,-284.5802 574.2241,-284.5802"/>
<ellipse fill="none" stroke="#000000" cx="571.1137" cy="-285.3323" rx="3.2" ry="3.2"/>
</g>
<!-- mor_aspect&#45;&gt;mo_relationship -->
<g id="edge7" class="edge">
<title>mor_aspect:w&#45;&gt;mo_relationship:e</title>
<path fill="none" stroke="#000000" d="M567.2632,-281.9663C556.2791,-280.8116 549.2146,-278.7 533.5,-278.7"/>
<polygon fill="#000000" stroke="#000000" points="574.0099,-282.3022 581.821,-286.2955 578.0049,-282.5011 582,-282.7 582,-282.7 582,-282.7 578.0049,-282.5011 582.179,-279.1045 574.0099,-282.3022 574.0099,-282.3022"/>
<ellipse fill="none" stroke="#000000" cx="570.8139" cy="-282.143" rx="3.2" ry="3.2"/>
</g>
<!-- point -->
<g id="node8" class="node">
<title>point</title>
<g id="a_node8"><a xlink:href="../../tables/point.html" xlink:title="point" target="_top">
<polygon fill="#ffffff" stroke="transparent" points="603,-103.2 603,-164.2 677,-164.2 677,-103.2 603,-103.2"/>
<polygon fill="#f5f5f5" stroke="transparent" points="603,-140.7 603,-163.7 677,-163.7 677,-140.7 603,-140.7"/>
<polygon fill="none" stroke="#000000" points="603,-140.7 603,-163.7 677,-163.7 677,-140.7 603,-140.7"/>
<text text-anchor="start" x="608" y="-149.3" font-family="Helvetica,sans-Serif" font-weight="bold" font-size="11.00" fill="#000000">point</text>
<text text-anchor="start" x="642.5219" y="-148.8" font-family="Helvetica,sans-Serif" font-size="11.00" fill="#000000">[table]</text>
<polygon fill="none" stroke="#000000" points="603,-121.7 603,-140.7 677,-140.7 677,-121.7 603,-121.7"/>
<text text-anchor="start" x="606" y="-127.8" font-family="Helvetica,sans-Serif" font-size="11.00" fill="#000000">...</text>
<polygon fill="#ffffff" stroke="transparent" points="603,-102.7 603,-121.7 625,-121.7 625,-102.7 603,-102.7"/>
<polygon fill="none" stroke="#000000" points="603,-102.7 603,-121.7 625,-121.7 625,-102.7 603,-102.7"/>
<text text-anchor="start" x="606" y="-108.8" font-family="Helvetica,sans-Serif" font-size="11.00" fill="#000000">&lt; 1</text>
<polygon fill="#ffffff" stroke="transparent" points="625,-102.7 625,-121.7 664,-121.7 664,-102.7 625,-102.7"/>
<polygon fill="none" stroke="#000000" points="625,-102.7 625,-121.7 664,-121.7 664,-102.7 625,-102.7"/>
<text text-anchor="start" x="628.6105" y="-108.8" font-family="Helvetica,sans-Serif" font-size="11.00" fill="#000000">0 rows</text>
<polygon fill="#ffffff" stroke="transparent" points="664,-102.7 664,-121.7 677,-121.7 677,-102.7 664,-102.7"/>
<polygon fill="none" stroke="#000000" points="664,-102.7 664,-121.7 677,-121.7 677,-102.7 664,-102.7"/>
<text text-anchor="start" x="667.8862" y="-108.8" font-family="Helvetica,sans-Serif" font-size="11.00" fill="#000000"> &#160;</text>
</a>
</g>
</g>
<!-- point&#45;&gt;mat -->
<g id="edge9" class="edge">
<title>point:w&#45;&gt;mat:e</title>
<path fill="none" stroke="#000000" stroke-dasharray="5,2" d="M588.5492,-130.7C565.2339,-130.7 554.5625,-130.7 525.5,-130.7"/>
<polygon fill="#000000" stroke="#000000" points="595,-130.7001 603,-134.3 599,-130.7 603,-130.7 603,-130.7 603,-130.7 599,-130.7 603,-127.1 595,-130.7001 595,-130.7001"/>
<ellipse fill="none" stroke="#000000" cx="591.8" cy="-130.7001" rx="3.2" ry="3.2"/>
</g>
</g>
</svg>
