<?xml version="1.0" encoding="UTF-8" standalone="no"?>
<!DOCTYPE svg PUBLIC "-//W3C//DTD SVG 1.1//EN"
 "http://www.w3.org/Graphics/SVG/1.1/DTD/svg11.dtd">
<!-- Generated by graphviz version 2.40.1 (20161225.0304)
 -->
<!-- Title: oneDegreeRelationshipsDiagram Pages: 1 -->
<svg width="586pt" height="559pt"
 viewBox="0.00 0.00 586.00 558.70" xmlns="http://www.w3.org/2000/svg" xmlns:xlink="http://www.w3.org/1999/xlink">
<g id="graph0" class="graph" transform="scale(1 1) rotate(0) translate(4 554.7)">
<title>oneDegreeRelationshipsDiagram</title>
<polygon fill="#ffffff" stroke="transparent" points="-4,4 -4,-554.7 582,-554.7 582,4 -4,4"/>
<text text-anchor="middle" x="72.4936" y="-7.3" font-family="Helvetica,sans-Serif" font-size="11.00" fill="#000000">Generated by SchemaSpy</text>
<!-- mat -->
<g id="node1" class="node">
<title>mat</title>
<g id="a_node1"><a xlink:href="../../tables/mat.html" xlink:title="mat" target="_top">
<polygon fill="#ffffff" stroke="transparent" points="412.5,-419.7 412.5,-546.7 543.5,-546.7 543.5,-419.7 412.5,-419.7"/>
<polygon fill="#f5f5f5" stroke="transparent" points="413,-523.2 413,-546.2 544,-546.2 544,-523.2 413,-523.2"/>
<polygon fill="none" stroke="#000000" points="413,-523.2 413,-546.2 544,-546.2 544,-523.2 413,-523.2"/>
<text text-anchor="start" x="418" y="-531.8" font-family="Helvetica,sans-Serif" font-weight="bold" font-size="11.00" fill="#000000">mat</text>
<text text-anchor="start" x="509.0437" y="-531.3" font-family="Helvetica,sans-Serif" font-size="11.00" fill="#000000">[table]</text>
<polygon fill="none" stroke="#000000" points="413,-501.2 413,-523.2 544,-523.2 544,-501.2 413,-501.2"/>
<image xlink:href="../../images/primaryKeys.png" width="11px" height="12px" preserveAspectRatio="xMinYMin meet" x="418" y="-518.2"/>
<text text-anchor="start" x="433" y="-508.3" font-family="Helvetica,sans-Serif" font-size="11.00" fill="#000000">mat_id</text>
<polygon fill="#ffffff" stroke="transparent" points="413,-479.2 413,-501.2 544,-501.2 544,-479.2 413,-479.2"/>
<polygon fill="none" stroke="#000000" points="413,-479.2 413,-501.2 544,-501.2 544,-479.2 413,-479.2"/>
<text text-anchor="start" x="433" y="-486.3" font-family="Helvetica,sans-Serif" font-size="11.00" fill="#000000">description</text>
<polygon fill="#ffffff" stroke="transparent" points="413,-457.2 413,-479.2 544,-479.2 544,-457.2 413,-457.2"/>
<polygon fill="none" stroke="#000000" points="413,-457.2 413,-479.2 544,-479.2 544,-457.2 413,-457.2"/>
<image xlink:href="../../images/foreignKeys.png" width="11px" height="12px" preserveAspectRatio="xMinYMin meet" x="418" y="-474.2"/>
<text text-anchor="start" x="433" y="-464.3" font-family="Helvetica,sans-Serif" font-size="11.00" fill="#000000">mo_id</text>
<polygon fill="none" stroke="#000000" points="413,-438.2 413,-457.2 544,-457.2 544,-438.2 413,-438.2"/>
<text text-anchor="start" x="416" y="-444.3" font-family="Helvetica,sans-Serif" font-size="11.00" fill="#000000">...</text>
<polygon fill="#ffffff" stroke="transparent" points="413,-419.2 413,-438.2 442,-438.2 442,-419.2 413,-419.2"/>
<polygon fill="none" stroke="#000000" points="413,-419.2 413,-438.2 442,-438.2 442,-419.2 413,-419.2"/>
<text text-anchor="start" x="416" y="-425.3" font-family="Helvetica,sans-Serif" font-size="11.00" fill="#000000">&lt; 1</text>
<polygon fill="#ffffff" stroke="transparent" points="442,-419.2 442,-438.2 518,-438.2 518,-419.2 442,-419.2"/>
<polygon fill="none" stroke="#000000" points="442,-419.2 442,-438.2 518,-438.2 518,-419.2 442,-419.2"/>
<text text-anchor="start" x="448.9791" y="-425.3" font-family="Helvetica,sans-Serif" font-size="11.00" fill="#000000">292.481 rows</text>
<polygon fill="#ffffff" stroke="transparent" points="518,-419.2 518,-438.2 544,-438.2 544,-419.2 518,-419.2"/>
<polygon fill="none" stroke="#000000" points="518,-419.2 518,-438.2 544,-438.2 544,-419.2 518,-419.2"/>
<text text-anchor="start" x="525.4053" y="-425.3" font-family="Helvetica,sans-Serif" font-size="11.00" fill="#000000">3 &gt;</text>
</a>
</g>
</g>
<!-- moving_object -->
<g id="node2" class="node">
<title>moving_object</title>
<g id="a_node2"><a xlink:href="../../tables/moving_object.html" xlink:title="moving_object" target="_top">
<polygon fill="#ffffff" stroke="transparent" points="154,-140.2 154,-252.2 337,-252.2 337,-140.2 154,-140.2"/>
<polygon fill="#f5f5f5" stroke="transparent" points="156.5,-227.2 156.5,-250.2 335.5,-250.2 335.5,-227.2 156.5,-227.2"/>
<polygon fill="none" stroke="#000000" points="156.5,-227.2 156.5,-250.2 335.5,-250.2 335.5,-227.2 156.5,-227.2"/>
<text text-anchor="start" x="161.5" y="-235.8" font-family="Helvetica,sans-Serif" font-weight="bold" font-size="11.00" fill="#000000">moving_object</text>
<text text-anchor="start" x="300.5437" y="-235.3" font-family="Helvetica,sans-Serif" font-size="11.00" fill="#000000">[table]</text>
<polygon fill="none" stroke="#000000" points="156.5,-205.2 156.5,-227.2 274.5,-227.2 274.5,-205.2 156.5,-205.2"/>
<image xlink:href="../../images/primaryKeys.png" width="11px" height="12px" preserveAspectRatio="xMinYMin meet" x="161.5" y="-222.2"/>
<text text-anchor="start" x="176.5" y="-212.3" font-family="Helvetica,sans-Serif" font-size="11.00" fill="#000000">mo_id</text>
<polygon fill="none" stroke="#000000" points="274.5,-205.2 274.5,-227.2 335.5,-227.2 335.5,-205.2 274.5,-205.2"/>
<text text-anchor="start" x="277.5" y="-212.9" font-family="Helvetica,sans-Serif" font-size="11.00" fill="#000000">int4[10]</text>
<polygon fill="#ffffff" stroke="transparent" points="156.5,-183.2 156.5,-205.2 274.5,-205.2 274.5,-183.2 156.5,-183.2"/>
<polygon fill="none" stroke="#000000" points="156.5,-183.2 156.5,-205.2 274.5,-205.2 274.5,-183.2 156.5,-183.2"/>
<text text-anchor="start" x="176.5" y="-190.3" font-family="Helvetica,sans-Serif" font-size="11.00" fill="#000000">description</text>
<polygon fill="none" stroke="#000000" points="274.5,-183.2 274.5,-205.2 335.5,-205.2 335.5,-183.2 274.5,-183.2"/>
<text text-anchor="start" x="277.494" y="-190.9" font-family="Helvetica,sans-Serif" font-size="11.00" fill="#000000">varchar[50]</text>
<polygon fill="#ffffff" stroke="transparent" points="156.5,-161.2 156.5,-183.2 274.5,-183.2 274.5,-161.2 156.5,-161.2"/>
<polygon fill="none" stroke="#000000" points="156.5,-161.2 156.5,-183.2 274.5,-183.2 274.5,-161.2 156.5,-161.2"/>
<image xlink:href="../../images/foreignKeys.png" width="11px" height="12px" preserveAspectRatio="xMinYMin meet" x="161.5" y="-178.2"/>
<text text-anchor="start" x="176.5" y="-168.3" font-family="Helvetica,sans-Serif" font-size="11.00" fill="#000000">mo_type_id</text>
<polygon fill="none" stroke="#000000" points="274.5,-161.2 274.5,-183.2 335.5,-183.2 335.5,-161.2 274.5,-161.2"/>
<text text-anchor="start" x="277.5" y="-168.9" font-family="Helvetica,sans-Serif" font-size="11.00" fill="#000000">int4[10]</text>
<polygon fill="#ffffff" stroke="transparent" points="156.5,-142.2 156.5,-161.2 196.5,-161.2 196.5,-142.2 156.5,-142.2"/>
<polygon fill="none" stroke="#000000" points="156.5,-142.2 156.5,-161.2 196.5,-161.2 196.5,-142.2 156.5,-142.2"/>
<text text-anchor="start" x="159.5" y="-148.3" font-family="Helvetica,sans-Serif" font-size="11.00" fill="#000000">&lt; 1</text>
<polygon fill="#ffffff" stroke="transparent" points="196.5,-142.2 196.5,-161.2 274.5,-161.2 274.5,-142.2 196.5,-142.2"/>
<polygon fill="none" stroke="#000000" points="196.5,-142.2 196.5,-161.2 274.5,-161.2 274.5,-142.2 196.5,-142.2"/>
<text text-anchor="start" x="217.7089" y="-148.3" font-family="Helvetica,sans-Serif" font-size="11.00" fill="#000000">2.000 rows</text>
<polygon fill="#ffffff" stroke="transparent" points="274.5,-142.2 274.5,-161.2 335.5,-161.2 335.5,-142.2 274.5,-142.2"/>
<polygon fill="none" stroke="#000000" points="274.5,-142.2 274.5,-161.2 335.5,-161.2 335.5,-142.2 274.5,-142.2"/>
<text text-anchor="start" x="316.9053" y="-148.3" font-family="Helvetica,sans-Serif" font-size="11.00" fill="#000000">5 &gt;</text>
<polygon fill="none" stroke="#000000" stroke-width="2" points="155,-141.2 155,-251.2 336,-251.2 336,-141.2 155,-141.2"/>
</a>
</g>
</g>
<!-- mat&#45;&gt;moving_object -->
<g id="edge1" class="edge">
<title>mat:w&#45;&gt;moving_object:e</title>
<path fill="none" stroke="#000000" d="M398.5609,-464.6831C384.4897,-455.846 386.9234,-431.7979 378,-409.2 361.8703,-368.3529 379.4164,-216.2 335.5,-216.2"/>
<polygon fill="#000000" stroke="#000000" points="405.2272,-466.3068 412.148,-471.6977 409.1136,-467.2534 413,-468.2 413,-468.2 413,-468.2 409.1136,-467.2534 413.852,-464.7023 405.2272,-466.3068 405.2272,-466.3068"/>
<ellipse fill="none" stroke="#000000" cx="402.1181" cy="-465.5495" rx="3.2" ry="3.2"/>
</g>
<!-- mo_type -->
<g id="node5" class="node">
<title>mo_type</title>
<g id="a_node5"><a xlink:href="../../tables/mo_type.html" xlink:title="mo_type" target="_top">
<polygon fill="#ffffff" stroke="transparent" points="8,-123.7 8,-206.7 105,-206.7 105,-123.7 8,-123.7"/>
<polygon fill="#f5f5f5" stroke="transparent" points="8.5,-183.2 8.5,-206.2 105.5,-206.2 105.5,-183.2 8.5,-183.2"/>
<polygon fill="none" stroke="#000000" points="8.5,-183.2 8.5,-206.2 105.5,-206.2 105.5,-183.2 8.5,-183.2"/>
<text text-anchor="start" x="13.5" y="-191.8" font-family="Helvetica,sans-Serif" font-weight="bold" font-size="11.00" fill="#000000">mo_type</text>
<text text-anchor="start" x="71.0219" y="-191.3" font-family="Helvetica,sans-Serif" font-size="11.00" fill="#000000">[table]</text>
<polygon fill="none" stroke="#000000" points="8.5,-161.2 8.5,-183.2 105.5,-183.2 105.5,-161.2 8.5,-161.2"/>
<image xlink:href="../../images/primaryKeys.png" width="11px" height="12px" preserveAspectRatio="xMinYMin meet" x="13.5" y="-178.2"/>
<text text-anchor="start" x="28.5" y="-168.3" font-family="Helvetica,sans-Serif" font-size="11.00" fill="#000000">mo_type_id</text>
<polygon fill="none" stroke="#000000" points="8.5,-142.2 8.5,-161.2 105.5,-161.2 105.5,-142.2 8.5,-142.2"/>
<text text-anchor="start" x="11.5" y="-148.3" font-family="Helvetica,sans-Serif" font-size="11.00" fill="#000000">...</text>
<polygon fill="#ffffff" stroke="transparent" points="8.5,-123.2 8.5,-142.2 36.5,-142.2 36.5,-123.2 8.5,-123.2"/>
<polygon fill="none" stroke="#000000" points="8.5,-123.2 8.5,-142.2 36.5,-142.2 36.5,-123.2 8.5,-123.2"/>
<text text-anchor="start" x="11.5" y="-129.3" font-family="Helvetica,sans-Serif" font-size="11.00" fill="#000000"> &#160;</text>
<polygon fill="#ffffff" stroke="transparent" points="36.5,-123.2 36.5,-142.2 76.5,-142.2 76.5,-123.2 36.5,-123.2"/>
<polygon fill="none" stroke="#000000" points="36.5,-123.2 36.5,-142.2 76.5,-142.2 76.5,-123.2 36.5,-123.2"/>
<text text-anchor="start" x="46.6105" y="-129.3" font-family="Helvetica,sans-Serif" font-size="11.00" fill="#000000">1 row</text>
<polygon fill="#ffffff" stroke="transparent" points="76.5,-123.2 76.5,-142.2 105.5,-142.2 105.5,-123.2 76.5,-123.2"/>
<polygon fill="none" stroke="#000000" points="76.5,-123.2 76.5,-142.2 105.5,-142.2 105.5,-123.2 76.5,-123.2"/>
<text text-anchor="start" x="86.9053" y="-129.3" font-family="Helvetica,sans-Serif" font-size="11.00" fill="#000000">1 &gt;</text>
</a>
</g>
</g>
<!-- moving_object&#45;&gt;mo_type -->
<g id="edge5" class="edge">
<title>moving_object:w&#45;&gt;mo_type:e</title>
<path fill="none" stroke="#000000" d="M141.776,-172.2C129.7815,-172.2 122.3229,-172.2 105.5,-172.2"/>
<polygon fill="#000000" stroke="#000000" points="148.5,-172.2001 156.5,-175.8 152.5,-172.2 156.5,-172.2 156.5,-172.2 156.5,-172.2 152.5,-172.2 156.5,-168.6 148.5,-172.2001 148.5,-172.2001"/>
<ellipse fill="none" stroke="#000000" cx="145.3" cy="-172.2001" rx="3.2" ry="3.2"/>
</g>
<!-- mo_aspect -->
<g id="node3" class="node">
<title>mo_aspect</title>
<g id="a_node3"><a xlink:href="../../tables/mo_aspect.html" xlink:title="mo_aspect" target="_top">
<polygon fill="#ffffff" stroke="transparent" points="423,-293.7 423,-398.7 533,-398.7 533,-293.7 423,-293.7"/>
<polygon fill="#f5f5f5" stroke="transparent" points="423,-375.2 423,-398.2 533,-398.2 533,-375.2 423,-375.2"/>
<polygon fill="none" stroke="#000000" points="423,-375.2 423,-398.2 533,-398.2 533,-375.2 423,-375.2"/>
<text text-anchor="start" x="428" y="-383.8" font-family="Helvetica,sans-Serif" font-weight="bold" font-size="11.00" fill="#000000">mo_aspect</text>
<text text-anchor="start" x="498.5219" y="-383.3" font-family="Helvetica,sans-Serif" font-size="11.00" fill="#000000">[table]</text>
<polygon fill="none" stroke="#000000" points="423,-353.2 423,-375.2 533,-375.2 533,-353.2 423,-353.2"/>
<image xlink:href="../../images/primaryKeys.png" width="11px" height="12px" preserveAspectRatio="xMinYMin meet" x="428" y="-370.2"/>
<text text-anchor="start" x="452" y="-360.3" font-family="Helvetica,sans-Serif" font-size="11.00" fill="#000000">mo_id</text>
<polygon fill="none" stroke="#000000" points="423,-331.2 423,-353.2 533,-353.2 533,-331.2 423,-331.2"/>
<image xlink:href="../../images/primaryKeys.png" width="11px" height="12px" preserveAspectRatio="xMinYMin meet" x="428" y="-348.2"/>
<text text-anchor="start" x="452" y="-338.3" font-family="Helvetica,sans-Serif" font-size="11.00" fill="#000000">aspect_id</text>
<polygon fill="none" stroke="#000000" points="423,-312.2 423,-331.2 533,-331.2 533,-312.2 423,-312.2"/>
<text text-anchor="start" x="426" y="-318.3" font-family="Helvetica,sans-Serif" font-size="11.00" fill="#000000">...</text>
<polygon fill="#ffffff" stroke="transparent" points="423,-293.2 423,-312.2 453,-312.2 453,-293.2 423,-293.2"/>
<polygon fill="none" stroke="#000000" points="423,-293.2 423,-312.2 453,-312.2 453,-293.2 423,-293.2"/>
<text text-anchor="start" x="426" y="-299.3" font-family="Helvetica,sans-Serif" font-size="11.00" fill="#000000">&lt; 2</text>
<polygon fill="#ffffff" stroke="transparent" points="453,-293.2 453,-312.2 516,-312.2 516,-293.2 453,-293.2"/>
<polygon fill="none" stroke="#000000" points="453,-293.2 453,-312.2 516,-312.2 516,-293.2 453,-293.2"/>
<text text-anchor="start" x="459.2089" y="-299.3" font-family="Helvetica,sans-Serif" font-size="11.00" fill="#000000">2.000 rows</text>
<polygon fill="#ffffff" stroke="transparent" points="516,-293.2 516,-312.2 533,-312.2 533,-293.2 516,-293.2"/>
<polygon fill="none" stroke="#000000" points="516,-293.2 516,-312.2 533,-312.2 533,-293.2 516,-293.2"/>
<text text-anchor="start" x="523.8862" y="-299.3" font-family="Helvetica,sans-Serif" font-size="11.00" fill="#000000"> &#160;</text>
</a>
</g>
</g>
<!-- mo_aspect&#45;&gt;moving_object -->
<g id="edge2" class="edge">
<title>mo_aspect:w&#45;&gt;moving_object:e</title>
<path fill="none" stroke="#000000" d="M409.8378,-357.8406C381.5978,-329.5125 368.931,-216.2 335.5,-216.2"/>
<polygon fill="#000000" stroke="#000000" points="415.7967,-360.7197 421.4339,-367.4415 419.3983,-362.4598 423,-364.2 423,-364.2 423,-364.2 419.3983,-362.4598 424.5661,-360.9585 415.7967,-360.7197 415.7967,-360.7197"/>
<ellipse fill="none" stroke="#000000" cx="412.9154" cy="-359.3275" rx="3.2" ry="3.2"/>
</g>
<!-- mo_relationship -->
<g id="node4" class="node">
<title>mo_relationship</title>
<g id="a_node4"><a xlink:href="../../tables/mo_relationship.html" xlink:title="mo_relationship" target="_top">
<polygon fill="#ffffff" stroke="transparent" points="404.5,-145.7 404.5,-272.7 551.5,-272.7 551.5,-145.7 404.5,-145.7"/>
<polygon fill="#f5f5f5" stroke="transparent" points="405,-249.2 405,-272.2 552,-272.2 552,-249.2 405,-249.2"/>
<polygon fill="none" stroke="#000000" points="405,-249.2 405,-272.2 552,-272.2 552,-249.2 405,-249.2"/>
<text text-anchor="start" x="410" y="-257.8" font-family="Helvetica,sans-Serif" font-weight="bold" font-size="11.00" fill="#000000">mo_relationship</text>
<text text-anchor="start" x="517.5219" y="-257.3" font-family="Helvetica,sans-Serif" font-size="11.00" fill="#000000">[table]</text>
<polygon fill="none" stroke="#000000" points="405,-227.2 405,-249.2 552,-249.2 552,-227.2 405,-227.2"/>
<image xlink:href="../../images/primaryKeys.png" width="11px" height="12px" preserveAspectRatio="xMinYMin meet" x="410" y="-244.2"/>
<text text-anchor="start" x="434" y="-234.3" font-family="Helvetica,sans-Serif" font-size="11.00" fill="#000000">mor_id</text>
<polygon fill="#ffffff" stroke="transparent" points="405,-205.2 405,-227.2 552,-227.2 552,-205.2 405,-205.2"/>
<polygon fill="none" stroke="#000000" points="405,-205.2 405,-227.2 552,-227.2 552,-205.2 405,-205.2"/>
<image xlink:href="../../images/foreignKeys.png" width="11px" height="12px" preserveAspectRatio="xMinYMin meet" x="410" y="-222.2"/>
<text text-anchor="start" x="434" y="-212.3" font-family="Helvetica,sans-Serif" font-size="11.00" fill="#000000">mo_target</text>
<polygon fill="#ffffff" stroke="transparent" points="405,-183.2 405,-205.2 552,-205.2 552,-183.2 405,-183.2"/>
<polygon fill="none" stroke="#000000" points="405,-183.2 405,-205.2 552,-205.2 552,-183.2 405,-183.2"/>
<image xlink:href="../../images/foreignKeys.png" width="11px" height="12px" preserveAspectRatio="xMinYMin meet" x="410" y="-200.2"/>
<text text-anchor="start" x="434" y="-190.3" font-family="Helvetica,sans-Serif" font-size="11.00" fill="#000000">mo_source</text>
<polygon fill="none" stroke="#000000" points="405,-164.2 405,-183.2 552,-183.2 552,-164.2 405,-164.2"/>
<text text-anchor="start" x="408" y="-170.3" font-family="Helvetica,sans-Serif" font-size="11.00" fill="#000000">...</text>
<polygon fill="#ffffff" stroke="transparent" points="405,-145.2 405,-164.2 459,-164.2 459,-145.2 405,-145.2"/>
<polygon fill="none" stroke="#000000" points="405,-145.2 405,-164.2 459,-164.2 459,-145.2 405,-145.2"/>
<text text-anchor="start" x="408" y="-151.3" font-family="Helvetica,sans-Serif" font-size="11.00" fill="#000000">&lt; 2</text>
<polygon fill="#ffffff" stroke="transparent" points="459,-145.2 459,-164.2 514,-164.2 514,-145.2 459,-145.2"/>
<polygon fill="none" stroke="#000000" points="459,-145.2 459,-164.2 514,-164.2 514,-145.2 459,-145.2"/>
<text text-anchor="start" x="478.6105" y="-151.3" font-family="Helvetica,sans-Serif" font-size="11.00" fill="#000000">0 rows</text>
<polygon fill="#ffffff" stroke="transparent" points="514,-145.2 514,-164.2 552,-164.2 552,-145.2 514,-145.2"/>
<polygon fill="none" stroke="#000000" points="514,-145.2 514,-164.2 552,-164.2 552,-145.2 514,-145.2"/>
<text text-anchor="start" x="533.4053" y="-151.3" font-family="Helvetica,sans-Serif" font-size="11.00" fill="#000000">2 &gt;</text>
</a>
</g>
</g>
<!-- mo_relationship&#45;&gt;moving_object -->
<g id="edge3" class="edge">
<title>mo_relationship:w&#45;&gt;moving_object:e</title>
<path fill="none" stroke="#000000" d="M390.4675,-195.9263C370.1663,-201.1126 362.3308,-216.2 335.5,-216.2"/>
<polygon fill="#000000" stroke="#000000" points="397.0559,-195.1437 405.4247,-197.7749 401.0279,-194.6719 405,-194.2 405,-194.2 405,-194.2 401.0279,-194.6719 404.5753,-190.6251 397.0559,-195.1437 397.0559,-195.1437"/>
<ellipse fill="none" stroke="#000000" cx="393.8782" cy="-195.5212" rx="3.2" ry="3.2"/>
</g>
<!-- mo_relationship&#45;&gt;moving_object -->
<g id="edge4" class="edge">
<title>mo_relationship:w&#45;&gt;moving_object:e</title>
<path fill="none" stroke="#000000" d="M390.3241,-216.2C370.5879,-216.2 360.8385,-216.2 335.5,-216.2"/>
<polygon fill="#000000" stroke="#000000" points="397,-216.2001 405,-219.8 401,-216.2 405,-216.2 405,-216.2 405,-216.2 401,-216.2 405,-212.6 397,-216.2001 397,-216.2001"/>
<ellipse fill="none" stroke="#000000" cx="393.8" cy="-216.2001" rx="3.2" ry="3.2"/>
</g>
<!-- moving_object_mo_dr -->
<g id="node6" class="node">
<title>moving_object_mo_dr</title>
<g id="a_node6"><a xlink:href="../../tables/moving_object_mo_dr.html" xlink:title="moving_object_mo_dr" target="_top">
<polygon fill="#ffffff" stroke="transparent" points="386,-38.2 386,-124.2 570,-124.2 570,-38.2 386,-38.2"/>
<polygon fill="#f5f5f5" stroke="transparent" points="386,-101.2 386,-124.2 570,-124.2 570,-101.2 386,-101.2"/>
<polygon fill="none" stroke="#000000" points="386,-101.2 386,-124.2 570,-124.2 570,-101.2 386,-101.2"/>
<text text-anchor="start" x="391" y="-109.8" font-family="Helvetica,sans-Serif" font-weight="bold" font-size="11.00" fill="#000000">moving_object_mo_dr</text>
<text text-anchor="start" x="535.5219" y="-109.3" font-family="Helvetica,sans-Serif" font-size="11.00" fill="#000000">[table]</text>
<polygon fill="none" stroke="#000000" points="386,-79.2 386,-101.2 570,-101.2 570,-79.2 386,-79.2"/>
<image xlink:href="../../images/primaryKeys.png" width="11px" height="12px" preserveAspectRatio="xMinYMin meet" x="391" y="-96.2"/>
<text text-anchor="start" x="415" y="-86.3" font-family="Helvetica,sans-Serif" font-size="11.00" fill="#000000">mo_id</text>
<polygon fill="none" stroke="#000000" points="386,-57.2 386,-79.2 570,-79.2 570,-57.2 386,-57.2"/>
<image xlink:href="../../images/primaryKeys.png" width="11px" height="12px" preserveAspectRatio="xMinYMin meet" x="391" y="-74.2"/>
<text text-anchor="start" x="415" y="-64.3" font-family="Helvetica,sans-Serif" font-size="11.00" fill="#000000">rule_id</text>
<polygon fill="#ffffff" stroke="transparent" points="386,-38.2 386,-57.2 463,-57.2 463,-38.2 386,-38.2"/>
<polygon fill="none" stroke="#000000" points="386,-38.2 386,-57.2 463,-57.2 463,-38.2 386,-38.2"/>
<text text-anchor="start" x="389" y="-44.3" font-family="Helvetica,sans-Serif" font-size="11.00" fill="#000000">&lt; 2</text>
<polygon fill="#ffffff" stroke="transparent" points="463,-38.2 463,-57.2 529,-57.2 529,-38.2 463,-38.2"/>
<polygon fill="none" stroke="#000000" points="463,-38.2 463,-57.2 529,-57.2 529,-38.2 463,-38.2"/>
<text text-anchor="start" x="493.6105" y="-44.3" font-family="Helvetica,sans-Serif" font-size="11.00" fill="#000000">0 rows</text>
<polygon fill="#ffffff" stroke="transparent" points="529,-38.2 529,-57.2 570,-57.2 570,-38.2 529,-38.2"/>
<polygon fill="none" stroke="#000000" points="529,-38.2 529,-57.2 570,-57.2 570,-38.2 529,-38.2"/>
<text text-anchor="start" x="560.8862" y="-44.3" font-family="Helvetica,sans-Serif" font-size="11.00" fill="#000000"> &#160;</text>
</a>
</g>
</g>
<!-- moving_object_mo_dr&#45;&gt;moving_object -->
<g id="edge6" class="edge">
<title>moving_object_mo_dr:w&#45;&gt;moving_object:e</title>
<path fill="none" stroke="#000000" d="M371.8154,-93.5702C338.1284,-113.6077 389.9387,-216.2 335.5,-216.2"/>
<polygon fill="#000000" stroke="#000000" points="378.2167,-92.0493 386.8322,-93.7025 382.1083,-91.1247 386,-90.2 386,-90.2 386,-90.2 382.1083,-91.1247 385.1678,-86.6975 378.2167,-92.0493 378.2167,-92.0493"/>
<ellipse fill="none" stroke="#000000" cx="375.1033" cy="-92.7891" rx="3.2" ry="3.2"/>
</g>
</g>
</svg>
