<?xml version="1.0" encoding="UTF-8" standalone="no"?>
<!DOCTYPE svg PUBLIC "-//W3C//DTD SVG 1.1//EN"
 "http://www.w3.org/Graphics/SVG/1.1/DTD/svg11.dtd">
<!-- Generated by graphviz version 2.40.1 (20161225.0304)
 -->
<!-- Title: oneDegreeRelationshipsDiagram Pages: 1 -->
<svg width="532pt" height="155pt"
 viewBox="0.00 0.00 532.00 154.70" xmlns="http://www.w3.org/2000/svg" xmlns:xlink="http://www.w3.org/1999/xlink">
<g id="graph0" class="graph" transform="scale(1 1) rotate(0) translate(4 150.7)">
<title>oneDegreeRelationshipsDiagram</title>
<polygon fill="#ffffff" stroke="transparent" points="-4,4 -4,-150.7 528,-150.7 528,4 -4,4"/>
<text text-anchor="middle" x="72.4936" y="-7.3" font-family="Helvetica,sans-Serif" font-size="11.00" fill="#000000">Generated by SchemaSpy</text>
<!-- point_dr -->
<g id="node1" class="node">
<title>point_dr</title>
<g id="a_node1"><a xlink:href="../../tables/point_dr.html" xlink:title="point_dr" target="_top">
<polygon fill="#ffffff" stroke="transparent" points="210,-54.7 210,-122.7 332,-122.7 332,-54.7 210,-54.7"/>
<polygon fill="#f5f5f5" stroke="transparent" points="212,-97.7 212,-120.7 330,-120.7 330,-97.7 212,-97.7"/>
<polygon fill="none" stroke="#000000" points="212,-97.7 212,-120.7 330,-120.7 330,-97.7 212,-97.7"/>
<text text-anchor="start" x="217" y="-106.3" font-family="Helvetica,sans-Serif" font-weight="bold" font-size="11.00" fill="#000000">point_dr</text>
<text text-anchor="start" x="295.0437" y="-105.8" font-family="Helvetica,sans-Serif" font-size="11.00" fill="#000000">[table]</text>
<polygon fill="none" stroke="#000000" points="212,-75.7 212,-97.7 288,-97.7 288,-75.7 212,-75.7"/>
<image xlink:href="../../images/primaryKeys.png" width="11px" height="12px" preserveAspectRatio="xMinYMin meet" x="217" y="-92.7"/>
<text text-anchor="start" x="232" y="-82.8" font-family="Helvetica,sans-Serif" font-size="11.00" fill="#000000">rule_id</text>
<polygon fill="none" stroke="#000000" points="288,-75.7 288,-97.7 330,-97.7 330,-75.7 288,-75.7"/>
<text text-anchor="start" x="290.9644" y="-83.4" font-family="Helvetica,sans-Serif" font-size="11.00" fill="#000000">int4[10]</text>
<polygon fill="#ffffff" stroke="transparent" points="212,-56.7 212,-75.7 241,-75.7 241,-56.7 212,-56.7"/>
<polygon fill="none" stroke="#000000" points="212,-56.7 212,-75.7 241,-75.7 241,-56.7 212,-56.7"/>
<text text-anchor="start" x="215" y="-62.8" font-family="Helvetica,sans-Serif" font-size="11.00" fill="#000000">&lt; 1</text>
<polygon fill="#ffffff" stroke="transparent" points="241,-56.7 241,-75.7 288,-75.7 288,-56.7 241,-56.7"/>
<polygon fill="none" stroke="#000000" points="241,-56.7 241,-75.7 288,-75.7 288,-56.7 241,-56.7"/>
<text text-anchor="start" x="252.6105" y="-62.8" font-family="Helvetica,sans-Serif" font-size="11.00" fill="#000000">0 rows</text>
<polygon fill="#ffffff" stroke="transparent" points="288,-56.7 288,-75.7 330,-75.7 330,-56.7 288,-56.7"/>
<polygon fill="none" stroke="#000000" points="288,-56.7 288,-75.7 330,-75.7 330,-56.7 288,-56.7"/>
<text text-anchor="start" x="311.4053" y="-62.8" font-family="Helvetica,sans-Serif" font-size="11.00" fill="#000000">1 &gt;</text>
<polygon fill="none" stroke="#000000" stroke-width="2" points="211,-55.7 211,-121.7 331,-121.7 331,-55.7 211,-55.7"/>
</a>
</g>
</g>
<!-- dependency_rule -->
<g id="node2" class="node">
<title>dependency_rule</title>
<g id="a_node2"><a xlink:href="../../tables/dependency_rule.html" xlink:title="dependency_rule" target="_top">
<polygon fill="#ffffff" stroke="transparent" points="8,-38.2 8,-121.2 161,-121.2 161,-38.2 8,-38.2"/>
<polygon fill="#f5f5f5" stroke="transparent" points="8.5,-97.7 8.5,-120.7 161.5,-120.7 161.5,-97.7 8.5,-97.7"/>
<polygon fill="none" stroke="#000000" points="8.5,-97.7 8.5,-120.7 161.5,-120.7 161.5,-97.7 8.5,-97.7"/>
<text text-anchor="start" x="13.5" y="-106.3" font-family="Helvetica,sans-Serif" font-weight="bold" font-size="11.00" fill="#000000">dependency_rule</text>
<text text-anchor="start" x="127.0219" y="-105.8" font-family="Helvetica,sans-Serif" font-size="11.00" fill="#000000">[table]</text>
<polygon fill="none" stroke="#000000" points="8.5,-75.7 8.5,-97.7 161.5,-97.7 161.5,-75.7 8.5,-75.7"/>
<image xlink:href="../../images/primaryKeys.png" width="11px" height="12px" preserveAspectRatio="xMinYMin meet" x="13.5" y="-92.7"/>
<text text-anchor="start" x="37.5" y="-82.8" font-family="Helvetica,sans-Serif" font-size="11.00" fill="#000000">rule_id</text>
<polygon fill="none" stroke="#000000" points="8.5,-56.7 8.5,-75.7 161.5,-75.7 161.5,-56.7 8.5,-56.7"/>
<text text-anchor="start" x="11.5" y="-62.8" font-family="Helvetica,sans-Serif" font-size="11.00" fill="#000000">...</text>
<polygon fill="#ffffff" stroke="transparent" points="8.5,-37.7 8.5,-56.7 61.5,-56.7 61.5,-37.7 8.5,-37.7"/>
<polygon fill="none" stroke="#000000" points="8.5,-37.7 8.5,-56.7 61.5,-56.7 61.5,-37.7 8.5,-37.7"/>
<text text-anchor="start" x="11.5" y="-43.8" font-family="Helvetica,sans-Serif" font-size="11.00" fill="#000000"> &#160;</text>
<polygon fill="#ffffff" stroke="transparent" points="61.5,-37.7 61.5,-56.7 119.5,-56.7 119.5,-37.7 61.5,-37.7"/>
<polygon fill="none" stroke="#000000" points="61.5,-37.7 61.5,-56.7 119.5,-56.7 119.5,-37.7 61.5,-37.7"/>
<text text-anchor="start" x="84.1105" y="-43.8" font-family="Helvetica,sans-Serif" font-size="11.00" fill="#000000">0 rows</text>
<polygon fill="#ffffff" stroke="transparent" points="119.5,-37.7 119.5,-56.7 161.5,-56.7 161.5,-37.7 119.5,-37.7"/>
<polygon fill="none" stroke="#000000" points="119.5,-37.7 119.5,-56.7 161.5,-56.7 161.5,-37.7 119.5,-37.7"/>
<text text-anchor="start" x="142.9053" y="-43.8" font-family="Helvetica,sans-Serif" font-size="11.00" fill="#000000">7 &gt;</text>
</a>
</g>
</g>
<!-- point_dr&#45;&gt;dependency_rule -->
<g id="edge1" class="edge">
<title>point_dr:w&#45;&gt;dependency_rule:e</title>
<path fill="none" stroke="#000000" d="M201.3362,-86.7C186.9956,-86.7 179.9115,-86.7 161.5,-86.7"/>
<polygon fill="#000000" stroke="#000000" points="211.2,-82.7 211.2,-90.7 209.6,-90.7 209.6,-82.7 211.2,-82.7"/>
<polyline fill="none" stroke="#000000" points="212,-86.7 208,-86.7 "/>
<ellipse fill="none" stroke="#000000" cx="204.8" cy="-86.7001" rx="3.2" ry="3.2"/>
</g>
<!-- point_point_dr -->
<g id="node3" class="node">
<title>point_point_dr</title>
<g id="a_node3"><a xlink:href="../../tables/point_point_dr.html" xlink:title="point_point_dr" target="_top">
<polygon fill="#ffffff" stroke="transparent" points="381,-56.7 381,-142.7 516,-142.7 516,-56.7 381,-56.7"/>
<polygon fill="#f5f5f5" stroke="transparent" points="381.5,-119.7 381.5,-142.7 516.5,-142.7 516.5,-119.7 381.5,-119.7"/>
<polygon fill="none" stroke="#000000" points="381.5,-119.7 381.5,-142.7 516.5,-142.7 516.5,-119.7 381.5,-119.7"/>
<text text-anchor="start" x="386.5" y="-128.3" font-family="Helvetica,sans-Serif" font-weight="bold" font-size="11.00" fill="#000000">point_point_dr</text>
<text text-anchor="start" x="482.0219" y="-127.8" font-family="Helvetica,sans-Serif" font-size="11.00" fill="#000000">[table]</text>
<polygon fill="none" stroke="#000000" points="381.5,-97.7 381.5,-119.7 516.5,-119.7 516.5,-97.7 381.5,-97.7"/>
<image xlink:href="../../images/primaryKeys.png" width="11px" height="12px" preserveAspectRatio="xMinYMin meet" x="386.5" y="-114.7"/>
<text text-anchor="start" x="410.5" y="-104.8" font-family="Helvetica,sans-Serif" font-size="11.00" fill="#000000">point_id</text>
<polygon fill="none" stroke="#000000" points="381.5,-75.7 381.5,-97.7 516.5,-97.7 516.5,-75.7 381.5,-75.7"/>
<image xlink:href="../../images/primaryKeys.png" width="11px" height="12px" preserveAspectRatio="xMinYMin meet" x="386.5" y="-92.7"/>
<text text-anchor="start" x="410.5" y="-82.8" font-family="Helvetica,sans-Serif" font-size="11.00" fill="#000000">rule_id</text>
<polygon fill="#ffffff" stroke="transparent" points="381.5,-56.7 381.5,-75.7 434.5,-75.7 434.5,-56.7 381.5,-56.7"/>
<polygon fill="none" stroke="#000000" points="381.5,-56.7 381.5,-75.7 434.5,-75.7 434.5,-56.7 381.5,-56.7"/>
<text text-anchor="start" x="384.5" y="-62.8" font-family="Helvetica,sans-Serif" font-size="11.00" fill="#000000">&lt; 2</text>
<polygon fill="#ffffff" stroke="transparent" points="434.5,-56.7 434.5,-75.7 488.5,-75.7 488.5,-56.7 434.5,-56.7"/>
<polygon fill="none" stroke="#000000" points="434.5,-56.7 434.5,-75.7 488.5,-75.7 488.5,-56.7 434.5,-56.7"/>
<text text-anchor="start" x="453.1105" y="-62.8" font-family="Helvetica,sans-Serif" font-size="11.00" fill="#000000">0 rows</text>
<polygon fill="#ffffff" stroke="transparent" points="488.5,-56.7 488.5,-75.7 516.5,-75.7 516.5,-56.7 488.5,-56.7"/>
<polygon fill="none" stroke="#000000" points="488.5,-56.7 488.5,-75.7 516.5,-75.7 516.5,-56.7 488.5,-56.7"/>
<text text-anchor="start" x="507.3862" y="-62.8" font-family="Helvetica,sans-Serif" font-size="11.00" fill="#000000"> &#160;</text>
</a>
</g>
</g>
<!-- point_point_dr&#45;&gt;point_dr -->
<g id="edge2" class="edge">
<title>point_point_dr:w&#45;&gt;point_dr:e</title>
<path fill="none" stroke="#000000" d="M367.0156,-86.7C354.6771,-86.7 347.1667,-86.7 330,-86.7"/>
<polygon fill="#000000" stroke="#000000" points="373.5,-86.7001 381.5,-90.3 377.5,-86.7 381.5,-86.7 381.5,-86.7 381.5,-86.7 377.5,-86.7 381.5,-83.1 373.5,-86.7001 373.5,-86.7001"/>
<ellipse fill="none" stroke="#000000" cx="370.3" cy="-86.7001" rx="3.2" ry="3.2"/>
</g>
</g>
</svg>
