<?xml version="1.0" encoding="UTF-8" standalone="no"?>
<!DOCTYPE svg PUBLIC "-//W3C//DTD SVG 1.1//EN"
 "http://www.w3.org/Graphics/SVG/1.1/DTD/svg11.dtd">
<!-- Generated by graphviz version 2.40.1 (20161225.0304)
 -->
<!-- Title: twoDegreesRelationshipsDiagram Pages: 1 -->
<svg width="721pt" height="303pt"
 viewBox="0.00 0.00 721.00 303.20" xmlns="http://www.w3.org/2000/svg" xmlns:xlink="http://www.w3.org/1999/xlink">
<g id="graph0" class="graph" transform="scale(1 1) rotate(0) translate(4 299.2)">
<title>twoDegreesRelationshipsDiagram</title>
<polygon fill="#ffffff" stroke="transparent" points="-4,4 -4,-299.2 717,-299.2 717,4 -4,4"/>
<text text-anchor="middle" x="72.4936" y="-7.3" font-family="Helvetica,sans-Serif" font-size="11.00" fill="#000000">Generated by SchemaSpy</text>
<!-- point -->
<g id="node1" class="node">
<title>point</title>
<g id="a_node1"><a xlink:href="../../tables/point.html" xlink:title="point" target="_top">
<polygon fill="#ffffff" stroke="transparent" points="171,-119.2 171,-180.2 294,-180.2 294,-119.2 171,-119.2"/>
<polygon fill="#f5f5f5" stroke="transparent" points="171.5,-156.7 171.5,-179.7 294.5,-179.7 294.5,-156.7 171.5,-156.7"/>
<polygon fill="none" stroke="#000000" points="171.5,-156.7 171.5,-179.7 294.5,-179.7 294.5,-156.7 171.5,-156.7"/>
<text text-anchor="start" x="176.5" y="-165.3" font-family="Helvetica,sans-Serif" font-weight="bold" font-size="11.00" fill="#000000">point</text>
<text text-anchor="start" x="259.5437" y="-164.8" font-family="Helvetica,sans-Serif" font-size="11.00" fill="#000000">[table]</text>
<polygon fill="none" stroke="#000000" points="171.5,-137.7 171.5,-156.7 294.5,-156.7 294.5,-137.7 171.5,-137.7"/>
<text text-anchor="start" x="174.5" y="-143.8" font-family="Helvetica,sans-Serif" font-size="11.00" fill="#000000">...</text>
<polygon fill="#ffffff" stroke="transparent" points="171.5,-118.7 171.5,-137.7 192.5,-137.7 192.5,-118.7 171.5,-118.7"/>
<polygon fill="none" stroke="#000000" points="171.5,-118.7 171.5,-137.7 192.5,-137.7 192.5,-118.7 171.5,-118.7"/>
<text text-anchor="start" x="174.2027" y="-124.8" font-family="Helvetica,sans-Serif" font-size="11.00" fill="#000000">&lt; 1</text>
<polygon fill="#ffffff" stroke="transparent" points="192.5,-118.7 192.5,-137.7 273.5,-137.7 273.5,-118.7 192.5,-118.7"/>
<polygon fill="none" stroke="#000000" points="192.5,-118.7 192.5,-137.7 273.5,-137.7 273.5,-118.7 192.5,-118.7"/>
<text text-anchor="start" x="195.4037" y="-124.8" font-family="Helvetica,sans-Serif" font-size="11.00" fill="#000000">1.039.258 rows</text>
<polygon fill="#ffffff" stroke="transparent" points="273.5,-118.7 273.5,-137.7 294.5,-137.7 294.5,-118.7 273.5,-118.7"/>
<polygon fill="none" stroke="#000000" points="273.5,-118.7 273.5,-137.7 294.5,-137.7 294.5,-118.7 273.5,-118.7"/>
<text text-anchor="start" x="276.2027" y="-124.8" font-family="Helvetica,sans-Serif" font-size="11.00" fill="#000000">4 &gt;</text>
</a>
</g>
</g>
<!-- mat -->
<g id="node2" class="node">
<title>mat</title>
<g id="a_node2"><a xlink:href="../../tables/mat.html" xlink:title="mat" target="_top">
<polygon fill="#ffffff" stroke="transparent" points="8,-122.2 8,-183.2 122,-183.2 122,-122.2 8,-122.2"/>
<polygon fill="#f5f5f5" stroke="transparent" points="8,-159.7 8,-182.7 122,-182.7 122,-159.7 8,-159.7"/>
<polygon fill="none" stroke="#000000" points="8,-159.7 8,-182.7 122,-182.7 122,-159.7 8,-159.7"/>
<text text-anchor="start" x="13" y="-168.3" font-family="Helvetica,sans-Serif" font-weight="bold" font-size="11.00" fill="#000000">mat</text>
<text text-anchor="start" x="87.0437" y="-167.8" font-family="Helvetica,sans-Serif" font-size="11.00" fill="#000000">[table]</text>
<polygon fill="none" stroke="#000000" points="8,-140.7 8,-159.7 122,-159.7 122,-140.7 8,-140.7"/>
<text text-anchor="start" x="11" y="-146.8" font-family="Helvetica,sans-Serif" font-size="11.00" fill="#000000">...</text>
<polygon fill="#ffffff" stroke="transparent" points="8,-121.7 8,-140.7 29,-140.7 29,-121.7 8,-121.7"/>
<polygon fill="none" stroke="#000000" points="8,-121.7 8,-140.7 29,-140.7 29,-121.7 8,-121.7"/>
<text text-anchor="start" x="10.7027" y="-127.8" font-family="Helvetica,sans-Serif" font-size="11.00" fill="#000000">&lt; 1</text>
<polygon fill="#ffffff" stroke="transparent" points="29,-121.7 29,-140.7 101,-140.7 101,-121.7 29,-121.7"/>
<polygon fill="none" stroke="#000000" points="29,-121.7 29,-140.7 101,-140.7 101,-121.7 29,-121.7"/>
<text text-anchor="start" x="31.9896" y="-127.8" font-family="Helvetica,sans-Serif" font-size="11.00" fill="#000000">292.481 rows</text>
<polygon fill="#ffffff" stroke="transparent" points="101,-121.7 101,-140.7 122,-140.7 122,-121.7 101,-121.7"/>
<polygon fill="none" stroke="#000000" points="101,-121.7 101,-140.7 122,-140.7 122,-121.7 101,-121.7"/>
<text text-anchor="start" x="103.7027" y="-127.8" font-family="Helvetica,sans-Serif" font-size="11.00" fill="#000000">3 &gt;</text>
</a>
</g>
</g>
<!-- point&#45;&gt;mat -->
<g id="edge1" class="edge">
<title>point:w&#45;&gt;mat:e</title>
<path fill="none" stroke="#000000" d="M148.4819,-149.7C139.5417,-149.7 130.5834,-149.7 122,-149.7"/>
<polygon fill="#000000" stroke="#000000" points="154.9443,-149.7001 162.9444,-153.3 158.9443,-149.7 162.9443,-149.7 162.9443,-149.7 162.9443,-149.7 158.9443,-149.7 162.9443,-146.1 154.9443,-149.7001 154.9443,-149.7001"/>
<ellipse fill="none" stroke="#000000" cx="151.7443" cy="-149.7001" rx="3.2" ry="3.2"/>
</g>
<!-- point_aspect -->
<g id="node3" class="node">
<title>point_aspect</title>
<g id="a_node3"><a xlink:href="../../tables/point_aspect.html" xlink:title="point_aspect" target="_top">
<polygon fill="#ffffff" stroke="transparent" points="348,-230.2 348,-291.2 473,-291.2 473,-230.2 348,-230.2"/>
<polygon fill="#f5f5f5" stroke="transparent" points="348.5,-267.7 348.5,-290.7 473.5,-290.7 473.5,-267.7 348.5,-267.7"/>
<polygon fill="none" stroke="#000000" points="348.5,-267.7 348.5,-290.7 473.5,-290.7 473.5,-267.7 348.5,-267.7"/>
<text text-anchor="start" x="353.5" y="-276.3" font-family="Helvetica,sans-Serif" font-weight="bold" font-size="11.00" fill="#000000">point_aspect</text>
<text text-anchor="start" x="439.0219" y="-275.8" font-family="Helvetica,sans-Serif" font-size="11.00" fill="#000000">[table]</text>
<polygon fill="none" stroke="#000000" points="348.5,-248.7 348.5,-267.7 473.5,-267.7 473.5,-248.7 348.5,-248.7"/>
<text text-anchor="start" x="351.5" y="-254.8" font-family="Helvetica,sans-Serif" font-size="11.00" fill="#000000">...</text>
<polygon fill="#ffffff" stroke="transparent" points="348.5,-229.7 348.5,-248.7 374.5,-248.7 374.5,-229.7 348.5,-229.7"/>
<polygon fill="none" stroke="#000000" points="348.5,-229.7 348.5,-248.7 374.5,-248.7 374.5,-229.7 348.5,-229.7"/>
<text text-anchor="start" x="351.5" y="-235.8" font-family="Helvetica,sans-Serif" font-size="11.00" fill="#000000">&lt; 2</text>
<polygon fill="#ffffff" stroke="transparent" points="374.5,-229.7 374.5,-248.7 458.5,-248.7 458.5,-229.7 374.5,-229.7"/>
<polygon fill="none" stroke="#000000" points="374.5,-229.7 374.5,-248.7 458.5,-248.7 458.5,-229.7 374.5,-229.7"/>
<text text-anchor="start" x="380.3073" y="-235.8" font-family="Helvetica,sans-Serif" font-size="11.00" fill="#000000">1.039.258 rows</text>
<polygon fill="#ffffff" stroke="transparent" points="458.5,-229.7 458.5,-248.7 473.5,-248.7 473.5,-229.7 458.5,-229.7"/>
<polygon fill="none" stroke="#000000" points="458.5,-229.7 458.5,-248.7 473.5,-248.7 473.5,-229.7 458.5,-229.7"/>
<text text-anchor="start" x="464.3862" y="-235.8" font-family="Helvetica,sans-Serif" font-size="11.00" fill="#000000"> &#160;</text>
</a>
</g>
</g>
<!-- point_aspect&#45;&gt;point -->
<g id="edge2" class="edge">
<title>point_aspect:w&#45;&gt;point:e</title>
<path fill="none" stroke="#000000" d="M334.0083,-256.1713C297.1985,-248.3905 268.3771,-212.4617 250.9978,-184.4664"/>
<polygon fill="#000000" stroke="#000000" points="340.5441,-256.8607 348.1223,-261.2801 344.5221,-257.2804 348.5,-257.7 348.5,-257.7 348.5,-257.7 344.5221,-257.2804 348.8777,-254.1199 340.5441,-256.8607 340.5441,-256.8607"/>
<ellipse fill="none" stroke="#000000" cx="337.3618" cy="-256.525" rx="3.2" ry="3.2"/>
</g>
<!-- point_point_dr -->
<g id="node4" class="node">
<title>point_point_dr</title>
<g id="a_node4"><a xlink:href="../../tables/point_point_dr.html" xlink:title="point_point_dr" target="_top">
<polygon fill="#ffffff" stroke="transparent" points="343,-148.2 343,-209.2 478,-209.2 478,-148.2 343,-148.2"/>
<polygon fill="#f5f5f5" stroke="transparent" points="343.5,-185.7 343.5,-208.7 478.5,-208.7 478.5,-185.7 343.5,-185.7"/>
<polygon fill="none" stroke="#000000" points="343.5,-185.7 343.5,-208.7 478.5,-208.7 478.5,-185.7 343.5,-185.7"/>
<text text-anchor="start" x="348.5" y="-194.3" font-family="Helvetica,sans-Serif" font-weight="bold" font-size="11.00" fill="#000000">point_point_dr</text>
<text text-anchor="start" x="444.0219" y="-193.8" font-family="Helvetica,sans-Serif" font-size="11.00" fill="#000000">[table]</text>
<polygon fill="none" stroke="#000000" points="343.5,-166.7 343.5,-185.7 478.5,-185.7 478.5,-166.7 343.5,-166.7"/>
<text text-anchor="start" x="346.5" y="-172.8" font-family="Helvetica,sans-Serif" font-size="11.00" fill="#000000">...</text>
<polygon fill="#ffffff" stroke="transparent" points="343.5,-147.7 343.5,-166.7 396.5,-166.7 396.5,-147.7 343.5,-147.7"/>
<polygon fill="none" stroke="#000000" points="343.5,-147.7 343.5,-166.7 396.5,-166.7 396.5,-147.7 343.5,-147.7"/>
<text text-anchor="start" x="346.5" y="-153.8" font-family="Helvetica,sans-Serif" font-size="11.00" fill="#000000">&lt; 2</text>
<polygon fill="#ffffff" stroke="transparent" points="396.5,-147.7 396.5,-166.7 450.5,-166.7 450.5,-147.7 396.5,-147.7"/>
<polygon fill="none" stroke="#000000" points="396.5,-147.7 396.5,-166.7 450.5,-166.7 450.5,-147.7 396.5,-147.7"/>
<text text-anchor="start" x="415.1105" y="-153.8" font-family="Helvetica,sans-Serif" font-size="11.00" fill="#000000">0 rows</text>
<polygon fill="#ffffff" stroke="transparent" points="450.5,-147.7 450.5,-166.7 478.5,-166.7 478.5,-147.7 450.5,-147.7"/>
<polygon fill="none" stroke="#000000" points="450.5,-147.7 450.5,-166.7 478.5,-166.7 478.5,-147.7 450.5,-147.7"/>
<text text-anchor="start" x="469.3862" y="-153.8" font-family="Helvetica,sans-Serif" font-size="11.00" fill="#000000"> &#160;</text>
</a>
</g>
</g>
<!-- point_point_dr&#45;&gt;point -->
<g id="edge3" class="edge">
<title>point_point_dr:w&#45;&gt;point:e</title>
<path fill="none" stroke="#000000" d="M329.0025,-175.053C320.0031,-174.2841 310.9111,-172.8798 302.092,-171.1116"/>
<polygon fill="#000000" stroke="#000000" points="335.508,-175.3433 343.3395,-179.2964 339.504,-175.5217 343.5,-175.7 343.5,-175.7 343.5,-175.7 339.504,-175.5217 343.6605,-172.1036 335.508,-175.3433 335.508,-175.3433"/>
<ellipse fill="none" stroke="#000000" cx="332.3111" cy="-175.2006" rx="3.2" ry="3.2"/>
</g>
<!-- point_repr_point -->
<g id="node5" class="node">
<title>point_repr_point</title>
<g id="a_node5"><a xlink:href="../../tables/point_repr_point.html" xlink:title="point_repr_point" target="_top">
<polygon fill="#ffffff" stroke="transparent" points="527,-52.7 527,-142.7 705,-142.7 705,-52.7 527,-52.7"/>
<polygon fill="#f5f5f5" stroke="transparent" points="529,-117.7 529,-140.7 703,-140.7 703,-117.7 529,-117.7"/>
<polygon fill="none" stroke="#000000" points="529,-117.7 529,-140.7 703,-140.7 703,-117.7 529,-117.7"/>
<text text-anchor="start" x="534" y="-126.3" font-family="Helvetica,sans-Serif" font-weight="bold" font-size="11.00" fill="#000000">point_repr_point</text>
<text text-anchor="start" x="668.0437" y="-125.8" font-family="Helvetica,sans-Serif" font-size="11.00" fill="#000000">[table]</text>
<polygon fill="none" stroke="#000000" points="529,-95.7 529,-117.7 661,-117.7 661,-95.7 529,-95.7"/>
<image xlink:href="../../images/primaryKeys.png" width="11px" height="12px" preserveAspectRatio="xMinYMin meet" x="534" y="-112.7"/>
<text text-anchor="start" x="549" y="-102.8" font-family="Helvetica,sans-Serif" font-size="11.00" fill="#000000">point_id</text>
<polygon fill="none" stroke="#000000" points="661,-95.7 661,-117.7 703,-117.7 703,-95.7 661,-95.7"/>
<text text-anchor="start" x="663.9644" y="-103.4" font-family="Helvetica,sans-Serif" font-size="11.00" fill="#000000">int4[10]</text>
<polygon fill="none" stroke="#000000" points="529,-73.7 529,-95.7 661,-95.7 661,-73.7 529,-73.7"/>
<image xlink:href="../../images/primaryKeys.png" width="11px" height="12px" preserveAspectRatio="xMinYMin meet" x="534" y="-90.7"/>
<text text-anchor="start" x="549" y="-80.8" font-family="Helvetica,sans-Serif" font-size="11.00" fill="#000000">repr_point_id</text>
<polygon fill="none" stroke="#000000" points="661,-73.7 661,-95.7 703,-95.7 703,-73.7 661,-73.7"/>
<text text-anchor="start" x="663.9644" y="-81.4" font-family="Helvetica,sans-Serif" font-size="11.00" fill="#000000">int4[10]</text>
<polygon fill="#ffffff" stroke="transparent" points="529,-54.7 529,-73.7 586,-73.7 586,-54.7 529,-54.7"/>
<polygon fill="none" stroke="#000000" points="529,-54.7 529,-73.7 586,-73.7 586,-54.7 529,-54.7"/>
<text text-anchor="start" x="532" y="-60.8" font-family="Helvetica,sans-Serif" font-size="11.00" fill="#000000">&lt; 2</text>
<polygon fill="#ffffff" stroke="transparent" points="586,-54.7 586,-73.7 661,-73.7 661,-54.7 586,-54.7"/>
<polygon fill="none" stroke="#000000" points="586,-54.7 586,-73.7 661,-73.7 661,-54.7 586,-54.7"/>
<text text-anchor="start" x="625.6105" y="-60.8" font-family="Helvetica,sans-Serif" font-size="11.00" fill="#000000">0 rows</text>
<polygon fill="#ffffff" stroke="transparent" points="661,-54.7 661,-73.7 703,-73.7 703,-54.7 661,-54.7"/>
<polygon fill="none" stroke="#000000" points="661,-54.7 661,-73.7 703,-73.7 703,-54.7 661,-54.7"/>
<text text-anchor="start" x="684.4053" y="-60.8" font-family="Helvetica,sans-Serif" font-size="11.00" fill="#000000">0 &gt;</text>
<polygon fill="none" stroke="#000000" stroke-width="2" points="528,-53.7 528,-141.7 704,-141.7 704,-53.7 528,-53.7"/>
</a>
</g>
</g>
<!-- point_repr_point&#45;&gt;point -->
<g id="edge4" class="edge">
<title>point_repr_point:w&#45;&gt;point:e</title>
<path fill="none" stroke="#000000" d="M514.5596,-107.7047C473.696,-111.7971 371.6693,-127.5157 302.2086,-138.5145"/>
<polygon fill="#000000" stroke="#000000" points="521.0193,-107.2553 529.2499,-110.2913 525.0096,-106.9776 529,-106.7 529,-106.7 529,-106.7 525.0096,-106.9776 528.7501,-103.1087 521.0193,-107.2553 521.0193,-107.2553"/>
<ellipse fill="none" stroke="#000000" cx="517.827" cy="-107.4774" rx="3.2" ry="3.2"/>
</g>
<!-- repr_point -->
<g id="node6" class="node">
<title>repr_point</title>
<g id="a_node6"><a xlink:href="../../tables/repr_point.html" xlink:title="repr_point" target="_top">
<polygon fill="#ffffff" stroke="transparent" points="356.5,-38.2 356.5,-99.2 464.5,-99.2 464.5,-38.2 356.5,-38.2"/>
<polygon fill="#f5f5f5" stroke="transparent" points="356.5,-75.7 356.5,-98.7 464.5,-98.7 464.5,-75.7 356.5,-75.7"/>
<polygon fill="none" stroke="#000000" points="356.5,-75.7 356.5,-98.7 464.5,-98.7 464.5,-75.7 356.5,-75.7"/>
<text text-anchor="start" x="361.5" y="-84.3" font-family="Helvetica,sans-Serif" font-weight="bold" font-size="11.00" fill="#000000">repr_point</text>
<text text-anchor="start" x="430.0219" y="-83.8" font-family="Helvetica,sans-Serif" font-size="11.00" fill="#000000">[table]</text>
<polygon fill="none" stroke="#000000" points="356.5,-56.7 356.5,-75.7 464.5,-75.7 464.5,-56.7 356.5,-56.7"/>
<text text-anchor="start" x="359.5" y="-62.8" font-family="Helvetica,sans-Serif" font-size="11.00" fill="#000000">...</text>
<polygon fill="#ffffff" stroke="transparent" points="356.5,-37.7 356.5,-56.7 391.5,-56.7 391.5,-37.7 356.5,-37.7"/>
<polygon fill="none" stroke="#000000" points="356.5,-37.7 356.5,-56.7 391.5,-56.7 391.5,-37.7 356.5,-37.7"/>
<text text-anchor="start" x="359.5" y="-43.8" font-family="Helvetica,sans-Serif" font-size="11.00" fill="#000000">&lt; 1</text>
<polygon fill="#ffffff" stroke="transparent" points="391.5,-37.7 391.5,-56.7 436.5,-56.7 436.5,-37.7 391.5,-37.7"/>
<polygon fill="none" stroke="#000000" points="391.5,-37.7 391.5,-56.7 436.5,-56.7 436.5,-37.7 391.5,-37.7"/>
<text text-anchor="start" x="401.1105" y="-43.8" font-family="Helvetica,sans-Serif" font-size="11.00" fill="#000000">0 rows</text>
<polygon fill="#ffffff" stroke="transparent" points="436.5,-37.7 436.5,-56.7 464.5,-56.7 464.5,-37.7 436.5,-37.7"/>
<polygon fill="none" stroke="#000000" points="436.5,-37.7 436.5,-56.7 464.5,-56.7 464.5,-37.7 436.5,-37.7"/>
<text text-anchor="start" x="445.9053" y="-43.8" font-family="Helvetica,sans-Serif" font-size="11.00" fill="#000000">1 &gt;</text>
</a>
</g>
</g>
<!-- point_repr_point&#45;&gt;repr_point -->
<g id="edge5" class="edge">
<title>point_repr_point:w&#45;&gt;repr_point:e</title>
<path fill="none" stroke="#000000" d="M514.5541,-84.3414C500.5181,-83.6748 486.1333,-82.1427 472.71,-80.2856"/>
<polygon fill="#000000" stroke="#000000" points="521.0025,-84.5014 528.9106,-88.2989 525.0012,-84.6007 529,-84.7 529,-84.7 529,-84.7 525.0012,-84.6007 529.0894,-81.1011 521.0025,-84.5014 521.0025,-84.5014"/>
<ellipse fill="none" stroke="#000000" cx="517.8034" cy="-84.422" rx="3.2" ry="3.2"/>
</g>
<!-- repr_point&#45;&gt;point -->
<g id="edge6" class="edge">
<title>repr_point:w&#45;&gt;point:e</title>
<path fill="none" stroke="#000000" d="M338.6614,-101.3906C326.5727,-106.8916 314.0449,-112.5925 302.0164,-118.0661"/>
<polygon fill="#000000" stroke="#000000" points="345.8593,-93.7205 349.1729,-101.002 347.7166,-101.6647 344.403,-94.3832 345.8593,-93.7205"/>
<polyline fill="none" stroke="#000000" points="348.2442,-97.0299 344.6035,-98.6866 "/>
<ellipse fill="none" stroke="#000000" cx="341.6909" cy="-100.0121" rx="3.2" ry="3.2"/>
</g>
</g>
</svg>
