<?xml version="1.0" encoding="UTF-8" standalone="no"?>
<!DOCTYPE svg PUBLIC "-//W3C//DTD SVG 1.1//EN"
 "http://www.w3.org/Graphics/SVG/1.1/DTD/svg11.dtd">
<!-- Generated by graphviz version 2.40.1 (20161225.0304)
 -->
<!-- Title: oneDegreeRelationshipsDiagram Pages: 1 -->
<svg width="532pt" height="168pt"
 viewBox="0.00 0.00 532.00 167.70" xmlns="http://www.w3.org/2000/svg" xmlns:xlink="http://www.w3.org/1999/xlink">
<g id="graph0" class="graph" transform="scale(1 1) rotate(0) translate(4 163.7)">
<title>oneDegreeRelationshipsDiagram</title>
<polygon fill="#ffffff" stroke="transparent" points="-4,4 -4,-163.7 528,-163.7 528,4 -4,4"/>
<text text-anchor="middle" x="72.4936" y="-7.3" font-family="Helvetica,sans-Serif" font-size="11.00" fill="#000000">Generated by SchemaSpy</text>
<!-- point_repr_point -->
<g id="node1" class="node">
<title>point_repr_point</title>
<g id="a_node1"><a xlink:href="../../tables/point_repr_point.html" xlink:title="point_repr_point" target="_top">
<polygon fill="#ffffff" stroke="transparent" points="338,-65.7 338,-155.7 516,-155.7 516,-65.7 338,-65.7"/>
<polygon fill="#f5f5f5" stroke="transparent" points="340,-130.7 340,-153.7 514,-153.7 514,-130.7 340,-130.7"/>
<polygon fill="none" stroke="#000000" points="340,-130.7 340,-153.7 514,-153.7 514,-130.7 340,-130.7"/>
<text text-anchor="start" x="345" y="-139.3" font-family="Helvetica,sans-Serif" font-weight="bold" font-size="11.00" fill="#000000">point_repr_point</text>
<text text-anchor="start" x="479.0437" y="-138.8" font-family="Helvetica,sans-Serif" font-size="11.00" fill="#000000">[table]</text>
<polygon fill="none" stroke="#000000" points="340,-108.7 340,-130.7 472,-130.7 472,-108.7 340,-108.7"/>
<image xlink:href="../../images/primaryKeys.png" width="11px" height="12px" preserveAspectRatio="xMinYMin meet" x="345" y="-125.7"/>
<text text-anchor="start" x="360" y="-115.8" font-family="Helvetica,sans-Serif" font-size="11.00" fill="#000000">point_id</text>
<polygon fill="none" stroke="#000000" points="472,-108.7 472,-130.7 514,-130.7 514,-108.7 472,-108.7"/>
<text text-anchor="start" x="474.9644" y="-116.4" font-family="Helvetica,sans-Serif" font-size="11.00" fill="#000000">int4[10]</text>
<polygon fill="none" stroke="#000000" points="340,-86.7 340,-108.7 472,-108.7 472,-86.7 340,-86.7"/>
<image xlink:href="../../images/primaryKeys.png" width="11px" height="12px" preserveAspectRatio="xMinYMin meet" x="345" y="-103.7"/>
<text text-anchor="start" x="360" y="-93.8" font-family="Helvetica,sans-Serif" font-size="11.00" fill="#000000">repr_point_id</text>
<polygon fill="none" stroke="#000000" points="472,-86.7 472,-108.7 514,-108.7 514,-86.7 472,-86.7"/>
<text text-anchor="start" x="474.9644" y="-94.4" font-family="Helvetica,sans-Serif" font-size="11.00" fill="#000000">int4[10]</text>
<polygon fill="#ffffff" stroke="transparent" points="340,-67.7 340,-86.7 397,-86.7 397,-67.7 340,-67.7"/>
<polygon fill="none" stroke="#000000" points="340,-67.7 340,-86.7 397,-86.7 397,-67.7 340,-67.7"/>
<text text-anchor="start" x="343" y="-73.8" font-family="Helvetica,sans-Serif" font-size="11.00" fill="#000000">&lt; 2</text>
<polygon fill="#ffffff" stroke="transparent" points="397,-67.7 397,-86.7 472,-86.7 472,-67.7 397,-67.7"/>
<polygon fill="none" stroke="#000000" points="397,-67.7 397,-86.7 472,-86.7 472,-67.7 397,-67.7"/>
<text text-anchor="start" x="436.6105" y="-73.8" font-family="Helvetica,sans-Serif" font-size="11.00" fill="#000000">0 rows</text>
<polygon fill="#ffffff" stroke="transparent" points="472,-67.7 472,-86.7 514,-86.7 514,-67.7 472,-67.7"/>
<polygon fill="none" stroke="#000000" points="472,-67.7 472,-86.7 514,-86.7 514,-67.7 472,-67.7"/>
<text text-anchor="start" x="495.4053" y="-73.8" font-family="Helvetica,sans-Serif" font-size="11.00" fill="#000000">0 &gt;</text>
<polygon fill="none" stroke="#000000" stroke-width="2" points="339,-66.7 339,-154.7 515,-154.7 515,-66.7 339,-66.7"/>
</a>
</g>
</g>
<!-- point -->
<g id="node2" class="node">
<title>point</title>
<g id="a_node2"><a xlink:href="../../tables/point.html" xlink:title="point" target="_top">
<polygon fill="#ffffff" stroke="transparent" points="8,-38.2 8,-143.2 131,-143.2 131,-38.2 8,-38.2"/>
<polygon fill="#f5f5f5" stroke="transparent" points="8.5,-119.7 8.5,-142.7 131.5,-142.7 131.5,-119.7 8.5,-119.7"/>
<polygon fill="none" stroke="#000000" points="8.5,-119.7 8.5,-142.7 131.5,-142.7 131.5,-119.7 8.5,-119.7"/>
<text text-anchor="start" x="13.5" y="-128.3" font-family="Helvetica,sans-Serif" font-weight="bold" font-size="11.00" fill="#000000">point</text>
<text text-anchor="start" x="96.5437" y="-127.8" font-family="Helvetica,sans-Serif" font-size="11.00" fill="#000000">[table]</text>
<polygon fill="none" stroke="#000000" points="8.5,-97.7 8.5,-119.7 131.5,-119.7 131.5,-97.7 8.5,-97.7"/>
<image xlink:href="../../images/primaryKeys.png" width="11px" height="12px" preserveAspectRatio="xMinYMin meet" x="13.5" y="-114.7"/>
<text text-anchor="start" x="53.5" y="-104.8" font-family="Helvetica,sans-Serif" font-size="11.00" fill="#000000">point_id</text>
<polygon fill="#ffffff" stroke="transparent" points="8.5,-75.7 8.5,-97.7 131.5,-97.7 131.5,-75.7 8.5,-75.7"/>
<polygon fill="none" stroke="#000000" points="8.5,-75.7 8.5,-97.7 131.5,-97.7 131.5,-75.7 8.5,-75.7"/>
<image xlink:href="../../images/foreignKeys.png" width="11px" height="12px" preserveAspectRatio="xMinYMin meet" x="13.5" y="-92.7"/>
<text text-anchor="start" x="53.5" y="-82.8" font-family="Helvetica,sans-Serif" font-size="11.00" fill="#000000">mat_id</text>
<polygon fill="none" stroke="#000000" points="8.5,-56.7 8.5,-75.7 131.5,-75.7 131.5,-56.7 8.5,-56.7"/>
<text text-anchor="start" x="11.5" y="-62.8" font-family="Helvetica,sans-Serif" font-size="11.00" fill="#000000">...</text>
<polygon fill="#ffffff" stroke="transparent" points="8.5,-37.7 8.5,-56.7 29.5,-56.7 29.5,-37.7 8.5,-37.7"/>
<polygon fill="none" stroke="#000000" points="8.5,-37.7 8.5,-56.7 29.5,-56.7 29.5,-37.7 8.5,-37.7"/>
<text text-anchor="start" x="11.2027" y="-43.8" font-family="Helvetica,sans-Serif" font-size="11.00" fill="#000000">&lt; 1</text>
<polygon fill="#ffffff" stroke="transparent" points="29.5,-37.7 29.5,-56.7 110.5,-56.7 110.5,-37.7 29.5,-37.7"/>
<polygon fill="none" stroke="#000000" points="29.5,-37.7 29.5,-56.7 110.5,-56.7 110.5,-37.7 29.5,-37.7"/>
<text text-anchor="start" x="32.4037" y="-43.8" font-family="Helvetica,sans-Serif" font-size="11.00" fill="#000000">1.039.258 rows</text>
<polygon fill="#ffffff" stroke="transparent" points="110.5,-37.7 110.5,-56.7 131.5,-56.7 131.5,-37.7 110.5,-37.7"/>
<polygon fill="none" stroke="#000000" points="110.5,-37.7 110.5,-56.7 131.5,-56.7 131.5,-37.7 110.5,-37.7"/>
<text text-anchor="start" x="113.2027" y="-43.8" font-family="Helvetica,sans-Serif" font-size="11.00" fill="#000000">4 &gt;</text>
</a>
</g>
</g>
<!-- point_repr_point&#45;&gt;point -->
<g id="edge1" class="edge">
<title>point_repr_point:w&#45;&gt;point:e</title>
<path fill="none" stroke="#000000" d="M325.3701,-120.6355C316.4837,-121.8585 310.2053,-123.9348 297,-124.7 241.5375,-127.9137 226.5754,-135.0896 172,-124.7 152.9877,-121.0806 150.8538,-108.7 131.5,-108.7"/>
<polygon fill="#000000" stroke="#000000" points="332.0163,-120.2106 340.2298,-123.2927 336.0082,-119.9553 340,-119.7 340,-119.7 340,-119.7 336.0082,-119.9553 339.7702,-116.1073 332.0163,-120.2106 332.0163,-120.2106"/>
<ellipse fill="none" stroke="#000000" cx="328.8228" cy="-120.4148" rx="3.2" ry="3.2"/>
</g>
<!-- repr_point -->
<g id="node3" class="node">
<title>repr_point</title>
<g id="a_node3"><a xlink:href="../../tables/repr_point.html" xlink:title="repr_point" target="_top">
<polygon fill="#ffffff" stroke="transparent" points="180,-49.7 180,-113.7 289,-113.7 289,-49.7 180,-49.7"/>
<polygon fill="#f5f5f5" stroke="transparent" points="180.5,-90.7 180.5,-113.7 289.5,-113.7 289.5,-90.7 180.5,-90.7"/>
<polygon fill="none" stroke="#000000" points="180.5,-90.7 180.5,-113.7 289.5,-113.7 289.5,-90.7 180.5,-90.7"/>
<text text-anchor="start" x="185.5" y="-99.3" font-family="Helvetica,sans-Serif" font-weight="bold" font-size="11.00" fill="#000000">repr_point</text>
<text text-anchor="start" x="255.0219" y="-98.8" font-family="Helvetica,sans-Serif" font-size="11.00" fill="#000000">[table]</text>
<polygon fill="none" stroke="#000000" points="180.5,-68.7 180.5,-90.7 289.5,-90.7 289.5,-68.7 180.5,-68.7"/>
<image xlink:href="../../images/primaryKeys.png" width="11px" height="12px" preserveAspectRatio="xMinYMin meet" x="185.5" y="-85.7"/>
<text text-anchor="start" x="200.5" y="-75.8" font-family="Helvetica,sans-Serif" font-size="11.00" fill="#000000">repr_point_id</text>
<polygon fill="#ffffff" stroke="transparent" points="180.5,-49.7 180.5,-68.7 215.5,-68.7 215.5,-49.7 180.5,-49.7"/>
<polygon fill="none" stroke="#000000" points="180.5,-49.7 180.5,-68.7 215.5,-68.7 215.5,-49.7 180.5,-49.7"/>
<text text-anchor="start" x="183.5" y="-55.8" font-family="Helvetica,sans-Serif" font-size="11.00" fill="#000000">&lt; 1</text>
<polygon fill="#ffffff" stroke="transparent" points="215.5,-49.7 215.5,-68.7 260.5,-68.7 260.5,-49.7 215.5,-49.7"/>
<polygon fill="none" stroke="#000000" points="215.5,-49.7 215.5,-68.7 260.5,-68.7 260.5,-49.7 215.5,-49.7"/>
<text text-anchor="start" x="225.1105" y="-55.8" font-family="Helvetica,sans-Serif" font-size="11.00" fill="#000000">0 rows</text>
<polygon fill="#ffffff" stroke="transparent" points="260.5,-49.7 260.5,-68.7 289.5,-68.7 289.5,-49.7 260.5,-49.7"/>
<polygon fill="none" stroke="#000000" points="260.5,-49.7 260.5,-68.7 289.5,-68.7 289.5,-49.7 260.5,-49.7"/>
<text text-anchor="start" x="270.9053" y="-55.8" font-family="Helvetica,sans-Serif" font-size="11.00" fill="#000000">1 &gt;</text>
</a>
</g>
</g>
<!-- point_repr_point&#45;&gt;repr_point -->
<g id="edge2" class="edge">
<title>point_repr_point:w&#45;&gt;repr_point:e</title>
<path fill="none" stroke="#000000" d="M325.7839,-95.044C313.5637,-90.037 307.5568,-79.7 289.5,-79.7"/>
<polygon fill="#000000" stroke="#000000" points="332.1361,-96.2308 339.3388,-101.2388 336.068,-96.9654 340,-97.7 340,-97.7 340,-97.7 336.068,-96.9654 340.6612,-94.1612 332.1361,-96.2308 332.1361,-96.2308"/>
<ellipse fill="none" stroke="#000000" cx="328.9905" cy="-95.6431" rx="3.2" ry="3.2"/>
</g>
<!-- repr_point&#45;&gt;point -->
<g id="edge3" class="edge">
<title>repr_point:w&#45;&gt;point:e</title>
<path fill="none" stroke="#000000" d="M169.9806,-81.7856C154.9984,-88.435 152.6543,-108.7 131.5,-108.7"/>
<polygon fill="#000000" stroke="#000000" points="178.9373,-75.932 180.4932,-83.7792 178.9238,-84.0904 177.3679,-76.2431 178.9373,-75.932"/>
<polyline fill="none" stroke="#000000" points="180.5,-79.7 176.5764,-80.4779 "/>
<ellipse fill="none" stroke="#000000" cx="173.4375" cy="-81.1003" rx="3.2" ry="3.2"/>
</g>
</g>
</svg>
