<?xml version="1.0" encoding="UTF-8" standalone="no"?>
<!DOCTYPE svg PUBLIC "-//W3C//DTD SVG 1.1//EN"
 "http://www.w3.org/Graphics/SVG/1.1/DTD/svg11.dtd">
<!-- Generated by graphviz version 2.40.1 (20161225.0304)
 -->
<!-- Title: twoDegreesRelationshipsDiagram Pages: 1 -->
<svg width="621pt" height="611pt"
 viewBox="0.00 0.00 621.00 611.20" xmlns="http://www.w3.org/2000/svg" xmlns:xlink="http://www.w3.org/1999/xlink">
<g id="graph0" class="graph" transform="scale(1 1) rotate(0) translate(4 607.2)">
<title>twoDegreesRelationshipsDiagram</title>
<polygon fill="#ffffff" stroke="transparent" points="-4,4 -4,-607.2 617,-607.2 617,4 -4,4"/>
<text text-anchor="middle" x="72.4936" y="-7.3" font-family="Helvetica,sans-Serif" font-size="11.00" fill="#000000">Generated by SchemaSpy</text>
<!-- dependency_rule_dataset -->
<g id="node1" class="node">
<title>dependency_rule_dataset</title>
<g id="a_node1"><a xlink:href="../../tables/dependency_rule_dataset.html" xlink:title="dependency_rule_dataset" target="_top">
<polygon fill="#ffffff" stroke="transparent" points="210,-538.2 210,-599.2 421,-599.2 421,-538.2 210,-538.2"/>
<polygon fill="#f5f5f5" stroke="transparent" points="210.5,-575.7 210.5,-598.7 421.5,-598.7 421.5,-575.7 210.5,-575.7"/>
<polygon fill="none" stroke="#000000" points="210.5,-575.7 210.5,-598.7 421.5,-598.7 421.5,-575.7 210.5,-575.7"/>
<text text-anchor="start" x="215.5" y="-584.3" font-family="Helvetica,sans-Serif" font-weight="bold" font-size="11.00" fill="#000000">dependency_rule_dataset</text>
<text text-anchor="start" x="387.0219" y="-583.8" font-family="Helvetica,sans-Serif" font-size="11.00" fill="#000000">[table]</text>
<polygon fill="none" stroke="#000000" points="210.5,-556.7 210.5,-575.7 421.5,-575.7 421.5,-556.7 210.5,-556.7"/>
<text text-anchor="start" x="213.5" y="-562.8" font-family="Helvetica,sans-Serif" font-size="11.00" fill="#000000">...</text>
<polygon fill="#ffffff" stroke="transparent" points="210.5,-537.7 210.5,-556.7 301.5,-556.7 301.5,-537.7 210.5,-537.7"/>
<polygon fill="none" stroke="#000000" points="210.5,-537.7 210.5,-556.7 301.5,-556.7 301.5,-537.7 210.5,-537.7"/>
<text text-anchor="start" x="213.5" y="-543.8" font-family="Helvetica,sans-Serif" font-size="11.00" fill="#000000">&lt; 2</text>
<polygon fill="#ffffff" stroke="transparent" points="301.5,-537.7 301.5,-556.7 374.5,-556.7 374.5,-537.7 301.5,-537.7"/>
<polygon fill="none" stroke="#000000" points="301.5,-537.7 301.5,-556.7 374.5,-556.7 374.5,-537.7 301.5,-537.7"/>
<text text-anchor="start" x="339.1105" y="-543.8" font-family="Helvetica,sans-Serif" font-size="11.00" fill="#000000">0 rows</text>
<polygon fill="#ffffff" stroke="transparent" points="374.5,-537.7 374.5,-556.7 421.5,-556.7 421.5,-537.7 374.5,-537.7"/>
<polygon fill="none" stroke="#000000" points="374.5,-537.7 374.5,-556.7 421.5,-556.7 421.5,-537.7 374.5,-537.7"/>
<text text-anchor="start" x="412.3862" y="-543.8" font-family="Helvetica,sans-Serif" font-size="11.00" fill="#000000"> &#160;</text>
</a>
</g>
</g>
<!-- dependency_rule -->
<g id="node2" class="node">
<title>dependency_rule</title>
<g id="a_node2"><a xlink:href="../../tables/dependency_rule.html" xlink:title="dependency_rule" target="_top">
<polygon fill="#ffffff" stroke="transparent" points="8,-271.2 8,-354.2 161,-354.2 161,-271.2 8,-271.2"/>
<polygon fill="#f5f5f5" stroke="transparent" points="8.5,-330.7 8.5,-353.7 161.5,-353.7 161.5,-330.7 8.5,-330.7"/>
<polygon fill="none" stroke="#000000" points="8.5,-330.7 8.5,-353.7 161.5,-353.7 161.5,-330.7 8.5,-330.7"/>
<text text-anchor="start" x="13.5" y="-339.3" font-family="Helvetica,sans-Serif" font-weight="bold" font-size="11.00" fill="#000000">dependency_rule</text>
<text text-anchor="start" x="127.0219" y="-338.8" font-family="Helvetica,sans-Serif" font-size="11.00" fill="#000000">[table]</text>
<polygon fill="none" stroke="#000000" points="8.5,-308.7 8.5,-330.7 161.5,-330.7 161.5,-308.7 8.5,-308.7"/>
<image xlink:href="../../images/primaryKeys.png" width="11px" height="12px" preserveAspectRatio="xMinYMin meet" x="13.5" y="-325.7"/>
<text text-anchor="start" x="37.5" y="-315.8" font-family="Helvetica,sans-Serif" font-size="11.00" fill="#000000">rule_id</text>
<polygon fill="none" stroke="#000000" points="8.5,-289.7 8.5,-308.7 161.5,-308.7 161.5,-289.7 8.5,-289.7"/>
<text text-anchor="start" x="11.5" y="-295.8" font-family="Helvetica,sans-Serif" font-size="11.00" fill="#000000">...</text>
<polygon fill="#ffffff" stroke="transparent" points="8.5,-270.7 8.5,-289.7 61.5,-289.7 61.5,-270.7 8.5,-270.7"/>
<polygon fill="none" stroke="#000000" points="8.5,-270.7 8.5,-289.7 61.5,-289.7 61.5,-270.7 8.5,-270.7"/>
<text text-anchor="start" x="11.5" y="-276.8" font-family="Helvetica,sans-Serif" font-size="11.00" fill="#000000"> &#160;</text>
<polygon fill="#ffffff" stroke="transparent" points="61.5,-270.7 61.5,-289.7 119.5,-289.7 119.5,-270.7 61.5,-270.7"/>
<polygon fill="none" stroke="#000000" points="61.5,-270.7 61.5,-289.7 119.5,-289.7 119.5,-270.7 61.5,-270.7"/>
<text text-anchor="start" x="84.1105" y="-276.8" font-family="Helvetica,sans-Serif" font-size="11.00" fill="#000000">0 rows</text>
<polygon fill="#ffffff" stroke="transparent" points="119.5,-270.7 119.5,-289.7 161.5,-289.7 161.5,-270.7 119.5,-270.7"/>
<polygon fill="none" stroke="#000000" points="119.5,-270.7 119.5,-289.7 161.5,-289.7 161.5,-270.7 119.5,-270.7"/>
<text text-anchor="start" x="142.9053" y="-276.8" font-family="Helvetica,sans-Serif" font-size="11.00" fill="#000000">7 &gt;</text>
</a>
</g>
</g>
<!-- dependency_rule_dataset&#45;&gt;dependency_rule -->
<g id="edge1" class="edge">
<title>dependency_rule_dataset:w&#45;&gt;dependency_rule:e</title>
<path fill="none" stroke="#000000" d="M196.1449,-563.9977C115.3268,-542.2631 267.5377,-319.7 161.5,-319.7"/>
<polygon fill="#000000" stroke="#000000" points="202.5557,-564.7579 210.0761,-569.275 206.5278,-565.2289 210.5,-565.7 210.5,-565.7 210.5,-565.7 206.5278,-565.2289 210.9239,-562.125 202.5557,-564.7579 202.5557,-564.7579"/>
<ellipse fill="none" stroke="#000000" cx="199.3779" cy="-564.3811" rx="3.2" ry="3.2"/>
</g>
<!-- mat_dr -->
<g id="node3" class="node">
<title>mat_dr</title>
<g id="a_node3"><a xlink:href="../../tables/mat_dr.html" xlink:title="mat_dr" target="_top">
<polygon fill="#ffffff" stroke="transparent" points="273,-456.2 273,-517.2 358,-517.2 358,-456.2 273,-456.2"/>
<polygon fill="#f5f5f5" stroke="transparent" points="273.5,-493.7 273.5,-516.7 358.5,-516.7 358.5,-493.7 273.5,-493.7"/>
<polygon fill="none" stroke="#000000" points="273.5,-493.7 273.5,-516.7 358.5,-516.7 358.5,-493.7 273.5,-493.7"/>
<text text-anchor="start" x="278.5" y="-502.3" font-family="Helvetica,sans-Serif" font-weight="bold" font-size="11.00" fill="#000000">mat_dr</text>
<text text-anchor="start" x="324.0219" y="-501.8" font-family="Helvetica,sans-Serif" font-size="11.00" fill="#000000">[table]</text>
<polygon fill="none" stroke="#000000" points="273.5,-474.7 273.5,-493.7 358.5,-493.7 358.5,-474.7 273.5,-474.7"/>
<text text-anchor="start" x="276.5" y="-480.8" font-family="Helvetica,sans-Serif" font-size="11.00" fill="#000000">...</text>
<polygon fill="#ffffff" stroke="transparent" points="273.5,-455.7 273.5,-474.7 296.5,-474.7 296.5,-455.7 273.5,-455.7"/>
<polygon fill="none" stroke="#000000" points="273.5,-455.7 273.5,-474.7 296.5,-474.7 296.5,-455.7 273.5,-455.7"/>
<text text-anchor="start" x="276.5" y="-461.8" font-family="Helvetica,sans-Serif" font-size="11.00" fill="#000000">&lt; 1</text>
<polygon fill="#ffffff" stroke="transparent" points="296.5,-455.7 296.5,-474.7 335.5,-474.7 335.5,-455.7 296.5,-455.7"/>
<polygon fill="none" stroke="#000000" points="296.5,-455.7 296.5,-474.7 335.5,-474.7 335.5,-455.7 296.5,-455.7"/>
<text text-anchor="start" x="300.1105" y="-461.8" font-family="Helvetica,sans-Serif" font-size="11.00" fill="#000000">0 rows</text>
<polygon fill="#ffffff" stroke="transparent" points="335.5,-455.7 335.5,-474.7 358.5,-474.7 358.5,-455.7 335.5,-455.7"/>
<polygon fill="none" stroke="#000000" points="335.5,-455.7 335.5,-474.7 358.5,-474.7 358.5,-455.7 335.5,-455.7"/>
<text text-anchor="start" x="339.9053" y="-461.8" font-family="Helvetica,sans-Serif" font-size="11.00" fill="#000000">1 &gt;</text>
</a>
</g>
</g>
<!-- mat_dr&#45;&gt;dependency_rule -->
<g id="edge2" class="edge">
<title>mat_dr:w&#45;&gt;dependency_rule:e</title>
<path fill="none" stroke="#000000" d="M262.8597,-483.345C234.7741,-481.3153 222.6556,-470.3908 202,-445.7 164.2571,-400.5838 220.3218,-319.7 161.5,-319.7"/>
<polygon fill="#000000" stroke="#000000" points="272.8339,-479.6755 272.567,-487.6711 270.9679,-487.6177 271.2347,-479.6222 272.8339,-479.6755"/>
<polyline fill="none" stroke="#000000" points="273.5,-483.7 269.5022,-483.5666 "/>
<ellipse fill="none" stroke="#000000" cx="266.304" cy="-483.4599" rx="3.2" ry="3.2"/>
</g>
<!-- mo_dr -->
<g id="node4" class="node">
<title>mo_dr</title>
<g id="a_node4"><a xlink:href="../../tables/mo_dr.html" xlink:title="mo_dr" target="_top">
<polygon fill="#ffffff" stroke="transparent" points="275.5,-374.2 275.5,-435.2 355.5,-435.2 355.5,-374.2 275.5,-374.2"/>
<polygon fill="#f5f5f5" stroke="transparent" points="275.5,-411.7 275.5,-434.7 355.5,-434.7 355.5,-411.7 275.5,-411.7"/>
<polygon fill="none" stroke="#000000" points="275.5,-411.7 275.5,-434.7 355.5,-434.7 355.5,-411.7 275.5,-411.7"/>
<text text-anchor="start" x="280.5" y="-420.3" font-family="Helvetica,sans-Serif" font-weight="bold" font-size="11.00" fill="#000000">mo_dr</text>
<text text-anchor="start" x="321.0219" y="-419.8" font-family="Helvetica,sans-Serif" font-size="11.00" fill="#000000">[table]</text>
<polygon fill="none" stroke="#000000" points="275.5,-392.7 275.5,-411.7 355.5,-411.7 355.5,-392.7 275.5,-392.7"/>
<text text-anchor="start" x="278.5" y="-398.8" font-family="Helvetica,sans-Serif" font-size="11.00" fill="#000000">...</text>
<polygon fill="#ffffff" stroke="transparent" points="275.5,-373.7 275.5,-392.7 296.5,-392.7 296.5,-373.7 275.5,-373.7"/>
<polygon fill="none" stroke="#000000" points="275.5,-373.7 275.5,-392.7 296.5,-392.7 296.5,-373.7 275.5,-373.7"/>
<text text-anchor="start" x="278.2027" y="-379.8" font-family="Helvetica,sans-Serif" font-size="11.00" fill="#000000">&lt; 1</text>
<polygon fill="#ffffff" stroke="transparent" points="296.5,-373.7 296.5,-392.7 334.5,-392.7 334.5,-373.7 296.5,-373.7"/>
<polygon fill="none" stroke="#000000" points="296.5,-373.7 296.5,-392.7 334.5,-392.7 334.5,-373.7 296.5,-373.7"/>
<text text-anchor="start" x="299.3053" y="-379.8" font-family="Helvetica,sans-Serif" font-size="11.00" fill="#000000">0 rows</text>
<polygon fill="#ffffff" stroke="transparent" points="334.5,-373.7 334.5,-392.7 355.5,-392.7 355.5,-373.7 334.5,-373.7"/>
<polygon fill="none" stroke="#000000" points="334.5,-373.7 334.5,-392.7 355.5,-392.7 355.5,-373.7 334.5,-373.7"/>
<text text-anchor="start" x="337.2027" y="-379.8" font-family="Helvetica,sans-Serif" font-size="11.00" fill="#000000">1 &gt;</text>
</a>
</g>
</g>
<!-- mo_dr&#45;&gt;dependency_rule -->
<g id="edge3" class="edge">
<title>mo_dr:w&#45;&gt;dependency_rule:e</title>
<path fill="none" stroke="#000000" d="M264.7816,-401.1871C236.9031,-398.3173 228.1483,-383.6598 202,-363.7 180.8731,-347.5732 188.0786,-319.7 161.5,-319.7"/>
<polygon fill="#000000" stroke="#000000" points="274.8921,-397.6663 274.5097,-405.6572 272.9115,-405.5807 273.294,-397.5898 274.8921,-397.6663"/>
<polyline fill="none" stroke="#000000" points="275.5,-401.7 271.5046,-401.5088 "/>
<ellipse fill="none" stroke="#000000" cx="268.3082" cy="-401.3558" rx="3.2" ry="3.2"/>
</g>
<!-- mor_dr -->
<g id="node5" class="node">
<title>mor_dr</title>
<g id="a_node5"><a xlink:href="../../tables/mor_dr.html" xlink:title="mor_dr" target="_top">
<polygon fill="#ffffff" stroke="transparent" points="272.5,-292.2 272.5,-353.2 358.5,-353.2 358.5,-292.2 272.5,-292.2"/>
<polygon fill="#f5f5f5" stroke="transparent" points="272.5,-329.7 272.5,-352.7 358.5,-352.7 358.5,-329.7 272.5,-329.7"/>
<polygon fill="none" stroke="#000000" points="272.5,-329.7 272.5,-352.7 358.5,-352.7 358.5,-329.7 272.5,-329.7"/>
<text text-anchor="start" x="277.5" y="-338.3" font-family="Helvetica,sans-Serif" font-weight="bold" font-size="11.00" fill="#000000">mor_dr</text>
<text text-anchor="start" x="324.0219" y="-337.8" font-family="Helvetica,sans-Serif" font-size="11.00" fill="#000000">[table]</text>
<polygon fill="none" stroke="#000000" points="272.5,-310.7 272.5,-329.7 358.5,-329.7 358.5,-310.7 272.5,-310.7"/>
<text text-anchor="start" x="275.5" y="-316.8" font-family="Helvetica,sans-Serif" font-size="11.00" fill="#000000">...</text>
<polygon fill="#ffffff" stroke="transparent" points="272.5,-291.7 272.5,-310.7 296.5,-310.7 296.5,-291.7 272.5,-291.7"/>
<polygon fill="none" stroke="#000000" points="272.5,-291.7 272.5,-310.7 296.5,-310.7 296.5,-291.7 272.5,-291.7"/>
<text text-anchor="start" x="275.5" y="-297.8" font-family="Helvetica,sans-Serif" font-size="11.00" fill="#000000">&lt; 1</text>
<polygon fill="#ffffff" stroke="transparent" points="296.5,-291.7 296.5,-310.7 335.5,-310.7 335.5,-291.7 296.5,-291.7"/>
<polygon fill="none" stroke="#000000" points="296.5,-291.7 296.5,-310.7 335.5,-310.7 335.5,-291.7 296.5,-291.7"/>
<text text-anchor="start" x="300.1105" y="-297.8" font-family="Helvetica,sans-Serif" font-size="11.00" fill="#000000">0 rows</text>
<polygon fill="#ffffff" stroke="transparent" points="335.5,-291.7 335.5,-310.7 358.5,-310.7 358.5,-291.7 335.5,-291.7"/>
<polygon fill="none" stroke="#000000" points="335.5,-291.7 335.5,-310.7 358.5,-310.7 358.5,-291.7 335.5,-291.7"/>
<text text-anchor="start" x="339.9053" y="-297.8" font-family="Helvetica,sans-Serif" font-size="11.00" fill="#000000">1 &gt;</text>
</a>
</g>
</g>
<!-- mor_dr&#45;&gt;dependency_rule -->
<g id="edge4" class="edge">
<title>mor_dr:w&#45;&gt;dependency_rule:e</title>
<path fill="none" stroke="#000000" d="M262.0968,-319.7C221.1321,-319.7 207.1719,-319.7 161.5,-319.7"/>
<polygon fill="#000000" stroke="#000000" points="271.7,-315.7 271.7,-323.7 270.1,-323.7 270.1,-315.7 271.7,-315.7"/>
<polyline fill="none" stroke="#000000" points="272.5,-319.7 268.5,-319.7 "/>
<ellipse fill="none" stroke="#000000" cx="265.3" cy="-319.7001" rx="3.2" ry="3.2"/>
</g>
<!-- point_dr -->
<g id="node6" class="node">
<title>point_dr</title>
<g id="a_node6"><a xlink:href="../../tables/point_dr.html" xlink:title="point_dr" target="_top">
<polygon fill="#ffffff" stroke="transparent" points="254.5,-120.7 254.5,-188.7 376.5,-188.7 376.5,-120.7 254.5,-120.7"/>
<polygon fill="#f5f5f5" stroke="transparent" points="256.5,-163.7 256.5,-186.7 374.5,-186.7 374.5,-163.7 256.5,-163.7"/>
<polygon fill="none" stroke="#000000" points="256.5,-163.7 256.5,-186.7 374.5,-186.7 374.5,-163.7 256.5,-163.7"/>
<text text-anchor="start" x="261.5" y="-172.3" font-family="Helvetica,sans-Serif" font-weight="bold" font-size="11.00" fill="#000000">point_dr</text>
<text text-anchor="start" x="339.5437" y="-171.8" font-family="Helvetica,sans-Serif" font-size="11.00" fill="#000000">[table]</text>
<polygon fill="none" stroke="#000000" points="256.5,-141.7 256.5,-163.7 332.5,-163.7 332.5,-141.7 256.5,-141.7"/>
<image xlink:href="../../images/primaryKeys.png" width="11px" height="12px" preserveAspectRatio="xMinYMin meet" x="261.5" y="-158.7"/>
<text text-anchor="start" x="276.5" y="-148.8" font-family="Helvetica,sans-Serif" font-size="11.00" fill="#000000">rule_id</text>
<polygon fill="none" stroke="#000000" points="332.5,-141.7 332.5,-163.7 374.5,-163.7 374.5,-141.7 332.5,-141.7"/>
<text text-anchor="start" x="335.4644" y="-149.4" font-family="Helvetica,sans-Serif" font-size="11.00" fill="#000000">int4[10]</text>
<polygon fill="#ffffff" stroke="transparent" points="256.5,-122.7 256.5,-141.7 285.5,-141.7 285.5,-122.7 256.5,-122.7"/>
<polygon fill="none" stroke="#000000" points="256.5,-122.7 256.5,-141.7 285.5,-141.7 285.5,-122.7 256.5,-122.7"/>
<text text-anchor="start" x="259.5" y="-128.8" font-family="Helvetica,sans-Serif" font-size="11.00" fill="#000000">&lt; 1</text>
<polygon fill="#ffffff" stroke="transparent" points="285.5,-122.7 285.5,-141.7 332.5,-141.7 332.5,-122.7 285.5,-122.7"/>
<polygon fill="none" stroke="#000000" points="285.5,-122.7 285.5,-141.7 332.5,-141.7 332.5,-122.7 285.5,-122.7"/>
<text text-anchor="start" x="297.1105" y="-128.8" font-family="Helvetica,sans-Serif" font-size="11.00" fill="#000000">0 rows</text>
<polygon fill="#ffffff" stroke="transparent" points="332.5,-122.7 332.5,-141.7 374.5,-141.7 374.5,-122.7 332.5,-122.7"/>
<polygon fill="none" stroke="#000000" points="332.5,-122.7 332.5,-141.7 374.5,-141.7 374.5,-122.7 332.5,-122.7"/>
<text text-anchor="start" x="355.9053" y="-128.8" font-family="Helvetica,sans-Serif" font-size="11.00" fill="#000000">1 &gt;</text>
<polygon fill="none" stroke="#000000" stroke-width="2" points="255.5,-121.7 255.5,-187.7 375.5,-187.7 375.5,-121.7 255.5,-121.7"/>
</a>
</g>
</g>
<!-- point_dr&#45;&gt;dependency_rule -->
<g id="edge5" class="edge">
<title>point_dr:w&#45;&gt;dependency_rule:e</title>
<path fill="none" stroke="#000000" d="M246.0105,-153.5747C223.1931,-157.7451 217.6948,-176.3769 202,-199.7 170.5743,-246.3998 217.7889,-319.7 161.5,-319.7"/>
<polygon fill="#000000" stroke="#000000" points="255.3703,-148.7803 256.0352,-156.7527 254.4407,-156.8856 253.7759,-148.9133 255.3703,-148.7803"/>
<polyline fill="none" stroke="#000000" points="256.5,-152.7 252.5138,-153.0324 "/>
<ellipse fill="none" stroke="#000000" cx="249.3249" cy="-153.2984" rx="3.2" ry="3.2"/>
</g>
<!-- point_point_dr -->
<g id="node7" class="node">
<title>point_point_dr</title>
<g id="a_node7"><a xlink:href="../../tables/point_point_dr.html" xlink:title="point_point_dr" target="_top">
<polygon fill="#ffffff" stroke="transparent" points="470,-153.7 470,-239.7 605,-239.7 605,-153.7 470,-153.7"/>
<polygon fill="#f5f5f5" stroke="transparent" points="470.5,-216.7 470.5,-239.7 605.5,-239.7 605.5,-216.7 470.5,-216.7"/>
<polygon fill="none" stroke="#000000" points="470.5,-216.7 470.5,-239.7 605.5,-239.7 605.5,-216.7 470.5,-216.7"/>
<text text-anchor="start" x="475.5" y="-225.3" font-family="Helvetica,sans-Serif" font-weight="bold" font-size="11.00" fill="#000000">point_point_dr</text>
<text text-anchor="start" x="571.0219" y="-224.8" font-family="Helvetica,sans-Serif" font-size="11.00" fill="#000000">[table]</text>
<polygon fill="none" stroke="#000000" points="470.5,-194.7 470.5,-216.7 605.5,-216.7 605.5,-194.7 470.5,-194.7"/>
<image xlink:href="../../images/primaryKeys.png" width="11px" height="12px" preserveAspectRatio="xMinYMin meet" x="475.5" y="-211.7"/>
<text text-anchor="start" x="499.5" y="-201.8" font-family="Helvetica,sans-Serif" font-size="11.00" fill="#000000">point_id</text>
<polygon fill="none" stroke="#000000" points="470.5,-172.7 470.5,-194.7 605.5,-194.7 605.5,-172.7 470.5,-172.7"/>
<image xlink:href="../../images/primaryKeys.png" width="11px" height="12px" preserveAspectRatio="xMinYMin meet" x="475.5" y="-189.7"/>
<text text-anchor="start" x="499.5" y="-179.8" font-family="Helvetica,sans-Serif" font-size="11.00" fill="#000000">rule_id</text>
<polygon fill="#ffffff" stroke="transparent" points="470.5,-153.7 470.5,-172.7 523.5,-172.7 523.5,-153.7 470.5,-153.7"/>
<polygon fill="none" stroke="#000000" points="470.5,-153.7 470.5,-172.7 523.5,-172.7 523.5,-153.7 470.5,-153.7"/>
<text text-anchor="start" x="473.5" y="-159.8" font-family="Helvetica,sans-Serif" font-size="11.00" fill="#000000">&lt; 2</text>
<polygon fill="#ffffff" stroke="transparent" points="523.5,-153.7 523.5,-172.7 577.5,-172.7 577.5,-153.7 523.5,-153.7"/>
<polygon fill="none" stroke="#000000" points="523.5,-153.7 523.5,-172.7 577.5,-172.7 577.5,-153.7 523.5,-153.7"/>
<text text-anchor="start" x="542.1105" y="-159.8" font-family="Helvetica,sans-Serif" font-size="11.00" fill="#000000">0 rows</text>
<polygon fill="#ffffff" stroke="transparent" points="577.5,-153.7 577.5,-172.7 605.5,-172.7 605.5,-153.7 577.5,-153.7"/>
<polygon fill="none" stroke="#000000" points="577.5,-153.7 577.5,-172.7 605.5,-172.7 605.5,-153.7 577.5,-153.7"/>
<text text-anchor="start" x="596.3862" y="-159.8" font-family="Helvetica,sans-Serif" font-size="11.00" fill="#000000"> &#160;</text>
</a>
</g>
</g>
<!-- point_point_dr&#45;&gt;point_dr -->
<g id="edge7" class="edge">
<title>point_point_dr:w&#45;&gt;point_dr:e</title>
<path fill="none" stroke="#000000" d="M455.7692,-182.4464C423.5667,-176.6468 413.9067,-152.7 374.5,-152.7"/>
<polygon fill="#000000" stroke="#000000" points="462.5288,-183.0216 470.1947,-187.287 466.5144,-183.3608 470.5,-183.7 470.5,-183.7 470.5,-183.7 466.5144,-183.3608 470.8053,-180.113 462.5288,-183.0216 462.5288,-183.0216"/>
<ellipse fill="none" stroke="#000000" cx="459.3403" cy="-182.7502" rx="3.2" ry="3.2"/>
</g>
<!-- point -->
<g id="node8" class="node">
<title>point</title>
<g id="a_node8"><a xlink:href="../../tables/point.html" xlink:title="point" target="_top">
<polygon fill="#ffffff" stroke="transparent" points="254,-210.2 254,-271.2 377,-271.2 377,-210.2 254,-210.2"/>
<polygon fill="#f5f5f5" stroke="transparent" points="254.5,-247.7 254.5,-270.7 377.5,-270.7 377.5,-247.7 254.5,-247.7"/>
<polygon fill="none" stroke="#000000" points="254.5,-247.7 254.5,-270.7 377.5,-270.7 377.5,-247.7 254.5,-247.7"/>
<text text-anchor="start" x="259.5" y="-256.3" font-family="Helvetica,sans-Serif" font-weight="bold" font-size="11.00" fill="#000000">point</text>
<text text-anchor="start" x="342.5437" y="-255.8" font-family="Helvetica,sans-Serif" font-size="11.00" fill="#000000">[table]</text>
<polygon fill="none" stroke="#000000" points="254.5,-228.7 254.5,-247.7 377.5,-247.7 377.5,-228.7 254.5,-228.7"/>
<text text-anchor="start" x="257.5" y="-234.8" font-family="Helvetica,sans-Serif" font-size="11.00" fill="#000000">...</text>
<polygon fill="#ffffff" stroke="transparent" points="254.5,-209.7 254.5,-228.7 275.5,-228.7 275.5,-209.7 254.5,-209.7"/>
<polygon fill="none" stroke="#000000" points="254.5,-209.7 254.5,-228.7 275.5,-228.7 275.5,-209.7 254.5,-209.7"/>
<text text-anchor="start" x="257.2027" y="-215.8" font-family="Helvetica,sans-Serif" font-size="11.00" fill="#000000">&lt; 1</text>
<polygon fill="#ffffff" stroke="transparent" points="275.5,-209.7 275.5,-228.7 356.5,-228.7 356.5,-209.7 275.5,-209.7"/>
<polygon fill="none" stroke="#000000" points="275.5,-209.7 275.5,-228.7 356.5,-228.7 356.5,-209.7 275.5,-209.7"/>
<text text-anchor="start" x="278.4037" y="-215.8" font-family="Helvetica,sans-Serif" font-size="11.00" fill="#000000">1.039.258 rows</text>
<polygon fill="#ffffff" stroke="transparent" points="356.5,-209.7 356.5,-228.7 377.5,-228.7 377.5,-209.7 356.5,-209.7"/>
<polygon fill="none" stroke="#000000" points="356.5,-209.7 356.5,-228.7 377.5,-228.7 377.5,-209.7 356.5,-209.7"/>
<text text-anchor="start" x="359.2027" y="-215.8" font-family="Helvetica,sans-Serif" font-size="11.00" fill="#000000">4 &gt;</text>
</a>
</g>
</g>
<!-- point_point_dr&#45;&gt;point -->
<g id="edge6" class="edge">
<title>point_point_dr:w&#45;&gt;point:e</title>
<path fill="none" stroke="#000000" d="M455.7467,-207.075C424.7983,-213.2 415.7478,-237.7 377.5,-237.7"/>
<polygon fill="#000000" stroke="#000000" points="462.5345,-206.4424 470.8341,-209.2845 466.5173,-206.0712 470.5,-205.7 470.5,-205.7 470.5,-205.7 466.5173,-206.0712 470.1659,-202.1155 462.5345,-206.4424 462.5345,-206.4424"/>
<ellipse fill="none" stroke="#000000" cx="459.3483" cy="-206.7394" rx="3.2" ry="3.2"/>
</g>
<!-- predicate -->
<g id="node9" class="node">
<title>predicate</title>
<g id="a_node9"><a xlink:href="../../tables/predicate.html" xlink:title="predicate" target="_top">
<polygon fill="#ffffff" stroke="transparent" points="264,-38.2 264,-99.2 367,-99.2 367,-38.2 264,-38.2"/>
<polygon fill="#f5f5f5" stroke="transparent" points="264.5,-75.7 264.5,-98.7 367.5,-98.7 367.5,-75.7 264.5,-75.7"/>
<polygon fill="none" stroke="#000000" points="264.5,-75.7 264.5,-98.7 367.5,-98.7 367.5,-75.7 264.5,-75.7"/>
<text text-anchor="start" x="269.5" y="-84.3" font-family="Helvetica,sans-Serif" font-weight="bold" font-size="11.00" fill="#000000">predicate</text>
<text text-anchor="start" x="333.0219" y="-83.8" font-family="Helvetica,sans-Serif" font-size="11.00" fill="#000000">[table]</text>
<polygon fill="none" stroke="#000000" points="264.5,-56.7 264.5,-75.7 367.5,-75.7 367.5,-56.7 264.5,-56.7"/>
<text text-anchor="start" x="267.5" y="-62.8" font-family="Helvetica,sans-Serif" font-size="11.00" fill="#000000">...</text>
<polygon fill="#ffffff" stroke="transparent" points="264.5,-37.7 264.5,-56.7 296.5,-56.7 296.5,-37.7 264.5,-37.7"/>
<polygon fill="none" stroke="#000000" points="264.5,-37.7 264.5,-56.7 296.5,-56.7 296.5,-37.7 264.5,-37.7"/>
<text text-anchor="start" x="267.5" y="-43.8" font-family="Helvetica,sans-Serif" font-size="11.00" fill="#000000">&lt; 2</text>
<polygon fill="#ffffff" stroke="transparent" points="296.5,-37.7 296.5,-56.7 340.5,-56.7 340.5,-37.7 296.5,-37.7"/>
<polygon fill="none" stroke="#000000" points="296.5,-37.7 296.5,-56.7 340.5,-56.7 340.5,-37.7 296.5,-37.7"/>
<text text-anchor="start" x="305.1105" y="-43.8" font-family="Helvetica,sans-Serif" font-size="11.00" fill="#000000">0 rows</text>
<polygon fill="#ffffff" stroke="transparent" points="340.5,-37.7 340.5,-56.7 367.5,-56.7 367.5,-37.7 340.5,-37.7"/>
<polygon fill="none" stroke="#000000" points="340.5,-37.7 340.5,-56.7 367.5,-56.7 367.5,-37.7 340.5,-37.7"/>
<text text-anchor="start" x="348.9053" y="-43.8" font-family="Helvetica,sans-Serif" font-size="11.00" fill="#000000">2 &gt;</text>
</a>
</g>
</g>
<!-- predicate&#45;&gt;dependency_rule -->
<g id="edge8" class="edge">
<title>predicate:w&#45;&gt;dependency_rule:e</title>
<path fill="none" stroke="#000000" d="M249.8836,-64.4349C227.0845,-64.9909 217.4907,-79.7414 202,-103.7 176.1951,-143.611 209.0266,-313.7 161.5,-319.7"/>
<polygon fill="#000000" stroke="#000000" points="256.5298,-65.0101 264.1896,-69.2866 260.5149,-65.3551 264.5,-65.7 264.5,-65.7 264.5,-65.7 260.5149,-65.3551 264.8104,-62.1134 256.5298,-65.0101 256.5298,-65.0101"/>
<ellipse fill="none" stroke="#000000" cx="253.3417" cy="-64.7342" rx="3.2" ry="3.2"/>
</g>
<!-- predicate&#45;&gt;dependency_rule -->
<g id="edge9" class="edge">
<title>predicate:w&#45;&gt;dependency_rule:e</title>
<path fill="none" stroke="#000000" d="M250.5233,-69.5053C227.2625,-77.7173 217.6348,-92.5185 202,-116.7 176.1951,-156.611 209.0266,-326.7 161.5,-319.7"/>
<polygon fill="#000000" stroke="#000000" points="256.781,-67.8016 265.4457,-69.1736 260.6405,-66.7508 264.5,-65.7 264.5,-65.7 264.5,-65.7 260.6405,-66.7508 263.5543,-62.2264 256.781,-67.8016 256.781,-67.8016"/>
<ellipse fill="none" stroke="#000000" cx="253.6934" cy="-68.6423" rx="3.2" ry="3.2"/>
</g>
</g>
</svg>
