<?xml version="1.0" encoding="UTF-8" standalone="no"?>
<!DOCTYPE svg PUBLIC "-//W3C//DTD SVG 1.1//EN"
 "http://www.w3.org/Graphics/SVG/1.1/DTD/svg11.dtd">
<!-- Generated by graphviz version 2.40.1 (20161225.0304)
 -->
<!-- Title: twoDegreesRelationshipsDiagram Pages: 1 -->
<svg width="760pt" height="333pt"
 viewBox="0.00 0.00 760.00 332.70" xmlns="http://www.w3.org/2000/svg" xmlns:xlink="http://www.w3.org/1999/xlink">
<g id="graph0" class="graph" transform="scale(1 1) rotate(0) translate(4 328.7)">
<title>twoDegreesRelationshipsDiagram</title>
<polygon fill="#ffffff" stroke="transparent" points="-4,4 -4,-328.7 756,-328.7 756,4 -4,4"/>
<text text-anchor="middle" x="72.4936" y="-7.3" font-family="Helvetica,sans-Serif" font-size="11.00" fill="#000000">Generated by SchemaSpy</text>
<!-- point -->
<g id="node1" class="node">
<title>point</title>
<g id="a_node1"><a xlink:href="../../tables/point.html" xlink:title="point" target="_top">
<polygon fill="#ffffff" stroke="transparent" points="210,-144.7 210,-249.7 333,-249.7 333,-144.7 210,-144.7"/>
<polygon fill="#f5f5f5" stroke="transparent" points="210.5,-226.2 210.5,-249.2 333.5,-249.2 333.5,-226.2 210.5,-226.2"/>
<polygon fill="none" stroke="#000000" points="210.5,-226.2 210.5,-249.2 333.5,-249.2 333.5,-226.2 210.5,-226.2"/>
<text text-anchor="start" x="215.5" y="-234.8" font-family="Helvetica,sans-Serif" font-weight="bold" font-size="11.00" fill="#000000">point</text>
<text text-anchor="start" x="298.5437" y="-234.3" font-family="Helvetica,sans-Serif" font-size="11.00" fill="#000000">[table]</text>
<polygon fill="none" stroke="#000000" points="210.5,-204.2 210.5,-226.2 333.5,-226.2 333.5,-204.2 210.5,-204.2"/>
<image xlink:href="../../images/primaryKeys.png" width="11px" height="12px" preserveAspectRatio="xMinYMin meet" x="215.5" y="-221.2"/>
<text text-anchor="start" x="255.5" y="-211.3" font-family="Helvetica,sans-Serif" font-size="11.00" fill="#000000">point_id</text>
<polygon fill="#ffffff" stroke="transparent" points="210.5,-182.2 210.5,-204.2 333.5,-204.2 333.5,-182.2 210.5,-182.2"/>
<polygon fill="none" stroke="#000000" points="210.5,-182.2 210.5,-204.2 333.5,-204.2 333.5,-182.2 210.5,-182.2"/>
<image xlink:href="../../images/foreignKeys.png" width="11px" height="12px" preserveAspectRatio="xMinYMin meet" x="215.5" y="-199.2"/>
<text text-anchor="start" x="255.5" y="-189.3" font-family="Helvetica,sans-Serif" font-size="11.00" fill="#000000">mat_id</text>
<polygon fill="none" stroke="#000000" points="210.5,-163.2 210.5,-182.2 333.5,-182.2 333.5,-163.2 210.5,-163.2"/>
<text text-anchor="start" x="213.5" y="-169.3" font-family="Helvetica,sans-Serif" font-size="11.00" fill="#000000">...</text>
<polygon fill="#ffffff" stroke="transparent" points="210.5,-144.2 210.5,-163.2 231.5,-163.2 231.5,-144.2 210.5,-144.2"/>
<polygon fill="none" stroke="#000000" points="210.5,-144.2 210.5,-163.2 231.5,-163.2 231.5,-144.2 210.5,-144.2"/>
<text text-anchor="start" x="213.2027" y="-150.3" font-family="Helvetica,sans-Serif" font-size="11.00" fill="#000000">&lt; 1</text>
<polygon fill="#ffffff" stroke="transparent" points="231.5,-144.2 231.5,-163.2 312.5,-163.2 312.5,-144.2 231.5,-144.2"/>
<polygon fill="none" stroke="#000000" points="231.5,-144.2 231.5,-163.2 312.5,-163.2 312.5,-144.2 231.5,-144.2"/>
<text text-anchor="start" x="234.4037" y="-150.3" font-family="Helvetica,sans-Serif" font-size="11.00" fill="#000000">1.039.258 rows</text>
<polygon fill="#ffffff" stroke="transparent" points="312.5,-144.2 312.5,-163.2 333.5,-163.2 333.5,-144.2 312.5,-144.2"/>
<polygon fill="none" stroke="#000000" points="312.5,-144.2 312.5,-163.2 333.5,-163.2 333.5,-144.2 312.5,-144.2"/>
<text text-anchor="start" x="315.2027" y="-150.3" font-family="Helvetica,sans-Serif" font-size="11.00" fill="#000000">4 &gt;</text>
</a>
</g>
</g>
<!-- mat -->
<g id="node2" class="node">
<title>mat</title>
<g id="a_node2"><a xlink:href="../../tables/mat.html" xlink:title="mat" target="_top">
<polygon fill="#ffffff" stroke="transparent" points="27.5,-165.7 27.5,-226.7 141.5,-226.7 141.5,-165.7 27.5,-165.7"/>
<polygon fill="#f5f5f5" stroke="transparent" points="27.5,-203.2 27.5,-226.2 141.5,-226.2 141.5,-203.2 27.5,-203.2"/>
<polygon fill="none" stroke="#000000" points="27.5,-203.2 27.5,-226.2 141.5,-226.2 141.5,-203.2 27.5,-203.2"/>
<text text-anchor="start" x="32.5" y="-211.8" font-family="Helvetica,sans-Serif" font-weight="bold" font-size="11.00" fill="#000000">mat</text>
<text text-anchor="start" x="106.5437" y="-211.3" font-family="Helvetica,sans-Serif" font-size="11.00" fill="#000000">[table]</text>
<polygon fill="none" stroke="#000000" points="27.5,-184.2 27.5,-203.2 141.5,-203.2 141.5,-184.2 27.5,-184.2"/>
<text text-anchor="start" x="30.5" y="-190.3" font-family="Helvetica,sans-Serif" font-size="11.00" fill="#000000">...</text>
<polygon fill="#ffffff" stroke="transparent" points="27.5,-165.2 27.5,-184.2 48.5,-184.2 48.5,-165.2 27.5,-165.2"/>
<polygon fill="none" stroke="#000000" points="27.5,-165.2 27.5,-184.2 48.5,-184.2 48.5,-165.2 27.5,-165.2"/>
<text text-anchor="start" x="30.2027" y="-171.3" font-family="Helvetica,sans-Serif" font-size="11.00" fill="#000000">&lt; 1</text>
<polygon fill="#ffffff" stroke="transparent" points="48.5,-165.2 48.5,-184.2 120.5,-184.2 120.5,-165.2 48.5,-165.2"/>
<polygon fill="none" stroke="#000000" points="48.5,-165.2 48.5,-184.2 120.5,-184.2 120.5,-165.2 48.5,-165.2"/>
<text text-anchor="start" x="51.4896" y="-171.3" font-family="Helvetica,sans-Serif" font-size="11.00" fill="#000000">292.481 rows</text>
<polygon fill="#ffffff" stroke="transparent" points="120.5,-165.2 120.5,-184.2 141.5,-184.2 141.5,-165.2 120.5,-165.2"/>
<polygon fill="none" stroke="#000000" points="120.5,-165.2 120.5,-184.2 141.5,-184.2 141.5,-165.2 120.5,-165.2"/>
<text text-anchor="start" x="123.2027" y="-171.3" font-family="Helvetica,sans-Serif" font-size="11.00" fill="#000000">3 &gt;</text>
</a>
</g>
</g>
<!-- point&#45;&gt;mat -->
<g id="edge1" class="edge">
<title>point:w&#45;&gt;mat:e</title>
<path fill="none" stroke="#000000" d="M195.9297,-193.2C176.3355,-193.2 166.6563,-193.2 141.5,-193.2"/>
<polygon fill="#000000" stroke="#000000" points="202.5,-193.2001 210.5,-196.8 206.5,-193.2 210.5,-193.2 210.5,-193.2 210.5,-193.2 206.5,-193.2 210.5,-189.6 202.5,-193.2001 202.5,-193.2001"/>
<ellipse fill="none" stroke="#000000" cx="199.3" cy="-193.2001" rx="3.2" ry="3.2"/>
</g>
<!-- point_aspect -->
<g id="node3" class="node">
<title>point_aspect</title>
<g id="a_node3"><a xlink:href="../../tables/point_aspect.html" xlink:title="point_aspect" target="_top">
<polygon fill="#ffffff" stroke="transparent" points="401,-259.7 401,-320.7 526,-320.7 526,-259.7 401,-259.7"/>
<polygon fill="#f5f5f5" stroke="transparent" points="401.5,-297.2 401.5,-320.2 526.5,-320.2 526.5,-297.2 401.5,-297.2"/>
<polygon fill="none" stroke="#000000" points="401.5,-297.2 401.5,-320.2 526.5,-320.2 526.5,-297.2 401.5,-297.2"/>
<text text-anchor="start" x="406.5" y="-305.8" font-family="Helvetica,sans-Serif" font-weight="bold" font-size="11.00" fill="#000000">point_aspect</text>
<text text-anchor="start" x="492.0219" y="-305.3" font-family="Helvetica,sans-Serif" font-size="11.00" fill="#000000">[table]</text>
<polygon fill="none" stroke="#000000" points="401.5,-278.2 401.5,-297.2 526.5,-297.2 526.5,-278.2 401.5,-278.2"/>
<text text-anchor="start" x="404.5" y="-284.3" font-family="Helvetica,sans-Serif" font-size="11.00" fill="#000000">...</text>
<polygon fill="#ffffff" stroke="transparent" points="401.5,-259.2 401.5,-278.2 427.5,-278.2 427.5,-259.2 401.5,-259.2"/>
<polygon fill="none" stroke="#000000" points="401.5,-259.2 401.5,-278.2 427.5,-278.2 427.5,-259.2 401.5,-259.2"/>
<text text-anchor="start" x="404.5" y="-265.3" font-family="Helvetica,sans-Serif" font-size="11.00" fill="#000000">&lt; 2</text>
<polygon fill="#ffffff" stroke="transparent" points="427.5,-259.2 427.5,-278.2 511.5,-278.2 511.5,-259.2 427.5,-259.2"/>
<polygon fill="none" stroke="#000000" points="427.5,-259.2 427.5,-278.2 511.5,-278.2 511.5,-259.2 427.5,-259.2"/>
<text text-anchor="start" x="433.3073" y="-265.3" font-family="Helvetica,sans-Serif" font-size="11.00" fill="#000000">1.039.258 rows</text>
<polygon fill="#ffffff" stroke="transparent" points="511.5,-259.2 511.5,-278.2 526.5,-278.2 526.5,-259.2 511.5,-259.2"/>
<polygon fill="none" stroke="#000000" points="511.5,-259.2 511.5,-278.2 526.5,-278.2 526.5,-259.2 511.5,-259.2"/>
<text text-anchor="start" x="517.3862" y="-265.3" font-family="Helvetica,sans-Serif" font-size="11.00" fill="#000000"> &#160;</text>
</a>
</g>
</g>
<!-- point_aspect&#45;&gt;point -->
<g id="edge2" class="edge">
<title>point_aspect:w&#45;&gt;point:e</title>
<path fill="none" stroke="#000000" d="M387.3967,-283.9192C361.5844,-269.8339 371.8418,-215.2 333.5,-215.2"/>
<polygon fill="#000000" stroke="#000000" points="393.708,-285.3874 400.6843,-290.7064 397.604,-286.2937 401.5,-287.2 401.5,-287.2 401.5,-287.2 397.604,-286.2937 402.3157,-283.6936 393.708,-285.3874 393.708,-285.3874"/>
<ellipse fill="none" stroke="#000000" cx="390.5913" cy="-284.6623" rx="3.2" ry="3.2"/>
</g>
<!-- point_dr -->
<g id="node4" class="node">
<title>point_dr</title>
<g id="a_node4"><a xlink:href="../../tables/point_dr.html" xlink:title="point_dr" target="_top">
<polygon fill="#ffffff" stroke="transparent" points="224.5,-40.2 224.5,-104.2 318.5,-104.2 318.5,-40.2 224.5,-40.2"/>
<polygon fill="#f5f5f5" stroke="transparent" points="224.5,-81.2 224.5,-104.2 318.5,-104.2 318.5,-81.2 224.5,-81.2"/>
<polygon fill="none" stroke="#000000" points="224.5,-81.2 224.5,-104.2 318.5,-104.2 318.5,-81.2 224.5,-81.2"/>
<text text-anchor="start" x="229.5" y="-89.8" font-family="Helvetica,sans-Serif" font-weight="bold" font-size="11.00" fill="#000000">point_dr</text>
<text text-anchor="start" x="284.0219" y="-89.3" font-family="Helvetica,sans-Serif" font-size="11.00" fill="#000000">[table]</text>
<polygon fill="none" stroke="#000000" points="224.5,-59.2 224.5,-81.2 318.5,-81.2 318.5,-59.2 224.5,-59.2"/>
<image xlink:href="../../images/primaryKeys.png" width="11px" height="12px" preserveAspectRatio="xMinYMin meet" x="229.5" y="-76.2"/>
<text text-anchor="start" x="253.5" y="-66.3" font-family="Helvetica,sans-Serif" font-size="11.00" fill="#000000">rule_id</text>
<polygon fill="#ffffff" stroke="transparent" points="224.5,-40.2 224.5,-59.2 252.5,-59.2 252.5,-40.2 224.5,-40.2"/>
<polygon fill="none" stroke="#000000" points="224.5,-40.2 224.5,-59.2 252.5,-59.2 252.5,-40.2 224.5,-40.2"/>
<text text-anchor="start" x="227.5" y="-46.3" font-family="Helvetica,sans-Serif" font-size="11.00" fill="#000000">&lt; 1</text>
<polygon fill="#ffffff" stroke="transparent" points="252.5,-40.2 252.5,-59.2 293.5,-59.2 293.5,-40.2 252.5,-40.2"/>
<polygon fill="none" stroke="#000000" points="252.5,-40.2 252.5,-59.2 293.5,-59.2 293.5,-40.2 252.5,-40.2"/>
<text text-anchor="start" x="258.1105" y="-46.3" font-family="Helvetica,sans-Serif" font-size="11.00" fill="#000000">0 rows</text>
<polygon fill="#ffffff" stroke="transparent" points="293.5,-40.2 293.5,-59.2 318.5,-59.2 318.5,-40.2 293.5,-40.2"/>
<polygon fill="none" stroke="#000000" points="293.5,-40.2 293.5,-59.2 318.5,-59.2 318.5,-40.2 293.5,-40.2"/>
<text text-anchor="start" x="299.9053" y="-46.3" font-family="Helvetica,sans-Serif" font-size="11.00" fill="#000000">1 &gt;</text>
</a>
</g>
</g>
<!-- dependency_rule -->
<g id="node5" class="node">
<title>dependency_rule</title>
<g id="a_node5"><a xlink:href="../../tables/dependency_rule.html" xlink:title="dependency_rule" target="_top">
<polygon fill="#ffffff" stroke="transparent" points="8,-42.7 8,-103.7 161,-103.7 161,-42.7 8,-42.7"/>
<polygon fill="#f5f5f5" stroke="transparent" points="8.5,-80.2 8.5,-103.2 161.5,-103.2 161.5,-80.2 8.5,-80.2"/>
<polygon fill="none" stroke="#000000" points="8.5,-80.2 8.5,-103.2 161.5,-103.2 161.5,-80.2 8.5,-80.2"/>
<text text-anchor="start" x="13.5" y="-88.8" font-family="Helvetica,sans-Serif" font-weight="bold" font-size="11.00" fill="#000000">dependency_rule</text>
<text text-anchor="start" x="127.0219" y="-88.3" font-family="Helvetica,sans-Serif" font-size="11.00" fill="#000000">[table]</text>
<polygon fill="none" stroke="#000000" points="8.5,-61.2 8.5,-80.2 161.5,-80.2 161.5,-61.2 8.5,-61.2"/>
<text text-anchor="start" x="11.5" y="-67.3" font-family="Helvetica,sans-Serif" font-size="11.00" fill="#000000">...</text>
<polygon fill="#ffffff" stroke="transparent" points="8.5,-42.2 8.5,-61.2 61.5,-61.2 61.5,-42.2 8.5,-42.2"/>
<polygon fill="none" stroke="#000000" points="8.5,-42.2 8.5,-61.2 61.5,-61.2 61.5,-42.2 8.5,-42.2"/>
<text text-anchor="start" x="11.5" y="-48.3" font-family="Helvetica,sans-Serif" font-size="11.00" fill="#000000"> &#160;</text>
<polygon fill="#ffffff" stroke="transparent" points="61.5,-42.2 61.5,-61.2 119.5,-61.2 119.5,-42.2 61.5,-42.2"/>
<polygon fill="none" stroke="#000000" points="61.5,-42.2 61.5,-61.2 119.5,-61.2 119.5,-42.2 61.5,-42.2"/>
<text text-anchor="start" x="84.1105" y="-48.3" font-family="Helvetica,sans-Serif" font-size="11.00" fill="#000000">0 rows</text>
<polygon fill="#ffffff" stroke="transparent" points="119.5,-42.2 119.5,-61.2 161.5,-61.2 161.5,-42.2 119.5,-42.2"/>
<polygon fill="none" stroke="#000000" points="119.5,-42.2 119.5,-61.2 161.5,-61.2 161.5,-42.2 119.5,-42.2"/>
<text text-anchor="start" x="142.9053" y="-48.3" font-family="Helvetica,sans-Serif" font-size="11.00" fill="#000000">7 &gt;</text>
</a>
</g>
</g>
<!-- point_dr&#45;&gt;dependency_rule -->
<g id="edge3" class="edge">
<title>point_dr:w&#45;&gt;dependency_rule:e</title>
<path fill="none" stroke="#000000" d="M214.0859,-70.2C194.1934,-70.2 185.6719,-70.2 161.5,-70.2"/>
<polygon fill="#000000" stroke="#000000" points="223.7,-66.2 223.7,-74.2 222.1,-74.2 222.1,-66.2 223.7,-66.2"/>
<polyline fill="none" stroke="#000000" points="224.5,-70.2 220.5,-70.2 "/>
<ellipse fill="none" stroke="#000000" cx="217.3" cy="-70.2001" rx="3.2" ry="3.2"/>
</g>
<!-- point_point_dr -->
<g id="node6" class="node">
<title>point_point_dr</title>
<g id="a_node6"><a xlink:href="../../tables/point_point_dr.html" xlink:title="point_point_dr" target="_top">
<polygon fill="#ffffff" stroke="transparent" points="382,-38.2 382,-128.2 545,-128.2 545,-38.2 382,-38.2"/>
<polygon fill="#f5f5f5" stroke="transparent" points="384.5,-103.2 384.5,-126.2 543.5,-126.2 543.5,-103.2 384.5,-103.2"/>
<polygon fill="none" stroke="#000000" points="384.5,-103.2 384.5,-126.2 543.5,-126.2 543.5,-103.2 384.5,-103.2"/>
<text text-anchor="start" x="389.5" y="-111.8" font-family="Helvetica,sans-Serif" font-weight="bold" font-size="11.00" fill="#000000">point_point_dr</text>
<text text-anchor="start" x="508.5437" y="-111.3" font-family="Helvetica,sans-Serif" font-size="11.00" fill="#000000">[table]</text>
<polygon fill="none" stroke="#000000" points="384.5,-81.2 384.5,-103.2 501.5,-103.2 501.5,-81.2 384.5,-81.2"/>
<image xlink:href="../../images/primaryKeys.png" width="11px" height="12px" preserveAspectRatio="xMinYMin meet" x="389.5" y="-98.2"/>
<text text-anchor="start" x="404.5" y="-88.3" font-family="Helvetica,sans-Serif" font-size="11.00" fill="#000000">point_id</text>
<polygon fill="none" stroke="#000000" points="501.5,-81.2 501.5,-103.2 543.5,-103.2 543.5,-81.2 501.5,-81.2"/>
<text text-anchor="start" x="504.4644" y="-88.9" font-family="Helvetica,sans-Serif" font-size="11.00" fill="#000000">int4[10]</text>
<polygon fill="none" stroke="#000000" points="384.5,-59.2 384.5,-81.2 501.5,-81.2 501.5,-59.2 384.5,-59.2"/>
<image xlink:href="../../images/primaryKeys.png" width="11px" height="12px" preserveAspectRatio="xMinYMin meet" x="389.5" y="-76.2"/>
<text text-anchor="start" x="404.5" y="-66.3" font-family="Helvetica,sans-Serif" font-size="11.00" fill="#000000">rule_id</text>
<polygon fill="none" stroke="#000000" points="501.5,-59.2 501.5,-81.2 543.5,-81.2 543.5,-59.2 501.5,-59.2"/>
<text text-anchor="start" x="504.4644" y="-66.9" font-family="Helvetica,sans-Serif" font-size="11.00" fill="#000000">int4[10]</text>
<polygon fill="#ffffff" stroke="transparent" points="384.5,-40.2 384.5,-59.2 434.5,-59.2 434.5,-40.2 384.5,-40.2"/>
<polygon fill="none" stroke="#000000" points="384.5,-40.2 384.5,-59.2 434.5,-59.2 434.5,-40.2 384.5,-40.2"/>
<text text-anchor="start" x="387.5" y="-46.3" font-family="Helvetica,sans-Serif" font-size="11.00" fill="#000000">&lt; 2</text>
<polygon fill="#ffffff" stroke="transparent" points="434.5,-40.2 434.5,-59.2 501.5,-59.2 501.5,-40.2 434.5,-40.2"/>
<polygon fill="none" stroke="#000000" points="434.5,-40.2 434.5,-59.2 501.5,-59.2 501.5,-40.2 434.5,-40.2"/>
<text text-anchor="start" x="466.1105" y="-46.3" font-family="Helvetica,sans-Serif" font-size="11.00" fill="#000000">0 rows</text>
<polygon fill="#ffffff" stroke="transparent" points="501.5,-40.2 501.5,-59.2 543.5,-59.2 543.5,-40.2 501.5,-40.2"/>
<polygon fill="none" stroke="#000000" points="501.5,-40.2 501.5,-59.2 543.5,-59.2 543.5,-40.2 501.5,-40.2"/>
<text text-anchor="start" x="524.9053" y="-46.3" font-family="Helvetica,sans-Serif" font-size="11.00" fill="#000000">0 &gt;</text>
<polygon fill="none" stroke="#000000" stroke-width="2" points="383,-39.2 383,-127.2 544,-127.2 544,-39.2 383,-39.2"/>
</a>
</g>
</g>
<!-- point_point_dr&#45;&gt;point -->
<g id="edge4" class="edge">
<title>point_point_dr:w&#45;&gt;point:e</title>
<path fill="none" stroke="#000000" d="M370.1193,-95.7485C337.6975,-115.9156 386.6692,-215.2 333.5,-215.2"/>
<polygon fill="#000000" stroke="#000000" points="376.733,-94.1166 385.3625,-95.6952 380.6165,-93.1583 384.5,-92.2 384.5,-92.2 384.5,-92.2 380.6165,-93.1583 383.6375,-88.7048 376.733,-94.1166 376.733,-94.1166"/>
<ellipse fill="none" stroke="#000000" cx="373.6261" cy="-94.8832" rx="3.2" ry="3.2"/>
</g>
<!-- point_point_dr&#45;&gt;point_dr -->
<g id="edge5" class="edge">
<title>point_point_dr:w&#45;&gt;point_dr:e</title>
<path fill="none" stroke="#000000" d="M370.0303,-70.2C351.6432,-70.2 342.3333,-70.2 318.5,-70.2"/>
<polygon fill="#000000" stroke="#000000" points="376.5,-70.2001 384.5,-73.8 380.5,-70.2 384.5,-70.2 384.5,-70.2 384.5,-70.2 380.5,-70.2 384.5,-66.6 376.5,-70.2001 376.5,-70.2001"/>
<ellipse fill="none" stroke="#000000" cx="373.3" cy="-70.2001" rx="3.2" ry="3.2"/>
</g>
<!-- point_repr_point -->
<g id="node7" class="node">
<title>point_repr_point</title>
<g id="a_node7"><a xlink:href="../../tables/point_repr_point.html" xlink:title="point_repr_point" target="_top">
<polygon fill="#ffffff" stroke="transparent" points="594,-178.7 594,-239.7 744,-239.7 744,-178.7 594,-178.7"/>
<polygon fill="#f5f5f5" stroke="transparent" points="594,-216.2 594,-239.2 744,-239.2 744,-216.2 594,-216.2"/>
<polygon fill="none" stroke="#000000" points="594,-216.2 594,-239.2 744,-239.2 744,-216.2 594,-216.2"/>
<text text-anchor="start" x="599" y="-224.8" font-family="Helvetica,sans-Serif" font-weight="bold" font-size="11.00" fill="#000000">point_repr_point</text>
<text text-anchor="start" x="709.5219" y="-224.3" font-family="Helvetica,sans-Serif" font-size="11.00" fill="#000000">[table]</text>
<polygon fill="none" stroke="#000000" points="594,-197.2 594,-216.2 744,-216.2 744,-197.2 594,-197.2"/>
<text text-anchor="start" x="597" y="-203.3" font-family="Helvetica,sans-Serif" font-size="11.00" fill="#000000">...</text>
<polygon fill="#ffffff" stroke="transparent" points="594,-178.2 594,-197.2 654,-197.2 654,-178.2 594,-178.2"/>
<polygon fill="none" stroke="#000000" points="594,-178.2 594,-197.2 654,-197.2 654,-178.2 594,-178.2"/>
<text text-anchor="start" x="597" y="-184.3" font-family="Helvetica,sans-Serif" font-size="11.00" fill="#000000">&lt; 2</text>
<polygon fill="#ffffff" stroke="transparent" points="654,-178.2 654,-197.2 712,-197.2 712,-178.2 654,-178.2"/>
<polygon fill="none" stroke="#000000" points="654,-178.2 654,-197.2 712,-197.2 712,-178.2 654,-178.2"/>
<text text-anchor="start" x="676.6105" y="-184.3" font-family="Helvetica,sans-Serif" font-size="11.00" fill="#000000">0 rows</text>
<polygon fill="#ffffff" stroke="transparent" points="712,-178.2 712,-197.2 744,-197.2 744,-178.2 712,-178.2"/>
<polygon fill="none" stroke="#000000" points="712,-178.2 712,-197.2 744,-197.2 744,-178.2 712,-178.2"/>
<text text-anchor="start" x="734.8862" y="-184.3" font-family="Helvetica,sans-Serif" font-size="11.00" fill="#000000"> &#160;</text>
</a>
</g>
</g>
<!-- point_repr_point&#45;&gt;point -->
<g id="edge6" class="edge">
<title>point_repr_point:w&#45;&gt;point:e</title>
<path fill="none" stroke="#000000" d="M579.741,-208.9972C571.4173,-212.6556 566.1353,-218.8726 553,-221.2 474.6646,-235.0798 453.3405,-227.0452 374,-221.2 355.8527,-219.8631 351.6965,-215.2 333.5,-215.2"/>
<polygon fill="#000000" stroke="#000000" points="586.1496,-207.74 594.693,-209.7327 590.0748,-206.97 594,-206.2 594,-206.2 594,-206.2 590.0748,-206.97 593.307,-202.6673 586.1496,-207.74 586.1496,-207.74"/>
<ellipse fill="none" stroke="#000000" cx="583.0095" cy="-208.3561" rx="3.2" ry="3.2"/>
</g>
<!-- repr_point -->
<g id="node8" class="node">
<title>repr_point</title>
<g id="a_node8"><a xlink:href="../../tables/repr_point.html" xlink:title="repr_point" target="_top">
<polygon fill="#ffffff" stroke="transparent" points="409.5,-149.7 409.5,-210.7 517.5,-210.7 517.5,-149.7 409.5,-149.7"/>
<polygon fill="#f5f5f5" stroke="transparent" points="409.5,-187.2 409.5,-210.2 517.5,-210.2 517.5,-187.2 409.5,-187.2"/>
<polygon fill="none" stroke="#000000" points="409.5,-187.2 409.5,-210.2 517.5,-210.2 517.5,-187.2 409.5,-187.2"/>
<text text-anchor="start" x="414.5" y="-195.8" font-family="Helvetica,sans-Serif" font-weight="bold" font-size="11.00" fill="#000000">repr_point</text>
<text text-anchor="start" x="483.0219" y="-195.3" font-family="Helvetica,sans-Serif" font-size="11.00" fill="#000000">[table]</text>
<polygon fill="none" stroke="#000000" points="409.5,-168.2 409.5,-187.2 517.5,-187.2 517.5,-168.2 409.5,-168.2"/>
<text text-anchor="start" x="412.5" y="-174.3" font-family="Helvetica,sans-Serif" font-size="11.00" fill="#000000">...</text>
<polygon fill="#ffffff" stroke="transparent" points="409.5,-149.2 409.5,-168.2 444.5,-168.2 444.5,-149.2 409.5,-149.2"/>
<polygon fill="none" stroke="#000000" points="409.5,-149.2 409.5,-168.2 444.5,-168.2 444.5,-149.2 409.5,-149.2"/>
<text text-anchor="start" x="412.5" y="-155.3" font-family="Helvetica,sans-Serif" font-size="11.00" fill="#000000">&lt; 1</text>
<polygon fill="#ffffff" stroke="transparent" points="444.5,-149.2 444.5,-168.2 489.5,-168.2 489.5,-149.2 444.5,-149.2"/>
<polygon fill="none" stroke="#000000" points="444.5,-149.2 444.5,-168.2 489.5,-168.2 489.5,-149.2 444.5,-149.2"/>
<text text-anchor="start" x="454.1105" y="-155.3" font-family="Helvetica,sans-Serif" font-size="11.00" fill="#000000">0 rows</text>
<polygon fill="#ffffff" stroke="transparent" points="489.5,-149.2 489.5,-168.2 517.5,-168.2 517.5,-149.2 489.5,-149.2"/>
<polygon fill="none" stroke="#000000" points="489.5,-149.2 489.5,-168.2 517.5,-168.2 517.5,-149.2 489.5,-149.2"/>
<text text-anchor="start" x="498.9053" y="-155.3" font-family="Helvetica,sans-Serif" font-size="11.00" fill="#000000">1 &gt;</text>
</a>
</g>
</g>
<!-- point_repr_point&#45;&gt;repr_point -->
<g id="edge7" class="edge">
<title>point_repr_point:w&#45;&gt;repr_point:e</title>
<path fill="none" stroke="#000000" d="M579.4201,-204.3859C555.7317,-198.0371 548.3216,-177.2 517.5,-177.2"/>
<polygon fill="#000000" stroke="#000000" points="586.0612,-205.2122 593.5555,-209.7725 590.0306,-205.7061 594,-206.2 594,-206.2 594,-206.2 590.0306,-205.7061 594.4445,-202.6275 586.0612,-205.2122 586.0612,-205.2122"/>
<ellipse fill="none" stroke="#000000" cx="582.8857" cy="-204.8171" rx="3.2" ry="3.2"/>
</g>
<!-- repr_point&#45;&gt;point -->
<g id="edge8" class="edge">
<title>repr_point:w&#45;&gt;point:e</title>
<path fill="none" stroke="#000000" d="M399.0695,-178.2963C371.255,-184.5268 367.4292,-215.2 333.5,-215.2"/>
<polygon fill="#000000" stroke="#000000" points="408.2862,-173.3055 409.1225,-181.2617 407.5313,-181.429 406.695,-173.4728 408.2862,-173.3055"/>
<polyline fill="none" stroke="#000000" points="409.5,-177.2 405.5219,-177.6181 "/>
<ellipse fill="none" stroke="#000000" cx="402.3394" cy="-177.9527" rx="3.2" ry="3.2"/>
</g>
</g>
</svg>
