<?xml version="1.0" encoding="UTF-8" standalone="no"?>
<!DOCTYPE svg PUBLIC "-//W3C//DTD SVG 1.1//EN"
 "http://www.w3.org/Graphics/SVG/1.1/DTD/svg11.dtd">
<!-- Generated by graphviz version 2.40.1 (20161225.0304)
 -->
<!-- Title: twoDegreesRelationshipsDiagram Pages: 1 -->
<svg width="923pt" height="514pt"
 viewBox="0.00 0.00 923.00 514.20" xmlns="http://www.w3.org/2000/svg" xmlns:xlink="http://www.w3.org/1999/xlink">
<g id="graph0" class="graph" transform="scale(1 1) rotate(0) translate(4 510.2)">
<title>twoDegreesRelationshipsDiagram</title>
<polygon fill="#ffffff" stroke="transparent" points="-4,4 -4,-510.2 919,-510.2 919,4 -4,4"/>
<text text-anchor="middle" x="72.4936" y="-7.3" font-family="Helvetica,sans-Serif" font-size="11.00" fill="#000000">Generated by SchemaSpy</text>
<!-- mat -->
<g id="node1" class="node">
<title>mat</title>
<g id="a_node1"><a xlink:href="../../tables/mat.html" xlink:title="mat" target="_top">
<polygon fill="#ffffff" stroke="transparent" points="193,-38.2 193,-165.2 324,-165.2 324,-38.2 193,-38.2"/>
<polygon fill="#f5f5f5" stroke="transparent" points="193.5,-141.7 193.5,-164.7 324.5,-164.7 324.5,-141.7 193.5,-141.7"/>
<polygon fill="none" stroke="#000000" points="193.5,-141.7 193.5,-164.7 324.5,-164.7 324.5,-141.7 193.5,-141.7"/>
<text text-anchor="start" x="198.5" y="-150.3" font-family="Helvetica,sans-Serif" font-weight="bold" font-size="11.00" fill="#000000">mat</text>
<text text-anchor="start" x="289.5437" y="-149.8" font-family="Helvetica,sans-Serif" font-size="11.00" fill="#000000">[table]</text>
<polygon fill="none" stroke="#000000" points="193.5,-119.7 193.5,-141.7 324.5,-141.7 324.5,-119.7 193.5,-119.7"/>
<image xlink:href="../../images/primaryKeys.png" width="11px" height="12px" preserveAspectRatio="xMinYMin meet" x="198.5" y="-136.7"/>
<text text-anchor="start" x="213.5" y="-126.8" font-family="Helvetica,sans-Serif" font-size="11.00" fill="#000000">mat_id</text>
<polygon fill="#ffffff" stroke="transparent" points="193.5,-97.7 193.5,-119.7 324.5,-119.7 324.5,-97.7 193.5,-97.7"/>
<polygon fill="none" stroke="#000000" points="193.5,-97.7 193.5,-119.7 324.5,-119.7 324.5,-97.7 193.5,-97.7"/>
<text text-anchor="start" x="213.5" y="-104.8" font-family="Helvetica,sans-Serif" font-size="11.00" fill="#000000">description</text>
<polygon fill="#ffffff" stroke="transparent" points="193.5,-75.7 193.5,-97.7 324.5,-97.7 324.5,-75.7 193.5,-75.7"/>
<polygon fill="none" stroke="#000000" points="193.5,-75.7 193.5,-97.7 324.5,-97.7 324.5,-75.7 193.5,-75.7"/>
<image xlink:href="../../images/foreignKeys.png" width="11px" height="12px" preserveAspectRatio="xMinYMin meet" x="198.5" y="-92.7"/>
<text text-anchor="start" x="213.5" y="-82.8" font-family="Helvetica,sans-Serif" font-size="11.00" fill="#000000">mo_id</text>
<polygon fill="none" stroke="#000000" points="193.5,-56.7 193.5,-75.7 324.5,-75.7 324.5,-56.7 193.5,-56.7"/>
<text text-anchor="start" x="196.5" y="-62.8" font-family="Helvetica,sans-Serif" font-size="11.00" fill="#000000">...</text>
<polygon fill="#ffffff" stroke="transparent" points="193.5,-37.7 193.5,-56.7 222.5,-56.7 222.5,-37.7 193.5,-37.7"/>
<polygon fill="none" stroke="#000000" points="193.5,-37.7 193.5,-56.7 222.5,-56.7 222.5,-37.7 193.5,-37.7"/>
<text text-anchor="start" x="196.5" y="-43.8" font-family="Helvetica,sans-Serif" font-size="11.00" fill="#000000">&lt; 1</text>
<polygon fill="#ffffff" stroke="transparent" points="222.5,-37.7 222.5,-56.7 298.5,-56.7 298.5,-37.7 222.5,-37.7"/>
<polygon fill="none" stroke="#000000" points="222.5,-37.7 222.5,-56.7 298.5,-56.7 298.5,-37.7 222.5,-37.7"/>
<text text-anchor="start" x="229.4791" y="-43.8" font-family="Helvetica,sans-Serif" font-size="11.00" fill="#000000">292.481 rows</text>
<polygon fill="#ffffff" stroke="transparent" points="298.5,-37.7 298.5,-56.7 324.5,-56.7 324.5,-37.7 298.5,-37.7"/>
<polygon fill="none" stroke="#000000" points="298.5,-37.7 298.5,-56.7 324.5,-56.7 324.5,-37.7 298.5,-37.7"/>
<text text-anchor="start" x="305.9053" y="-43.8" font-family="Helvetica,sans-Serif" font-size="11.00" fill="#000000">3 &gt;</text>
</a>
</g>
</g>
<!-- moving_object -->
<g id="node2" class="node">
<title>moving_object</title>
<g id="a_node2"><a xlink:href="../../tables/moving_object.html" xlink:title="moving_object" target="_top">
<polygon fill="#ffffff" stroke="transparent" points="8,-59.2 8,-120.2 144,-120.2 144,-59.2 8,-59.2"/>
<polygon fill="#f5f5f5" stroke="transparent" points="8,-96.7 8,-119.7 144,-119.7 144,-96.7 8,-96.7"/>
<polygon fill="none" stroke="#000000" points="8,-96.7 8,-119.7 144,-119.7 144,-96.7 8,-96.7"/>
<text text-anchor="start" x="13" y="-105.3" font-family="Helvetica,sans-Serif" font-weight="bold" font-size="11.00" fill="#000000">moving_object</text>
<text text-anchor="start" x="109.5219" y="-104.8" font-family="Helvetica,sans-Serif" font-size="11.00" fill="#000000">[table]</text>
<polygon fill="none" stroke="#000000" points="8,-77.7 8,-96.7 144,-96.7 144,-77.7 8,-77.7"/>
<text text-anchor="start" x="11" y="-83.8" font-family="Helvetica,sans-Serif" font-size="11.00" fill="#000000">...</text>
<polygon fill="#ffffff" stroke="transparent" points="8,-58.7 8,-77.7 46,-77.7 46,-58.7 8,-58.7"/>
<polygon fill="none" stroke="#000000" points="8,-58.7 8,-77.7 46,-77.7 46,-58.7 8,-58.7"/>
<text text-anchor="start" x="11" y="-64.8" font-family="Helvetica,sans-Serif" font-size="11.00" fill="#000000">&lt; 1</text>
<polygon fill="#ffffff" stroke="transparent" points="46,-58.7 46,-77.7 114,-77.7 114,-58.7 46,-58.7"/>
<polygon fill="none" stroke="#000000" points="46,-58.7 46,-77.7 114,-77.7 114,-58.7 46,-58.7"/>
<text text-anchor="start" x="57.2089" y="-64.8" font-family="Helvetica,sans-Serif" font-size="11.00" fill="#000000">2.000 rows</text>
<polygon fill="#ffffff" stroke="transparent" points="114,-58.7 114,-77.7 144,-77.7 144,-58.7 114,-58.7"/>
<polygon fill="none" stroke="#000000" points="114,-58.7 114,-77.7 144,-77.7 144,-58.7 114,-58.7"/>
<text text-anchor="start" x="125.4053" y="-64.8" font-family="Helvetica,sans-Serif" font-size="11.00" fill="#000000">5 &gt;</text>
</a>
</g>
</g>
<!-- mat&#45;&gt;moving_object -->
<g id="edge1" class="edge">
<title>mat:w&#45;&gt;moving_object:e</title>
<path fill="none" stroke="#000000" d="M178.8428,-86.7C167.4139,-86.7 160.1563,-86.7 144,-86.7"/>
<polygon fill="#000000" stroke="#000000" points="185.5,-86.7001 193.5,-90.3 189.5,-86.7 193.5,-86.7 193.5,-86.7 193.5,-86.7 189.5,-86.7 193.5,-83.1 185.5,-86.7001 185.5,-86.7001"/>
<ellipse fill="none" stroke="#000000" cx="182.3" cy="-86.7001" rx="3.2" ry="3.2"/>
</g>
<!-- mat_aspect -->
<g id="node3" class="node">
<title>mat_aspect</title>
<g id="a_node3"><a xlink:href="../../tables/mat_aspect.html" xlink:title="mat_aspect" target="_top">
<polygon fill="#ffffff" stroke="transparent" points="582.5,-110.2 582.5,-171.2 698.5,-171.2 698.5,-110.2 582.5,-110.2"/>
<polygon fill="#f5f5f5" stroke="transparent" points="582.5,-147.7 582.5,-170.7 698.5,-170.7 698.5,-147.7 582.5,-147.7"/>
<polygon fill="none" stroke="#000000" points="582.5,-147.7 582.5,-170.7 698.5,-170.7 698.5,-147.7 582.5,-147.7"/>
<text text-anchor="start" x="587.5" y="-156.3" font-family="Helvetica,sans-Serif" font-weight="bold" font-size="11.00" fill="#000000">mat_aspect</text>
<text text-anchor="start" x="664.0219" y="-155.8" font-family="Helvetica,sans-Serif" font-size="11.00" fill="#000000">[table]</text>
<polygon fill="none" stroke="#000000" points="582.5,-128.7 582.5,-147.7 698.5,-147.7 698.5,-128.7 582.5,-128.7"/>
<text text-anchor="start" x="585.5" y="-134.8" font-family="Helvetica,sans-Serif" font-size="11.00" fill="#000000">...</text>
<polygon fill="#ffffff" stroke="transparent" points="582.5,-109.7 582.5,-128.7 625.5,-128.7 625.5,-109.7 582.5,-109.7"/>
<polygon fill="none" stroke="#000000" points="582.5,-109.7 582.5,-128.7 625.5,-128.7 625.5,-109.7 582.5,-109.7"/>
<text text-anchor="start" x="585.5" y="-115.8" font-family="Helvetica,sans-Serif" font-size="11.00" fill="#000000">&lt; 2</text>
<polygon fill="#ffffff" stroke="transparent" points="625.5,-109.7 625.5,-128.7 674.5,-128.7 674.5,-109.7 625.5,-109.7"/>
<polygon fill="none" stroke="#000000" points="625.5,-109.7 625.5,-128.7 674.5,-128.7 674.5,-109.7 625.5,-109.7"/>
<text text-anchor="start" x="639.1105" y="-115.8" font-family="Helvetica,sans-Serif" font-size="11.00" fill="#000000">0 rows</text>
<polygon fill="#ffffff" stroke="transparent" points="674.5,-109.7 674.5,-128.7 698.5,-128.7 698.5,-109.7 674.5,-109.7"/>
<polygon fill="none" stroke="#000000" points="674.5,-109.7 674.5,-128.7 698.5,-128.7 698.5,-109.7 674.5,-109.7"/>
<text text-anchor="start" x="689.3862" y="-115.8" font-family="Helvetica,sans-Serif" font-size="11.00" fill="#000000"> &#160;</text>
</a>
</g>
</g>
<!-- mat_aspect&#45;&gt;mat -->
<g id="edge3" class="edge">
<title>mat_aspect:w&#45;&gt;mat:e</title>
<path fill="none" stroke="#000000" d="M567.8616,-137.6606C465.1127,-137.0983 434.1679,-130.7 324.5,-130.7"/>
<polygon fill="#000000" stroke="#000000" points="574.5,-137.6784 582.4903,-141.3 578.5,-137.6892 582.5,-137.7 582.5,-137.7 582.5,-137.7 578.5,-137.6892 582.5097,-134.1 574.5,-137.6784 574.5,-137.6784"/>
<ellipse fill="none" stroke="#000000" cx="571.3" cy="-137.6698" rx="3.2" ry="3.2"/>
</g>
<!-- aspect -->
<g id="node4" class="node">
<title>aspect</title>
<g id="a_node4"><a xlink:href="../../tables/aspect.html" xlink:title="aspect" target="_top">
<polygon fill="#ffffff" stroke="transparent" points="398,-155.2 398,-216.2 499,-216.2 499,-155.2 398,-155.2"/>
<polygon fill="#f5f5f5" stroke="transparent" points="398.5,-192.7 398.5,-215.7 499.5,-215.7 499.5,-192.7 398.5,-192.7"/>
<polygon fill="none" stroke="#000000" points="398.5,-192.7 398.5,-215.7 499.5,-215.7 499.5,-192.7 398.5,-192.7"/>
<text text-anchor="start" x="403.5" y="-201.3" font-family="Helvetica,sans-Serif" font-weight="bold" font-size="11.00" fill="#000000">aspect</text>
<text text-anchor="start" x="464.5437" y="-200.8" font-family="Helvetica,sans-Serif" font-size="11.00" fill="#000000">[table]</text>
<polygon fill="none" stroke="#000000" points="398.5,-173.7 398.5,-192.7 499.5,-192.7 499.5,-173.7 398.5,-173.7"/>
<text text-anchor="start" x="401.5" y="-179.8" font-family="Helvetica,sans-Serif" font-size="11.00" fill="#000000">...</text>
<polygon fill="#ffffff" stroke="transparent" points="398.5,-154.7 398.5,-173.7 419.5,-173.7 419.5,-154.7 398.5,-154.7"/>
<polygon fill="none" stroke="#000000" points="398.5,-154.7 398.5,-173.7 419.5,-173.7 419.5,-154.7 398.5,-154.7"/>
<text text-anchor="start" x="401.2027" y="-160.8" font-family="Helvetica,sans-Serif" font-size="11.00" fill="#000000">&lt; 1</text>
<polygon fill="#ffffff" stroke="transparent" points="419.5,-154.7 419.5,-173.7 478.5,-173.7 478.5,-154.7 419.5,-154.7"/>
<polygon fill="none" stroke="#000000" points="419.5,-154.7 419.5,-173.7 478.5,-173.7 478.5,-154.7 419.5,-154.7"/>
<text text-anchor="start" x="422.1045" y="-160.8" font-family="Helvetica,sans-Serif" font-size="11.00" fill="#000000">2.300 rows</text>
<polygon fill="#ffffff" stroke="transparent" points="478.5,-154.7 478.5,-173.7 499.5,-173.7 499.5,-154.7 478.5,-154.7"/>
<polygon fill="none" stroke="#000000" points="478.5,-154.7 478.5,-173.7 499.5,-173.7 499.5,-154.7 478.5,-154.7"/>
<text text-anchor="start" x="481.2027" y="-160.8" font-family="Helvetica,sans-Serif" font-size="11.00" fill="#000000">6 &gt;</text>
</a>
</g>
</g>
<!-- mat_aspect&#45;&gt;aspect -->
<g id="edge2" class="edge">
<title>mat_aspect:w&#45;&gt;aspect:e</title>
<path fill="none" stroke="#000000" d="M568.2267,-139.7505C540.0637,-148.5538 536.0526,-182.7 499.5,-182.7"/>
<polygon fill="#000000" stroke="#000000" points="574.5813,-138.8376 583.0119,-141.2634 578.5406,-138.2688 582.5,-137.7 582.5,-137.7 582.5,-137.7 578.5406,-138.2688 581.9881,-134.1366 574.5813,-138.8376 574.5813,-138.8376"/>
<ellipse fill="none" stroke="#000000" cx="571.4138" cy="-139.2927" rx="3.2" ry="3.2"/>
</g>
<!-- mat_mat_dr -->
<g id="node5" class="node">
<title>mat_mat_dr</title>
<g id="a_node5"><a xlink:href="../../tables/mat_mat_dr.html" xlink:title="mat_mat_dr" target="_top">
<polygon fill="#ffffff" stroke="transparent" points="389.5,-45.2 389.5,-106.2 507.5,-106.2 507.5,-45.2 389.5,-45.2"/>
<polygon fill="#f5f5f5" stroke="transparent" points="389.5,-82.7 389.5,-105.7 507.5,-105.7 507.5,-82.7 389.5,-82.7"/>
<polygon fill="none" stroke="#000000" points="389.5,-82.7 389.5,-105.7 507.5,-105.7 507.5,-82.7 389.5,-82.7"/>
<text text-anchor="start" x="394.5" y="-91.3" font-family="Helvetica,sans-Serif" font-weight="bold" font-size="11.00" fill="#000000">mat_mat_dr</text>
<text text-anchor="start" x="473.0219" y="-90.8" font-family="Helvetica,sans-Serif" font-size="11.00" fill="#000000">[table]</text>
<polygon fill="none" stroke="#000000" points="389.5,-63.7 389.5,-82.7 507.5,-82.7 507.5,-63.7 389.5,-63.7"/>
<text text-anchor="start" x="392.5" y="-69.8" font-family="Helvetica,sans-Serif" font-size="11.00" fill="#000000">...</text>
<polygon fill="#ffffff" stroke="transparent" points="389.5,-44.7 389.5,-63.7 433.5,-63.7 433.5,-44.7 389.5,-44.7"/>
<polygon fill="none" stroke="#000000" points="389.5,-44.7 389.5,-63.7 433.5,-63.7 433.5,-44.7 389.5,-44.7"/>
<text text-anchor="start" x="392.5" y="-50.8" font-family="Helvetica,sans-Serif" font-size="11.00" fill="#000000">&lt; 2</text>
<polygon fill="#ffffff" stroke="transparent" points="433.5,-44.7 433.5,-63.7 483.5,-63.7 483.5,-44.7 433.5,-44.7"/>
<polygon fill="none" stroke="#000000" points="433.5,-44.7 433.5,-63.7 483.5,-63.7 483.5,-44.7 433.5,-44.7"/>
<text text-anchor="start" x="448.1105" y="-50.8" font-family="Helvetica,sans-Serif" font-size="11.00" fill="#000000">0 rows</text>
<polygon fill="#ffffff" stroke="transparent" points="483.5,-44.7 483.5,-63.7 507.5,-63.7 507.5,-44.7 483.5,-44.7"/>
<polygon fill="none" stroke="#000000" points="483.5,-44.7 483.5,-63.7 507.5,-63.7 507.5,-44.7 483.5,-44.7"/>
<text text-anchor="start" x="498.3862" y="-50.8" font-family="Helvetica,sans-Serif" font-size="11.00" fill="#000000"> &#160;</text>
</a>
</g>
</g>
<!-- mat_mat_dr&#45;&gt;mat -->
<g id="edge4" class="edge">
<title>mat_mat_dr:w&#45;&gt;mat:e</title>
<path fill="none" stroke="#000000" d="M375.3052,-76.1545C353.347,-88.6408 357.4706,-130.7 324.5,-130.7"/>
<polygon fill="#000000" stroke="#000000" points="381.7269,-74.5917 390.3513,-76.1979 385.6134,-73.6459 389.5,-72.7 389.5,-72.7 389.5,-72.7 385.6134,-73.6459 388.6487,-69.2021 381.7269,-74.5917 381.7269,-74.5917"/>
<ellipse fill="none" stroke="#000000" cx="378.6176" cy="-75.3484" rx="3.2" ry="3.2"/>
</g>
<!-- point -->
<g id="node6" class="node">
<title>point</title>
<g id="a_node6"><a xlink:href="../../tables/point.html" xlink:title="point" target="_top">
<polygon fill="#ffffff" stroke="transparent" points="373,-319.7 373,-453.7 524,-453.7 524,-319.7 373,-319.7"/>
<polygon fill="#f5f5f5" stroke="transparent" points="375.5,-428.7 375.5,-451.7 522.5,-451.7 522.5,-428.7 375.5,-428.7"/>
<polygon fill="none" stroke="#000000" points="375.5,-428.7 375.5,-451.7 522.5,-451.7 522.5,-428.7 375.5,-428.7"/>
<text text-anchor="start" x="380.5" y="-437.3" font-family="Helvetica,sans-Serif" font-weight="bold" font-size="11.00" fill="#000000">point</text>
<text text-anchor="start" x="487.5437" y="-436.8" font-family="Helvetica,sans-Serif" font-size="11.00" fill="#000000">[table]</text>
<polygon fill="none" stroke="#000000" points="375.5,-406.7 375.5,-428.7 477.5,-428.7 477.5,-406.7 375.5,-406.7"/>
<image xlink:href="../../images/primaryKeys.png" width="11px" height="12px" preserveAspectRatio="xMinYMin meet" x="380.5" y="-423.7"/>
<text text-anchor="start" x="409.5" y="-413.8" font-family="Helvetica,sans-Serif" font-size="11.00" fill="#000000">point_id</text>
<polygon fill="none" stroke="#000000" points="477.5,-406.7 477.5,-428.7 522.5,-428.7 522.5,-406.7 477.5,-406.7"/>
<text text-anchor="start" x="480.5" y="-414.4" font-family="Helvetica,sans-Serif" font-size="11.00" fill="#000000">int4[10]</text>
<polygon fill="none" stroke="#000000" points="375.5,-384.7 375.5,-406.7 477.5,-406.7 477.5,-384.7 375.5,-384.7"/>
<text text-anchor="start" x="409.5" y="-391.8" font-family="Helvetica,sans-Serif" font-size="11.00" fill="#000000">p_order</text>
<polygon fill="none" stroke="#000000" points="477.5,-384.7 477.5,-406.7 522.5,-406.7 522.5,-384.7 477.5,-384.7"/>
<text text-anchor="start" x="480.5" y="-392.4" font-family="Helvetica,sans-Serif" font-size="11.00" fill="#000000">int4[10]</text>
<polygon fill="#ffffff" stroke="transparent" points="375.5,-362.7 375.5,-384.7 477.5,-384.7 477.5,-362.7 375.5,-362.7"/>
<polygon fill="none" stroke="#000000" points="375.5,-362.7 375.5,-384.7 477.5,-384.7 477.5,-362.7 375.5,-362.7"/>
<image xlink:href="../../images/foreignKeys.png" width="11px" height="12px" preserveAspectRatio="xMinYMin meet" x="380.5" y="-379.7"/>
<text text-anchor="start" x="409.5" y="-369.8" font-family="Helvetica,sans-Serif" font-size="11.00" fill="#000000">mat_id</text>
<polygon fill="none" stroke="#000000" points="477.5,-362.7 477.5,-384.7 522.5,-384.7 522.5,-362.7 477.5,-362.7"/>
<text text-anchor="start" x="480.5" y="-370.4" font-family="Helvetica,sans-Serif" font-size="11.00" fill="#000000">int4[10]</text>
<polygon fill="none" stroke="#000000" points="375.5,-340.7 375.5,-362.7 477.5,-362.7 477.5,-340.7 375.5,-340.7"/>
<text text-anchor="start" x="409.5" y="-347.8" font-family="Helvetica,sans-Serif" font-size="11.00" fill="#000000">t</text>
<polygon fill="none" stroke="#000000" points="477.5,-340.7 477.5,-362.7 522.5,-362.7 522.5,-340.7 477.5,-340.7"/>
<text text-anchor="start" x="480.1274" y="-348.4" font-family="Helvetica,sans-Serif" font-size="11.00" fill="#000000">date[13]</text>
<polygon fill="#ffffff" stroke="transparent" points="375.5,-321.7 375.5,-340.7 396.5,-340.7 396.5,-321.7 375.5,-321.7"/>
<polygon fill="none" stroke="#000000" points="375.5,-321.7 375.5,-340.7 396.5,-340.7 396.5,-321.7 375.5,-321.7"/>
<text text-anchor="start" x="378.2027" y="-327.8" font-family="Helvetica,sans-Serif" font-size="11.00" fill="#000000">&lt; 1</text>
<polygon fill="#ffffff" stroke="transparent" points="396.5,-321.7 396.5,-340.7 477.5,-340.7 477.5,-321.7 396.5,-321.7"/>
<polygon fill="none" stroke="#000000" points="396.5,-321.7 396.5,-340.7 477.5,-340.7 477.5,-321.7 396.5,-321.7"/>
<text text-anchor="start" x="399.4037" y="-327.8" font-family="Helvetica,sans-Serif" font-size="11.00" fill="#000000">1.039.258 rows</text>
<polygon fill="#ffffff" stroke="transparent" points="477.5,-321.7 477.5,-340.7 522.5,-340.7 522.5,-321.7 477.5,-321.7"/>
<polygon fill="none" stroke="#000000" points="477.5,-321.7 477.5,-340.7 522.5,-340.7 522.5,-321.7 477.5,-321.7"/>
<text text-anchor="start" x="503.9053" y="-327.8" font-family="Helvetica,sans-Serif" font-size="11.00" fill="#000000">4 &gt;</text>
<polygon fill="none" stroke="#000000" stroke-width="2" points="374,-320.7 374,-452.7 523,-452.7 523,-320.7 374,-320.7"/>
</a>
</g>
</g>
<!-- point&#45;&gt;mat -->
<g id="edge5" class="edge">
<title>point:w&#45;&gt;mat:e</title>
<path fill="none" stroke="#000000" d="M360.7817,-371.8837C281.6606,-349.6469 429.2491,-130.7 324.5,-130.7"/>
<polygon fill="#000000" stroke="#000000" points="367.5602,-372.7202 375.0591,-377.2729 371.5301,-373.2101 375.5,-373.7 375.5,-373.7 375.5,-373.7 371.5301,-373.2101 375.9409,-370.1271 367.5602,-372.7202 367.5602,-372.7202"/>
<ellipse fill="none" stroke="#000000" cx="364.3843" cy="-372.3282" rx="3.2" ry="3.2"/>
</g>
<!-- point_aspect -->
<g id="node7" class="node">
<title>point_aspect</title>
<g id="a_node7"><a xlink:href="../../tables/point_aspect.html" xlink:title="point_aspect" target="_top">
<polygon fill="#ffffff" stroke="transparent" points="578,-196.7 578,-282.7 703,-282.7 703,-196.7 578,-196.7"/>
<polygon fill="#f5f5f5" stroke="transparent" points="578.5,-259.7 578.5,-282.7 703.5,-282.7 703.5,-259.7 578.5,-259.7"/>
<polygon fill="none" stroke="#000000" points="578.5,-259.7 578.5,-282.7 703.5,-282.7 703.5,-259.7 578.5,-259.7"/>
<text text-anchor="start" x="583.5" y="-268.3" font-family="Helvetica,sans-Serif" font-weight="bold" font-size="11.00" fill="#000000">point_aspect</text>
<text text-anchor="start" x="669.0219" y="-267.8" font-family="Helvetica,sans-Serif" font-size="11.00" fill="#000000">[table]</text>
<polygon fill="none" stroke="#000000" points="578.5,-237.7 578.5,-259.7 703.5,-259.7 703.5,-237.7 578.5,-237.7"/>
<image xlink:href="../../images/primaryKeys.png" width="11px" height="12px" preserveAspectRatio="xMinYMin meet" x="583.5" y="-254.7"/>
<text text-anchor="start" x="607.5" y="-244.8" font-family="Helvetica,sans-Serif" font-size="11.00" fill="#000000">point_id</text>
<polygon fill="none" stroke="#000000" points="578.5,-215.7 578.5,-237.7 703.5,-237.7 703.5,-215.7 578.5,-215.7"/>
<image xlink:href="../../images/primaryKeys.png" width="11px" height="12px" preserveAspectRatio="xMinYMin meet" x="583.5" y="-232.7"/>
<text text-anchor="start" x="607.5" y="-222.8" font-family="Helvetica,sans-Serif" font-size="11.00" fill="#000000">aspect_id</text>
<polygon fill="#ffffff" stroke="transparent" points="578.5,-196.7 578.5,-215.7 604.5,-215.7 604.5,-196.7 578.5,-196.7"/>
<polygon fill="none" stroke="#000000" points="578.5,-196.7 578.5,-215.7 604.5,-215.7 604.5,-196.7 578.5,-196.7"/>
<text text-anchor="start" x="581.5" y="-202.8" font-family="Helvetica,sans-Serif" font-size="11.00" fill="#000000">&lt; 2</text>
<polygon fill="#ffffff" stroke="transparent" points="604.5,-196.7 604.5,-215.7 688.5,-215.7 688.5,-196.7 604.5,-196.7"/>
<polygon fill="none" stroke="#000000" points="604.5,-196.7 604.5,-215.7 688.5,-215.7 688.5,-196.7 604.5,-196.7"/>
<text text-anchor="start" x="610.3073" y="-202.8" font-family="Helvetica,sans-Serif" font-size="11.00" fill="#000000">1.039.258 rows</text>
<polygon fill="#ffffff" stroke="transparent" points="688.5,-196.7 688.5,-215.7 703.5,-215.7 703.5,-196.7 688.5,-196.7"/>
<polygon fill="none" stroke="#000000" points="688.5,-196.7 688.5,-215.7 703.5,-215.7 703.5,-196.7 688.5,-196.7"/>
<text text-anchor="start" x="694.3862" y="-202.8" font-family="Helvetica,sans-Serif" font-size="11.00" fill="#000000"> &#160;</text>
</a>
</g>
</g>
<!-- point_aspect&#45;&gt;aspect -->
<g id="edge6" class="edge">
<title>point_aspect:w&#45;&gt;aspect:e</title>
<path fill="none" stroke="#000000" d="M564.1345,-224.4575C537.9105,-215.4912 534.195,-182.7 499.5,-182.7"/>
<polygon fill="#000000" stroke="#000000" points="570.5957,-225.4661 577.9447,-230.2569 574.5479,-226.083 578.5,-226.7 578.5,-226.7 578.5,-226.7 574.5479,-226.083 579.0553,-223.1431 570.5957,-225.4661 570.5957,-225.4661"/>
<ellipse fill="none" stroke="#000000" cx="567.434" cy="-224.9725" rx="3.2" ry="3.2"/>
</g>
<!-- point_aspect&#45;&gt;point -->
<g id="edge7" class="edge">
<title>point_aspect:w&#45;&gt;point:e</title>
<path fill="none" stroke="#000000" d="M564.0502,-251.2202C513.2044,-272.2432 595.9092,-417.7 522.5,-417.7"/>
<polygon fill="#000000" stroke="#000000" points="570.619,-250.0746 579.1186,-252.2465 574.5595,-249.3873 578.5,-248.7 578.5,-248.7 578.5,-248.7 574.5595,-249.3873 577.8814,-245.1535 570.619,-250.0746 570.619,-250.0746"/>
<ellipse fill="none" stroke="#000000" cx="567.4666" cy="-250.6244" rx="3.2" ry="3.2"/>
</g>
<!-- point_point_dr -->
<g id="node8" class="node">
<title>point_point_dr</title>
<g id="a_node8"><a xlink:href="../../tables/point_point_dr.html" xlink:title="point_point_dr" target="_top">
<polygon fill="#ffffff" stroke="transparent" points="573,-305.7 573,-391.7 708,-391.7 708,-305.7 573,-305.7"/>
<polygon fill="#f5f5f5" stroke="transparent" points="573.5,-368.7 573.5,-391.7 708.5,-391.7 708.5,-368.7 573.5,-368.7"/>
<polygon fill="none" stroke="#000000" points="573.5,-368.7 573.5,-391.7 708.5,-391.7 708.5,-368.7 573.5,-368.7"/>
<text text-anchor="start" x="578.5" y="-377.3" font-family="Helvetica,sans-Serif" font-weight="bold" font-size="11.00" fill="#000000">point_point_dr</text>
<text text-anchor="start" x="674.0219" y="-376.8" font-family="Helvetica,sans-Serif" font-size="11.00" fill="#000000">[table]</text>
<polygon fill="none" stroke="#000000" points="573.5,-346.7 573.5,-368.7 708.5,-368.7 708.5,-346.7 573.5,-346.7"/>
<image xlink:href="../../images/primaryKeys.png" width="11px" height="12px" preserveAspectRatio="xMinYMin meet" x="578.5" y="-363.7"/>
<text text-anchor="start" x="602.5" y="-353.8" font-family="Helvetica,sans-Serif" font-size="11.00" fill="#000000">point_id</text>
<polygon fill="none" stroke="#000000" points="573.5,-324.7 573.5,-346.7 708.5,-346.7 708.5,-324.7 573.5,-324.7"/>
<image xlink:href="../../images/primaryKeys.png" width="11px" height="12px" preserveAspectRatio="xMinYMin meet" x="578.5" y="-341.7"/>
<text text-anchor="start" x="602.5" y="-331.8" font-family="Helvetica,sans-Serif" font-size="11.00" fill="#000000">rule_id</text>
<polygon fill="#ffffff" stroke="transparent" points="573.5,-305.7 573.5,-324.7 626.5,-324.7 626.5,-305.7 573.5,-305.7"/>
<polygon fill="none" stroke="#000000" points="573.5,-305.7 573.5,-324.7 626.5,-324.7 626.5,-305.7 573.5,-305.7"/>
<text text-anchor="start" x="576.5" y="-311.8" font-family="Helvetica,sans-Serif" font-size="11.00" fill="#000000">&lt; 2</text>
<polygon fill="#ffffff" stroke="transparent" points="626.5,-305.7 626.5,-324.7 680.5,-324.7 680.5,-305.7 626.5,-305.7"/>
<polygon fill="none" stroke="#000000" points="626.5,-305.7 626.5,-324.7 680.5,-324.7 680.5,-305.7 626.5,-305.7"/>
<text text-anchor="start" x="645.1105" y="-311.8" font-family="Helvetica,sans-Serif" font-size="11.00" fill="#000000">0 rows</text>
<polygon fill="#ffffff" stroke="transparent" points="680.5,-305.7 680.5,-324.7 708.5,-324.7 708.5,-305.7 680.5,-305.7"/>
<polygon fill="none" stroke="#000000" points="680.5,-305.7 680.5,-324.7 708.5,-324.7 708.5,-305.7 680.5,-305.7"/>
<text text-anchor="start" x="699.3862" y="-311.8" font-family="Helvetica,sans-Serif" font-size="11.00" fill="#000000"> &#160;</text>
</a>
</g>
</g>
<!-- point_point_dr&#45;&gt;point -->
<g id="edge8" class="edge">
<title>point_point_dr:w&#45;&gt;point:e</title>
<path fill="none" stroke="#000000" d="M559.6909,-362.4081C543.4367,-376.5525 551.4831,-417.7 522.5,-417.7"/>
<polygon fill="#000000" stroke="#000000" points="565.928,-360.2816 574.6617,-361.1074 569.714,-358.9908 573.5,-357.7 573.5,-357.7 573.5,-357.7 569.714,-358.9908 572.3383,-354.2926 565.928,-360.2816 565.928,-360.2816"/>
<ellipse fill="none" stroke="#000000" cx="562.8992" cy="-361.3143" rx="3.2" ry="3.2"/>
</g>
<!-- point_dr -->
<g id="node9" class="node">
<title>point_dr</title>
<g id="a_node9"><a xlink:href="../../tables/point_dr.html" xlink:title="point_dr" target="_top">
<polygon fill="#ffffff" stroke="transparent" points="401.5,-237.2 401.5,-298.2 495.5,-298.2 495.5,-237.2 401.5,-237.2"/>
<polygon fill="#f5f5f5" stroke="transparent" points="401.5,-274.7 401.5,-297.7 495.5,-297.7 495.5,-274.7 401.5,-274.7"/>
<polygon fill="none" stroke="#000000" points="401.5,-274.7 401.5,-297.7 495.5,-297.7 495.5,-274.7 401.5,-274.7"/>
<text text-anchor="start" x="406.5" y="-283.3" font-family="Helvetica,sans-Serif" font-weight="bold" font-size="11.00" fill="#000000">point_dr</text>
<text text-anchor="start" x="461.0219" y="-282.8" font-family="Helvetica,sans-Serif" font-size="11.00" fill="#000000">[table]</text>
<polygon fill="none" stroke="#000000" points="401.5,-255.7 401.5,-274.7 495.5,-274.7 495.5,-255.7 401.5,-255.7"/>
<text text-anchor="start" x="404.5" y="-261.8" font-family="Helvetica,sans-Serif" font-size="11.00" fill="#000000">...</text>
<polygon fill="#ffffff" stroke="transparent" points="401.5,-236.7 401.5,-255.7 429.5,-255.7 429.5,-236.7 401.5,-236.7"/>
<polygon fill="none" stroke="#000000" points="401.5,-236.7 401.5,-255.7 429.5,-255.7 429.5,-236.7 401.5,-236.7"/>
<text text-anchor="start" x="404.5" y="-242.8" font-family="Helvetica,sans-Serif" font-size="11.00" fill="#000000">&lt; 1</text>
<polygon fill="#ffffff" stroke="transparent" points="429.5,-236.7 429.5,-255.7 470.5,-255.7 470.5,-236.7 429.5,-236.7"/>
<polygon fill="none" stroke="#000000" points="429.5,-236.7 429.5,-255.7 470.5,-255.7 470.5,-236.7 429.5,-236.7"/>
<text text-anchor="start" x="435.1105" y="-242.8" font-family="Helvetica,sans-Serif" font-size="11.00" fill="#000000">0 rows</text>
<polygon fill="#ffffff" stroke="transparent" points="470.5,-236.7 470.5,-255.7 495.5,-255.7 495.5,-236.7 470.5,-236.7"/>
<polygon fill="none" stroke="#000000" points="470.5,-236.7 470.5,-255.7 495.5,-255.7 495.5,-236.7 470.5,-236.7"/>
<text text-anchor="start" x="476.9053" y="-242.8" font-family="Helvetica,sans-Serif" font-size="11.00" fill="#000000">1 &gt;</text>
</a>
</g>
</g>
<!-- point_point_dr&#45;&gt;point_dr -->
<g id="edge9" class="edge">
<title>point_point_dr:w&#45;&gt;point_dr:e</title>
<path fill="none" stroke="#000000" d="M559.003,-332.8288C529.5196,-319.5458 536.7012,-264.7 495.5,-264.7"/>
<polygon fill="#000000" stroke="#000000" points="565.6524,-334.1457 572.8006,-339.2314 569.5762,-334.9228 573.5,-335.7 573.5,-335.7 573.5,-335.7 569.5762,-334.9228 574.1994,-332.1686 565.6524,-334.1457 565.6524,-334.1457"/>
<ellipse fill="none" stroke="#000000" cx="562.5134" cy="-333.524" rx="3.2" ry="3.2"/>
</g>
<!-- point_repr_point -->
<g id="node10" class="node">
<title>point_repr_point</title>
<g id="a_node10"><a xlink:href="../../tables/point_repr_point.html" xlink:title="point_repr_point" target="_top">
<polygon fill="#ffffff" stroke="transparent" points="757,-413.2 757,-474.2 907,-474.2 907,-413.2 757,-413.2"/>
<polygon fill="#f5f5f5" stroke="transparent" points="757,-450.7 757,-473.7 907,-473.7 907,-450.7 757,-450.7"/>
<polygon fill="none" stroke="#000000" points="757,-450.7 757,-473.7 907,-473.7 907,-450.7 757,-450.7"/>
<text text-anchor="start" x="762" y="-459.3" font-family="Helvetica,sans-Serif" font-weight="bold" font-size="11.00" fill="#000000">point_repr_point</text>
<text text-anchor="start" x="872.5219" y="-458.8" font-family="Helvetica,sans-Serif" font-size="11.00" fill="#000000">[table]</text>
<polygon fill="none" stroke="#000000" points="757,-431.7 757,-450.7 907,-450.7 907,-431.7 757,-431.7"/>
<text text-anchor="start" x="760" y="-437.8" font-family="Helvetica,sans-Serif" font-size="11.00" fill="#000000">...</text>
<polygon fill="#ffffff" stroke="transparent" points="757,-412.7 757,-431.7 817,-431.7 817,-412.7 757,-412.7"/>
<polygon fill="none" stroke="#000000" points="757,-412.7 757,-431.7 817,-431.7 817,-412.7 757,-412.7"/>
<text text-anchor="start" x="760" y="-418.8" font-family="Helvetica,sans-Serif" font-size="11.00" fill="#000000">&lt; 2</text>
<polygon fill="#ffffff" stroke="transparent" points="817,-412.7 817,-431.7 875,-431.7 875,-412.7 817,-412.7"/>
<polygon fill="none" stroke="#000000" points="817,-412.7 817,-431.7 875,-431.7 875,-412.7 817,-412.7"/>
<text text-anchor="start" x="839.6105" y="-418.8" font-family="Helvetica,sans-Serif" font-size="11.00" fill="#000000">0 rows</text>
<polygon fill="#ffffff" stroke="transparent" points="875,-412.7 875,-431.7 907,-431.7 907,-412.7 875,-412.7"/>
<polygon fill="none" stroke="#000000" points="875,-412.7 875,-431.7 907,-431.7 907,-412.7 875,-412.7"/>
<text text-anchor="start" x="897.8862" y="-418.8" font-family="Helvetica,sans-Serif" font-size="11.00" fill="#000000"> &#160;</text>
</a>
</g>
</g>
<!-- point_repr_point&#45;&gt;point -->
<g id="edge10" class="edge">
<title>point_repr_point:w&#45;&gt;point:e</title>
<path fill="none" stroke="#000000" d="M734.1092,-431.2552C673.3092,-424.5755 593.4858,-417.7 522.5,-417.7"/>
<polygon fill="#000000" stroke="#000000" points="740.7949,-432.0063 748.343,-436.477 744.7699,-432.4529 748.7449,-432.8995 748.7449,-432.8995 748.7449,-432.8995 744.7699,-432.4529 749.1469,-429.322 740.7949,-432.0063 740.7949,-432.0063"/>
<ellipse fill="none" stroke="#000000" cx="737.6149" cy="-431.649" rx="3.2" ry="3.2"/>
</g>
<!-- repr_point -->
<g id="node11" class="node">
<title>repr_point</title>
<g id="a_node11"><a xlink:href="../../tables/repr_point.html" xlink:title="repr_point" target="_top">
<polygon fill="#ffffff" stroke="transparent" points="586.5,-441.2 586.5,-502.2 694.5,-502.2 694.5,-441.2 586.5,-441.2"/>
<polygon fill="#f5f5f5" stroke="transparent" points="586.5,-478.7 586.5,-501.7 694.5,-501.7 694.5,-478.7 586.5,-478.7"/>
<polygon fill="none" stroke="#000000" points="586.5,-478.7 586.5,-501.7 694.5,-501.7 694.5,-478.7 586.5,-478.7"/>
<text text-anchor="start" x="591.5" y="-487.3" font-family="Helvetica,sans-Serif" font-weight="bold" font-size="11.00" fill="#000000">repr_point</text>
<text text-anchor="start" x="660.0219" y="-486.8" font-family="Helvetica,sans-Serif" font-size="11.00" fill="#000000">[table]</text>
<polygon fill="none" stroke="#000000" points="586.5,-459.7 586.5,-478.7 694.5,-478.7 694.5,-459.7 586.5,-459.7"/>
<text text-anchor="start" x="589.5" y="-465.8" font-family="Helvetica,sans-Serif" font-size="11.00" fill="#000000">...</text>
<polygon fill="#ffffff" stroke="transparent" points="586.5,-440.7 586.5,-459.7 621.5,-459.7 621.5,-440.7 586.5,-440.7"/>
<polygon fill="none" stroke="#000000" points="586.5,-440.7 586.5,-459.7 621.5,-459.7 621.5,-440.7 586.5,-440.7"/>
<text text-anchor="start" x="589.5" y="-446.8" font-family="Helvetica,sans-Serif" font-size="11.00" fill="#000000">&lt; 1</text>
<polygon fill="#ffffff" stroke="transparent" points="621.5,-440.7 621.5,-459.7 666.5,-459.7 666.5,-440.7 621.5,-440.7"/>
<polygon fill="none" stroke="#000000" points="621.5,-440.7 621.5,-459.7 666.5,-459.7 666.5,-440.7 621.5,-440.7"/>
<text text-anchor="start" x="631.1105" y="-446.8" font-family="Helvetica,sans-Serif" font-size="11.00" fill="#000000">0 rows</text>
<polygon fill="#ffffff" stroke="transparent" points="666.5,-440.7 666.5,-459.7 694.5,-459.7 694.5,-440.7 666.5,-440.7"/>
<polygon fill="none" stroke="#000000" points="666.5,-440.7 666.5,-459.7 694.5,-459.7 694.5,-440.7 666.5,-440.7"/>
<text text-anchor="start" x="675.9053" y="-446.8" font-family="Helvetica,sans-Serif" font-size="11.00" fill="#000000">1 &gt;</text>
</a>
</g>
</g>
<!-- point_repr_point&#45;&gt;repr_point -->
<g id="edge11" class="edge">
<title>point_repr_point:w&#45;&gt;repr_point:e</title>
<path fill="none" stroke="#000000" d="M734.5541,-457.948C723.6632,-459.5404 712.8015,-461.1285 702.533,-462.6299"/>
<polygon fill="#000000" stroke="#000000" points="740.925,-457.0165 749.3616,-459.4212 744.8829,-456.4378 748.8408,-455.859 748.8408,-455.859 748.8408,-455.859 744.8829,-456.4378 748.3199,-452.2969 740.925,-457.0165 740.925,-457.0165"/>
<ellipse fill="none" stroke="#000000" cx="737.7586" cy="-457.4795" rx="3.2" ry="3.2"/>
</g>
<!-- repr_point&#45;&gt;point -->
<g id="edge12" class="edge">
<title>repr_point:w&#45;&gt;point:e</title>
<path fill="none" stroke="#000000" d="M568.9428,-433.1025C550.3309,-424.4116 532.6666,-417.7 522.5,-417.7"/>
<polygon fill="#000000" stroke="#000000" points="579.4354,-433.7019 575.9736,-440.9141 574.5311,-440.2218 577.9929,-433.0095 579.4354,-433.7019"/>
<polyline fill="none" stroke="#000000" points="578.4257,-437.6542 574.8196,-435.9233 "/>
<ellipse fill="none" stroke="#000000" cx="571.9347" cy="-434.5386" rx="3.2" ry="3.2"/>
</g>
</g>
</svg>
