<?xml version="1.0" encoding="UTF-8" standalone="no"?>
<!DOCTYPE svg PUBLIC "-//W3C//DTD SVG 1.1//EN"
 "http://www.w3.org/Graphics/SVG/1.1/DTD/svg11.dtd">
<!-- Generated by graphviz version 2.40.1 (20161225.0304)
 -->
<!-- Title: oneDegreeRelationshipsDiagram Pages: 1 -->
<svg width="738pt" height="366pt"
 viewBox="0.00 0.00 738.00 365.70" xmlns="http://www.w3.org/2000/svg" xmlns:xlink="http://www.w3.org/1999/xlink">
<g id="graph0" class="graph" transform="scale(1 1) rotate(0) translate(4 361.7)">
<title>oneDegreeRelationshipsDiagram</title>
<polygon fill="#ffffff" stroke="transparent" points="-4,4 -4,-361.7 734,-361.7 734,4 -4,4"/>
<text text-anchor="middle" x="72.4936" y="-7.3" font-family="Helvetica,sans-Serif" font-size="11.00" fill="#000000">Generated by SchemaSpy</text>
<!-- point -->
<g id="node1" class="node">
<title>point</title>
<g id="a_node1"><a xlink:href="../../tables/point.html" xlink:title="point" target="_top">
<polygon fill="#ffffff" stroke="transparent" points="188,-76.7 188,-210.7 339,-210.7 339,-76.7 188,-76.7"/>
<polygon fill="#f5f5f5" stroke="transparent" points="190.5,-185.7 190.5,-208.7 337.5,-208.7 337.5,-185.7 190.5,-185.7"/>
<polygon fill="none" stroke="#000000" points="190.5,-185.7 190.5,-208.7 337.5,-208.7 337.5,-185.7 190.5,-185.7"/>
<text text-anchor="start" x="195.5" y="-194.3" font-family="Helvetica,sans-Serif" font-weight="bold" font-size="11.00" fill="#000000">point</text>
<text text-anchor="start" x="302.5437" y="-193.8" font-family="Helvetica,sans-Serif" font-size="11.00" fill="#000000">[table]</text>
<polygon fill="none" stroke="#000000" points="190.5,-163.7 190.5,-185.7 292.5,-185.7 292.5,-163.7 190.5,-163.7"/>
<image xlink:href="../../images/primaryKeys.png" width="11px" height="12px" preserveAspectRatio="xMinYMin meet" x="195.5" y="-180.7"/>
<text text-anchor="start" x="224.5" y="-170.8" font-family="Helvetica,sans-Serif" font-size="11.00" fill="#000000">point_id</text>
<polygon fill="none" stroke="#000000" points="292.5,-163.7 292.5,-185.7 337.5,-185.7 337.5,-163.7 292.5,-163.7"/>
<text text-anchor="start" x="295.5" y="-171.4" font-family="Helvetica,sans-Serif" font-size="11.00" fill="#000000">int4[10]</text>
<polygon fill="none" stroke="#000000" points="190.5,-141.7 190.5,-163.7 292.5,-163.7 292.5,-141.7 190.5,-141.7"/>
<text text-anchor="start" x="224.5" y="-148.8" font-family="Helvetica,sans-Serif" font-size="11.00" fill="#000000">p_order</text>
<polygon fill="none" stroke="#000000" points="292.5,-141.7 292.5,-163.7 337.5,-163.7 337.5,-141.7 292.5,-141.7"/>
<text text-anchor="start" x="295.5" y="-149.4" font-family="Helvetica,sans-Serif" font-size="11.00" fill="#000000">int4[10]</text>
<polygon fill="#ffffff" stroke="transparent" points="190.5,-119.7 190.5,-141.7 292.5,-141.7 292.5,-119.7 190.5,-119.7"/>
<polygon fill="none" stroke="#000000" points="190.5,-119.7 190.5,-141.7 292.5,-141.7 292.5,-119.7 190.5,-119.7"/>
<image xlink:href="../../images/foreignKeys.png" width="11px" height="12px" preserveAspectRatio="xMinYMin meet" x="195.5" y="-136.7"/>
<text text-anchor="start" x="224.5" y="-126.8" font-family="Helvetica,sans-Serif" font-size="11.00" fill="#000000">mat_id</text>
<polygon fill="none" stroke="#000000" points="292.5,-119.7 292.5,-141.7 337.5,-141.7 337.5,-119.7 292.5,-119.7"/>
<text text-anchor="start" x="295.5" y="-127.4" font-family="Helvetica,sans-Serif" font-size="11.00" fill="#000000">int4[10]</text>
<polygon fill="none" stroke="#000000" points="190.5,-97.7 190.5,-119.7 292.5,-119.7 292.5,-97.7 190.5,-97.7"/>
<text text-anchor="start" x="224.5" y="-104.8" font-family="Helvetica,sans-Serif" font-size="11.00" fill="#000000">t</text>
<polygon fill="none" stroke="#000000" points="292.5,-97.7 292.5,-119.7 337.5,-119.7 337.5,-97.7 292.5,-97.7"/>
<text text-anchor="start" x="295.1274" y="-105.4" font-family="Helvetica,sans-Serif" font-size="11.00" fill="#000000">date[13]</text>
<polygon fill="#ffffff" stroke="transparent" points="190.5,-78.7 190.5,-97.7 211.5,-97.7 211.5,-78.7 190.5,-78.7"/>
<polygon fill="none" stroke="#000000" points="190.5,-78.7 190.5,-97.7 211.5,-97.7 211.5,-78.7 190.5,-78.7"/>
<text text-anchor="start" x="193.2027" y="-84.8" font-family="Helvetica,sans-Serif" font-size="11.00" fill="#000000">&lt; 1</text>
<polygon fill="#ffffff" stroke="transparent" points="211.5,-78.7 211.5,-97.7 292.5,-97.7 292.5,-78.7 211.5,-78.7"/>
<polygon fill="none" stroke="#000000" points="211.5,-78.7 211.5,-97.7 292.5,-97.7 292.5,-78.7 211.5,-78.7"/>
<text text-anchor="start" x="214.4037" y="-84.8" font-family="Helvetica,sans-Serif" font-size="11.00" fill="#000000">1.039.258 rows</text>
<polygon fill="#ffffff" stroke="transparent" points="292.5,-78.7 292.5,-97.7 337.5,-97.7 337.5,-78.7 292.5,-78.7"/>
<polygon fill="none" stroke="#000000" points="292.5,-78.7 292.5,-97.7 337.5,-97.7 337.5,-78.7 292.5,-78.7"/>
<text text-anchor="start" x="318.9053" y="-84.8" font-family="Helvetica,sans-Serif" font-size="11.00" fill="#000000">4 &gt;</text>
<polygon fill="none" stroke="#000000" stroke-width="2" points="189,-77.7 189,-209.7 338,-209.7 338,-77.7 189,-77.7"/>
</a>
</g>
</g>
<!-- mat -->
<g id="node2" class="node">
<title>mat</title>
<g id="a_node2"><a xlink:href="../../tables/mat.html" xlink:title="mat" target="_top">
<polygon fill="#ffffff" stroke="transparent" points="8,-38.2 8,-165.2 139,-165.2 139,-38.2 8,-38.2"/>
<polygon fill="#f5f5f5" stroke="transparent" points="8.5,-141.7 8.5,-164.7 139.5,-164.7 139.5,-141.7 8.5,-141.7"/>
<polygon fill="none" stroke="#000000" points="8.5,-141.7 8.5,-164.7 139.5,-164.7 139.5,-141.7 8.5,-141.7"/>
<text text-anchor="start" x="13.5" y="-150.3" font-family="Helvetica,sans-Serif" font-weight="bold" font-size="11.00" fill="#000000">mat</text>
<text text-anchor="start" x="104.5437" y="-149.8" font-family="Helvetica,sans-Serif" font-size="11.00" fill="#000000">[table]</text>
<polygon fill="none" stroke="#000000" points="8.5,-119.7 8.5,-141.7 139.5,-141.7 139.5,-119.7 8.5,-119.7"/>
<image xlink:href="../../images/primaryKeys.png" width="11px" height="12px" preserveAspectRatio="xMinYMin meet" x="13.5" y="-136.7"/>
<text text-anchor="start" x="28.5" y="-126.8" font-family="Helvetica,sans-Serif" font-size="11.00" fill="#000000">mat_id</text>
<polygon fill="#ffffff" stroke="transparent" points="8.5,-97.7 8.5,-119.7 139.5,-119.7 139.5,-97.7 8.5,-97.7"/>
<polygon fill="none" stroke="#000000" points="8.5,-97.7 8.5,-119.7 139.5,-119.7 139.5,-97.7 8.5,-97.7"/>
<text text-anchor="start" x="28.5" y="-104.8" font-family="Helvetica,sans-Serif" font-size="11.00" fill="#000000">description</text>
<polygon fill="#ffffff" stroke="transparent" points="8.5,-75.7 8.5,-97.7 139.5,-97.7 139.5,-75.7 8.5,-75.7"/>
<polygon fill="none" stroke="#000000" points="8.5,-75.7 8.5,-97.7 139.5,-97.7 139.5,-75.7 8.5,-75.7"/>
<image xlink:href="../../images/foreignKeys.png" width="11px" height="12px" preserveAspectRatio="xMinYMin meet" x="13.5" y="-92.7"/>
<text text-anchor="start" x="28.5" y="-82.8" font-family="Helvetica,sans-Serif" font-size="11.00" fill="#000000">mo_id</text>
<polygon fill="none" stroke="#000000" points="8.5,-56.7 8.5,-75.7 139.5,-75.7 139.5,-56.7 8.5,-56.7"/>
<text text-anchor="start" x="11.5" y="-62.8" font-family="Helvetica,sans-Serif" font-size="11.00" fill="#000000">...</text>
<polygon fill="#ffffff" stroke="transparent" points="8.5,-37.7 8.5,-56.7 37.5,-56.7 37.5,-37.7 8.5,-37.7"/>
<polygon fill="none" stroke="#000000" points="8.5,-37.7 8.5,-56.7 37.5,-56.7 37.5,-37.7 8.5,-37.7"/>
<text text-anchor="start" x="11.5" y="-43.8" font-family="Helvetica,sans-Serif" font-size="11.00" fill="#000000">&lt; 1</text>
<polygon fill="#ffffff" stroke="transparent" points="37.5,-37.7 37.5,-56.7 113.5,-56.7 113.5,-37.7 37.5,-37.7"/>
<polygon fill="none" stroke="#000000" points="37.5,-37.7 37.5,-56.7 113.5,-56.7 113.5,-37.7 37.5,-37.7"/>
<text text-anchor="start" x="44.4791" y="-43.8" font-family="Helvetica,sans-Serif" font-size="11.00" fill="#000000">292.481 rows</text>
<polygon fill="#ffffff" stroke="transparent" points="113.5,-37.7 113.5,-56.7 139.5,-56.7 139.5,-37.7 113.5,-37.7"/>
<polygon fill="none" stroke="#000000" points="113.5,-37.7 113.5,-56.7 139.5,-56.7 139.5,-37.7 113.5,-37.7"/>
<text text-anchor="start" x="120.9053" y="-43.8" font-family="Helvetica,sans-Serif" font-size="11.00" fill="#000000">3 &gt;</text>
</a>
</g>
</g>
<!-- point&#45;&gt;mat -->
<g id="edge1" class="edge">
<title>point:w&#45;&gt;mat:e</title>
<path fill="none" stroke="#000000" d="M175.776,-130.7C163.7815,-130.7 156.3229,-130.7 139.5,-130.7"/>
<polygon fill="#000000" stroke="#000000" points="182.5,-130.7001 190.5,-134.3 186.5,-130.7 190.5,-130.7 190.5,-130.7 190.5,-130.7 186.5,-130.7 190.5,-127.1 182.5,-130.7001 182.5,-130.7001"/>
<ellipse fill="none" stroke="#000000" cx="179.3" cy="-130.7001" rx="3.2" ry="3.2"/>
</g>
<!-- point_aspect -->
<g id="node3" class="node">
<title>point_aspect</title>
<g id="a_node3"><a xlink:href="../../tables/point_aspect.html" xlink:title="point_aspect" target="_top">
<polygon fill="#ffffff" stroke="transparent" points="393,-267.7 393,-353.7 518,-353.7 518,-267.7 393,-267.7"/>
<polygon fill="#f5f5f5" stroke="transparent" points="393.5,-330.7 393.5,-353.7 518.5,-353.7 518.5,-330.7 393.5,-330.7"/>
<polygon fill="none" stroke="#000000" points="393.5,-330.7 393.5,-353.7 518.5,-353.7 518.5,-330.7 393.5,-330.7"/>
<text text-anchor="start" x="398.5" y="-339.3" font-family="Helvetica,sans-Serif" font-weight="bold" font-size="11.00" fill="#000000">point_aspect</text>
<text text-anchor="start" x="484.0219" y="-338.8" font-family="Helvetica,sans-Serif" font-size="11.00" fill="#000000">[table]</text>
<polygon fill="none" stroke="#000000" points="393.5,-308.7 393.5,-330.7 518.5,-330.7 518.5,-308.7 393.5,-308.7"/>
<image xlink:href="../../images/primaryKeys.png" width="11px" height="12px" preserveAspectRatio="xMinYMin meet" x="398.5" y="-325.7"/>
<text text-anchor="start" x="422.5" y="-315.8" font-family="Helvetica,sans-Serif" font-size="11.00" fill="#000000">point_id</text>
<polygon fill="none" stroke="#000000" points="393.5,-286.7 393.5,-308.7 518.5,-308.7 518.5,-286.7 393.5,-286.7"/>
<image xlink:href="../../images/primaryKeys.png" width="11px" height="12px" preserveAspectRatio="xMinYMin meet" x="398.5" y="-303.7"/>
<text text-anchor="start" x="422.5" y="-293.8" font-family="Helvetica,sans-Serif" font-size="11.00" fill="#000000">aspect_id</text>
<polygon fill="#ffffff" stroke="transparent" points="393.5,-267.7 393.5,-286.7 419.5,-286.7 419.5,-267.7 393.5,-267.7"/>
<polygon fill="none" stroke="#000000" points="393.5,-267.7 393.5,-286.7 419.5,-286.7 419.5,-267.7 393.5,-267.7"/>
<text text-anchor="start" x="396.5" y="-273.8" font-family="Helvetica,sans-Serif" font-size="11.00" fill="#000000">&lt; 2</text>
<polygon fill="#ffffff" stroke="transparent" points="419.5,-267.7 419.5,-286.7 503.5,-286.7 503.5,-267.7 419.5,-267.7"/>
<polygon fill="none" stroke="#000000" points="419.5,-267.7 419.5,-286.7 503.5,-286.7 503.5,-267.7 419.5,-267.7"/>
<text text-anchor="start" x="425.3073" y="-273.8" font-family="Helvetica,sans-Serif" font-size="11.00" fill="#000000">1.039.258 rows</text>
<polygon fill="#ffffff" stroke="transparent" points="503.5,-267.7 503.5,-286.7 518.5,-286.7 518.5,-267.7 503.5,-267.7"/>
<polygon fill="none" stroke="#000000" points="503.5,-267.7 503.5,-286.7 518.5,-286.7 518.5,-267.7 503.5,-267.7"/>
<text text-anchor="start" x="509.3862" y="-273.8" font-family="Helvetica,sans-Serif" font-size="11.00" fill="#000000"> &#160;</text>
</a>
</g>
</g>
<!-- point_aspect&#45;&gt;point -->
<g id="edge2" class="edge">
<title>point_aspect:w&#45;&gt;point:e</title>
<path fill="none" stroke="#000000" d="M379.1155,-316.8036C337.1511,-296.3673 400.7817,-174.7 337.5,-174.7"/>
<polygon fill="#000000" stroke="#000000" points="385.6574,-318.1208 392.7894,-323.2292 389.5787,-318.9104 393.5,-319.7 393.5,-319.7 393.5,-319.7 389.5787,-318.9104 394.2106,-316.1708 385.6574,-318.1208 385.6574,-318.1208"/>
<ellipse fill="none" stroke="#000000" cx="382.5204" cy="-317.4891" rx="3.2" ry="3.2"/>
</g>
<!-- point_point_dr -->
<g id="node4" class="node">
<title>point_point_dr</title>
<g id="a_node4"><a xlink:href="../../tables/point_point_dr.html" xlink:title="point_point_dr" target="_top">
<polygon fill="#ffffff" stroke="transparent" points="388,-160.7 388,-246.7 523,-246.7 523,-160.7 388,-160.7"/>
<polygon fill="#f5f5f5" stroke="transparent" points="388.5,-223.7 388.5,-246.7 523.5,-246.7 523.5,-223.7 388.5,-223.7"/>
<polygon fill="none" stroke="#000000" points="388.5,-223.7 388.5,-246.7 523.5,-246.7 523.5,-223.7 388.5,-223.7"/>
<text text-anchor="start" x="393.5" y="-232.3" font-family="Helvetica,sans-Serif" font-weight="bold" font-size="11.00" fill="#000000">point_point_dr</text>
<text text-anchor="start" x="489.0219" y="-231.8" font-family="Helvetica,sans-Serif" font-size="11.00" fill="#000000">[table]</text>
<polygon fill="none" stroke="#000000" points="388.5,-201.7 388.5,-223.7 523.5,-223.7 523.5,-201.7 388.5,-201.7"/>
<image xlink:href="../../images/primaryKeys.png" width="11px" height="12px" preserveAspectRatio="xMinYMin meet" x="393.5" y="-218.7"/>
<text text-anchor="start" x="417.5" y="-208.8" font-family="Helvetica,sans-Serif" font-size="11.00" fill="#000000">point_id</text>
<polygon fill="none" stroke="#000000" points="388.5,-179.7 388.5,-201.7 523.5,-201.7 523.5,-179.7 388.5,-179.7"/>
<image xlink:href="../../images/primaryKeys.png" width="11px" height="12px" preserveAspectRatio="xMinYMin meet" x="393.5" y="-196.7"/>
<text text-anchor="start" x="417.5" y="-186.8" font-family="Helvetica,sans-Serif" font-size="11.00" fill="#000000">rule_id</text>
<polygon fill="#ffffff" stroke="transparent" points="388.5,-160.7 388.5,-179.7 441.5,-179.7 441.5,-160.7 388.5,-160.7"/>
<polygon fill="none" stroke="#000000" points="388.5,-160.7 388.5,-179.7 441.5,-179.7 441.5,-160.7 388.5,-160.7"/>
<text text-anchor="start" x="391.5" y="-166.8" font-family="Helvetica,sans-Serif" font-size="11.00" fill="#000000">&lt; 2</text>
<polygon fill="#ffffff" stroke="transparent" points="441.5,-160.7 441.5,-179.7 495.5,-179.7 495.5,-160.7 441.5,-160.7"/>
<polygon fill="none" stroke="#000000" points="441.5,-160.7 441.5,-179.7 495.5,-179.7 495.5,-160.7 441.5,-160.7"/>
<text text-anchor="start" x="460.1105" y="-166.8" font-family="Helvetica,sans-Serif" font-size="11.00" fill="#000000">0 rows</text>
<polygon fill="#ffffff" stroke="transparent" points="495.5,-160.7 495.5,-179.7 523.5,-179.7 523.5,-160.7 495.5,-160.7"/>
<polygon fill="none" stroke="#000000" points="495.5,-160.7 495.5,-179.7 523.5,-179.7 523.5,-160.7 495.5,-160.7"/>
<text text-anchor="start" x="514.3862" y="-166.8" font-family="Helvetica,sans-Serif" font-size="11.00" fill="#000000"> &#160;</text>
</a>
</g>
</g>
<!-- point_point_dr&#45;&gt;point -->
<g id="edge3" class="edge">
<title>point_point_dr:w&#45;&gt;point:e</title>
<path fill="none" stroke="#000000" d="M374.4897,-208.3409C361.0637,-198.3595 359.8043,-174.7 337.5,-174.7"/>
<polygon fill="#000000" stroke="#000000" points="380.8612,-210.3233 387.4305,-216.1375 384.6806,-211.5116 388.5,-212.7 388.5,-212.7 388.5,-212.7 384.6806,-211.5116 389.5695,-209.2625 380.8612,-210.3233 380.8612,-210.3233"/>
<ellipse fill="none" stroke="#000000" cx="377.8057" cy="-209.3726" rx="3.2" ry="3.2"/>
</g>
<!-- point_repr_point -->
<g id="node5" class="node">
<title>point_repr_point</title>
<g id="a_node5"><a xlink:href="../../tables/point_repr_point.html" xlink:title="point_repr_point" target="_top">
<polygon fill="#ffffff" stroke="transparent" points="572,-66.7 572,-152.7 722,-152.7 722,-66.7 572,-66.7"/>
<polygon fill="#f5f5f5" stroke="transparent" points="572,-129.7 572,-152.7 722,-152.7 722,-129.7 572,-129.7"/>
<polygon fill="none" stroke="#000000" points="572,-129.7 572,-152.7 722,-152.7 722,-129.7 572,-129.7"/>
<text text-anchor="start" x="577" y="-138.3" font-family="Helvetica,sans-Serif" font-weight="bold" font-size="11.00" fill="#000000">point_repr_point</text>
<text text-anchor="start" x="687.5219" y="-137.8" font-family="Helvetica,sans-Serif" font-size="11.00" fill="#000000">[table]</text>
<polygon fill="none" stroke="#000000" points="572,-107.7 572,-129.7 722,-129.7 722,-107.7 572,-107.7"/>
<image xlink:href="../../images/primaryKeys.png" width="11px" height="12px" preserveAspectRatio="xMinYMin meet" x="577" y="-124.7"/>
<text text-anchor="start" x="601" y="-114.8" font-family="Helvetica,sans-Serif" font-size="11.00" fill="#000000">point_id</text>
<polygon fill="none" stroke="#000000" points="572,-85.7 572,-107.7 722,-107.7 722,-85.7 572,-85.7"/>
<image xlink:href="../../images/primaryKeys.png" width="11px" height="12px" preserveAspectRatio="xMinYMin meet" x="577" y="-102.7"/>
<text text-anchor="start" x="601" y="-92.8" font-family="Helvetica,sans-Serif" font-size="11.00" fill="#000000">repr_point_id</text>
<polygon fill="#ffffff" stroke="transparent" points="572,-66.7 572,-85.7 632,-85.7 632,-66.7 572,-66.7"/>
<polygon fill="none" stroke="#000000" points="572,-66.7 572,-85.7 632,-85.7 632,-66.7 572,-66.7"/>
<text text-anchor="start" x="575" y="-72.8" font-family="Helvetica,sans-Serif" font-size="11.00" fill="#000000">&lt; 2</text>
<polygon fill="#ffffff" stroke="transparent" points="632,-66.7 632,-85.7 690,-85.7 690,-66.7 632,-66.7"/>
<polygon fill="none" stroke="#000000" points="632,-66.7 632,-85.7 690,-85.7 690,-66.7 632,-66.7"/>
<text text-anchor="start" x="654.6105" y="-72.8" font-family="Helvetica,sans-Serif" font-size="11.00" fill="#000000">0 rows</text>
<polygon fill="#ffffff" stroke="transparent" points="690,-66.7 690,-85.7 722,-85.7 722,-66.7 690,-66.7"/>
<polygon fill="none" stroke="#000000" points="690,-66.7 690,-85.7 722,-85.7 722,-66.7 690,-66.7"/>
<text text-anchor="start" x="712.8862" y="-72.8" font-family="Helvetica,sans-Serif" font-size="11.00" fill="#000000"> &#160;</text>
</a>
</g>
</g>
<!-- point_repr_point&#45;&gt;point -->
<g id="edge4" class="edge">
<title>point_repr_point:w&#45;&gt;point:e</title>
<path fill="none" stroke="#000000" d="M557.6464,-120.4031C513.9664,-126.5842 388.6827,-147.6325 380,-150.7 359.5464,-157.9261 359.1926,-174.7 337.5,-174.7"/>
<polygon fill="#000000" stroke="#000000" points="564.0557,-119.6427 572.4242,-122.2749 568.0279,-119.1713 572,-118.7 572,-118.7 572,-118.7 568.0279,-119.1713 571.5758,-115.1251 564.0557,-119.6427 564.0557,-119.6427"/>
<ellipse fill="none" stroke="#000000" cx="560.878" cy="-120.0198" rx="3.2" ry="3.2"/>
</g>
<!-- repr_point -->
<g id="node6" class="node">
<title>repr_point</title>
<g id="a_node6"><a xlink:href="../../tables/repr_point.html" xlink:title="repr_point" target="_top">
<polygon fill="#ffffff" stroke="transparent" points="401,-48.7 401,-112.7 510,-112.7 510,-48.7 401,-48.7"/>
<polygon fill="#f5f5f5" stroke="transparent" points="401.5,-89.7 401.5,-112.7 510.5,-112.7 510.5,-89.7 401.5,-89.7"/>
<polygon fill="none" stroke="#000000" points="401.5,-89.7 401.5,-112.7 510.5,-112.7 510.5,-89.7 401.5,-89.7"/>
<text text-anchor="start" x="406.5" y="-98.3" font-family="Helvetica,sans-Serif" font-weight="bold" font-size="11.00" fill="#000000">repr_point</text>
<text text-anchor="start" x="476.0219" y="-97.8" font-family="Helvetica,sans-Serif" font-size="11.00" fill="#000000">[table]</text>
<polygon fill="none" stroke="#000000" points="401.5,-67.7 401.5,-89.7 510.5,-89.7 510.5,-67.7 401.5,-67.7"/>
<image xlink:href="../../images/primaryKeys.png" width="11px" height="12px" preserveAspectRatio="xMinYMin meet" x="406.5" y="-84.7"/>
<text text-anchor="start" x="421.5" y="-74.8" font-family="Helvetica,sans-Serif" font-size="11.00" fill="#000000">repr_point_id</text>
<polygon fill="#ffffff" stroke="transparent" points="401.5,-48.7 401.5,-67.7 436.5,-67.7 436.5,-48.7 401.5,-48.7"/>
<polygon fill="none" stroke="#000000" points="401.5,-48.7 401.5,-67.7 436.5,-67.7 436.5,-48.7 401.5,-48.7"/>
<text text-anchor="start" x="404.5" y="-54.8" font-family="Helvetica,sans-Serif" font-size="11.00" fill="#000000">&lt; 1</text>
<polygon fill="#ffffff" stroke="transparent" points="436.5,-48.7 436.5,-67.7 481.5,-67.7 481.5,-48.7 436.5,-48.7"/>
<polygon fill="none" stroke="#000000" points="436.5,-48.7 436.5,-67.7 481.5,-67.7 481.5,-48.7 436.5,-48.7"/>
<text text-anchor="start" x="446.1105" y="-54.8" font-family="Helvetica,sans-Serif" font-size="11.00" fill="#000000">0 rows</text>
<polygon fill="#ffffff" stroke="transparent" points="481.5,-48.7 481.5,-67.7 510.5,-67.7 510.5,-48.7 481.5,-48.7"/>
<polygon fill="none" stroke="#000000" points="481.5,-48.7 481.5,-67.7 510.5,-67.7 510.5,-48.7 481.5,-48.7"/>
<text text-anchor="start" x="491.9053" y="-54.8" font-family="Helvetica,sans-Serif" font-size="11.00" fill="#000000">1 &gt;</text>
</a>
</g>
</g>
<!-- point_repr_point&#45;&gt;repr_point -->
<g id="edge5" class="edge">
<title>point_repr_point:w&#45;&gt;repr_point:e</title>
<path fill="none" stroke="#000000" d="M557.6955,-94.9083C540.8333,-90.3554 533.4175,-78.7 510.5,-78.7"/>
<polygon fill="#000000" stroke="#000000" points="564.062,-95.7057 571.5526,-100.2721 568.031,-96.2028 572,-96.7 572,-96.7 572,-96.7 568.031,-96.2028 572.4474,-93.1279 564.062,-95.7057 564.062,-95.7057"/>
<ellipse fill="none" stroke="#000000" cx="560.8868" cy="-95.308" rx="3.2" ry="3.2"/>
</g>
<!-- repr_point&#45;&gt;point -->
<g id="edge6" class="edge">
<title>repr_point:w&#45;&gt;point:e</title>
<path fill="none" stroke="#000000" d="M391.0408,-80.3663C355.6974,-93.1141 384.7728,-174.7 337.5,-174.7"/>
<polygon fill="#000000" stroke="#000000" points="400.0806,-74.8757 401.3393,-82.7761 399.7592,-83.0278 398.5006,-75.1274 400.0806,-74.8757"/>
<polyline fill="none" stroke="#000000" points="401.5,-78.7 397.5498,-79.3293 "/>
<ellipse fill="none" stroke="#000000" cx="394.3897" cy="-79.8328" rx="3.2" ry="3.2"/>
</g>
</g>
</svg>
