<?xml version="1.0" encoding="UTF-8" standalone="no"?>
<!DOCTYPE svg PUBLIC "-//W3C//DTD SVG 1.1//EN"
 "http://www.w3.org/Graphics/SVG/1.1/DTD/svg11.dtd">
<!-- Generated by graphviz version 2.40.1 (20161225.0304)
 -->
<!-- Title: oneDegreeRelationshipsDiagram Pages: 1 -->
<svg width="359pt" height="241pt"
 viewBox="0.00 0.00 359.00 240.70" xmlns="http://www.w3.org/2000/svg" xmlns:xlink="http://www.w3.org/1999/xlink">
<g id="graph0" class="graph" transform="scale(1 1) rotate(0) translate(4 236.7)">
<title>oneDegreeRelationshipsDiagram</title>
<polygon fill="#ffffff" stroke="transparent" points="-4,4 -4,-236.7 355,-236.7 355,4 -4,4"/>
<text text-anchor="middle" x="72.4936" y="-7.3" font-family="Helvetica,sans-Serif" font-size="11.00" fill="#000000">Generated by SchemaSpy</text>
<!-- point_point_dr -->
<g id="node1" class="node">
<title>point_point_dr</title>
<g id="a_node1"><a xlink:href="../../tables/point_point_dr.html" xlink:title="point_point_dr" target="_top">
<polygon fill="#ffffff" stroke="transparent" points="180,-88.2 180,-178.2 343,-178.2 343,-88.2 180,-88.2"/>
<polygon fill="#f5f5f5" stroke="transparent" points="182.5,-153.2 182.5,-176.2 341.5,-176.2 341.5,-153.2 182.5,-153.2"/>
<polygon fill="none" stroke="#000000" points="182.5,-153.2 182.5,-176.2 341.5,-176.2 341.5,-153.2 182.5,-153.2"/>
<text text-anchor="start" x="187.5" y="-161.8" font-family="Helvetica,sans-Serif" font-weight="bold" font-size="11.00" fill="#000000">point_point_dr</text>
<text text-anchor="start" x="306.5437" y="-161.3" font-family="Helvetica,sans-Serif" font-size="11.00" fill="#000000">[table]</text>
<polygon fill="none" stroke="#000000" points="182.5,-131.2 182.5,-153.2 299.5,-153.2 299.5,-131.2 182.5,-131.2"/>
<image xlink:href="../../images/primaryKeys.png" width="11px" height="12px" preserveAspectRatio="xMinYMin meet" x="187.5" y="-148.2"/>
<text text-anchor="start" x="202.5" y="-138.3" font-family="Helvetica,sans-Serif" font-size="11.00" fill="#000000">point_id</text>
<polygon fill="none" stroke="#000000" points="299.5,-131.2 299.5,-153.2 341.5,-153.2 341.5,-131.2 299.5,-131.2"/>
<text text-anchor="start" x="302.4644" y="-138.9" font-family="Helvetica,sans-Serif" font-size="11.00" fill="#000000">int4[10]</text>
<polygon fill="none" stroke="#000000" points="182.5,-109.2 182.5,-131.2 299.5,-131.2 299.5,-109.2 182.5,-109.2"/>
<image xlink:href="../../images/primaryKeys.png" width="11px" height="12px" preserveAspectRatio="xMinYMin meet" x="187.5" y="-126.2"/>
<text text-anchor="start" x="202.5" y="-116.3" font-family="Helvetica,sans-Serif" font-size="11.00" fill="#000000">rule_id</text>
<polygon fill="none" stroke="#000000" points="299.5,-109.2 299.5,-131.2 341.5,-131.2 341.5,-109.2 299.5,-109.2"/>
<text text-anchor="start" x="302.4644" y="-116.9" font-family="Helvetica,sans-Serif" font-size="11.00" fill="#000000">int4[10]</text>
<polygon fill="#ffffff" stroke="transparent" points="182.5,-90.2 182.5,-109.2 232.5,-109.2 232.5,-90.2 182.5,-90.2"/>
<polygon fill="none" stroke="#000000" points="182.5,-90.2 182.5,-109.2 232.5,-109.2 232.5,-90.2 182.5,-90.2"/>
<text text-anchor="start" x="185.5" y="-96.3" font-family="Helvetica,sans-Serif" font-size="11.00" fill="#000000">&lt; 2</text>
<polygon fill="#ffffff" stroke="transparent" points="232.5,-90.2 232.5,-109.2 299.5,-109.2 299.5,-90.2 232.5,-90.2"/>
<polygon fill="none" stroke="#000000" points="232.5,-90.2 232.5,-109.2 299.5,-109.2 299.5,-90.2 232.5,-90.2"/>
<text text-anchor="start" x="264.1105" y="-96.3" font-family="Helvetica,sans-Serif" font-size="11.00" fill="#000000">0 rows</text>
<polygon fill="#ffffff" stroke="transparent" points="299.5,-90.2 299.5,-109.2 341.5,-109.2 341.5,-90.2 299.5,-90.2"/>
<polygon fill="none" stroke="#000000" points="299.5,-90.2 299.5,-109.2 341.5,-109.2 341.5,-90.2 299.5,-90.2"/>
<text text-anchor="start" x="322.9053" y="-96.3" font-family="Helvetica,sans-Serif" font-size="11.00" fill="#000000">0 &gt;</text>
<polygon fill="none" stroke="#000000" stroke-width="2" points="181,-89.2 181,-177.2 342,-177.2 342,-89.2 181,-89.2"/>
</a>
</g>
</g>
<!-- point -->
<g id="node2" class="node">
<title>point</title>
<g id="a_node2"><a xlink:href="../../tables/point.html" xlink:title="point" target="_top">
<polygon fill="#ffffff" stroke="transparent" points="8,-123.7 8,-228.7 131,-228.7 131,-123.7 8,-123.7"/>
<polygon fill="#f5f5f5" stroke="transparent" points="8.5,-205.2 8.5,-228.2 131.5,-228.2 131.5,-205.2 8.5,-205.2"/>
<polygon fill="none" stroke="#000000" points="8.5,-205.2 8.5,-228.2 131.5,-228.2 131.5,-205.2 8.5,-205.2"/>
<text text-anchor="start" x="13.5" y="-213.8" font-family="Helvetica,sans-Serif" font-weight="bold" font-size="11.00" fill="#000000">point</text>
<text text-anchor="start" x="96.5437" y="-213.3" font-family="Helvetica,sans-Serif" font-size="11.00" fill="#000000">[table]</text>
<polygon fill="none" stroke="#000000" points="8.5,-183.2 8.5,-205.2 131.5,-205.2 131.5,-183.2 8.5,-183.2"/>
<image xlink:href="../../images/primaryKeys.png" width="11px" height="12px" preserveAspectRatio="xMinYMin meet" x="13.5" y="-200.2"/>
<text text-anchor="start" x="53.5" y="-190.3" font-family="Helvetica,sans-Serif" font-size="11.00" fill="#000000">point_id</text>
<polygon fill="#ffffff" stroke="transparent" points="8.5,-161.2 8.5,-183.2 131.5,-183.2 131.5,-161.2 8.5,-161.2"/>
<polygon fill="none" stroke="#000000" points="8.5,-161.2 8.5,-183.2 131.5,-183.2 131.5,-161.2 8.5,-161.2"/>
<image xlink:href="../../images/foreignKeys.png" width="11px" height="12px" preserveAspectRatio="xMinYMin meet" x="13.5" y="-178.2"/>
<text text-anchor="start" x="53.5" y="-168.3" font-family="Helvetica,sans-Serif" font-size="11.00" fill="#000000">mat_id</text>
<polygon fill="none" stroke="#000000" points="8.5,-142.2 8.5,-161.2 131.5,-161.2 131.5,-142.2 8.5,-142.2"/>
<text text-anchor="start" x="11.5" y="-148.3" font-family="Helvetica,sans-Serif" font-size="11.00" fill="#000000">...</text>
<polygon fill="#ffffff" stroke="transparent" points="8.5,-123.2 8.5,-142.2 29.5,-142.2 29.5,-123.2 8.5,-123.2"/>
<polygon fill="none" stroke="#000000" points="8.5,-123.2 8.5,-142.2 29.5,-142.2 29.5,-123.2 8.5,-123.2"/>
<text text-anchor="start" x="11.2027" y="-129.3" font-family="Helvetica,sans-Serif" font-size="11.00" fill="#000000">&lt; 1</text>
<polygon fill="#ffffff" stroke="transparent" points="29.5,-123.2 29.5,-142.2 110.5,-142.2 110.5,-123.2 29.5,-123.2"/>
<polygon fill="none" stroke="#000000" points="29.5,-123.2 29.5,-142.2 110.5,-142.2 110.5,-123.2 29.5,-123.2"/>
<text text-anchor="start" x="32.4037" y="-129.3" font-family="Helvetica,sans-Serif" font-size="11.00" fill="#000000">1.039.258 rows</text>
<polygon fill="#ffffff" stroke="transparent" points="110.5,-123.2 110.5,-142.2 131.5,-142.2 131.5,-123.2 110.5,-123.2"/>
<polygon fill="none" stroke="#000000" points="110.5,-123.2 110.5,-142.2 131.5,-142.2 131.5,-123.2 110.5,-123.2"/>
<text text-anchor="start" x="113.2027" y="-129.3" font-family="Helvetica,sans-Serif" font-size="11.00" fill="#000000">4 &gt;</text>
</a>
</g>
</g>
<!-- point_point_dr&#45;&gt;point -->
<g id="edge1" class="edge">
<title>point_point_dr:w&#45;&gt;point:e</title>
<path fill="none" stroke="#000000" d="M168.5468,-146.9988C153.661,-159.8719 157.8017,-194.2 131.5,-194.2"/>
<polygon fill="#000000" stroke="#000000" points="174.9349,-144.8018 183.6708,-145.6043 178.7175,-143.5009 182.5,-142.2 182.5,-142.2 182.5,-142.2 178.7175,-143.5009 181.3292,-138.7957 174.9349,-144.8018 174.9349,-144.8018"/>
<ellipse fill="none" stroke="#000000" cx="171.9089" cy="-145.8426" rx="3.2" ry="3.2"/>
</g>
<!-- point_dr -->
<g id="node3" class="node">
<title>point_dr</title>
<g id="a_node3"><a xlink:href="../../tables/point_dr.html" xlink:title="point_dr" target="_top">
<polygon fill="#ffffff" stroke="transparent" points="22.5,-38.2 22.5,-102.2 116.5,-102.2 116.5,-38.2 22.5,-38.2"/>
<polygon fill="#f5f5f5" stroke="transparent" points="22.5,-79.2 22.5,-102.2 116.5,-102.2 116.5,-79.2 22.5,-79.2"/>
<polygon fill="none" stroke="#000000" points="22.5,-79.2 22.5,-102.2 116.5,-102.2 116.5,-79.2 22.5,-79.2"/>
<text text-anchor="start" x="27.5" y="-87.8" font-family="Helvetica,sans-Serif" font-weight="bold" font-size="11.00" fill="#000000">point_dr</text>
<text text-anchor="start" x="82.0219" y="-87.3" font-family="Helvetica,sans-Serif" font-size="11.00" fill="#000000">[table]</text>
<polygon fill="none" stroke="#000000" points="22.5,-57.2 22.5,-79.2 116.5,-79.2 116.5,-57.2 22.5,-57.2"/>
<image xlink:href="../../images/primaryKeys.png" width="11px" height="12px" preserveAspectRatio="xMinYMin meet" x="27.5" y="-74.2"/>
<text text-anchor="start" x="51.5" y="-64.3" font-family="Helvetica,sans-Serif" font-size="11.00" fill="#000000">rule_id</text>
<polygon fill="#ffffff" stroke="transparent" points="22.5,-38.2 22.5,-57.2 50.5,-57.2 50.5,-38.2 22.5,-38.2"/>
<polygon fill="none" stroke="#000000" points="22.5,-38.2 22.5,-57.2 50.5,-57.2 50.5,-38.2 22.5,-38.2"/>
<text text-anchor="start" x="25.5" y="-44.3" font-family="Helvetica,sans-Serif" font-size="11.00" fill="#000000">&lt; 1</text>
<polygon fill="#ffffff" stroke="transparent" points="50.5,-38.2 50.5,-57.2 91.5,-57.2 91.5,-38.2 50.5,-38.2"/>
<polygon fill="none" stroke="#000000" points="50.5,-38.2 50.5,-57.2 91.5,-57.2 91.5,-38.2 50.5,-38.2"/>
<text text-anchor="start" x="56.1105" y="-44.3" font-family="Helvetica,sans-Serif" font-size="11.00" fill="#000000">0 rows</text>
<polygon fill="#ffffff" stroke="transparent" points="91.5,-38.2 91.5,-57.2 116.5,-57.2 116.5,-38.2 91.5,-38.2"/>
<polygon fill="none" stroke="#000000" points="91.5,-38.2 91.5,-57.2 116.5,-57.2 116.5,-38.2 91.5,-38.2"/>
<text text-anchor="start" x="97.9053" y="-44.3" font-family="Helvetica,sans-Serif" font-size="11.00" fill="#000000">1 &gt;</text>
</a>
</g>
</g>
<!-- point_point_dr&#45;&gt;point_dr -->
<g id="edge2" class="edge">
<title>point_point_dr:w&#45;&gt;point_dr:e</title>
<path fill="none" stroke="#000000" d="M168.3122,-116.9472C146.7348,-105.5631 148.1548,-68.2 116.5,-68.2"/>
<polygon fill="#000000" stroke="#000000" points="174.7023,-118.4122 181.6955,-123.709 178.6012,-119.3061 182.5,-120.2 182.5,-120.2 182.5,-120.2 178.6012,-119.3061 183.3045,-116.691 174.7023,-118.4122 174.7023,-118.4122"/>
<ellipse fill="none" stroke="#000000" cx="171.5832" cy="-117.6971" rx="3.2" ry="3.2"/>
</g>
</g>
</svg>
