<?xml version="1.0" encoding="UTF-8" standalone="no"?>
<!DOCTYPE svg PUBLIC "-//W3C//DTD SVG 1.1//EN"
 "http://www.w3.org/Graphics/SVG/1.1/DTD/svg11.dtd">
<!-- Generated by graphviz version 2.40.1 (20161225.0304)
 -->
<!-- Title: twoDegreesRelationshipsDiagram Pages: 1 -->
<svg width="718pt" height="744pt"
 viewBox="0.00 0.00 718.00 743.90" xmlns="http://www.w3.org/2000/svg" xmlns:xlink="http://www.w3.org/1999/xlink">
<g id="graph0" class="graph" transform="scale(1 1) rotate(0) translate(4 739.8997)">
<title>twoDegreesRelationshipsDiagram</title>
<polygon fill="#ffffff" stroke="transparent" points="-4,4 -4,-739.8997 714,-739.8997 714,4 -4,4"/>
<text text-anchor="middle" x="72.4936" y="-7.3" font-family="Helvetica,sans-Serif" font-size="11.00" fill="#000000">Generated by SchemaSpy</text>
<!-- aspect -->
<g id="node1" class="node">
<title>aspect</title>
<g id="a_node1"><a xlink:href="../../tables/aspect.html" xlink:title="aspect" target="_top">
<polygon fill="#ffffff" stroke="transparent" points="178.5,-400.8997 178.5,-527.8997 298.5,-527.8997 298.5,-400.8997 178.5,-400.8997"/>
<polygon fill="#f5f5f5" stroke="transparent" points="178.5,-504.3997 178.5,-527.3997 298.5,-527.3997 298.5,-504.3997 178.5,-504.3997"/>
<polygon fill="none" stroke="#000000" points="178.5,-504.3997 178.5,-527.3997 298.5,-527.3997 298.5,-504.3997 178.5,-504.3997"/>
<text text-anchor="start" x="183.5" y="-512.9997" font-family="Helvetica,sans-Serif" font-weight="bold" font-size="11.00" fill="#000000">aspect</text>
<text text-anchor="start" x="263.5437" y="-512.4997" font-family="Helvetica,sans-Serif" font-size="11.00" fill="#000000">[table]</text>
<polygon fill="none" stroke="#000000" points="178.5,-482.3997 178.5,-504.3997 298.5,-504.3997 298.5,-482.3997 178.5,-482.3997"/>
<image xlink:href="../../images/primaryKeys.png" width="11px" height="12px" preserveAspectRatio="xMinYMin meet" x="183.5" y="-499.4"/>
<text text-anchor="start" x="198.5" y="-489.4997" font-family="Helvetica,sans-Serif" font-size="11.00" fill="#000000">aspect_id</text>
<polygon fill="#ffffff" stroke="transparent" points="178.5,-460.3997 178.5,-482.3997 298.5,-482.3997 298.5,-460.3997 178.5,-460.3997"/>
<polygon fill="none" stroke="#000000" points="178.5,-460.3997 178.5,-482.3997 298.5,-482.3997 298.5,-460.3997 178.5,-460.3997"/>
<text text-anchor="start" x="198.5" y="-467.4997" font-family="Helvetica,sans-Serif" font-size="11.00" fill="#000000">description</text>
<polygon fill="#ffffff" stroke="transparent" points="178.5,-438.3997 178.5,-460.3997 298.5,-460.3997 298.5,-438.3997 178.5,-438.3997"/>
<polygon fill="none" stroke="#000000" points="178.5,-438.3997 178.5,-460.3997 298.5,-460.3997 298.5,-438.3997 178.5,-438.3997"/>
<image xlink:href="../../images/foreignKeys.png" width="11px" height="12px" preserveAspectRatio="xMinYMin meet" x="183.5" y="-455.4"/>
<text text-anchor="start" x="198.5" y="-445.4997" font-family="Helvetica,sans-Serif" font-size="11.00" fill="#000000">aspect_type_id</text>
<polygon fill="none" stroke="#000000" points="178.5,-419.3997 178.5,-438.3997 298.5,-438.3997 298.5,-419.3997 178.5,-419.3997"/>
<text text-anchor="start" x="181.5" y="-425.4997" font-family="Helvetica,sans-Serif" font-size="11.00" fill="#000000">...</text>
<polygon fill="#ffffff" stroke="transparent" points="178.5,-400.3997 178.5,-419.3997 208.5,-419.3997 208.5,-400.3997 178.5,-400.3997"/>
<polygon fill="none" stroke="#000000" points="178.5,-400.3997 178.5,-419.3997 208.5,-419.3997 208.5,-400.3997 178.5,-400.3997"/>
<text text-anchor="start" x="181.5" y="-406.4997" font-family="Helvetica,sans-Serif" font-size="11.00" fill="#000000">&lt; 1</text>
<polygon fill="#ffffff" stroke="transparent" points="208.5,-400.3997 208.5,-419.3997 272.5,-419.3997 272.5,-400.3997 208.5,-400.3997"/>
<polygon fill="none" stroke="#000000" points="208.5,-400.3997 208.5,-419.3997 272.5,-419.3997 272.5,-400.3997 208.5,-400.3997"/>
<text text-anchor="start" x="215.7089" y="-406.4997" font-family="Helvetica,sans-Serif" font-size="11.00" fill="#000000">2.300 rows</text>
<polygon fill="#ffffff" stroke="transparent" points="272.5,-400.3997 272.5,-419.3997 298.5,-419.3997 298.5,-400.3997 272.5,-400.3997"/>
<polygon fill="none" stroke="#000000" points="272.5,-400.3997 272.5,-419.3997 298.5,-419.3997 298.5,-400.3997 272.5,-400.3997"/>
<text text-anchor="start" x="279.9053" y="-406.4997" font-family="Helvetica,sans-Serif" font-size="11.00" fill="#000000">6 &gt;</text>
</a>
</g>
</g>
<!-- aspect_type -->
<g id="node2" class="node">
<title>aspect_type</title>
<g id="a_node2"><a xlink:href="../../tables/aspect_type.html" xlink:title="aspect_type" target="_top">
<polygon fill="#ffffff" stroke="transparent" points="8,-421.8997 8,-482.8997 128,-482.8997 128,-421.8997 8,-421.8997"/>
<polygon fill="#f5f5f5" stroke="transparent" points="8,-459.3997 8,-482.3997 128,-482.3997 128,-459.3997 8,-459.3997"/>
<polygon fill="none" stroke="#000000" points="8,-459.3997 8,-482.3997 128,-482.3997 128,-459.3997 8,-459.3997"/>
<text text-anchor="start" x="13" y="-467.9997" font-family="Helvetica,sans-Serif" font-weight="bold" font-size="11.00" fill="#000000">aspect_type</text>
<text text-anchor="start" x="93.5219" y="-467.4997" font-family="Helvetica,sans-Serif" font-size="11.00" fill="#000000">[table]</text>
<polygon fill="none" stroke="#000000" points="8,-440.3997 8,-459.3997 128,-459.3997 128,-440.3997 8,-440.3997"/>
<text text-anchor="start" x="11" y="-446.4997" font-family="Helvetica,sans-Serif" font-size="11.00" fill="#000000">...</text>
<polygon fill="#ffffff" stroke="transparent" points="8,-421.3997 8,-440.3997 49,-440.3997 49,-421.3997 8,-421.3997"/>
<polygon fill="none" stroke="#000000" points="8,-421.3997 8,-440.3997 49,-440.3997 49,-421.3997 8,-421.3997"/>
<text text-anchor="start" x="11" y="-427.4997" font-family="Helvetica,sans-Serif" font-size="11.00" fill="#000000">&lt; 1</text>
<polygon fill="#ffffff" stroke="transparent" points="49,-421.3997 49,-440.3997 97,-440.3997 97,-421.3997 49,-421.3997"/>
<polygon fill="none" stroke="#000000" points="49,-421.3997 49,-440.3997 97,-440.3997 97,-421.3997 49,-421.3997"/>
<text text-anchor="start" x="61.6105" y="-427.4997" font-family="Helvetica,sans-Serif" font-size="11.00" fill="#000000">4 rows</text>
<polygon fill="#ffffff" stroke="transparent" points="97,-421.3997 97,-440.3997 128,-440.3997 128,-421.3997 97,-421.3997"/>
<polygon fill="none" stroke="#000000" points="97,-421.3997 97,-440.3997 128,-440.3997 128,-421.3997 97,-421.3997"/>
<text text-anchor="start" x="109.4053" y="-427.4997" font-family="Helvetica,sans-Serif" font-size="11.00" fill="#000000">4 &gt;</text>
</a>
</g>
</g>
<!-- aspect&#45;&gt;aspect_type -->
<g id="edge1" class="edge">
<title>aspect:w&#45;&gt;aspect_type:e</title>
<path fill="none" stroke="#000000" d="M163.9203,-449.3997C152.0435,-449.3997 144.658,-449.3997 128,-449.3997"/>
<polygon fill="#000000" stroke="#000000" points="170.5,-449.3998 178.5,-452.9997 174.5,-449.3998 178.5,-449.3997 178.5,-449.3997 178.5,-449.3997 174.5,-449.3998 178.5,-445.7997 170.5,-449.3998 170.5,-449.3998"/>
<ellipse fill="none" stroke="#000000" cx="167.3" cy="-449.3998" rx="3.2" ry="3.2"/>
</g>
<!-- aspect_attribute -->
<g id="node3" class="node">
<title>aspect_attribute</title>
<g id="a_node3"><a xlink:href="../../tables/aspect_attribute.html" xlink:title="aspect_attribute" target="_top">
<polygon fill="#ffffff" stroke="transparent" points="351,-424.8997 351,-485.8997 501,-485.8997 501,-424.8997 351,-424.8997"/>
<polygon fill="#f5f5f5" stroke="transparent" points="351,-462.3997 351,-485.3997 501,-485.3997 501,-462.3997 351,-462.3997"/>
<polygon fill="none" stroke="#000000" points="351,-462.3997 351,-485.3997 501,-485.3997 501,-462.3997 351,-462.3997"/>
<text text-anchor="start" x="356" y="-470.9997" font-family="Helvetica,sans-Serif" font-weight="bold" font-size="11.00" fill="#000000">aspect_attribute</text>
<text text-anchor="start" x="466.5219" y="-470.4997" font-family="Helvetica,sans-Serif" font-size="11.00" fill="#000000">[table]</text>
<polygon fill="none" stroke="#000000" points="351,-443.3997 351,-462.3997 501,-462.3997 501,-443.3997 351,-443.3997"/>
<text text-anchor="start" x="354" y="-449.4997" font-family="Helvetica,sans-Serif" font-size="11.00" fill="#000000">...</text>
<polygon fill="#ffffff" stroke="transparent" points="351,-424.3997 351,-443.3997 401,-443.3997 401,-424.3997 351,-424.3997"/>
<polygon fill="none" stroke="#000000" points="351,-424.3997 351,-443.3997 401,-443.3997 401,-424.3997 351,-424.3997"/>
<text text-anchor="start" x="354" y="-430.4997" font-family="Helvetica,sans-Serif" font-size="11.00" fill="#000000">&lt; 3</text>
<polygon fill="#ffffff" stroke="transparent" points="401,-424.3997 401,-443.3997 474,-443.3997 474,-424.3997 401,-424.3997"/>
<polygon fill="none" stroke="#000000" points="401,-424.3997 401,-443.3997 474,-443.3997 474,-424.3997 401,-424.3997"/>
<text text-anchor="start" x="417.2089" y="-430.4997" font-family="Helvetica,sans-Serif" font-size="11.00" fill="#000000">6.100 rows</text>
<polygon fill="#ffffff" stroke="transparent" points="474,-424.3997 474,-443.3997 501,-443.3997 501,-424.3997 474,-424.3997"/>
<polygon fill="none" stroke="#000000" points="474,-424.3997 474,-443.3997 501,-443.3997 501,-424.3997 474,-424.3997"/>
<text text-anchor="start" x="491.8862" y="-430.4997" font-family="Helvetica,sans-Serif" font-size="11.00" fill="#000000"> &#160;</text>
</a>
</g>
</g>
<!-- aspect_attribute&#45;&gt;aspect -->
<g id="edge2" class="edge">
<title>aspect_attribute:w&#45;&gt;aspect:e</title>
<path fill="none" stroke="#000000" d="M336.8456,-456.7875C322.6224,-467.3643 322.092,-493.3997 298.5,-493.3997"/>
<polygon fill="#000000" stroke="#000000" points="343.3587,-454.7685 352.0659,-455.8383 347.1794,-453.5841 351,-452.3997 351,-452.3997 351,-452.3997 347.1794,-453.5841 349.9341,-448.9612 343.3587,-454.7685 343.3587,-454.7685"/>
<ellipse fill="none" stroke="#000000" cx="340.3022" cy="-455.716" rx="3.2" ry="3.2"/>
</g>
<!-- mat_aspect -->
<g id="node4" class="node">
<title>mat_aspect</title>
<g id="a_node4"><a xlink:href="../../tables/mat_aspect.html" xlink:title="mat_aspect" target="_top">
<polygon fill="#ffffff" stroke="transparent" points="368,-342.8997 368,-403.8997 484,-403.8997 484,-342.8997 368,-342.8997"/>
<polygon fill="#f5f5f5" stroke="transparent" points="368,-380.3997 368,-403.3997 484,-403.3997 484,-380.3997 368,-380.3997"/>
<polygon fill="none" stroke="#000000" points="368,-380.3997 368,-403.3997 484,-403.3997 484,-380.3997 368,-380.3997"/>
<text text-anchor="start" x="373" y="-388.9997" font-family="Helvetica,sans-Serif" font-weight="bold" font-size="11.00" fill="#000000">mat_aspect</text>
<text text-anchor="start" x="449.5219" y="-388.4997" font-family="Helvetica,sans-Serif" font-size="11.00" fill="#000000">[table]</text>
<polygon fill="none" stroke="#000000" points="368,-361.3997 368,-380.3997 484,-380.3997 484,-361.3997 368,-361.3997"/>
<text text-anchor="start" x="371" y="-367.4997" font-family="Helvetica,sans-Serif" font-size="11.00" fill="#000000">...</text>
<polygon fill="#ffffff" stroke="transparent" points="368,-342.3997 368,-361.3997 411,-361.3997 411,-342.3997 368,-342.3997"/>
<polygon fill="none" stroke="#000000" points="368,-342.3997 368,-361.3997 411,-361.3997 411,-342.3997 368,-342.3997"/>
<text text-anchor="start" x="371" y="-348.4997" font-family="Helvetica,sans-Serif" font-size="11.00" fill="#000000">&lt; 2</text>
<polygon fill="#ffffff" stroke="transparent" points="411,-342.3997 411,-361.3997 460,-361.3997 460,-342.3997 411,-342.3997"/>
<polygon fill="none" stroke="#000000" points="411,-342.3997 411,-361.3997 460,-361.3997 460,-342.3997 411,-342.3997"/>
<text text-anchor="start" x="424.6105" y="-348.4997" font-family="Helvetica,sans-Serif" font-size="11.00" fill="#000000">0 rows</text>
<polygon fill="#ffffff" stroke="transparent" points="460,-342.3997 460,-361.3997 484,-361.3997 484,-342.3997 460,-342.3997"/>
<polygon fill="none" stroke="#000000" points="460,-342.3997 460,-361.3997 484,-361.3997 484,-342.3997 460,-342.3997"/>
<text text-anchor="start" x="474.8862" y="-348.4997" font-family="Helvetica,sans-Serif" font-size="11.00" fill="#000000"> &#160;</text>
</a>
</g>
</g>
<!-- mat_aspect&#45;&gt;aspect -->
<g id="edge3" class="edge">
<title>mat_aspect:w&#45;&gt;aspect:e</title>
<path fill="none" stroke="#000000" d="M353.7823,-373.1999C314.3275,-391.5085 355.6486,-493.3997 298.5,-493.3997"/>
<polygon fill="#000000" stroke="#000000" points="360.1508,-371.9457 368.6957,-373.9319 364.0754,-371.1727 368,-370.3997 368,-370.3997 368,-370.3997 364.0754,-371.1727 367.3043,-366.8676 360.1508,-371.9457 360.1508,-371.9457"/>
<ellipse fill="none" stroke="#000000" cx="357.0111" cy="-372.564" rx="3.2" ry="3.2"/>
</g>
<!-- mat -->
<g id="node5" class="node">
<title>mat</title>
<g id="a_node5"><a xlink:href="../../tables/mat.html" xlink:title="mat" target="_top">
<polygon fill="#ffffff" stroke="transparent" points="11,-212.8997 11,-273.8997 125,-273.8997 125,-212.8997 11,-212.8997"/>
<polygon fill="#f5f5f5" stroke="transparent" points="11,-250.3997 11,-273.3997 125,-273.3997 125,-250.3997 11,-250.3997"/>
<polygon fill="none" stroke="#000000" points="11,-250.3997 11,-273.3997 125,-273.3997 125,-250.3997 11,-250.3997"/>
<text text-anchor="start" x="16" y="-258.9997" font-family="Helvetica,sans-Serif" font-weight="bold" font-size="11.00" fill="#000000">mat</text>
<text text-anchor="start" x="90.0437" y="-258.4997" font-family="Helvetica,sans-Serif" font-size="11.00" fill="#000000">[table]</text>
<polygon fill="none" stroke="#000000" points="11,-231.3997 11,-250.3997 125,-250.3997 125,-231.3997 11,-231.3997"/>
<text text-anchor="start" x="14" y="-237.4997" font-family="Helvetica,sans-Serif" font-size="11.00" fill="#000000">...</text>
<polygon fill="#ffffff" stroke="transparent" points="11,-212.3997 11,-231.3997 32,-231.3997 32,-212.3997 11,-212.3997"/>
<polygon fill="none" stroke="#000000" points="11,-212.3997 11,-231.3997 32,-231.3997 32,-212.3997 11,-212.3997"/>
<text text-anchor="start" x="13.7027" y="-218.4997" font-family="Helvetica,sans-Serif" font-size="11.00" fill="#000000">&lt; 1</text>
<polygon fill="#ffffff" stroke="transparent" points="32,-212.3997 32,-231.3997 104,-231.3997 104,-212.3997 32,-212.3997"/>
<polygon fill="none" stroke="#000000" points="32,-212.3997 32,-231.3997 104,-231.3997 104,-212.3997 32,-212.3997"/>
<text text-anchor="start" x="34.9896" y="-218.4997" font-family="Helvetica,sans-Serif" font-size="11.00" fill="#000000">292.481 rows</text>
<polygon fill="#ffffff" stroke="transparent" points="104,-212.3997 104,-231.3997 125,-231.3997 125,-212.3997 104,-212.3997"/>
<polygon fill="none" stroke="#000000" points="104,-212.3997 104,-231.3997 125,-231.3997 125,-212.3997 104,-212.3997"/>
<text text-anchor="start" x="106.7027" y="-218.4997" font-family="Helvetica,sans-Serif" font-size="11.00" fill="#000000">3 &gt;</text>
</a>
</g>
</g>
<!-- mat_aspect&#45;&gt;mat -->
<g id="edge4" class="edge">
<title>mat_aspect:w&#45;&gt;mat:e</title>
<path fill="none" stroke="#000000" d="M353.5397,-369.7616C245.4683,-359.9544 242.46,-240.3997 125,-240.3997"/>
<polygon fill="#000000" stroke="#000000" points="360.0078,-370.047 367.8413,-373.9962 364.0039,-370.2234 368,-370.3997 368,-370.3997 368,-370.3997 364.0039,-370.2234 368.1587,-366.8032 360.0078,-370.047 360.0078,-370.047"/>
<ellipse fill="none" stroke="#000000" cx="356.8109" cy="-369.9059" rx="3.2" ry="3.2"/>
</g>
<!-- mo_aspect -->
<g id="node6" class="node">
<title>mo_aspect</title>
<g id="a_node6"><a xlink:href="../../tables/mo_aspect.html" xlink:title="mo_aspect" target="_top">
<polygon fill="#ffffff" stroke="transparent" points="371,-670.8997 371,-731.8997 481,-731.8997 481,-670.8997 371,-670.8997"/>
<polygon fill="#f5f5f5" stroke="transparent" points="371,-708.3997 371,-731.3997 481,-731.3997 481,-708.3997 371,-708.3997"/>
<polygon fill="none" stroke="#000000" points="371,-708.3997 371,-731.3997 481,-731.3997 481,-708.3997 371,-708.3997"/>
<text text-anchor="start" x="376" y="-716.9997" font-family="Helvetica,sans-Serif" font-weight="bold" font-size="11.00" fill="#000000">mo_aspect</text>
<text text-anchor="start" x="446.5219" y="-716.4997" font-family="Helvetica,sans-Serif" font-size="11.00" fill="#000000">[table]</text>
<polygon fill="none" stroke="#000000" points="371,-689.3997 371,-708.3997 481,-708.3997 481,-689.3997 371,-689.3997"/>
<text text-anchor="start" x="374" y="-695.4997" font-family="Helvetica,sans-Serif" font-size="11.00" fill="#000000">...</text>
<polygon fill="#ffffff" stroke="transparent" points="371,-670.3997 371,-689.3997 401,-689.3997 401,-670.3997 371,-670.3997"/>
<polygon fill="none" stroke="#000000" points="371,-670.3997 371,-689.3997 401,-689.3997 401,-670.3997 371,-670.3997"/>
<text text-anchor="start" x="374" y="-676.4997" font-family="Helvetica,sans-Serif" font-size="11.00" fill="#000000">&lt; 2</text>
<polygon fill="#ffffff" stroke="transparent" points="401,-670.3997 401,-689.3997 464,-689.3997 464,-670.3997 401,-670.3997"/>
<polygon fill="none" stroke="#000000" points="401,-670.3997 401,-689.3997 464,-689.3997 464,-670.3997 401,-670.3997"/>
<text text-anchor="start" x="407.2089" y="-676.4997" font-family="Helvetica,sans-Serif" font-size="11.00" fill="#000000">2.000 rows</text>
<polygon fill="#ffffff" stroke="transparent" points="464,-670.3997 464,-689.3997 481,-689.3997 481,-670.3997 464,-670.3997"/>
<polygon fill="none" stroke="#000000" points="464,-670.3997 464,-689.3997 481,-689.3997 481,-670.3997 464,-670.3997"/>
<text text-anchor="start" x="471.8862" y="-676.4997" font-family="Helvetica,sans-Serif" font-size="11.00" fill="#000000"> &#160;</text>
</a>
</g>
</g>
<!-- mo_aspect&#45;&gt;aspect -->
<g id="edge5" class="edge">
<title>mo_aspect:w&#45;&gt;aspect:e</title>
<path fill="none" stroke="#000000" d="M356.5921,-696.5012C287.3437,-675.8348 389.6673,-493.3997 298.5,-493.3997"/>
<polygon fill="#000000" stroke="#000000" points="363.0686,-697.3546 370.5297,-701.9689 367.0343,-697.8772 371,-698.3997 371,-698.3997 371,-698.3997 367.0343,-697.8772 371.4703,-694.8306 363.0686,-697.3546 363.0686,-697.3546"/>
<ellipse fill="none" stroke="#000000" cx="359.896" cy="-696.9365" rx="3.2" ry="3.2"/>
</g>
<!-- mor_aspect -->
<g id="node7" class="node">
<title>mor_aspect</title>
<g id="a_node7"><a xlink:href="../../tables/mor_aspect.html" xlink:title="mor_aspect" target="_top">
<polygon fill="#ffffff" stroke="transparent" points="368,-588.8997 368,-649.8997 484,-649.8997 484,-588.8997 368,-588.8997"/>
<polygon fill="#f5f5f5" stroke="transparent" points="368,-626.3997 368,-649.3997 484,-649.3997 484,-626.3997 368,-626.3997"/>
<polygon fill="none" stroke="#000000" points="368,-626.3997 368,-649.3997 484,-649.3997 484,-626.3997 368,-626.3997"/>
<text text-anchor="start" x="373" y="-634.9997" font-family="Helvetica,sans-Serif" font-weight="bold" font-size="11.00" fill="#000000">mor_aspect</text>
<text text-anchor="start" x="449.5219" y="-634.4997" font-family="Helvetica,sans-Serif" font-size="11.00" fill="#000000">[table]</text>
<polygon fill="none" stroke="#000000" points="368,-607.3997 368,-626.3997 484,-626.3997 484,-607.3997 368,-607.3997"/>
<text text-anchor="start" x="371" y="-613.4997" font-family="Helvetica,sans-Serif" font-size="11.00" fill="#000000">...</text>
<polygon fill="#ffffff" stroke="transparent" points="368,-588.3997 368,-607.3997 411,-607.3997 411,-588.3997 368,-588.3997"/>
<polygon fill="none" stroke="#000000" points="368,-588.3997 368,-607.3997 411,-607.3997 411,-588.3997 368,-588.3997"/>
<text text-anchor="start" x="371" y="-594.4997" font-family="Helvetica,sans-Serif" font-size="11.00" fill="#000000">&lt; 2</text>
<polygon fill="#ffffff" stroke="transparent" points="411,-588.3997 411,-607.3997 460,-607.3997 460,-588.3997 411,-588.3997"/>
<polygon fill="none" stroke="#000000" points="411,-588.3997 411,-607.3997 460,-607.3997 460,-588.3997 411,-588.3997"/>
<text text-anchor="start" x="424.6105" y="-594.4997" font-family="Helvetica,sans-Serif" font-size="11.00" fill="#000000">0 rows</text>
<polygon fill="#ffffff" stroke="transparent" points="460,-588.3997 460,-607.3997 484,-607.3997 484,-588.3997 460,-588.3997"/>
<polygon fill="none" stroke="#000000" points="460,-588.3997 460,-607.3997 484,-607.3997 484,-588.3997 460,-588.3997"/>
<text text-anchor="start" x="474.8862" y="-594.4997" font-family="Helvetica,sans-Serif" font-size="11.00" fill="#000000"> &#160;</text>
</a>
</g>
</g>
<!-- mor_aspect&#45;&gt;aspect -->
<g id="edge6" class="edge">
<title>mor_aspect:w&#45;&gt;aspect:e</title>
<path fill="none" stroke="#000000" d="M353.7823,-613.5996C314.3275,-595.291 355.6486,-493.3997 298.5,-493.3997"/>
<polygon fill="#000000" stroke="#000000" points="360.1508,-614.8538 367.3043,-619.9319 364.0754,-615.6268 368,-616.3997 368,-616.3997 368,-616.3997 364.0754,-615.6268 368.6957,-612.8676 360.1508,-614.8538 360.1508,-614.8538"/>
<ellipse fill="none" stroke="#000000" cx="357.0111" cy="-614.2354" rx="3.2" ry="3.2"/>
</g>
<!-- point -->
<g id="node8" class="node">
<title>point</title>
<g id="a_node8"><a xlink:href="../../tables/point.html" xlink:title="point" target="_top">
<polygon fill="#ffffff" stroke="transparent" points="177,-105.8997 177,-210.8997 300,-210.8997 300,-105.8997 177,-105.8997"/>
<polygon fill="#f5f5f5" stroke="transparent" points="177.5,-187.3997 177.5,-210.3997 300.5,-210.3997 300.5,-187.3997 177.5,-187.3997"/>
<polygon fill="none" stroke="#000000" points="177.5,-187.3997 177.5,-210.3997 300.5,-210.3997 300.5,-187.3997 177.5,-187.3997"/>
<text text-anchor="start" x="182.5" y="-195.9997" font-family="Helvetica,sans-Serif" font-weight="bold" font-size="11.00" fill="#000000">point</text>
<text text-anchor="start" x="265.5437" y="-195.4997" font-family="Helvetica,sans-Serif" font-size="11.00" fill="#000000">[table]</text>
<polygon fill="none" stroke="#000000" points="177.5,-165.3997 177.5,-187.3997 300.5,-187.3997 300.5,-165.3997 177.5,-165.3997"/>
<image xlink:href="../../images/primaryKeys.png" width="11px" height="12px" preserveAspectRatio="xMinYMin meet" x="182.5" y="-182.4"/>
<text text-anchor="start" x="222.5" y="-172.4997" font-family="Helvetica,sans-Serif" font-size="11.00" fill="#000000">point_id</text>
<polygon fill="#ffffff" stroke="transparent" points="177.5,-143.3997 177.5,-165.3997 300.5,-165.3997 300.5,-143.3997 177.5,-143.3997"/>
<polygon fill="none" stroke="#000000" points="177.5,-143.3997 177.5,-165.3997 300.5,-165.3997 300.5,-143.3997 177.5,-143.3997"/>
<image xlink:href="../../images/foreignKeys.png" width="11px" height="12px" preserveAspectRatio="xMinYMin meet" x="182.5" y="-160.4"/>
<text text-anchor="start" x="222.5" y="-150.4997" font-family="Helvetica,sans-Serif" font-size="11.00" fill="#000000">mat_id</text>
<polygon fill="none" stroke="#000000" points="177.5,-124.3997 177.5,-143.3997 300.5,-143.3997 300.5,-124.3997 177.5,-124.3997"/>
<text text-anchor="start" x="180.5" y="-130.4997" font-family="Helvetica,sans-Serif" font-size="11.00" fill="#000000">...</text>
<polygon fill="#ffffff" stroke="transparent" points="177.5,-105.3997 177.5,-124.3997 198.5,-124.3997 198.5,-105.3997 177.5,-105.3997"/>
<polygon fill="none" stroke="#000000" points="177.5,-105.3997 177.5,-124.3997 198.5,-124.3997 198.5,-105.3997 177.5,-105.3997"/>
<text text-anchor="start" x="180.2027" y="-111.4997" font-family="Helvetica,sans-Serif" font-size="11.00" fill="#000000">&lt; 1</text>
<polygon fill="#ffffff" stroke="transparent" points="198.5,-105.3997 198.5,-124.3997 279.5,-124.3997 279.5,-105.3997 198.5,-105.3997"/>
<polygon fill="none" stroke="#000000" points="198.5,-105.3997 198.5,-124.3997 279.5,-124.3997 279.5,-105.3997 198.5,-105.3997"/>
<text text-anchor="start" x="201.4037" y="-111.4997" font-family="Helvetica,sans-Serif" font-size="11.00" fill="#000000">1.039.258 rows</text>
<polygon fill="#ffffff" stroke="transparent" points="279.5,-105.3997 279.5,-124.3997 300.5,-124.3997 300.5,-105.3997 279.5,-105.3997"/>
<polygon fill="none" stroke="#000000" points="279.5,-105.3997 279.5,-124.3997 300.5,-124.3997 300.5,-105.3997 279.5,-105.3997"/>
<text text-anchor="start" x="282.2027" y="-111.4997" font-family="Helvetica,sans-Serif" font-size="11.00" fill="#000000">4 &gt;</text>
</a>
</g>
</g>
<!-- point&#45;&gt;mat -->
<g id="edge7" class="edge">
<title>point:w&#45;&gt;mat:e</title>
<path fill="none" stroke="#000000" d="M163.6049,-158.5477C141.1197,-175.7265 163.834,-240.3997 125,-240.3997"/>
<polygon fill="#000000" stroke="#000000" points="169.8343,-156.6881 178.5298,-157.8493 173.6671,-155.5439 177.5,-154.3997 177.5,-154.3997 177.5,-154.3997 173.6671,-155.5439 176.4702,-150.9502 169.8343,-156.6881 169.8343,-156.6881"/>
<ellipse fill="none" stroke="#000000" cx="166.768" cy="-157.6035" rx="3.2" ry="3.2"/>
</g>
<!-- point_aspect -->
<g id="node9" class="node">
<title>point_aspect</title>
<g id="a_node9"><a xlink:href="../../tables/point_aspect.html" xlink:title="point_aspect" target="_top">
<polygon fill="#ffffff" stroke="transparent" points="349.5,-231.3997 349.5,-321.3997 502.5,-321.3997 502.5,-231.3997 349.5,-231.3997"/>
<polygon fill="#f5f5f5" stroke="transparent" points="352,-296.3997 352,-319.3997 501,-319.3997 501,-296.3997 352,-296.3997"/>
<polygon fill="none" stroke="#000000" points="352,-296.3997 352,-319.3997 501,-319.3997 501,-296.3997 352,-296.3997"/>
<text text-anchor="start" x="357" y="-304.9997" font-family="Helvetica,sans-Serif" font-weight="bold" font-size="11.00" fill="#000000">point_aspect</text>
<text text-anchor="start" x="466.0437" y="-304.4997" font-family="Helvetica,sans-Serif" font-size="11.00" fill="#000000">[table]</text>
<polygon fill="none" stroke="#000000" points="352,-274.3997 352,-296.3997 459,-296.3997 459,-274.3997 352,-274.3997"/>
<image xlink:href="../../images/primaryKeys.png" width="11px" height="12px" preserveAspectRatio="xMinYMin meet" x="357" y="-291.4"/>
<text text-anchor="start" x="372" y="-281.4997" font-family="Helvetica,sans-Serif" font-size="11.00" fill="#000000">point_id</text>
<polygon fill="none" stroke="#000000" points="459,-274.3997 459,-296.3997 501,-296.3997 501,-274.3997 459,-274.3997"/>
<text text-anchor="start" x="461.9644" y="-282.0997" font-family="Helvetica,sans-Serif" font-size="11.00" fill="#000000">int4[10]</text>
<polygon fill="none" stroke="#000000" points="352,-252.3997 352,-274.3997 459,-274.3997 459,-252.3997 352,-252.3997"/>
<image xlink:href="../../images/primaryKeys.png" width="11px" height="12px" preserveAspectRatio="xMinYMin meet" x="357" y="-269.4"/>
<text text-anchor="start" x="372" y="-259.4997" font-family="Helvetica,sans-Serif" font-size="11.00" fill="#000000">aspect_id</text>
<polygon fill="none" stroke="#000000" points="459,-252.3997 459,-274.3997 501,-274.3997 501,-252.3997 459,-252.3997"/>
<text text-anchor="start" x="461.9644" y="-260.0997" font-family="Helvetica,sans-Serif" font-size="11.00" fill="#000000">int4[10]</text>
<polygon fill="#ffffff" stroke="transparent" points="352,-233.3997 352,-252.3997 375,-252.3997 375,-233.3997 352,-233.3997"/>
<polygon fill="none" stroke="#000000" points="352,-233.3997 352,-252.3997 375,-252.3997 375,-233.3997 352,-233.3997"/>
<text text-anchor="start" x="355" y="-239.4997" font-family="Helvetica,sans-Serif" font-size="11.00" fill="#000000">&lt; 2</text>
<polygon fill="#ffffff" stroke="transparent" points="375,-233.3997 375,-252.3997 459,-252.3997 459,-233.3997 375,-233.3997"/>
<polygon fill="none" stroke="#000000" points="375,-233.3997 375,-252.3997 459,-252.3997 459,-233.3997 375,-233.3997"/>
<text text-anchor="start" x="380.8073" y="-239.4997" font-family="Helvetica,sans-Serif" font-size="11.00" fill="#000000">1.039.258 rows</text>
<polygon fill="#ffffff" stroke="transparent" points="459,-233.3997 459,-252.3997 501,-252.3997 501,-233.3997 459,-233.3997"/>
<polygon fill="none" stroke="#000000" points="459,-233.3997 459,-252.3997 501,-252.3997 501,-233.3997 459,-233.3997"/>
<text text-anchor="start" x="482.4053" y="-239.4997" font-family="Helvetica,sans-Serif" font-size="11.00" fill="#000000">0 &gt;</text>
<polygon fill="none" stroke="#000000" stroke-width="2" points="350.5,-232.3997 350.5,-320.3997 501.5,-320.3997 501.5,-232.3997 350.5,-232.3997"/>
</a>
</g>
</g>
<!-- point_aspect&#45;&gt;aspect -->
<g id="edge8" class="edge">
<title>point_aspect:w&#45;&gt;aspect:e</title>
<path fill="none" stroke="#000000" d="M337.5001,-265.2511C262.8175,-287.0179 397.9167,-493.3997 298.5,-493.3997"/>
<polygon fill="#000000" stroke="#000000" points="344.0644,-264.413 352.456,-266.9707 348.0322,-263.9064 352,-263.3997 352,-263.3997 352,-263.3997 348.0322,-263.9064 351.544,-259.8287 344.0644,-264.413 344.0644,-264.413"/>
<ellipse fill="none" stroke="#000000" cx="340.8902" cy="-264.8183" rx="3.2" ry="3.2"/>
</g>
<!-- point_aspect&#45;&gt;point -->
<g id="edge9" class="edge">
<title>point_aspect:w&#45;&gt;point:e</title>
<path fill="none" stroke="#000000" d="M338.0538,-281.7731C309.2891,-262.8599 348.2193,-176.3997 300.5,-176.3997"/>
<polygon fill="#000000" stroke="#000000" points="344.2575,-283.3863 351.094,-288.8839 348.1288,-284.393 352,-285.3997 352,-285.3997 352,-285.3997 348.1288,-284.393 352.906,-281.9156 344.2575,-283.3863 344.2575,-283.3863"/>
<ellipse fill="none" stroke="#000000" cx="341.1605" cy="-282.5809" rx="3.2" ry="3.2"/>
</g>
<!-- point_point_dr -->
<g id="node10" class="node">
<title>point_point_dr</title>
<g id="a_node10"><a xlink:href="../../tables/point_point_dr.html" xlink:title="point_point_dr" target="_top">
<polygon fill="#ffffff" stroke="transparent" points="358.5,-148.8997 358.5,-209.8997 493.5,-209.8997 493.5,-148.8997 358.5,-148.8997"/>
<polygon fill="#f5f5f5" stroke="transparent" points="359,-186.3997 359,-209.3997 494,-209.3997 494,-186.3997 359,-186.3997"/>
<polygon fill="none" stroke="#000000" points="359,-186.3997 359,-209.3997 494,-209.3997 494,-186.3997 359,-186.3997"/>
<text text-anchor="start" x="364" y="-194.9997" font-family="Helvetica,sans-Serif" font-weight="bold" font-size="11.00" fill="#000000">point_point_dr</text>
<text text-anchor="start" x="459.5219" y="-194.4997" font-family="Helvetica,sans-Serif" font-size="11.00" fill="#000000">[table]</text>
<polygon fill="none" stroke="#000000" points="359,-167.3997 359,-186.3997 494,-186.3997 494,-167.3997 359,-167.3997"/>
<text text-anchor="start" x="362" y="-173.4997" font-family="Helvetica,sans-Serif" font-size="11.00" fill="#000000">...</text>
<polygon fill="#ffffff" stroke="transparent" points="359,-148.3997 359,-167.3997 412,-167.3997 412,-148.3997 359,-148.3997"/>
<polygon fill="none" stroke="#000000" points="359,-148.3997 359,-167.3997 412,-167.3997 412,-148.3997 359,-148.3997"/>
<text text-anchor="start" x="362" y="-154.4997" font-family="Helvetica,sans-Serif" font-size="11.00" fill="#000000">&lt; 2</text>
<polygon fill="#ffffff" stroke="transparent" points="412,-148.3997 412,-167.3997 466,-167.3997 466,-148.3997 412,-148.3997"/>
<polygon fill="none" stroke="#000000" points="412,-148.3997 412,-167.3997 466,-167.3997 466,-148.3997 412,-148.3997"/>
<text text-anchor="start" x="430.6105" y="-154.4997" font-family="Helvetica,sans-Serif" font-size="11.00" fill="#000000">0 rows</text>
<polygon fill="#ffffff" stroke="transparent" points="466,-148.3997 466,-167.3997 494,-167.3997 494,-148.3997 466,-148.3997"/>
<polygon fill="none" stroke="#000000" points="466,-148.3997 466,-167.3997 494,-167.3997 494,-148.3997 466,-148.3997"/>
<text text-anchor="start" x="484.8862" y="-154.4997" font-family="Helvetica,sans-Serif" font-size="11.00" fill="#000000"> &#160;</text>
</a>
</g>
</g>
<!-- point_point_dr&#45;&gt;point -->
<g id="edge10" class="edge">
<title>point_point_dr:w&#45;&gt;point:e</title>
<path fill="none" stroke="#000000" d="M344.3286,-176.3997C329.2231,-176.3997 320.8125,-176.3997 300.5,-176.3997"/>
<polygon fill="#000000" stroke="#000000" points="351,-176.3998 359,-179.9997 355,-176.3998 359,-176.3997 359,-176.3997 359,-176.3997 355,-176.3998 359,-172.7997 351,-176.3998 351,-176.3998"/>
<ellipse fill="none" stroke="#000000" cx="347.8" cy="-176.3998" rx="3.2" ry="3.2"/>
</g>
<!-- point_repr_point -->
<g id="node11" class="node">
<title>point_repr_point</title>
<g id="a_node11"><a xlink:href="../../tables/point_repr_point.html" xlink:title="point_repr_point" target="_top">
<polygon fill="#ffffff" stroke="transparent" points="552,-40.8997 552,-101.8997 702,-101.8997 702,-40.8997 552,-40.8997"/>
<polygon fill="#f5f5f5" stroke="transparent" points="552,-78.3997 552,-101.3997 702,-101.3997 702,-78.3997 552,-78.3997"/>
<polygon fill="none" stroke="#000000" points="552,-78.3997 552,-101.3997 702,-101.3997 702,-78.3997 552,-78.3997"/>
<text text-anchor="start" x="557" y="-86.9997" font-family="Helvetica,sans-Serif" font-weight="bold" font-size="11.00" fill="#000000">point_repr_point</text>
<text text-anchor="start" x="667.5219" y="-86.4997" font-family="Helvetica,sans-Serif" font-size="11.00" fill="#000000">[table]</text>
<polygon fill="none" stroke="#000000" points="552,-59.3997 552,-78.3997 702,-78.3997 702,-59.3997 552,-59.3997"/>
<text text-anchor="start" x="555" y="-65.4997" font-family="Helvetica,sans-Serif" font-size="11.00" fill="#000000">...</text>
<polygon fill="#ffffff" stroke="transparent" points="552,-40.3997 552,-59.3997 612,-59.3997 612,-40.3997 552,-40.3997"/>
<polygon fill="none" stroke="#000000" points="552,-40.3997 552,-59.3997 612,-59.3997 612,-40.3997 552,-40.3997"/>
<text text-anchor="start" x="555" y="-46.4997" font-family="Helvetica,sans-Serif" font-size="11.00" fill="#000000">&lt; 2</text>
<polygon fill="#ffffff" stroke="transparent" points="612,-40.3997 612,-59.3997 670,-59.3997 670,-40.3997 612,-40.3997"/>
<polygon fill="none" stroke="#000000" points="612,-40.3997 612,-59.3997 670,-59.3997 670,-40.3997 612,-40.3997"/>
<text text-anchor="start" x="634.6105" y="-46.4997" font-family="Helvetica,sans-Serif" font-size="11.00" fill="#000000">0 rows</text>
<polygon fill="#ffffff" stroke="transparent" points="670,-40.3997 670,-59.3997 702,-59.3997 702,-40.3997 670,-40.3997"/>
<polygon fill="none" stroke="#000000" points="670,-40.3997 670,-59.3997 702,-59.3997 702,-40.3997 670,-40.3997"/>
<text text-anchor="start" x="692.8862" y="-46.4997" font-family="Helvetica,sans-Serif" font-size="11.00" fill="#000000"> &#160;</text>
</a>
</g>
</g>
<!-- point_repr_point&#45;&gt;point -->
<g id="edge11" class="edge">
<title>point_repr_point:w&#45;&gt;point:e</title>
<path fill="none" stroke="#000000" d="M537.5783,-66.0585C529.3532,-63.1164 523.7744,-58.2308 511,-56.3997 436.2088,-45.6795 402.3765,-12.3365 341,-56.3997 295.2745,-89.2269 356.7889,-176.3997 300.5,-176.3997"/>
<polygon fill="#000000" stroke="#000000" points="544.1034,-67.1177 551.4231,-71.9532 548.0517,-67.7587 552,-68.3997 552,-68.3997 552,-68.3997 548.0517,-67.7587 552.5769,-64.8463 544.1034,-67.1177 544.1034,-67.1177"/>
<ellipse fill="none" stroke="#000000" cx="540.9447" cy="-66.6049" rx="3.2" ry="3.2"/>
</g>
<!-- repr_point -->
<g id="node12" class="node">
<title>repr_point</title>
<g id="a_node12"><a xlink:href="../../tables/repr_point.html" xlink:title="repr_point" target="_top">
<polygon fill="#ffffff" stroke="transparent" points="372,-66.8997 372,-127.8997 480,-127.8997 480,-66.8997 372,-66.8997"/>
<polygon fill="#f5f5f5" stroke="transparent" points="372,-104.3997 372,-127.3997 480,-127.3997 480,-104.3997 372,-104.3997"/>
<polygon fill="none" stroke="#000000" points="372,-104.3997 372,-127.3997 480,-127.3997 480,-104.3997 372,-104.3997"/>
<text text-anchor="start" x="377" y="-112.9997" font-family="Helvetica,sans-Serif" font-weight="bold" font-size="11.00" fill="#000000">repr_point</text>
<text text-anchor="start" x="445.5219" y="-112.4997" font-family="Helvetica,sans-Serif" font-size="11.00" fill="#000000">[table]</text>
<polygon fill="none" stroke="#000000" points="372,-85.3997 372,-104.3997 480,-104.3997 480,-85.3997 372,-85.3997"/>
<text text-anchor="start" x="375" y="-91.4997" font-family="Helvetica,sans-Serif" font-size="11.00" fill="#000000">...</text>
<polygon fill="#ffffff" stroke="transparent" points="372,-66.3997 372,-85.3997 407,-85.3997 407,-66.3997 372,-66.3997"/>
<polygon fill="none" stroke="#000000" points="372,-66.3997 372,-85.3997 407,-85.3997 407,-66.3997 372,-66.3997"/>
<text text-anchor="start" x="375" y="-72.4997" font-family="Helvetica,sans-Serif" font-size="11.00" fill="#000000">&lt; 1</text>
<polygon fill="#ffffff" stroke="transparent" points="407,-66.3997 407,-85.3997 452,-85.3997 452,-66.3997 407,-66.3997"/>
<polygon fill="none" stroke="#000000" points="407,-66.3997 407,-85.3997 452,-85.3997 452,-66.3997 407,-66.3997"/>
<text text-anchor="start" x="416.6105" y="-72.4997" font-family="Helvetica,sans-Serif" font-size="11.00" fill="#000000">0 rows</text>
<polygon fill="#ffffff" stroke="transparent" points="452,-66.3997 452,-85.3997 480,-85.3997 480,-66.3997 452,-66.3997"/>
<polygon fill="none" stroke="#000000" points="452,-66.3997 452,-85.3997 480,-85.3997 480,-66.3997 452,-66.3997"/>
<text text-anchor="start" x="461.4053" y="-72.4997" font-family="Helvetica,sans-Serif" font-size="11.00" fill="#000000">1 &gt;</text>
</a>
</g>
</g>
<!-- point_repr_point&#45;&gt;repr_point -->
<g id="edge12" class="edge">
<title>point_repr_point:w&#45;&gt;repr_point:e</title>
<path fill="none" stroke="#000000" d="M537.4169,-70.2696C515.8705,-76.2312 508.4407,-94.3997 480,-94.3997"/>
<polygon fill="#000000" stroke="#000000" points="544.065,-69.4172 552.4579,-71.9705 548.0325,-68.9085 552,-68.3997 552,-68.3997 552,-68.3997 548.0325,-68.9085 551.5421,-64.829 544.065,-69.4172 544.065,-69.4172"/>
<ellipse fill="none" stroke="#000000" cx="540.8909" cy="-69.8242" rx="3.2" ry="3.2"/>
</g>
<!-- repr_point&#45;&gt;point -->
<g id="edge14" class="edge">
<title>repr_point:w&#45;&gt;point:e</title>
<path fill="none" stroke="#000000" d="M361.5044,-95.9646C327.2873,-107.3011 344.8867,-176.3997 300.5,-176.3997"/>
<polygon fill="#000000" stroke="#000000" points="370.6189,-90.5614 371.7986,-98.474 370.2161,-98.7099 369.0363,-90.7974 370.6189,-90.5614"/>
<polyline fill="none" stroke="#000000" points="372,-94.3997 368.0437,-94.9896 "/>
<ellipse fill="none" stroke="#000000" cx="364.8787" cy="-95.4615" rx="3.2" ry="3.2"/>
</g>
<!-- predicate_aspect -->
<g id="node13" class="node">
<title>predicate_aspect</title>
<g id="a_node13"><a xlink:href="../../tables/predicate_aspect.html" xlink:title="predicate_aspect" target="_top">
<polygon fill="#ffffff" stroke="transparent" points="349,-506.8997 349,-567.8997 503,-567.8997 503,-506.8997 349,-506.8997"/>
<polygon fill="#f5f5f5" stroke="transparent" points="349,-544.3997 349,-567.3997 503,-567.3997 503,-544.3997 349,-544.3997"/>
<polygon fill="none" stroke="#000000" points="349,-544.3997 349,-567.3997 503,-567.3997 503,-544.3997 349,-544.3997"/>
<text text-anchor="start" x="354" y="-552.9997" font-family="Helvetica,sans-Serif" font-weight="bold" font-size="11.00" fill="#000000">predicate_aspect</text>
<text text-anchor="start" x="468.5219" y="-552.4997" font-family="Helvetica,sans-Serif" font-size="11.00" fill="#000000">[table]</text>
<polygon fill="none" stroke="#000000" points="349,-525.3997 349,-544.3997 503,-544.3997 503,-525.3997 349,-525.3997"/>
<text text-anchor="start" x="352" y="-531.4997" font-family="Helvetica,sans-Serif" font-size="11.00" fill="#000000">...</text>
<polygon fill="#ffffff" stroke="transparent" points="349,-506.3997 349,-525.3997 411,-525.3997 411,-506.3997 349,-506.3997"/>
<polygon fill="none" stroke="#000000" points="349,-506.3997 349,-525.3997 411,-525.3997 411,-506.3997 349,-506.3997"/>
<text text-anchor="start" x="352" y="-512.4997" font-family="Helvetica,sans-Serif" font-size="11.00" fill="#000000">&lt; 2</text>
<polygon fill="#ffffff" stroke="transparent" points="411,-506.3997 411,-525.3997 470,-525.3997 470,-506.3997 411,-506.3997"/>
<polygon fill="none" stroke="#000000" points="411,-506.3997 411,-525.3997 470,-525.3997 470,-506.3997 411,-506.3997"/>
<text text-anchor="start" x="434.6105" y="-512.4997" font-family="Helvetica,sans-Serif" font-size="11.00" fill="#000000">0 rows</text>
<polygon fill="#ffffff" stroke="transparent" points="470,-506.3997 470,-525.3997 503,-525.3997 503,-506.3997 470,-506.3997"/>
<polygon fill="none" stroke="#000000" points="470,-506.3997 470,-525.3997 503,-525.3997 503,-506.3997 470,-506.3997"/>
<text text-anchor="start" x="493.8862" y="-512.4997" font-family="Helvetica,sans-Serif" font-size="11.00" fill="#000000"> &#160;</text>
</a>
</g>
</g>
<!-- predicate_aspect&#45;&gt;aspect -->
<g id="edge13" class="edge">
<title>predicate_aspect:w&#45;&gt;aspect:e</title>
<path fill="none" stroke="#000000" d="M335.2601,-530.012C321.5688,-519.4351 321.5379,-493.3997 298.5,-493.3997"/>
<polygon fill="#000000" stroke="#000000" points="341.3792,-531.966 347.9048,-537.8291 345.1896,-533.1829 349,-534.3997 349,-534.3997 349,-534.3997 345.1896,-533.1829 350.0952,-530.9704 341.3792,-531.966 341.3792,-531.966"/>
<ellipse fill="none" stroke="#000000" cx="338.3308" cy="-530.9926" rx="3.2" ry="3.2"/>
</g>
</g>
</svg>
