<?xml version="1.0" encoding="UTF-8" standalone="no"?>
<!DOCTYPE svg PUBLIC "-//W3C//DTD SVG 1.1//EN"
 "http://www.w3.org/Graphics/SVG/1.1/DTD/svg11.dtd">
<!-- Generated by graphviz version 2.40.1 (20161225.0304)
 -->
<!-- Title: oneDegreeRelationshipsDiagram Pages: 1 -->
<svg width="349pt" height="303pt"
 viewBox="0.00 0.00 349.00 303.20" xmlns="http://www.w3.org/2000/svg" xmlns:xlink="http://www.w3.org/1999/xlink">
<g id="graph0" class="graph" transform="scale(1 1) rotate(0) translate(4 299.2)">
<title>oneDegreeRelationshipsDiagram</title>
<polygon fill="#ffffff" stroke="transparent" points="-4,4 -4,-299.2 345,-299.2 345,4 -4,4"/>
<text text-anchor="middle" x="72.4936" y="-7.3" font-family="Helvetica,sans-Serif" font-size="11.00" fill="#000000">Generated by SchemaSpy</text>
<!-- point_aspect -->
<g id="node1" class="node">
<title>point_aspect</title>
<g id="a_node1"><a xlink:href="../../tables/point_aspect.html" xlink:title="point_aspect" target="_top">
<polygon fill="#ffffff" stroke="transparent" points="180,-150.7 180,-240.7 333,-240.7 333,-150.7 180,-150.7"/>
<polygon fill="#f5f5f5" stroke="transparent" points="182.5,-215.7 182.5,-238.7 331.5,-238.7 331.5,-215.7 182.5,-215.7"/>
<polygon fill="none" stroke="#000000" points="182.5,-215.7 182.5,-238.7 331.5,-238.7 331.5,-215.7 182.5,-215.7"/>
<text text-anchor="start" x="187.5" y="-224.3" font-family="Helvetica,sans-Serif" font-weight="bold" font-size="11.00" fill="#000000">point_aspect</text>
<text text-anchor="start" x="296.5437" y="-223.8" font-family="Helvetica,sans-Serif" font-size="11.00" fill="#000000">[table]</text>
<polygon fill="none" stroke="#000000" points="182.5,-193.7 182.5,-215.7 289.5,-215.7 289.5,-193.7 182.5,-193.7"/>
<image xlink:href="../../images/primaryKeys.png" width="11px" height="12px" preserveAspectRatio="xMinYMin meet" x="187.5" y="-210.7"/>
<text text-anchor="start" x="202.5" y="-200.8" font-family="Helvetica,sans-Serif" font-size="11.00" fill="#000000">point_id</text>
<polygon fill="none" stroke="#000000" points="289.5,-193.7 289.5,-215.7 331.5,-215.7 331.5,-193.7 289.5,-193.7"/>
<text text-anchor="start" x="292.4644" y="-201.4" font-family="Helvetica,sans-Serif" font-size="11.00" fill="#000000">int4[10]</text>
<polygon fill="none" stroke="#000000" points="182.5,-171.7 182.5,-193.7 289.5,-193.7 289.5,-171.7 182.5,-171.7"/>
<image xlink:href="../../images/primaryKeys.png" width="11px" height="12px" preserveAspectRatio="xMinYMin meet" x="187.5" y="-188.7"/>
<text text-anchor="start" x="202.5" y="-178.8" font-family="Helvetica,sans-Serif" font-size="11.00" fill="#000000">aspect_id</text>
<polygon fill="none" stroke="#000000" points="289.5,-171.7 289.5,-193.7 331.5,-193.7 331.5,-171.7 289.5,-171.7"/>
<text text-anchor="start" x="292.4644" y="-179.4" font-family="Helvetica,sans-Serif" font-size="11.00" fill="#000000">int4[10]</text>
<polygon fill="#ffffff" stroke="transparent" points="182.5,-152.7 182.5,-171.7 205.5,-171.7 205.5,-152.7 182.5,-152.7"/>
<polygon fill="none" stroke="#000000" points="182.5,-152.7 182.5,-171.7 205.5,-171.7 205.5,-152.7 182.5,-152.7"/>
<text text-anchor="start" x="185.5" y="-158.8" font-family="Helvetica,sans-Serif" font-size="11.00" fill="#000000">&lt; 2</text>
<polygon fill="#ffffff" stroke="transparent" points="205.5,-152.7 205.5,-171.7 289.5,-171.7 289.5,-152.7 205.5,-152.7"/>
<polygon fill="none" stroke="#000000" points="205.5,-152.7 205.5,-171.7 289.5,-171.7 289.5,-152.7 205.5,-152.7"/>
<text text-anchor="start" x="211.3073" y="-158.8" font-family="Helvetica,sans-Serif" font-size="11.00" fill="#000000">1.039.258 rows</text>
<polygon fill="#ffffff" stroke="transparent" points="289.5,-152.7 289.5,-171.7 331.5,-171.7 331.5,-152.7 289.5,-152.7"/>
<polygon fill="none" stroke="#000000" points="289.5,-152.7 289.5,-171.7 331.5,-171.7 331.5,-152.7 289.5,-152.7"/>
<text text-anchor="start" x="312.9053" y="-158.8" font-family="Helvetica,sans-Serif" font-size="11.00" fill="#000000">0 &gt;</text>
<polygon fill="none" stroke="#000000" stroke-width="2" points="181,-151.7 181,-239.7 332,-239.7 332,-151.7 181,-151.7"/>
</a>
</g>
</g>
<!-- aspect -->
<g id="node2" class="node">
<title>aspect</title>
<g id="a_node2"><a xlink:href="../../tables/aspect.html" xlink:title="aspect" target="_top">
<polygon fill="#ffffff" stroke="transparent" points="9.5,-38.2 9.5,-165.2 129.5,-165.2 129.5,-38.2 9.5,-38.2"/>
<polygon fill="#f5f5f5" stroke="transparent" points="9.5,-141.7 9.5,-164.7 129.5,-164.7 129.5,-141.7 9.5,-141.7"/>
<polygon fill="none" stroke="#000000" points="9.5,-141.7 9.5,-164.7 129.5,-164.7 129.5,-141.7 9.5,-141.7"/>
<text text-anchor="start" x="14.5" y="-150.3" font-family="Helvetica,sans-Serif" font-weight="bold" font-size="11.00" fill="#000000">aspect</text>
<text text-anchor="start" x="94.5437" y="-149.8" font-family="Helvetica,sans-Serif" font-size="11.00" fill="#000000">[table]</text>
<polygon fill="none" stroke="#000000" points="9.5,-119.7 9.5,-141.7 129.5,-141.7 129.5,-119.7 9.5,-119.7"/>
<image xlink:href="../../images/primaryKeys.png" width="11px" height="12px" preserveAspectRatio="xMinYMin meet" x="14.5" y="-136.7"/>
<text text-anchor="start" x="29.5" y="-126.8" font-family="Helvetica,sans-Serif" font-size="11.00" fill="#000000">aspect_id</text>
<polygon fill="#ffffff" stroke="transparent" points="9.5,-97.7 9.5,-119.7 129.5,-119.7 129.5,-97.7 9.5,-97.7"/>
<polygon fill="none" stroke="#000000" points="9.5,-97.7 9.5,-119.7 129.5,-119.7 129.5,-97.7 9.5,-97.7"/>
<text text-anchor="start" x="29.5" y="-104.8" font-family="Helvetica,sans-Serif" font-size="11.00" fill="#000000">description</text>
<polygon fill="#ffffff" stroke="transparent" points="9.5,-75.7 9.5,-97.7 129.5,-97.7 129.5,-75.7 9.5,-75.7"/>
<polygon fill="none" stroke="#000000" points="9.5,-75.7 9.5,-97.7 129.5,-97.7 129.5,-75.7 9.5,-75.7"/>
<image xlink:href="../../images/foreignKeys.png" width="11px" height="12px" preserveAspectRatio="xMinYMin meet" x="14.5" y="-92.7"/>
<text text-anchor="start" x="29.5" y="-82.8" font-family="Helvetica,sans-Serif" font-size="11.00" fill="#000000">aspect_type_id</text>
<polygon fill="none" stroke="#000000" points="9.5,-56.7 9.5,-75.7 129.5,-75.7 129.5,-56.7 9.5,-56.7"/>
<text text-anchor="start" x="12.5" y="-62.8" font-family="Helvetica,sans-Serif" font-size="11.00" fill="#000000">...</text>
<polygon fill="#ffffff" stroke="transparent" points="9.5,-37.7 9.5,-56.7 39.5,-56.7 39.5,-37.7 9.5,-37.7"/>
<polygon fill="none" stroke="#000000" points="9.5,-37.7 9.5,-56.7 39.5,-56.7 39.5,-37.7 9.5,-37.7"/>
<text text-anchor="start" x="12.5" y="-43.8" font-family="Helvetica,sans-Serif" font-size="11.00" fill="#000000">&lt; 1</text>
<polygon fill="#ffffff" stroke="transparent" points="39.5,-37.7 39.5,-56.7 103.5,-56.7 103.5,-37.7 39.5,-37.7"/>
<polygon fill="none" stroke="#000000" points="39.5,-37.7 39.5,-56.7 103.5,-56.7 103.5,-37.7 39.5,-37.7"/>
<text text-anchor="start" x="46.7089" y="-43.8" font-family="Helvetica,sans-Serif" font-size="11.00" fill="#000000">2.300 rows</text>
<polygon fill="#ffffff" stroke="transparent" points="103.5,-37.7 103.5,-56.7 129.5,-56.7 129.5,-37.7 103.5,-37.7"/>
<polygon fill="none" stroke="#000000" points="103.5,-37.7 103.5,-56.7 129.5,-56.7 129.5,-37.7 103.5,-37.7"/>
<text text-anchor="start" x="110.9053" y="-43.8" font-family="Helvetica,sans-Serif" font-size="11.00" fill="#000000">6 &gt;</text>
</a>
</g>
</g>
<!-- point_aspect&#45;&gt;aspect -->
<g id="edge1" class="edge">
<title>point_aspect:w&#45;&gt;aspect:e</title>
<path fill="none" stroke="#000000" d="M168.6329,-178.2665C152.6867,-165.6915 156.5702,-130.7 129.5,-130.7"/>
<polygon fill="#000000" stroke="#000000" points="174.88,-180.2637 181.4037,-186.129 178.69,-181.4819 182.5,-182.7 182.5,-182.7 182.5,-182.7 178.69,-181.4819 183.5963,-179.271 174.88,-180.2637 174.88,-180.2637"/>
<ellipse fill="none" stroke="#000000" cx="171.832" cy="-179.2892" rx="3.2" ry="3.2"/>
</g>
<!-- point -->
<g id="node3" class="node">
<title>point</title>
<g id="a_node3"><a xlink:href="../../tables/point.html" xlink:title="point" target="_top">
<polygon fill="#ffffff" stroke="transparent" points="8,-186.2 8,-291.2 131,-291.2 131,-186.2 8,-186.2"/>
<polygon fill="#f5f5f5" stroke="transparent" points="8.5,-267.7 8.5,-290.7 131.5,-290.7 131.5,-267.7 8.5,-267.7"/>
<polygon fill="none" stroke="#000000" points="8.5,-267.7 8.5,-290.7 131.5,-290.7 131.5,-267.7 8.5,-267.7"/>
<text text-anchor="start" x="13.5" y="-276.3" font-family="Helvetica,sans-Serif" font-weight="bold" font-size="11.00" fill="#000000">point</text>
<text text-anchor="start" x="96.5437" y="-275.8" font-family="Helvetica,sans-Serif" font-size="11.00" fill="#000000">[table]</text>
<polygon fill="none" stroke="#000000" points="8.5,-245.7 8.5,-267.7 131.5,-267.7 131.5,-245.7 8.5,-245.7"/>
<image xlink:href="../../images/primaryKeys.png" width="11px" height="12px" preserveAspectRatio="xMinYMin meet" x="13.5" y="-262.7"/>
<text text-anchor="start" x="53.5" y="-252.8" font-family="Helvetica,sans-Serif" font-size="11.00" fill="#000000">point_id</text>
<polygon fill="#ffffff" stroke="transparent" points="8.5,-223.7 8.5,-245.7 131.5,-245.7 131.5,-223.7 8.5,-223.7"/>
<polygon fill="none" stroke="#000000" points="8.5,-223.7 8.5,-245.7 131.5,-245.7 131.5,-223.7 8.5,-223.7"/>
<image xlink:href="../../images/foreignKeys.png" width="11px" height="12px" preserveAspectRatio="xMinYMin meet" x="13.5" y="-240.7"/>
<text text-anchor="start" x="53.5" y="-230.8" font-family="Helvetica,sans-Serif" font-size="11.00" fill="#000000">mat_id</text>
<polygon fill="none" stroke="#000000" points="8.5,-204.7 8.5,-223.7 131.5,-223.7 131.5,-204.7 8.5,-204.7"/>
<text text-anchor="start" x="11.5" y="-210.8" font-family="Helvetica,sans-Serif" font-size="11.00" fill="#000000">...</text>
<polygon fill="#ffffff" stroke="transparent" points="8.5,-185.7 8.5,-204.7 29.5,-204.7 29.5,-185.7 8.5,-185.7"/>
<polygon fill="none" stroke="#000000" points="8.5,-185.7 8.5,-204.7 29.5,-204.7 29.5,-185.7 8.5,-185.7"/>
<text text-anchor="start" x="11.2027" y="-191.8" font-family="Helvetica,sans-Serif" font-size="11.00" fill="#000000">&lt; 1</text>
<polygon fill="#ffffff" stroke="transparent" points="29.5,-185.7 29.5,-204.7 110.5,-204.7 110.5,-185.7 29.5,-185.7"/>
<polygon fill="none" stroke="#000000" points="29.5,-185.7 29.5,-204.7 110.5,-204.7 110.5,-185.7 29.5,-185.7"/>
<text text-anchor="start" x="32.4037" y="-191.8" font-family="Helvetica,sans-Serif" font-size="11.00" fill="#000000">1.039.258 rows</text>
<polygon fill="#ffffff" stroke="transparent" points="110.5,-185.7 110.5,-204.7 131.5,-204.7 131.5,-185.7 110.5,-185.7"/>
<polygon fill="none" stroke="#000000" points="110.5,-185.7 110.5,-204.7 131.5,-204.7 131.5,-185.7 110.5,-185.7"/>
<text text-anchor="start" x="113.2027" y="-191.8" font-family="Helvetica,sans-Serif" font-size="11.00" fill="#000000">4 &gt;</text>
</a>
</g>
</g>
<!-- point_aspect&#45;&gt;point -->
<g id="edge2" class="edge">
<title>point_aspect:w&#45;&gt;point:e</title>
<path fill="none" stroke="#000000" d="M168.5468,-209.4988C153.661,-222.3719 157.8017,-256.7 131.5,-256.7"/>
<polygon fill="#000000" stroke="#000000" points="174.9349,-207.3018 183.6708,-208.1043 178.7175,-206.0009 182.5,-204.7 182.5,-204.7 182.5,-204.7 178.7175,-206.0009 181.3292,-201.2957 174.9349,-207.3018 174.9349,-207.3018"/>
<ellipse fill="none" stroke="#000000" cx="171.9089" cy="-208.3426" rx="3.2" ry="3.2"/>
</g>
</g>
</svg>
