<?xml version="1.0" encoding="UTF-8" standalone="no"?>
<!DOCTYPE svg PUBLIC "-//W3C//DTD SVG 1.1//EN"
 "http://www.w3.org/Graphics/SVG/1.1/DTD/svg11.dtd">
<!-- Generated by graphviz version 2.40.1 (20161225.0304)
 -->
<!-- Title: oneDegreeRelationshipsDiagram Pages: 1 -->
<svg width="694pt" height="351pt"
 viewBox="0.00 0.00 694.00 350.70" xmlns="http://www.w3.org/2000/svg" xmlns:xlink="http://www.w3.org/1999/xlink">
<g id="graph0" class="graph" transform="scale(1 1) rotate(0) translate(4 346.7)">
<title>oneDegreeRelationshipsDiagram</title>
<polygon fill="#ffffff" stroke="transparent" points="-4,4 -4,-346.7 690,-346.7 690,4 -4,4"/>
<text text-anchor="middle" x="72.4936" y="-7.3" font-family="Helvetica,sans-Serif" font-size="11.00" fill="#000000">Generated by SchemaSpy</text>
<!-- predicate -->
<g id="node1" class="node">
<title>predicate</title>
<g id="a_node1"><a xlink:href="../../tables/predicate.html" xlink:title="predicate" target="_top">
<polygon fill="#ffffff" stroke="transparent" points="210,-43.7 210,-287.7 439,-287.7 439,-43.7 210,-43.7"/>
<polygon fill="#f5f5f5" stroke="transparent" points="212.5,-262.7 212.5,-285.7 437.5,-285.7 437.5,-262.7 212.5,-262.7"/>
<polygon fill="none" stroke="#000000" points="212.5,-262.7 212.5,-285.7 437.5,-285.7 437.5,-262.7 212.5,-262.7"/>
<text text-anchor="start" x="217.5" y="-271.3" font-family="Helvetica,sans-Serif" font-weight="bold" font-size="11.00" fill="#000000">predicate</text>
<text text-anchor="start" x="402.5437" y="-270.8" font-family="Helvetica,sans-Serif" font-size="11.00" fill="#000000">[table]</text>
<polygon fill="none" stroke="#000000" points="212.5,-240.7 212.5,-262.7 370.5,-262.7 370.5,-240.7 212.5,-240.7"/>
<image xlink:href="../../images/primaryKeys.png" width="11px" height="12px" preserveAspectRatio="xMinYMin meet" x="217.5" y="-257.7"/>
<text text-anchor="start" x="232.5" y="-247.8" font-family="Helvetica,sans-Serif" font-size="11.00" fill="#000000">predicate_id</text>
<polygon fill="none" stroke="#000000" points="370.5,-240.7 370.5,-262.7 437.5,-262.7 437.5,-240.7 370.5,-240.7"/>
<text text-anchor="start" x="373.5" y="-248.4" font-family="Helvetica,sans-Serif" font-size="11.00" fill="#000000">int4[10]</text>
<polygon fill="none" stroke="#000000" points="212.5,-218.7 212.5,-240.7 370.5,-240.7 370.5,-218.7 212.5,-218.7"/>
<text text-anchor="start" x="232.5" y="-225.8" font-family="Helvetica,sans-Serif" font-size="11.00" fill="#000000">description</text>
<polygon fill="none" stroke="#000000" points="370.5,-218.7 370.5,-240.7 437.5,-240.7 437.5,-218.7 370.5,-218.7"/>
<text text-anchor="start" x="373.5" y="-226.4" font-family="Helvetica,sans-Serif" font-size="11.00" fill="#000000">varchar[50]</text>
<polygon fill="none" stroke="#000000" points="212.5,-196.7 212.5,-218.7 370.5,-218.7 370.5,-196.7 212.5,-196.7"/>
<text text-anchor="start" x="232.5" y="-203.8" font-family="Helvetica,sans-Serif" font-size="11.00" fill="#000000">predicate_order</text>
<polygon fill="none" stroke="#000000" points="370.5,-196.7 370.5,-218.7 437.5,-218.7 437.5,-196.7 370.5,-196.7"/>
<text text-anchor="start" x="373.5" y="-204.4" font-family="Helvetica,sans-Serif" font-size="11.00" fill="#000000">int4[10]</text>
<polygon fill="none" stroke="#000000" points="212.5,-174.7 212.5,-196.7 370.5,-196.7 370.5,-174.7 212.5,-174.7"/>
<text text-anchor="start" x="232.5" y="-181.8" font-family="Helvetica,sans-Serif" font-size="11.00" fill="#000000">predicate_path</text>
<polygon fill="none" stroke="#000000" points="370.5,-174.7 370.5,-196.7 437.5,-196.7 437.5,-174.7 370.5,-174.7"/>
<text text-anchor="start" x="373.4365" y="-182.4" font-family="Helvetica,sans-Serif" font-size="11.00" fill="#000000">varchar[250]</text>
<polygon fill="none" stroke="#000000" points="212.5,-152.7 212.5,-174.7 370.5,-174.7 370.5,-152.7 212.5,-152.7"/>
<text text-anchor="start" x="232.5" y="-159.8" font-family="Helvetica,sans-Serif" font-size="11.00" fill="#000000">parenthesis_type</text>
<polygon fill="none" stroke="#000000" points="370.5,-152.7 370.5,-174.7 437.5,-174.7 437.5,-152.7 370.5,-152.7"/>
<text text-anchor="start" x="373.5" y="-160.4" font-family="Helvetica,sans-Serif" font-size="11.00" fill="#000000">int4[10]</text>
<polygon fill="none" stroke="#000000" points="212.5,-130.7 212.5,-152.7 370.5,-152.7 370.5,-130.7 212.5,-130.7"/>
<text text-anchor="start" x="232.5" y="-137.8" font-family="Helvetica,sans-Serif" font-size="11.00" fill="#000000">parenthesis_amount</text>
<polygon fill="none" stroke="#000000" points="370.5,-130.7 370.5,-152.7 437.5,-152.7 437.5,-130.7 370.5,-130.7"/>
<text text-anchor="start" x="373.5" y="-138.4" font-family="Helvetica,sans-Serif" font-size="11.00" fill="#000000">float8[17,17]</text>
<polygon fill="none" stroke="#000000" points="212.5,-108.7 212.5,-130.7 370.5,-130.7 370.5,-108.7 212.5,-108.7"/>
<text text-anchor="start" x="232.5" y="-115.8" font-family="Helvetica,sans-Serif" font-size="11.00" fill="#000000">logical_operator</text>
<polygon fill="none" stroke="#000000" points="370.5,-108.7 370.5,-130.7 437.5,-130.7 437.5,-108.7 370.5,-108.7"/>
<text text-anchor="start" x="373.5" y="-116.4" font-family="Helvetica,sans-Serif" font-size="11.00" fill="#000000">varchar[20]</text>
<polygon fill="#ffffff" stroke="transparent" points="212.5,-86.7 212.5,-108.7 370.5,-108.7 370.5,-86.7 212.5,-86.7"/>
<polygon fill="none" stroke="#000000" points="212.5,-86.7 212.5,-108.7 370.5,-108.7 370.5,-86.7 212.5,-86.7"/>
<image xlink:href="../../images/foreignKeys.png" width="11px" height="12px" preserveAspectRatio="xMinYMin meet" x="217.5" y="-103.7"/>
<text text-anchor="start" x="232.5" y="-93.8" font-family="Helvetica,sans-Serif" font-size="11.00" fill="#000000">determined</text>
<polygon fill="none" stroke="#000000" points="370.5,-86.7 370.5,-108.7 437.5,-108.7 437.5,-86.7 370.5,-86.7"/>
<text text-anchor="start" x="373.5" y="-94.4" font-family="Helvetica,sans-Serif" font-size="11.00" fill="#000000">int4[10]</text>
<polygon fill="#ffffff" stroke="transparent" points="212.5,-64.7 212.5,-86.7 370.5,-86.7 370.5,-64.7 212.5,-64.7"/>
<polygon fill="none" stroke="#000000" points="212.5,-64.7 212.5,-86.7 370.5,-86.7 370.5,-64.7 212.5,-64.7"/>
<image xlink:href="../../images/foreignKeys.png" width="11px" height="12px" preserveAspectRatio="xMinYMin meet" x="217.5" y="-81.7"/>
<text text-anchor="start" x="232.5" y="-71.8" font-family="Helvetica,sans-Serif" font-size="11.00" fill="#000000">determinant</text>
<polygon fill="none" stroke="#000000" points="370.5,-64.7 370.5,-86.7 437.5,-86.7 437.5,-64.7 370.5,-64.7"/>
<text text-anchor="start" x="373.5" y="-72.4" font-family="Helvetica,sans-Serif" font-size="11.00" fill="#000000">int4[10]</text>
<polygon fill="#ffffff" stroke="transparent" points="212.5,-45.7 212.5,-64.7 282.5,-64.7 282.5,-45.7 212.5,-45.7"/>
<polygon fill="none" stroke="#000000" points="212.5,-45.7 212.5,-64.7 282.5,-64.7 282.5,-45.7 212.5,-45.7"/>
<text text-anchor="start" x="215.5" y="-51.8" font-family="Helvetica,sans-Serif" font-size="11.00" fill="#000000">&lt; 2</text>
<polygon fill="#ffffff" stroke="transparent" points="282.5,-45.7 282.5,-64.7 370.5,-64.7 370.5,-45.7 282.5,-45.7"/>
<polygon fill="none" stroke="#000000" points="282.5,-45.7 282.5,-64.7 370.5,-64.7 370.5,-45.7 282.5,-45.7"/>
<text text-anchor="start" x="335.1105" y="-51.8" font-family="Helvetica,sans-Serif" font-size="11.00" fill="#000000">0 rows</text>
<polygon fill="#ffffff" stroke="transparent" points="370.5,-45.7 370.5,-64.7 437.5,-64.7 437.5,-45.7 370.5,-45.7"/>
<polygon fill="none" stroke="#000000" points="370.5,-45.7 370.5,-64.7 437.5,-64.7 437.5,-45.7 370.5,-45.7"/>
<text text-anchor="start" x="418.9053" y="-51.8" font-family="Helvetica,sans-Serif" font-size="11.00" fill="#000000">2 &gt;</text>
<polygon fill="none" stroke="#000000" stroke-width="2" points="211,-44.7 211,-286.7 438,-286.7 438,-44.7 211,-44.7"/>
</a>
</g>
</g>
<!-- dependency_rule -->
<g id="node2" class="node">
<title>dependency_rule</title>
<g id="a_node2"><a xlink:href="../../tables/dependency_rule.html" xlink:title="dependency_rule" target="_top">
<polygon fill="#ffffff" stroke="transparent" points="8,-38.2 8,-121.2 161,-121.2 161,-38.2 8,-38.2"/>
<polygon fill="#f5f5f5" stroke="transparent" points="8.5,-97.7 8.5,-120.7 161.5,-120.7 161.5,-97.7 8.5,-97.7"/>
<polygon fill="none" stroke="#000000" points="8.5,-97.7 8.5,-120.7 161.5,-120.7 161.5,-97.7 8.5,-97.7"/>
<text text-anchor="start" x="13.5" y="-106.3" font-family="Helvetica,sans-Serif" font-weight="bold" font-size="11.00" fill="#000000">dependency_rule</text>
<text text-anchor="start" x="127.0219" y="-105.8" font-family="Helvetica,sans-Serif" font-size="11.00" fill="#000000">[table]</text>
<polygon fill="none" stroke="#000000" points="8.5,-75.7 8.5,-97.7 161.5,-97.7 161.5,-75.7 8.5,-75.7"/>
<image xlink:href="../../images/primaryKeys.png" width="11px" height="12px" preserveAspectRatio="xMinYMin meet" x="13.5" y="-92.7"/>
<text text-anchor="start" x="37.5" y="-82.8" font-family="Helvetica,sans-Serif" font-size="11.00" fill="#000000">rule_id</text>
<polygon fill="none" stroke="#000000" points="8.5,-56.7 8.5,-75.7 161.5,-75.7 161.5,-56.7 8.5,-56.7"/>
<text text-anchor="start" x="11.5" y="-62.8" font-family="Helvetica,sans-Serif" font-size="11.00" fill="#000000">...</text>
<polygon fill="#ffffff" stroke="transparent" points="8.5,-37.7 8.5,-56.7 61.5,-56.7 61.5,-37.7 8.5,-37.7"/>
<polygon fill="none" stroke="#000000" points="8.5,-37.7 8.5,-56.7 61.5,-56.7 61.5,-37.7 8.5,-37.7"/>
<text text-anchor="start" x="11.5" y="-43.8" font-family="Helvetica,sans-Serif" font-size="11.00" fill="#000000"> &#160;</text>
<polygon fill="#ffffff" stroke="transparent" points="61.5,-37.7 61.5,-56.7 119.5,-56.7 119.5,-37.7 61.5,-37.7"/>
<polygon fill="none" stroke="#000000" points="61.5,-37.7 61.5,-56.7 119.5,-56.7 119.5,-37.7 61.5,-37.7"/>
<text text-anchor="start" x="84.1105" y="-43.8" font-family="Helvetica,sans-Serif" font-size="11.00" fill="#000000">0 rows</text>
<polygon fill="#ffffff" stroke="transparent" points="119.5,-37.7 119.5,-56.7 161.5,-56.7 161.5,-37.7 119.5,-37.7"/>
<polygon fill="none" stroke="#000000" points="119.5,-37.7 119.5,-56.7 161.5,-56.7 161.5,-37.7 119.5,-37.7"/>
<text text-anchor="start" x="142.9053" y="-43.8" font-family="Helvetica,sans-Serif" font-size="11.00" fill="#000000">7 &gt;</text>
</a>
</g>
</g>
<!-- predicate&#45;&gt;dependency_rule -->
<g id="edge1" class="edge">
<title>predicate:w&#45;&gt;dependency_rule:e</title>
<path fill="none" stroke="#000000" d="M198.0097,-77.4187C185.8398,-80.5125 178.8909,-86.7 161.5,-86.7"/>
<polygon fill="#000000" stroke="#000000" points="204.5557,-76.6424 212.9241,-79.2749 208.5278,-76.1712 212.5,-75.7 212.5,-75.7 212.5,-75.7 208.5278,-76.1712 212.0759,-72.1251 204.5557,-76.6424 204.5557,-76.6424"/>
<ellipse fill="none" stroke="#000000" cx="201.378" cy="-77.0193" rx="3.2" ry="3.2"/>
</g>
<!-- predicate&#45;&gt;dependency_rule -->
<g id="edge2" class="edge">
<title>predicate:w&#45;&gt;dependency_rule:e</title>
<path fill="none" stroke="#000000" d="M198.0097,-95.9812C185.8398,-92.8875 178.8909,-86.7 161.5,-86.7"/>
<polygon fill="#000000" stroke="#000000" points="204.5557,-96.7576 212.0759,-101.2749 208.5278,-97.2288 212.5,-97.7 212.5,-97.7 212.5,-97.7 208.5278,-97.2288 212.9241,-94.1251 204.5557,-96.7576 204.5557,-96.7576"/>
<ellipse fill="none" stroke="#000000" cx="201.378" cy="-96.3807" rx="3.2" ry="3.2"/>
</g>
<!-- predicate_aspect -->
<g id="node3" class="node">
<title>predicate_aspect</title>
<g id="a_node3"><a xlink:href="../../tables/predicate_aspect.html" xlink:title="predicate_aspect" target="_top">
<polygon fill="#ffffff" stroke="transparent" points="506,-252.7 506,-338.7 660,-338.7 660,-252.7 506,-252.7"/>
<polygon fill="#f5f5f5" stroke="transparent" points="506,-315.7 506,-338.7 660,-338.7 660,-315.7 506,-315.7"/>
<polygon fill="none" stroke="#000000" points="506,-315.7 506,-338.7 660,-338.7 660,-315.7 506,-315.7"/>
<text text-anchor="start" x="511" y="-324.3" font-family="Helvetica,sans-Serif" font-weight="bold" font-size="11.00" fill="#000000">predicate_aspect</text>
<text text-anchor="start" x="625.5219" y="-323.8" font-family="Helvetica,sans-Serif" font-size="11.00" fill="#000000">[table]</text>
<polygon fill="none" stroke="#000000" points="506,-293.7 506,-315.7 660,-315.7 660,-293.7 506,-293.7"/>
<image xlink:href="../../images/primaryKeys.png" width="11px" height="12px" preserveAspectRatio="xMinYMin meet" x="511" y="-310.7"/>
<text text-anchor="start" x="535" y="-300.8" font-family="Helvetica,sans-Serif" font-size="11.00" fill="#000000">predicate_id</text>
<polygon fill="none" stroke="#000000" points="506,-271.7 506,-293.7 660,-293.7 660,-271.7 506,-271.7"/>
<image xlink:href="../../images/primaryKeys.png" width="11px" height="12px" preserveAspectRatio="xMinYMin meet" x="511" y="-288.7"/>
<text text-anchor="start" x="535" y="-278.8" font-family="Helvetica,sans-Serif" font-size="11.00" fill="#000000">aspect_id</text>
<polygon fill="#ffffff" stroke="transparent" points="506,-252.7 506,-271.7 568,-271.7 568,-252.7 506,-252.7"/>
<polygon fill="none" stroke="#000000" points="506,-252.7 506,-271.7 568,-271.7 568,-252.7 506,-252.7"/>
<text text-anchor="start" x="509" y="-258.8" font-family="Helvetica,sans-Serif" font-size="11.00" fill="#000000">&lt; 2</text>
<polygon fill="#ffffff" stroke="transparent" points="568,-252.7 568,-271.7 627,-271.7 627,-252.7 568,-252.7"/>
<polygon fill="none" stroke="#000000" points="568,-252.7 568,-271.7 627,-271.7 627,-252.7 568,-252.7"/>
<text text-anchor="start" x="591.6105" y="-258.8" font-family="Helvetica,sans-Serif" font-size="11.00" fill="#000000">0 rows</text>
<polygon fill="#ffffff" stroke="transparent" points="627,-252.7 627,-271.7 660,-271.7 660,-252.7 627,-252.7"/>
<polygon fill="none" stroke="#000000" points="627,-252.7 627,-271.7 660,-271.7 660,-252.7 627,-252.7"/>
<text text-anchor="start" x="650.8862" y="-258.8" font-family="Helvetica,sans-Serif" font-size="11.00" fill="#000000"> &#160;</text>
</a>
</g>
</g>
<!-- predicate_aspect&#45;&gt;predicate -->
<g id="edge3" class="edge">
<title>predicate_aspect:w&#45;&gt;predicate:e</title>
<path fill="none" stroke="#000000" d="M491.6566,-301.5433C468.9911,-290.1334 470.2794,-251.7 437.5,-251.7"/>
<polygon fill="#000000" stroke="#000000" points="498.187,-302.9805 505.2262,-308.2159 502.0935,-303.8402 506,-304.7 506,-304.7 506,-304.7 502.0935,-303.8402 506.7738,-301.1841 498.187,-302.9805 498.187,-302.9805"/>
<ellipse fill="none" stroke="#000000" cx="495.0618" cy="-302.2927" rx="3.2" ry="3.2"/>
</g>
<!-- predicate_aspect_type -->
<g id="node4" class="node">
<title>predicate_aspect_type</title>
<g id="a_node4"><a xlink:href="../../tables/predicate_aspect_type.html" xlink:title="predicate_aspect_type" target="_top">
<polygon fill="#ffffff" stroke="transparent" points="488,-145.7 488,-231.7 678,-231.7 678,-145.7 488,-145.7"/>
<polygon fill="#f5f5f5" stroke="transparent" points="488,-208.7 488,-231.7 678,-231.7 678,-208.7 488,-208.7"/>
<polygon fill="none" stroke="#000000" points="488,-208.7 488,-231.7 678,-231.7 678,-208.7 488,-208.7"/>
<text text-anchor="start" x="493" y="-217.3" font-family="Helvetica,sans-Serif" font-weight="bold" font-size="11.00" fill="#000000">predicate_aspect_type</text>
<text text-anchor="start" x="643.5219" y="-216.8" font-family="Helvetica,sans-Serif" font-size="11.00" fill="#000000">[table]</text>
<polygon fill="none" stroke="#000000" points="488,-186.7 488,-208.7 678,-208.7 678,-186.7 488,-186.7"/>
<image xlink:href="../../images/primaryKeys.png" width="11px" height="12px" preserveAspectRatio="xMinYMin meet" x="493" y="-203.7"/>
<text text-anchor="start" x="517" y="-193.8" font-family="Helvetica,sans-Serif" font-size="11.00" fill="#000000">predicate_id</text>
<polygon fill="none" stroke="#000000" points="488,-164.7 488,-186.7 678,-186.7 678,-164.7 488,-164.7"/>
<image xlink:href="../../images/primaryKeys.png" width="11px" height="12px" preserveAspectRatio="xMinYMin meet" x="493" y="-181.7"/>
<text text-anchor="start" x="517" y="-171.8" font-family="Helvetica,sans-Serif" font-size="11.00" fill="#000000">aspect_type_id</text>
<polygon fill="#ffffff" stroke="transparent" points="488,-145.7 488,-164.7 568,-164.7 568,-145.7 488,-145.7"/>
<polygon fill="none" stroke="#000000" points="488,-145.7 488,-164.7 568,-164.7 568,-145.7 488,-145.7"/>
<text text-anchor="start" x="491" y="-151.8" font-family="Helvetica,sans-Serif" font-size="11.00" fill="#000000">&lt; 2</text>
<polygon fill="#ffffff" stroke="transparent" points="568,-145.7 568,-164.7 636,-164.7 636,-145.7 568,-145.7"/>
<polygon fill="none" stroke="#000000" points="568,-145.7 568,-164.7 636,-164.7 636,-145.7 568,-145.7"/>
<text text-anchor="start" x="600.6105" y="-151.8" font-family="Helvetica,sans-Serif" font-size="11.00" fill="#000000">0 rows</text>
<polygon fill="#ffffff" stroke="transparent" points="636,-145.7 636,-164.7 678,-164.7 678,-145.7 636,-145.7"/>
<polygon fill="none" stroke="#000000" points="636,-145.7 636,-164.7 678,-164.7 678,-145.7 636,-145.7"/>
<text text-anchor="start" x="668.8862" y="-151.8" font-family="Helvetica,sans-Serif" font-size="11.00" fill="#000000"> &#160;</text>
</a>
</g>
</g>
<!-- predicate_aspect_type&#45;&gt;predicate -->
<g id="edge4" class="edge">
<title>predicate_aspect_type:w&#45;&gt;predicate:e</title>
<path fill="none" stroke="#000000" d="M473.9534,-202.6834C459.1573,-216.0516 464.1984,-251.7 437.5,-251.7"/>
<polygon fill="#000000" stroke="#000000" points="480.4604,-200.3749 489.2037,-201.0928 484.2302,-199.0375 488,-197.7 488,-197.7 488,-197.7 484.2302,-199.0375 486.7963,-194.3072 480.4604,-200.3749 480.4604,-200.3749"/>
<ellipse fill="none" stroke="#000000" cx="477.4446" cy="-201.4449" rx="3.2" ry="3.2"/>
</g>
</g>
</svg>
