<?xml version="1.0" encoding="UTF-8" standalone="no"?>
<!DOCTYPE svg PUBLIC "-//W3C//DTD SVG 1.1//EN"
 "http://www.w3.org/Graphics/SVG/1.1/DTD/svg11.dtd">
<!-- Generated by graphviz version 2.40.1 (20161225.0304)
 -->
<!-- Title: twoDegreesRelationshipsDiagram Pages: 1 -->
<svg width="651pt" height="384pt"
 viewBox="0.00 0.00 651.00 384.20" xmlns="http://www.w3.org/2000/svg" xmlns:xlink="http://www.w3.org/1999/xlink">
<g id="graph0" class="graph" transform="scale(1 1) rotate(0) translate(4 380.2)">
<title>twoDegreesRelationshipsDiagram</title>
<polygon fill="#ffffff" stroke="transparent" points="-4,4 -4,-380.2 647,-380.2 647,4 -4,4"/>
<text text-anchor="middle" x="72.4936" y="-7.3" font-family="Helvetica,sans-Serif" font-size="11.00" fill="#000000">Generated by SchemaSpy</text>
<!-- aspect -->
<g id="node1" class="node">
<title>aspect</title>
<g id="a_node1"><a xlink:href="../../tables/aspect.html" xlink:title="aspect" target="_top">
<polygon fill="#ffffff" stroke="transparent" points="238.5,-81.2 238.5,-142.2 339.5,-142.2 339.5,-81.2 238.5,-81.2"/>
<polygon fill="#f5f5f5" stroke="transparent" points="239,-118.7 239,-141.7 340,-141.7 340,-118.7 239,-118.7"/>
<polygon fill="none" stroke="#000000" points="239,-118.7 239,-141.7 340,-141.7 340,-118.7 239,-118.7"/>
<text text-anchor="start" x="244" y="-127.3" font-family="Helvetica,sans-Serif" font-weight="bold" font-size="11.00" fill="#000000">aspect</text>
<text text-anchor="start" x="305.0437" y="-126.8" font-family="Helvetica,sans-Serif" font-size="11.00" fill="#000000">[table]</text>
<polygon fill="none" stroke="#000000" points="239,-99.7 239,-118.7 340,-118.7 340,-99.7 239,-99.7"/>
<text text-anchor="start" x="242" y="-105.8" font-family="Helvetica,sans-Serif" font-size="11.00" fill="#000000">...</text>
<polygon fill="#ffffff" stroke="transparent" points="239,-80.7 239,-99.7 260,-99.7 260,-80.7 239,-80.7"/>
<polygon fill="none" stroke="#000000" points="239,-80.7 239,-99.7 260,-99.7 260,-80.7 239,-80.7"/>
<text text-anchor="start" x="241.7027" y="-86.8" font-family="Helvetica,sans-Serif" font-size="11.00" fill="#000000">&lt; 1</text>
<polygon fill="#ffffff" stroke="transparent" points="260,-80.7 260,-99.7 319,-99.7 319,-80.7 260,-80.7"/>
<polygon fill="none" stroke="#000000" points="260,-80.7 260,-99.7 319,-99.7 319,-80.7 260,-80.7"/>
<text text-anchor="start" x="262.6045" y="-86.8" font-family="Helvetica,sans-Serif" font-size="11.00" fill="#000000">2.300 rows</text>
<polygon fill="#ffffff" stroke="transparent" points="319,-80.7 319,-99.7 340,-99.7 340,-80.7 319,-80.7"/>
<polygon fill="none" stroke="#000000" points="319,-80.7 319,-99.7 340,-99.7 340,-80.7 319,-80.7"/>
<text text-anchor="start" x="321.7027" y="-86.8" font-family="Helvetica,sans-Serif" font-size="11.00" fill="#000000">6 &gt;</text>
</a>
</g>
</g>
<!-- aspect_type -->
<g id="node2" class="node">
<title>aspect_type</title>
<g id="a_node2"><a xlink:href="../../tables/aspect_type.html" xlink:title="aspect_type" target="_top">
<polygon fill="#ffffff" stroke="transparent" points="24.5,-38.2 24.5,-143.2 144.5,-143.2 144.5,-38.2 24.5,-38.2"/>
<polygon fill="#f5f5f5" stroke="transparent" points="24.5,-119.7 24.5,-142.7 144.5,-142.7 144.5,-119.7 24.5,-119.7"/>
<polygon fill="none" stroke="#000000" points="24.5,-119.7 24.5,-142.7 144.5,-142.7 144.5,-119.7 24.5,-119.7"/>
<text text-anchor="start" x="29.5" y="-128.3" font-family="Helvetica,sans-Serif" font-weight="bold" font-size="11.00" fill="#000000">aspect_type</text>
<text text-anchor="start" x="110.0219" y="-127.8" font-family="Helvetica,sans-Serif" font-size="11.00" fill="#000000">[table]</text>
<polygon fill="none" stroke="#000000" points="24.5,-97.7 24.5,-119.7 144.5,-119.7 144.5,-97.7 24.5,-97.7"/>
<image xlink:href="../../images/primaryKeys.png" width="11px" height="12px" preserveAspectRatio="xMinYMin meet" x="29.5" y="-114.7"/>
<text text-anchor="start" x="44.5" y="-104.8" font-family="Helvetica,sans-Serif" font-size="11.00" fill="#000000">aspect_type_id</text>
<polygon fill="#ffffff" stroke="transparent" points="24.5,-75.7 24.5,-97.7 144.5,-97.7 144.5,-75.7 24.5,-75.7"/>
<polygon fill="none" stroke="#000000" points="24.5,-75.7 24.5,-97.7 144.5,-97.7 144.5,-75.7 24.5,-75.7"/>
<image xlink:href="../../images/foreignKeys.png" width="11px" height="12px" preserveAspectRatio="xMinYMin meet" x="29.5" y="-92.7"/>
<text text-anchor="start" x="44.5" y="-82.8" font-family="Helvetica,sans-Serif" font-size="11.00" fill="#000000">super_type_id</text>
<polygon fill="none" stroke="#000000" points="24.5,-56.7 24.5,-75.7 144.5,-75.7 144.5,-56.7 24.5,-56.7"/>
<text text-anchor="start" x="27.5" y="-62.8" font-family="Helvetica,sans-Serif" font-size="11.00" fill="#000000">...</text>
<polygon fill="#ffffff" stroke="transparent" points="24.5,-37.7 24.5,-56.7 65.5,-56.7 65.5,-37.7 24.5,-37.7"/>
<polygon fill="none" stroke="#000000" points="24.5,-37.7 24.5,-56.7 65.5,-56.7 65.5,-37.7 24.5,-37.7"/>
<text text-anchor="start" x="27.5" y="-43.8" font-family="Helvetica,sans-Serif" font-size="11.00" fill="#000000">&lt; 1</text>
<polygon fill="#ffffff" stroke="transparent" points="65.5,-37.7 65.5,-56.7 113.5,-56.7 113.5,-37.7 65.5,-37.7"/>
<polygon fill="none" stroke="#000000" points="65.5,-37.7 65.5,-56.7 113.5,-56.7 113.5,-37.7 65.5,-37.7"/>
<text text-anchor="start" x="78.1105" y="-43.8" font-family="Helvetica,sans-Serif" font-size="11.00" fill="#000000">4 rows</text>
<polygon fill="#ffffff" stroke="transparent" points="113.5,-37.7 113.5,-56.7 144.5,-56.7 144.5,-37.7 113.5,-37.7"/>
<polygon fill="none" stroke="#000000" points="113.5,-37.7 113.5,-56.7 144.5,-56.7 144.5,-37.7 113.5,-37.7"/>
<text text-anchor="start" x="125.9053" y="-43.8" font-family="Helvetica,sans-Serif" font-size="11.00" fill="#000000">4 &gt;</text>
</a>
</g>
</g>
<!-- aspect&#45;&gt;aspect_type -->
<g id="edge1" class="edge">
<title>aspect:w&#45;&gt;aspect_type:e</title>
<path fill="none" stroke="#000000" d="M224.1932,-108.7C193.7695,-108.7 181.0859,-108.7 144.5,-108.7"/>
<polygon fill="#000000" stroke="#000000" points="231,-108.7001 239,-112.3 235,-108.7 239,-108.7 239,-108.7 239,-108.7 235,-108.7 239,-105.1 231,-108.7001 231,-108.7001"/>
<ellipse fill="none" stroke="#000000" cx="227.8" cy="-108.7001" rx="3.2" ry="3.2"/>
</g>
<!-- attribute -->
<g id="node3" class="node">
<title>attribute</title>
<g id="a_node3"><a xlink:href="../../tables/attribute.html" xlink:title="attribute" target="_top">
<polygon fill="#ffffff" stroke="transparent" points="239.5,-163.2 239.5,-224.2 338.5,-224.2 338.5,-163.2 239.5,-163.2"/>
<polygon fill="#f5f5f5" stroke="transparent" points="240,-200.7 240,-223.7 339,-223.7 339,-200.7 240,-200.7"/>
<polygon fill="none" stroke="#000000" points="240,-200.7 240,-223.7 339,-223.7 339,-200.7 240,-200.7"/>
<text text-anchor="start" x="245" y="-209.3" font-family="Helvetica,sans-Serif" font-weight="bold" font-size="11.00" fill="#000000">attribute</text>
<text text-anchor="start" x="304.5219" y="-208.8" font-family="Helvetica,sans-Serif" font-size="11.00" fill="#000000">[table]</text>
<polygon fill="none" stroke="#000000" points="240,-181.7 240,-200.7 339,-200.7 339,-181.7 240,-181.7"/>
<text text-anchor="start" x="243" y="-187.8" font-family="Helvetica,sans-Serif" font-size="11.00" fill="#000000">...</text>
<polygon fill="#ffffff" stroke="transparent" points="240,-162.7 240,-181.7 270,-181.7 270,-162.7 240,-162.7"/>
<polygon fill="none" stroke="#000000" points="240,-162.7 240,-181.7 270,-181.7 270,-162.7 240,-162.7"/>
<text text-anchor="start" x="243" y="-168.8" font-family="Helvetica,sans-Serif" font-size="11.00" fill="#000000">&lt; 2</text>
<polygon fill="#ffffff" stroke="transparent" points="270,-162.7 270,-181.7 313,-181.7 313,-162.7 270,-162.7"/>
<polygon fill="none" stroke="#000000" points="270,-162.7 270,-181.7 313,-181.7 313,-162.7 270,-162.7"/>
<text text-anchor="start" x="277.6105" y="-168.8" font-family="Helvetica,sans-Serif" font-size="11.00" fill="#000000">4 rows</text>
<polygon fill="#ffffff" stroke="transparent" points="313,-162.7 313,-181.7 339,-181.7 339,-162.7 313,-162.7"/>
<polygon fill="none" stroke="#000000" points="313,-162.7 313,-181.7 339,-181.7 339,-162.7 313,-162.7"/>
<text text-anchor="start" x="320.4053" y="-168.8" font-family="Helvetica,sans-Serif" font-size="11.00" fill="#000000">1 &gt;</text>
</a>
</g>
</g>
<!-- attribute&#45;&gt;aspect_type -->
<g id="edge2" class="edge">
<title>attribute:w&#45;&gt;aspect_type:e</title>
<path fill="none" stroke="#000000" d="M225.5449,-188.5067C186.567,-175.4664 194.9807,-108.7 144.5,-108.7"/>
<polygon fill="#000000" stroke="#000000" points="232.0905,-189.4998 239.4599,-194.2593 236.0453,-190.0999 240,-190.7 240,-190.7 240,-190.7 236.0453,-190.0999 240.5401,-187.1407 232.0905,-189.4998 232.0905,-189.4998"/>
<ellipse fill="none" stroke="#000000" cx="228.9267" cy="-189.0198" rx="3.2" ry="3.2"/>
</g>
<!-- predicate -->
<g id="node4" class="node">
<title>predicate</title>
<g id="a_node4"><a xlink:href="../../tables/predicate.html" xlink:title="predicate" target="_top">
<polygon fill="#ffffff" stroke="transparent" points="210,-245.2 210,-372.2 368,-372.2 368,-245.2 210,-245.2"/>
<polygon fill="#f5f5f5" stroke="transparent" points="210,-348.7 210,-371.7 368,-371.7 368,-348.7 210,-348.7"/>
<polygon fill="none" stroke="#000000" points="210,-348.7 210,-371.7 368,-371.7 368,-348.7 210,-348.7"/>
<text text-anchor="start" x="215" y="-357.3" font-family="Helvetica,sans-Serif" font-weight="bold" font-size="11.00" fill="#000000">predicate</text>
<text text-anchor="start" x="333.0437" y="-356.8" font-family="Helvetica,sans-Serif" font-size="11.00" fill="#000000">[table]</text>
<polygon fill="none" stroke="#000000" points="210,-326.7 210,-348.7 368,-348.7 368,-326.7 210,-326.7"/>
<image xlink:href="../../images/primaryKeys.png" width="11px" height="12px" preserveAspectRatio="xMinYMin meet" x="215" y="-343.7"/>
<text text-anchor="start" x="230" y="-333.8" font-family="Helvetica,sans-Serif" font-size="11.00" fill="#000000">predicate_id</text>
<polygon fill="#ffffff" stroke="transparent" points="210,-304.7 210,-326.7 368,-326.7 368,-304.7 210,-304.7"/>
<polygon fill="none" stroke="#000000" points="210,-304.7 210,-326.7 368,-326.7 368,-304.7 210,-304.7"/>
<image xlink:href="../../images/foreignKeys.png" width="11px" height="12px" preserveAspectRatio="xMinYMin meet" x="215" y="-321.7"/>
<text text-anchor="start" x="230" y="-311.8" font-family="Helvetica,sans-Serif" font-size="11.00" fill="#000000">determined</text>
<polygon fill="#ffffff" stroke="transparent" points="210,-282.7 210,-304.7 368,-304.7 368,-282.7 210,-282.7"/>
<polygon fill="none" stroke="#000000" points="210,-282.7 210,-304.7 368,-304.7 368,-282.7 210,-282.7"/>
<image xlink:href="../../images/foreignKeys.png" width="11px" height="12px" preserveAspectRatio="xMinYMin meet" x="215" y="-299.7"/>
<text text-anchor="start" x="230" y="-289.8" font-family="Helvetica,sans-Serif" font-size="11.00" fill="#000000">determinant</text>
<polygon fill="none" stroke="#000000" points="210,-263.7 210,-282.7 368,-282.7 368,-263.7 210,-263.7"/>
<text text-anchor="start" x="213" y="-269.8" font-family="Helvetica,sans-Serif" font-size="11.00" fill="#000000">...</text>
<polygon fill="#ffffff" stroke="transparent" points="210,-244.7 210,-263.7 270,-263.7 270,-244.7 210,-244.7"/>
<polygon fill="none" stroke="#000000" points="210,-244.7 210,-263.7 270,-263.7 270,-244.7 210,-244.7"/>
<text text-anchor="start" x="213" y="-250.8" font-family="Helvetica,sans-Serif" font-size="11.00" fill="#000000">&lt; 2</text>
<polygon fill="#ffffff" stroke="transparent" points="270,-244.7 270,-263.7 327,-263.7 327,-244.7 270,-244.7"/>
<polygon fill="none" stroke="#000000" points="270,-244.7 270,-263.7 327,-263.7 327,-244.7 270,-244.7"/>
<text text-anchor="start" x="291.6105" y="-250.8" font-family="Helvetica,sans-Serif" font-size="11.00" fill="#000000">0 rows</text>
<polygon fill="#ffffff" stroke="transparent" points="327,-244.7 327,-263.7 368,-263.7 368,-244.7 327,-244.7"/>
<polygon fill="none" stroke="#000000" points="327,-244.7 327,-263.7 368,-263.7 368,-244.7 327,-244.7"/>
<text text-anchor="start" x="349.4053" y="-250.8" font-family="Helvetica,sans-Serif" font-size="11.00" fill="#000000">2 &gt;</text>
</a>
</g>
</g>
<!-- dependency_rule -->
<g id="node5" class="node">
<title>dependency_rule</title>
<g id="a_node5"><a xlink:href="../../tables/dependency_rule.html" xlink:title="dependency_rule" target="_top">
<polygon fill="#ffffff" stroke="transparent" points="8,-277.2 8,-338.2 161,-338.2 161,-277.2 8,-277.2"/>
<polygon fill="#f5f5f5" stroke="transparent" points="8.5,-314.7 8.5,-337.7 161.5,-337.7 161.5,-314.7 8.5,-314.7"/>
<polygon fill="none" stroke="#000000" points="8.5,-314.7 8.5,-337.7 161.5,-337.7 161.5,-314.7 8.5,-314.7"/>
<text text-anchor="start" x="13.5" y="-323.3" font-family="Helvetica,sans-Serif" font-weight="bold" font-size="11.00" fill="#000000">dependency_rule</text>
<text text-anchor="start" x="127.0219" y="-322.8" font-family="Helvetica,sans-Serif" font-size="11.00" fill="#000000">[table]</text>
<polygon fill="none" stroke="#000000" points="8.5,-295.7 8.5,-314.7 161.5,-314.7 161.5,-295.7 8.5,-295.7"/>
<text text-anchor="start" x="11.5" y="-301.8" font-family="Helvetica,sans-Serif" font-size="11.00" fill="#000000">...</text>
<polygon fill="#ffffff" stroke="transparent" points="8.5,-276.7 8.5,-295.7 61.5,-295.7 61.5,-276.7 8.5,-276.7"/>
<polygon fill="none" stroke="#000000" points="8.5,-276.7 8.5,-295.7 61.5,-295.7 61.5,-276.7 8.5,-276.7"/>
<text text-anchor="start" x="11.5" y="-282.8" font-family="Helvetica,sans-Serif" font-size="11.00" fill="#000000"> &#160;</text>
<polygon fill="#ffffff" stroke="transparent" points="61.5,-276.7 61.5,-295.7 119.5,-295.7 119.5,-276.7 61.5,-276.7"/>
<polygon fill="none" stroke="#000000" points="61.5,-276.7 61.5,-295.7 119.5,-295.7 119.5,-276.7 61.5,-276.7"/>
<text text-anchor="start" x="84.1105" y="-282.8" font-family="Helvetica,sans-Serif" font-size="11.00" fill="#000000">0 rows</text>
<polygon fill="#ffffff" stroke="transparent" points="119.5,-276.7 119.5,-295.7 161.5,-295.7 161.5,-276.7 119.5,-276.7"/>
<polygon fill="none" stroke="#000000" points="119.5,-276.7 119.5,-295.7 161.5,-295.7 161.5,-276.7 119.5,-276.7"/>
<text text-anchor="start" x="142.9053" y="-282.8" font-family="Helvetica,sans-Serif" font-size="11.00" fill="#000000">7 &gt;</text>
</a>
</g>
</g>
<!-- predicate&#45;&gt;dependency_rule -->
<g id="edge3" class="edge">
<title>predicate:w&#45;&gt;dependency_rule:e</title>
<path fill="none" stroke="#000000" d="M195.4888,-295.6161C184.3593,-298.7676 177.7319,-304.7 161.5,-304.7"/>
<polygon fill="#000000" stroke="#000000" points="202.0688,-294.7473 210.4713,-297.269 206.0344,-294.2236 210,-293.7 210,-293.7 210,-293.7 206.0344,-294.2236 209.5287,-290.131 202.0688,-294.7473 202.0688,-294.7473"/>
<ellipse fill="none" stroke="#000000" cx="198.8964" cy="-295.1662" rx="3.2" ry="3.2"/>
</g>
<!-- predicate&#45;&gt;dependency_rule -->
<g id="edge4" class="edge">
<title>predicate:w&#45;&gt;dependency_rule:e</title>
<path fill="none" stroke="#000000" d="M195.4888,-313.7839C184.3593,-310.6324 177.7319,-304.7 161.5,-304.7"/>
<polygon fill="#000000" stroke="#000000" points="202.0688,-314.6527 209.5287,-319.269 206.0344,-315.1764 210,-315.7 210,-315.7 210,-315.7 206.0344,-315.1764 210.4713,-312.131 202.0688,-314.6527 202.0688,-314.6527"/>
<ellipse fill="none" stroke="#000000" cx="198.8964" cy="-314.2338" rx="3.2" ry="3.2"/>
</g>
<!-- predicate_aspect -->
<g id="node6" class="node">
<title>predicate_aspect</title>
<g id="a_node6"><a xlink:href="../../tables/predicate_aspect.html" xlink:title="predicate_aspect" target="_top">
<polygon fill="#ffffff" stroke="transparent" points="449,-266.2 449,-327.2 603,-327.2 603,-266.2 449,-266.2"/>
<polygon fill="#f5f5f5" stroke="transparent" points="449,-303.7 449,-326.7 603,-326.7 603,-303.7 449,-303.7"/>
<polygon fill="none" stroke="#000000" points="449,-303.7 449,-326.7 603,-326.7 603,-303.7 449,-303.7"/>
<text text-anchor="start" x="454" y="-312.3" font-family="Helvetica,sans-Serif" font-weight="bold" font-size="11.00" fill="#000000">predicate_aspect</text>
<text text-anchor="start" x="568.5219" y="-311.8" font-family="Helvetica,sans-Serif" font-size="11.00" fill="#000000">[table]</text>
<polygon fill="none" stroke="#000000" points="449,-284.7 449,-303.7 603,-303.7 603,-284.7 449,-284.7"/>
<text text-anchor="start" x="452" y="-290.8" font-family="Helvetica,sans-Serif" font-size="11.00" fill="#000000">...</text>
<polygon fill="#ffffff" stroke="transparent" points="449,-265.7 449,-284.7 511,-284.7 511,-265.7 449,-265.7"/>
<polygon fill="none" stroke="#000000" points="449,-265.7 449,-284.7 511,-284.7 511,-265.7 449,-265.7"/>
<text text-anchor="start" x="452" y="-271.8" font-family="Helvetica,sans-Serif" font-size="11.00" fill="#000000">&lt; 2</text>
<polygon fill="#ffffff" stroke="transparent" points="511,-265.7 511,-284.7 570,-284.7 570,-265.7 511,-265.7"/>
<polygon fill="none" stroke="#000000" points="511,-265.7 511,-284.7 570,-284.7 570,-265.7 511,-265.7"/>
<text text-anchor="start" x="534.6105" y="-271.8" font-family="Helvetica,sans-Serif" font-size="11.00" fill="#000000">0 rows</text>
<polygon fill="#ffffff" stroke="transparent" points="570,-265.7 570,-284.7 603,-284.7 603,-265.7 570,-265.7"/>
<polygon fill="none" stroke="#000000" points="570,-265.7 570,-284.7 603,-284.7 603,-265.7 570,-265.7"/>
<text text-anchor="start" x="593.8862" y="-271.8" font-family="Helvetica,sans-Serif" font-size="11.00" fill="#000000"> &#160;</text>
</a>
</g>
</g>
<!-- predicate_aspect&#45;&gt;aspect -->
<g id="edge5" class="edge">
<title>predicate_aspect:w&#45;&gt;aspect:e</title>
<path fill="none" stroke="#000000" d="M434.4259,-291.9867C362.2725,-273.3365 430.0271,-108.7 340,-108.7"/>
<polygon fill="#000000" stroke="#000000" points="441.0547,-292.7659 448.5797,-297.2754 445.0274,-293.233 449,-293.7 449,-293.7 449,-293.7 445.0274,-293.233 449.4203,-290.1246 441.0547,-292.7659 441.0547,-292.7659"/>
<ellipse fill="none" stroke="#000000" cx="437.8766" cy="-292.3923" rx="3.2" ry="3.2"/>
</g>
<!-- predicate_aspect&#45;&gt;predicate -->
<g id="edge6" class="edge">
<title>predicate_aspect:w&#45;&gt;predicate:e</title>
<path fill="none" stroke="#000000" d="M434.6978,-295.8222C407.5412,-304.6114 403.5274,-337.7 368,-337.7"/>
<polygon fill="#000000" stroke="#000000" points="441.0866,-294.8743 449.5284,-297.261 445.0433,-294.2871 449,-293.7 449,-293.7 449,-293.7 445.0433,-294.2871 448.4716,-290.139 441.0866,-294.8743 441.0866,-294.8743"/>
<ellipse fill="none" stroke="#000000" cx="437.9213" cy="-295.344" rx="3.2" ry="3.2"/>
</g>
<!-- predicate_aspect_type -->
<g id="node7" class="node">
<title>predicate_aspect_type</title>
<g id="a_node7"><a xlink:href="../../tables/predicate_aspect_type.html" xlink:title="predicate_aspect_type" target="_top">
<polygon fill="#ffffff" stroke="transparent" points="417,-67.7 417,-157.7 635,-157.7 635,-67.7 417,-67.7"/>
<polygon fill="#f5f5f5" stroke="transparent" points="419,-132.7 419,-155.7 633,-155.7 633,-132.7 419,-132.7"/>
<polygon fill="none" stroke="#000000" points="419,-132.7 419,-155.7 633,-155.7 633,-132.7 419,-132.7"/>
<text text-anchor="start" x="424" y="-141.3" font-family="Helvetica,sans-Serif" font-weight="bold" font-size="11.00" fill="#000000">predicate_aspect_type</text>
<text text-anchor="start" x="598.0437" y="-140.8" font-family="Helvetica,sans-Serif" font-size="11.00" fill="#000000">[table]</text>
<polygon fill="none" stroke="#000000" points="419,-110.7 419,-132.7 591,-132.7 591,-110.7 419,-110.7"/>
<image xlink:href="../../images/primaryKeys.png" width="11px" height="12px" preserveAspectRatio="xMinYMin meet" x="424" y="-127.7"/>
<text text-anchor="start" x="439" y="-117.8" font-family="Helvetica,sans-Serif" font-size="11.00" fill="#000000">predicate_id</text>
<polygon fill="none" stroke="#000000" points="591,-110.7 591,-132.7 633,-132.7 633,-110.7 591,-110.7"/>
<text text-anchor="start" x="593.9644" y="-118.4" font-family="Helvetica,sans-Serif" font-size="11.00" fill="#000000">int4[10]</text>
<polygon fill="none" stroke="#000000" points="419,-88.7 419,-110.7 591,-110.7 591,-88.7 419,-88.7"/>
<image xlink:href="../../images/primaryKeys.png" width="11px" height="12px" preserveAspectRatio="xMinYMin meet" x="424" y="-105.7"/>
<text text-anchor="start" x="439" y="-95.8" font-family="Helvetica,sans-Serif" font-size="11.00" fill="#000000">aspect_type_id</text>
<polygon fill="none" stroke="#000000" points="591,-88.7 591,-110.7 633,-110.7 633,-88.7 591,-88.7"/>
<text text-anchor="start" x="593.9644" y="-96.4" font-family="Helvetica,sans-Serif" font-size="11.00" fill="#000000">int4[10]</text>
<polygon fill="#ffffff" stroke="transparent" points="419,-69.7 419,-88.7 496,-88.7 496,-69.7 419,-69.7"/>
<polygon fill="none" stroke="#000000" points="419,-69.7 419,-88.7 496,-88.7 496,-69.7 419,-69.7"/>
<text text-anchor="start" x="422" y="-75.8" font-family="Helvetica,sans-Serif" font-size="11.00" fill="#000000">&lt; 2</text>
<polygon fill="#ffffff" stroke="transparent" points="496,-69.7 496,-88.7 591,-88.7 591,-69.7 496,-69.7"/>
<polygon fill="none" stroke="#000000" points="496,-69.7 496,-88.7 591,-88.7 591,-69.7 496,-69.7"/>
<text text-anchor="start" x="555.6105" y="-75.8" font-family="Helvetica,sans-Serif" font-size="11.00" fill="#000000">0 rows</text>
<polygon fill="#ffffff" stroke="transparent" points="591,-69.7 591,-88.7 633,-88.7 633,-69.7 591,-69.7"/>
<polygon fill="none" stroke="#000000" points="591,-69.7 591,-88.7 633,-88.7 633,-69.7 591,-69.7"/>
<text text-anchor="start" x="614.4053" y="-75.8" font-family="Helvetica,sans-Serif" font-size="11.00" fill="#000000">0 &gt;</text>
<polygon fill="none" stroke="#000000" stroke-width="2" points="418,-68.7 418,-156.7 634,-156.7 634,-68.7 418,-68.7"/>
</a>
</g>
</g>
<!-- predicate_aspect_type&#45;&gt;aspect_type -->
<g id="edge7" class="edge">
<title>predicate_aspect_type:w&#45;&gt;aspect_type:e</title>
<path fill="none" stroke="#000000" d="M405.0301,-95.6961C395.3588,-88.969 392.1887,-75.6488 376,-70.7 302.0451,-48.0922 276.0601,-48.439 202,-70.7 172.6645,-79.5177 175.132,-108.7 144.5,-108.7"/>
<polygon fill="#000000" stroke="#000000" points="411.3096,-97.4958 418.0081,-103.1607 415.1548,-98.5979 419,-99.7 419,-99.7 419,-99.7 415.1548,-98.5979 419.9919,-96.2393 411.3096,-97.4958 411.3096,-97.4958"/>
<ellipse fill="none" stroke="#000000" cx="408.2335" cy="-96.6142" rx="3.2" ry="3.2"/>
</g>
<!-- predicate_aspect_type&#45;&gt;predicate -->
<g id="edge8" class="edge">
<title>predicate_aspect_type:w&#45;&gt;predicate:e</title>
<path fill="none" stroke="#000000" d="M404.5072,-123.7004C336.1453,-145.4758 461.0526,-337.7 368,-337.7"/>
<polygon fill="#000000" stroke="#000000" points="411.0751,-122.7939 419.4922,-125.2662 415.0376,-122.2469 419,-121.7 419,-121.7 419,-121.7 415.0376,-122.2469 418.5078,-118.1338 411.0751,-122.7939 411.0751,-122.7939"/>
<ellipse fill="none" stroke="#000000" cx="407.9052" cy="-123.2314" rx="3.2" ry="3.2"/>
</g>
</g>
</svg>
