<?xml version="1.0" encoding="UTF-8" standalone="no"?>
<!DOCTYPE svg PUBLIC "-//W3C//DTD SVG 1.1//EN"
 "http://www.w3.org/Graphics/SVG/1.1/DTD/svg11.dtd">
<!-- Generated by graphviz version 2.40.1 (20161225.0304)
 -->
<!-- Title: twoDegreesRelationshipsDiagram Pages: 1 -->
<svg width="623pt" height="633pt"
 viewBox="0.00 0.00 623.00 633.20" xmlns="http://www.w3.org/2000/svg" xmlns:xlink="http://www.w3.org/1999/xlink">
<g id="graph0" class="graph" transform="scale(1 1) rotate(0) translate(4 629.2)">
<title>twoDegreesRelationshipsDiagram</title>
<polygon fill="#ffffff" stroke="transparent" points="-4,4 -4,-629.2 619,-629.2 619,4 -4,4"/>
<text text-anchor="middle" x="72.4936" y="-7.3" font-family="Helvetica,sans-Serif" font-size="11.00" fill="#000000">Generated by SchemaSpy</text>
<!-- aspect -->
<g id="node1" class="node">
<title>aspect</title>
<g id="a_node1"><a xlink:href="../../tables/aspect.html" xlink:title="aspect" target="_top">
<polygon fill="#ffffff" stroke="transparent" points="229,-219.2 229,-346.2 349,-346.2 349,-219.2 229,-219.2"/>
<polygon fill="#f5f5f5" stroke="transparent" points="229,-322.7 229,-345.7 349,-345.7 349,-322.7 229,-322.7"/>
<polygon fill="none" stroke="#000000" points="229,-322.7 229,-345.7 349,-345.7 349,-322.7 229,-322.7"/>
<text text-anchor="start" x="234" y="-331.3" font-family="Helvetica,sans-Serif" font-weight="bold" font-size="11.00" fill="#000000">aspect</text>
<text text-anchor="start" x="314.0437" y="-330.8" font-family="Helvetica,sans-Serif" font-size="11.00" fill="#000000">[table]</text>
<polygon fill="none" stroke="#000000" points="229,-300.7 229,-322.7 349,-322.7 349,-300.7 229,-300.7"/>
<image xlink:href="../../images/primaryKeys.png" width="11px" height="12px" preserveAspectRatio="xMinYMin meet" x="234" y="-317.7"/>
<text text-anchor="start" x="249" y="-307.8" font-family="Helvetica,sans-Serif" font-size="11.00" fill="#000000">aspect_id</text>
<polygon fill="#ffffff" stroke="transparent" points="229,-278.7 229,-300.7 349,-300.7 349,-278.7 229,-278.7"/>
<polygon fill="none" stroke="#000000" points="229,-278.7 229,-300.7 349,-300.7 349,-278.7 229,-278.7"/>
<text text-anchor="start" x="249" y="-285.8" font-family="Helvetica,sans-Serif" font-size="11.00" fill="#000000">description</text>
<polygon fill="#ffffff" stroke="transparent" points="229,-256.7 229,-278.7 349,-278.7 349,-256.7 229,-256.7"/>
<polygon fill="none" stroke="#000000" points="229,-256.7 229,-278.7 349,-278.7 349,-256.7 229,-256.7"/>
<image xlink:href="../../images/foreignKeys.png" width="11px" height="12px" preserveAspectRatio="xMinYMin meet" x="234" y="-273.7"/>
<text text-anchor="start" x="249" y="-263.8" font-family="Helvetica,sans-Serif" font-size="11.00" fill="#000000">aspect_type_id</text>
<polygon fill="none" stroke="#000000" points="229,-237.7 229,-256.7 349,-256.7 349,-237.7 229,-237.7"/>
<text text-anchor="start" x="232" y="-243.8" font-family="Helvetica,sans-Serif" font-size="11.00" fill="#000000">...</text>
<polygon fill="#ffffff" stroke="transparent" points="229,-218.7 229,-237.7 259,-237.7 259,-218.7 229,-218.7"/>
<polygon fill="none" stroke="#000000" points="229,-218.7 229,-237.7 259,-237.7 259,-218.7 229,-218.7"/>
<text text-anchor="start" x="232" y="-224.8" font-family="Helvetica,sans-Serif" font-size="11.00" fill="#000000">&lt; 1</text>
<polygon fill="#ffffff" stroke="transparent" points="259,-218.7 259,-237.7 323,-237.7 323,-218.7 259,-218.7"/>
<polygon fill="none" stroke="#000000" points="259,-218.7 259,-237.7 323,-237.7 323,-218.7 259,-218.7"/>
<text text-anchor="start" x="266.2089" y="-224.8" font-family="Helvetica,sans-Serif" font-size="11.00" fill="#000000">2.300 rows</text>
<polygon fill="#ffffff" stroke="transparent" points="323,-218.7 323,-237.7 349,-237.7 349,-218.7 323,-218.7"/>
<polygon fill="none" stroke="#000000" points="323,-218.7 323,-237.7 349,-237.7 349,-218.7 323,-218.7"/>
<text text-anchor="start" x="330.4053" y="-224.8" font-family="Helvetica,sans-Serif" font-size="11.00" fill="#000000">6 &gt;</text>
</a>
</g>
</g>
<!-- aspect_type -->
<g id="node2" class="node">
<title>aspect_type</title>
<g id="a_node2"><a xlink:href="../../tables/aspect_type.html" xlink:title="aspect_type" target="_top">
<polygon fill="#ffffff" stroke="transparent" points="24.5,-294.2 24.5,-355.2 144.5,-355.2 144.5,-294.2 24.5,-294.2"/>
<polygon fill="#f5f5f5" stroke="transparent" points="24.5,-331.7 24.5,-354.7 144.5,-354.7 144.5,-331.7 24.5,-331.7"/>
<polygon fill="none" stroke="#000000" points="24.5,-331.7 24.5,-354.7 144.5,-354.7 144.5,-331.7 24.5,-331.7"/>
<text text-anchor="start" x="29.5" y="-340.3" font-family="Helvetica,sans-Serif" font-weight="bold" font-size="11.00" fill="#000000">aspect_type</text>
<text text-anchor="start" x="110.0219" y="-339.8" font-family="Helvetica,sans-Serif" font-size="11.00" fill="#000000">[table]</text>
<polygon fill="none" stroke="#000000" points="24.5,-312.7 24.5,-331.7 144.5,-331.7 144.5,-312.7 24.5,-312.7"/>
<text text-anchor="start" x="27.5" y="-318.8" font-family="Helvetica,sans-Serif" font-size="11.00" fill="#000000">...</text>
<polygon fill="#ffffff" stroke="transparent" points="24.5,-293.7 24.5,-312.7 65.5,-312.7 65.5,-293.7 24.5,-293.7"/>
<polygon fill="none" stroke="#000000" points="24.5,-293.7 24.5,-312.7 65.5,-312.7 65.5,-293.7 24.5,-293.7"/>
<text text-anchor="start" x="27.5" y="-299.8" font-family="Helvetica,sans-Serif" font-size="11.00" fill="#000000">&lt; 1</text>
<polygon fill="#ffffff" stroke="transparent" points="65.5,-293.7 65.5,-312.7 113.5,-312.7 113.5,-293.7 65.5,-293.7"/>
<polygon fill="none" stroke="#000000" points="65.5,-293.7 65.5,-312.7 113.5,-312.7 113.5,-293.7 65.5,-293.7"/>
<text text-anchor="start" x="78.1105" y="-299.8" font-family="Helvetica,sans-Serif" font-size="11.00" fill="#000000">4 rows</text>
<polygon fill="#ffffff" stroke="transparent" points="113.5,-293.7 113.5,-312.7 144.5,-312.7 144.5,-293.7 113.5,-293.7"/>
<polygon fill="none" stroke="#000000" points="113.5,-293.7 113.5,-312.7 144.5,-312.7 144.5,-293.7 113.5,-293.7"/>
<text text-anchor="start" x="125.9053" y="-299.8" font-family="Helvetica,sans-Serif" font-size="11.00" fill="#000000">4 &gt;</text>
</a>
</g>
</g>
<!-- aspect&#45;&gt;aspect_type -->
<g id="edge1" class="edge">
<title>aspect:w&#45;&gt;aspect_type:e</title>
<path fill="none" stroke="#000000" d="M214.4009,-270.0203C184.8215,-280.3563 183.4981,-321.7 144.5,-321.7"/>
<polygon fill="#000000" stroke="#000000" points="221.0992,-268.9558 229.5651,-271.2554 225.0496,-268.3279 229,-267.7 229,-267.7 229,-267.7 225.0496,-268.3279 228.4349,-264.1446 221.0992,-268.9558 221.0992,-268.9558"/>
<ellipse fill="none" stroke="#000000" cx="217.9388" cy="-269.4581" rx="3.2" ry="3.2"/>
</g>
<!-- aspect_attribute -->
<g id="node3" class="node">
<title>aspect_attribute</title>
<g id="a_node3"><a xlink:href="../../tables/aspect_attribute.html" xlink:title="aspect_attribute" target="_top">
<polygon fill="#ffffff" stroke="transparent" points="437,-366.2 437,-427.2 587,-427.2 587,-366.2 437,-366.2"/>
<polygon fill="#f5f5f5" stroke="transparent" points="437,-403.7 437,-426.7 587,-426.7 587,-403.7 437,-403.7"/>
<polygon fill="none" stroke="#000000" points="437,-403.7 437,-426.7 587,-426.7 587,-403.7 437,-403.7"/>
<text text-anchor="start" x="442" y="-412.3" font-family="Helvetica,sans-Serif" font-weight="bold" font-size="11.00" fill="#000000">aspect_attribute</text>
<text text-anchor="start" x="552.5219" y="-411.8" font-family="Helvetica,sans-Serif" font-size="11.00" fill="#000000">[table]</text>
<polygon fill="none" stroke="#000000" points="437,-384.7 437,-403.7 587,-403.7 587,-384.7 437,-384.7"/>
<text text-anchor="start" x="440" y="-390.8" font-family="Helvetica,sans-Serif" font-size="11.00" fill="#000000">...</text>
<polygon fill="#ffffff" stroke="transparent" points="437,-365.7 437,-384.7 487,-384.7 487,-365.7 437,-365.7"/>
<polygon fill="none" stroke="#000000" points="437,-365.7 437,-384.7 487,-384.7 487,-365.7 437,-365.7"/>
<text text-anchor="start" x="440" y="-371.8" font-family="Helvetica,sans-Serif" font-size="11.00" fill="#000000">&lt; 3</text>
<polygon fill="#ffffff" stroke="transparent" points="487,-365.7 487,-384.7 560,-384.7 560,-365.7 487,-365.7"/>
<polygon fill="none" stroke="#000000" points="487,-365.7 487,-384.7 560,-384.7 560,-365.7 487,-365.7"/>
<text text-anchor="start" x="503.2089" y="-371.8" font-family="Helvetica,sans-Serif" font-size="11.00" fill="#000000">6.100 rows</text>
<polygon fill="#ffffff" stroke="transparent" points="560,-365.7 560,-384.7 587,-384.7 587,-365.7 560,-365.7"/>
<polygon fill="none" stroke="#000000" points="560,-365.7 560,-384.7 587,-384.7 587,-365.7 560,-365.7"/>
<text text-anchor="start" x="577.8862" y="-371.8" font-family="Helvetica,sans-Serif" font-size="11.00" fill="#000000"> &#160;</text>
</a>
</g>
</g>
<!-- aspect_attribute&#45;&gt;aspect -->
<g id="edge2" class="edge">
<title>aspect_attribute:w&#45;&gt;aspect:e</title>
<path fill="none" stroke="#000000" d="M422.3307,-391.156C386.7264,-377.3153 396.8208,-311.7 349,-311.7"/>
<polygon fill="#000000" stroke="#000000" points="429.1177,-392.333 436.3848,-397.2471 433.0588,-393.0165 437,-393.7 437,-393.7 437,-393.7 433.0588,-393.0165 437.6152,-390.1529 429.1177,-392.333 429.1177,-392.333"/>
<ellipse fill="none" stroke="#000000" cx="425.9647" cy="-391.7862" rx="3.2" ry="3.2"/>
</g>
<!-- mat_aspect -->
<g id="node4" class="node">
<title>mat_aspect</title>
<g id="a_node4"><a xlink:href="../../tables/mat_aspect.html" xlink:title="mat_aspect" target="_top">
<polygon fill="#ffffff" stroke="transparent" points="454,-284.2 454,-345.2 570,-345.2 570,-284.2 454,-284.2"/>
<polygon fill="#f5f5f5" stroke="transparent" points="454,-321.7 454,-344.7 570,-344.7 570,-321.7 454,-321.7"/>
<polygon fill="none" stroke="#000000" points="454,-321.7 454,-344.7 570,-344.7 570,-321.7 454,-321.7"/>
<text text-anchor="start" x="459" y="-330.3" font-family="Helvetica,sans-Serif" font-weight="bold" font-size="11.00" fill="#000000">mat_aspect</text>
<text text-anchor="start" x="535.5219" y="-329.8" font-family="Helvetica,sans-Serif" font-size="11.00" fill="#000000">[table]</text>
<polygon fill="none" stroke="#000000" points="454,-302.7 454,-321.7 570,-321.7 570,-302.7 454,-302.7"/>
<text text-anchor="start" x="457" y="-308.8" font-family="Helvetica,sans-Serif" font-size="11.00" fill="#000000">...</text>
<polygon fill="#ffffff" stroke="transparent" points="454,-283.7 454,-302.7 497,-302.7 497,-283.7 454,-283.7"/>
<polygon fill="none" stroke="#000000" points="454,-283.7 454,-302.7 497,-302.7 497,-283.7 454,-283.7"/>
<text text-anchor="start" x="457" y="-289.8" font-family="Helvetica,sans-Serif" font-size="11.00" fill="#000000">&lt; 2</text>
<polygon fill="#ffffff" stroke="transparent" points="497,-283.7 497,-302.7 546,-302.7 546,-283.7 497,-283.7"/>
<polygon fill="none" stroke="#000000" points="497,-283.7 497,-302.7 546,-302.7 546,-283.7 497,-283.7"/>
<text text-anchor="start" x="510.6105" y="-289.8" font-family="Helvetica,sans-Serif" font-size="11.00" fill="#000000">0 rows</text>
<polygon fill="#ffffff" stroke="transparent" points="546,-283.7 546,-302.7 570,-302.7 570,-283.7 546,-283.7"/>
<polygon fill="none" stroke="#000000" points="546,-283.7 546,-302.7 570,-302.7 570,-283.7 546,-283.7"/>
<text text-anchor="start" x="560.8862" y="-289.8" font-family="Helvetica,sans-Serif" font-size="11.00" fill="#000000"> &#160;</text>
</a>
</g>
</g>
<!-- mat_aspect&#45;&gt;aspect -->
<g id="edge3" class="edge">
<title>mat_aspect:w&#45;&gt;aspect:e</title>
<path fill="none" stroke="#000000" d="M439.3863,-311.7C404.241,-311.7 390.3802,-311.7 349,-311.7"/>
<polygon fill="#000000" stroke="#000000" points="446,-311.7001 454,-315.3 450,-311.7 454,-311.7 454,-311.7 454,-311.7 450,-311.7 454,-308.1 446,-311.7001 446,-311.7001"/>
<ellipse fill="none" stroke="#000000" cx="442.8" cy="-311.7001" rx="3.2" ry="3.2"/>
</g>
<!-- mo_aspect -->
<g id="node5" class="node">
<title>mo_aspect</title>
<g id="a_node5"><a xlink:href="../../tables/mo_aspect.html" xlink:title="mo_aspect" target="_top">
<polygon fill="#ffffff" stroke="transparent" points="457,-202.2 457,-263.2 567,-263.2 567,-202.2 457,-202.2"/>
<polygon fill="#f5f5f5" stroke="transparent" points="457,-239.7 457,-262.7 567,-262.7 567,-239.7 457,-239.7"/>
<polygon fill="none" stroke="#000000" points="457,-239.7 457,-262.7 567,-262.7 567,-239.7 457,-239.7"/>
<text text-anchor="start" x="462" y="-248.3" font-family="Helvetica,sans-Serif" font-weight="bold" font-size="11.00" fill="#000000">mo_aspect</text>
<text text-anchor="start" x="532.5219" y="-247.8" font-family="Helvetica,sans-Serif" font-size="11.00" fill="#000000">[table]</text>
<polygon fill="none" stroke="#000000" points="457,-220.7 457,-239.7 567,-239.7 567,-220.7 457,-220.7"/>
<text text-anchor="start" x="460" y="-226.8" font-family="Helvetica,sans-Serif" font-size="11.00" fill="#000000">...</text>
<polygon fill="#ffffff" stroke="transparent" points="457,-201.7 457,-220.7 487,-220.7 487,-201.7 457,-201.7"/>
<polygon fill="none" stroke="#000000" points="457,-201.7 457,-220.7 487,-220.7 487,-201.7 457,-201.7"/>
<text text-anchor="start" x="460" y="-207.8" font-family="Helvetica,sans-Serif" font-size="11.00" fill="#000000">&lt; 2</text>
<polygon fill="#ffffff" stroke="transparent" points="487,-201.7 487,-220.7 550,-220.7 550,-201.7 487,-201.7"/>
<polygon fill="none" stroke="#000000" points="487,-201.7 487,-220.7 550,-220.7 550,-201.7 487,-201.7"/>
<text text-anchor="start" x="493.2089" y="-207.8" font-family="Helvetica,sans-Serif" font-size="11.00" fill="#000000">2.000 rows</text>
<polygon fill="#ffffff" stroke="transparent" points="550,-201.7 550,-220.7 567,-220.7 567,-201.7 550,-201.7"/>
<polygon fill="none" stroke="#000000" points="550,-201.7 550,-220.7 567,-220.7 567,-201.7 550,-201.7"/>
<text text-anchor="start" x="557.8862" y="-207.8" font-family="Helvetica,sans-Serif" font-size="11.00" fill="#000000"> &#160;</text>
</a>
</g>
</g>
<!-- mo_aspect&#45;&gt;aspect -->
<g id="edge4" class="edge">
<title>mo_aspect:w&#45;&gt;aspect:e</title>
<path fill="none" stroke="#000000" d="M442.6974,-231.4889C398.3734,-243.4806 403.9707,-311.7 349,-311.7"/>
<polygon fill="#000000" stroke="#000000" points="449.0619,-230.6929 457.4468,-233.2722 453.0309,-230.1965 457,-229.7 457,-229.7 457,-229.7 453.0309,-230.1965 456.5532,-226.1278 449.0619,-230.6929 449.0619,-230.6929"/>
<ellipse fill="none" stroke="#000000" cx="445.8866" cy="-231.0901" rx="3.2" ry="3.2"/>
</g>
<!-- mor_aspect -->
<g id="node6" class="node">
<title>mor_aspect</title>
<g id="a_node6"><a xlink:href="../../tables/mor_aspect.html" xlink:title="mor_aspect" target="_top">
<polygon fill="#ffffff" stroke="transparent" points="454,-120.2 454,-181.2 570,-181.2 570,-120.2 454,-120.2"/>
<polygon fill="#f5f5f5" stroke="transparent" points="454,-157.7 454,-180.7 570,-180.7 570,-157.7 454,-157.7"/>
<polygon fill="none" stroke="#000000" points="454,-157.7 454,-180.7 570,-180.7 570,-157.7 454,-157.7"/>
<text text-anchor="start" x="459" y="-166.3" font-family="Helvetica,sans-Serif" font-weight="bold" font-size="11.00" fill="#000000">mor_aspect</text>
<text text-anchor="start" x="535.5219" y="-165.8" font-family="Helvetica,sans-Serif" font-size="11.00" fill="#000000">[table]</text>
<polygon fill="none" stroke="#000000" points="454,-138.7 454,-157.7 570,-157.7 570,-138.7 454,-138.7"/>
<text text-anchor="start" x="457" y="-144.8" font-family="Helvetica,sans-Serif" font-size="11.00" fill="#000000">...</text>
<polygon fill="#ffffff" stroke="transparent" points="454,-119.7 454,-138.7 497,-138.7 497,-119.7 454,-119.7"/>
<polygon fill="none" stroke="#000000" points="454,-119.7 454,-138.7 497,-138.7 497,-119.7 454,-119.7"/>
<text text-anchor="start" x="457" y="-125.8" font-family="Helvetica,sans-Serif" font-size="11.00" fill="#000000">&lt; 2</text>
<polygon fill="#ffffff" stroke="transparent" points="497,-119.7 497,-138.7 546,-138.7 546,-119.7 497,-119.7"/>
<polygon fill="none" stroke="#000000" points="497,-119.7 497,-138.7 546,-138.7 546,-119.7 497,-119.7"/>
<text text-anchor="start" x="510.6105" y="-125.8" font-family="Helvetica,sans-Serif" font-size="11.00" fill="#000000">0 rows</text>
<polygon fill="#ffffff" stroke="transparent" points="546,-119.7 546,-138.7 570,-138.7 570,-119.7 546,-119.7"/>
<polygon fill="none" stroke="#000000" points="546,-119.7 546,-138.7 570,-138.7 570,-119.7 546,-119.7"/>
<text text-anchor="start" x="560.8862" y="-125.8" font-family="Helvetica,sans-Serif" font-size="11.00" fill="#000000"> &#160;</text>
</a>
</g>
</g>
<!-- mor_aspect&#45;&gt;aspect -->
<g id="edge5" class="edge">
<title>mor_aspect:w&#45;&gt;aspect:e</title>
<path fill="none" stroke="#000000" d="M439.509,-149.5418C375.3599,-167.5594 430.1388,-311.7 349,-311.7"/>
<polygon fill="#000000" stroke="#000000" points="446.0638,-148.7087 454.4539,-151.2713 450.0319,-148.2044 454,-147.7 454,-147.7 454,-147.7 450.0319,-148.2044 453.5461,-144.1287 446.0638,-148.7087 446.0638,-148.7087"/>
<ellipse fill="none" stroke="#000000" cx="442.8894" cy="-149.1122" rx="3.2" ry="3.2"/>
</g>
<!-- point_aspect -->
<g id="node7" class="node">
<title>point_aspect</title>
<g id="a_node7"><a xlink:href="../../tables/point_aspect.html" xlink:title="point_aspect" target="_top">
<polygon fill="#ffffff" stroke="transparent" points="449.5,-38.2 449.5,-99.2 574.5,-99.2 574.5,-38.2 449.5,-38.2"/>
<polygon fill="#f5f5f5" stroke="transparent" points="450,-75.7 450,-98.7 575,-98.7 575,-75.7 450,-75.7"/>
<polygon fill="none" stroke="#000000" points="450,-75.7 450,-98.7 575,-98.7 575,-75.7 450,-75.7"/>
<text text-anchor="start" x="455" y="-84.3" font-family="Helvetica,sans-Serif" font-weight="bold" font-size="11.00" fill="#000000">point_aspect</text>
<text text-anchor="start" x="540.5219" y="-83.8" font-family="Helvetica,sans-Serif" font-size="11.00" fill="#000000">[table]</text>
<polygon fill="none" stroke="#000000" points="450,-56.7 450,-75.7 575,-75.7 575,-56.7 450,-56.7"/>
<text text-anchor="start" x="453" y="-62.8" font-family="Helvetica,sans-Serif" font-size="11.00" fill="#000000">...</text>
<polygon fill="#ffffff" stroke="transparent" points="450,-37.7 450,-56.7 476,-56.7 476,-37.7 450,-37.7"/>
<polygon fill="none" stroke="#000000" points="450,-37.7 450,-56.7 476,-56.7 476,-37.7 450,-37.7"/>
<text text-anchor="start" x="453" y="-43.8" font-family="Helvetica,sans-Serif" font-size="11.00" fill="#000000">&lt; 2</text>
<polygon fill="#ffffff" stroke="transparent" points="476,-37.7 476,-56.7 560,-56.7 560,-37.7 476,-37.7"/>
<polygon fill="none" stroke="#000000" points="476,-37.7 476,-56.7 560,-56.7 560,-37.7 476,-37.7"/>
<text text-anchor="start" x="481.8073" y="-43.8" font-family="Helvetica,sans-Serif" font-size="11.00" fill="#000000">1.039.258 rows</text>
<polygon fill="#ffffff" stroke="transparent" points="560,-37.7 560,-56.7 575,-56.7 575,-37.7 560,-37.7"/>
<polygon fill="none" stroke="#000000" points="560,-37.7 560,-56.7 575,-56.7 575,-37.7 560,-37.7"/>
<text text-anchor="start" x="565.8862" y="-43.8" font-family="Helvetica,sans-Serif" font-size="11.00" fill="#000000"> &#160;</text>
</a>
</g>
</g>
<!-- point_aspect&#45;&gt;aspect -->
<g id="edge6" class="edge">
<title>point_aspect:w&#45;&gt;aspect:e</title>
<path fill="none" stroke="#000000" d="M435.5612,-67.1447C343.4616,-87.3051 461.8803,-311.7 349,-311.7"/>
<polygon fill="#000000" stroke="#000000" points="442.0397,-66.4965 450.3584,-69.2821 446.0199,-66.0983 450,-65.7 450,-65.7 450,-65.7 446.0199,-66.0983 449.6416,-62.1179 442.0397,-66.4965 442.0397,-66.4965"/>
<ellipse fill="none" stroke="#000000" cx="438.8556" cy="-66.8151" rx="3.2" ry="3.2"/>
</g>
<!-- predicate -->
<g id="node8" class="node">
<title>predicate</title>
<g id="a_node8"><a xlink:href="../../tables/predicate.html" xlink:title="predicate" target="_top">
<polygon fill="#ffffff" stroke="transparent" points="210,-452.2 210,-579.2 368,-579.2 368,-452.2 210,-452.2"/>
<polygon fill="#f5f5f5" stroke="transparent" points="210,-555.7 210,-578.7 368,-578.7 368,-555.7 210,-555.7"/>
<polygon fill="none" stroke="#000000" points="210,-555.7 210,-578.7 368,-578.7 368,-555.7 210,-555.7"/>
<text text-anchor="start" x="215" y="-564.3" font-family="Helvetica,sans-Serif" font-weight="bold" font-size="11.00" fill="#000000">predicate</text>
<text text-anchor="start" x="333.0437" y="-563.8" font-family="Helvetica,sans-Serif" font-size="11.00" fill="#000000">[table]</text>
<polygon fill="none" stroke="#000000" points="210,-533.7 210,-555.7 368,-555.7 368,-533.7 210,-533.7"/>
<image xlink:href="../../images/primaryKeys.png" width="11px" height="12px" preserveAspectRatio="xMinYMin meet" x="215" y="-550.7"/>
<text text-anchor="start" x="230" y="-540.8" font-family="Helvetica,sans-Serif" font-size="11.00" fill="#000000">predicate_id</text>
<polygon fill="#ffffff" stroke="transparent" points="210,-511.7 210,-533.7 368,-533.7 368,-511.7 210,-511.7"/>
<polygon fill="none" stroke="#000000" points="210,-511.7 210,-533.7 368,-533.7 368,-511.7 210,-511.7"/>
<image xlink:href="../../images/foreignKeys.png" width="11px" height="12px" preserveAspectRatio="xMinYMin meet" x="215" y="-528.7"/>
<text text-anchor="start" x="230" y="-518.8" font-family="Helvetica,sans-Serif" font-size="11.00" fill="#000000">determined</text>
<polygon fill="#ffffff" stroke="transparent" points="210,-489.7 210,-511.7 368,-511.7 368,-489.7 210,-489.7"/>
<polygon fill="none" stroke="#000000" points="210,-489.7 210,-511.7 368,-511.7 368,-489.7 210,-489.7"/>
<image xlink:href="../../images/foreignKeys.png" width="11px" height="12px" preserveAspectRatio="xMinYMin meet" x="215" y="-506.7"/>
<text text-anchor="start" x="230" y="-496.8" font-family="Helvetica,sans-Serif" font-size="11.00" fill="#000000">determinant</text>
<polygon fill="none" stroke="#000000" points="210,-470.7 210,-489.7 368,-489.7 368,-470.7 210,-470.7"/>
<text text-anchor="start" x="213" y="-476.8" font-family="Helvetica,sans-Serif" font-size="11.00" fill="#000000">...</text>
<polygon fill="#ffffff" stroke="transparent" points="210,-451.7 210,-470.7 270,-470.7 270,-451.7 210,-451.7"/>
<polygon fill="none" stroke="#000000" points="210,-451.7 210,-470.7 270,-470.7 270,-451.7 210,-451.7"/>
<text text-anchor="start" x="213" y="-457.8" font-family="Helvetica,sans-Serif" font-size="11.00" fill="#000000">&lt; 2</text>
<polygon fill="#ffffff" stroke="transparent" points="270,-451.7 270,-470.7 327,-470.7 327,-451.7 270,-451.7"/>
<polygon fill="none" stroke="#000000" points="270,-451.7 270,-470.7 327,-470.7 327,-451.7 270,-451.7"/>
<text text-anchor="start" x="291.6105" y="-457.8" font-family="Helvetica,sans-Serif" font-size="11.00" fill="#000000">0 rows</text>
<polygon fill="#ffffff" stroke="transparent" points="327,-451.7 327,-470.7 368,-470.7 368,-451.7 327,-451.7"/>
<polygon fill="none" stroke="#000000" points="327,-451.7 327,-470.7 368,-470.7 368,-451.7 327,-451.7"/>
<text text-anchor="start" x="349.4053" y="-457.8" font-family="Helvetica,sans-Serif" font-size="11.00" fill="#000000">2 &gt;</text>
</a>
</g>
</g>
<!-- dependency_rule -->
<g id="node9" class="node">
<title>dependency_rule</title>
<g id="a_node9"><a xlink:href="../../tables/dependency_rule.html" xlink:title="dependency_rule" target="_top">
<polygon fill="#ffffff" stroke="transparent" points="8,-484.2 8,-545.2 161,-545.2 161,-484.2 8,-484.2"/>
<polygon fill="#f5f5f5" stroke="transparent" points="8.5,-521.7 8.5,-544.7 161.5,-544.7 161.5,-521.7 8.5,-521.7"/>
<polygon fill="none" stroke="#000000" points="8.5,-521.7 8.5,-544.7 161.5,-544.7 161.5,-521.7 8.5,-521.7"/>
<text text-anchor="start" x="13.5" y="-530.3" font-family="Helvetica,sans-Serif" font-weight="bold" font-size="11.00" fill="#000000">dependency_rule</text>
<text text-anchor="start" x="127.0219" y="-529.8" font-family="Helvetica,sans-Serif" font-size="11.00" fill="#000000">[table]</text>
<polygon fill="none" stroke="#000000" points="8.5,-502.7 8.5,-521.7 161.5,-521.7 161.5,-502.7 8.5,-502.7"/>
<text text-anchor="start" x="11.5" y="-508.8" font-family="Helvetica,sans-Serif" font-size="11.00" fill="#000000">...</text>
<polygon fill="#ffffff" stroke="transparent" points="8.5,-483.7 8.5,-502.7 61.5,-502.7 61.5,-483.7 8.5,-483.7"/>
<polygon fill="none" stroke="#000000" points="8.5,-483.7 8.5,-502.7 61.5,-502.7 61.5,-483.7 8.5,-483.7"/>
<text text-anchor="start" x="11.5" y="-489.8" font-family="Helvetica,sans-Serif" font-size="11.00" fill="#000000"> &#160;</text>
<polygon fill="#ffffff" stroke="transparent" points="61.5,-483.7 61.5,-502.7 119.5,-502.7 119.5,-483.7 61.5,-483.7"/>
<polygon fill="none" stroke="#000000" points="61.5,-483.7 61.5,-502.7 119.5,-502.7 119.5,-483.7 61.5,-483.7"/>
<text text-anchor="start" x="84.1105" y="-489.8" font-family="Helvetica,sans-Serif" font-size="11.00" fill="#000000">0 rows</text>
<polygon fill="#ffffff" stroke="transparent" points="119.5,-483.7 119.5,-502.7 161.5,-502.7 161.5,-483.7 119.5,-483.7"/>
<polygon fill="none" stroke="#000000" points="119.5,-483.7 119.5,-502.7 161.5,-502.7 161.5,-483.7 119.5,-483.7"/>
<text text-anchor="start" x="142.9053" y="-489.8" font-family="Helvetica,sans-Serif" font-size="11.00" fill="#000000">7 &gt;</text>
</a>
</g>
</g>
<!-- predicate&#45;&gt;dependency_rule -->
<g id="edge7" class="edge">
<title>predicate:w&#45;&gt;dependency_rule:e</title>
<path fill="none" stroke="#000000" d="M195.4888,-502.6161C184.3593,-505.7676 177.7319,-511.7 161.5,-511.7"/>
<polygon fill="#000000" stroke="#000000" points="202.0688,-501.7473 210.4713,-504.269 206.0344,-501.2236 210,-500.7 210,-500.7 210,-500.7 206.0344,-501.2236 209.5287,-497.131 202.0688,-501.7473 202.0688,-501.7473"/>
<ellipse fill="none" stroke="#000000" cx="198.8964" cy="-502.1662" rx="3.2" ry="3.2"/>
</g>
<!-- predicate&#45;&gt;dependency_rule -->
<g id="edge8" class="edge">
<title>predicate:w&#45;&gt;dependency_rule:e</title>
<path fill="none" stroke="#000000" d="M195.4888,-520.7839C184.3593,-517.6324 177.7319,-511.7 161.5,-511.7"/>
<polygon fill="#000000" stroke="#000000" points="202.0688,-521.6527 209.5287,-526.269 206.0344,-522.1764 210,-522.7 210,-522.7 210,-522.7 206.0344,-522.1764 210.4713,-519.131 202.0688,-521.6527 202.0688,-521.6527"/>
<ellipse fill="none" stroke="#000000" cx="198.8964" cy="-521.2338" rx="3.2" ry="3.2"/>
</g>
<!-- predicate_aspect -->
<g id="node10" class="node">
<title>predicate_aspect</title>
<g id="a_node10"><a xlink:href="../../tables/predicate_aspect.html" xlink:title="predicate_aspect" target="_top">
<polygon fill="#ffffff" stroke="transparent" points="421,-448.7 421,-538.7 603,-538.7 603,-448.7 421,-448.7"/>
<polygon fill="#f5f5f5" stroke="transparent" points="423,-513.7 423,-536.7 601,-536.7 601,-513.7 423,-513.7"/>
<polygon fill="none" stroke="#000000" points="423,-513.7 423,-536.7 601,-536.7 601,-513.7 423,-513.7"/>
<text text-anchor="start" x="428" y="-522.3" font-family="Helvetica,sans-Serif" font-weight="bold" font-size="11.00" fill="#000000">predicate_aspect</text>
<text text-anchor="start" x="566.0437" y="-521.8" font-family="Helvetica,sans-Serif" font-size="11.00" fill="#000000">[table]</text>
<polygon fill="none" stroke="#000000" points="423,-491.7 423,-513.7 559,-513.7 559,-491.7 423,-491.7"/>
<image xlink:href="../../images/primaryKeys.png" width="11px" height="12px" preserveAspectRatio="xMinYMin meet" x="428" y="-508.7"/>
<text text-anchor="start" x="443" y="-498.8" font-family="Helvetica,sans-Serif" font-size="11.00" fill="#000000">predicate_id</text>
<polygon fill="none" stroke="#000000" points="559,-491.7 559,-513.7 601,-513.7 601,-491.7 559,-491.7"/>
<text text-anchor="start" x="561.9644" y="-499.4" font-family="Helvetica,sans-Serif" font-size="11.00" fill="#000000">int4[10]</text>
<polygon fill="none" stroke="#000000" points="423,-469.7 423,-491.7 559,-491.7 559,-469.7 423,-469.7"/>
<image xlink:href="../../images/primaryKeys.png" width="11px" height="12px" preserveAspectRatio="xMinYMin meet" x="428" y="-486.7"/>
<text text-anchor="start" x="443" y="-476.8" font-family="Helvetica,sans-Serif" font-size="11.00" fill="#000000">aspect_id</text>
<polygon fill="none" stroke="#000000" points="559,-469.7 559,-491.7 601,-491.7 601,-469.7 559,-469.7"/>
<text text-anchor="start" x="561.9644" y="-477.4" font-family="Helvetica,sans-Serif" font-size="11.00" fill="#000000">int4[10]</text>
<polygon fill="#ffffff" stroke="transparent" points="423,-450.7 423,-469.7 482,-469.7 482,-450.7 423,-450.7"/>
<polygon fill="none" stroke="#000000" points="423,-450.7 423,-469.7 482,-469.7 482,-450.7 423,-450.7"/>
<text text-anchor="start" x="426" y="-456.8" font-family="Helvetica,sans-Serif" font-size="11.00" fill="#000000">&lt; 2</text>
<polygon fill="#ffffff" stroke="transparent" points="482,-450.7 482,-469.7 559,-469.7 559,-450.7 482,-450.7"/>
<polygon fill="none" stroke="#000000" points="482,-450.7 482,-469.7 559,-469.7 559,-450.7 482,-450.7"/>
<text text-anchor="start" x="523.6105" y="-456.8" font-family="Helvetica,sans-Serif" font-size="11.00" fill="#000000">0 rows</text>
<polygon fill="#ffffff" stroke="transparent" points="559,-450.7 559,-469.7 601,-469.7 601,-450.7 559,-450.7"/>
<polygon fill="none" stroke="#000000" points="559,-450.7 559,-469.7 601,-469.7 601,-450.7 559,-450.7"/>
<text text-anchor="start" x="582.4053" y="-456.8" font-family="Helvetica,sans-Serif" font-size="11.00" fill="#000000">0 &gt;</text>
<polygon fill="none" stroke="#000000" stroke-width="2" points="422,-449.7 422,-537.7 602,-537.7 602,-449.7 422,-449.7"/>
</a>
</g>
</g>
<!-- predicate_aspect&#45;&gt;aspect -->
<g id="edge9" class="edge">
<title>predicate_aspect:w&#45;&gt;aspect:e</title>
<path fill="none" stroke="#000000" d="M408.4856,-478.4388C352.5038,-458.3843 425.3909,-311.7 349,-311.7"/>
<polygon fill="#000000" stroke="#000000" points="415.0954,-479.4685 422.4458,-484.2571 419.0477,-480.0842 423,-480.7 423,-480.7 423,-480.7 419.0477,-480.0842 423.5542,-477.1429 415.0954,-479.4685 415.0954,-479.4685"/>
<ellipse fill="none" stroke="#000000" cx="411.9335" cy="-478.9758" rx="3.2" ry="3.2"/>
</g>
<!-- predicate_aspect&#45;&gt;predicate -->
<g id="edge10" class="edge">
<title>predicate_aspect:w&#45;&gt;predicate:e</title>
<path fill="none" stroke="#000000" d="M408.6883,-506.8807C393.3659,-517.5041 392.7495,-544.7 368,-544.7"/>
<polygon fill="#000000" stroke="#000000" points="415.3209,-504.9432 424.0094,-506.1556 419.1605,-503.8216 423,-502.7 423,-502.7 423,-502.7 419.1605,-503.8216 421.9906,-499.2444 415.3209,-504.9432 415.3209,-504.9432"/>
<ellipse fill="none" stroke="#000000" cx="412.2493" cy="-505.8405" rx="3.2" ry="3.2"/>
</g>
<!-- predicate_aspect_type -->
<g id="node11" class="node">
<title>predicate_aspect_type</title>
<g id="a_node11"><a xlink:href="../../tables/predicate_aspect_type.html" xlink:title="predicate_aspect_type" target="_top">
<polygon fill="#ffffff" stroke="transparent" points="417,-560.2 417,-621.2 607,-621.2 607,-560.2 417,-560.2"/>
<polygon fill="#f5f5f5" stroke="transparent" points="417,-597.7 417,-620.7 607,-620.7 607,-597.7 417,-597.7"/>
<polygon fill="none" stroke="#000000" points="417,-597.7 417,-620.7 607,-620.7 607,-597.7 417,-597.7"/>
<text text-anchor="start" x="422" y="-606.3" font-family="Helvetica,sans-Serif" font-weight="bold" font-size="11.00" fill="#000000">predicate_aspect_type</text>
<text text-anchor="start" x="572.5219" y="-605.8" font-family="Helvetica,sans-Serif" font-size="11.00" fill="#000000">[table]</text>
<polygon fill="none" stroke="#000000" points="417,-578.7 417,-597.7 607,-597.7 607,-578.7 417,-578.7"/>
<text text-anchor="start" x="420" y="-584.8" font-family="Helvetica,sans-Serif" font-size="11.00" fill="#000000">...</text>
<polygon fill="#ffffff" stroke="transparent" points="417,-559.7 417,-578.7 497,-578.7 497,-559.7 417,-559.7"/>
<polygon fill="none" stroke="#000000" points="417,-559.7 417,-578.7 497,-578.7 497,-559.7 417,-559.7"/>
<text text-anchor="start" x="420" y="-565.8" font-family="Helvetica,sans-Serif" font-size="11.00" fill="#000000">&lt; 2</text>
<polygon fill="#ffffff" stroke="transparent" points="497,-559.7 497,-578.7 565,-578.7 565,-559.7 497,-559.7"/>
<polygon fill="none" stroke="#000000" points="497,-559.7 497,-578.7 565,-578.7 565,-559.7 497,-559.7"/>
<text text-anchor="start" x="529.6105" y="-565.8" font-family="Helvetica,sans-Serif" font-size="11.00" fill="#000000">0 rows</text>
<polygon fill="#ffffff" stroke="transparent" points="565,-559.7 565,-578.7 607,-578.7 607,-559.7 565,-559.7"/>
<polygon fill="none" stroke="#000000" points="565,-559.7 565,-578.7 607,-578.7 607,-559.7 565,-559.7"/>
<text text-anchor="start" x="597.8862" y="-565.8" font-family="Helvetica,sans-Serif" font-size="11.00" fill="#000000"> &#160;</text>
</a>
</g>
</g>
<!-- predicate_aspect_type&#45;&gt;aspect_type -->
<g id="edge11" class="edge">
<title>predicate_aspect_type:w&#45;&gt;aspect_type:e</title>
<path fill="none" stroke="#000000" d="M402.4998,-585.6989C360.7249,-571.8166 415.4558,-489.0143 376,-441.7 320.8785,-375.5999 277.5065,-398.0082 202,-356.7 175.7535,-342.341 174.4176,-321.7 144.5,-321.7"/>
<polygon fill="#000000" stroke="#000000" points="409.0751,-586.6063 416.5078,-591.2662 413.0376,-587.1531 417,-587.7 417,-587.7 417,-587.7 413.0376,-587.1531 417.4922,-584.1338 409.0751,-586.6063 409.0751,-586.6063"/>
<ellipse fill="none" stroke="#000000" cx="405.9052" cy="-586.1688" rx="3.2" ry="3.2"/>
</g>
<!-- predicate_aspect_type&#45;&gt;predicate -->
<g id="edge12" class="edge">
<title>predicate_aspect_type:w&#45;&gt;predicate:e</title>
<path fill="none" stroke="#000000" d="M403.015,-582.7674C390.1135,-571.4726 390.8625,-544.7 368,-544.7"/>
<polygon fill="#000000" stroke="#000000" points="409.4555,-585.039 415.8025,-591.095 413.2278,-586.3695 417,-587.7 417,-587.7 417,-587.7 413.2278,-586.3695 418.1975,-584.305 409.4555,-585.039 409.4555,-585.039"/>
<ellipse fill="none" stroke="#000000" cx="406.4377" cy="-583.9745" rx="3.2" ry="3.2"/>
</g>
</g>
</svg>
