<?xml version="1.0" encoding="UTF-8" standalone="no"?>
<!DOCTYPE svg PUBLIC "-//W3C//DTD SVG 1.1//EN"
 "http://www.w3.org/Graphics/SVG/1.1/DTD/svg11.dtd">
<!-- Generated by graphviz version 2.40.1 (20161225.0304)
 -->
<!-- Title: oneDegreeRelationshipsDiagram Pages: 1 -->
<svg width="413pt" height="325pt"
 viewBox="0.00 0.00 413.00 325.20" xmlns="http://www.w3.org/2000/svg" xmlns:xlink="http://www.w3.org/1999/xlink">
<g id="graph0" class="graph" transform="scale(1 1) rotate(0) translate(4 321.2)">
<title>oneDegreeRelationshipsDiagram</title>
<polygon fill="#ffffff" stroke="transparent" points="-4,4 -4,-321.2 409,-321.2 409,4 -4,4"/>
<text text-anchor="middle" x="72.4936" y="-7.3" font-family="Helvetica,sans-Serif" font-size="11.00" fill="#000000">Generated by SchemaSpy</text>
<!-- predicate_aspect -->
<g id="node1" class="node">
<title>predicate_aspect</title>
<g id="a_node1"><a xlink:href="../../tables/predicate_aspect.html" xlink:title="predicate_aspect" target="_top">
<polygon fill="#ffffff" stroke="transparent" points="215,-161.7 215,-251.7 397,-251.7 397,-161.7 215,-161.7"/>
<polygon fill="#f5f5f5" stroke="transparent" points="217,-226.7 217,-249.7 395,-249.7 395,-226.7 217,-226.7"/>
<polygon fill="none" stroke="#000000" points="217,-226.7 217,-249.7 395,-249.7 395,-226.7 217,-226.7"/>
<text text-anchor="start" x="222" y="-235.3" font-family="Helvetica,sans-Serif" font-weight="bold" font-size="11.00" fill="#000000">predicate_aspect</text>
<text text-anchor="start" x="360.0437" y="-234.8" font-family="Helvetica,sans-Serif" font-size="11.00" fill="#000000">[table]</text>
<polygon fill="none" stroke="#000000" points="217,-204.7 217,-226.7 353,-226.7 353,-204.7 217,-204.7"/>
<image xlink:href="../../images/primaryKeys.png" width="11px" height="12px" preserveAspectRatio="xMinYMin meet" x="222" y="-221.7"/>
<text text-anchor="start" x="237" y="-211.8" font-family="Helvetica,sans-Serif" font-size="11.00" fill="#000000">predicate_id</text>
<polygon fill="none" stroke="#000000" points="353,-204.7 353,-226.7 395,-226.7 395,-204.7 353,-204.7"/>
<text text-anchor="start" x="355.9644" y="-212.4" font-family="Helvetica,sans-Serif" font-size="11.00" fill="#000000">int4[10]</text>
<polygon fill="none" stroke="#000000" points="217,-182.7 217,-204.7 353,-204.7 353,-182.7 217,-182.7"/>
<image xlink:href="../../images/primaryKeys.png" width="11px" height="12px" preserveAspectRatio="xMinYMin meet" x="222" y="-199.7"/>
<text text-anchor="start" x="237" y="-189.8" font-family="Helvetica,sans-Serif" font-size="11.00" fill="#000000">aspect_id</text>
<polygon fill="none" stroke="#000000" points="353,-182.7 353,-204.7 395,-204.7 395,-182.7 353,-182.7"/>
<text text-anchor="start" x="355.9644" y="-190.4" font-family="Helvetica,sans-Serif" font-size="11.00" fill="#000000">int4[10]</text>
<polygon fill="#ffffff" stroke="transparent" points="217,-163.7 217,-182.7 276,-182.7 276,-163.7 217,-163.7"/>
<polygon fill="none" stroke="#000000" points="217,-163.7 217,-182.7 276,-182.7 276,-163.7 217,-163.7"/>
<text text-anchor="start" x="220" y="-169.8" font-family="Helvetica,sans-Serif" font-size="11.00" fill="#000000">&lt; 2</text>
<polygon fill="#ffffff" stroke="transparent" points="276,-163.7 276,-182.7 353,-182.7 353,-163.7 276,-163.7"/>
<polygon fill="none" stroke="#000000" points="276,-163.7 276,-182.7 353,-182.7 353,-163.7 276,-163.7"/>
<text text-anchor="start" x="317.6105" y="-169.8" font-family="Helvetica,sans-Serif" font-size="11.00" fill="#000000">0 rows</text>
<polygon fill="#ffffff" stroke="transparent" points="353,-163.7 353,-182.7 395,-182.7 395,-163.7 353,-163.7"/>
<polygon fill="none" stroke="#000000" points="353,-163.7 353,-182.7 395,-182.7 395,-163.7 353,-163.7"/>
<text text-anchor="start" x="376.4053" y="-169.8" font-family="Helvetica,sans-Serif" font-size="11.00" fill="#000000">0 &gt;</text>
<polygon fill="none" stroke="#000000" stroke-width="2" points="216,-162.7 216,-250.7 396,-250.7 396,-162.7 216,-162.7"/>
</a>
</g>
</g>
<!-- aspect -->
<g id="node2" class="node">
<title>aspect</title>
<g id="a_node2"><a xlink:href="../../tables/aspect.html" xlink:title="aspect" target="_top">
<polygon fill="#ffffff" stroke="transparent" points="27,-38.2 27,-165.2 147,-165.2 147,-38.2 27,-38.2"/>
<polygon fill="#f5f5f5" stroke="transparent" points="27,-141.7 27,-164.7 147,-164.7 147,-141.7 27,-141.7"/>
<polygon fill="none" stroke="#000000" points="27,-141.7 27,-164.7 147,-164.7 147,-141.7 27,-141.7"/>
<text text-anchor="start" x="32" y="-150.3" font-family="Helvetica,sans-Serif" font-weight="bold" font-size="11.00" fill="#000000">aspect</text>
<text text-anchor="start" x="112.0437" y="-149.8" font-family="Helvetica,sans-Serif" font-size="11.00" fill="#000000">[table]</text>
<polygon fill="none" stroke="#000000" points="27,-119.7 27,-141.7 147,-141.7 147,-119.7 27,-119.7"/>
<image xlink:href="../../images/primaryKeys.png" width="11px" height="12px" preserveAspectRatio="xMinYMin meet" x="32" y="-136.7"/>
<text text-anchor="start" x="47" y="-126.8" font-family="Helvetica,sans-Serif" font-size="11.00" fill="#000000">aspect_id</text>
<polygon fill="#ffffff" stroke="transparent" points="27,-97.7 27,-119.7 147,-119.7 147,-97.7 27,-97.7"/>
<polygon fill="none" stroke="#000000" points="27,-97.7 27,-119.7 147,-119.7 147,-97.7 27,-97.7"/>
<text text-anchor="start" x="47" y="-104.8" font-family="Helvetica,sans-Serif" font-size="11.00" fill="#000000">description</text>
<polygon fill="#ffffff" stroke="transparent" points="27,-75.7 27,-97.7 147,-97.7 147,-75.7 27,-75.7"/>
<polygon fill="none" stroke="#000000" points="27,-75.7 27,-97.7 147,-97.7 147,-75.7 27,-75.7"/>
<image xlink:href="../../images/foreignKeys.png" width="11px" height="12px" preserveAspectRatio="xMinYMin meet" x="32" y="-92.7"/>
<text text-anchor="start" x="47" y="-82.8" font-family="Helvetica,sans-Serif" font-size="11.00" fill="#000000">aspect_type_id</text>
<polygon fill="none" stroke="#000000" points="27,-56.7 27,-75.7 147,-75.7 147,-56.7 27,-56.7"/>
<text text-anchor="start" x="30" y="-62.8" font-family="Helvetica,sans-Serif" font-size="11.00" fill="#000000">...</text>
<polygon fill="#ffffff" stroke="transparent" points="27,-37.7 27,-56.7 57,-56.7 57,-37.7 27,-37.7"/>
<polygon fill="none" stroke="#000000" points="27,-37.7 27,-56.7 57,-56.7 57,-37.7 27,-37.7"/>
<text text-anchor="start" x="30" y="-43.8" font-family="Helvetica,sans-Serif" font-size="11.00" fill="#000000">&lt; 1</text>
<polygon fill="#ffffff" stroke="transparent" points="57,-37.7 57,-56.7 121,-56.7 121,-37.7 57,-37.7"/>
<polygon fill="none" stroke="#000000" points="57,-37.7 57,-56.7 121,-56.7 121,-37.7 57,-37.7"/>
<text text-anchor="start" x="64.2089" y="-43.8" font-family="Helvetica,sans-Serif" font-size="11.00" fill="#000000">2.300 rows</text>
<polygon fill="#ffffff" stroke="transparent" points="121,-37.7 121,-56.7 147,-56.7 147,-37.7 121,-37.7"/>
<polygon fill="none" stroke="#000000" points="121,-37.7 121,-56.7 147,-56.7 147,-37.7 121,-37.7"/>
<text text-anchor="start" x="128.4053" y="-43.8" font-family="Helvetica,sans-Serif" font-size="11.00" fill="#000000">6 &gt;</text>
</a>
</g>
</g>
<!-- predicate_aspect&#45;&gt;aspect -->
<g id="edge1" class="edge">
<title>predicate_aspect:w&#45;&gt;aspect:e</title>
<path fill="none" stroke="#000000" d="M202.6646,-190.4892C177.8548,-177.651 183.1333,-130.7 147,-130.7"/>
<polygon fill="#000000" stroke="#000000" points="209.1934,-191.9515 216.2132,-197.213 213.0967,-192.8257 217,-193.7 217,-193.7 217,-193.7 213.0967,-192.8257 217.7868,-190.187 209.1934,-191.9515 209.1934,-191.9515"/>
<ellipse fill="none" stroke="#000000" cx="206.0708" cy="-191.2521" rx="3.2" ry="3.2"/>
</g>
<!-- predicate -->
<g id="node3" class="node">
<title>predicate</title>
<g id="a_node3"><a xlink:href="../../tables/predicate.html" xlink:title="predicate" target="_top">
<polygon fill="#ffffff" stroke="transparent" points="8,-186.2 8,-313.2 166,-313.2 166,-186.2 8,-186.2"/>
<polygon fill="#f5f5f5" stroke="transparent" points="8,-289.7 8,-312.7 166,-312.7 166,-289.7 8,-289.7"/>
<polygon fill="none" stroke="#000000" points="8,-289.7 8,-312.7 166,-312.7 166,-289.7 8,-289.7"/>
<text text-anchor="start" x="13" y="-298.3" font-family="Helvetica,sans-Serif" font-weight="bold" font-size="11.00" fill="#000000">predicate</text>
<text text-anchor="start" x="131.0437" y="-297.8" font-family="Helvetica,sans-Serif" font-size="11.00" fill="#000000">[table]</text>
<polygon fill="none" stroke="#000000" points="8,-267.7 8,-289.7 166,-289.7 166,-267.7 8,-267.7"/>
<image xlink:href="../../images/primaryKeys.png" width="11px" height="12px" preserveAspectRatio="xMinYMin meet" x="13" y="-284.7"/>
<text text-anchor="start" x="28" y="-274.8" font-family="Helvetica,sans-Serif" font-size="11.00" fill="#000000">predicate_id</text>
<polygon fill="#ffffff" stroke="transparent" points="8,-245.7 8,-267.7 166,-267.7 166,-245.7 8,-245.7"/>
<polygon fill="none" stroke="#000000" points="8,-245.7 8,-267.7 166,-267.7 166,-245.7 8,-245.7"/>
<image xlink:href="../../images/foreignKeys.png" width="11px" height="12px" preserveAspectRatio="xMinYMin meet" x="13" y="-262.7"/>
<text text-anchor="start" x="28" y="-252.8" font-family="Helvetica,sans-Serif" font-size="11.00" fill="#000000">determined</text>
<polygon fill="#ffffff" stroke="transparent" points="8,-223.7 8,-245.7 166,-245.7 166,-223.7 8,-223.7"/>
<polygon fill="none" stroke="#000000" points="8,-223.7 8,-245.7 166,-245.7 166,-223.7 8,-223.7"/>
<image xlink:href="../../images/foreignKeys.png" width="11px" height="12px" preserveAspectRatio="xMinYMin meet" x="13" y="-240.7"/>
<text text-anchor="start" x="28" y="-230.8" font-family="Helvetica,sans-Serif" font-size="11.00" fill="#000000">determinant</text>
<polygon fill="none" stroke="#000000" points="8,-204.7 8,-223.7 166,-223.7 166,-204.7 8,-204.7"/>
<text text-anchor="start" x="11" y="-210.8" font-family="Helvetica,sans-Serif" font-size="11.00" fill="#000000">...</text>
<polygon fill="#ffffff" stroke="transparent" points="8,-185.7 8,-204.7 68,-204.7 68,-185.7 8,-185.7"/>
<polygon fill="none" stroke="#000000" points="8,-185.7 8,-204.7 68,-204.7 68,-185.7 8,-185.7"/>
<text text-anchor="start" x="11" y="-191.8" font-family="Helvetica,sans-Serif" font-size="11.00" fill="#000000">&lt; 2</text>
<polygon fill="#ffffff" stroke="transparent" points="68,-185.7 68,-204.7 125,-204.7 125,-185.7 68,-185.7"/>
<polygon fill="none" stroke="#000000" points="68,-185.7 68,-204.7 125,-204.7 125,-185.7 68,-185.7"/>
<text text-anchor="start" x="89.6105" y="-191.8" font-family="Helvetica,sans-Serif" font-size="11.00" fill="#000000">0 rows</text>
<polygon fill="#ffffff" stroke="transparent" points="125,-185.7 125,-204.7 166,-204.7 166,-185.7 125,-185.7"/>
<polygon fill="none" stroke="#000000" points="125,-185.7 125,-204.7 166,-204.7 166,-185.7 125,-185.7"/>
<text text-anchor="start" x="147.4053" y="-191.8" font-family="Helvetica,sans-Serif" font-size="11.00" fill="#000000">2 &gt;</text>
</a>
</g>
</g>
<!-- predicate_aspect&#45;&gt;predicate -->
<g id="edge2" class="edge">
<title>predicate_aspect:w&#45;&gt;predicate:e</title>
<path fill="none" stroke="#000000" d="M202.9033,-220.6435C186.525,-235.4952 195.8329,-278.7 166,-278.7"/>
<polygon fill="#000000" stroke="#000000" points="209.4507,-218.3474 218.1913,-219.0972 213.2254,-217.0237 217,-215.7 217,-215.7 217,-215.7 213.2254,-217.0237 215.8087,-212.3028 209.4507,-218.3474 209.4507,-218.3474"/>
<ellipse fill="none" stroke="#000000" cx="206.431" cy="-219.4064" rx="3.2" ry="3.2"/>
</g>
</g>
</svg>
