<?xml version="1.0" encoding="UTF-8" standalone="no"?>
<!DOCTYPE svg PUBLIC "-//W3C//DTD SVG 1.1//EN"
 "http://www.w3.org/Graphics/SVG/1.1/DTD/svg11.dtd">
<!-- Generated by graphviz version 2.40.1 (20161225.0304)
 -->
<!-- Title: twoDegreesRelationshipsDiagram Pages: 1 -->
<svg width="694pt" height="813pt"
 viewBox="0.00 0.00 694.00 813.20" xmlns="http://www.w3.org/2000/svg" xmlns:xlink="http://www.w3.org/1999/xlink">
<g id="graph0" class="graph" transform="scale(1 1) rotate(0) translate(4 809.2)">
<title>twoDegreesRelationshipsDiagram</title>
<polygon fill="#ffffff" stroke="transparent" points="-4,4 -4,-809.2 690,-809.2 690,4 -4,4"/>
<text text-anchor="middle" x="72.4936" y="-7.3" font-family="Helvetica,sans-Serif" font-size="11.00" fill="#000000">Generated by SchemaSpy</text>
<!-- aspect -->
<g id="node1" class="node">
<title>aspect</title>
<g id="a_node1"><a xlink:href="../../tables/aspect.html" xlink:title="aspect" target="_top">
<polygon fill="#ffffff" stroke="transparent" points="274,-64.2 274,-125.2 375,-125.2 375,-64.2 274,-64.2"/>
<polygon fill="#f5f5f5" stroke="transparent" points="274.5,-101.7 274.5,-124.7 375.5,-124.7 375.5,-101.7 274.5,-101.7"/>
<polygon fill="none" stroke="#000000" points="274.5,-101.7 274.5,-124.7 375.5,-124.7 375.5,-101.7 274.5,-101.7"/>
<text text-anchor="start" x="279.5" y="-110.3" font-family="Helvetica,sans-Serif" font-weight="bold" font-size="11.00" fill="#000000">aspect</text>
<text text-anchor="start" x="340.5437" y="-109.8" font-family="Helvetica,sans-Serif" font-size="11.00" fill="#000000">[table]</text>
<polygon fill="none" stroke="#000000" points="274.5,-82.7 274.5,-101.7 375.5,-101.7 375.5,-82.7 274.5,-82.7"/>
<text text-anchor="start" x="277.5" y="-88.8" font-family="Helvetica,sans-Serif" font-size="11.00" fill="#000000">...</text>
<polygon fill="#ffffff" stroke="transparent" points="274.5,-63.7 274.5,-82.7 295.5,-82.7 295.5,-63.7 274.5,-63.7"/>
<polygon fill="none" stroke="#000000" points="274.5,-63.7 274.5,-82.7 295.5,-82.7 295.5,-63.7 274.5,-63.7"/>
<text text-anchor="start" x="277.2027" y="-69.8" font-family="Helvetica,sans-Serif" font-size="11.00" fill="#000000">&lt; 1</text>
<polygon fill="#ffffff" stroke="transparent" points="295.5,-63.7 295.5,-82.7 354.5,-82.7 354.5,-63.7 295.5,-63.7"/>
<polygon fill="none" stroke="#000000" points="295.5,-63.7 295.5,-82.7 354.5,-82.7 354.5,-63.7 295.5,-63.7"/>
<text text-anchor="start" x="298.1045" y="-69.8" font-family="Helvetica,sans-Serif" font-size="11.00" fill="#000000">2.300 rows</text>
<polygon fill="#ffffff" stroke="transparent" points="354.5,-63.7 354.5,-82.7 375.5,-82.7 375.5,-63.7 354.5,-63.7"/>
<polygon fill="none" stroke="#000000" points="354.5,-63.7 354.5,-82.7 375.5,-82.7 375.5,-63.7 354.5,-63.7"/>
<text text-anchor="start" x="357.2027" y="-69.8" font-family="Helvetica,sans-Serif" font-size="11.00" fill="#000000">6 &gt;</text>
</a>
</g>
</g>
<!-- aspect_type -->
<g id="node2" class="node">
<title>aspect_type</title>
<g id="a_node2"><a xlink:href="../../tables/aspect_type.html" xlink:title="aspect_type" target="_top">
<polygon fill="#ffffff" stroke="transparent" points="24.5,-38.2 24.5,-99.2 144.5,-99.2 144.5,-38.2 24.5,-38.2"/>
<polygon fill="#f5f5f5" stroke="transparent" points="24.5,-75.7 24.5,-98.7 144.5,-98.7 144.5,-75.7 24.5,-75.7"/>
<polygon fill="none" stroke="#000000" points="24.5,-75.7 24.5,-98.7 144.5,-98.7 144.5,-75.7 24.5,-75.7"/>
<text text-anchor="start" x="29.5" y="-84.3" font-family="Helvetica,sans-Serif" font-weight="bold" font-size="11.00" fill="#000000">aspect_type</text>
<text text-anchor="start" x="110.0219" y="-83.8" font-family="Helvetica,sans-Serif" font-size="11.00" fill="#000000">[table]</text>
<polygon fill="none" stroke="#000000" points="24.5,-56.7 24.5,-75.7 144.5,-75.7 144.5,-56.7 24.5,-56.7"/>
<text text-anchor="start" x="27.5" y="-62.8" font-family="Helvetica,sans-Serif" font-size="11.00" fill="#000000">...</text>
<polygon fill="#ffffff" stroke="transparent" points="24.5,-37.7 24.5,-56.7 65.5,-56.7 65.5,-37.7 24.5,-37.7"/>
<polygon fill="none" stroke="#000000" points="24.5,-37.7 24.5,-56.7 65.5,-56.7 65.5,-37.7 24.5,-37.7"/>
<text text-anchor="start" x="27.5" y="-43.8" font-family="Helvetica,sans-Serif" font-size="11.00" fill="#000000">&lt; 1</text>
<polygon fill="#ffffff" stroke="transparent" points="65.5,-37.7 65.5,-56.7 113.5,-56.7 113.5,-37.7 65.5,-37.7"/>
<polygon fill="none" stroke="#000000" points="65.5,-37.7 65.5,-56.7 113.5,-56.7 113.5,-37.7 65.5,-37.7"/>
<text text-anchor="start" x="78.1105" y="-43.8" font-family="Helvetica,sans-Serif" font-size="11.00" fill="#000000">4 rows</text>
<polygon fill="#ffffff" stroke="transparent" points="113.5,-37.7 113.5,-56.7 144.5,-56.7 144.5,-37.7 113.5,-37.7"/>
<polygon fill="none" stroke="#000000" points="113.5,-37.7 113.5,-56.7 144.5,-56.7 144.5,-37.7 113.5,-37.7"/>
<text text-anchor="start" x="125.9053" y="-43.8" font-family="Helvetica,sans-Serif" font-size="11.00" fill="#000000">4 &gt;</text>
</a>
</g>
</g>
<!-- aspect&#45;&gt;aspect_type -->
<g id="edge1" class="edge">
<title>aspect:w&#45;&gt;aspect_type:e</title>
<path fill="none" stroke="#000000" d="M259.9842,-91.1328C213.0799,-87.3305 198.2433,-65.7 144.5,-65.7"/>
<polygon fill="#000000" stroke="#000000" points="266.5061,-91.3876 274.3594,-95.2973 270.5031,-91.5438 274.5,-91.7 274.5,-91.7 274.5,-91.7 270.5031,-91.5438 274.6406,-88.1027 266.5061,-91.3876 266.5061,-91.3876"/>
<ellipse fill="none" stroke="#000000" cx="263.3085" cy="-91.2626" rx="3.2" ry="3.2"/>
</g>
<!-- dependency_rule_dataset -->
<g id="node3" class="node">
<title>dependency_rule_dataset</title>
<g id="a_node3"><a xlink:href="../../tables/dependency_rule_dataset.html" xlink:title="dependency_rule_dataset" target="_top">
<polygon fill="#ffffff" stroke="transparent" points="219,-412.2 219,-473.2 430,-473.2 430,-412.2 219,-412.2"/>
<polygon fill="#f5f5f5" stroke="transparent" points="219.5,-449.7 219.5,-472.7 430.5,-472.7 430.5,-449.7 219.5,-449.7"/>
<polygon fill="none" stroke="#000000" points="219.5,-449.7 219.5,-472.7 430.5,-472.7 430.5,-449.7 219.5,-449.7"/>
<text text-anchor="start" x="224.5" y="-458.3" font-family="Helvetica,sans-Serif" font-weight="bold" font-size="11.00" fill="#000000">dependency_rule_dataset</text>
<text text-anchor="start" x="396.0219" y="-457.8" font-family="Helvetica,sans-Serif" font-size="11.00" fill="#000000">[table]</text>
<polygon fill="none" stroke="#000000" points="219.5,-430.7 219.5,-449.7 430.5,-449.7 430.5,-430.7 219.5,-430.7"/>
<text text-anchor="start" x="222.5" y="-436.8" font-family="Helvetica,sans-Serif" font-size="11.00" fill="#000000">...</text>
<polygon fill="#ffffff" stroke="transparent" points="219.5,-411.7 219.5,-430.7 310.5,-430.7 310.5,-411.7 219.5,-411.7"/>
<polygon fill="none" stroke="#000000" points="219.5,-411.7 219.5,-430.7 310.5,-430.7 310.5,-411.7 219.5,-411.7"/>
<text text-anchor="start" x="222.5" y="-417.8" font-family="Helvetica,sans-Serif" font-size="11.00" fill="#000000">&lt; 2</text>
<polygon fill="#ffffff" stroke="transparent" points="310.5,-411.7 310.5,-430.7 383.5,-430.7 383.5,-411.7 310.5,-411.7"/>
<polygon fill="none" stroke="#000000" points="310.5,-411.7 310.5,-430.7 383.5,-430.7 383.5,-411.7 310.5,-411.7"/>
<text text-anchor="start" x="348.1105" y="-417.8" font-family="Helvetica,sans-Serif" font-size="11.00" fill="#000000">0 rows</text>
<polygon fill="#ffffff" stroke="transparent" points="383.5,-411.7 383.5,-430.7 430.5,-430.7 430.5,-411.7 383.5,-411.7"/>
<polygon fill="none" stroke="#000000" points="383.5,-411.7 383.5,-430.7 430.5,-430.7 430.5,-411.7 383.5,-411.7"/>
<text text-anchor="start" x="421.3862" y="-417.8" font-family="Helvetica,sans-Serif" font-size="11.00" fill="#000000"> &#160;</text>
</a>
</g>
</g>
<!-- dependency_rule -->
<g id="node4" class="node">
<title>dependency_rule</title>
<g id="a_node4"><a xlink:href="../../tables/dependency_rule.html" xlink:title="dependency_rule" target="_top">
<polygon fill="#ffffff" stroke="transparent" points="8,-473.2 8,-556.2 161,-556.2 161,-473.2 8,-473.2"/>
<polygon fill="#f5f5f5" stroke="transparent" points="8.5,-532.7 8.5,-555.7 161.5,-555.7 161.5,-532.7 8.5,-532.7"/>
<polygon fill="none" stroke="#000000" points="8.5,-532.7 8.5,-555.7 161.5,-555.7 161.5,-532.7 8.5,-532.7"/>
<text text-anchor="start" x="13.5" y="-541.3" font-family="Helvetica,sans-Serif" font-weight="bold" font-size="11.00" fill="#000000">dependency_rule</text>
<text text-anchor="start" x="127.0219" y="-540.8" font-family="Helvetica,sans-Serif" font-size="11.00" fill="#000000">[table]</text>
<polygon fill="none" stroke="#000000" points="8.5,-510.7 8.5,-532.7 161.5,-532.7 161.5,-510.7 8.5,-510.7"/>
<image xlink:href="../../images/primaryKeys.png" width="11px" height="12px" preserveAspectRatio="xMinYMin meet" x="13.5" y="-527.7"/>
<text text-anchor="start" x="37.5" y="-517.8" font-family="Helvetica,sans-Serif" font-size="11.00" fill="#000000">rule_id</text>
<polygon fill="none" stroke="#000000" points="8.5,-491.7 8.5,-510.7 161.5,-510.7 161.5,-491.7 8.5,-491.7"/>
<text text-anchor="start" x="11.5" y="-497.8" font-family="Helvetica,sans-Serif" font-size="11.00" fill="#000000">...</text>
<polygon fill="#ffffff" stroke="transparent" points="8.5,-472.7 8.5,-491.7 61.5,-491.7 61.5,-472.7 8.5,-472.7"/>
<polygon fill="none" stroke="#000000" points="8.5,-472.7 8.5,-491.7 61.5,-491.7 61.5,-472.7 8.5,-472.7"/>
<text text-anchor="start" x="11.5" y="-478.8" font-family="Helvetica,sans-Serif" font-size="11.00" fill="#000000"> &#160;</text>
<polygon fill="#ffffff" stroke="transparent" points="61.5,-472.7 61.5,-491.7 119.5,-491.7 119.5,-472.7 61.5,-472.7"/>
<polygon fill="none" stroke="#000000" points="61.5,-472.7 61.5,-491.7 119.5,-491.7 119.5,-472.7 61.5,-472.7"/>
<text text-anchor="start" x="84.1105" y="-478.8" font-family="Helvetica,sans-Serif" font-size="11.00" fill="#000000">0 rows</text>
<polygon fill="#ffffff" stroke="transparent" points="119.5,-472.7 119.5,-491.7 161.5,-491.7 161.5,-472.7 119.5,-472.7"/>
<polygon fill="none" stroke="#000000" points="119.5,-472.7 119.5,-491.7 161.5,-491.7 161.5,-472.7 119.5,-472.7"/>
<text text-anchor="start" x="142.9053" y="-478.8" font-family="Helvetica,sans-Serif" font-size="11.00" fill="#000000">7 &gt;</text>
</a>
</g>
</g>
<!-- dependency_rule_dataset&#45;&gt;dependency_rule -->
<g id="edge2" class="edge">
<title>dependency_rule_dataset:w&#45;&gt;dependency_rule:e</title>
<path fill="none" stroke="#000000" d="M205.3756,-443.655C181.8298,-460.0348 200.2109,-521.7 161.5,-521.7"/>
<polygon fill="#000000" stroke="#000000" points="211.7963,-441.8572 220.4707,-443.1667 215.6482,-440.7786 219.5,-439.7 219.5,-439.7 219.5,-439.7 215.6482,-440.7786 218.5293,-436.2333 211.7963,-441.8572 211.7963,-441.8572"/>
<ellipse fill="none" stroke="#000000" cx="208.7148" cy="-442.7201" rx="3.2" ry="3.2"/>
</g>
<!-- mat_dr -->
<g id="node5" class="node">
<title>mat_dr</title>
<g id="a_node5"><a xlink:href="../../tables/mat_dr.html" xlink:title="mat_dr" target="_top">
<polygon fill="#ffffff" stroke="transparent" points="282,-740.2 282,-801.2 367,-801.2 367,-740.2 282,-740.2"/>
<polygon fill="#f5f5f5" stroke="transparent" points="282.5,-777.7 282.5,-800.7 367.5,-800.7 367.5,-777.7 282.5,-777.7"/>
<polygon fill="none" stroke="#000000" points="282.5,-777.7 282.5,-800.7 367.5,-800.7 367.5,-777.7 282.5,-777.7"/>
<text text-anchor="start" x="287.5" y="-786.3" font-family="Helvetica,sans-Serif" font-weight="bold" font-size="11.00" fill="#000000">mat_dr</text>
<text text-anchor="start" x="333.0219" y="-785.8" font-family="Helvetica,sans-Serif" font-size="11.00" fill="#000000">[table]</text>
<polygon fill="none" stroke="#000000" points="282.5,-758.7 282.5,-777.7 367.5,-777.7 367.5,-758.7 282.5,-758.7"/>
<text text-anchor="start" x="285.5" y="-764.8" font-family="Helvetica,sans-Serif" font-size="11.00" fill="#000000">...</text>
<polygon fill="#ffffff" stroke="transparent" points="282.5,-739.7 282.5,-758.7 305.5,-758.7 305.5,-739.7 282.5,-739.7"/>
<polygon fill="none" stroke="#000000" points="282.5,-739.7 282.5,-758.7 305.5,-758.7 305.5,-739.7 282.5,-739.7"/>
<text text-anchor="start" x="285.5" y="-745.8" font-family="Helvetica,sans-Serif" font-size="11.00" fill="#000000">&lt; 1</text>
<polygon fill="#ffffff" stroke="transparent" points="305.5,-739.7 305.5,-758.7 344.5,-758.7 344.5,-739.7 305.5,-739.7"/>
<polygon fill="none" stroke="#000000" points="305.5,-739.7 305.5,-758.7 344.5,-758.7 344.5,-739.7 305.5,-739.7"/>
<text text-anchor="start" x="309.1105" y="-745.8" font-family="Helvetica,sans-Serif" font-size="11.00" fill="#000000">0 rows</text>
<polygon fill="#ffffff" stroke="transparent" points="344.5,-739.7 344.5,-758.7 367.5,-758.7 367.5,-739.7 344.5,-739.7"/>
<polygon fill="none" stroke="#000000" points="344.5,-739.7 344.5,-758.7 367.5,-758.7 367.5,-739.7 344.5,-739.7"/>
<text text-anchor="start" x="348.9053" y="-745.8" font-family="Helvetica,sans-Serif" font-size="11.00" fill="#000000">1 &gt;</text>
</a>
</g>
</g>
<!-- mat_dr&#45;&gt;dependency_rule -->
<g id="edge3" class="edge">
<title>mat_dr:w&#45;&gt;dependency_rule:e</title>
<path fill="none" stroke="#000000" d="M271.9518,-767.5069C239.7479,-766.2156 224.0123,-758.0021 202,-729.7 144.1796,-655.3577 255.6805,-521.7 161.5,-521.7"/>
<polygon fill="#000000" stroke="#000000" points="281.7734,-763.686 281.6269,-771.6847 280.0272,-771.6554 280.1736,-763.6567 281.7734,-763.686"/>
<polyline fill="none" stroke="#000000" points="282.5,-767.7 278.5007,-767.6268 "/>
<ellipse fill="none" stroke="#000000" cx="275.3012" cy="-767.5682" rx="3.2" ry="3.2"/>
</g>
<!-- mo_dr -->
<g id="node6" class="node">
<title>mo_dr</title>
<g id="a_node6"><a xlink:href="../../tables/mo_dr.html" xlink:title="mo_dr" target="_top">
<polygon fill="#ffffff" stroke="transparent" points="284.5,-658.2 284.5,-719.2 364.5,-719.2 364.5,-658.2 284.5,-658.2"/>
<polygon fill="#f5f5f5" stroke="transparent" points="284.5,-695.7 284.5,-718.7 364.5,-718.7 364.5,-695.7 284.5,-695.7"/>
<polygon fill="none" stroke="#000000" points="284.5,-695.7 284.5,-718.7 364.5,-718.7 364.5,-695.7 284.5,-695.7"/>
<text text-anchor="start" x="289.5" y="-704.3" font-family="Helvetica,sans-Serif" font-weight="bold" font-size="11.00" fill="#000000">mo_dr</text>
<text text-anchor="start" x="330.0219" y="-703.8" font-family="Helvetica,sans-Serif" font-size="11.00" fill="#000000">[table]</text>
<polygon fill="none" stroke="#000000" points="284.5,-676.7 284.5,-695.7 364.5,-695.7 364.5,-676.7 284.5,-676.7"/>
<text text-anchor="start" x="287.5" y="-682.8" font-family="Helvetica,sans-Serif" font-size="11.00" fill="#000000">...</text>
<polygon fill="#ffffff" stroke="transparent" points="284.5,-657.7 284.5,-676.7 305.5,-676.7 305.5,-657.7 284.5,-657.7"/>
<polygon fill="none" stroke="#000000" points="284.5,-657.7 284.5,-676.7 305.5,-676.7 305.5,-657.7 284.5,-657.7"/>
<text text-anchor="start" x="287.2027" y="-663.8" font-family="Helvetica,sans-Serif" font-size="11.00" fill="#000000">&lt; 1</text>
<polygon fill="#ffffff" stroke="transparent" points="305.5,-657.7 305.5,-676.7 343.5,-676.7 343.5,-657.7 305.5,-657.7"/>
<polygon fill="none" stroke="#000000" points="305.5,-657.7 305.5,-676.7 343.5,-676.7 343.5,-657.7 305.5,-657.7"/>
<text text-anchor="start" x="308.3053" y="-663.8" font-family="Helvetica,sans-Serif" font-size="11.00" fill="#000000">0 rows</text>
<polygon fill="#ffffff" stroke="transparent" points="343.5,-657.7 343.5,-676.7 364.5,-676.7 364.5,-657.7 343.5,-657.7"/>
<polygon fill="none" stroke="#000000" points="343.5,-657.7 343.5,-676.7 364.5,-676.7 364.5,-657.7 343.5,-657.7"/>
<text text-anchor="start" x="346.2027" y="-663.8" font-family="Helvetica,sans-Serif" font-size="11.00" fill="#000000">1 &gt;</text>
</a>
</g>
</g>
<!-- mo_dr&#45;&gt;dependency_rule -->
<g id="edge4" class="edge">
<title>mo_dr:w&#45;&gt;dependency_rule:e</title>
<path fill="none" stroke="#000000" d="M273.7756,-685.4826C241.1508,-684.0431 226.2627,-675.0817 202,-647.7 162.9898,-603.675 220.3218,-521.7 161.5,-521.7"/>
<polygon fill="#000000" stroke="#000000" points="283.7813,-681.6846 283.6191,-689.683 282.0194,-689.6505 282.1816,-681.6522 283.7813,-681.6846"/>
<polyline fill="none" stroke="#000000" points="284.5,-685.7 280.5008,-685.6189 "/>
<ellipse fill="none" stroke="#000000" cx="277.3015" cy="-685.554" rx="3.2" ry="3.2"/>
</g>
<!-- mor_dr -->
<g id="node7" class="node">
<title>mor_dr</title>
<g id="a_node7"><a xlink:href="../../tables/mor_dr.html" xlink:title="mor_dr" target="_top">
<polygon fill="#ffffff" stroke="transparent" points="281.5,-576.2 281.5,-637.2 367.5,-637.2 367.5,-576.2 281.5,-576.2"/>
<polygon fill="#f5f5f5" stroke="transparent" points="281.5,-613.7 281.5,-636.7 367.5,-636.7 367.5,-613.7 281.5,-613.7"/>
<polygon fill="none" stroke="#000000" points="281.5,-613.7 281.5,-636.7 367.5,-636.7 367.5,-613.7 281.5,-613.7"/>
<text text-anchor="start" x="286.5" y="-622.3" font-family="Helvetica,sans-Serif" font-weight="bold" font-size="11.00" fill="#000000">mor_dr</text>
<text text-anchor="start" x="333.0219" y="-621.8" font-family="Helvetica,sans-Serif" font-size="11.00" fill="#000000">[table]</text>
<polygon fill="none" stroke="#000000" points="281.5,-594.7 281.5,-613.7 367.5,-613.7 367.5,-594.7 281.5,-594.7"/>
<text text-anchor="start" x="284.5" y="-600.8" font-family="Helvetica,sans-Serif" font-size="11.00" fill="#000000">...</text>
<polygon fill="#ffffff" stroke="transparent" points="281.5,-575.7 281.5,-594.7 305.5,-594.7 305.5,-575.7 281.5,-575.7"/>
<polygon fill="none" stroke="#000000" points="281.5,-575.7 281.5,-594.7 305.5,-594.7 305.5,-575.7 281.5,-575.7"/>
<text text-anchor="start" x="284.5" y="-581.8" font-family="Helvetica,sans-Serif" font-size="11.00" fill="#000000">&lt; 1</text>
<polygon fill="#ffffff" stroke="transparent" points="305.5,-575.7 305.5,-594.7 344.5,-594.7 344.5,-575.7 305.5,-575.7"/>
<polygon fill="none" stroke="#000000" points="305.5,-575.7 305.5,-594.7 344.5,-594.7 344.5,-575.7 305.5,-575.7"/>
<text text-anchor="start" x="309.1105" y="-581.8" font-family="Helvetica,sans-Serif" font-size="11.00" fill="#000000">0 rows</text>
<polygon fill="#ffffff" stroke="transparent" points="344.5,-575.7 344.5,-594.7 367.5,-594.7 367.5,-575.7 344.5,-575.7"/>
<polygon fill="none" stroke="#000000" points="344.5,-575.7 344.5,-594.7 367.5,-594.7 367.5,-575.7 344.5,-575.7"/>
<text text-anchor="start" x="348.9053" y="-581.8" font-family="Helvetica,sans-Serif" font-size="11.00" fill="#000000">1 &gt;</text>
</a>
</g>
</g>
<!-- mor_dr&#45;&gt;dependency_rule -->
<g id="edge5" class="edge">
<title>mor_dr:w&#45;&gt;dependency_rule:e</title>
<path fill="none" stroke="#000000" d="M270.8449,-603.2844C240.395,-600.742 230.4214,-586.6996 202,-565.7 180.6235,-549.9056 188.0786,-521.7 161.5,-521.7"/>
<polygon fill="#000000" stroke="#000000" points="280.8565,-599.6719 280.5447,-607.6658 278.9459,-607.6034 279.2578,-599.6095 280.8565,-599.6719"/>
<polyline fill="none" stroke="#000000" points="281.5,-603.7 277.503,-603.5441 "/>
<ellipse fill="none" stroke="#000000" cx="274.3055" cy="-603.4193" rx="3.2" ry="3.2"/>
</g>
<!-- point_dr -->
<g id="node8" class="node">
<title>point_dr</title>
<g id="a_node8"><a xlink:href="../../tables/point_dr.html" xlink:title="point_dr" target="_top">
<polygon fill="#ffffff" stroke="transparent" points="277.5,-494.2 277.5,-555.2 371.5,-555.2 371.5,-494.2 277.5,-494.2"/>
<polygon fill="#f5f5f5" stroke="transparent" points="277.5,-531.7 277.5,-554.7 371.5,-554.7 371.5,-531.7 277.5,-531.7"/>
<polygon fill="none" stroke="#000000" points="277.5,-531.7 277.5,-554.7 371.5,-554.7 371.5,-531.7 277.5,-531.7"/>
<text text-anchor="start" x="282.5" y="-540.3" font-family="Helvetica,sans-Serif" font-weight="bold" font-size="11.00" fill="#000000">point_dr</text>
<text text-anchor="start" x="337.0219" y="-539.8" font-family="Helvetica,sans-Serif" font-size="11.00" fill="#000000">[table]</text>
<polygon fill="none" stroke="#000000" points="277.5,-512.7 277.5,-531.7 371.5,-531.7 371.5,-512.7 277.5,-512.7"/>
<text text-anchor="start" x="280.5" y="-518.8" font-family="Helvetica,sans-Serif" font-size="11.00" fill="#000000">...</text>
<polygon fill="#ffffff" stroke="transparent" points="277.5,-493.7 277.5,-512.7 305.5,-512.7 305.5,-493.7 277.5,-493.7"/>
<polygon fill="none" stroke="#000000" points="277.5,-493.7 277.5,-512.7 305.5,-512.7 305.5,-493.7 277.5,-493.7"/>
<text text-anchor="start" x="280.5" y="-499.8" font-family="Helvetica,sans-Serif" font-size="11.00" fill="#000000">&lt; 1</text>
<polygon fill="#ffffff" stroke="transparent" points="305.5,-493.7 305.5,-512.7 346.5,-512.7 346.5,-493.7 305.5,-493.7"/>
<polygon fill="none" stroke="#000000" points="305.5,-493.7 305.5,-512.7 346.5,-512.7 346.5,-493.7 305.5,-493.7"/>
<text text-anchor="start" x="311.1105" y="-499.8" font-family="Helvetica,sans-Serif" font-size="11.00" fill="#000000">0 rows</text>
<polygon fill="#ffffff" stroke="transparent" points="346.5,-493.7 346.5,-512.7 371.5,-512.7 371.5,-493.7 346.5,-493.7"/>
<polygon fill="none" stroke="#000000" points="346.5,-493.7 346.5,-512.7 371.5,-512.7 371.5,-493.7 346.5,-493.7"/>
<text text-anchor="start" x="352.9053" y="-499.8" font-family="Helvetica,sans-Serif" font-size="11.00" fill="#000000">1 &gt;</text>
</a>
</g>
</g>
<!-- point_dr&#45;&gt;dependency_rule -->
<g id="edge6" class="edge">
<title>point_dr:w&#45;&gt;dependency_rule:e</title>
<path fill="none" stroke="#000000" d="M266.8995,-521.7C223.8797,-521.7 209.3299,-521.7 161.5,-521.7"/>
<polygon fill="#000000" stroke="#000000" points="276.7,-517.7 276.7,-525.7 275.1,-525.7 275.1,-517.7 276.7,-517.7"/>
<polyline fill="none" stroke="#000000" points="277.5,-521.7 273.5,-521.7 "/>
<ellipse fill="none" stroke="#000000" cx="270.3" cy="-521.7001" rx="3.2" ry="3.2"/>
</g>
<!-- predicate -->
<g id="node9" class="node">
<title>predicate</title>
<g id="a_node9"><a xlink:href="../../tables/predicate.html" xlink:title="predicate" target="_top">
<polygon fill="#ffffff" stroke="transparent" points="210,-146.7 210,-390.7 439,-390.7 439,-146.7 210,-146.7"/>
<polygon fill="#f5f5f5" stroke="transparent" points="212.5,-365.7 212.5,-388.7 437.5,-388.7 437.5,-365.7 212.5,-365.7"/>
<polygon fill="none" stroke="#000000" points="212.5,-365.7 212.5,-388.7 437.5,-388.7 437.5,-365.7 212.5,-365.7"/>
<text text-anchor="start" x="217.5" y="-374.3" font-family="Helvetica,sans-Serif" font-weight="bold" font-size="11.00" fill="#000000">predicate</text>
<text text-anchor="start" x="402.5437" y="-373.8" font-family="Helvetica,sans-Serif" font-size="11.00" fill="#000000">[table]</text>
<polygon fill="none" stroke="#000000" points="212.5,-343.7 212.5,-365.7 370.5,-365.7 370.5,-343.7 212.5,-343.7"/>
<image xlink:href="../../images/primaryKeys.png" width="11px" height="12px" preserveAspectRatio="xMinYMin meet" x="217.5" y="-360.7"/>
<text text-anchor="start" x="232.5" y="-350.8" font-family="Helvetica,sans-Serif" font-size="11.00" fill="#000000">predicate_id</text>
<polygon fill="none" stroke="#000000" points="370.5,-343.7 370.5,-365.7 437.5,-365.7 437.5,-343.7 370.5,-343.7"/>
<text text-anchor="start" x="373.5" y="-351.4" font-family="Helvetica,sans-Serif" font-size="11.00" fill="#000000">int4[10]</text>
<polygon fill="none" stroke="#000000" points="212.5,-321.7 212.5,-343.7 370.5,-343.7 370.5,-321.7 212.5,-321.7"/>
<text text-anchor="start" x="232.5" y="-328.8" font-family="Helvetica,sans-Serif" font-size="11.00" fill="#000000">description</text>
<polygon fill="none" stroke="#000000" points="370.5,-321.7 370.5,-343.7 437.5,-343.7 437.5,-321.7 370.5,-321.7"/>
<text text-anchor="start" x="373.5" y="-329.4" font-family="Helvetica,sans-Serif" font-size="11.00" fill="#000000">varchar[50]</text>
<polygon fill="none" stroke="#000000" points="212.5,-299.7 212.5,-321.7 370.5,-321.7 370.5,-299.7 212.5,-299.7"/>
<text text-anchor="start" x="232.5" y="-306.8" font-family="Helvetica,sans-Serif" font-size="11.00" fill="#000000">predicate_order</text>
<polygon fill="none" stroke="#000000" points="370.5,-299.7 370.5,-321.7 437.5,-321.7 437.5,-299.7 370.5,-299.7"/>
<text text-anchor="start" x="373.5" y="-307.4" font-family="Helvetica,sans-Serif" font-size="11.00" fill="#000000">int4[10]</text>
<polygon fill="none" stroke="#000000" points="212.5,-277.7 212.5,-299.7 370.5,-299.7 370.5,-277.7 212.5,-277.7"/>
<text text-anchor="start" x="232.5" y="-284.8" font-family="Helvetica,sans-Serif" font-size="11.00" fill="#000000">predicate_path</text>
<polygon fill="none" stroke="#000000" points="370.5,-277.7 370.5,-299.7 437.5,-299.7 437.5,-277.7 370.5,-277.7"/>
<text text-anchor="start" x="373.4365" y="-285.4" font-family="Helvetica,sans-Serif" font-size="11.00" fill="#000000">varchar[250]</text>
<polygon fill="none" stroke="#000000" points="212.5,-255.7 212.5,-277.7 370.5,-277.7 370.5,-255.7 212.5,-255.7"/>
<text text-anchor="start" x="232.5" y="-262.8" font-family="Helvetica,sans-Serif" font-size="11.00" fill="#000000">parenthesis_type</text>
<polygon fill="none" stroke="#000000" points="370.5,-255.7 370.5,-277.7 437.5,-277.7 437.5,-255.7 370.5,-255.7"/>
<text text-anchor="start" x="373.5" y="-263.4" font-family="Helvetica,sans-Serif" font-size="11.00" fill="#000000">int4[10]</text>
<polygon fill="none" stroke="#000000" points="212.5,-233.7 212.5,-255.7 370.5,-255.7 370.5,-233.7 212.5,-233.7"/>
<text text-anchor="start" x="232.5" y="-240.8" font-family="Helvetica,sans-Serif" font-size="11.00" fill="#000000">parenthesis_amount</text>
<polygon fill="none" stroke="#000000" points="370.5,-233.7 370.5,-255.7 437.5,-255.7 437.5,-233.7 370.5,-233.7"/>
<text text-anchor="start" x="373.5" y="-241.4" font-family="Helvetica,sans-Serif" font-size="11.00" fill="#000000">float8[17,17]</text>
<polygon fill="none" stroke="#000000" points="212.5,-211.7 212.5,-233.7 370.5,-233.7 370.5,-211.7 212.5,-211.7"/>
<text text-anchor="start" x="232.5" y="-218.8" font-family="Helvetica,sans-Serif" font-size="11.00" fill="#000000">logical_operator</text>
<polygon fill="none" stroke="#000000" points="370.5,-211.7 370.5,-233.7 437.5,-233.7 437.5,-211.7 370.5,-211.7"/>
<text text-anchor="start" x="373.5" y="-219.4" font-family="Helvetica,sans-Serif" font-size="11.00" fill="#000000">varchar[20]</text>
<polygon fill="#ffffff" stroke="transparent" points="212.5,-189.7 212.5,-211.7 370.5,-211.7 370.5,-189.7 212.5,-189.7"/>
<polygon fill="none" stroke="#000000" points="212.5,-189.7 212.5,-211.7 370.5,-211.7 370.5,-189.7 212.5,-189.7"/>
<image xlink:href="../../images/foreignKeys.png" width="11px" height="12px" preserveAspectRatio="xMinYMin meet" x="217.5" y="-206.7"/>
<text text-anchor="start" x="232.5" y="-196.8" font-family="Helvetica,sans-Serif" font-size="11.00" fill="#000000">determined</text>
<polygon fill="none" stroke="#000000" points="370.5,-189.7 370.5,-211.7 437.5,-211.7 437.5,-189.7 370.5,-189.7"/>
<text text-anchor="start" x="373.5" y="-197.4" font-family="Helvetica,sans-Serif" font-size="11.00" fill="#000000">int4[10]</text>
<polygon fill="#ffffff" stroke="transparent" points="212.5,-167.7 212.5,-189.7 370.5,-189.7 370.5,-167.7 212.5,-167.7"/>
<polygon fill="none" stroke="#000000" points="212.5,-167.7 212.5,-189.7 370.5,-189.7 370.5,-167.7 212.5,-167.7"/>
<image xlink:href="../../images/foreignKeys.png" width="11px" height="12px" preserveAspectRatio="xMinYMin meet" x="217.5" y="-184.7"/>
<text text-anchor="start" x="232.5" y="-174.8" font-family="Helvetica,sans-Serif" font-size="11.00" fill="#000000">determinant</text>
<polygon fill="none" stroke="#000000" points="370.5,-167.7 370.5,-189.7 437.5,-189.7 437.5,-167.7 370.5,-167.7"/>
<text text-anchor="start" x="373.5" y="-175.4" font-family="Helvetica,sans-Serif" font-size="11.00" fill="#000000">int4[10]</text>
<polygon fill="#ffffff" stroke="transparent" points="212.5,-148.7 212.5,-167.7 282.5,-167.7 282.5,-148.7 212.5,-148.7"/>
<polygon fill="none" stroke="#000000" points="212.5,-148.7 212.5,-167.7 282.5,-167.7 282.5,-148.7 212.5,-148.7"/>
<text text-anchor="start" x="215.5" y="-154.8" font-family="Helvetica,sans-Serif" font-size="11.00" fill="#000000">&lt; 2</text>
<polygon fill="#ffffff" stroke="transparent" points="282.5,-148.7 282.5,-167.7 370.5,-167.7 370.5,-148.7 282.5,-148.7"/>
<polygon fill="none" stroke="#000000" points="282.5,-148.7 282.5,-167.7 370.5,-167.7 370.5,-148.7 282.5,-148.7"/>
<text text-anchor="start" x="335.1105" y="-154.8" font-family="Helvetica,sans-Serif" font-size="11.00" fill="#000000">0 rows</text>
<polygon fill="#ffffff" stroke="transparent" points="370.5,-148.7 370.5,-167.7 437.5,-167.7 437.5,-148.7 370.5,-148.7"/>
<polygon fill="none" stroke="#000000" points="370.5,-148.7 370.5,-167.7 437.5,-167.7 437.5,-148.7 370.5,-148.7"/>
<text text-anchor="start" x="418.9053" y="-154.8" font-family="Helvetica,sans-Serif" font-size="11.00" fill="#000000">2 &gt;</text>
<polygon fill="none" stroke="#000000" stroke-width="2" points="211,-147.7 211,-389.7 438,-389.7 438,-147.7 211,-147.7"/>
</a>
</g>
</g>
<!-- predicate&#45;&gt;dependency_rule -->
<g id="edge7" class="edge">
<title>predicate:w&#45;&gt;dependency_rule:e</title>
<path fill="none" stroke="#000000" d="M198.7922,-183.5488C149.0503,-225.2386 233.1419,-521.7 161.5,-521.7"/>
<polygon fill="#000000" stroke="#000000" points="204.9579,-181.3678 213.7005,-182.0939 208.729,-180.0339 212.5,-178.7 212.5,-178.7 212.5,-178.7 208.729,-180.0339 211.2995,-175.3061 204.9579,-181.3678 204.9579,-181.3678"/>
<ellipse fill="none" stroke="#000000" cx="201.9411" cy="-182.435" rx="3.2" ry="3.2"/>
</g>
<!-- predicate&#45;&gt;dependency_rule -->
<g id="edge8" class="edge">
<title>predicate:w&#45;&gt;dependency_rule:e</title>
<path fill="none" stroke="#000000" d="M198.7323,-206.0037C153.5481,-247.7399 228.2263,-521.7 161.5,-521.7"/>
<polygon fill="#000000" stroke="#000000" points="205.0348,-203.5759 213.7941,-204.0594 208.7674,-202.1379 212.5,-200.7 212.5,-200.7 212.5,-200.7 208.7674,-202.1379 211.2059,-197.3406 205.0348,-203.5759 205.0348,-203.5759"/>
<ellipse fill="none" stroke="#000000" cx="202.0487" cy="-204.7262" rx="3.2" ry="3.2"/>
</g>
<!-- predicate_aspect -->
<g id="node10" class="node">
<title>predicate_aspect</title>
<g id="a_node10"><a xlink:href="../../tables/predicate_aspect.html" xlink:title="predicate_aspect" target="_top">
<polygon fill="#ffffff" stroke="transparent" points="506,-256.7 506,-342.7 660,-342.7 660,-256.7 506,-256.7"/>
<polygon fill="#f5f5f5" stroke="transparent" points="506,-319.7 506,-342.7 660,-342.7 660,-319.7 506,-319.7"/>
<polygon fill="none" stroke="#000000" points="506,-319.7 506,-342.7 660,-342.7 660,-319.7 506,-319.7"/>
<text text-anchor="start" x="511" y="-328.3" font-family="Helvetica,sans-Serif" font-weight="bold" font-size="11.00" fill="#000000">predicate_aspect</text>
<text text-anchor="start" x="625.5219" y="-327.8" font-family="Helvetica,sans-Serif" font-size="11.00" fill="#000000">[table]</text>
<polygon fill="none" stroke="#000000" points="506,-297.7 506,-319.7 660,-319.7 660,-297.7 506,-297.7"/>
<image xlink:href="../../images/primaryKeys.png" width="11px" height="12px" preserveAspectRatio="xMinYMin meet" x="511" y="-314.7"/>
<text text-anchor="start" x="535" y="-304.8" font-family="Helvetica,sans-Serif" font-size="11.00" fill="#000000">predicate_id</text>
<polygon fill="none" stroke="#000000" points="506,-275.7 506,-297.7 660,-297.7 660,-275.7 506,-275.7"/>
<image xlink:href="../../images/primaryKeys.png" width="11px" height="12px" preserveAspectRatio="xMinYMin meet" x="511" y="-292.7"/>
<text text-anchor="start" x="535" y="-282.8" font-family="Helvetica,sans-Serif" font-size="11.00" fill="#000000">aspect_id</text>
<polygon fill="#ffffff" stroke="transparent" points="506,-256.7 506,-275.7 568,-275.7 568,-256.7 506,-256.7"/>
<polygon fill="none" stroke="#000000" points="506,-256.7 506,-275.7 568,-275.7 568,-256.7 506,-256.7"/>
<text text-anchor="start" x="509" y="-262.8" font-family="Helvetica,sans-Serif" font-size="11.00" fill="#000000">&lt; 2</text>
<polygon fill="#ffffff" stroke="transparent" points="568,-256.7 568,-275.7 627,-275.7 627,-256.7 568,-256.7"/>
<polygon fill="none" stroke="#000000" points="568,-256.7 568,-275.7 627,-275.7 627,-256.7 568,-256.7"/>
<text text-anchor="start" x="591.6105" y="-262.8" font-family="Helvetica,sans-Serif" font-size="11.00" fill="#000000">0 rows</text>
<polygon fill="#ffffff" stroke="transparent" points="627,-256.7 627,-275.7 660,-275.7 660,-256.7 627,-256.7"/>
<polygon fill="none" stroke="#000000" points="627,-256.7 627,-275.7 660,-275.7 660,-256.7 627,-256.7"/>
<text text-anchor="start" x="650.8862" y="-262.8" font-family="Helvetica,sans-Serif" font-size="11.00" fill="#000000"> &#160;</text>
</a>
</g>
</g>
<!-- predicate_aspect&#45;&gt;aspect -->
<g id="edge9" class="edge">
<title>predicate_aspect:w&#45;&gt;aspect:e</title>
<path fill="none" stroke="#000000" d="M491.4782,-285.0276C442.8428,-272.124 489.1348,-187.5542 447,-136.7 423.0444,-107.7871 413.0477,-91.7 375.5,-91.7"/>
<polygon fill="#000000" stroke="#000000" points="498.0525,-285.7847 505.5881,-290.2764 502.0263,-286.2424 506,-286.7 506,-286.7 506,-286.7 502.0263,-286.2424 506.4119,-283.1236 498.0525,-285.7847 498.0525,-285.7847"/>
<ellipse fill="none" stroke="#000000" cx="494.8735" cy="-285.4186" rx="3.2" ry="3.2"/>
</g>
<!-- predicate_aspect&#45;&gt;predicate -->
<g id="edge10" class="edge">
<title>predicate_aspect:w&#45;&gt;predicate:e</title>
<path fill="none" stroke="#000000" d="M491.8367,-311.5775C469.8404,-321.648 468.5853,-354.7 437.5,-354.7"/>
<polygon fill="#000000" stroke="#000000" points="498.1602,-310.2928 506.7168,-312.2279 502.0801,-309.4964 506,-308.7 506,-308.7 506,-308.7 502.0801,-309.4964 505.2832,-305.1721 498.1602,-310.2928 498.1602,-310.2928"/>
<ellipse fill="none" stroke="#000000" cx="495.0242" cy="-310.93" rx="3.2" ry="3.2"/>
</g>
<!-- predicate_aspect_type -->
<g id="node11" class="node">
<title>predicate_aspect_type</title>
<g id="a_node11"><a xlink:href="../../tables/predicate_aspect_type.html" xlink:title="predicate_aspect_type" target="_top">
<polygon fill="#ffffff" stroke="transparent" points="488,-56.7 488,-142.7 678,-142.7 678,-56.7 488,-56.7"/>
<polygon fill="#f5f5f5" stroke="transparent" points="488,-119.7 488,-142.7 678,-142.7 678,-119.7 488,-119.7"/>
<polygon fill="none" stroke="#000000" points="488,-119.7 488,-142.7 678,-142.7 678,-119.7 488,-119.7"/>
<text text-anchor="start" x="493" y="-128.3" font-family="Helvetica,sans-Serif" font-weight="bold" font-size="11.00" fill="#000000">predicate_aspect_type</text>
<text text-anchor="start" x="643.5219" y="-127.8" font-family="Helvetica,sans-Serif" font-size="11.00" fill="#000000">[table]</text>
<polygon fill="none" stroke="#000000" points="488,-97.7 488,-119.7 678,-119.7 678,-97.7 488,-97.7"/>
<image xlink:href="../../images/primaryKeys.png" width="11px" height="12px" preserveAspectRatio="xMinYMin meet" x="493" y="-114.7"/>
<text text-anchor="start" x="517" y="-104.8" font-family="Helvetica,sans-Serif" font-size="11.00" fill="#000000">predicate_id</text>
<polygon fill="none" stroke="#000000" points="488,-75.7 488,-97.7 678,-97.7 678,-75.7 488,-75.7"/>
<image xlink:href="../../images/primaryKeys.png" width="11px" height="12px" preserveAspectRatio="xMinYMin meet" x="493" y="-92.7"/>
<text text-anchor="start" x="517" y="-82.8" font-family="Helvetica,sans-Serif" font-size="11.00" fill="#000000">aspect_type_id</text>
<polygon fill="#ffffff" stroke="transparent" points="488,-56.7 488,-75.7 568,-75.7 568,-56.7 488,-56.7"/>
<polygon fill="none" stroke="#000000" points="488,-56.7 488,-75.7 568,-75.7 568,-56.7 488,-56.7"/>
<text text-anchor="start" x="491" y="-62.8" font-family="Helvetica,sans-Serif" font-size="11.00" fill="#000000">&lt; 2</text>
<polygon fill="#ffffff" stroke="transparent" points="568,-56.7 568,-75.7 636,-75.7 636,-56.7 568,-56.7"/>
<polygon fill="none" stroke="#000000" points="568,-56.7 568,-75.7 636,-75.7 636,-56.7 568,-56.7"/>
<text text-anchor="start" x="600.6105" y="-62.8" font-family="Helvetica,sans-Serif" font-size="11.00" fill="#000000">0 rows</text>
<polygon fill="#ffffff" stroke="transparent" points="636,-56.7 636,-75.7 678,-75.7 678,-56.7 636,-56.7"/>
<polygon fill="none" stroke="#000000" points="636,-56.7 636,-75.7 678,-75.7 678,-56.7 636,-56.7"/>
<text text-anchor="start" x="668.8862" y="-62.8" font-family="Helvetica,sans-Serif" font-size="11.00" fill="#000000"> &#160;</text>
</a>
</g>
</g>
<!-- predicate_aspect_type&#45;&gt;aspect_type -->
<g id="edge11" class="edge">
<title>predicate_aspect_type:w&#45;&gt;aspect_type:e</title>
<path fill="none" stroke="#000000" d="M474.235,-82.1605C465.1033,-74.5306 463.2013,-59.4101 447,-53.7 344.3029,-17.5046 310.3132,-42.5182 202,-53.7 176.0319,-56.3808 170.6061,-65.7 144.5,-65.7"/>
<polygon fill="#000000" stroke="#000000" points="480.4025,-84.1944 486.8725,-90.1189 484.2012,-85.4472 488,-86.7 488,-86.7 488,-86.7 484.2012,-85.4472 489.1275,-83.2811 480.4025,-84.1944 480.4025,-84.1944"/>
<ellipse fill="none" stroke="#000000" cx="477.3635" cy="-83.1922" rx="3.2" ry="3.2"/>
</g>
<!-- predicate_aspect_type&#45;&gt;predicate -->
<g id="edge12" class="edge">
<title>predicate_aspect_type:w&#45;&gt;predicate:e</title>
<path fill="none" stroke="#000000" d="M473.6179,-110.4023C392.5766,-132.1369 543.6634,-354.7 437.5,-354.7"/>
<polygon fill="#000000" stroke="#000000" points="480.0555,-109.6404 488.4232,-112.275 484.0277,-109.1702 488,-108.7 488,-108.7 488,-108.7 484.0277,-109.1702 487.5768,-105.125 480.0555,-109.6404 480.0555,-109.6404"/>
<ellipse fill="none" stroke="#000000" cx="476.8776" cy="-110.0165" rx="3.2" ry="3.2"/>
</g>
</g>
</svg>
