<?xml version="1.0" encoding="UTF-8" standalone="no"?>
<!DOCTYPE svg PUBLIC "-//W3C//DTD SVG 1.1//EN"
 "http://www.w3.org/Graphics/SVG/1.1/DTD/svg11.dtd">
<!-- Generated by graphviz version 2.40.1 (20161225.0304)
 -->
<!-- Title: oneDegreeRelationshipsDiagram Pages: 1 -->
<svg width="449pt" height="303pt"
 viewBox="0.00 0.00 449.00 303.20" xmlns="http://www.w3.org/2000/svg" xmlns:xlink="http://www.w3.org/1999/xlink">
<g id="graph0" class="graph" transform="scale(1 1) rotate(0) translate(4 299.2)">
<title>oneDegreeRelationshipsDiagram</title>
<polygon fill="#ffffff" stroke="transparent" points="-4,4 -4,-299.2 445,-299.2 445,4 -4,4"/>
<text text-anchor="middle" x="72.4936" y="-7.3" font-family="Helvetica,sans-Serif" font-size="11.00" fill="#000000">Generated by SchemaSpy</text>
<!-- predicate_aspect_type -->
<g id="node1" class="node">
<title>predicate_aspect_type</title>
<g id="a_node1"><a xlink:href="../../tables/predicate_aspect_type.html" xlink:title="predicate_aspect_type" target="_top">
<polygon fill="#ffffff" stroke="transparent" points="215,-139.7 215,-229.7 433,-229.7 433,-139.7 215,-139.7"/>
<polygon fill="#f5f5f5" stroke="transparent" points="217,-204.7 217,-227.7 431,-227.7 431,-204.7 217,-204.7"/>
<polygon fill="none" stroke="#000000" points="217,-204.7 217,-227.7 431,-227.7 431,-204.7 217,-204.7"/>
<text text-anchor="start" x="222" y="-213.3" font-family="Helvetica,sans-Serif" font-weight="bold" font-size="11.00" fill="#000000">predicate_aspect_type</text>
<text text-anchor="start" x="396.0437" y="-212.8" font-family="Helvetica,sans-Serif" font-size="11.00" fill="#000000">[table]</text>
<polygon fill="none" stroke="#000000" points="217,-182.7 217,-204.7 389,-204.7 389,-182.7 217,-182.7"/>
<image xlink:href="../../images/primaryKeys.png" width="11px" height="12px" preserveAspectRatio="xMinYMin meet" x="222" y="-199.7"/>
<text text-anchor="start" x="237" y="-189.8" font-family="Helvetica,sans-Serif" font-size="11.00" fill="#000000">predicate_id</text>
<polygon fill="none" stroke="#000000" points="389,-182.7 389,-204.7 431,-204.7 431,-182.7 389,-182.7"/>
<text text-anchor="start" x="391.9644" y="-190.4" font-family="Helvetica,sans-Serif" font-size="11.00" fill="#000000">int4[10]</text>
<polygon fill="none" stroke="#000000" points="217,-160.7 217,-182.7 389,-182.7 389,-160.7 217,-160.7"/>
<image xlink:href="../../images/primaryKeys.png" width="11px" height="12px" preserveAspectRatio="xMinYMin meet" x="222" y="-177.7"/>
<text text-anchor="start" x="237" y="-167.8" font-family="Helvetica,sans-Serif" font-size="11.00" fill="#000000">aspect_type_id</text>
<polygon fill="none" stroke="#000000" points="389,-160.7 389,-182.7 431,-182.7 431,-160.7 389,-160.7"/>
<text text-anchor="start" x="391.9644" y="-168.4" font-family="Helvetica,sans-Serif" font-size="11.00" fill="#000000">int4[10]</text>
<polygon fill="#ffffff" stroke="transparent" points="217,-141.7 217,-160.7 294,-160.7 294,-141.7 217,-141.7"/>
<polygon fill="none" stroke="#000000" points="217,-141.7 217,-160.7 294,-160.7 294,-141.7 217,-141.7"/>
<text text-anchor="start" x="220" y="-147.8" font-family="Helvetica,sans-Serif" font-size="11.00" fill="#000000">&lt; 2</text>
<polygon fill="#ffffff" stroke="transparent" points="294,-141.7 294,-160.7 389,-160.7 389,-141.7 294,-141.7"/>
<polygon fill="none" stroke="#000000" points="294,-141.7 294,-160.7 389,-160.7 389,-141.7 294,-141.7"/>
<text text-anchor="start" x="353.6105" y="-147.8" font-family="Helvetica,sans-Serif" font-size="11.00" fill="#000000">0 rows</text>
<polygon fill="#ffffff" stroke="transparent" points="389,-141.7 389,-160.7 431,-160.7 431,-141.7 389,-141.7"/>
<polygon fill="none" stroke="#000000" points="389,-141.7 389,-160.7 431,-160.7 431,-141.7 389,-141.7"/>
<text text-anchor="start" x="412.4053" y="-147.8" font-family="Helvetica,sans-Serif" font-size="11.00" fill="#000000">0 &gt;</text>
<polygon fill="none" stroke="#000000" stroke-width="2" points="216,-140.7 216,-228.7 432,-228.7 432,-140.7 216,-140.7"/>
</a>
</g>
</g>
<!-- aspect_type -->
<g id="node2" class="node">
<title>aspect_type</title>
<g id="a_node2"><a xlink:href="../../tables/aspect_type.html" xlink:title="aspect_type" target="_top">
<polygon fill="#ffffff" stroke="transparent" points="27,-38.2 27,-143.2 147,-143.2 147,-38.2 27,-38.2"/>
<polygon fill="#f5f5f5" stroke="transparent" points="27,-119.7 27,-142.7 147,-142.7 147,-119.7 27,-119.7"/>
<polygon fill="none" stroke="#000000" points="27,-119.7 27,-142.7 147,-142.7 147,-119.7 27,-119.7"/>
<text text-anchor="start" x="32" y="-128.3" font-family="Helvetica,sans-Serif" font-weight="bold" font-size="11.00" fill="#000000">aspect_type</text>
<text text-anchor="start" x="112.5219" y="-127.8" font-family="Helvetica,sans-Serif" font-size="11.00" fill="#000000">[table]</text>
<polygon fill="none" stroke="#000000" points="27,-97.7 27,-119.7 147,-119.7 147,-97.7 27,-97.7"/>
<image xlink:href="../../images/primaryKeys.png" width="11px" height="12px" preserveAspectRatio="xMinYMin meet" x="32" y="-114.7"/>
<text text-anchor="start" x="47" y="-104.8" font-family="Helvetica,sans-Serif" font-size="11.00" fill="#000000">aspect_type_id</text>
<polygon fill="#ffffff" stroke="transparent" points="27,-75.7 27,-97.7 147,-97.7 147,-75.7 27,-75.7"/>
<polygon fill="none" stroke="#000000" points="27,-75.7 27,-97.7 147,-97.7 147,-75.7 27,-75.7"/>
<image xlink:href="../../images/foreignKeys.png" width="11px" height="12px" preserveAspectRatio="xMinYMin meet" x="32" y="-92.7"/>
<text text-anchor="start" x="47" y="-82.8" font-family="Helvetica,sans-Serif" font-size="11.00" fill="#000000">super_type_id</text>
<polygon fill="none" stroke="#000000" points="27,-56.7 27,-75.7 147,-75.7 147,-56.7 27,-56.7"/>
<text text-anchor="start" x="30" y="-62.8" font-family="Helvetica,sans-Serif" font-size="11.00" fill="#000000">...</text>
<polygon fill="#ffffff" stroke="transparent" points="27,-37.7 27,-56.7 68,-56.7 68,-37.7 27,-37.7"/>
<polygon fill="none" stroke="#000000" points="27,-37.7 27,-56.7 68,-56.7 68,-37.7 27,-37.7"/>
<text text-anchor="start" x="30" y="-43.8" font-family="Helvetica,sans-Serif" font-size="11.00" fill="#000000">&lt; 1</text>
<polygon fill="#ffffff" stroke="transparent" points="68,-37.7 68,-56.7 116,-56.7 116,-37.7 68,-37.7"/>
<polygon fill="none" stroke="#000000" points="68,-37.7 68,-56.7 116,-56.7 116,-37.7 68,-37.7"/>
<text text-anchor="start" x="80.6105" y="-43.8" font-family="Helvetica,sans-Serif" font-size="11.00" fill="#000000">4 rows</text>
<polygon fill="#ffffff" stroke="transparent" points="116,-37.7 116,-56.7 147,-56.7 147,-37.7 116,-37.7"/>
<polygon fill="none" stroke="#000000" points="116,-37.7 116,-56.7 147,-56.7 147,-37.7 116,-37.7"/>
<text text-anchor="start" x="128.4053" y="-43.8" font-family="Helvetica,sans-Serif" font-size="11.00" fill="#000000">4 &gt;</text>
</a>
</g>
</g>
<!-- predicate_aspect_type&#45;&gt;aspect_type -->
<g id="edge1" class="edge">
<title>predicate_aspect_type:w&#45;&gt;aspect_type:e</title>
<path fill="none" stroke="#000000" d="M202.6646,-168.4892C177.8548,-155.651 183.1333,-108.7 147,-108.7"/>
<polygon fill="#000000" stroke="#000000" points="209.1934,-169.9515 216.2132,-175.213 213.0967,-170.8257 217,-171.7 217,-171.7 217,-171.7 213.0967,-170.8257 217.7868,-168.187 209.1934,-169.9515 209.1934,-169.9515"/>
<ellipse fill="none" stroke="#000000" cx="206.0708" cy="-169.2521" rx="3.2" ry="3.2"/>
</g>
<!-- predicate -->
<g id="node3" class="node">
<title>predicate</title>
<g id="a_node3"><a xlink:href="../../tables/predicate.html" xlink:title="predicate" target="_top">
<polygon fill="#ffffff" stroke="transparent" points="8,-164.2 8,-291.2 166,-291.2 166,-164.2 8,-164.2"/>
<polygon fill="#f5f5f5" stroke="transparent" points="8,-267.7 8,-290.7 166,-290.7 166,-267.7 8,-267.7"/>
<polygon fill="none" stroke="#000000" points="8,-267.7 8,-290.7 166,-290.7 166,-267.7 8,-267.7"/>
<text text-anchor="start" x="13" y="-276.3" font-family="Helvetica,sans-Serif" font-weight="bold" font-size="11.00" fill="#000000">predicate</text>
<text text-anchor="start" x="131.0437" y="-275.8" font-family="Helvetica,sans-Serif" font-size="11.00" fill="#000000">[table]</text>
<polygon fill="none" stroke="#000000" points="8,-245.7 8,-267.7 166,-267.7 166,-245.7 8,-245.7"/>
<image xlink:href="../../images/primaryKeys.png" width="11px" height="12px" preserveAspectRatio="xMinYMin meet" x="13" y="-262.7"/>
<text text-anchor="start" x="28" y="-252.8" font-family="Helvetica,sans-Serif" font-size="11.00" fill="#000000">predicate_id</text>
<polygon fill="#ffffff" stroke="transparent" points="8,-223.7 8,-245.7 166,-245.7 166,-223.7 8,-223.7"/>
<polygon fill="none" stroke="#000000" points="8,-223.7 8,-245.7 166,-245.7 166,-223.7 8,-223.7"/>
<image xlink:href="../../images/foreignKeys.png" width="11px" height="12px" preserveAspectRatio="xMinYMin meet" x="13" y="-240.7"/>
<text text-anchor="start" x="28" y="-230.8" font-family="Helvetica,sans-Serif" font-size="11.00" fill="#000000">determined</text>
<polygon fill="#ffffff" stroke="transparent" points="8,-201.7 8,-223.7 166,-223.7 166,-201.7 8,-201.7"/>
<polygon fill="none" stroke="#000000" points="8,-201.7 8,-223.7 166,-223.7 166,-201.7 8,-201.7"/>
<image xlink:href="../../images/foreignKeys.png" width="11px" height="12px" preserveAspectRatio="xMinYMin meet" x="13" y="-218.7"/>
<text text-anchor="start" x="28" y="-208.8" font-family="Helvetica,sans-Serif" font-size="11.00" fill="#000000">determinant</text>
<polygon fill="none" stroke="#000000" points="8,-182.7 8,-201.7 166,-201.7 166,-182.7 8,-182.7"/>
<text text-anchor="start" x="11" y="-188.8" font-family="Helvetica,sans-Serif" font-size="11.00" fill="#000000">...</text>
<polygon fill="#ffffff" stroke="transparent" points="8,-163.7 8,-182.7 68,-182.7 68,-163.7 8,-163.7"/>
<polygon fill="none" stroke="#000000" points="8,-163.7 8,-182.7 68,-182.7 68,-163.7 8,-163.7"/>
<text text-anchor="start" x="11" y="-169.8" font-family="Helvetica,sans-Serif" font-size="11.00" fill="#000000">&lt; 2</text>
<polygon fill="#ffffff" stroke="transparent" points="68,-163.7 68,-182.7 125,-182.7 125,-163.7 68,-163.7"/>
<polygon fill="none" stroke="#000000" points="68,-163.7 68,-182.7 125,-182.7 125,-163.7 68,-163.7"/>
<text text-anchor="start" x="89.6105" y="-169.8" font-family="Helvetica,sans-Serif" font-size="11.00" fill="#000000">0 rows</text>
<polygon fill="#ffffff" stroke="transparent" points="125,-163.7 125,-182.7 166,-182.7 166,-163.7 125,-163.7"/>
<polygon fill="none" stroke="#000000" points="125,-163.7 125,-182.7 166,-182.7 166,-163.7 125,-163.7"/>
<text text-anchor="start" x="147.4053" y="-169.8" font-family="Helvetica,sans-Serif" font-size="11.00" fill="#000000">2 &gt;</text>
</a>
</g>
</g>
<!-- predicate_aspect_type&#45;&gt;predicate -->
<g id="edge2" class="edge">
<title>predicate_aspect_type:w&#45;&gt;predicate:e</title>
<path fill="none" stroke="#000000" d="M202.9033,-198.6435C186.525,-213.4952 195.8329,-256.7 166,-256.7"/>
<polygon fill="#000000" stroke="#000000" points="209.4507,-196.3474 218.1913,-197.0972 213.2254,-195.0237 217,-193.7 217,-193.7 217,-193.7 213.2254,-195.0237 215.8087,-190.3028 209.4507,-196.3474 209.4507,-196.3474"/>
<ellipse fill="none" stroke="#000000" cx="206.431" cy="-197.4064" rx="3.2" ry="3.2"/>
</g>
</g>
</svg>
