<?xml version="1.0" encoding="UTF-8" standalone="no"?>
<!DOCTYPE svg PUBLIC "-//W3C//DTD SVG 1.1//EN"
 "http://www.w3.org/Graphics/SVG/1.1/DTD/svg11.dtd">
<!-- Generated by graphviz version 2.40.1 (20161225.0304)
 -->
<!-- Title: twoDegreesRelationshipsDiagram Pages: 1 -->
<svg width="713pt" height="310pt"
 viewBox="0.00 0.00 713.00 309.70" xmlns="http://www.w3.org/2000/svg" xmlns:xlink="http://www.w3.org/1999/xlink">
<g id="graph0" class="graph" transform="scale(1 1) rotate(0) translate(4 305.7)">
<title>twoDegreesRelationshipsDiagram</title>
<polygon fill="#ffffff" stroke="transparent" points="-4,4 -4,-305.7 709,-305.7 709,4 -4,4"/>
<text text-anchor="middle" x="72.4936" y="-7.3" font-family="Helvetica,sans-Serif" font-size="11.00" fill="#000000">Generated by SchemaSpy</text>
<!-- point -->
<g id="node1" class="node">
<title>point</title>
<g id="a_node1"><a xlink:href="../../tables/point.html" xlink:title="point" target="_top">
<polygon fill="#ffffff" stroke="transparent" points="171,-125.7 171,-186.7 294,-186.7 294,-125.7 171,-125.7"/>
<polygon fill="#f5f5f5" stroke="transparent" points="171.5,-163.2 171.5,-186.2 294.5,-186.2 294.5,-163.2 171.5,-163.2"/>
<polygon fill="none" stroke="#000000" points="171.5,-163.2 171.5,-186.2 294.5,-186.2 294.5,-163.2 171.5,-163.2"/>
<text text-anchor="start" x="176.5" y="-171.8" font-family="Helvetica,sans-Serif" font-weight="bold" font-size="11.00" fill="#000000">point</text>
<text text-anchor="start" x="259.5437" y="-171.3" font-family="Helvetica,sans-Serif" font-size="11.00" fill="#000000">[table]</text>
<polygon fill="none" stroke="#000000" points="171.5,-144.2 171.5,-163.2 294.5,-163.2 294.5,-144.2 171.5,-144.2"/>
<text text-anchor="start" x="174.5" y="-150.3" font-family="Helvetica,sans-Serif" font-size="11.00" fill="#000000">...</text>
<polygon fill="#ffffff" stroke="transparent" points="171.5,-125.2 171.5,-144.2 192.5,-144.2 192.5,-125.2 171.5,-125.2"/>
<polygon fill="none" stroke="#000000" points="171.5,-125.2 171.5,-144.2 192.5,-144.2 192.5,-125.2 171.5,-125.2"/>
<text text-anchor="start" x="174.2027" y="-131.3" font-family="Helvetica,sans-Serif" font-size="11.00" fill="#000000">&lt; 1</text>
<polygon fill="#ffffff" stroke="transparent" points="192.5,-125.2 192.5,-144.2 273.5,-144.2 273.5,-125.2 192.5,-125.2"/>
<polygon fill="none" stroke="#000000" points="192.5,-125.2 192.5,-144.2 273.5,-144.2 273.5,-125.2 192.5,-125.2"/>
<text text-anchor="start" x="195.4037" y="-131.3" font-family="Helvetica,sans-Serif" font-size="11.00" fill="#000000">1.039.258 rows</text>
<polygon fill="#ffffff" stroke="transparent" points="273.5,-125.2 273.5,-144.2 294.5,-144.2 294.5,-125.2 273.5,-125.2"/>
<polygon fill="none" stroke="#000000" points="273.5,-125.2 273.5,-144.2 294.5,-144.2 294.5,-125.2 273.5,-125.2"/>
<text text-anchor="start" x="276.2027" y="-131.3" font-family="Helvetica,sans-Serif" font-size="11.00" fill="#000000">4 &gt;</text>
</a>
</g>
</g>
<!-- mat -->
<g id="node2" class="node">
<title>mat</title>
<g id="a_node2"><a xlink:href="../../tables/mat.html" xlink:title="mat" target="_top">
<polygon fill="#ffffff" stroke="transparent" points="8,-128.7 8,-189.7 122,-189.7 122,-128.7 8,-128.7"/>
<polygon fill="#f5f5f5" stroke="transparent" points="8,-166.2 8,-189.2 122,-189.2 122,-166.2 8,-166.2"/>
<polygon fill="none" stroke="#000000" points="8,-166.2 8,-189.2 122,-189.2 122,-166.2 8,-166.2"/>
<text text-anchor="start" x="13" y="-174.8" font-family="Helvetica,sans-Serif" font-weight="bold" font-size="11.00" fill="#000000">mat</text>
<text text-anchor="start" x="87.0437" y="-174.3" font-family="Helvetica,sans-Serif" font-size="11.00" fill="#000000">[table]</text>
<polygon fill="none" stroke="#000000" points="8,-147.2 8,-166.2 122,-166.2 122,-147.2 8,-147.2"/>
<text text-anchor="start" x="11" y="-153.3" font-family="Helvetica,sans-Serif" font-size="11.00" fill="#000000">...</text>
<polygon fill="#ffffff" stroke="transparent" points="8,-128.2 8,-147.2 29,-147.2 29,-128.2 8,-128.2"/>
<polygon fill="none" stroke="#000000" points="8,-128.2 8,-147.2 29,-147.2 29,-128.2 8,-128.2"/>
<text text-anchor="start" x="10.7027" y="-134.3" font-family="Helvetica,sans-Serif" font-size="11.00" fill="#000000">&lt; 1</text>
<polygon fill="#ffffff" stroke="transparent" points="29,-128.2 29,-147.2 101,-147.2 101,-128.2 29,-128.2"/>
<polygon fill="none" stroke="#000000" points="29,-128.2 29,-147.2 101,-147.2 101,-128.2 29,-128.2"/>
<text text-anchor="start" x="31.9896" y="-134.3" font-family="Helvetica,sans-Serif" font-size="11.00" fill="#000000">292.481 rows</text>
<polygon fill="#ffffff" stroke="transparent" points="101,-128.2 101,-147.2 122,-147.2 122,-128.2 101,-128.2"/>
<polygon fill="none" stroke="#000000" points="101,-128.2 101,-147.2 122,-147.2 122,-128.2 101,-128.2"/>
<text text-anchor="start" x="103.7027" y="-134.3" font-family="Helvetica,sans-Serif" font-size="11.00" fill="#000000">3 &gt;</text>
</a>
</g>
</g>
<!-- point&#45;&gt;mat -->
<g id="edge1" class="edge">
<title>point:w&#45;&gt;mat:e</title>
<path fill="none" stroke="#000000" d="M148.4819,-156.2C139.5417,-156.2 130.5834,-156.2 122,-156.2"/>
<polygon fill="#000000" stroke="#000000" points="154.9443,-156.2001 162.9444,-159.8 158.9443,-156.2 162.9443,-156.2 162.9443,-156.2 162.9443,-156.2 158.9443,-156.2 162.9443,-152.6 154.9443,-156.2001 154.9443,-156.2001"/>
<ellipse fill="none" stroke="#000000" cx="151.7443" cy="-156.2001" rx="3.2" ry="3.2"/>
</g>
<!-- point_aspect -->
<g id="node3" class="node">
<title>point_aspect</title>
<g id="a_node3"><a xlink:href="../../tables/point_aspect.html" xlink:title="point_aspect" target="_top">
<polygon fill="#ffffff" stroke="transparent" points="358,-236.7 358,-297.7 483,-297.7 483,-236.7 358,-236.7"/>
<polygon fill="#f5f5f5" stroke="transparent" points="358.5,-274.2 358.5,-297.2 483.5,-297.2 483.5,-274.2 358.5,-274.2"/>
<polygon fill="none" stroke="#000000" points="358.5,-274.2 358.5,-297.2 483.5,-297.2 483.5,-274.2 358.5,-274.2"/>
<text text-anchor="start" x="363.5" y="-282.8" font-family="Helvetica,sans-Serif" font-weight="bold" font-size="11.00" fill="#000000">point_aspect</text>
<text text-anchor="start" x="449.0219" y="-282.3" font-family="Helvetica,sans-Serif" font-size="11.00" fill="#000000">[table]</text>
<polygon fill="none" stroke="#000000" points="358.5,-255.2 358.5,-274.2 483.5,-274.2 483.5,-255.2 358.5,-255.2"/>
<text text-anchor="start" x="361.5" y="-261.3" font-family="Helvetica,sans-Serif" font-size="11.00" fill="#000000">...</text>
<polygon fill="#ffffff" stroke="transparent" points="358.5,-236.2 358.5,-255.2 384.5,-255.2 384.5,-236.2 358.5,-236.2"/>
<polygon fill="none" stroke="#000000" points="358.5,-236.2 358.5,-255.2 384.5,-255.2 384.5,-236.2 358.5,-236.2"/>
<text text-anchor="start" x="361.5" y="-242.3" font-family="Helvetica,sans-Serif" font-size="11.00" fill="#000000">&lt; 2</text>
<polygon fill="#ffffff" stroke="transparent" points="384.5,-236.2 384.5,-255.2 468.5,-255.2 468.5,-236.2 384.5,-236.2"/>
<polygon fill="none" stroke="#000000" points="384.5,-236.2 384.5,-255.2 468.5,-255.2 468.5,-236.2 384.5,-236.2"/>
<text text-anchor="start" x="390.3073" y="-242.3" font-family="Helvetica,sans-Serif" font-size="11.00" fill="#000000">1.039.258 rows</text>
<polygon fill="#ffffff" stroke="transparent" points="468.5,-236.2 468.5,-255.2 483.5,-255.2 483.5,-236.2 468.5,-236.2"/>
<polygon fill="none" stroke="#000000" points="468.5,-236.2 468.5,-255.2 483.5,-255.2 483.5,-236.2 468.5,-236.2"/>
<text text-anchor="start" x="474.3862" y="-242.3" font-family="Helvetica,sans-Serif" font-size="11.00" fill="#000000"> &#160;</text>
</a>
</g>
</g>
<!-- point_aspect&#45;&gt;point -->
<g id="edge2" class="edge">
<title>point_aspect:w&#45;&gt;point:e</title>
<path fill="none" stroke="#000000" d="M344.0336,-262.8219C304.8121,-255.3657 272.8324,-219.1467 253.3301,-190.9664"/>
<polygon fill="#000000" stroke="#000000" points="350.5361,-263.4413 358.1586,-267.7838 354.518,-263.8206 358.5,-264.2 358.5,-264.2 358.5,-264.2 354.518,-263.8206 358.8414,-260.6162 350.5361,-263.4413 350.5361,-263.4413"/>
<ellipse fill="none" stroke="#000000" cx="347.3505" cy="-263.1378" rx="3.2" ry="3.2"/>
</g>
<!-- point_point_dr -->
<g id="node4" class="node">
<title>point_point_dr</title>
<g id="a_node4"><a xlink:href="../../tables/point_point_dr.html" xlink:title="point_point_dr" target="_top">
<polygon fill="#ffffff" stroke="transparent" points="353,-154.7 353,-215.7 488,-215.7 488,-154.7 353,-154.7"/>
<polygon fill="#f5f5f5" stroke="transparent" points="353.5,-192.2 353.5,-215.2 488.5,-215.2 488.5,-192.2 353.5,-192.2"/>
<polygon fill="none" stroke="#000000" points="353.5,-192.2 353.5,-215.2 488.5,-215.2 488.5,-192.2 353.5,-192.2"/>
<text text-anchor="start" x="358.5" y="-200.8" font-family="Helvetica,sans-Serif" font-weight="bold" font-size="11.00" fill="#000000">point_point_dr</text>
<text text-anchor="start" x="454.0219" y="-200.3" font-family="Helvetica,sans-Serif" font-size="11.00" fill="#000000">[table]</text>
<polygon fill="none" stroke="#000000" points="353.5,-173.2 353.5,-192.2 488.5,-192.2 488.5,-173.2 353.5,-173.2"/>
<text text-anchor="start" x="356.5" y="-179.3" font-family="Helvetica,sans-Serif" font-size="11.00" fill="#000000">...</text>
<polygon fill="#ffffff" stroke="transparent" points="353.5,-154.2 353.5,-173.2 406.5,-173.2 406.5,-154.2 353.5,-154.2"/>
<polygon fill="none" stroke="#000000" points="353.5,-154.2 353.5,-173.2 406.5,-173.2 406.5,-154.2 353.5,-154.2"/>
<text text-anchor="start" x="356.5" y="-160.3" font-family="Helvetica,sans-Serif" font-size="11.00" fill="#000000">&lt; 2</text>
<polygon fill="#ffffff" stroke="transparent" points="406.5,-154.2 406.5,-173.2 460.5,-173.2 460.5,-154.2 406.5,-154.2"/>
<polygon fill="none" stroke="#000000" points="406.5,-154.2 406.5,-173.2 460.5,-173.2 460.5,-154.2 406.5,-154.2"/>
<text text-anchor="start" x="425.1105" y="-160.3" font-family="Helvetica,sans-Serif" font-size="11.00" fill="#000000">0 rows</text>
<polygon fill="#ffffff" stroke="transparent" points="460.5,-154.2 460.5,-173.2 488.5,-173.2 488.5,-154.2 460.5,-154.2"/>
<polygon fill="none" stroke="#000000" points="460.5,-154.2 460.5,-173.2 488.5,-173.2 488.5,-154.2 460.5,-154.2"/>
<text text-anchor="start" x="479.3862" y="-160.3" font-family="Helvetica,sans-Serif" font-size="11.00" fill="#000000"> &#160;</text>
</a>
</g>
</g>
<!-- point_point_dr&#45;&gt;point -->
<g id="edge3" class="edge">
<title>point_point_dr:w&#45;&gt;point:e</title>
<path fill="none" stroke="#000000" d="M339.0728,-181.6532C326.6581,-180.75 314.0322,-178.8018 302.0192,-176.3651"/>
<polygon fill="#000000" stroke="#000000" points="345.5057,-181.897 353.3636,-185.7974 349.5029,-182.0485 353.5,-182.2 353.5,-182.2 353.5,-182.2 349.5029,-182.0485 353.6364,-178.6026 345.5057,-181.897 345.5057,-181.897"/>
<ellipse fill="none" stroke="#000000" cx="342.308" cy="-181.7757" rx="3.2" ry="3.2"/>
</g>
<!-- point_repr_point -->
<g id="node5" class="node">
<title>point_repr_point</title>
<g id="a_node5"><a xlink:href="../../tables/point_repr_point.html" xlink:title="point_repr_point" target="_top">
<polygon fill="#ffffff" stroke="transparent" points="547,-69.7 547,-130.7 697,-130.7 697,-69.7 547,-69.7"/>
<polygon fill="#f5f5f5" stroke="transparent" points="547,-107.2 547,-130.2 697,-130.2 697,-107.2 547,-107.2"/>
<polygon fill="none" stroke="#000000" points="547,-107.2 547,-130.2 697,-130.2 697,-107.2 547,-107.2"/>
<text text-anchor="start" x="552" y="-115.8" font-family="Helvetica,sans-Serif" font-weight="bold" font-size="11.00" fill="#000000">point_repr_point</text>
<text text-anchor="start" x="662.5219" y="-115.3" font-family="Helvetica,sans-Serif" font-size="11.00" fill="#000000">[table]</text>
<polygon fill="none" stroke="#000000" points="547,-88.2 547,-107.2 697,-107.2 697,-88.2 547,-88.2"/>
<text text-anchor="start" x="550" y="-94.3" font-family="Helvetica,sans-Serif" font-size="11.00" fill="#000000">...</text>
<polygon fill="#ffffff" stroke="transparent" points="547,-69.2 547,-88.2 607,-88.2 607,-69.2 547,-69.2"/>
<polygon fill="none" stroke="#000000" points="547,-69.2 547,-88.2 607,-88.2 607,-69.2 547,-69.2"/>
<text text-anchor="start" x="550" y="-75.3" font-family="Helvetica,sans-Serif" font-size="11.00" fill="#000000">&lt; 2</text>
<polygon fill="#ffffff" stroke="transparent" points="607,-69.2 607,-88.2 665,-88.2 665,-69.2 607,-69.2"/>
<polygon fill="none" stroke="#000000" points="607,-69.2 607,-88.2 665,-88.2 665,-69.2 607,-69.2"/>
<text text-anchor="start" x="629.6105" y="-75.3" font-family="Helvetica,sans-Serif" font-size="11.00" fill="#000000">0 rows</text>
<polygon fill="#ffffff" stroke="transparent" points="665,-69.2 665,-88.2 697,-88.2 697,-69.2 665,-69.2"/>
<polygon fill="none" stroke="#000000" points="665,-69.2 665,-88.2 697,-88.2 697,-69.2 665,-69.2"/>
<text text-anchor="start" x="687.8862" y="-75.3" font-family="Helvetica,sans-Serif" font-size="11.00" fill="#000000"> &#160;</text>
</a>
</g>
</g>
<!-- point_repr_point&#45;&gt;point -->
<g id="edge4" class="edge">
<title>point_repr_point:w&#45;&gt;point:e</title>
<path fill="none" stroke="#000000" d="M524.6776,-114.4909C518.3573,-115.4103 512.089,-116.3197 506,-117.2 436.6946,-127.2197 357.4831,-138.4957 302.2066,-146.336"/>
<polygon fill="#000000" stroke="#000000" points="531.0812,-113.5577 539.5168,-115.9664 535.0394,-112.9808 538.9976,-112.404 538.9976,-112.404 538.9976,-112.404 535.0394,-112.9808 538.4784,-108.8416 531.0812,-113.5577 531.0812,-113.5577"/>
<ellipse fill="none" stroke="#000000" cx="527.9147" cy="-114.0192" rx="3.2" ry="3.2"/>
</g>
<!-- repr_point -->
<g id="node6" class="node">
<title>repr_point</title>
<g id="a_node6"><a xlink:href="../../tables/repr_point.html" xlink:title="repr_point" target="_top">
<polygon fill="#ffffff" stroke="transparent" points="343,-38.2 343,-106.2 498,-106.2 498,-38.2 343,-38.2"/>
<polygon fill="#f5f5f5" stroke="transparent" points="345.5,-81.2 345.5,-104.2 496.5,-104.2 496.5,-81.2 345.5,-81.2"/>
<polygon fill="none" stroke="#000000" points="345.5,-81.2 345.5,-104.2 496.5,-104.2 496.5,-81.2 345.5,-81.2"/>
<text text-anchor="start" x="350.5" y="-89.8" font-family="Helvetica,sans-Serif" font-weight="bold" font-size="11.00" fill="#000000">repr_point</text>
<text text-anchor="start" x="461.5437" y="-89.3" font-family="Helvetica,sans-Serif" font-size="11.00" fill="#000000">[table]</text>
<polygon fill="none" stroke="#000000" points="345.5,-59.2 345.5,-81.2 454.5,-81.2 454.5,-59.2 345.5,-59.2"/>
<image xlink:href="../../images/primaryKeys.png" width="11px" height="12px" preserveAspectRatio="xMinYMin meet" x="350.5" y="-76.2"/>
<text text-anchor="start" x="365.5" y="-66.3" font-family="Helvetica,sans-Serif" font-size="11.00" fill="#000000">repr_point_id</text>
<polygon fill="none" stroke="#000000" points="454.5,-59.2 454.5,-81.2 496.5,-81.2 496.5,-59.2 454.5,-59.2"/>
<text text-anchor="start" x="457.4644" y="-66.9" font-family="Helvetica,sans-Serif" font-size="11.00" fill="#000000">int4[10]</text>
<polygon fill="#ffffff" stroke="transparent" points="345.5,-40.2 345.5,-59.2 391.5,-59.2 391.5,-40.2 345.5,-40.2"/>
<polygon fill="none" stroke="#000000" points="345.5,-40.2 345.5,-59.2 391.5,-59.2 391.5,-40.2 345.5,-40.2"/>
<text text-anchor="start" x="348.5" y="-46.3" font-family="Helvetica,sans-Serif" font-size="11.00" fill="#000000">&lt; 1</text>
<polygon fill="#ffffff" stroke="transparent" points="391.5,-40.2 391.5,-59.2 454.5,-59.2 454.5,-40.2 391.5,-40.2"/>
<polygon fill="none" stroke="#000000" points="391.5,-40.2 391.5,-59.2 454.5,-59.2 454.5,-40.2 391.5,-40.2"/>
<text text-anchor="start" x="419.1105" y="-46.3" font-family="Helvetica,sans-Serif" font-size="11.00" fill="#000000">0 rows</text>
<polygon fill="#ffffff" stroke="transparent" points="454.5,-40.2 454.5,-59.2 496.5,-59.2 496.5,-40.2 454.5,-40.2"/>
<polygon fill="none" stroke="#000000" points="454.5,-40.2 454.5,-59.2 496.5,-59.2 496.5,-40.2 454.5,-40.2"/>
<text text-anchor="start" x="477.9053" y="-46.3" font-family="Helvetica,sans-Serif" font-size="11.00" fill="#000000">1 &gt;</text>
<polygon fill="none" stroke="#000000" stroke-width="2" points="344,-39.2 344,-105.2 497,-105.2 497,-39.2 344,-39.2"/>
</a>
</g>
</g>
<!-- point_repr_point&#45;&gt;repr_point -->
<g id="edge5" class="edge">
<title>point_repr_point:w&#45;&gt;repr_point:e</title>
<path fill="none" stroke="#000000" d="M524.6798,-72.2783C515.2261,-70.976 505.7233,-70.2 496.5,-70.2"/>
<polygon fill="#000000" stroke="#000000" points="531.0532,-73.3273 538.3623,-78.1788 535.0001,-73.9769 538.9469,-74.6266 538.9469,-74.6266 538.9469,-74.6266 535.0001,-73.9769 539.5316,-71.0744 531.0532,-73.3273 531.0532,-73.3273"/>
<ellipse fill="none" stroke="#000000" cx="527.8956" cy="-72.8076" rx="3.2" ry="3.2"/>
</g>
<!-- repr_point&#45;&gt;point -->
<g id="edge6" class="edge">
<title>repr_point:w&#45;&gt;point:e</title>
<path fill="none" stroke="#000000" d="M334.8197,-71.01C303.7485,-75.6921 276.59,-99.8291 258.0762,-121.2205"/>
<polygon fill="#000000" stroke="#000000" points="344.3998,-66.272 345.0048,-74.249 343.4094,-74.3701 342.8044,-66.393 344.3998,-66.272"/>
<polyline fill="none" stroke="#000000" points="345.5,-70.2 341.5115,-70.5025 "/>
<ellipse fill="none" stroke="#000000" cx="338.3206" cy="-70.7445" rx="3.2" ry="3.2"/>
</g>
</g>
</svg>
