<?xml version="1.0" encoding="UTF-8" standalone="no"?>
<!DOCTYPE svg PUBLIC "-//W3C//DTD SVG 1.1//EN"
 "http://www.w3.org/Graphics/SVG/1.1/DTD/svg11.dtd">
<!-- Generated by graphviz version 2.40.1 (20161225.0304)
 -->
<!-- Title: oneDegreeRelationshipsDiagram Pages: 1 -->
<svg width="550pt" height="166pt"
 viewBox="0.00 0.00 550.00 165.70" xmlns="http://www.w3.org/2000/svg" xmlns:xlink="http://www.w3.org/1999/xlink">
<g id="graph0" class="graph" transform="scale(1 1) rotate(0) translate(4 161.7)">
<title>oneDegreeRelationshipsDiagram</title>
<polygon fill="#ffffff" stroke="transparent" points="-4,4 -4,-161.7 546,-161.7 546,4 -4,4"/>
<text text-anchor="middle" x="72.4936" y="-7.3" font-family="Helvetica,sans-Serif" font-size="11.00" fill="#000000">Generated by SchemaSpy</text>
<!-- point_repr_point -->
<g id="node1" class="node">
<title>point_repr_point</title>
<g id="a_node1"><a xlink:href="../../tables/point_repr_point.html" xlink:title="point_repr_point" target="_top">
<polygon fill="#ffffff" stroke="transparent" points="384,-67.7 384,-153.7 534,-153.7 534,-67.7 384,-67.7"/>
<polygon fill="#f5f5f5" stroke="transparent" points="384,-130.7 384,-153.7 534,-153.7 534,-130.7 384,-130.7"/>
<polygon fill="none" stroke="#000000" points="384,-130.7 384,-153.7 534,-153.7 534,-130.7 384,-130.7"/>
<text text-anchor="start" x="389" y="-139.3" font-family="Helvetica,sans-Serif" font-weight="bold" font-size="11.00" fill="#000000">point_repr_point</text>
<text text-anchor="start" x="499.5219" y="-138.8" font-family="Helvetica,sans-Serif" font-size="11.00" fill="#000000">[table]</text>
<polygon fill="none" stroke="#000000" points="384,-108.7 384,-130.7 534,-130.7 534,-108.7 384,-108.7"/>
<image xlink:href="../../images/primaryKeys.png" width="11px" height="12px" preserveAspectRatio="xMinYMin meet" x="389" y="-125.7"/>
<text text-anchor="start" x="413" y="-115.8" font-family="Helvetica,sans-Serif" font-size="11.00" fill="#000000">point_id</text>
<polygon fill="none" stroke="#000000" points="384,-86.7 384,-108.7 534,-108.7 534,-86.7 384,-86.7"/>
<image xlink:href="../../images/primaryKeys.png" width="11px" height="12px" preserveAspectRatio="xMinYMin meet" x="389" y="-103.7"/>
<text text-anchor="start" x="413" y="-93.8" font-family="Helvetica,sans-Serif" font-size="11.00" fill="#000000">repr_point_id</text>
<polygon fill="#ffffff" stroke="transparent" points="384,-67.7 384,-86.7 444,-86.7 444,-67.7 384,-67.7"/>
<polygon fill="none" stroke="#000000" points="384,-67.7 384,-86.7 444,-86.7 444,-67.7 384,-67.7"/>
<text text-anchor="start" x="387" y="-73.8" font-family="Helvetica,sans-Serif" font-size="11.00" fill="#000000">&lt; 2</text>
<polygon fill="#ffffff" stroke="transparent" points="444,-67.7 444,-86.7 502,-86.7 502,-67.7 444,-67.7"/>
<polygon fill="none" stroke="#000000" points="444,-67.7 444,-86.7 502,-86.7 502,-67.7 444,-67.7"/>
<text text-anchor="start" x="466.6105" y="-73.8" font-family="Helvetica,sans-Serif" font-size="11.00" fill="#000000">0 rows</text>
<polygon fill="#ffffff" stroke="transparent" points="502,-67.7 502,-86.7 534,-86.7 534,-67.7 502,-67.7"/>
<polygon fill="none" stroke="#000000" points="502,-67.7 502,-86.7 534,-86.7 534,-67.7 502,-67.7"/>
<text text-anchor="start" x="524.8862" y="-73.8" font-family="Helvetica,sans-Serif" font-size="11.00" fill="#000000"> &#160;</text>
</a>
</g>
</g>
<!-- point -->
<g id="node2" class="node">
<title>point</title>
<g id="a_node2"><a xlink:href="../../tables/point.html" xlink:title="point" target="_top">
<polygon fill="#ffffff" stroke="transparent" points="8,-38.2 8,-143.2 131,-143.2 131,-38.2 8,-38.2"/>
<polygon fill="#f5f5f5" stroke="transparent" points="8.5,-119.7 8.5,-142.7 131.5,-142.7 131.5,-119.7 8.5,-119.7"/>
<polygon fill="none" stroke="#000000" points="8.5,-119.7 8.5,-142.7 131.5,-142.7 131.5,-119.7 8.5,-119.7"/>
<text text-anchor="start" x="13.5" y="-128.3" font-family="Helvetica,sans-Serif" font-weight="bold" font-size="11.00" fill="#000000">point</text>
<text text-anchor="start" x="96.5437" y="-127.8" font-family="Helvetica,sans-Serif" font-size="11.00" fill="#000000">[table]</text>
<polygon fill="none" stroke="#000000" points="8.5,-97.7 8.5,-119.7 131.5,-119.7 131.5,-97.7 8.5,-97.7"/>
<image xlink:href="../../images/primaryKeys.png" width="11px" height="12px" preserveAspectRatio="xMinYMin meet" x="13.5" y="-114.7"/>
<text text-anchor="start" x="53.5" y="-104.8" font-family="Helvetica,sans-Serif" font-size="11.00" fill="#000000">point_id</text>
<polygon fill="#ffffff" stroke="transparent" points="8.5,-75.7 8.5,-97.7 131.5,-97.7 131.5,-75.7 8.5,-75.7"/>
<polygon fill="none" stroke="#000000" points="8.5,-75.7 8.5,-97.7 131.5,-97.7 131.5,-75.7 8.5,-75.7"/>
<image xlink:href="../../images/foreignKeys.png" width="11px" height="12px" preserveAspectRatio="xMinYMin meet" x="13.5" y="-92.7"/>
<text text-anchor="start" x="53.5" y="-82.8" font-family="Helvetica,sans-Serif" font-size="11.00" fill="#000000">mat_id</text>
<polygon fill="none" stroke="#000000" points="8.5,-56.7 8.5,-75.7 131.5,-75.7 131.5,-56.7 8.5,-56.7"/>
<text text-anchor="start" x="11.5" y="-62.8" font-family="Helvetica,sans-Serif" font-size="11.00" fill="#000000">...</text>
<polygon fill="#ffffff" stroke="transparent" points="8.5,-37.7 8.5,-56.7 29.5,-56.7 29.5,-37.7 8.5,-37.7"/>
<polygon fill="none" stroke="#000000" points="8.5,-37.7 8.5,-56.7 29.5,-56.7 29.5,-37.7 8.5,-37.7"/>
<text text-anchor="start" x="11.2027" y="-43.8" font-family="Helvetica,sans-Serif" font-size="11.00" fill="#000000">&lt; 1</text>
<polygon fill="#ffffff" stroke="transparent" points="29.5,-37.7 29.5,-56.7 110.5,-56.7 110.5,-37.7 29.5,-37.7"/>
<polygon fill="none" stroke="#000000" points="29.5,-37.7 29.5,-56.7 110.5,-56.7 110.5,-37.7 29.5,-37.7"/>
<text text-anchor="start" x="32.4037" y="-43.8" font-family="Helvetica,sans-Serif" font-size="11.00" fill="#000000">1.039.258 rows</text>
<polygon fill="#ffffff" stroke="transparent" points="110.5,-37.7 110.5,-56.7 131.5,-56.7 131.5,-37.7 110.5,-37.7"/>
<polygon fill="none" stroke="#000000" points="110.5,-37.7 110.5,-56.7 131.5,-56.7 131.5,-37.7 110.5,-37.7"/>
<text text-anchor="start" x="113.2027" y="-43.8" font-family="Helvetica,sans-Serif" font-size="11.00" fill="#000000">4 &gt;</text>
</a>
</g>
</g>
<!-- point_repr_point&#45;&gt;point -->
<g id="edge1" class="edge">
<title>point_repr_point:w&#45;&gt;point:e</title>
<path fill="none" stroke="#000000" d="M369.4565,-120.9239C361.2933,-122.4021 355.3408,-124.8018 343,-125.7 267.2005,-131.2169 246.5045,-140.7027 172,-125.7 152.8627,-121.8464 151.0214,-108.7 131.5,-108.7"/>
<polygon fill="#000000" stroke="#000000" points="376.0282,-120.3709 384.3019,-123.2873 380.0141,-120.0355 384,-119.7 384,-119.7 384,-119.7 380.0141,-120.0355 383.6981,-116.1127 376.0282,-120.3709 376.0282,-120.3709"/>
<ellipse fill="none" stroke="#000000" cx="372.8395" cy="-120.6393" rx="3.2" ry="3.2"/>
</g>
<!-- repr_point -->
<g id="node3" class="node">
<title>repr_point</title>
<g id="a_node3"><a xlink:href="../../tables/repr_point.html" xlink:title="repr_point" target="_top">
<polygon fill="#ffffff" stroke="transparent" points="180,-46.7 180,-114.7 335,-114.7 335,-46.7 180,-46.7"/>
<polygon fill="#f5f5f5" stroke="transparent" points="182.5,-89.7 182.5,-112.7 333.5,-112.7 333.5,-89.7 182.5,-89.7"/>
<polygon fill="none" stroke="#000000" points="182.5,-89.7 182.5,-112.7 333.5,-112.7 333.5,-89.7 182.5,-89.7"/>
<text text-anchor="start" x="187.5" y="-98.3" font-family="Helvetica,sans-Serif" font-weight="bold" font-size="11.00" fill="#000000">repr_point</text>
<text text-anchor="start" x="298.5437" y="-97.8" font-family="Helvetica,sans-Serif" font-size="11.00" fill="#000000">[table]</text>
<polygon fill="none" stroke="#000000" points="182.5,-67.7 182.5,-89.7 291.5,-89.7 291.5,-67.7 182.5,-67.7"/>
<image xlink:href="../../images/primaryKeys.png" width="11px" height="12px" preserveAspectRatio="xMinYMin meet" x="187.5" y="-84.7"/>
<text text-anchor="start" x="202.5" y="-74.8" font-family="Helvetica,sans-Serif" font-size="11.00" fill="#000000">repr_point_id</text>
<polygon fill="none" stroke="#000000" points="291.5,-67.7 291.5,-89.7 333.5,-89.7 333.5,-67.7 291.5,-67.7"/>
<text text-anchor="start" x="294.4644" y="-75.4" font-family="Helvetica,sans-Serif" font-size="11.00" fill="#000000">int4[10]</text>
<polygon fill="#ffffff" stroke="transparent" points="182.5,-48.7 182.5,-67.7 228.5,-67.7 228.5,-48.7 182.5,-48.7"/>
<polygon fill="none" stroke="#000000" points="182.5,-48.7 182.5,-67.7 228.5,-67.7 228.5,-48.7 182.5,-48.7"/>
<text text-anchor="start" x="185.5" y="-54.8" font-family="Helvetica,sans-Serif" font-size="11.00" fill="#000000">&lt; 1</text>
<polygon fill="#ffffff" stroke="transparent" points="228.5,-48.7 228.5,-67.7 291.5,-67.7 291.5,-48.7 228.5,-48.7"/>
<polygon fill="none" stroke="#000000" points="228.5,-48.7 228.5,-67.7 291.5,-67.7 291.5,-48.7 228.5,-48.7"/>
<text text-anchor="start" x="256.1105" y="-54.8" font-family="Helvetica,sans-Serif" font-size="11.00" fill="#000000">0 rows</text>
<polygon fill="#ffffff" stroke="transparent" points="291.5,-48.7 291.5,-67.7 333.5,-67.7 333.5,-48.7 291.5,-48.7"/>
<polygon fill="none" stroke="#000000" points="291.5,-48.7 291.5,-67.7 333.5,-67.7 333.5,-48.7 291.5,-48.7"/>
<text text-anchor="start" x="314.9053" y="-54.8" font-family="Helvetica,sans-Serif" font-size="11.00" fill="#000000">1 &gt;</text>
<polygon fill="none" stroke="#000000" stroke-width="2" points="181,-47.7 181,-113.7 334,-113.7 334,-47.7 181,-47.7"/>
</a>
</g>
</g>
<!-- point_repr_point&#45;&gt;repr_point -->
<g id="edge2" class="edge">
<title>point_repr_point:w&#45;&gt;repr_point:e</title>
<path fill="none" stroke="#000000" d="M369.7405,-94.8965C357.532,-89.6113 351.6727,-78.7 333.5,-78.7"/>
<polygon fill="#000000" stroke="#000000" points="376.1503,-96.1567 383.3055,-101.2324 380.0751,-96.9283 384,-97.7 384,-97.7 384,-97.7 380.0751,-96.9283 384.6945,-94.1676 376.1503,-96.1567 376.1503,-96.1567"/>
<ellipse fill="none" stroke="#000000" cx="373.0104" cy="-95.5393" rx="3.2" ry="3.2"/>
</g>
<!-- repr_point&#45;&gt;point -->
<g id="edge3" class="edge">
<title>repr_point:w&#45;&gt;point:e</title>
<path fill="none" stroke="#000000" d="M172.0032,-80.6684C156.02,-87.3426 153.6885,-108.7 131.5,-108.7"/>
<polygon fill="#000000" stroke="#000000" points="180.9764,-74.916 182.451,-82.7789 180.8784,-83.0738 179.4038,-75.2109 180.9764,-74.916"/>
<polyline fill="none" stroke="#000000" points="182.5,-78.7 178.5685,-79.4373 "/>
<ellipse fill="none" stroke="#000000" cx="175.4233" cy="-80.0271" rx="3.2" ry="3.2"/>
</g>
</g>
</svg>
