<?xml version="1.0" encoding="UTF-8" standalone="no"?>
<!DOCTYPE svg PUBLIC "-//W3C//DTD SVG 1.1//EN"
 "http://www.w3.org/Graphics/SVG/1.1/DTD/svg11.dtd">
<!-- Generated by graphviz version 2.40.1 (20161225.0304)
 -->
<!-- Title: oneDegreeRelationshipsDiagram Pages: 1 -->
<svg width="600pt" height="626pt"
 viewBox="0.00 0.00 600.00 625.70" xmlns="http://www.w3.org/2000/svg" xmlns:xlink="http://www.w3.org/1999/xlink">
<g id="graph0" class="graph" transform="scale(1 1) rotate(0) translate(4 621.7)">
<title>oneDegreeRelationshipsDiagram</title>
<polygon fill="#ffffff" stroke="transparent" points="-4,4 -4,-621.7 596,-621.7 596,4 -4,4"/>
<text text-anchor="middle" x="72.4936" y="-7.3" font-family="Helvetica,sans-Serif" font-size="11.00" fill="#000000">Generated by SchemaSpy</text>
<!-- aspect -->
<g id="node1" class="node">
<title>aspect</title>
<g id="a_node1"><a xlink:href="../../tables/aspect.html" xlink:title="aspect" target="_top">
<polygon fill="#ffffff" stroke="transparent" points="177,-137.2 177,-337.2 385,-337.2 385,-137.2 177,-137.2"/>
<polygon fill="#f5f5f5" stroke="transparent" points="179,-312.2 179,-335.2 383,-335.2 383,-312.2 179,-312.2"/>
<polygon fill="none" stroke="#000000" points="179,-312.2 179,-335.2 383,-335.2 383,-312.2 179,-312.2"/>
<text text-anchor="start" x="184" y="-320.8" font-family="Helvetica,sans-Serif" font-weight="bold" font-size="11.00" fill="#000000">aspect</text>
<text text-anchor="start" x="348.0437" y="-320.3" font-family="Helvetica,sans-Serif" font-size="11.00" fill="#000000">[table]</text>
<polygon fill="none" stroke="#000000" points="179,-290.2 179,-312.2 299,-312.2 299,-290.2 179,-290.2"/>
<image xlink:href="../../images/primaryKeys.png" width="11px" height="12px" preserveAspectRatio="xMinYMin meet" x="184" y="-307.2"/>
<text text-anchor="start" x="199" y="-297.3" font-family="Helvetica,sans-Serif" font-size="11.00" fill="#000000">aspect_id</text>
<polygon fill="none" stroke="#000000" points="299,-290.2 299,-312.2 383,-312.2 383,-290.2 299,-290.2"/>
<text text-anchor="start" x="302" y="-297.9" font-family="Helvetica,sans-Serif" font-size="11.00" fill="#000000">int4[10]</text>
<polygon fill="#ffffff" stroke="transparent" points="179,-268.2 179,-290.2 299,-290.2 299,-268.2 179,-268.2"/>
<polygon fill="none" stroke="#000000" points="179,-268.2 179,-290.2 299,-290.2 299,-268.2 179,-268.2"/>
<text text-anchor="start" x="199" y="-275.3" font-family="Helvetica,sans-Serif" font-size="11.00" fill="#000000">description</text>
<polygon fill="none" stroke="#000000" points="299,-268.2 299,-290.2 383,-290.2 383,-268.2 299,-268.2"/>
<text text-anchor="start" x="302" y="-275.9" font-family="Helvetica,sans-Serif" font-size="11.00" fill="#000000">varchar[50]</text>
<polygon fill="none" stroke="#000000" points="179,-246.2 179,-268.2 299,-268.2 299,-246.2 179,-246.2"/>
<text text-anchor="start" x="199" y="-253.3" font-family="Helvetica,sans-Serif" font-size="11.00" fill="#000000">x</text>
<polygon fill="none" stroke="#000000" points="299,-246.2 299,-268.2 383,-268.2 383,-246.2 299,-246.2"/>
<text text-anchor="start" x="302" y="-253.9" font-family="Helvetica,sans-Serif" font-size="11.00" fill="#000000">float4[8,8]</text>
<polygon fill="none" stroke="#000000" points="179,-224.2 179,-246.2 299,-246.2 299,-224.2 179,-224.2"/>
<text text-anchor="start" x="199" y="-231.3" font-family="Helvetica,sans-Serif" font-size="11.00" fill="#000000">y</text>
<polygon fill="none" stroke="#000000" points="299,-224.2 299,-246.2 383,-246.2 383,-224.2 299,-224.2"/>
<text text-anchor="start" x="302" y="-231.9" font-family="Helvetica,sans-Serif" font-size="11.00" fill="#000000">float4[8,8]</text>
<polygon fill="none" stroke="#000000" points="179,-202.2 179,-224.2 299,-224.2 299,-202.2 179,-202.2"/>
<text text-anchor="start" x="199" y="-209.3" font-family="Helvetica,sans-Serif" font-size="11.00" fill="#000000">t</text>
<polygon fill="none" stroke="#000000" points="299,-202.2 299,-224.2 383,-224.2 383,-202.2 299,-202.2"/>
<text text-anchor="start" x="301.8807" y="-209.9" font-family="Helvetica,sans-Serif" font-size="11.00" fill="#000000">timestamp[29,6]</text>
<polygon fill="none" stroke="#000000" points="179,-180.2 179,-202.2 299,-202.2 299,-180.2 179,-180.2"/>
<text text-anchor="start" x="199" y="-187.3" font-family="Helvetica,sans-Serif" font-size="11.00" fill="#000000">space_time</text>
<polygon fill="none" stroke="#000000" points="299,-180.2 299,-202.2 383,-202.2 383,-180.2 299,-180.2"/>
<text text-anchor="start" x="302" y="-187.9" font-family="Helvetica,sans-Serif" font-size="11.00" fill="#000000">int4[10]</text>
<polygon fill="#ffffff" stroke="transparent" points="179,-158.2 179,-180.2 299,-180.2 299,-158.2 179,-158.2"/>
<polygon fill="none" stroke="#000000" points="179,-158.2 179,-180.2 299,-180.2 299,-158.2 179,-158.2"/>
<image xlink:href="../../images/foreignKeys.png" width="11px" height="12px" preserveAspectRatio="xMinYMin meet" x="184" y="-175.2"/>
<text text-anchor="start" x="199" y="-165.3" font-family="Helvetica,sans-Serif" font-size="11.00" fill="#000000">aspect_type_id</text>
<polygon fill="none" stroke="#000000" points="299,-158.2 299,-180.2 383,-180.2 383,-158.2 299,-158.2"/>
<text text-anchor="start" x="302" y="-165.9" font-family="Helvetica,sans-Serif" font-size="11.00" fill="#000000">int4[10]</text>
<polygon fill="#ffffff" stroke="transparent" points="179,-139.2 179,-158.2 213,-158.2 213,-139.2 179,-139.2"/>
<polygon fill="none" stroke="#000000" points="179,-139.2 179,-158.2 213,-158.2 213,-139.2 179,-139.2"/>
<text text-anchor="start" x="182" y="-145.3" font-family="Helvetica,sans-Serif" font-size="11.00" fill="#000000">&lt; 1</text>
<polygon fill="#ffffff" stroke="transparent" points="213,-139.2 213,-158.2 299,-158.2 299,-139.2 213,-139.2"/>
<polygon fill="none" stroke="#000000" points="213,-139.2 213,-158.2 299,-158.2 299,-139.2 213,-139.2"/>
<text text-anchor="start" x="229.9791" y="-145.3" font-family="Helvetica,sans-Serif" font-size="11.00" fill="#000000">100.191 rows</text>
<polygon fill="#ffffff" stroke="transparent" points="299,-139.2 299,-158.2 383,-158.2 383,-139.2 299,-139.2"/>
<polygon fill="none" stroke="#000000" points="299,-139.2 299,-158.2 383,-158.2 383,-139.2 299,-139.2"/>
<text text-anchor="start" x="364.4053" y="-145.3" font-family="Helvetica,sans-Serif" font-size="11.00" fill="#000000">5 &gt;</text>
<polygon fill="none" stroke="#000000" stroke-width="2" points="178,-138.2 178,-336.2 384,-336.2 384,-138.2 178,-138.2"/>
</a>
</g>
</g>
<!-- aspect_type -->
<g id="node2" class="node">
<title>aspect_type</title>
<g id="a_node2"><a xlink:href="../../tables/aspect_type.html" xlink:title="aspect_type" target="_top">
<polygon fill="#ffffff" stroke="transparent" points="8,-98.7 8,-203.7 128,-203.7 128,-98.7 8,-98.7"/>
<polygon fill="#f5f5f5" stroke="transparent" points="8,-180.2 8,-203.2 128,-203.2 128,-180.2 8,-180.2"/>
<polygon fill="none" stroke="#000000" points="8,-180.2 8,-203.2 128,-203.2 128,-180.2 8,-180.2"/>
<text text-anchor="start" x="13" y="-188.8" font-family="Helvetica,sans-Serif" font-weight="bold" font-size="11.00" fill="#000000">aspect_type</text>
<text text-anchor="start" x="93.5219" y="-188.3" font-family="Helvetica,sans-Serif" font-size="11.00" fill="#000000">[table]</text>
<polygon fill="none" stroke="#000000" points="8,-158.2 8,-180.2 128,-180.2 128,-158.2 8,-158.2"/>
<image xlink:href="../../images/primaryKeys.png" width="11px" height="12px" preserveAspectRatio="xMinYMin meet" x="13" y="-175.2"/>
<text text-anchor="start" x="28" y="-165.3" font-family="Helvetica,sans-Serif" font-size="11.00" fill="#000000">aspect_type_id</text>
<polygon fill="#ffffff" stroke="transparent" points="8,-136.2 8,-158.2 128,-158.2 128,-136.2 8,-136.2"/>
<polygon fill="none" stroke="#000000" points="8,-136.2 8,-158.2 128,-158.2 128,-136.2 8,-136.2"/>
<image xlink:href="../../images/foreignKeys.png" width="11px" height="12px" preserveAspectRatio="xMinYMin meet" x="13" y="-153.2"/>
<text text-anchor="start" x="28" y="-143.3" font-family="Helvetica,sans-Serif" font-size="11.00" fill="#000000">super_type_id</text>
<polygon fill="none" stroke="#000000" points="8,-117.2 8,-136.2 128,-136.2 128,-117.2 8,-117.2"/>
<text text-anchor="start" x="11" y="-123.3" font-family="Helvetica,sans-Serif" font-size="11.00" fill="#000000">...</text>
<polygon fill="#ffffff" stroke="transparent" points="8,-98.2 8,-117.2 52,-117.2 52,-98.2 8,-98.2"/>
<polygon fill="none" stroke="#000000" points="8,-98.2 8,-117.2 52,-117.2 52,-98.2 8,-98.2"/>
<text text-anchor="start" x="11" y="-104.3" font-family="Helvetica,sans-Serif" font-size="11.00" fill="#000000">&lt; 1</text>
<polygon fill="#ffffff" stroke="transparent" points="52,-98.2 52,-117.2 95,-117.2 95,-98.2 52,-98.2"/>
<polygon fill="none" stroke="#000000" points="52,-98.2 52,-117.2 95,-117.2 95,-98.2 52,-98.2"/>
<text text-anchor="start" x="65.1105" y="-104.3" font-family="Helvetica,sans-Serif" font-size="11.00" fill="#000000">1 row</text>
<polygon fill="#ffffff" stroke="transparent" points="95,-98.2 95,-117.2 128,-117.2 128,-98.2 95,-98.2"/>
<polygon fill="none" stroke="#000000" points="95,-98.2 95,-117.2 128,-117.2 128,-98.2 95,-98.2"/>
<text text-anchor="start" x="109.4053" y="-104.3" font-family="Helvetica,sans-Serif" font-size="11.00" fill="#000000">3 &gt;</text>
</a>
</g>
</g>
<!-- aspect&#45;&gt;aspect_type -->
<g id="edge1" class="edge">
<title>aspect:w&#45;&gt;aspect_type:e</title>
<path fill="none" stroke="#000000" d="M164.276,-169.2C152.2815,-169.2 144.8229,-169.2 128,-169.2"/>
<polygon fill="#000000" stroke="#000000" points="171,-169.2001 179,-172.8 175,-169.2 179,-169.2 179,-169.2 179,-169.2 175,-169.2 179,-165.6 171,-169.2001 171,-169.2001"/>
<ellipse fill="none" stroke="#000000" cx="167.8" cy="-169.2001" rx="3.2" ry="3.2"/>
</g>
<!-- aspect_attribute -->
<g id="node3" class="node">
<title>aspect_attribute</title>
<g id="a_node3"><a xlink:href="../../tables/aspect_attribute.html" xlink:title="aspect_attribute" target="_top">
<polygon fill="#ffffff" stroke="transparent" points="434,-486.7 434,-613.7 584,-613.7 584,-486.7 434,-486.7"/>
<polygon fill="#f5f5f5" stroke="transparent" points="434,-590.2 434,-613.2 584,-613.2 584,-590.2 434,-590.2"/>
<polygon fill="none" stroke="#000000" points="434,-590.2 434,-613.2 584,-613.2 584,-590.2 434,-590.2"/>
<text text-anchor="start" x="439" y="-598.8" font-family="Helvetica,sans-Serif" font-weight="bold" font-size="11.00" fill="#000000">aspect_attribute</text>
<text text-anchor="start" x="549.5219" y="-598.3" font-family="Helvetica,sans-Serif" font-size="11.00" fill="#000000">[table]</text>
<polygon fill="none" stroke="#000000" points="434,-568.2 434,-590.2 584,-590.2 584,-568.2 434,-568.2"/>
<image xlink:href="../../images/primaryKeys.png" width="11px" height="12px" preserveAspectRatio="xMinYMin meet" x="439" y="-585.2"/>
<text text-anchor="start" x="463" y="-575.3" font-family="Helvetica,sans-Serif" font-size="11.00" fill="#000000">aspect_id</text>
<polygon fill="none" stroke="#000000" points="434,-546.2 434,-568.2 584,-568.2 584,-546.2 434,-546.2"/>
<image xlink:href="../../images/primaryKeys.png" width="11px" height="12px" preserveAspectRatio="xMinYMin meet" x="439" y="-563.2"/>
<text text-anchor="start" x="463" y="-553.3" font-family="Helvetica,sans-Serif" font-size="11.00" fill="#000000">attribute_id</text>
<polygon fill="#ffffff" stroke="transparent" points="434,-524.2 434,-546.2 584,-546.2 584,-524.2 434,-524.2"/>
<polygon fill="none" stroke="#000000" points="434,-524.2 434,-546.2 584,-546.2 584,-524.2 434,-524.2"/>
<image xlink:href="../../images/foreignKeys.png" width="11px" height="12px" preserveAspectRatio="xMinYMin meet" x="439" y="-541.2"/>
<text text-anchor="start" x="463" y="-531.3" font-family="Helvetica,sans-Serif" font-size="11.00" fill="#000000">data_type_id</text>
<polygon fill="none" stroke="#000000" points="434,-505.2 434,-524.2 584,-524.2 584,-505.2 434,-505.2"/>
<text text-anchor="start" x="437" y="-511.3" font-family="Helvetica,sans-Serif" font-size="11.00" fill="#000000">...</text>
<polygon fill="#ffffff" stroke="transparent" points="434,-486.2 434,-505.2 477,-505.2 477,-486.2 434,-486.2"/>
<polygon fill="none" stroke="#000000" points="434,-486.2 434,-505.2 477,-505.2 477,-486.2 434,-486.2"/>
<text text-anchor="start" x="437" y="-492.3" font-family="Helvetica,sans-Serif" font-size="11.00" fill="#000000">&lt; 3</text>
<polygon fill="#ffffff" stroke="transparent" points="477,-486.2 477,-505.2 560,-505.2 560,-486.2 477,-486.2"/>
<polygon fill="none" stroke="#000000" points="477,-486.2 477,-505.2 560,-505.2 560,-486.2 477,-486.2"/>
<text text-anchor="start" x="490.9791" y="-492.3" font-family="Helvetica,sans-Serif" font-size="11.00" fill="#000000">200.382 rows</text>
<polygon fill="#ffffff" stroke="transparent" points="560,-486.2 560,-505.2 584,-505.2 584,-486.2 560,-486.2"/>
<polygon fill="none" stroke="#000000" points="560,-486.2 560,-505.2 584,-505.2 584,-486.2 560,-486.2"/>
<text text-anchor="start" x="574.8862" y="-492.3" font-family="Helvetica,sans-Serif" font-size="11.00" fill="#000000"> &#160;</text>
</a>
</g>
</g>
<!-- aspect_attribute&#45;&gt;aspect -->
<g id="edge2" class="edge">
<title>aspect_attribute:w&#45;&gt;aspect:e</title>
<path fill="none" stroke="#000000" d="M420.6775,-573.3936C383.0012,-533.4719 440.4111,-301.2 383,-301.2"/>
<polygon fill="#000000" stroke="#000000" points="426.6663,-576.0037 432.5617,-582.5002 430.3331,-577.6018 434,-579.2 434,-579.2 434,-579.2 430.3331,-577.6018 435.4383,-575.8998 426.6663,-576.0037 426.6663,-576.0037"/>
<ellipse fill="none" stroke="#000000" cx="423.7328" cy="-574.7251" rx="3.2" ry="3.2"/>
</g>
<!-- mat_aspect -->
<g id="node4" class="node">
<title>mat_aspect</title>
<g id="a_node4"><a xlink:href="../../tables/mat_aspect.html" xlink:title="mat_aspect" target="_top">
<polygon fill="#ffffff" stroke="transparent" points="451,-379.2 451,-465.2 567,-465.2 567,-379.2 451,-379.2"/>
<polygon fill="#f5f5f5" stroke="transparent" points="451,-442.2 451,-465.2 567,-465.2 567,-442.2 451,-442.2"/>
<polygon fill="none" stroke="#000000" points="451,-442.2 451,-465.2 567,-465.2 567,-442.2 451,-442.2"/>
<text text-anchor="start" x="456" y="-450.8" font-family="Helvetica,sans-Serif" font-weight="bold" font-size="11.00" fill="#000000">mat_aspect</text>
<text text-anchor="start" x="532.5219" y="-450.3" font-family="Helvetica,sans-Serif" font-size="11.00" fill="#000000">[table]</text>
<polygon fill="none" stroke="#000000" points="451,-420.2 451,-442.2 567,-442.2 567,-420.2 451,-420.2"/>
<image xlink:href="../../images/primaryKeys.png" width="11px" height="12px" preserveAspectRatio="xMinYMin meet" x="456" y="-437.2"/>
<text text-anchor="start" x="480" y="-427.3" font-family="Helvetica,sans-Serif" font-size="11.00" fill="#000000">mat_id</text>
<polygon fill="none" stroke="#000000" points="451,-398.2 451,-420.2 567,-420.2 567,-398.2 451,-398.2"/>
<image xlink:href="../../images/primaryKeys.png" width="11px" height="12px" preserveAspectRatio="xMinYMin meet" x="456" y="-415.2"/>
<text text-anchor="start" x="480" y="-405.3" font-family="Helvetica,sans-Serif" font-size="11.00" fill="#000000">aspect_id</text>
<polygon fill="#ffffff" stroke="transparent" points="451,-379.2 451,-398.2 494,-398.2 494,-379.2 451,-379.2"/>
<polygon fill="none" stroke="#000000" points="451,-379.2 451,-398.2 494,-398.2 494,-379.2 451,-379.2"/>
<text text-anchor="start" x="454" y="-385.3" font-family="Helvetica,sans-Serif" font-size="11.00" fill="#000000">&lt; 1</text>
<polygon fill="#ffffff" stroke="transparent" points="494,-379.2 494,-398.2 543,-398.2 543,-379.2 494,-379.2"/>
<polygon fill="none" stroke="#000000" points="494,-379.2 494,-398.2 543,-398.2 543,-379.2 494,-379.2"/>
<text text-anchor="start" x="507.6105" y="-385.3" font-family="Helvetica,sans-Serif" font-size="11.00" fill="#000000">0 rows</text>
<polygon fill="#ffffff" stroke="transparent" points="543,-379.2 543,-398.2 567,-398.2 567,-379.2 543,-379.2"/>
<polygon fill="none" stroke="#000000" points="543,-379.2 543,-398.2 567,-398.2 567,-379.2 543,-379.2"/>
<text text-anchor="start" x="557.8862" y="-385.3" font-family="Helvetica,sans-Serif" font-size="11.00" fill="#000000"> &#160;</text>
</a>
</g>
</g>
<!-- mat_aspect&#45;&gt;aspect -->
<g id="edge3" class="edge">
<title>mat_aspect:w&#45;&gt;aspect:e</title>
<path fill="none" stroke="#000000" d="M436.665,-406.0842C402.455,-388.3765 433.9612,-301.2 383,-301.2"/>
<polygon fill="#000000" stroke="#000000" points="443.1825,-407.5008 450.2354,-412.7179 447.0913,-408.3504 451,-409.2 451,-409.2 451,-409.2 447.0913,-408.3504 451.7646,-405.6821 443.1825,-407.5008 443.1825,-407.5008"/>
<ellipse fill="none" stroke="#000000" cx="440.0555" cy="-406.8211" rx="3.2" ry="3.2"/>
</g>
<!-- mo_aspect -->
<g id="node5" class="node">
<title>mo_aspect</title>
<g id="a_node5"><a xlink:href="../../tables/mo_aspect.html" xlink:title="mo_aspect" target="_top">
<polygon fill="#ffffff" stroke="transparent" points="454,-252.7 454,-357.7 564,-357.7 564,-252.7 454,-252.7"/>
<polygon fill="#f5f5f5" stroke="transparent" points="454,-334.2 454,-357.2 564,-357.2 564,-334.2 454,-334.2"/>
<polygon fill="none" stroke="#000000" points="454,-334.2 454,-357.2 564,-357.2 564,-334.2 454,-334.2"/>
<text text-anchor="start" x="459" y="-342.8" font-family="Helvetica,sans-Serif" font-weight="bold" font-size="11.00" fill="#000000">mo_aspect</text>
<text text-anchor="start" x="529.5219" y="-342.3" font-family="Helvetica,sans-Serif" font-size="11.00" fill="#000000">[table]</text>
<polygon fill="none" stroke="#000000" points="454,-312.2 454,-334.2 564,-334.2 564,-312.2 454,-312.2"/>
<image xlink:href="../../images/primaryKeys.png" width="11px" height="12px" preserveAspectRatio="xMinYMin meet" x="459" y="-329.2"/>
<text text-anchor="start" x="483" y="-319.3" font-family="Helvetica,sans-Serif" font-size="11.00" fill="#000000">mo_id</text>
<polygon fill="none" stroke="#000000" points="454,-290.2 454,-312.2 564,-312.2 564,-290.2 454,-290.2"/>
<image xlink:href="../../images/primaryKeys.png" width="11px" height="12px" preserveAspectRatio="xMinYMin meet" x="459" y="-307.2"/>
<text text-anchor="start" x="483" y="-297.3" font-family="Helvetica,sans-Serif" font-size="11.00" fill="#000000">aspect_id</text>
<polygon fill="none" stroke="#000000" points="454,-271.2 454,-290.2 564,-290.2 564,-271.2 454,-271.2"/>
<text text-anchor="start" x="457" y="-277.3" font-family="Helvetica,sans-Serif" font-size="11.00" fill="#000000">...</text>
<polygon fill="#ffffff" stroke="transparent" points="454,-252.2 454,-271.2 494,-271.2 494,-252.2 454,-252.2"/>
<polygon fill="none" stroke="#000000" points="454,-252.2 454,-271.2 494,-271.2 494,-252.2 454,-252.2"/>
<text text-anchor="start" x="457" y="-258.3" font-family="Helvetica,sans-Serif" font-size="11.00" fill="#000000">&lt; 2</text>
<polygon fill="#ffffff" stroke="transparent" points="494,-252.2 494,-271.2 542,-271.2 542,-252.2 494,-252.2"/>
<polygon fill="none" stroke="#000000" points="494,-252.2 494,-271.2 542,-271.2 542,-252.2 494,-252.2"/>
<text text-anchor="start" x="506.6105" y="-258.3" font-family="Helvetica,sans-Serif" font-size="11.00" fill="#000000">0 rows</text>
<polygon fill="#ffffff" stroke="transparent" points="542,-252.2 542,-271.2 564,-271.2 564,-252.2 542,-252.2"/>
<polygon fill="none" stroke="#000000" points="542,-252.2 542,-271.2 564,-271.2 564,-252.2 542,-252.2"/>
<text text-anchor="start" x="554.8862" y="-258.3" font-family="Helvetica,sans-Serif" font-size="11.00" fill="#000000"> &#160;</text>
</a>
</g>
</g>
<!-- mo_aspect&#45;&gt;aspect -->
<g id="edge4" class="edge">
<title>mo_aspect:w&#45;&gt;aspect:e</title>
<path fill="none" stroke="#000000" d="M439.5863,-301.2C419.0335,-301.2 409.1319,-301.2 383,-301.2"/>
<polygon fill="#000000" stroke="#000000" points="446,-301.2001 454,-304.8 450,-301.2 454,-301.2 454,-301.2 454,-301.2 450,-301.2 454,-297.6 446,-301.2001 446,-301.2001"/>
<ellipse fill="none" stroke="#000000" cx="442.8" cy="-301.2001" rx="3.2" ry="3.2"/>
</g>
<!-- mor_aspect -->
<g id="node6" class="node">
<title>mor_aspect</title>
<g id="a_node6"><a xlink:href="../../tables/mor_aspect.html" xlink:title="mor_aspect" target="_top">
<polygon fill="#ffffff" stroke="transparent" points="451,-145.2 451,-231.2 567,-231.2 567,-145.2 451,-145.2"/>
<polygon fill="#f5f5f5" stroke="transparent" points="451,-208.2 451,-231.2 567,-231.2 567,-208.2 451,-208.2"/>
<polygon fill="none" stroke="#000000" points="451,-208.2 451,-231.2 567,-231.2 567,-208.2 451,-208.2"/>
<text text-anchor="start" x="456" y="-216.8" font-family="Helvetica,sans-Serif" font-weight="bold" font-size="11.00" fill="#000000">mor_aspect</text>
<text text-anchor="start" x="532.5219" y="-216.3" font-family="Helvetica,sans-Serif" font-size="11.00" fill="#000000">[table]</text>
<polygon fill="none" stroke="#000000" points="451,-186.2 451,-208.2 567,-208.2 567,-186.2 451,-186.2"/>
<image xlink:href="../../images/primaryKeys.png" width="11px" height="12px" preserveAspectRatio="xMinYMin meet" x="456" y="-203.2"/>
<text text-anchor="start" x="480" y="-193.3" font-family="Helvetica,sans-Serif" font-size="11.00" fill="#000000">mor_id</text>
<polygon fill="none" stroke="#000000" points="451,-164.2 451,-186.2 567,-186.2 567,-164.2 451,-164.2"/>
<image xlink:href="../../images/primaryKeys.png" width="11px" height="12px" preserveAspectRatio="xMinYMin meet" x="456" y="-181.2"/>
<text text-anchor="start" x="480" y="-171.3" font-family="Helvetica,sans-Serif" font-size="11.00" fill="#000000">aspect_id</text>
<polygon fill="#ffffff" stroke="transparent" points="451,-145.2 451,-164.2 494,-164.2 494,-145.2 451,-145.2"/>
<polygon fill="none" stroke="#000000" points="451,-145.2 451,-164.2 494,-164.2 494,-145.2 451,-145.2"/>
<text text-anchor="start" x="454" y="-151.3" font-family="Helvetica,sans-Serif" font-size="11.00" fill="#000000">&lt; 2</text>
<polygon fill="#ffffff" stroke="transparent" points="494,-145.2 494,-164.2 543,-164.2 543,-145.2 494,-145.2"/>
<polygon fill="none" stroke="#000000" points="494,-145.2 494,-164.2 543,-164.2 543,-145.2 494,-145.2"/>
<text text-anchor="start" x="507.6105" y="-151.3" font-family="Helvetica,sans-Serif" font-size="11.00" fill="#000000">0 rows</text>
<polygon fill="#ffffff" stroke="transparent" points="543,-145.2 543,-164.2 567,-164.2 567,-145.2 543,-145.2"/>
<polygon fill="none" stroke="#000000" points="543,-145.2 543,-164.2 567,-164.2 567,-145.2 543,-145.2"/>
<text text-anchor="start" x="557.8862" y="-151.3" font-family="Helvetica,sans-Serif" font-size="11.00" fill="#000000"> &#160;</text>
</a>
</g>
</g>
<!-- mor_aspect&#45;&gt;aspect -->
<g id="edge5" class="edge">
<title>mor_aspect:w&#45;&gt;aspect:e</title>
<path fill="none" stroke="#000000" d="M436.6464,-178.0684C397.0232,-196.8236 440.9176,-301.2 383,-301.2"/>
<polygon fill="#000000" stroke="#000000" points="443.1551,-176.7678 451.7055,-178.7302 447.0776,-175.9839 451,-175.2 451,-175.2 451,-175.2 447.0776,-175.9839 450.2945,-171.6698 443.1551,-176.7678 443.1551,-176.7678"/>
<ellipse fill="none" stroke="#000000" cx="440.0172" cy="-177.3949" rx="3.2" ry="3.2"/>
</g>
<!-- point_aspect -->
<g id="node7" class="node">
<title>point_aspect</title>
<g id="a_node7"><a xlink:href="../../tables/point_aspect.html" xlink:title="point_aspect" target="_top">
<polygon fill="#ffffff" stroke="transparent" points="446.5,-38.2 446.5,-124.2 571.5,-124.2 571.5,-38.2 446.5,-38.2"/>
<polygon fill="#f5f5f5" stroke="transparent" points="447,-101.2 447,-124.2 572,-124.2 572,-101.2 447,-101.2"/>
<polygon fill="none" stroke="#000000" points="447,-101.2 447,-124.2 572,-124.2 572,-101.2 447,-101.2"/>
<text text-anchor="start" x="452" y="-109.8" font-family="Helvetica,sans-Serif" font-weight="bold" font-size="11.00" fill="#000000">point_aspect</text>
<text text-anchor="start" x="537.5219" y="-109.3" font-family="Helvetica,sans-Serif" font-size="11.00" fill="#000000">[table]</text>
<polygon fill="none" stroke="#000000" points="447,-79.2 447,-101.2 572,-101.2 572,-79.2 447,-79.2"/>
<image xlink:href="../../images/primaryKeys.png" width="11px" height="12px" preserveAspectRatio="xMinYMin meet" x="452" y="-96.2"/>
<text text-anchor="start" x="476" y="-86.3" font-family="Helvetica,sans-Serif" font-size="11.00" fill="#000000">point_id</text>
<polygon fill="none" stroke="#000000" points="447,-57.2 447,-79.2 572,-79.2 572,-57.2 447,-57.2"/>
<image xlink:href="../../images/primaryKeys.png" width="11px" height="12px" preserveAspectRatio="xMinYMin meet" x="452" y="-74.2"/>
<text text-anchor="start" x="476" y="-64.3" font-family="Helvetica,sans-Serif" font-size="11.00" fill="#000000">aspect_id</text>
<polygon fill="#ffffff" stroke="transparent" points="447,-38.2 447,-57.2 478,-57.2 478,-38.2 447,-38.2"/>
<polygon fill="none" stroke="#000000" points="447,-38.2 447,-57.2 478,-57.2 478,-38.2 447,-38.2"/>
<text text-anchor="start" x="450" y="-44.3" font-family="Helvetica,sans-Serif" font-size="11.00" fill="#000000">&lt; 1</text>
<polygon fill="#ffffff" stroke="transparent" points="478,-38.2 478,-57.2 555,-57.2 555,-38.2 478,-38.2"/>
<polygon fill="none" stroke="#000000" points="478,-38.2 478,-57.2 555,-57.2 555,-38.2 478,-38.2"/>
<text text-anchor="start" x="485.9791" y="-44.3" font-family="Helvetica,sans-Serif" font-size="11.00" fill="#000000">800.114 rows</text>
<polygon fill="#ffffff" stroke="transparent" points="555,-38.2 555,-57.2 572,-57.2 572,-38.2 555,-38.2"/>
<polygon fill="none" stroke="#000000" points="555,-38.2 555,-57.2 572,-57.2 572,-38.2 555,-38.2"/>
<text text-anchor="start" x="562.8862" y="-44.3" font-family="Helvetica,sans-Serif" font-size="11.00" fill="#000000"> &#160;</text>
</a>
</g>
</g>
<!-- point_aspect&#45;&gt;aspect -->
<g id="edge6" class="edge">
<title>point_aspect:w&#45;&gt;aspect:e</title>
<path fill="none" stroke="#000000" d="M432.5693,-69.9415C354.257,-91.2632 484.9376,-301.2 383,-301.2"/>
<polygon fill="#000000" stroke="#000000" points="439.0576,-69.1585 447.4313,-71.7741 443.0288,-68.6793 447,-68.2 447,-68.2 447,-68.2 443.0288,-68.6793 446.5687,-64.6259 439.0576,-69.1585 439.0576,-69.1585"/>
<ellipse fill="none" stroke="#000000" cx="435.8807" cy="-69.542" rx="3.2" ry="3.2"/>
</g>
</g>
</svg>
