<?xml version="1.0" encoding="UTF-8" standalone="no"?>
<!DOCTYPE svg PUBLIC "-//W3C//DTD SVG 1.1//EN"
 "http://www.w3.org/Graphics/SVG/1.1/DTD/svg11.dtd">
<!-- Generated by graphviz version 2.40.1 (20161225.0304)
 -->
<!-- Title: twoDegreesRelationshipsDiagram Pages: 1 -->
<svg width="616pt" height="648pt"
 viewBox="0.00 0.00 616.00 647.70" xmlns="http://www.w3.org/2000/svg" xmlns:xlink="http://www.w3.org/1999/xlink">
<g id="graph0" class="graph" transform="scale(1 1) rotate(0) translate(4 643.7)">
<title>twoDegreesRelationshipsDiagram</title>
<polygon fill="#ffffff" stroke="transparent" points="-4,4 -4,-643.7 612,-643.7 612,4 -4,4"/>
<text text-anchor="middle" x="72.4936" y="-7.3" font-family="Helvetica,sans-Serif" font-size="11.00" fill="#000000">Generated by SchemaSpy</text>
<!-- aspect -->
<g id="node1" class="node">
<title>aspect</title>
<g id="a_node1"><a xlink:href="../../tables/aspect.html" xlink:title="aspect" target="_top">
<polygon fill="#ffffff" stroke="transparent" points="193,-330.7 193,-530.7 401,-530.7 401,-330.7 193,-330.7"/>
<polygon fill="#f5f5f5" stroke="transparent" points="195,-505.7 195,-528.7 399,-528.7 399,-505.7 195,-505.7"/>
<polygon fill="none" stroke="#000000" points="195,-505.7 195,-528.7 399,-528.7 399,-505.7 195,-505.7"/>
<text text-anchor="start" x="200" y="-514.3" font-family="Helvetica,sans-Serif" font-weight="bold" font-size="11.00" fill="#000000">aspect</text>
<text text-anchor="start" x="364.0437" y="-513.8" font-family="Helvetica,sans-Serif" font-size="11.00" fill="#000000">[table]</text>
<polygon fill="none" stroke="#000000" points="195,-483.7 195,-505.7 315,-505.7 315,-483.7 195,-483.7"/>
<image xlink:href="../../images/primaryKeys.png" width="11px" height="12px" preserveAspectRatio="xMinYMin meet" x="200" y="-500.7"/>
<text text-anchor="start" x="215" y="-490.8" font-family="Helvetica,sans-Serif" font-size="11.00" fill="#000000">aspect_id</text>
<polygon fill="none" stroke="#000000" points="315,-483.7 315,-505.7 399,-505.7 399,-483.7 315,-483.7"/>
<text text-anchor="start" x="318" y="-491.4" font-family="Helvetica,sans-Serif" font-size="11.00" fill="#000000">int4[10]</text>
<polygon fill="#ffffff" stroke="transparent" points="195,-461.7 195,-483.7 315,-483.7 315,-461.7 195,-461.7"/>
<polygon fill="none" stroke="#000000" points="195,-461.7 195,-483.7 315,-483.7 315,-461.7 195,-461.7"/>
<text text-anchor="start" x="215" y="-468.8" font-family="Helvetica,sans-Serif" font-size="11.00" fill="#000000">description</text>
<polygon fill="none" stroke="#000000" points="315,-461.7 315,-483.7 399,-483.7 399,-461.7 315,-461.7"/>
<text text-anchor="start" x="318" y="-469.4" font-family="Helvetica,sans-Serif" font-size="11.00" fill="#000000">varchar[50]</text>
<polygon fill="none" stroke="#000000" points="195,-439.7 195,-461.7 315,-461.7 315,-439.7 195,-439.7"/>
<text text-anchor="start" x="215" y="-446.8" font-family="Helvetica,sans-Serif" font-size="11.00" fill="#000000">x</text>
<polygon fill="none" stroke="#000000" points="315,-439.7 315,-461.7 399,-461.7 399,-439.7 315,-439.7"/>
<text text-anchor="start" x="318" y="-447.4" font-family="Helvetica,sans-Serif" font-size="11.00" fill="#000000">float4[8,8]</text>
<polygon fill="none" stroke="#000000" points="195,-417.7 195,-439.7 315,-439.7 315,-417.7 195,-417.7"/>
<text text-anchor="start" x="215" y="-424.8" font-family="Helvetica,sans-Serif" font-size="11.00" fill="#000000">y</text>
<polygon fill="none" stroke="#000000" points="315,-417.7 315,-439.7 399,-439.7 399,-417.7 315,-417.7"/>
<text text-anchor="start" x="318" y="-425.4" font-family="Helvetica,sans-Serif" font-size="11.00" fill="#000000">float4[8,8]</text>
<polygon fill="none" stroke="#000000" points="195,-395.7 195,-417.7 315,-417.7 315,-395.7 195,-395.7"/>
<text text-anchor="start" x="215" y="-402.8" font-family="Helvetica,sans-Serif" font-size="11.00" fill="#000000">t</text>
<polygon fill="none" stroke="#000000" points="315,-395.7 315,-417.7 399,-417.7 399,-395.7 315,-395.7"/>
<text text-anchor="start" x="317.8807" y="-403.4" font-family="Helvetica,sans-Serif" font-size="11.00" fill="#000000">timestamp[29,6]</text>
<polygon fill="none" stroke="#000000" points="195,-373.7 195,-395.7 315,-395.7 315,-373.7 195,-373.7"/>
<text text-anchor="start" x="215" y="-380.8" font-family="Helvetica,sans-Serif" font-size="11.00" fill="#000000">space_time</text>
<polygon fill="none" stroke="#000000" points="315,-373.7 315,-395.7 399,-395.7 399,-373.7 315,-373.7"/>
<text text-anchor="start" x="318" y="-381.4" font-family="Helvetica,sans-Serif" font-size="11.00" fill="#000000">int4[10]</text>
<polygon fill="#ffffff" stroke="transparent" points="195,-351.7 195,-373.7 315,-373.7 315,-351.7 195,-351.7"/>
<polygon fill="none" stroke="#000000" points="195,-351.7 195,-373.7 315,-373.7 315,-351.7 195,-351.7"/>
<image xlink:href="../../images/foreignKeys.png" width="11px" height="12px" preserveAspectRatio="xMinYMin meet" x="200" y="-368.7"/>
<text text-anchor="start" x="215" y="-358.8" font-family="Helvetica,sans-Serif" font-size="11.00" fill="#000000">aspect_type_id</text>
<polygon fill="none" stroke="#000000" points="315,-351.7 315,-373.7 399,-373.7 399,-351.7 315,-351.7"/>
<text text-anchor="start" x="318" y="-359.4" font-family="Helvetica,sans-Serif" font-size="11.00" fill="#000000">int4[10]</text>
<polygon fill="#ffffff" stroke="transparent" points="195,-332.7 195,-351.7 229,-351.7 229,-332.7 195,-332.7"/>
<polygon fill="none" stroke="#000000" points="195,-332.7 195,-351.7 229,-351.7 229,-332.7 195,-332.7"/>
<text text-anchor="start" x="198" y="-338.8" font-family="Helvetica,sans-Serif" font-size="11.00" fill="#000000">&lt; 1</text>
<polygon fill="#ffffff" stroke="transparent" points="229,-332.7 229,-351.7 315,-351.7 315,-332.7 229,-332.7"/>
<polygon fill="none" stroke="#000000" points="229,-332.7 229,-351.7 315,-351.7 315,-332.7 229,-332.7"/>
<text text-anchor="start" x="245.9791" y="-338.8" font-family="Helvetica,sans-Serif" font-size="11.00" fill="#000000">100.191 rows</text>
<polygon fill="#ffffff" stroke="transparent" points="315,-332.7 315,-351.7 399,-351.7 399,-332.7 315,-332.7"/>
<polygon fill="none" stroke="#000000" points="315,-332.7 315,-351.7 399,-351.7 399,-332.7 315,-332.7"/>
<text text-anchor="start" x="380.4053" y="-338.8" font-family="Helvetica,sans-Serif" font-size="11.00" fill="#000000">5 &gt;</text>
<polygon fill="none" stroke="#000000" stroke-width="2" points="194,-331.7 194,-529.7 400,-529.7 400,-331.7 194,-331.7"/>
</a>
</g>
</g>
<!-- aspect_type -->
<g id="node2" class="node">
<title>aspect_type</title>
<g id="a_node2"><a xlink:href="../../tables/aspect_type.html" xlink:title="aspect_type" target="_top">
<polygon fill="#ffffff" stroke="transparent" points="16,-292.2 16,-397.2 136,-397.2 136,-292.2 16,-292.2"/>
<polygon fill="#f5f5f5" stroke="transparent" points="16,-373.7 16,-396.7 136,-396.7 136,-373.7 16,-373.7"/>
<polygon fill="none" stroke="#000000" points="16,-373.7 16,-396.7 136,-396.7 136,-373.7 16,-373.7"/>
<text text-anchor="start" x="21" y="-382.3" font-family="Helvetica,sans-Serif" font-weight="bold" font-size="11.00" fill="#000000">aspect_type</text>
<text text-anchor="start" x="101.5219" y="-381.8" font-family="Helvetica,sans-Serif" font-size="11.00" fill="#000000">[table]</text>
<polygon fill="none" stroke="#000000" points="16,-351.7 16,-373.7 136,-373.7 136,-351.7 16,-351.7"/>
<image xlink:href="../../images/primaryKeys.png" width="11px" height="12px" preserveAspectRatio="xMinYMin meet" x="21" y="-368.7"/>
<text text-anchor="start" x="36" y="-358.8" font-family="Helvetica,sans-Serif" font-size="11.00" fill="#000000">aspect_type_id</text>
<polygon fill="#ffffff" stroke="transparent" points="16,-329.7 16,-351.7 136,-351.7 136,-329.7 16,-329.7"/>
<polygon fill="none" stroke="#000000" points="16,-329.7 16,-351.7 136,-351.7 136,-329.7 16,-329.7"/>
<image xlink:href="../../images/foreignKeys.png" width="11px" height="12px" preserveAspectRatio="xMinYMin meet" x="21" y="-346.7"/>
<text text-anchor="start" x="36" y="-336.8" font-family="Helvetica,sans-Serif" font-size="11.00" fill="#000000">super_type_id</text>
<polygon fill="none" stroke="#000000" points="16,-310.7 16,-329.7 136,-329.7 136,-310.7 16,-310.7"/>
<text text-anchor="start" x="19" y="-316.8" font-family="Helvetica,sans-Serif" font-size="11.00" fill="#000000">...</text>
<polygon fill="#ffffff" stroke="transparent" points="16,-291.7 16,-310.7 60,-310.7 60,-291.7 16,-291.7"/>
<polygon fill="none" stroke="#000000" points="16,-291.7 16,-310.7 60,-310.7 60,-291.7 16,-291.7"/>
<text text-anchor="start" x="19" y="-297.8" font-family="Helvetica,sans-Serif" font-size="11.00" fill="#000000">&lt; 1</text>
<polygon fill="#ffffff" stroke="transparent" points="60,-291.7 60,-310.7 103,-310.7 103,-291.7 60,-291.7"/>
<polygon fill="none" stroke="#000000" points="60,-291.7 60,-310.7 103,-310.7 103,-291.7 60,-291.7"/>
<text text-anchor="start" x="73.1105" y="-297.8" font-family="Helvetica,sans-Serif" font-size="11.00" fill="#000000">1 row</text>
<polygon fill="#ffffff" stroke="transparent" points="103,-291.7 103,-310.7 136,-310.7 136,-291.7 103,-291.7"/>
<polygon fill="none" stroke="#000000" points="103,-291.7 103,-310.7 136,-310.7 136,-291.7 103,-291.7"/>
<text text-anchor="start" x="117.4053" y="-297.8" font-family="Helvetica,sans-Serif" font-size="11.00" fill="#000000">3 &gt;</text>
</a>
</g>
</g>
<!-- aspect&#45;&gt;aspect_type -->
<g id="edge1" class="edge">
<title>aspect:w&#45;&gt;aspect_type:e</title>
<path fill="none" stroke="#000000" d="M180.2032,-362.7C164.9686,-362.7 156.4861,-362.7 136,-362.7"/>
<polygon fill="#000000" stroke="#000000" points="187,-362.7001 195,-366.3 191,-362.7 195,-362.7 195,-362.7 195,-362.7 191,-362.7 195,-359.1 187,-362.7001 187,-362.7001"/>
<ellipse fill="none" stroke="#000000" cx="183.8" cy="-362.7001" rx="3.2" ry="3.2"/>
</g>
<!-- aspect_attribute -->
<g id="node3" class="node">
<title>aspect_attribute</title>
<g id="a_node3"><a xlink:href="../../tables/aspect_attribute.html" xlink:title="aspect_attribute" target="_top">
<polygon fill="#ffffff" stroke="transparent" points="450,-272.2 450,-399.2 600,-399.2 600,-272.2 450,-272.2"/>
<polygon fill="#f5f5f5" stroke="transparent" points="450,-375.7 450,-398.7 600,-398.7 600,-375.7 450,-375.7"/>
<polygon fill="none" stroke="#000000" points="450,-375.7 450,-398.7 600,-398.7 600,-375.7 450,-375.7"/>
<text text-anchor="start" x="455" y="-384.3" font-family="Helvetica,sans-Serif" font-weight="bold" font-size="11.00" fill="#000000">aspect_attribute</text>
<text text-anchor="start" x="565.5219" y="-383.8" font-family="Helvetica,sans-Serif" font-size="11.00" fill="#000000">[table]</text>
<polygon fill="none" stroke="#000000" points="450,-353.7 450,-375.7 600,-375.7 600,-353.7 450,-353.7"/>
<image xlink:href="../../images/primaryKeys.png" width="11px" height="12px" preserveAspectRatio="xMinYMin meet" x="455" y="-370.7"/>
<text text-anchor="start" x="479" y="-360.8" font-family="Helvetica,sans-Serif" font-size="11.00" fill="#000000">aspect_id</text>
<polygon fill="none" stroke="#000000" points="450,-331.7 450,-353.7 600,-353.7 600,-331.7 450,-331.7"/>
<image xlink:href="../../images/primaryKeys.png" width="11px" height="12px" preserveAspectRatio="xMinYMin meet" x="455" y="-348.7"/>
<text text-anchor="start" x="479" y="-338.8" font-family="Helvetica,sans-Serif" font-size="11.00" fill="#000000">attribute_id</text>
<polygon fill="#ffffff" stroke="transparent" points="450,-309.7 450,-331.7 600,-331.7 600,-309.7 450,-309.7"/>
<polygon fill="none" stroke="#000000" points="450,-309.7 450,-331.7 600,-331.7 600,-309.7 450,-309.7"/>
<image xlink:href="../../images/foreignKeys.png" width="11px" height="12px" preserveAspectRatio="xMinYMin meet" x="455" y="-326.7"/>
<text text-anchor="start" x="479" y="-316.8" font-family="Helvetica,sans-Serif" font-size="11.00" fill="#000000">data_type_id</text>
<polygon fill="none" stroke="#000000" points="450,-290.7 450,-309.7 600,-309.7 600,-290.7 450,-290.7"/>
<text text-anchor="start" x="453" y="-296.8" font-family="Helvetica,sans-Serif" font-size="11.00" fill="#000000">...</text>
<polygon fill="#ffffff" stroke="transparent" points="450,-271.7 450,-290.7 493,-290.7 493,-271.7 450,-271.7"/>
<polygon fill="none" stroke="#000000" points="450,-271.7 450,-290.7 493,-290.7 493,-271.7 450,-271.7"/>
<text text-anchor="start" x="453" y="-277.8" font-family="Helvetica,sans-Serif" font-size="11.00" fill="#000000">&lt; 3</text>
<polygon fill="#ffffff" stroke="transparent" points="493,-271.7 493,-290.7 576,-290.7 576,-271.7 493,-271.7"/>
<polygon fill="none" stroke="#000000" points="493,-271.7 493,-290.7 576,-290.7 576,-271.7 493,-271.7"/>
<text text-anchor="start" x="506.9791" y="-277.8" font-family="Helvetica,sans-Serif" font-size="11.00" fill="#000000">200.382 rows</text>
<polygon fill="#ffffff" stroke="transparent" points="576,-271.7 576,-290.7 600,-290.7 600,-271.7 576,-271.7"/>
<polygon fill="none" stroke="#000000" points="576,-271.7 576,-290.7 600,-290.7 600,-271.7 576,-271.7"/>
<text text-anchor="start" x="590.8862" y="-277.8" font-family="Helvetica,sans-Serif" font-size="11.00" fill="#000000"> &#160;</text>
</a>
</g>
</g>
<!-- aspect_attribute&#45;&gt;aspect -->
<g id="edge2" class="edge">
<title>aspect_attribute:w&#45;&gt;aspect:e</title>
<path fill="none" stroke="#000000" d="M435.8862,-367.9135C400.4587,-387.9324 455.2463,-494.7 399,-494.7"/>
<polygon fill="#000000" stroke="#000000" points="442.1996,-366.4761 450.7992,-368.2102 446.0998,-365.588 450,-364.7 450,-364.7 450,-364.7 446.0998,-365.588 449.2008,-361.1898 442.1996,-366.4761 442.1996,-366.4761"/>
<ellipse fill="none" stroke="#000000" cx="439.0795" cy="-367.1865" rx="3.2" ry="3.2"/>
</g>
<!-- attribute -->
<g id="node4" class="node">
<title>attribute</title>
<g id="a_node4"><a xlink:href="../../tables/attribute.html" xlink:title="attribute" target="_top">
<polygon fill="#ffffff" stroke="transparent" points="247.5,-248.2 247.5,-309.2 346.5,-309.2 346.5,-248.2 247.5,-248.2"/>
<polygon fill="#f5f5f5" stroke="transparent" points="248,-285.7 248,-308.7 347,-308.7 347,-285.7 248,-285.7"/>
<polygon fill="none" stroke="#000000" points="248,-285.7 248,-308.7 347,-308.7 347,-285.7 248,-285.7"/>
<text text-anchor="start" x="253" y="-294.3" font-family="Helvetica,sans-Serif" font-weight="bold" font-size="11.00" fill="#000000">attribute</text>
<text text-anchor="start" x="312.5219" y="-293.8" font-family="Helvetica,sans-Serif" font-size="11.00" fill="#000000">[table]</text>
<polygon fill="none" stroke="#000000" points="248,-266.7 248,-285.7 347,-285.7 347,-266.7 248,-266.7"/>
<text text-anchor="start" x="251" y="-272.8" font-family="Helvetica,sans-Serif" font-size="11.00" fill="#000000">...</text>
<polygon fill="#ffffff" stroke="transparent" points="248,-247.7 248,-266.7 278,-266.7 278,-247.7 248,-247.7"/>
<polygon fill="none" stroke="#000000" points="248,-247.7 248,-266.7 278,-266.7 278,-247.7 248,-247.7"/>
<text text-anchor="start" x="251" y="-253.8" font-family="Helvetica,sans-Serif" font-size="11.00" fill="#000000">&lt; 2</text>
<polygon fill="#ffffff" stroke="transparent" points="278,-247.7 278,-266.7 321,-266.7 321,-247.7 278,-247.7"/>
<polygon fill="none" stroke="#000000" points="278,-247.7 278,-266.7 321,-266.7 321,-247.7 278,-247.7"/>
<text text-anchor="start" x="285.6105" y="-253.8" font-family="Helvetica,sans-Serif" font-size="11.00" fill="#000000">2 rows</text>
<polygon fill="#ffffff" stroke="transparent" points="321,-247.7 321,-266.7 347,-266.7 347,-247.7 321,-247.7"/>
<polygon fill="none" stroke="#000000" points="321,-247.7 321,-266.7 347,-266.7 347,-247.7 321,-247.7"/>
<text text-anchor="start" x="328.4053" y="-253.8" font-family="Helvetica,sans-Serif" font-size="11.00" fill="#000000">1 &gt;</text>
</a>
</g>
</g>
<!-- aspect_attribute&#45;&gt;attribute -->
<g id="edge3" class="edge">
<title>aspect_attribute:w&#45;&gt;attribute:e</title>
<path fill="none" stroke="#000000" d="M436.2017,-338.5088C408.4404,-323.8409 370.1455,-275.7 347,-275.7"/>
<polygon fill="#000000" stroke="#000000" points="442.3453,-340.3749 448.9537,-346.1446 446.1727,-341.5374 450,-342.7 450,-342.7 450,-342.7 446.1727,-341.5374 451.0463,-339.2554 442.3453,-340.3749 442.3453,-340.3749"/>
<ellipse fill="none" stroke="#000000" cx="439.2834" cy="-339.4449" rx="3.2" ry="3.2"/>
</g>
<!-- data_type -->
<g id="node5" class="node">
<title>data_type</title>
<g id="a_node5"><a xlink:href="../../tables/data_type.html" xlink:title="data_type" target="_top">
<polygon fill="#ffffff" stroke="transparent" points="23.5,-210.2 23.5,-271.2 128.5,-271.2 128.5,-210.2 23.5,-210.2"/>
<polygon fill="#f5f5f5" stroke="transparent" points="24,-247.7 24,-270.7 129,-270.7 129,-247.7 24,-247.7"/>
<polygon fill="none" stroke="#000000" points="24,-247.7 24,-270.7 129,-270.7 129,-247.7 24,-247.7"/>
<text text-anchor="start" x="29" y="-256.3" font-family="Helvetica,sans-Serif" font-weight="bold" font-size="11.00" fill="#000000">data_type</text>
<text text-anchor="start" x="94.5219" y="-255.8" font-family="Helvetica,sans-Serif" font-size="11.00" fill="#000000">[table]</text>
<polygon fill="none" stroke="#000000" points="24,-228.7 24,-247.7 129,-247.7 129,-228.7 24,-228.7"/>
<text text-anchor="start" x="27" y="-234.8" font-family="Helvetica,sans-Serif" font-size="11.00" fill="#000000">...</text>
<polygon fill="#ffffff" stroke="transparent" points="24,-209.7 24,-228.7 56,-228.7 56,-209.7 24,-209.7"/>
<polygon fill="none" stroke="#000000" points="24,-209.7 24,-228.7 56,-228.7 56,-209.7 24,-209.7"/>
<text text-anchor="start" x="27" y="-215.8" font-family="Helvetica,sans-Serif" font-size="11.00" fill="#000000"> &#160;</text>
<polygon fill="#ffffff" stroke="transparent" points="56,-209.7 56,-228.7 98,-228.7 98,-209.7 56,-209.7"/>
<polygon fill="none" stroke="#000000" points="56,-209.7 56,-228.7 98,-228.7 98,-209.7 56,-209.7"/>
<text text-anchor="start" x="68.1105" y="-215.8" font-family="Helvetica,sans-Serif" font-size="11.00" fill="#000000">1 row</text>
<polygon fill="#ffffff" stroke="transparent" points="98,-209.7 98,-228.7 129,-228.7 129,-209.7 98,-209.7"/>
<polygon fill="none" stroke="#000000" points="98,-209.7 98,-228.7 129,-228.7 129,-209.7 98,-209.7"/>
<text text-anchor="start" x="110.4053" y="-215.8" font-family="Helvetica,sans-Serif" font-size="11.00" fill="#000000">2 &gt;</text>
</a>
</g>
</g>
<!-- aspect_attribute&#45;&gt;data_type -->
<g id="edge4" class="edge">
<title>aspect_attribute:w&#45;&gt;data_type:e</title>
<path fill="none" stroke="#000000" d="M435.9866,-316.7896C417.9222,-302.9456 438.623,-256.107 409,-237.7 303.2996,-172.0202 253.4444,-237.7 129,-237.7"/>
<polygon fill="#000000" stroke="#000000" points="442.2944,-318.5497 449.0324,-324.1675 446.1472,-319.6249 450,-320.7 450,-320.7 450,-320.7 446.1472,-319.6249 450.9676,-317.2325 442.2944,-318.5497 442.2944,-318.5497"/>
<ellipse fill="none" stroke="#000000" cx="439.2121" cy="-317.6896" rx="3.2" ry="3.2"/>
</g>
<!-- attribute&#45;&gt;aspect_type -->
<g id="edge5" class="edge">
<title>attribute:w&#45;&gt;aspect_type:e</title>
<path fill="none" stroke="#000000" d="M233.4631,-277.5041C212.4093,-283.4346 207.6449,-302.9636 185,-320.7 162.4189,-338.3864 164.683,-362.7 136,-362.7"/>
<polygon fill="#000000" stroke="#000000" points="240.0609,-276.6853 248.4434,-279.2726 244.0305,-276.1927 248,-275.7 248,-275.7 248,-275.7 244.0305,-276.1927 247.5566,-272.1274 240.0609,-276.6853 240.0609,-276.6853"/>
<ellipse fill="none" stroke="#000000" cx="236.8853" cy="-277.0795" rx="3.2" ry="3.2"/>
</g>
<!-- attribute&#45;&gt;data_type -->
<g id="edge6" class="edge">
<title>attribute:w&#45;&gt;data_type:e</title>
<path fill="none" stroke="#000000" d="M233.5606,-274.7607C190.5695,-268.909 179.315,-237.7 129,-237.7"/>
<polygon fill="#000000" stroke="#000000" points="240.0169,-275.1806 247.7663,-279.2924 244.0084,-275.4403 248,-275.7 248,-275.7 248,-275.7 244.0084,-275.4403 248.2337,-272.1076 240.0169,-275.1806 240.0169,-275.1806"/>
<ellipse fill="none" stroke="#000000" cx="236.8236" cy="-274.9729" rx="3.2" ry="3.2"/>
</g>
<!-- mat_aspect -->
<g id="node6" class="node">
<title>mat_aspect</title>
<g id="a_node6"><a xlink:href="../../tables/mat_aspect.html" xlink:title="mat_aspect" target="_top">
<polygon fill="#ffffff" stroke="transparent" points="467,-442.7 467,-528.7 583,-528.7 583,-442.7 467,-442.7"/>
<polygon fill="#f5f5f5" stroke="transparent" points="467,-505.7 467,-528.7 583,-528.7 583,-505.7 467,-505.7"/>
<polygon fill="none" stroke="#000000" points="467,-505.7 467,-528.7 583,-528.7 583,-505.7 467,-505.7"/>
<text text-anchor="start" x="472" y="-514.3" font-family="Helvetica,sans-Serif" font-weight="bold" font-size="11.00" fill="#000000">mat_aspect</text>
<text text-anchor="start" x="548.5219" y="-513.8" font-family="Helvetica,sans-Serif" font-size="11.00" fill="#000000">[table]</text>
<polygon fill="none" stroke="#000000" points="467,-483.7 467,-505.7 583,-505.7 583,-483.7 467,-483.7"/>
<image xlink:href="../../images/primaryKeys.png" width="11px" height="12px" preserveAspectRatio="xMinYMin meet" x="472" y="-500.7"/>
<text text-anchor="start" x="496" y="-490.8" font-family="Helvetica,sans-Serif" font-size="11.00" fill="#000000">mat_id</text>
<polygon fill="none" stroke="#000000" points="467,-461.7 467,-483.7 583,-483.7 583,-461.7 467,-461.7"/>
<image xlink:href="../../images/primaryKeys.png" width="11px" height="12px" preserveAspectRatio="xMinYMin meet" x="472" y="-478.7"/>
<text text-anchor="start" x="496" y="-468.8" font-family="Helvetica,sans-Serif" font-size="11.00" fill="#000000">aspect_id</text>
<polygon fill="#ffffff" stroke="transparent" points="467,-442.7 467,-461.7 510,-461.7 510,-442.7 467,-442.7"/>
<polygon fill="none" stroke="#000000" points="467,-442.7 467,-461.7 510,-461.7 510,-442.7 467,-442.7"/>
<text text-anchor="start" x="470" y="-448.8" font-family="Helvetica,sans-Serif" font-size="11.00" fill="#000000">&lt; 1</text>
<polygon fill="#ffffff" stroke="transparent" points="510,-442.7 510,-461.7 559,-461.7 559,-442.7 510,-442.7"/>
<polygon fill="none" stroke="#000000" points="510,-442.7 510,-461.7 559,-461.7 559,-442.7 510,-442.7"/>
<text text-anchor="start" x="523.6105" y="-448.8" font-family="Helvetica,sans-Serif" font-size="11.00" fill="#000000">0 rows</text>
<polygon fill="#ffffff" stroke="transparent" points="559,-442.7 559,-461.7 583,-461.7 583,-442.7 559,-442.7"/>
<polygon fill="none" stroke="#000000" points="559,-442.7 559,-461.7 583,-461.7 583,-442.7 559,-442.7"/>
<text text-anchor="start" x="573.8862" y="-448.8" font-family="Helvetica,sans-Serif" font-size="11.00" fill="#000000"> &#160;</text>
</a>
</g>
</g>
<!-- mat_aspect&#45;&gt;aspect -->
<g id="edge7" class="edge">
<title>mat_aspect:w&#45;&gt;aspect:e</title>
<path fill="none" stroke="#000000" d="M452.4827,-474.5004C432.8203,-479.7546 425.181,-494.7 399,-494.7"/>
<polygon fill="#000000" stroke="#000000" points="459.0608,-473.6846 467.4431,-476.2726 463.0304,-473.1923 467,-472.7 467,-472.7 467,-472.7 463.0304,-473.1923 466.5569,-469.1274 459.0608,-473.6846 459.0608,-473.6846"/>
<ellipse fill="none" stroke="#000000" cx="455.8851" cy="-474.0785" rx="3.2" ry="3.2"/>
</g>
<!-- mo_aspect -->
<g id="node7" class="node">
<title>mo_aspect</title>
<g id="a_node7"><a xlink:href="../../tables/mo_aspect.html" xlink:title="mo_aspect" target="_top">
<polygon fill="#ffffff" stroke="transparent" points="470,-38.2 470,-143.2 580,-143.2 580,-38.2 470,-38.2"/>
<polygon fill="#f5f5f5" stroke="transparent" points="470,-119.7 470,-142.7 580,-142.7 580,-119.7 470,-119.7"/>
<polygon fill="none" stroke="#000000" points="470,-119.7 470,-142.7 580,-142.7 580,-119.7 470,-119.7"/>
<text text-anchor="start" x="475" y="-128.3" font-family="Helvetica,sans-Serif" font-weight="bold" font-size="11.00" fill="#000000">mo_aspect</text>
<text text-anchor="start" x="545.5219" y="-127.8" font-family="Helvetica,sans-Serif" font-size="11.00" fill="#000000">[table]</text>
<polygon fill="none" stroke="#000000" points="470,-97.7 470,-119.7 580,-119.7 580,-97.7 470,-97.7"/>
<image xlink:href="../../images/primaryKeys.png" width="11px" height="12px" preserveAspectRatio="xMinYMin meet" x="475" y="-114.7"/>
<text text-anchor="start" x="499" y="-104.8" font-family="Helvetica,sans-Serif" font-size="11.00" fill="#000000">mo_id</text>
<polygon fill="none" stroke="#000000" points="470,-75.7 470,-97.7 580,-97.7 580,-75.7 470,-75.7"/>
<image xlink:href="../../images/primaryKeys.png" width="11px" height="12px" preserveAspectRatio="xMinYMin meet" x="475" y="-92.7"/>
<text text-anchor="start" x="499" y="-82.8" font-family="Helvetica,sans-Serif" font-size="11.00" fill="#000000">aspect_id</text>
<polygon fill="none" stroke="#000000" points="470,-56.7 470,-75.7 580,-75.7 580,-56.7 470,-56.7"/>
<text text-anchor="start" x="473" y="-62.8" font-family="Helvetica,sans-Serif" font-size="11.00" fill="#000000">...</text>
<polygon fill="#ffffff" stroke="transparent" points="470,-37.7 470,-56.7 510,-56.7 510,-37.7 470,-37.7"/>
<polygon fill="none" stroke="#000000" points="470,-37.7 470,-56.7 510,-56.7 510,-37.7 470,-37.7"/>
<text text-anchor="start" x="473" y="-43.8" font-family="Helvetica,sans-Serif" font-size="11.00" fill="#000000">&lt; 2</text>
<polygon fill="#ffffff" stroke="transparent" points="510,-37.7 510,-56.7 558,-56.7 558,-37.7 510,-37.7"/>
<polygon fill="none" stroke="#000000" points="510,-37.7 510,-56.7 558,-56.7 558,-37.7 510,-37.7"/>
<text text-anchor="start" x="522.6105" y="-43.8" font-family="Helvetica,sans-Serif" font-size="11.00" fill="#000000">0 rows</text>
<polygon fill="#ffffff" stroke="transparent" points="558,-37.7 558,-56.7 580,-56.7 580,-37.7 558,-37.7"/>
<polygon fill="none" stroke="#000000" points="558,-37.7 558,-56.7 580,-56.7 580,-37.7 558,-37.7"/>
<text text-anchor="start" x="570.8862" y="-43.8" font-family="Helvetica,sans-Serif" font-size="11.00" fill="#000000"> &#160;</text>
</a>
</g>
</g>
<!-- mo_aspect&#45;&gt;aspect -->
<g id="edge8" class="edge">
<title>mo_aspect:w&#45;&gt;aspect:e</title>
<path fill="none" stroke="#000000" d="M455.8528,-90.7381C390.5157,-133.1117 485.6369,-494.7 399,-494.7"/>
<polygon fill="#000000" stroke="#000000" points="462.3072,-88.8958 470.9881,-90.1617 466.1536,-87.7979 470,-86.7 470,-86.7 470,-86.7 466.1536,-87.7979 469.0119,-83.2383 462.3072,-88.8958 462.3072,-88.8958"/>
<ellipse fill="none" stroke="#000000" cx="459.2301" cy="-89.7742" rx="3.2" ry="3.2"/>
</g>
<!-- moving_object -->
<g id="node8" class="node">
<title>moving_object</title>
<g id="a_node8"><a xlink:href="../../tables/moving_object.html" xlink:title="moving_object" target="_top">
<polygon fill="#ffffff" stroke="transparent" points="8,-128.2 8,-189.2 144,-189.2 144,-128.2 8,-128.2"/>
<polygon fill="#f5f5f5" stroke="transparent" points="8,-165.7 8,-188.7 144,-188.7 144,-165.7 8,-165.7"/>
<polygon fill="none" stroke="#000000" points="8,-165.7 8,-188.7 144,-188.7 144,-165.7 8,-165.7"/>
<text text-anchor="start" x="13" y="-174.3" font-family="Helvetica,sans-Serif" font-weight="bold" font-size="11.00" fill="#000000">moving_object</text>
<text text-anchor="start" x="109.5219" y="-173.8" font-family="Helvetica,sans-Serif" font-size="11.00" fill="#000000">[table]</text>
<polygon fill="none" stroke="#000000" points="8,-146.7 8,-165.7 144,-165.7 144,-146.7 8,-146.7"/>
<text text-anchor="start" x="11" y="-152.8" font-family="Helvetica,sans-Serif" font-size="11.00" fill="#000000">...</text>
<polygon fill="#ffffff" stroke="transparent" points="8,-127.7 8,-146.7 46,-146.7 46,-127.7 8,-127.7"/>
<polygon fill="none" stroke="#000000" points="8,-127.7 8,-146.7 46,-146.7 46,-127.7 8,-127.7"/>
<text text-anchor="start" x="11" y="-133.8" font-family="Helvetica,sans-Serif" font-size="11.00" fill="#000000">&lt; 1</text>
<polygon fill="#ffffff" stroke="transparent" points="46,-127.7 46,-146.7 114,-146.7 114,-127.7 46,-127.7"/>
<polygon fill="none" stroke="#000000" points="46,-127.7 46,-146.7 114,-146.7 114,-127.7 46,-127.7"/>
<text text-anchor="start" x="57.2089" y="-133.8" font-family="Helvetica,sans-Serif" font-size="11.00" fill="#000000">3.376 rows</text>
<polygon fill="#ffffff" stroke="transparent" points="114,-127.7 114,-146.7 144,-146.7 144,-127.7 114,-127.7"/>
<polygon fill="none" stroke="#000000" points="114,-127.7 114,-146.7 144,-146.7 144,-127.7 114,-127.7"/>
<text text-anchor="start" x="125.4053" y="-133.8" font-family="Helvetica,sans-Serif" font-size="11.00" fill="#000000">4 &gt;</text>
</a>
</g>
</g>
<!-- mo_aspect&#45;&gt;moving_object -->
<g id="edge9" class="edge">
<title>mo_aspect:w&#45;&gt;moving_object:e</title>
<path fill="none" stroke="#000000" d="M455.5275,-108.5641C339.9631,-106.3882 298.9071,-79.3829 185,-122.7 163.1361,-131.0145 167.3915,-155.7 144,-155.7"/>
<polygon fill="#000000" stroke="#000000" points="462.0004,-108.6248 469.9662,-112.2998 466.0002,-108.6624 470,-108.7 470,-108.7 470,-108.7 466.0002,-108.6624 470.0338,-105.1002 462.0004,-108.6248 462.0004,-108.6248"/>
<ellipse fill="none" stroke="#000000" cx="458.8005" cy="-108.5948" rx="3.2" ry="3.2"/>
</g>
<!-- mo_relationship -->
<g id="node9" class="node">
<title>mo_relationship</title>
<g id="a_node9"><a xlink:href="../../tables/mo_relationship.html" xlink:title="mo_relationship" target="_top">
<polygon fill="#ffffff" stroke="transparent" points="223.5,-133.2 223.5,-194.2 370.5,-194.2 370.5,-133.2 223.5,-133.2"/>
<polygon fill="#f5f5f5" stroke="transparent" points="224,-170.7 224,-193.7 371,-193.7 371,-170.7 224,-170.7"/>
<polygon fill="none" stroke="#000000" points="224,-170.7 224,-193.7 371,-193.7 371,-170.7 224,-170.7"/>
<text text-anchor="start" x="229" y="-179.3" font-family="Helvetica,sans-Serif" font-weight="bold" font-size="11.00" fill="#000000">mo_relationship</text>
<text text-anchor="start" x="336.5219" y="-178.8" font-family="Helvetica,sans-Serif" font-size="11.00" fill="#000000">[table]</text>
<polygon fill="none" stroke="#000000" points="224,-151.7 224,-170.7 371,-170.7 371,-151.7 224,-151.7"/>
<text text-anchor="start" x="227" y="-157.8" font-family="Helvetica,sans-Serif" font-size="11.00" fill="#000000">...</text>
<polygon fill="#ffffff" stroke="transparent" points="224,-132.7 224,-151.7 278,-151.7 278,-132.7 224,-132.7"/>
<polygon fill="none" stroke="#000000" points="224,-132.7 224,-151.7 278,-151.7 278,-132.7 224,-132.7"/>
<text text-anchor="start" x="227" y="-138.8" font-family="Helvetica,sans-Serif" font-size="11.00" fill="#000000">&lt; 2</text>
<polygon fill="#ffffff" stroke="transparent" points="278,-132.7 278,-151.7 333,-151.7 333,-132.7 278,-132.7"/>
<polygon fill="none" stroke="#000000" points="278,-132.7 278,-151.7 333,-151.7 333,-132.7 278,-132.7"/>
<text text-anchor="start" x="297.6105" y="-138.8" font-family="Helvetica,sans-Serif" font-size="11.00" fill="#000000">0 rows</text>
<polygon fill="#ffffff" stroke="transparent" points="333,-132.7 333,-151.7 371,-151.7 371,-132.7 333,-132.7"/>
<polygon fill="none" stroke="#000000" points="333,-132.7 333,-151.7 371,-151.7 371,-132.7 333,-132.7"/>
<text text-anchor="start" x="352.4053" y="-138.8" font-family="Helvetica,sans-Serif" font-size="11.00" fill="#000000">1 &gt;</text>
</a>
</g>
</g>
<!-- mo_relationship&#45;&gt;moving_object -->
<g id="edge10" class="edge">
<title>mo_relationship:w&#45;&gt;moving_object:e</title>
<path fill="none" stroke="#000000" d="M209.7364,-158.1269C185.1852,-153.458 174.3369,-150.5906 144,-155.7"/>
<polygon fill="#000000" stroke="#000000" points="216.1271,-159.2797 223.3609,-164.2428 220.0635,-159.9899 224,-160.7 224,-160.7 224,-160.7 220.0635,-159.9899 224.6391,-157.1572 216.1271,-159.2797 216.1271,-159.2797"/>
<ellipse fill="none" stroke="#000000" cx="212.9779" cy="-158.7116" rx="3.2" ry="3.2"/>
</g>
<!-- mo_relationship&#45;&gt;moving_object -->
<g id="edge11" class="edge">
<title>mo_relationship:w&#45;&gt;moving_object:e</title>
<path fill="none" stroke="#000000" d="M209.7364,-163.0567C185.1852,-166.1716 174.3369,-161.6609 144,-155.7"/>
<polygon fill="#000000" stroke="#000000" points="216.107,-162.0042 224.5869,-164.2518 220.0535,-161.3521 224,-160.7 224,-160.7 224,-160.7 220.0535,-161.3521 223.4131,-157.1482 216.107,-162.0042 216.107,-162.0042"/>
<ellipse fill="none" stroke="#000000" cx="212.9498" cy="-162.5258" rx="3.2" ry="3.2"/>
</g>
<!-- mor_aspect -->
<g id="node10" class="node">
<title>mor_aspect</title>
<g id="a_node10"><a xlink:href="../../tables/mor_aspect.html" xlink:title="mor_aspect" target="_top">
<polygon fill="#ffffff" stroke="transparent" points="467,-164.7 467,-250.7 583,-250.7 583,-164.7 467,-164.7"/>
<polygon fill="#f5f5f5" stroke="transparent" points="467,-227.7 467,-250.7 583,-250.7 583,-227.7 467,-227.7"/>
<polygon fill="none" stroke="#000000" points="467,-227.7 467,-250.7 583,-250.7 583,-227.7 467,-227.7"/>
<text text-anchor="start" x="472" y="-236.3" font-family="Helvetica,sans-Serif" font-weight="bold" font-size="11.00" fill="#000000">mor_aspect</text>
<text text-anchor="start" x="548.5219" y="-235.8" font-family="Helvetica,sans-Serif" font-size="11.00" fill="#000000">[table]</text>
<polygon fill="none" stroke="#000000" points="467,-205.7 467,-227.7 583,-227.7 583,-205.7 467,-205.7"/>
<image xlink:href="../../images/primaryKeys.png" width="11px" height="12px" preserveAspectRatio="xMinYMin meet" x="472" y="-222.7"/>
<text text-anchor="start" x="496" y="-212.8" font-family="Helvetica,sans-Serif" font-size="11.00" fill="#000000">mor_id</text>
<polygon fill="none" stroke="#000000" points="467,-183.7 467,-205.7 583,-205.7 583,-183.7 467,-183.7"/>
<image xlink:href="../../images/primaryKeys.png" width="11px" height="12px" preserveAspectRatio="xMinYMin meet" x="472" y="-200.7"/>
<text text-anchor="start" x="496" y="-190.8" font-family="Helvetica,sans-Serif" font-size="11.00" fill="#000000">aspect_id</text>
<polygon fill="#ffffff" stroke="transparent" points="467,-164.7 467,-183.7 510,-183.7 510,-164.7 467,-164.7"/>
<polygon fill="none" stroke="#000000" points="467,-164.7 467,-183.7 510,-183.7 510,-164.7 467,-164.7"/>
<text text-anchor="start" x="470" y="-170.8" font-family="Helvetica,sans-Serif" font-size="11.00" fill="#000000">&lt; 2</text>
<polygon fill="#ffffff" stroke="transparent" points="510,-164.7 510,-183.7 559,-183.7 559,-164.7 510,-164.7"/>
<polygon fill="none" stroke="#000000" points="510,-164.7 510,-183.7 559,-183.7 559,-164.7 510,-164.7"/>
<text text-anchor="start" x="523.6105" y="-170.8" font-family="Helvetica,sans-Serif" font-size="11.00" fill="#000000">0 rows</text>
<polygon fill="#ffffff" stroke="transparent" points="559,-164.7 559,-183.7 583,-183.7 583,-164.7 559,-164.7"/>
<polygon fill="none" stroke="#000000" points="559,-164.7 559,-183.7 583,-183.7 583,-164.7 559,-164.7"/>
<text text-anchor="start" x="573.8862" y="-170.8" font-family="Helvetica,sans-Serif" font-size="11.00" fill="#000000"> &#160;</text>
</a>
</g>
</g>
<!-- mor_aspect&#45;&gt;aspect -->
<g id="edge12" class="edge">
<title>mor_aspect:w&#45;&gt;aspect:e</title>
<path fill="none" stroke="#000000" d="M453.3578,-199.9071C408.5424,-239.7439 462.0174,-494.7 399,-494.7"/>
<polygon fill="#000000" stroke="#000000" points="459.5259,-197.5528 468.2838,-198.0633 463.263,-196.1264 467,-194.7 467,-194.7 467,-194.7 463.263,-196.1264 465.7162,-191.3367 459.5259,-197.5528 459.5259,-197.5528"/>
<ellipse fill="none" stroke="#000000" cx="456.5363" cy="-198.6939" rx="3.2" ry="3.2"/>
</g>
<!-- mor_aspect&#45;&gt;mo_relationship -->
<g id="edge13" class="edge">
<title>mor_aspect:w&#45;&gt;mo_relationship:e</title>
<path fill="none" stroke="#000000" d="M452.5285,-214.8368C417.5908,-205.1199 414.9927,-160.7 371,-160.7"/>
<polygon fill="#000000" stroke="#000000" points="459.0655,-215.6784 466.5403,-220.2705 463.0327,-216.1892 467,-216.7 467,-216.7 467,-216.7 463.0327,-216.1892 467.4597,-213.1295 459.0655,-215.6784 459.0655,-215.6784"/>
<ellipse fill="none" stroke="#000000" cx="455.8917" cy="-215.2697" rx="3.2" ry="3.2"/>
</g>
<!-- point_aspect -->
<g id="node11" class="node">
<title>point_aspect</title>
<g id="a_node11"><a xlink:href="../../tables/point_aspect.html" xlink:title="point_aspect" target="_top">
<polygon fill="#ffffff" stroke="transparent" points="462.5,-549.7 462.5,-635.7 587.5,-635.7 587.5,-549.7 462.5,-549.7"/>
<polygon fill="#f5f5f5" stroke="transparent" points="463,-612.7 463,-635.7 588,-635.7 588,-612.7 463,-612.7"/>
<polygon fill="none" stroke="#000000" points="463,-612.7 463,-635.7 588,-635.7 588,-612.7 463,-612.7"/>
<text text-anchor="start" x="468" y="-621.3" font-family="Helvetica,sans-Serif" font-weight="bold" font-size="11.00" fill="#000000">point_aspect</text>
<text text-anchor="start" x="553.5219" y="-620.8" font-family="Helvetica,sans-Serif" font-size="11.00" fill="#000000">[table]</text>
<polygon fill="none" stroke="#000000" points="463,-590.7 463,-612.7 588,-612.7 588,-590.7 463,-590.7"/>
<image xlink:href="../../images/primaryKeys.png" width="11px" height="12px" preserveAspectRatio="xMinYMin meet" x="468" y="-607.7"/>
<text text-anchor="start" x="492" y="-597.8" font-family="Helvetica,sans-Serif" font-size="11.00" fill="#000000">point_id</text>
<polygon fill="none" stroke="#000000" points="463,-568.7 463,-590.7 588,-590.7 588,-568.7 463,-568.7"/>
<image xlink:href="../../images/primaryKeys.png" width="11px" height="12px" preserveAspectRatio="xMinYMin meet" x="468" y="-585.7"/>
<text text-anchor="start" x="492" y="-575.8" font-family="Helvetica,sans-Serif" font-size="11.00" fill="#000000">aspect_id</text>
<polygon fill="#ffffff" stroke="transparent" points="463,-549.7 463,-568.7 494,-568.7 494,-549.7 463,-549.7"/>
<polygon fill="none" stroke="#000000" points="463,-549.7 463,-568.7 494,-568.7 494,-549.7 463,-549.7"/>
<text text-anchor="start" x="466" y="-555.8" font-family="Helvetica,sans-Serif" font-size="11.00" fill="#000000">&lt; 1</text>
<polygon fill="#ffffff" stroke="transparent" points="494,-549.7 494,-568.7 571,-568.7 571,-549.7 494,-549.7"/>
<polygon fill="none" stroke="#000000" points="494,-549.7 494,-568.7 571,-568.7 571,-549.7 494,-549.7"/>
<text text-anchor="start" x="501.9791" y="-555.8" font-family="Helvetica,sans-Serif" font-size="11.00" fill="#000000">800.114 rows</text>
<polygon fill="#ffffff" stroke="transparent" points="571,-549.7 571,-568.7 588,-568.7 588,-549.7 571,-549.7"/>
<polygon fill="none" stroke="#000000" points="571,-549.7 571,-568.7 588,-568.7 588,-549.7 571,-549.7"/>
<text text-anchor="start" x="578.8862" y="-555.8" font-family="Helvetica,sans-Serif" font-size="11.00" fill="#000000"> &#160;</text>
</a>
</g>
</g>
<!-- point_aspect&#45;&gt;aspect -->
<g id="edge14" class="edge">
<title>point_aspect:w&#45;&gt;aspect:e</title>
<path fill="none" stroke="#000000" d="M448.9697,-576.2626C421.9748,-560.3605 440.5626,-494.7 399,-494.7"/>
<polygon fill="#000000" stroke="#000000" points="455.2298,-577.7963 462.1433,-583.1966 459.1149,-578.7481 463,-579.7 463,-579.7 463,-579.7 459.1149,-578.7481 463.8567,-576.2034 455.2298,-577.7963 455.2298,-577.7963"/>
<ellipse fill="none" stroke="#000000" cx="452.1217" cy="-577.0348" rx="3.2" ry="3.2"/>
</g>
</g>
</svg>
