<?xml version="1.0" encoding="UTF-8" standalone="no"?>
<!DOCTYPE svg PUBLIC "-//W3C//DTD SVG 1.1//EN"
 "http://www.w3.org/Graphics/SVG/1.1/DTD/svg11.dtd">
<!-- Generated by graphviz version 2.40.1 (20161225.0304)
 -->
<!-- Title: oneDegreeRelationshipsDiagram Pages: 1 -->
<svg width="398pt" height="325pt"
 viewBox="0.00 0.00 398.17 325.20" xmlns="http://www.w3.org/2000/svg" xmlns:xlink="http://www.w3.org/1999/xlink">
<g id="graph0" class="graph" transform="scale(1 1) rotate(0) translate(4 321.2)">
<title>oneDegreeRelationshipsDiagram</title>
<polygon fill="#ffffff" stroke="transparent" points="-4,4 -4,-321.2 394.1663,-321.2 394.1663,4 -4,4"/>
<text text-anchor="middle" x="72.4936" y="-7.3" font-family="Helvetica,sans-Serif" font-size="11.00" fill="#000000">Generated by SchemaSpy</text>
<!-- aspect -->
<g id="node1" class="node">
<title>aspect</title>
<g id="a_node1"><a xlink:href="../../tables/aspect.html" xlink:title="aspect" target="_top">
<polygon fill="#ffffff" stroke="transparent" points="262.1663,-186.2 262.1663,-313.2 382.1663,-313.2 382.1663,-186.2 262.1663,-186.2"/>
<polygon fill="#f5f5f5" stroke="transparent" points="262.1663,-289.7 262.1663,-312.7 382.1663,-312.7 382.1663,-289.7 262.1663,-289.7"/>
<polygon fill="none" stroke="#000000" points="262.1663,-289.7 262.1663,-312.7 382.1663,-312.7 382.1663,-289.7 262.1663,-289.7"/>
<text text-anchor="start" x="267.1663" y="-298.3" font-family="Helvetica,sans-Serif" font-weight="bold" font-size="11.00" fill="#000000">aspect</text>
<text text-anchor="start" x="347.21" y="-297.8" font-family="Helvetica,sans-Serif" font-size="11.00" fill="#000000">[table]</text>
<polygon fill="none" stroke="#000000" points="262.1663,-267.7 262.1663,-289.7 382.1663,-289.7 382.1663,-267.7 262.1663,-267.7"/>
<image xlink:href="../../images/primaryKeys.png" width="11px" height="12px" preserveAspectRatio="xMinYMin meet" x="267.166" y="-284.7"/>
<text text-anchor="start" x="282.1663" y="-274.8" font-family="Helvetica,sans-Serif" font-size="11.00" fill="#000000">aspect_id</text>
<polygon fill="#ffffff" stroke="transparent" points="262.1663,-245.7 262.1663,-267.7 382.1663,-267.7 382.1663,-245.7 262.1663,-245.7"/>
<polygon fill="none" stroke="#000000" points="262.1663,-245.7 262.1663,-267.7 382.1663,-267.7 382.1663,-245.7 262.1663,-245.7"/>
<text text-anchor="start" x="282.1663" y="-252.8" font-family="Helvetica,sans-Serif" font-size="11.00" fill="#000000">description</text>
<polygon fill="#ffffff" stroke="transparent" points="262.1663,-223.7 262.1663,-245.7 382.1663,-245.7 382.1663,-223.7 262.1663,-223.7"/>
<polygon fill="none" stroke="#000000" points="262.1663,-223.7 262.1663,-245.7 382.1663,-245.7 382.1663,-223.7 262.1663,-223.7"/>
<image xlink:href="../../images/foreignKeys.png" width="11px" height="12px" preserveAspectRatio="xMinYMin meet" x="267.166" y="-240.7"/>
<text text-anchor="start" x="282.1663" y="-230.8" font-family="Helvetica,sans-Serif" font-size="11.00" fill="#000000">aspect_type_id</text>
<polygon fill="none" stroke="#000000" points="262.1663,-204.7 262.1663,-223.7 382.1663,-223.7 382.1663,-204.7 262.1663,-204.7"/>
<text text-anchor="start" x="265.1663" y="-210.8" font-family="Helvetica,sans-Serif" font-size="11.00" fill="#000000">...</text>
<polygon fill="#ffffff" stroke="transparent" points="262.1663,-185.7 262.1663,-204.7 286.1663,-204.7 286.1663,-185.7 262.1663,-185.7"/>
<polygon fill="none" stroke="#000000" points="262.1663,-185.7 262.1663,-204.7 286.1663,-204.7 286.1663,-185.7 262.1663,-185.7"/>
<text text-anchor="start" x="265.1663" y="-191.8" font-family="Helvetica,sans-Serif" font-size="11.00" fill="#000000">&lt; 1</text>
<polygon fill="#ffffff" stroke="transparent" points="286.1663,-185.7 286.1663,-204.7 359.1663,-204.7 359.1663,-185.7 286.1663,-185.7"/>
<polygon fill="none" stroke="#000000" points="286.1663,-185.7 286.1663,-204.7 359.1663,-204.7 359.1663,-185.7 286.1663,-185.7"/>
<text text-anchor="start" x="290.1454" y="-191.8" font-family="Helvetica,sans-Serif" font-size="11.00" fill="#000000">100.191 rows</text>
<polygon fill="#ffffff" stroke="transparent" points="359.1663,-185.7 359.1663,-204.7 382.1663,-204.7 382.1663,-185.7 359.1663,-185.7"/>
<polygon fill="none" stroke="#000000" points="359.1663,-185.7 359.1663,-204.7 382.1663,-204.7 382.1663,-185.7 359.1663,-185.7"/>
<text text-anchor="start" x="363.5716" y="-191.8" font-family="Helvetica,sans-Serif" font-size="11.00" fill="#000000">5 &gt;</text>
</a>
</g>
</g>
<!-- aspect_type -->
<g id="node2" class="node">
<title>aspect_type</title>
<g id="a_node2"><a xlink:href="../../tables/aspect_type.html" xlink:title="aspect_type" target="_top">
<polygon fill="#ffffff" stroke="transparent" points="28.1663,-95.7 28.1663,-207.7 213.1663,-207.7 213.1663,-95.7 28.1663,-95.7"/>
<polygon fill="#f5f5f5" stroke="transparent" points="30.6663,-182.7 30.6663,-205.7 211.6663,-205.7 211.6663,-182.7 30.6663,-182.7"/>
<polygon fill="none" stroke="#000000" points="30.6663,-182.7 30.6663,-205.7 211.6663,-205.7 211.6663,-182.7 30.6663,-182.7"/>
<text text-anchor="start" x="35.6663" y="-191.3" font-family="Helvetica,sans-Serif" font-weight="bold" font-size="11.00" fill="#000000">aspect_type</text>
<text text-anchor="start" x="176.71" y="-190.8" font-family="Helvetica,sans-Serif" font-size="11.00" fill="#000000">[table]</text>
<polygon fill="none" stroke="#000000" points="30.6663,-160.7 30.6663,-182.7 150.6663,-182.7 150.6663,-160.7 30.6663,-160.7"/>
<image xlink:href="../../images/primaryKeys.png" width="11px" height="12px" preserveAspectRatio="xMinYMin meet" x="35.6663" y="-177.7"/>
<text text-anchor="start" x="50.6663" y="-167.8" font-family="Helvetica,sans-Serif" font-size="11.00" fill="#000000">aspect_type_id</text>
<polygon fill="none" stroke="#000000" points="150.6663,-160.7 150.6663,-182.7 211.6663,-182.7 211.6663,-160.7 150.6663,-160.7"/>
<text text-anchor="start" x="153.6663" y="-168.4" font-family="Helvetica,sans-Serif" font-size="11.00" fill="#000000">int4[10]</text>
<polygon fill="#ffffff" stroke="transparent" points="30.6663,-138.7 30.6663,-160.7 150.6663,-160.7 150.6663,-138.7 30.6663,-138.7"/>
<polygon fill="none" stroke="#000000" points="30.6663,-138.7 30.6663,-160.7 150.6663,-160.7 150.6663,-138.7 30.6663,-138.7"/>
<image xlink:href="../../images/foreignKeys.png" width="11px" height="12px" preserveAspectRatio="xMinYMin meet" x="35.6663" y="-155.7"/>
<text text-anchor="start" x="50.6663" y="-145.8" font-family="Helvetica,sans-Serif" font-size="11.00" fill="#000000">super_type_id</text>
<polygon fill="none" stroke="#000000" points="150.6663,-138.7 150.6663,-160.7 211.6663,-160.7 211.6663,-138.7 150.6663,-138.7"/>
<text text-anchor="start" x="153.6663" y="-146.4" font-family="Helvetica,sans-Serif" font-size="11.00" fill="#000000">int4[10]</text>
<polygon fill="none" stroke="#000000" points="30.6663,-116.7 30.6663,-138.7 150.6663,-138.7 150.6663,-116.7 30.6663,-116.7"/>
<text text-anchor="start" x="50.6663" y="-123.8" font-family="Helvetica,sans-Serif" font-size="11.00" fill="#000000">description</text>
<polygon fill="none" stroke="#000000" points="150.6663,-116.7 150.6663,-138.7 211.6663,-138.7 211.6663,-116.7 150.6663,-116.7"/>
<text text-anchor="start" x="153.6603" y="-124.4" font-family="Helvetica,sans-Serif" font-size="11.00" fill="#000000">varchar[50]</text>
<polygon fill="#ffffff" stroke="transparent" points="30.6663,-97.7 30.6663,-116.7 84.6663,-116.7 84.6663,-97.7 30.6663,-97.7"/>
<polygon fill="none" stroke="#000000" points="30.6663,-97.7 30.6663,-116.7 84.6663,-116.7 84.6663,-97.7 30.6663,-97.7"/>
<text text-anchor="start" x="33.6663" y="-103.8" font-family="Helvetica,sans-Serif" font-size="11.00" fill="#000000">&lt; 1</text>
<polygon fill="#ffffff" stroke="transparent" points="84.6663,-97.7 84.6663,-116.7 150.6663,-116.7 150.6663,-97.7 84.6663,-97.7"/>
<polygon fill="none" stroke="#000000" points="84.6663,-97.7 84.6663,-116.7 150.6663,-116.7 150.6663,-97.7 84.6663,-97.7"/>
<text text-anchor="start" x="120.7768" y="-103.8" font-family="Helvetica,sans-Serif" font-size="11.00" fill="#000000">1 row</text>
<polygon fill="#ffffff" stroke="transparent" points="150.6663,-97.7 150.6663,-116.7 211.6663,-116.7 211.6663,-97.7 150.6663,-97.7"/>
<polygon fill="none" stroke="#000000" points="150.6663,-97.7 150.6663,-116.7 211.6663,-116.7 211.6663,-97.7 150.6663,-97.7"/>
<text text-anchor="start" x="193.0716" y="-103.8" font-family="Helvetica,sans-Serif" font-size="11.00" fill="#000000">3 &gt;</text>
<polygon fill="none" stroke="#000000" stroke-width="2" points="29.1663,-96.7 29.1663,-206.7 212.1663,-206.7 212.1663,-96.7 29.1663,-96.7"/>
</a>
</g>
</g>
<!-- aspect&#45;&gt;aspect_type -->
<g id="edge1" class="edge">
<title>aspect:w&#45;&gt;aspect_type:e</title>
<path fill="none" stroke="#000000" d="M248.1479,-229.7565C231.9044,-214.9048 241.3838,-171.7 211.6663,-171.7"/>
<polygon fill="#000000" stroke="#000000" points="254.6217,-232.0394 260.9691,-238.0951 258.394,-233.3697 262.1663,-234.7 262.1663,-234.7 262.1663,-234.7 258.394,-233.3697 263.3636,-231.3049 254.6217,-232.0394 254.6217,-232.0394"/>
<ellipse fill="none" stroke="#000000" cx="251.6038" cy="-230.9752" rx="3.2" ry="3.2"/>
</g>
<!-- aspect_type&#45;&gt;aspect_type -->
<g id="edge2" class="edge">
<title>aspect_type:w&#45;&gt;aspect_type:e</title>
<path fill="none" stroke="#000000" d="M17.9968,-157.1746C-18.0988,-183.088 -6.1618,-224.7 121.1663,-224.7 261.6663,-224.7 261.6663,-196.0333 211.6663,-171.7"/>
<polygon fill="#000000" stroke="#000000" points="23.7761,-153.7651 32.4956,-152.8006 27.2212,-151.7325 30.6663,-149.7 30.6663,-149.7 30.6663,-149.7 27.2212,-151.7325 28.8371,-146.5994 23.7761,-153.7651 23.7761,-153.7651"/>
<ellipse fill="none" stroke="#000000" cx="21.02" cy="-155.3911" rx="3.2" ry="3.2"/>
</g>
<!-- attribute -->
<g id="node3" class="node">
<title>attribute</title>
<g id="a_node3"><a xlink:href="../../tables/attribute.html" xlink:title="attribute" target="_top">
<polygon fill="#ffffff" stroke="transparent" points="262.1663,-38.2 262.1663,-165.2 382.1663,-165.2 382.1663,-38.2 262.1663,-38.2"/>
<polygon fill="#f5f5f5" stroke="transparent" points="262.1663,-141.7 262.1663,-164.7 382.1663,-164.7 382.1663,-141.7 262.1663,-141.7"/>
<polygon fill="none" stroke="#000000" points="262.1663,-141.7 262.1663,-164.7 382.1663,-164.7 382.1663,-141.7 262.1663,-141.7"/>
<text text-anchor="start" x="267.1663" y="-150.3" font-family="Helvetica,sans-Serif" font-weight="bold" font-size="11.00" fill="#000000">attribute</text>
<text text-anchor="start" x="347.21" y="-149.8" font-family="Helvetica,sans-Serif" font-size="11.00" fill="#000000">[table]</text>
<polygon fill="none" stroke="#000000" points="262.1663,-119.7 262.1663,-141.7 382.1663,-141.7 382.1663,-119.7 262.1663,-119.7"/>
<image xlink:href="../../images/primaryKeys.png" width="11px" height="12px" preserveAspectRatio="xMinYMin meet" x="267.166" y="-136.7"/>
<text text-anchor="start" x="282.1663" y="-126.8" font-family="Helvetica,sans-Serif" font-size="11.00" fill="#000000">attribute_id</text>
<polygon fill="#ffffff" stroke="transparent" points="262.1663,-97.7 262.1663,-119.7 382.1663,-119.7 382.1663,-97.7 262.1663,-97.7"/>
<polygon fill="none" stroke="#000000" points="262.1663,-97.7 262.1663,-119.7 382.1663,-119.7 382.1663,-97.7 262.1663,-97.7"/>
<image xlink:href="../../images/foreignKeys.png" width="11px" height="12px" preserveAspectRatio="xMinYMin meet" x="267.166" y="-114.7"/>
<text text-anchor="start" x="282.1663" y="-104.8" font-family="Helvetica,sans-Serif" font-size="11.00" fill="#000000">aspect_type_id</text>
<polygon fill="#ffffff" stroke="transparent" points="262.1663,-75.7 262.1663,-97.7 382.1663,-97.7 382.1663,-75.7 262.1663,-75.7"/>
<polygon fill="none" stroke="#000000" points="262.1663,-75.7 262.1663,-97.7 382.1663,-97.7 382.1663,-75.7 262.1663,-75.7"/>
<image xlink:href="../../images/foreignKeys.png" width="11px" height="12px" preserveAspectRatio="xMinYMin meet" x="267.166" y="-92.7"/>
<text text-anchor="start" x="282.1663" y="-82.8" font-family="Helvetica,sans-Serif" font-size="11.00" fill="#000000">data_type_id</text>
<polygon fill="none" stroke="#000000" points="262.1663,-56.7 262.1663,-75.7 382.1663,-75.7 382.1663,-56.7 262.1663,-56.7"/>
<text text-anchor="start" x="265.1663" y="-62.8" font-family="Helvetica,sans-Serif" font-size="11.00" fill="#000000">...</text>
<polygon fill="#ffffff" stroke="transparent" points="262.1663,-37.7 262.1663,-56.7 303.1663,-56.7 303.1663,-37.7 262.1663,-37.7"/>
<polygon fill="none" stroke="#000000" points="262.1663,-37.7 262.1663,-56.7 303.1663,-56.7 303.1663,-37.7 262.1663,-37.7"/>
<text text-anchor="start" x="265.1663" y="-43.8" font-family="Helvetica,sans-Serif" font-size="11.00" fill="#000000">&lt; 2</text>
<polygon fill="#ffffff" stroke="transparent" points="303.1663,-37.7 303.1663,-56.7 351.1663,-56.7 351.1663,-37.7 303.1663,-37.7"/>
<polygon fill="none" stroke="#000000" points="303.1663,-37.7 303.1663,-56.7 351.1663,-56.7 351.1663,-37.7 303.1663,-37.7"/>
<text text-anchor="start" x="315.7768" y="-43.8" font-family="Helvetica,sans-Serif" font-size="11.00" fill="#000000">2 rows</text>
<polygon fill="#ffffff" stroke="transparent" points="351.1663,-37.7 351.1663,-56.7 382.1663,-56.7 382.1663,-37.7 351.1663,-37.7"/>
<polygon fill="none" stroke="#000000" points="351.1663,-37.7 351.1663,-56.7 382.1663,-56.7 382.1663,-37.7 351.1663,-37.7"/>
<text text-anchor="start" x="363.5716" y="-43.8" font-family="Helvetica,sans-Serif" font-size="11.00" fill="#000000">1 &gt;</text>
</a>
</g>
</g>
<!-- attribute&#45;&gt;aspect_type -->
<g id="edge3" class="edge">
<title>attribute:w&#45;&gt;aspect_type:e</title>
<path fill="none" stroke="#000000" d="M248.1479,-113.6435C231.9044,-128.4952 241.3838,-171.7 211.6663,-171.7"/>
<polygon fill="#000000" stroke="#000000" points="254.6217,-111.3606 263.3636,-112.0951 258.394,-110.0303 262.1663,-108.7 262.1663,-108.7 262.1663,-108.7 258.394,-110.0303 260.9691,-105.3049 254.6217,-111.3606 254.6217,-111.3606"/>
<ellipse fill="none" stroke="#000000" cx="251.6038" cy="-112.4248" rx="3.2" ry="3.2"/>
</g>
</g>
</svg>
