<?xml version="1.0" encoding="UTF-8" standalone="no"?>
<!DOCTYPE svg PUBLIC "-//W3C//DTD SVG 1.1//EN"
 "http://www.w3.org/Graphics/SVG/1.1/DTD/svg11.dtd">
<!-- Generated by graphviz version 2.40.1 (20161225.0304)
 -->
<!-- Title: twoDegreesRelationshipsDiagram Pages: 1 -->
<svg width="597pt" height="443pt"
 viewBox="0.00 0.00 597.17 442.84" xmlns="http://www.w3.org/2000/svg" xmlns:xlink="http://www.w3.org/1999/xlink">
<g id="graph0" class="graph" transform="scale(1 1) rotate(0) translate(4 438.8436)">
<title>twoDegreesRelationshipsDiagram</title>
<polygon fill="#ffffff" stroke="transparent" points="-4,4 -4,-438.8436 593.1663,-438.8436 593.1663,4 -4,4"/>
<text text-anchor="middle" x="72.4936" y="-7.3" font-family="Helvetica,sans-Serif" font-size="11.00" fill="#000000">Generated by SchemaSpy</text>
<!-- aspect -->
<g id="node1" class="node">
<title>aspect</title>
<g id="a_node1"><a xlink:href="../../tables/aspect.html" xlink:title="aspect" target="_top">
<polygon fill="#ffffff" stroke="transparent" points="262.1663,-137.2 262.1663,-264.2 382.1663,-264.2 382.1663,-137.2 262.1663,-137.2"/>
<polygon fill="#f5f5f5" stroke="transparent" points="262.1663,-240.7 262.1663,-263.7 382.1663,-263.7 382.1663,-240.7 262.1663,-240.7"/>
<polygon fill="none" stroke="#000000" points="262.1663,-240.7 262.1663,-263.7 382.1663,-263.7 382.1663,-240.7 262.1663,-240.7"/>
<text text-anchor="start" x="267.1663" y="-249.3" font-family="Helvetica,sans-Serif" font-weight="bold" font-size="11.00" fill="#000000">aspect</text>
<text text-anchor="start" x="347.21" y="-248.8" font-family="Helvetica,sans-Serif" font-size="11.00" fill="#000000">[table]</text>
<polygon fill="none" stroke="#000000" points="262.1663,-218.7 262.1663,-240.7 382.1663,-240.7 382.1663,-218.7 262.1663,-218.7"/>
<image xlink:href="../../images/primaryKeys.png" width="11px" height="12px" preserveAspectRatio="xMinYMin meet" x="267.166" y="-235.7"/>
<text text-anchor="start" x="282.1663" y="-225.8" font-family="Helvetica,sans-Serif" font-size="11.00" fill="#000000">aspect_id</text>
<polygon fill="#ffffff" stroke="transparent" points="262.1663,-196.7 262.1663,-218.7 382.1663,-218.7 382.1663,-196.7 262.1663,-196.7"/>
<polygon fill="none" stroke="#000000" points="262.1663,-196.7 262.1663,-218.7 382.1663,-218.7 382.1663,-196.7 262.1663,-196.7"/>
<text text-anchor="start" x="282.1663" y="-203.8" font-family="Helvetica,sans-Serif" font-size="11.00" fill="#000000">description</text>
<polygon fill="#ffffff" stroke="transparent" points="262.1663,-174.7 262.1663,-196.7 382.1663,-196.7 382.1663,-174.7 262.1663,-174.7"/>
<polygon fill="none" stroke="#000000" points="262.1663,-174.7 262.1663,-196.7 382.1663,-196.7 382.1663,-174.7 262.1663,-174.7"/>
<image xlink:href="../../images/foreignKeys.png" width="11px" height="12px" preserveAspectRatio="xMinYMin meet" x="267.166" y="-191.7"/>
<text text-anchor="start" x="282.1663" y="-181.8" font-family="Helvetica,sans-Serif" font-size="11.00" fill="#000000">aspect_type_id</text>
<polygon fill="none" stroke="#000000" points="262.1663,-155.7 262.1663,-174.7 382.1663,-174.7 382.1663,-155.7 262.1663,-155.7"/>
<text text-anchor="start" x="265.1663" y="-161.8" font-family="Helvetica,sans-Serif" font-size="11.00" fill="#000000">...</text>
<polygon fill="#ffffff" stroke="transparent" points="262.1663,-136.7 262.1663,-155.7 286.1663,-155.7 286.1663,-136.7 262.1663,-136.7"/>
<polygon fill="none" stroke="#000000" points="262.1663,-136.7 262.1663,-155.7 286.1663,-155.7 286.1663,-136.7 262.1663,-136.7"/>
<text text-anchor="start" x="265.1663" y="-142.8" font-family="Helvetica,sans-Serif" font-size="11.00" fill="#000000">&lt; 1</text>
<polygon fill="#ffffff" stroke="transparent" points="286.1663,-136.7 286.1663,-155.7 359.1663,-155.7 359.1663,-136.7 286.1663,-136.7"/>
<polygon fill="none" stroke="#000000" points="286.1663,-136.7 286.1663,-155.7 359.1663,-155.7 359.1663,-136.7 286.1663,-136.7"/>
<text text-anchor="start" x="290.1454" y="-142.8" font-family="Helvetica,sans-Serif" font-size="11.00" fill="#000000">100.191 rows</text>
<polygon fill="#ffffff" stroke="transparent" points="359.1663,-136.7 359.1663,-155.7 382.1663,-155.7 382.1663,-136.7 359.1663,-136.7"/>
<polygon fill="none" stroke="#000000" points="359.1663,-136.7 359.1663,-155.7 382.1663,-155.7 382.1663,-136.7 359.1663,-136.7"/>
<text text-anchor="start" x="363.5716" y="-142.8" font-family="Helvetica,sans-Serif" font-size="11.00" fill="#000000">5 &gt;</text>
</a>
</g>
</g>
<!-- aspect_type -->
<g id="node2" class="node">
<title>aspect_type</title>
<g id="a_node2"><a xlink:href="../../tables/aspect_type.html" xlink:title="aspect_type" target="_top">
<polygon fill="#ffffff" stroke="transparent" points="28.1663,-183.7 28.1663,-295.7 213.1663,-295.7 213.1663,-183.7 28.1663,-183.7"/>
<polygon fill="#f5f5f5" stroke="transparent" points="30.6663,-270.7 30.6663,-293.7 211.6663,-293.7 211.6663,-270.7 30.6663,-270.7"/>
<polygon fill="none" stroke="#000000" points="30.6663,-270.7 30.6663,-293.7 211.6663,-293.7 211.6663,-270.7 30.6663,-270.7"/>
<text text-anchor="start" x="35.6663" y="-279.3" font-family="Helvetica,sans-Serif" font-weight="bold" font-size="11.00" fill="#000000">aspect_type</text>
<text text-anchor="start" x="176.71" y="-278.8" font-family="Helvetica,sans-Serif" font-size="11.00" fill="#000000">[table]</text>
<polygon fill="none" stroke="#000000" points="30.6663,-248.7 30.6663,-270.7 150.6663,-270.7 150.6663,-248.7 30.6663,-248.7"/>
<image xlink:href="../../images/primaryKeys.png" width="11px" height="12px" preserveAspectRatio="xMinYMin meet" x="35.6663" y="-265.7"/>
<text text-anchor="start" x="50.6663" y="-255.8" font-family="Helvetica,sans-Serif" font-size="11.00" fill="#000000">aspect_type_id</text>
<polygon fill="none" stroke="#000000" points="150.6663,-248.7 150.6663,-270.7 211.6663,-270.7 211.6663,-248.7 150.6663,-248.7"/>
<text text-anchor="start" x="153.6663" y="-256.4" font-family="Helvetica,sans-Serif" font-size="11.00" fill="#000000">int4[10]</text>
<polygon fill="#ffffff" stroke="transparent" points="30.6663,-226.7 30.6663,-248.7 150.6663,-248.7 150.6663,-226.7 30.6663,-226.7"/>
<polygon fill="none" stroke="#000000" points="30.6663,-226.7 30.6663,-248.7 150.6663,-248.7 150.6663,-226.7 30.6663,-226.7"/>
<image xlink:href="../../images/foreignKeys.png" width="11px" height="12px" preserveAspectRatio="xMinYMin meet" x="35.6663" y="-243.7"/>
<text text-anchor="start" x="50.6663" y="-233.8" font-family="Helvetica,sans-Serif" font-size="11.00" fill="#000000">super_type_id</text>
<polygon fill="none" stroke="#000000" points="150.6663,-226.7 150.6663,-248.7 211.6663,-248.7 211.6663,-226.7 150.6663,-226.7"/>
<text text-anchor="start" x="153.6663" y="-234.4" font-family="Helvetica,sans-Serif" font-size="11.00" fill="#000000">int4[10]</text>
<polygon fill="none" stroke="#000000" points="30.6663,-204.7 30.6663,-226.7 150.6663,-226.7 150.6663,-204.7 30.6663,-204.7"/>
<text text-anchor="start" x="50.6663" y="-211.8" font-family="Helvetica,sans-Serif" font-size="11.00" fill="#000000">description</text>
<polygon fill="none" stroke="#000000" points="150.6663,-204.7 150.6663,-226.7 211.6663,-226.7 211.6663,-204.7 150.6663,-204.7"/>
<text text-anchor="start" x="153.6603" y="-212.4" font-family="Helvetica,sans-Serif" font-size="11.00" fill="#000000">varchar[50]</text>
<polygon fill="#ffffff" stroke="transparent" points="30.6663,-185.7 30.6663,-204.7 84.6663,-204.7 84.6663,-185.7 30.6663,-185.7"/>
<polygon fill="none" stroke="#000000" points="30.6663,-185.7 30.6663,-204.7 84.6663,-204.7 84.6663,-185.7 30.6663,-185.7"/>
<text text-anchor="start" x="33.6663" y="-191.8" font-family="Helvetica,sans-Serif" font-size="11.00" fill="#000000">&lt; 1</text>
<polygon fill="#ffffff" stroke="transparent" points="84.6663,-185.7 84.6663,-204.7 150.6663,-204.7 150.6663,-185.7 84.6663,-185.7"/>
<polygon fill="none" stroke="#000000" points="84.6663,-185.7 84.6663,-204.7 150.6663,-204.7 150.6663,-185.7 84.6663,-185.7"/>
<text text-anchor="start" x="120.7768" y="-191.8" font-family="Helvetica,sans-Serif" font-size="11.00" fill="#000000">1 row</text>
<polygon fill="#ffffff" stroke="transparent" points="150.6663,-185.7 150.6663,-204.7 211.6663,-204.7 211.6663,-185.7 150.6663,-185.7"/>
<polygon fill="none" stroke="#000000" points="150.6663,-185.7 150.6663,-204.7 211.6663,-204.7 211.6663,-185.7 150.6663,-185.7"/>
<text text-anchor="start" x="193.0716" y="-191.8" font-family="Helvetica,sans-Serif" font-size="11.00" fill="#000000">3 &gt;</text>
<polygon fill="none" stroke="#000000" stroke-width="2" points="29.1663,-184.7 29.1663,-294.7 212.1663,-294.7 212.1663,-184.7 29.1663,-184.7"/>
</a>
</g>
</g>
<!-- aspect&#45;&gt;aspect_type -->
<g id="edge1" class="edge">
<title>aspect:w&#45;&gt;aspect_type:e</title>
<path fill="none" stroke="#000000" d="M248.2818,-190.329C229.6256,-206.5294 245.4179,-259.7 211.6663,-259.7"/>
<polygon fill="#000000" stroke="#000000" points="254.577,-188.2303 263.305,-189.1152 258.3717,-186.9651 262.1663,-185.7 262.1663,-185.7 262.1663,-185.7 258.3717,-186.9651 261.0277,-182.2848 254.577,-188.2303 254.577,-188.2303"/>
<ellipse fill="none" stroke="#000000" cx="251.5413" cy="-189.2424" rx="3.2" ry="3.2"/>
</g>
<!-- aspect_type&#45;&gt;aspect_type -->
<g id="edge5" class="edge">
<title>aspect_type:w&#45;&gt;aspect_type:e</title>
<path fill="none" stroke="#000000" d="M17.9968,-245.1746C-18.0988,-271.088 -6.1618,-312.7 121.1663,-312.7 261.6663,-312.7 261.6663,-284.0333 211.6663,-259.7"/>
<polygon fill="#000000" stroke="#000000" points="23.7761,-241.7651 32.4956,-240.8006 27.2212,-239.7325 30.6663,-237.7 30.6663,-237.7 30.6663,-237.7 27.2212,-239.7325 28.8371,-234.5994 23.7761,-241.7651 23.7761,-241.7651"/>
<ellipse fill="none" stroke="#000000" cx="21.02" cy="-243.3911" rx="3.2" ry="3.2"/>
</g>
<!-- aspect_attribute -->
<g id="node3" class="node">
<title>aspect_attribute</title>
<g id="a_node3"><a xlink:href="../../tables/aspect_attribute.html" xlink:title="aspect_attribute" target="_top">
<polygon fill="#ffffff" stroke="transparent" points="431.1663,-366.2 431.1663,-427.2 581.1663,-427.2 581.1663,-366.2 431.1663,-366.2"/>
<polygon fill="#f5f5f5" stroke="transparent" points="431.1663,-403.7 431.1663,-426.7 581.1663,-426.7 581.1663,-403.7 431.1663,-403.7"/>
<polygon fill="none" stroke="#000000" points="431.1663,-403.7 431.1663,-426.7 581.1663,-426.7 581.1663,-403.7 431.1663,-403.7"/>
<text text-anchor="start" x="436.1663" y="-412.3" font-family="Helvetica,sans-Serif" font-weight="bold" font-size="11.00" fill="#000000">aspect_attribute</text>
<text text-anchor="start" x="546.6882" y="-411.8" font-family="Helvetica,sans-Serif" font-size="11.00" fill="#000000">[table]</text>
<polygon fill="none" stroke="#000000" points="431.1663,-384.7 431.1663,-403.7 581.1663,-403.7 581.1663,-384.7 431.1663,-384.7"/>
<text text-anchor="start" x="434.1663" y="-390.8" font-family="Helvetica,sans-Serif" font-size="11.00" fill="#000000">...</text>
<polygon fill="#ffffff" stroke="transparent" points="431.1663,-365.7 431.1663,-384.7 474.1663,-384.7 474.1663,-365.7 431.1663,-365.7"/>
<polygon fill="none" stroke="#000000" points="431.1663,-365.7 431.1663,-384.7 474.1663,-384.7 474.1663,-365.7 431.1663,-365.7"/>
<text text-anchor="start" x="434.1663" y="-371.8" font-family="Helvetica,sans-Serif" font-size="11.00" fill="#000000">&lt; 3</text>
<polygon fill="#ffffff" stroke="transparent" points="474.1663,-365.7 474.1663,-384.7 557.1663,-384.7 557.1663,-365.7 474.1663,-365.7"/>
<polygon fill="none" stroke="#000000" points="474.1663,-365.7 474.1663,-384.7 557.1663,-384.7 557.1663,-365.7 474.1663,-365.7"/>
<text text-anchor="start" x="488.1454" y="-371.8" font-family="Helvetica,sans-Serif" font-size="11.00" fill="#000000">200.382 rows</text>
<polygon fill="#ffffff" stroke="transparent" points="557.1663,-365.7 557.1663,-384.7 581.1663,-384.7 581.1663,-365.7 557.1663,-365.7"/>
<polygon fill="none" stroke="#000000" points="557.1663,-365.7 557.1663,-384.7 581.1663,-384.7 581.1663,-365.7 557.1663,-365.7"/>
<text text-anchor="start" x="572.0525" y="-371.8" font-family="Helvetica,sans-Serif" font-size="11.00" fill="#000000"> &#160;</text>
</a>
</g>
</g>
<!-- aspect_attribute&#45;&gt;aspect -->
<g id="edge2" class="edge">
<title>aspect_attribute:w&#45;&gt;aspect:e</title>
<path fill="none" stroke="#000000" d="M416.7437,-390.9903C369.7673,-369.6672 452.4445,-229.7 382.1663,-229.7"/>
<polygon fill="#000000" stroke="#000000" points="423.3039,-392.2228 430.5016,-397.2381 427.2351,-392.9614 431.1663,-393.7 431.1663,-393.7 431.1663,-393.7 427.2351,-392.9614 431.8311,-390.1619 423.3039,-392.2228 423.3039,-392.2228"/>
<ellipse fill="none" stroke="#000000" cx="420.1589" cy="-391.6319" rx="3.2" ry="3.2"/>
</g>
<!-- attribute -->
<g id="node4" class="node">
<title>attribute</title>
<g id="a_node4"><a xlink:href="../../tables/attribute.html" xlink:title="attribute" target="_top">
<polygon fill="#ffffff" stroke="transparent" points="262.1663,-285.2 262.1663,-412.2 382.1663,-412.2 382.1663,-285.2 262.1663,-285.2"/>
<polygon fill="#f5f5f5" stroke="transparent" points="262.1663,-388.7 262.1663,-411.7 382.1663,-411.7 382.1663,-388.7 262.1663,-388.7"/>
<polygon fill="none" stroke="#000000" points="262.1663,-388.7 262.1663,-411.7 382.1663,-411.7 382.1663,-388.7 262.1663,-388.7"/>
<text text-anchor="start" x="267.1663" y="-397.3" font-family="Helvetica,sans-Serif" font-weight="bold" font-size="11.00" fill="#000000">attribute</text>
<text text-anchor="start" x="347.21" y="-396.8" font-family="Helvetica,sans-Serif" font-size="11.00" fill="#000000">[table]</text>
<polygon fill="none" stroke="#000000" points="262.1663,-366.7 262.1663,-388.7 382.1663,-388.7 382.1663,-366.7 262.1663,-366.7"/>
<image xlink:href="../../images/primaryKeys.png" width="11px" height="12px" preserveAspectRatio="xMinYMin meet" x="267.166" y="-383.7"/>
<text text-anchor="start" x="282.1663" y="-373.8" font-family="Helvetica,sans-Serif" font-size="11.00" fill="#000000">attribute_id</text>
<polygon fill="#ffffff" stroke="transparent" points="262.1663,-344.7 262.1663,-366.7 382.1663,-366.7 382.1663,-344.7 262.1663,-344.7"/>
<polygon fill="none" stroke="#000000" points="262.1663,-344.7 262.1663,-366.7 382.1663,-366.7 382.1663,-344.7 262.1663,-344.7"/>
<image xlink:href="../../images/foreignKeys.png" width="11px" height="12px" preserveAspectRatio="xMinYMin meet" x="267.166" y="-361.7"/>
<text text-anchor="start" x="282.1663" y="-351.8" font-family="Helvetica,sans-Serif" font-size="11.00" fill="#000000">aspect_type_id</text>
<polygon fill="#ffffff" stroke="transparent" points="262.1663,-322.7 262.1663,-344.7 382.1663,-344.7 382.1663,-322.7 262.1663,-322.7"/>
<polygon fill="none" stroke="#000000" points="262.1663,-322.7 262.1663,-344.7 382.1663,-344.7 382.1663,-322.7 262.1663,-322.7"/>
<image xlink:href="../../images/foreignKeys.png" width="11px" height="12px" preserveAspectRatio="xMinYMin meet" x="267.166" y="-339.7"/>
<text text-anchor="start" x="282.1663" y="-329.8" font-family="Helvetica,sans-Serif" font-size="11.00" fill="#000000">data_type_id</text>
<polygon fill="none" stroke="#000000" points="262.1663,-303.7 262.1663,-322.7 382.1663,-322.7 382.1663,-303.7 262.1663,-303.7"/>
<text text-anchor="start" x="265.1663" y="-309.8" font-family="Helvetica,sans-Serif" font-size="11.00" fill="#000000">...</text>
<polygon fill="#ffffff" stroke="transparent" points="262.1663,-284.7 262.1663,-303.7 303.1663,-303.7 303.1663,-284.7 262.1663,-284.7"/>
<polygon fill="none" stroke="#000000" points="262.1663,-284.7 262.1663,-303.7 303.1663,-303.7 303.1663,-284.7 262.1663,-284.7"/>
<text text-anchor="start" x="265.1663" y="-290.8" font-family="Helvetica,sans-Serif" font-size="11.00" fill="#000000">&lt; 2</text>
<polygon fill="#ffffff" stroke="transparent" points="303.1663,-284.7 303.1663,-303.7 351.1663,-303.7 351.1663,-284.7 303.1663,-284.7"/>
<polygon fill="none" stroke="#000000" points="303.1663,-284.7 303.1663,-303.7 351.1663,-303.7 351.1663,-284.7 303.1663,-284.7"/>
<text text-anchor="start" x="315.7768" y="-290.8" font-family="Helvetica,sans-Serif" font-size="11.00" fill="#000000">2 rows</text>
<polygon fill="#ffffff" stroke="transparent" points="351.1663,-284.7 351.1663,-303.7 382.1663,-303.7 382.1663,-284.7 351.1663,-284.7"/>
<polygon fill="none" stroke="#000000" points="351.1663,-284.7 351.1663,-303.7 382.1663,-303.7 382.1663,-284.7 351.1663,-284.7"/>
<text text-anchor="start" x="363.5716" y="-290.8" font-family="Helvetica,sans-Serif" font-size="11.00" fill="#000000">1 &gt;</text>
</a>
</g>
</g>
<!-- aspect_attribute&#45;&gt;attribute -->
<g id="edge3" class="edge">
<title>aspect_attribute:w&#45;&gt;attribute:e</title>
<path fill="none" stroke="#000000" d="M416.7051,-391.0579C405.3053,-386.5135 399.1694,-377.7 382.1663,-377.7"/>
<polygon fill="#000000" stroke="#000000" points="423.2966,-392.2622 430.5193,-397.2414 427.2315,-392.9811 431.1663,-393.7 431.1663,-393.7 431.1663,-393.7 427.2315,-392.9811 431.8134,-390.1586 423.2966,-392.2622 423.2966,-392.2622"/>
<ellipse fill="none" stroke="#000000" cx="420.1487" cy="-391.687" rx="3.2" ry="3.2"/>
</g>
<!-- data_type -->
<g id="node5" class="node">
<title>data_type</title>
<g id="a_node5"><a xlink:href="../../tables/data_type.html" xlink:title="data_type" target="_top">
<polygon fill="#ffffff" stroke="transparent" points="68.1663,-357.2 68.1663,-418.2 173.1663,-418.2 173.1663,-357.2 68.1663,-357.2"/>
<polygon fill="#f5f5f5" stroke="transparent" points="68.6663,-394.7 68.6663,-417.7 173.6663,-417.7 173.6663,-394.7 68.6663,-394.7"/>
<polygon fill="none" stroke="#000000" points="68.6663,-394.7 68.6663,-417.7 173.6663,-417.7 173.6663,-394.7 68.6663,-394.7"/>
<text text-anchor="start" x="73.6663" y="-403.3" font-family="Helvetica,sans-Serif" font-weight="bold" font-size="11.00" fill="#000000">data_type</text>
<text text-anchor="start" x="139.1882" y="-402.8" font-family="Helvetica,sans-Serif" font-size="11.00" fill="#000000">[table]</text>
<polygon fill="none" stroke="#000000" points="68.6663,-375.7 68.6663,-394.7 173.6663,-394.7 173.6663,-375.7 68.6663,-375.7"/>
<text text-anchor="start" x="71.6663" y="-381.8" font-family="Helvetica,sans-Serif" font-size="11.00" fill="#000000">...</text>
<polygon fill="#ffffff" stroke="transparent" points="68.6663,-356.7 68.6663,-375.7 100.6663,-375.7 100.6663,-356.7 68.6663,-356.7"/>
<polygon fill="none" stroke="#000000" points="68.6663,-356.7 68.6663,-375.7 100.6663,-375.7 100.6663,-356.7 68.6663,-356.7"/>
<text text-anchor="start" x="71.6663" y="-362.8" font-family="Helvetica,sans-Serif" font-size="11.00" fill="#000000"> &#160;</text>
<polygon fill="#ffffff" stroke="transparent" points="100.6663,-356.7 100.6663,-375.7 142.6663,-375.7 142.6663,-356.7 100.6663,-356.7"/>
<polygon fill="none" stroke="#000000" points="100.6663,-356.7 100.6663,-375.7 142.6663,-375.7 142.6663,-356.7 100.6663,-356.7"/>
<text text-anchor="start" x="112.7768" y="-362.8" font-family="Helvetica,sans-Serif" font-size="11.00" fill="#000000">1 row</text>
<polygon fill="#ffffff" stroke="transparent" points="142.6663,-356.7 142.6663,-375.7 173.6663,-375.7 173.6663,-356.7 142.6663,-356.7"/>
<polygon fill="none" stroke="#000000" points="142.6663,-356.7 142.6663,-375.7 173.6663,-375.7 173.6663,-356.7 142.6663,-356.7"/>
<text text-anchor="start" x="155.0716" y="-362.8" font-family="Helvetica,sans-Serif" font-size="11.00" fill="#000000">2 &gt;</text>
</a>
</g>
</g>
<!-- aspect_attribute&#45;&gt;data_type -->
<g id="edge4" class="edge">
<title>aspect_attribute:w&#45;&gt;data_type:e</title>
<path fill="none" stroke="#000000" d="M417.1603,-398.1381C408.4163,-404.9846 405.4547,-417.8396 390.1663,-422.7 332.5628,-441.013 313.1471,-435.9214 254.1663,-422.7 215.5607,-414.046 213.23,-384.7 173.6663,-384.7"/>
<polygon fill="#000000" stroke="#000000" points="423.54,-396.1166 432.2538,-397.1318 427.3532,-394.9083 431.1663,-393.7 431.1663,-393.7 431.1663,-393.7 427.3532,-394.9083 430.0789,-390.2682 423.54,-396.1166 423.54,-396.1166"/>
<ellipse fill="none" stroke="#000000" cx="420.4895" cy="-397.0832" rx="3.2" ry="3.2"/>
</g>
<!-- attribute&#45;&gt;aspect_type -->
<g id="edge6" class="edge">
<title>attribute:w&#45;&gt;aspect_type:e</title>
<path fill="none" stroke="#000000" d="M248.1322,-351.575C223.9656,-333.2 253.85,-259.7 211.6663,-259.7"/>
<polygon fill="#000000" stroke="#000000" points="254.491,-353.444 261.1511,-359.1539 258.3287,-354.572 262.1663,-355.7 262.1663,-355.7 262.1663,-355.7 258.3287,-354.572 263.1815,-352.2461 254.491,-353.444 254.491,-353.444"/>
<ellipse fill="none" stroke="#000000" cx="251.4209" cy="-352.5416" rx="3.2" ry="3.2"/>
</g>
<!-- attribute&#45;&gt;data_type -->
<g id="edge7" class="edge">
<title>attribute:w&#45;&gt;data_type:e</title>
<path fill="none" stroke="#000000" d="M247.6031,-335.7624C216.6256,-345.3037 213.5661,-384.7 173.6663,-384.7"/>
<polygon fill="#000000" stroke="#000000" points="254.2454,-334.8218 262.6711,-337.2644 258.2058,-334.2609 262.1663,-333.7 262.1663,-333.7 262.1663,-333.7 258.2058,-334.2609 261.6615,-330.1356 254.2454,-334.8218 254.2454,-334.8218"/>
<ellipse fill="none" stroke="#000000" cx="251.077" cy="-335.2705" rx="3.2" ry="3.2"/>
</g>
<!-- mat_aspect -->
<g id="node6" class="node">
<title>mat_aspect</title>
<g id="a_node6"><a xlink:href="../../tables/mat_aspect.html" xlink:title="mat_aspect" target="_top">
<polygon fill="#ffffff" stroke="transparent" points="448.1663,-38.2 448.1663,-99.2 564.1663,-99.2 564.1663,-38.2 448.1663,-38.2"/>
<polygon fill="#f5f5f5" stroke="transparent" points="448.1663,-75.7 448.1663,-98.7 564.1663,-98.7 564.1663,-75.7 448.1663,-75.7"/>
<polygon fill="none" stroke="#000000" points="448.1663,-75.7 448.1663,-98.7 564.1663,-98.7 564.1663,-75.7 448.1663,-75.7"/>
<text text-anchor="start" x="453.1663" y="-84.3" font-family="Helvetica,sans-Serif" font-weight="bold" font-size="11.00" fill="#000000">mat_aspect</text>
<text text-anchor="start" x="529.6882" y="-83.8" font-family="Helvetica,sans-Serif" font-size="11.00" fill="#000000">[table]</text>
<polygon fill="none" stroke="#000000" points="448.1663,-56.7 448.1663,-75.7 564.1663,-75.7 564.1663,-56.7 448.1663,-56.7"/>
<text text-anchor="start" x="451.1663" y="-62.8" font-family="Helvetica,sans-Serif" font-size="11.00" fill="#000000">...</text>
<polygon fill="#ffffff" stroke="transparent" points="448.1663,-37.7 448.1663,-56.7 491.1663,-56.7 491.1663,-37.7 448.1663,-37.7"/>
<polygon fill="none" stroke="#000000" points="448.1663,-37.7 448.1663,-56.7 491.1663,-56.7 491.1663,-37.7 448.1663,-37.7"/>
<text text-anchor="start" x="451.1663" y="-43.8" font-family="Helvetica,sans-Serif" font-size="11.00" fill="#000000">&lt; 1</text>
<polygon fill="#ffffff" stroke="transparent" points="491.1663,-37.7 491.1663,-56.7 540.1663,-56.7 540.1663,-37.7 491.1663,-37.7"/>
<polygon fill="none" stroke="#000000" points="491.1663,-37.7 491.1663,-56.7 540.1663,-56.7 540.1663,-37.7 491.1663,-37.7"/>
<text text-anchor="start" x="504.7768" y="-43.8" font-family="Helvetica,sans-Serif" font-size="11.00" fill="#000000">0 rows</text>
<polygon fill="#ffffff" stroke="transparent" points="540.1663,-37.7 540.1663,-56.7 564.1663,-56.7 564.1663,-37.7 540.1663,-37.7"/>
<polygon fill="none" stroke="#000000" points="540.1663,-37.7 540.1663,-56.7 564.1663,-56.7 564.1663,-37.7 540.1663,-37.7"/>
<text text-anchor="start" x="555.0525" y="-43.8" font-family="Helvetica,sans-Serif" font-size="11.00" fill="#000000"> &#160;</text>
</a>
</g>
</g>
<!-- mat_aspect&#45;&gt;aspect -->
<g id="edge8" class="edge">
<title>mat_aspect:w&#45;&gt;aspect:e</title>
<path fill="none" stroke="#000000" d="M433.6634,-68.1456C381.8827,-88.5467 455.0584,-229.7 382.1663,-229.7"/>
<polygon fill="#000000" stroke="#000000" points="440.2777,-67.0303 448.765,-69.2499 444.222,-66.3651 448.1663,-65.7 448.1663,-65.7 448.1663,-65.7 444.222,-66.3651 447.5677,-62.1501 440.2777,-67.0303 440.2777,-67.0303"/>
<ellipse fill="none" stroke="#000000" cx="437.1222" cy="-67.5624" rx="3.2" ry="3.2"/>
</g>
<!-- mo_aspect -->
<g id="node7" class="node">
<title>mo_aspect</title>
<g id="a_node7"><a xlink:href="../../tables/mo_aspect.html" xlink:title="mo_aspect" target="_top">
<polygon fill="#ffffff" stroke="transparent" points="451.1663,-284.2 451.1663,-345.2 561.1663,-345.2 561.1663,-284.2 451.1663,-284.2"/>
<polygon fill="#f5f5f5" stroke="transparent" points="451.1663,-321.7 451.1663,-344.7 561.1663,-344.7 561.1663,-321.7 451.1663,-321.7"/>
<polygon fill="none" stroke="#000000" points="451.1663,-321.7 451.1663,-344.7 561.1663,-344.7 561.1663,-321.7 451.1663,-321.7"/>
<text text-anchor="start" x="456.1663" y="-330.3" font-family="Helvetica,sans-Serif" font-weight="bold" font-size="11.00" fill="#000000">mo_aspect</text>
<text text-anchor="start" x="526.6882" y="-329.8" font-family="Helvetica,sans-Serif" font-size="11.00" fill="#000000">[table]</text>
<polygon fill="none" stroke="#000000" points="451.1663,-302.7 451.1663,-321.7 561.1663,-321.7 561.1663,-302.7 451.1663,-302.7"/>
<text text-anchor="start" x="454.1663" y="-308.8" font-family="Helvetica,sans-Serif" font-size="11.00" fill="#000000">...</text>
<polygon fill="#ffffff" stroke="transparent" points="451.1663,-283.7 451.1663,-302.7 491.1663,-302.7 491.1663,-283.7 451.1663,-283.7"/>
<polygon fill="none" stroke="#000000" points="451.1663,-283.7 451.1663,-302.7 491.1663,-302.7 491.1663,-283.7 451.1663,-283.7"/>
<text text-anchor="start" x="454.1663" y="-289.8" font-family="Helvetica,sans-Serif" font-size="11.00" fill="#000000">&lt; 2</text>
<polygon fill="#ffffff" stroke="transparent" points="491.1663,-283.7 491.1663,-302.7 539.1663,-302.7 539.1663,-283.7 491.1663,-283.7"/>
<polygon fill="none" stroke="#000000" points="491.1663,-283.7 491.1663,-302.7 539.1663,-302.7 539.1663,-283.7 491.1663,-283.7"/>
<text text-anchor="start" x="503.7768" y="-289.8" font-family="Helvetica,sans-Serif" font-size="11.00" fill="#000000">0 rows</text>
<polygon fill="#ffffff" stroke="transparent" points="539.1663,-283.7 539.1663,-302.7 561.1663,-302.7 561.1663,-283.7 539.1663,-283.7"/>
<polygon fill="none" stroke="#000000" points="539.1663,-283.7 539.1663,-302.7 561.1663,-302.7 561.1663,-283.7 539.1663,-283.7"/>
<text text-anchor="start" x="552.0525" y="-289.8" font-family="Helvetica,sans-Serif" font-size="11.00" fill="#000000"> &#160;</text>
</a>
</g>
</g>
<!-- mo_aspect&#45;&gt;aspect -->
<g id="edge9" class="edge">
<title>mo_aspect:w&#45;&gt;aspect:e</title>
<path fill="none" stroke="#000000" d="M436.8513,-308.3839C408.8125,-293.043 424.0289,-229.7 382.1663,-229.7"/>
<polygon fill="#000000" stroke="#000000" points="443.3727,-309.8946 450.3539,-315.2071 447.2695,-310.7973 451.1663,-311.7 451.1663,-311.7 451.1663,-311.7 447.2695,-310.7973 451.9788,-308.1929 443.3727,-309.8946 443.3727,-309.8946"/>
<ellipse fill="none" stroke="#000000" cx="440.2553" cy="-309.1724" rx="3.2" ry="3.2"/>
</g>
<!-- mor_aspect -->
<g id="node8" class="node">
<title>mor_aspect</title>
<g id="a_node8"><a xlink:href="../../tables/mor_aspect.html" xlink:title="mor_aspect" target="_top">
<polygon fill="#ffffff" stroke="transparent" points="448.1663,-202.2 448.1663,-263.2 564.1663,-263.2 564.1663,-202.2 448.1663,-202.2"/>
<polygon fill="#f5f5f5" stroke="transparent" points="448.1663,-239.7 448.1663,-262.7 564.1663,-262.7 564.1663,-239.7 448.1663,-239.7"/>
<polygon fill="none" stroke="#000000" points="448.1663,-239.7 448.1663,-262.7 564.1663,-262.7 564.1663,-239.7 448.1663,-239.7"/>
<text text-anchor="start" x="453.1663" y="-248.3" font-family="Helvetica,sans-Serif" font-weight="bold" font-size="11.00" fill="#000000">mor_aspect</text>
<text text-anchor="start" x="529.6882" y="-247.8" font-family="Helvetica,sans-Serif" font-size="11.00" fill="#000000">[table]</text>
<polygon fill="none" stroke="#000000" points="448.1663,-220.7 448.1663,-239.7 564.1663,-239.7 564.1663,-220.7 448.1663,-220.7"/>
<text text-anchor="start" x="451.1663" y="-226.8" font-family="Helvetica,sans-Serif" font-size="11.00" fill="#000000">...</text>
<polygon fill="#ffffff" stroke="transparent" points="448.1663,-201.7 448.1663,-220.7 491.1663,-220.7 491.1663,-201.7 448.1663,-201.7"/>
<polygon fill="none" stroke="#000000" points="448.1663,-201.7 448.1663,-220.7 491.1663,-220.7 491.1663,-201.7 448.1663,-201.7"/>
<text text-anchor="start" x="451.1663" y="-207.8" font-family="Helvetica,sans-Serif" font-size="11.00" fill="#000000">&lt; 2</text>
<polygon fill="#ffffff" stroke="transparent" points="491.1663,-201.7 491.1663,-220.7 540.1663,-220.7 540.1663,-201.7 491.1663,-201.7"/>
<polygon fill="none" stroke="#000000" points="491.1663,-201.7 491.1663,-220.7 540.1663,-220.7 540.1663,-201.7 491.1663,-201.7"/>
<text text-anchor="start" x="504.7768" y="-207.8" font-family="Helvetica,sans-Serif" font-size="11.00" fill="#000000">0 rows</text>
<polygon fill="#ffffff" stroke="transparent" points="540.1663,-201.7 540.1663,-220.7 564.1663,-220.7 564.1663,-201.7 540.1663,-201.7"/>
<polygon fill="none" stroke="#000000" points="540.1663,-201.7 540.1663,-220.7 564.1663,-220.7 564.1663,-201.7 540.1663,-201.7"/>
<text text-anchor="start" x="555.0525" y="-207.8" font-family="Helvetica,sans-Serif" font-size="11.00" fill="#000000"> &#160;</text>
</a>
</g>
</g>
<!-- mor_aspect&#45;&gt;aspect -->
<g id="edge10" class="edge">
<title>mor_aspect:w&#45;&gt;aspect:e</title>
<path fill="none" stroke="#000000" d="M433.6966,-229.7C415.3096,-229.7 405.9997,-229.7 382.1663,-229.7"/>
<polygon fill="#000000" stroke="#000000" points="440.1663,-229.7001 448.1664,-233.3 444.1663,-229.7 448.1663,-229.7 448.1663,-229.7 448.1663,-229.7 444.1663,-229.7 448.1663,-226.1 440.1663,-229.7001 440.1663,-229.7001"/>
<ellipse fill="none" stroke="#000000" cx="436.9663" cy="-229.7001" rx="3.2" ry="3.2"/>
</g>
<!-- point_aspect -->
<g id="node9" class="node">
<title>point_aspect</title>
<g id="a_node9"><a xlink:href="../../tables/point_aspect.html" xlink:title="point_aspect" target="_top">
<polygon fill="#ffffff" stroke="transparent" points="443.6663,-120.2 443.6663,-181.2 568.6663,-181.2 568.6663,-120.2 443.6663,-120.2"/>
<polygon fill="#f5f5f5" stroke="transparent" points="444.1663,-157.7 444.1663,-180.7 569.1663,-180.7 569.1663,-157.7 444.1663,-157.7"/>
<polygon fill="none" stroke="#000000" points="444.1663,-157.7 444.1663,-180.7 569.1663,-180.7 569.1663,-157.7 444.1663,-157.7"/>
<text text-anchor="start" x="449.1663" y="-166.3" font-family="Helvetica,sans-Serif" font-weight="bold" font-size="11.00" fill="#000000">point_aspect</text>
<text text-anchor="start" x="534.6882" y="-165.8" font-family="Helvetica,sans-Serif" font-size="11.00" fill="#000000">[table]</text>
<polygon fill="none" stroke="#000000" points="444.1663,-138.7 444.1663,-157.7 569.1663,-157.7 569.1663,-138.7 444.1663,-138.7"/>
<text text-anchor="start" x="447.1663" y="-144.8" font-family="Helvetica,sans-Serif" font-size="11.00" fill="#000000">...</text>
<polygon fill="#ffffff" stroke="transparent" points="444.1663,-119.7 444.1663,-138.7 475.1663,-138.7 475.1663,-119.7 444.1663,-119.7"/>
<polygon fill="none" stroke="#000000" points="444.1663,-119.7 444.1663,-138.7 475.1663,-138.7 475.1663,-119.7 444.1663,-119.7"/>
<text text-anchor="start" x="447.1663" y="-125.8" font-family="Helvetica,sans-Serif" font-size="11.00" fill="#000000">&lt; 1</text>
<polygon fill="#ffffff" stroke="transparent" points="475.1663,-119.7 475.1663,-138.7 552.1663,-138.7 552.1663,-119.7 475.1663,-119.7"/>
<polygon fill="none" stroke="#000000" points="475.1663,-119.7 475.1663,-138.7 552.1663,-138.7 552.1663,-119.7 475.1663,-119.7"/>
<text text-anchor="start" x="483.1454" y="-125.8" font-family="Helvetica,sans-Serif" font-size="11.00" fill="#000000">800.114 rows</text>
<polygon fill="#ffffff" stroke="transparent" points="552.1663,-119.7 552.1663,-138.7 569.1663,-138.7 569.1663,-119.7 552.1663,-119.7"/>
<polygon fill="none" stroke="#000000" points="552.1663,-119.7 552.1663,-138.7 569.1663,-138.7 569.1663,-119.7 552.1663,-119.7"/>
<text text-anchor="start" x="560.0525" y="-125.8" font-family="Helvetica,sans-Serif" font-size="11.00" fill="#000000"> &#160;</text>
</a>
</g>
</g>
<!-- point_aspect&#45;&gt;aspect -->
<g id="edge11" class="edge">
<title>point_aspect:w&#45;&gt;aspect:e</title>
<path fill="none" stroke="#000000" d="M429.918,-151.4364C404.8038,-167.478 421.9659,-229.7 382.1663,-229.7"/>
<polygon fill="#000000" stroke="#000000" points="436.428,-149.7293 445.0795,-151.1823 440.2972,-148.7147 444.1663,-147.7 444.1663,-147.7 444.1663,-147.7 440.2972,-148.7147 443.2531,-144.2177 436.428,-149.7293 436.428,-149.7293"/>
<ellipse fill="none" stroke="#000000" cx="433.3326" cy="-150.5411" rx="3.2" ry="3.2"/>
</g>
</g>
</svg>
