<?xml version="1.0" encoding="UTF-8" standalone="no"?>
<!DOCTYPE svg PUBLIC "-//W3C//DTD SVG 1.1//EN"
 "http://www.w3.org/Graphics/SVG/1.1/DTD/svg11.dtd">
<!-- Generated by graphviz version 2.40.1 (20161225.0304)
 -->
<!-- Title: twoDegreesRelationshipsDiagram Pages: 1 -->
<svg width="588pt" height="513pt"
 viewBox="0.00 0.00 588.00 512.70" xmlns="http://www.w3.org/2000/svg" xmlns:xlink="http://www.w3.org/1999/xlink">
<g id="graph0" class="graph" transform="scale(1 1) rotate(0) translate(4 508.7)">
<title>twoDegreesRelationshipsDiagram</title>
<polygon fill="#ffffff" stroke="transparent" points="-4,4 -4,-508.7 584,-508.7 584,4 -4,4"/>
<text text-anchor="middle" x="72.4936" y="-7.3" font-family="Helvetica,sans-Serif" font-size="11.00" fill="#000000">Generated by SchemaSpy</text>
<!-- aspect -->
<g id="node1" class="node">
<title>aspect</title>
<g id="a_node1"><a xlink:href="../../tables/aspect.html" xlink:title="aspect" target="_top">
<polygon fill="#ffffff" stroke="transparent" points="177,-193.7 177,-320.7 297,-320.7 297,-193.7 177,-193.7"/>
<polygon fill="#f5f5f5" stroke="transparent" points="177,-297.2 177,-320.2 297,-320.2 297,-297.2 177,-297.2"/>
<polygon fill="none" stroke="#000000" points="177,-297.2 177,-320.2 297,-320.2 297,-297.2 177,-297.2"/>
<text text-anchor="start" x="182" y="-305.8" font-family="Helvetica,sans-Serif" font-weight="bold" font-size="11.00" fill="#000000">aspect</text>
<text text-anchor="start" x="262.0437" y="-305.3" font-family="Helvetica,sans-Serif" font-size="11.00" fill="#000000">[table]</text>
<polygon fill="none" stroke="#000000" points="177,-275.2 177,-297.2 297,-297.2 297,-275.2 177,-275.2"/>
<image xlink:href="../../images/primaryKeys.png" width="11px" height="12px" preserveAspectRatio="xMinYMin meet" x="182" y="-292.2"/>
<text text-anchor="start" x="197" y="-282.3" font-family="Helvetica,sans-Serif" font-size="11.00" fill="#000000">aspect_id</text>
<polygon fill="#ffffff" stroke="transparent" points="177,-253.2 177,-275.2 297,-275.2 297,-253.2 177,-253.2"/>
<polygon fill="none" stroke="#000000" points="177,-253.2 177,-275.2 297,-275.2 297,-253.2 177,-253.2"/>
<text text-anchor="start" x="197" y="-260.3" font-family="Helvetica,sans-Serif" font-size="11.00" fill="#000000">description</text>
<polygon fill="#ffffff" stroke="transparent" points="177,-231.2 177,-253.2 297,-253.2 297,-231.2 177,-231.2"/>
<polygon fill="none" stroke="#000000" points="177,-231.2 177,-253.2 297,-253.2 297,-231.2 177,-231.2"/>
<image xlink:href="../../images/foreignKeys.png" width="11px" height="12px" preserveAspectRatio="xMinYMin meet" x="182" y="-248.2"/>
<text text-anchor="start" x="197" y="-238.3" font-family="Helvetica,sans-Serif" font-size="11.00" fill="#000000">aspect_type_id</text>
<polygon fill="none" stroke="#000000" points="177,-212.2 177,-231.2 297,-231.2 297,-212.2 177,-212.2"/>
<text text-anchor="start" x="180" y="-218.3" font-family="Helvetica,sans-Serif" font-size="11.00" fill="#000000">...</text>
<polygon fill="#ffffff" stroke="transparent" points="177,-193.2 177,-212.2 201,-212.2 201,-193.2 177,-193.2"/>
<polygon fill="none" stroke="#000000" points="177,-193.2 177,-212.2 201,-212.2 201,-193.2 177,-193.2"/>
<text text-anchor="start" x="180" y="-199.3" font-family="Helvetica,sans-Serif" font-size="11.00" fill="#000000">&lt; 1</text>
<polygon fill="#ffffff" stroke="transparent" points="201,-193.2 201,-212.2 274,-212.2 274,-193.2 201,-193.2"/>
<polygon fill="none" stroke="#000000" points="201,-193.2 201,-212.2 274,-212.2 274,-193.2 201,-193.2"/>
<text text-anchor="start" x="204.9791" y="-199.3" font-family="Helvetica,sans-Serif" font-size="11.00" fill="#000000">100.191 rows</text>
<polygon fill="#ffffff" stroke="transparent" points="274,-193.2 274,-212.2 297,-212.2 297,-193.2 274,-193.2"/>
<polygon fill="none" stroke="#000000" points="274,-193.2 274,-212.2 297,-212.2 297,-193.2 274,-193.2"/>
<text text-anchor="start" x="278.4053" y="-199.3" font-family="Helvetica,sans-Serif" font-size="11.00" fill="#000000">5 &gt;</text>
</a>
</g>
</g>
<!-- aspect_type -->
<g id="node2" class="node">
<title>aspect_type</title>
<g id="a_node2"><a xlink:href="../../tables/aspect_type.html" xlink:title="aspect_type" target="_top">
<polygon fill="#ffffff" stroke="transparent" points="8,-172.7 8,-233.7 128,-233.7 128,-172.7 8,-172.7"/>
<polygon fill="#f5f5f5" stroke="transparent" points="8,-210.2 8,-233.2 128,-233.2 128,-210.2 8,-210.2"/>
<polygon fill="none" stroke="#000000" points="8,-210.2 8,-233.2 128,-233.2 128,-210.2 8,-210.2"/>
<text text-anchor="start" x="13" y="-218.8" font-family="Helvetica,sans-Serif" font-weight="bold" font-size="11.00" fill="#000000">aspect_type</text>
<text text-anchor="start" x="93.5219" y="-218.3" font-family="Helvetica,sans-Serif" font-size="11.00" fill="#000000">[table]</text>
<polygon fill="none" stroke="#000000" points="8,-191.2 8,-210.2 128,-210.2 128,-191.2 8,-191.2"/>
<text text-anchor="start" x="11" y="-197.3" font-family="Helvetica,sans-Serif" font-size="11.00" fill="#000000">...</text>
<polygon fill="#ffffff" stroke="transparent" points="8,-172.2 8,-191.2 52,-191.2 52,-172.2 8,-172.2"/>
<polygon fill="none" stroke="#000000" points="8,-172.2 8,-191.2 52,-191.2 52,-172.2 8,-172.2"/>
<text text-anchor="start" x="11" y="-178.3" font-family="Helvetica,sans-Serif" font-size="11.00" fill="#000000">&lt; 1</text>
<polygon fill="#ffffff" stroke="transparent" points="52,-172.2 52,-191.2 95,-191.2 95,-172.2 52,-172.2"/>
<polygon fill="none" stroke="#000000" points="52,-172.2 52,-191.2 95,-191.2 95,-172.2 52,-172.2"/>
<text text-anchor="start" x="65.1105" y="-178.3" font-family="Helvetica,sans-Serif" font-size="11.00" fill="#000000">1 row</text>
<polygon fill="#ffffff" stroke="transparent" points="95,-172.2 95,-191.2 128,-191.2 128,-172.2 95,-172.2"/>
<polygon fill="none" stroke="#000000" points="95,-172.2 95,-191.2 128,-191.2 128,-172.2 95,-172.2"/>
<text text-anchor="start" x="109.4053" y="-178.3" font-family="Helvetica,sans-Serif" font-size="11.00" fill="#000000">3 &gt;</text>
</a>
</g>
</g>
<!-- aspect&#45;&gt;aspect_type -->
<g id="edge1" class="edge">
<title>aspect:w&#45;&gt;aspect_type:e</title>
<path fill="none" stroke="#000000" d="M163.099,-237.3821C150.1979,-226.35 150.6327,-200.2 128,-200.2"/>
<polygon fill="#000000" stroke="#000000" points="169.4411,-239.5801 175.8211,-245.6015 173.2206,-240.8901 177,-242.2 177,-242.2 177,-242.2 173.2206,-240.8901 178.1789,-238.7985 169.4411,-239.5801 169.4411,-239.5801"/>
<ellipse fill="none" stroke="#000000" cx="166.4176" cy="-238.5322" rx="3.2" ry="3.2"/>
</g>
<!-- aspect_attribute -->
<g id="node3" class="node">
<title>aspect_attribute</title>
<g id="a_node3"><a xlink:href="../../tables/aspect_attribute.html" xlink:title="aspect_attribute" target="_top">
<polygon fill="#ffffff" stroke="transparent" points="346,-38.2 346,-172.2 572,-172.2 572,-38.2 346,-38.2"/>
<polygon fill="#f5f5f5" stroke="transparent" points="348,-147.2 348,-170.2 570,-170.2 570,-147.2 348,-147.2"/>
<polygon fill="none" stroke="#000000" points="348,-147.2 348,-170.2 570,-170.2 570,-147.2 348,-147.2"/>
<text text-anchor="start" x="353" y="-155.8" font-family="Helvetica,sans-Serif" font-weight="bold" font-size="11.00" fill="#000000">aspect_attribute</text>
<text text-anchor="start" x="535.0437" y="-155.3" font-family="Helvetica,sans-Serif" font-size="11.00" fill="#000000">[table]</text>
<polygon fill="none" stroke="#000000" points="348,-125.2 348,-147.2 480,-147.2 480,-125.2 348,-125.2"/>
<image xlink:href="../../images/primaryKeys.png" width="11px" height="12px" preserveAspectRatio="xMinYMin meet" x="353" y="-142.2"/>
<text text-anchor="start" x="368" y="-132.3" font-family="Helvetica,sans-Serif" font-size="11.00" fill="#000000">aspect_id</text>
<polygon fill="none" stroke="#000000" points="480,-125.2 480,-147.2 570,-147.2 570,-125.2 480,-125.2"/>
<text text-anchor="start" x="483" y="-132.9" font-family="Helvetica,sans-Serif" font-size="11.00" fill="#000000">int4[10]</text>
<polygon fill="none" stroke="#000000" points="348,-103.2 348,-125.2 480,-125.2 480,-103.2 348,-103.2"/>
<image xlink:href="../../images/primaryKeys.png" width="11px" height="12px" preserveAspectRatio="xMinYMin meet" x="353" y="-120.2"/>
<text text-anchor="start" x="368" y="-110.3" font-family="Helvetica,sans-Serif" font-size="11.00" fill="#000000">attribute_id</text>
<polygon fill="none" stroke="#000000" points="480,-103.2 480,-125.2 570,-125.2 570,-103.2 480,-103.2"/>
<text text-anchor="start" x="483" y="-110.9" font-family="Helvetica,sans-Serif" font-size="11.00" fill="#000000">int4[10]</text>
<polygon fill="none" stroke="#000000" points="348,-81.2 348,-103.2 480,-103.2 480,-81.2 348,-81.2"/>
<text text-anchor="start" x="368" y="-88.3" font-family="Helvetica,sans-Serif" font-size="11.00" fill="#000000">value</text>
<polygon fill="none" stroke="#000000" points="480,-81.2 480,-103.2 570,-103.2 570,-81.2 480,-81.2"/>
<text text-anchor="start" x="482.5043" y="-88.9" font-family="Helvetica,sans-Serif" font-size="11.00" fill="#000000">text[2147483647]</text>
<polygon fill="#ffffff" stroke="transparent" points="348,-59.2 348,-81.2 480,-81.2 480,-59.2 348,-59.2"/>
<polygon fill="none" stroke="#000000" points="348,-59.2 348,-81.2 480,-81.2 480,-59.2 348,-59.2"/>
<image xlink:href="../../images/foreignKeys.png" width="11px" height="12px" preserveAspectRatio="xMinYMin meet" x="353" y="-76.2"/>
<text text-anchor="start" x="368" y="-66.3" font-family="Helvetica,sans-Serif" font-size="11.00" fill="#000000">data_type_id</text>
<polygon fill="none" stroke="#000000" points="480,-59.2 480,-81.2 570,-81.2 570,-59.2 480,-59.2"/>
<text text-anchor="start" x="483" y="-66.9" font-family="Helvetica,sans-Serif" font-size="11.00" fill="#000000">int4[10]</text>
<polygon fill="#ffffff" stroke="transparent" points="348,-40.2 348,-59.2 388,-59.2 388,-40.2 348,-40.2"/>
<polygon fill="none" stroke="#000000" points="348,-40.2 348,-59.2 388,-59.2 388,-40.2 348,-40.2"/>
<text text-anchor="start" x="351" y="-46.3" font-family="Helvetica,sans-Serif" font-size="11.00" fill="#000000">&lt; 3</text>
<polygon fill="#ffffff" stroke="transparent" points="388,-40.2 388,-59.2 480,-59.2 480,-40.2 388,-40.2"/>
<polygon fill="none" stroke="#000000" points="388,-40.2 388,-59.2 480,-59.2 480,-40.2 388,-40.2"/>
<text text-anchor="start" x="410.9791" y="-46.3" font-family="Helvetica,sans-Serif" font-size="11.00" fill="#000000">200.382 rows</text>
<polygon fill="#ffffff" stroke="transparent" points="480,-40.2 480,-59.2 570,-59.2 570,-40.2 480,-40.2"/>
<polygon fill="none" stroke="#000000" points="480,-40.2 480,-59.2 570,-59.2 570,-40.2 480,-40.2"/>
<text text-anchor="start" x="551.4053" y="-46.3" font-family="Helvetica,sans-Serif" font-size="11.00" fill="#000000">0 &gt;</text>
<polygon fill="none" stroke="#000000" stroke-width="2" points="347,-39.2 347,-171.2 571,-171.2 571,-39.2 347,-39.2"/>
</a>
</g>
</g>
<!-- aspect_attribute&#45;&gt;aspect -->
<g id="edge2" class="edge">
<title>aspect_attribute:w&#45;&gt;aspect:e</title>
<path fill="none" stroke="#000000" d="M333.7294,-139.0625C291.2447,-159.8 361.6384,-286.2 297,-286.2"/>
<polygon fill="#000000" stroke="#000000" points="340.1562,-137.7734 348.708,-139.7297 344.0781,-136.9867 348,-136.2 348,-136.2 348,-136.2 344.0781,-136.9867 347.292,-132.6703 340.1562,-137.7734 340.1562,-137.7734"/>
<ellipse fill="none" stroke="#000000" cx="337.0187" cy="-138.4028" rx="3.2" ry="3.2"/>
</g>
<!-- attribute -->
<g id="node4" class="node">
<title>attribute</title>
<g id="a_node4"><a xlink:href="../../tables/attribute.html" xlink:title="attribute" target="_top">
<polygon fill="#ffffff" stroke="transparent" points="187.5,-94.7 187.5,-155.7 286.5,-155.7 286.5,-94.7 187.5,-94.7"/>
<polygon fill="#f5f5f5" stroke="transparent" points="188,-132.2 188,-155.2 287,-155.2 287,-132.2 188,-132.2"/>
<polygon fill="none" stroke="#000000" points="188,-132.2 188,-155.2 287,-155.2 287,-132.2 188,-132.2"/>
<text text-anchor="start" x="193" y="-140.8" font-family="Helvetica,sans-Serif" font-weight="bold" font-size="11.00" fill="#000000">attribute</text>
<text text-anchor="start" x="252.5219" y="-140.3" font-family="Helvetica,sans-Serif" font-size="11.00" fill="#000000">[table]</text>
<polygon fill="none" stroke="#000000" points="188,-113.2 188,-132.2 287,-132.2 287,-113.2 188,-113.2"/>
<text text-anchor="start" x="191" y="-119.3" font-family="Helvetica,sans-Serif" font-size="11.00" fill="#000000">...</text>
<polygon fill="#ffffff" stroke="transparent" points="188,-94.2 188,-113.2 218,-113.2 218,-94.2 188,-94.2"/>
<polygon fill="none" stroke="#000000" points="188,-94.2 188,-113.2 218,-113.2 218,-94.2 188,-94.2"/>
<text text-anchor="start" x="191" y="-100.3" font-family="Helvetica,sans-Serif" font-size="11.00" fill="#000000">&lt; 2</text>
<polygon fill="#ffffff" stroke="transparent" points="218,-94.2 218,-113.2 261,-113.2 261,-94.2 218,-94.2"/>
<polygon fill="none" stroke="#000000" points="218,-94.2 218,-113.2 261,-113.2 261,-94.2 218,-94.2"/>
<text text-anchor="start" x="225.6105" y="-100.3" font-family="Helvetica,sans-Serif" font-size="11.00" fill="#000000">2 rows</text>
<polygon fill="#ffffff" stroke="transparent" points="261,-94.2 261,-113.2 287,-113.2 287,-94.2 261,-94.2"/>
<polygon fill="none" stroke="#000000" points="261,-94.2 261,-113.2 287,-113.2 287,-94.2 261,-94.2"/>
<text text-anchor="start" x="268.4053" y="-100.3" font-family="Helvetica,sans-Serif" font-size="11.00" fill="#000000">1 &gt;</text>
</a>
</g>
</g>
<!-- aspect_attribute&#45;&gt;attribute -->
<g id="edge3" class="edge">
<title>aspect_attribute:w&#45;&gt;attribute:e</title>
<path fill="none" stroke="#000000" d="M333.4396,-114.4854C320.3676,-114.9737 306.982,-116.0417 294.504,-117.3227"/>
<polygon fill="#000000" stroke="#000000" points="340.0015,-114.3568 348.0706,-117.7993 344.0008,-114.2784 348,-114.2 348,-114.2 348,-114.2 344.0008,-114.2784 347.9294,-110.6007 340.0015,-114.3568 340.0015,-114.3568"/>
<ellipse fill="none" stroke="#000000" cx="336.8022" cy="-114.4196" rx="3.2" ry="3.2"/>
</g>
<!-- data_type -->
<g id="node5" class="node">
<title>data_type</title>
<g id="a_node5"><a xlink:href="../../tables/data_type.html" xlink:title="data_type" target="_top">
<polygon fill="#ffffff" stroke="transparent" points="15.5,-66.7 15.5,-127.7 120.5,-127.7 120.5,-66.7 15.5,-66.7"/>
<polygon fill="#f5f5f5" stroke="transparent" points="16,-104.2 16,-127.2 121,-127.2 121,-104.2 16,-104.2"/>
<polygon fill="none" stroke="#000000" points="16,-104.2 16,-127.2 121,-127.2 121,-104.2 16,-104.2"/>
<text text-anchor="start" x="21" y="-112.8" font-family="Helvetica,sans-Serif" font-weight="bold" font-size="11.00" fill="#000000">data_type</text>
<text text-anchor="start" x="86.5219" y="-112.3" font-family="Helvetica,sans-Serif" font-size="11.00" fill="#000000">[table]</text>
<polygon fill="none" stroke="#000000" points="16,-85.2 16,-104.2 121,-104.2 121,-85.2 16,-85.2"/>
<text text-anchor="start" x="19" y="-91.3" font-family="Helvetica,sans-Serif" font-size="11.00" fill="#000000">...</text>
<polygon fill="#ffffff" stroke="transparent" points="16,-66.2 16,-85.2 48,-85.2 48,-66.2 16,-66.2"/>
<polygon fill="none" stroke="#000000" points="16,-66.2 16,-85.2 48,-85.2 48,-66.2 16,-66.2"/>
<text text-anchor="start" x="19" y="-72.3" font-family="Helvetica,sans-Serif" font-size="11.00" fill="#000000"> &#160;</text>
<polygon fill="#ffffff" stroke="transparent" points="48,-66.2 48,-85.2 90,-85.2 90,-66.2 48,-66.2"/>
<polygon fill="none" stroke="#000000" points="48,-66.2 48,-85.2 90,-85.2 90,-66.2 48,-66.2"/>
<text text-anchor="start" x="60.1105" y="-72.3" font-family="Helvetica,sans-Serif" font-size="11.00" fill="#000000">1 row</text>
<polygon fill="#ffffff" stroke="transparent" points="90,-66.2 90,-85.2 121,-85.2 121,-66.2 90,-66.2"/>
<polygon fill="none" stroke="#000000" points="90,-66.2 90,-85.2 121,-85.2 121,-66.2 90,-66.2"/>
<text text-anchor="start" x="102.4053" y="-72.3" font-family="Helvetica,sans-Serif" font-size="11.00" fill="#000000">2 &gt;</text>
</a>
</g>
</g>
<!-- aspect_attribute&#45;&gt;data_type -->
<g id="edge4" class="edge">
<title>aspect_attribute:w&#45;&gt;data_type:e</title>
<path fill="none" stroke="#000000" d="M333.2135,-70.3205C261.113,-71.4713 181.6966,-80.6337 128.7387,-87.9459"/>
<polygon fill="#000000" stroke="#000000" points="340.0003,-70.2653 348.0294,-73.7999 344.0001,-70.2326 348,-70.2 348,-70.2 348,-70.2 344.0001,-70.2326 347.9706,-66.6001 340.0003,-70.2653 340.0003,-70.2653"/>
<ellipse fill="none" stroke="#000000" cx="336.8004" cy="-70.2914" rx="3.2" ry="3.2"/>
</g>
<!-- attribute&#45;&gt;aspect_type -->
<g id="edge5" class="edge">
<title>attribute:w&#45;&gt;aspect_type:e</title>
<path fill="none" stroke="#000000" d="M185.6853,-168.8236C164.1443,-185.3247 141.0943,-200.2 128,-200.2"/>
<polygon fill="#000000" stroke="#000000" points="190.8014,-164.7952 199.3139,-162.6744 193.9441,-162.3206 197.0868,-159.846 197.0868,-159.846 197.0868,-159.846 193.9441,-162.3206 194.8596,-157.0176 190.8014,-164.7952 190.8014,-164.7952"/>
<ellipse fill="none" stroke="#000000" cx="188.2872" cy="-166.7748" rx="3.2" ry="3.2"/>
</g>
<!-- attribute&#45;&gt;data_type -->
<g id="edge6" class="edge">
<title>attribute:w&#45;&gt;data_type:e</title>
<path fill="none" stroke="#000000" d="M164.8265,-113.2423C152.7553,-111.2423 140.3411,-109.1855 128.598,-107.2399"/>
<polygon fill="#000000" stroke="#000000" points="171.4201,-114.3346 178.724,-119.1939 175.3663,-114.9885 179.3125,-115.6423 179.3125,-115.6423 179.3125,-115.6423 175.3663,-114.9885 179.9009,-112.0907 171.4201,-114.3346 171.4201,-114.3346"/>
<ellipse fill="none" stroke="#000000" cx="168.2631" cy="-113.8116" rx="3.2" ry="3.2"/>
</g>
<!-- mat_aspect -->
<g id="node6" class="node">
<title>mat_aspect</title>
<g id="a_node6"><a xlink:href="../../tables/mat_aspect.html" xlink:title="mat_aspect" target="_top">
<polygon fill="#ffffff" stroke="transparent" points="401,-439.7 401,-500.7 517,-500.7 517,-439.7 401,-439.7"/>
<polygon fill="#f5f5f5" stroke="transparent" points="401,-477.2 401,-500.2 517,-500.2 517,-477.2 401,-477.2"/>
<polygon fill="none" stroke="#000000" points="401,-477.2 401,-500.2 517,-500.2 517,-477.2 401,-477.2"/>
<text text-anchor="start" x="406" y="-485.8" font-family="Helvetica,sans-Serif" font-weight="bold" font-size="11.00" fill="#000000">mat_aspect</text>
<text text-anchor="start" x="482.5219" y="-485.3" font-family="Helvetica,sans-Serif" font-size="11.00" fill="#000000">[table]</text>
<polygon fill="none" stroke="#000000" points="401,-458.2 401,-477.2 517,-477.2 517,-458.2 401,-458.2"/>
<text text-anchor="start" x="404" y="-464.3" font-family="Helvetica,sans-Serif" font-size="11.00" fill="#000000">...</text>
<polygon fill="#ffffff" stroke="transparent" points="401,-439.2 401,-458.2 444,-458.2 444,-439.2 401,-439.2"/>
<polygon fill="none" stroke="#000000" points="401,-439.2 401,-458.2 444,-458.2 444,-439.2 401,-439.2"/>
<text text-anchor="start" x="404" y="-445.3" font-family="Helvetica,sans-Serif" font-size="11.00" fill="#000000">&lt; 1</text>
<polygon fill="#ffffff" stroke="transparent" points="444,-439.2 444,-458.2 493,-458.2 493,-439.2 444,-439.2"/>
<polygon fill="none" stroke="#000000" points="444,-439.2 444,-458.2 493,-458.2 493,-439.2 444,-439.2"/>
<text text-anchor="start" x="457.6105" y="-445.3" font-family="Helvetica,sans-Serif" font-size="11.00" fill="#000000">0 rows</text>
<polygon fill="#ffffff" stroke="transparent" points="493,-439.2 493,-458.2 517,-458.2 517,-439.2 493,-439.2"/>
<polygon fill="none" stroke="#000000" points="493,-439.2 493,-458.2 517,-458.2 517,-439.2 493,-439.2"/>
<text text-anchor="start" x="507.8862" y="-445.3" font-family="Helvetica,sans-Serif" font-size="11.00" fill="#000000"> &#160;</text>
</a>
</g>
</g>
<!-- mat_aspect&#45;&gt;aspect -->
<g id="edge7" class="edge">
<title>mat_aspect:w&#45;&gt;aspect:e</title>
<path fill="none" stroke="#000000" d="M386.5649,-466.2194C364.6279,-462.8745 354.6214,-450.9002 338,-429.2 297.7963,-376.7117 363.1162,-286.2 297,-286.2"/>
<polygon fill="#000000" stroke="#000000" points="393.0184,-466.6578 400.756,-470.7917 397.0092,-466.9289 401,-467.2 401,-467.2 401,-467.2 397.0092,-466.9289 401.244,-463.6083 393.0184,-466.6578 393.0184,-466.6578"/>
<ellipse fill="none" stroke="#000000" cx="389.8258" cy="-466.4409" rx="3.2" ry="3.2"/>
</g>
<!-- mo_aspect -->
<g id="node7" class="node">
<title>mo_aspect</title>
<g id="a_node7"><a xlink:href="../../tables/mo_aspect.html" xlink:title="mo_aspect" target="_top">
<polygon fill="#ffffff" stroke="transparent" points="404,-357.7 404,-418.7 514,-418.7 514,-357.7 404,-357.7"/>
<polygon fill="#f5f5f5" stroke="transparent" points="404,-395.2 404,-418.2 514,-418.2 514,-395.2 404,-395.2"/>
<polygon fill="none" stroke="#000000" points="404,-395.2 404,-418.2 514,-418.2 514,-395.2 404,-395.2"/>
<text text-anchor="start" x="409" y="-403.8" font-family="Helvetica,sans-Serif" font-weight="bold" font-size="11.00" fill="#000000">mo_aspect</text>
<text text-anchor="start" x="479.5219" y="-403.3" font-family="Helvetica,sans-Serif" font-size="11.00" fill="#000000">[table]</text>
<polygon fill="none" stroke="#000000" points="404,-376.2 404,-395.2 514,-395.2 514,-376.2 404,-376.2"/>
<text text-anchor="start" x="407" y="-382.3" font-family="Helvetica,sans-Serif" font-size="11.00" fill="#000000">...</text>
<polygon fill="#ffffff" stroke="transparent" points="404,-357.2 404,-376.2 444,-376.2 444,-357.2 404,-357.2"/>
<polygon fill="none" stroke="#000000" points="404,-357.2 404,-376.2 444,-376.2 444,-357.2 404,-357.2"/>
<text text-anchor="start" x="407" y="-363.3" font-family="Helvetica,sans-Serif" font-size="11.00" fill="#000000">&lt; 2</text>
<polygon fill="#ffffff" stroke="transparent" points="444,-357.2 444,-376.2 492,-376.2 492,-357.2 444,-357.2"/>
<polygon fill="none" stroke="#000000" points="444,-357.2 444,-376.2 492,-376.2 492,-357.2 444,-357.2"/>
<text text-anchor="start" x="456.6105" y="-363.3" font-family="Helvetica,sans-Serif" font-size="11.00" fill="#000000">0 rows</text>
<polygon fill="#ffffff" stroke="transparent" points="492,-357.2 492,-376.2 514,-376.2 514,-357.2 492,-357.2"/>
<polygon fill="none" stroke="#000000" points="492,-357.2 492,-376.2 514,-376.2 514,-357.2 492,-357.2"/>
<text text-anchor="start" x="504.8862" y="-363.3" font-family="Helvetica,sans-Serif" font-size="11.00" fill="#000000"> &#160;</text>
</a>
</g>
</g>
<!-- mo_aspect&#45;&gt;aspect -->
<g id="edge8" class="edge">
<title>mo_aspect:w&#45;&gt;aspect:e</title>
<path fill="none" stroke="#000000" d="M389.5922,-384.0803C367.3361,-380.2142 358.7859,-366.5917 338,-347.2 314.1146,-324.9166 329.6659,-286.2 297,-286.2"/>
<polygon fill="#000000" stroke="#000000" points="396.024,-384.5801 403.721,-388.7892 400.012,-384.89 404,-385.2 404,-385.2 404,-385.2 400.012,-384.89 404.279,-381.6108 396.024,-384.5801 396.024,-384.5801"/>
<ellipse fill="none" stroke="#000000" cx="392.8337" cy="-384.3321" rx="3.2" ry="3.2"/>
</g>
<!-- mor_aspect -->
<g id="node8" class="node">
<title>mor_aspect</title>
<g id="a_node8"><a xlink:href="../../tables/mor_aspect.html" xlink:title="mor_aspect" target="_top">
<polygon fill="#ffffff" stroke="transparent" points="401,-275.7 401,-336.7 517,-336.7 517,-275.7 401,-275.7"/>
<polygon fill="#f5f5f5" stroke="transparent" points="401,-313.2 401,-336.2 517,-336.2 517,-313.2 401,-313.2"/>
<polygon fill="none" stroke="#000000" points="401,-313.2 401,-336.2 517,-336.2 517,-313.2 401,-313.2"/>
<text text-anchor="start" x="406" y="-321.8" font-family="Helvetica,sans-Serif" font-weight="bold" font-size="11.00" fill="#000000">mor_aspect</text>
<text text-anchor="start" x="482.5219" y="-321.3" font-family="Helvetica,sans-Serif" font-size="11.00" fill="#000000">[table]</text>
<polygon fill="none" stroke="#000000" points="401,-294.2 401,-313.2 517,-313.2 517,-294.2 401,-294.2"/>
<text text-anchor="start" x="404" y="-300.3" font-family="Helvetica,sans-Serif" font-size="11.00" fill="#000000">...</text>
<polygon fill="#ffffff" stroke="transparent" points="401,-275.2 401,-294.2 444,-294.2 444,-275.2 401,-275.2"/>
<polygon fill="none" stroke="#000000" points="401,-275.2 401,-294.2 444,-294.2 444,-275.2 401,-275.2"/>
<text text-anchor="start" x="404" y="-281.3" font-family="Helvetica,sans-Serif" font-size="11.00" fill="#000000">&lt; 2</text>
<polygon fill="#ffffff" stroke="transparent" points="444,-275.2 444,-294.2 493,-294.2 493,-275.2 444,-275.2"/>
<polygon fill="none" stroke="#000000" points="444,-275.2 444,-294.2 493,-294.2 493,-275.2 444,-275.2"/>
<text text-anchor="start" x="457.6105" y="-281.3" font-family="Helvetica,sans-Serif" font-size="11.00" fill="#000000">0 rows</text>
<polygon fill="#ffffff" stroke="transparent" points="493,-275.2 493,-294.2 517,-294.2 517,-275.2 493,-275.2"/>
<polygon fill="none" stroke="#000000" points="493,-275.2 493,-294.2 517,-294.2 517,-275.2 493,-275.2"/>
<text text-anchor="start" x="507.8862" y="-281.3" font-family="Helvetica,sans-Serif" font-size="11.00" fill="#000000"> &#160;</text>
</a>
</g>
</g>
<!-- mor_aspect&#45;&gt;aspect -->
<g id="edge9" class="edge">
<title>mor_aspect:w&#45;&gt;aspect:e</title>
<path fill="none" stroke="#000000" d="M386.3825,-302.595C351.3558,-299.5666 338.5301,-286.2 297,-286.2"/>
<polygon fill="#000000" stroke="#000000" points="393.0068,-302.8691 400.8511,-306.7969 397.0034,-303.0345 401,-303.2 401,-303.2 401,-303.2 397.0034,-303.0345 401.1489,-299.6031 393.0068,-302.8691 393.0068,-302.8691"/>
<ellipse fill="none" stroke="#000000" cx="389.8096" cy="-302.7367" rx="3.2" ry="3.2"/>
</g>
<!-- point_aspect -->
<g id="node9" class="node">
<title>point_aspect</title>
<g id="a_node9"><a xlink:href="../../tables/point_aspect.html" xlink:title="point_aspect" target="_top">
<polygon fill="#ffffff" stroke="transparent" points="396.5,-193.7 396.5,-254.7 521.5,-254.7 521.5,-193.7 396.5,-193.7"/>
<polygon fill="#f5f5f5" stroke="transparent" points="397,-231.2 397,-254.2 522,-254.2 522,-231.2 397,-231.2"/>
<polygon fill="none" stroke="#000000" points="397,-231.2 397,-254.2 522,-254.2 522,-231.2 397,-231.2"/>
<text text-anchor="start" x="402" y="-239.8" font-family="Helvetica,sans-Serif" font-weight="bold" font-size="11.00" fill="#000000">point_aspect</text>
<text text-anchor="start" x="487.5219" y="-239.3" font-family="Helvetica,sans-Serif" font-size="11.00" fill="#000000">[table]</text>
<polygon fill="none" stroke="#000000" points="397,-212.2 397,-231.2 522,-231.2 522,-212.2 397,-212.2"/>
<text text-anchor="start" x="400" y="-218.3" font-family="Helvetica,sans-Serif" font-size="11.00" fill="#000000">...</text>
<polygon fill="#ffffff" stroke="transparent" points="397,-193.2 397,-212.2 428,-212.2 428,-193.2 397,-193.2"/>
<polygon fill="none" stroke="#000000" points="397,-193.2 397,-212.2 428,-212.2 428,-193.2 397,-193.2"/>
<text text-anchor="start" x="400" y="-199.3" font-family="Helvetica,sans-Serif" font-size="11.00" fill="#000000">&lt; 1</text>
<polygon fill="#ffffff" stroke="transparent" points="428,-193.2 428,-212.2 505,-212.2 505,-193.2 428,-193.2"/>
<polygon fill="none" stroke="#000000" points="428,-193.2 428,-212.2 505,-212.2 505,-193.2 428,-193.2"/>
<text text-anchor="start" x="435.9791" y="-199.3" font-family="Helvetica,sans-Serif" font-size="11.00" fill="#000000">800.114 rows</text>
<polygon fill="#ffffff" stroke="transparent" points="505,-193.2 505,-212.2 522,-212.2 522,-193.2 505,-193.2"/>
<polygon fill="none" stroke="#000000" points="505,-193.2 505,-212.2 522,-212.2 522,-193.2 505,-193.2"/>
<text text-anchor="start" x="512.8862" y="-199.3" font-family="Helvetica,sans-Serif" font-size="11.00" fill="#000000"> &#160;</text>
</a>
</g>
</g>
<!-- point_aspect&#45;&gt;aspect -->
<g id="edge10" class="edge">
<title>point_aspect:w&#45;&gt;aspect:e</title>
<path fill="none" stroke="#000000" d="M383.2319,-225.4648C356.3111,-239.9256 319.3629,-286.2 297,-286.2"/>
<polygon fill="#000000" stroke="#000000" points="389.3582,-223.5672 398.0652,-224.6388 393.1791,-222.3836 397,-221.2 397,-221.2 397,-221.2 393.1791,-222.3836 395.9348,-217.7612 389.3582,-223.5672 389.3582,-223.5672"/>
<ellipse fill="none" stroke="#000000" cx="386.3015" cy="-224.514" rx="3.2" ry="3.2"/>
</g>
</g>
</svg>
