<?xml version="1.0" encoding="UTF-8" standalone="no"?>
<!DOCTYPE svg PUBLIC "-//W3C//DTD SVG 1.1//EN"
 "http://www.w3.org/Graphics/SVG/1.1/DTD/svg11.dtd">
<!-- Generated by graphviz version 2.40.1 (20161225.0304)
 -->
<!-- Title: twoDegreesRelationshipsDiagram Pages: 1 -->
<svg width="577pt" height="293pt"
 viewBox="0.00 0.00 577.00 293.20" xmlns="http://www.w3.org/2000/svg" xmlns:xlink="http://www.w3.org/1999/xlink">
<g id="graph0" class="graph" transform="scale(1 1) rotate(0) translate(4 289.2)">
<title>twoDegreesRelationshipsDiagram</title>
<polygon fill="#ffffff" stroke="transparent" points="-4,4 -4,-289.2 573,-289.2 573,4 -4,4"/>
<text text-anchor="middle" x="72.4936" y="-7.3" font-family="Helvetica,sans-Serif" font-size="11.00" fill="#000000">Generated by SchemaSpy</text>
<!-- aspect -->
<g id="node1" class="node">
<title>aspect</title>
<g id="a_node1"><a xlink:href="../../tables/aspect.html" xlink:title="aspect" target="_top">
<polygon fill="#ffffff" stroke="transparent" points="212.5,-220.2 212.5,-281.2 326.5,-281.2 326.5,-220.2 212.5,-220.2"/>
<polygon fill="#f5f5f5" stroke="transparent" points="212.5,-257.7 212.5,-280.7 326.5,-280.7 326.5,-257.7 212.5,-257.7"/>
<polygon fill="none" stroke="#000000" points="212.5,-257.7 212.5,-280.7 326.5,-280.7 326.5,-257.7 212.5,-257.7"/>
<text text-anchor="start" x="217.5" y="-266.3" font-family="Helvetica,sans-Serif" font-weight="bold" font-size="11.00" fill="#000000">aspect</text>
<text text-anchor="start" x="291.5437" y="-265.8" font-family="Helvetica,sans-Serif" font-size="11.00" fill="#000000">[table]</text>
<polygon fill="none" stroke="#000000" points="212.5,-238.7 212.5,-257.7 326.5,-257.7 326.5,-238.7 212.5,-238.7"/>
<text text-anchor="start" x="215.5" y="-244.8" font-family="Helvetica,sans-Serif" font-size="11.00" fill="#000000">...</text>
<polygon fill="#ffffff" stroke="transparent" points="212.5,-219.7 212.5,-238.7 233.5,-238.7 233.5,-219.7 212.5,-219.7"/>
<polygon fill="none" stroke="#000000" points="212.5,-219.7 212.5,-238.7 233.5,-238.7 233.5,-219.7 212.5,-219.7"/>
<text text-anchor="start" x="215.2027" y="-225.8" font-family="Helvetica,sans-Serif" font-size="11.00" fill="#000000">&lt; 1</text>
<polygon fill="#ffffff" stroke="transparent" points="233.5,-219.7 233.5,-238.7 305.5,-238.7 305.5,-219.7 233.5,-219.7"/>
<polygon fill="none" stroke="#000000" points="233.5,-219.7 233.5,-238.7 305.5,-238.7 305.5,-219.7 233.5,-219.7"/>
<text text-anchor="start" x="236.4896" y="-225.8" font-family="Helvetica,sans-Serif" font-size="11.00" fill="#000000">100.191 rows</text>
<polygon fill="#ffffff" stroke="transparent" points="305.5,-219.7 305.5,-238.7 326.5,-238.7 326.5,-219.7 305.5,-219.7"/>
<polygon fill="none" stroke="#000000" points="305.5,-219.7 305.5,-238.7 326.5,-238.7 326.5,-219.7 305.5,-219.7"/>
<text text-anchor="start" x="308.2027" y="-225.8" font-family="Helvetica,sans-Serif" font-size="11.00" fill="#000000">5 &gt;</text>
</a>
</g>
</g>
<!-- aspect_type -->
<g id="node2" class="node">
<title>aspect_type</title>
<g id="a_node2"><a xlink:href="../../tables/aspect_type.html" xlink:title="aspect_type" target="_top">
<polygon fill="#ffffff" stroke="transparent" points="8,-148.2 8,-253.2 128,-253.2 128,-148.2 8,-148.2"/>
<polygon fill="#f5f5f5" stroke="transparent" points="8,-229.7 8,-252.7 128,-252.7 128,-229.7 8,-229.7"/>
<polygon fill="none" stroke="#000000" points="8,-229.7 8,-252.7 128,-252.7 128,-229.7 8,-229.7"/>
<text text-anchor="start" x="13" y="-238.3" font-family="Helvetica,sans-Serif" font-weight="bold" font-size="11.00" fill="#000000">aspect_type</text>
<text text-anchor="start" x="93.5219" y="-237.8" font-family="Helvetica,sans-Serif" font-size="11.00" fill="#000000">[table]</text>
<polygon fill="none" stroke="#000000" points="8,-207.7 8,-229.7 128,-229.7 128,-207.7 8,-207.7"/>
<image xlink:href="../../images/primaryKeys.png" width="11px" height="12px" preserveAspectRatio="xMinYMin meet" x="13" y="-224.7"/>
<text text-anchor="start" x="28" y="-214.8" font-family="Helvetica,sans-Serif" font-size="11.00" fill="#000000">aspect_type_id</text>
<polygon fill="#ffffff" stroke="transparent" points="8,-185.7 8,-207.7 128,-207.7 128,-185.7 8,-185.7"/>
<polygon fill="none" stroke="#000000" points="8,-185.7 8,-207.7 128,-207.7 128,-185.7 8,-185.7"/>
<image xlink:href="../../images/foreignKeys.png" width="11px" height="12px" preserveAspectRatio="xMinYMin meet" x="13" y="-202.7"/>
<text text-anchor="start" x="28" y="-192.8" font-family="Helvetica,sans-Serif" font-size="11.00" fill="#000000">super_type_id</text>
<polygon fill="none" stroke="#000000" points="8,-166.7 8,-185.7 128,-185.7 128,-166.7 8,-166.7"/>
<text text-anchor="start" x="11" y="-172.8" font-family="Helvetica,sans-Serif" font-size="11.00" fill="#000000">...</text>
<polygon fill="#ffffff" stroke="transparent" points="8,-147.7 8,-166.7 52,-166.7 52,-147.7 8,-147.7"/>
<polygon fill="none" stroke="#000000" points="8,-147.7 8,-166.7 52,-166.7 52,-147.7 8,-147.7"/>
<text text-anchor="start" x="11" y="-153.8" font-family="Helvetica,sans-Serif" font-size="11.00" fill="#000000">&lt; 1</text>
<polygon fill="#ffffff" stroke="transparent" points="52,-147.7 52,-166.7 95,-166.7 95,-147.7 52,-147.7"/>
<polygon fill="none" stroke="#000000" points="52,-147.7 52,-166.7 95,-166.7 95,-147.7 52,-147.7"/>
<text text-anchor="start" x="65.1105" y="-153.8" font-family="Helvetica,sans-Serif" font-size="11.00" fill="#000000">1 row</text>
<polygon fill="#ffffff" stroke="transparent" points="95,-147.7 95,-166.7 128,-166.7 128,-147.7 95,-147.7"/>
<polygon fill="none" stroke="#000000" points="95,-147.7 95,-166.7 128,-166.7 128,-147.7 95,-147.7"/>
<text text-anchor="start" x="109.4053" y="-153.8" font-family="Helvetica,sans-Serif" font-size="11.00" fill="#000000">3 &gt;</text>
</a>
</g>
</g>
<!-- aspect&#45;&gt;aspect_type -->
<g id="edge1" class="edge">
<title>aspect:w&#45;&gt;aspect_type:e</title>
<path fill="none" stroke="#000000" d="M197.9787,-246.222C170.7558,-240.3124 162.2772,-218.7 128,-218.7"/>
<polygon fill="#000000" stroke="#000000" points="204.5411,-246.8899 212.1355,-251.2815 208.5206,-247.2949 212.5,-247.7 212.5,-247.7 212.5,-247.7 208.5206,-247.2949 212.8645,-244.1185 204.5411,-246.8899 204.5411,-246.8899"/>
<ellipse fill="none" stroke="#000000" cx="201.3576" cy="-246.5658" rx="3.2" ry="3.2"/>
</g>
<!-- aspect_attribute -->
<g id="node3" class="node">
<title>aspect_attribute</title>
<g id="a_node3"><a xlink:href="../../tables/aspect_attribute.html" xlink:title="aspect_attribute" target="_top">
<polygon fill="#ffffff" stroke="transparent" points="411,-132.2 411,-193.2 561,-193.2 561,-132.2 411,-132.2"/>
<polygon fill="#f5f5f5" stroke="transparent" points="411,-169.7 411,-192.7 561,-192.7 561,-169.7 411,-169.7"/>
<polygon fill="none" stroke="#000000" points="411,-169.7 411,-192.7 561,-192.7 561,-169.7 411,-169.7"/>
<text text-anchor="start" x="416" y="-178.3" font-family="Helvetica,sans-Serif" font-weight="bold" font-size="11.00" fill="#000000">aspect_attribute</text>
<text text-anchor="start" x="526.5219" y="-177.8" font-family="Helvetica,sans-Serif" font-size="11.00" fill="#000000">[table]</text>
<polygon fill="none" stroke="#000000" points="411,-150.7 411,-169.7 561,-169.7 561,-150.7 411,-150.7"/>
<text text-anchor="start" x="414" y="-156.8" font-family="Helvetica,sans-Serif" font-size="11.00" fill="#000000">...</text>
<polygon fill="#ffffff" stroke="transparent" points="411,-131.7 411,-150.7 454,-150.7 454,-131.7 411,-131.7"/>
<polygon fill="none" stroke="#000000" points="411,-131.7 411,-150.7 454,-150.7 454,-131.7 411,-131.7"/>
<text text-anchor="start" x="414" y="-137.8" font-family="Helvetica,sans-Serif" font-size="11.00" fill="#000000">&lt; 3</text>
<polygon fill="#ffffff" stroke="transparent" points="454,-131.7 454,-150.7 537,-150.7 537,-131.7 454,-131.7"/>
<polygon fill="none" stroke="#000000" points="454,-131.7 454,-150.7 537,-150.7 537,-131.7 454,-131.7"/>
<text text-anchor="start" x="467.9791" y="-137.8" font-family="Helvetica,sans-Serif" font-size="11.00" fill="#000000">200.382 rows</text>
<polygon fill="#ffffff" stroke="transparent" points="537,-131.7 537,-150.7 561,-150.7 561,-131.7 537,-131.7"/>
<polygon fill="none" stroke="#000000" points="537,-131.7 537,-150.7 561,-150.7 561,-131.7 537,-131.7"/>
<text text-anchor="start" x="551.8862" y="-137.8" font-family="Helvetica,sans-Serif" font-size="11.00" fill="#000000"> &#160;</text>
</a>
</g>
</g>
<!-- aspect_attribute&#45;&gt;aspect -->
<g id="edge2" class="edge">
<title>aspect_attribute:w&#45;&gt;aspect:e</title>
<path fill="none" stroke="#000000" d="M435.3636,-205.9159C405.6427,-226.9246 366.2123,-247.7 326.5,-247.7"/>
<polygon fill="#000000" stroke="#000000" points="440.6346,-202.0244 449.2089,-200.169 443.8526,-199.6486 447.0706,-197.2728 447.0706,-197.2728 447.0706,-197.2728 443.8526,-199.6486 444.9324,-194.3765 440.6346,-202.0244 440.6346,-202.0244"/>
<ellipse fill="none" stroke="#000000" cx="438.0602" cy="-203.9251" rx="3.2" ry="3.2"/>
</g>
<!-- attribute -->
<g id="node4" class="node">
<title>attribute</title>
<g id="a_node4"><a xlink:href="../../tables/attribute.html" xlink:title="attribute" target="_top">
<polygon fill="#ffffff" stroke="transparent" points="177,-64.7 177,-198.7 362,-198.7 362,-64.7 177,-64.7"/>
<polygon fill="#f5f5f5" stroke="transparent" points="179.5,-173.7 179.5,-196.7 360.5,-196.7 360.5,-173.7 179.5,-173.7"/>
<polygon fill="none" stroke="#000000" points="179.5,-173.7 179.5,-196.7 360.5,-196.7 360.5,-173.7 179.5,-173.7"/>
<text text-anchor="start" x="184.5" y="-182.3" font-family="Helvetica,sans-Serif" font-weight="bold" font-size="11.00" fill="#000000">attribute</text>
<text text-anchor="start" x="325.5437" y="-181.8" font-family="Helvetica,sans-Serif" font-size="11.00" fill="#000000">[table]</text>
<polygon fill="none" stroke="#000000" points="179.5,-151.7 179.5,-173.7 299.5,-173.7 299.5,-151.7 179.5,-151.7"/>
<image xlink:href="../../images/primaryKeys.png" width="11px" height="12px" preserveAspectRatio="xMinYMin meet" x="184.5" y="-168.7"/>
<text text-anchor="start" x="199.5" y="-158.8" font-family="Helvetica,sans-Serif" font-size="11.00" fill="#000000">attribute_id</text>
<polygon fill="none" stroke="#000000" points="299.5,-151.7 299.5,-173.7 360.5,-173.7 360.5,-151.7 299.5,-151.7"/>
<text text-anchor="start" x="302.5" y="-159.4" font-family="Helvetica,sans-Serif" font-size="11.00" fill="#000000">int4[10]</text>
<polygon fill="none" stroke="#000000" points="179.5,-129.7 179.5,-151.7 299.5,-151.7 299.5,-129.7 179.5,-129.7"/>
<text text-anchor="start" x="199.5" y="-136.8" font-family="Helvetica,sans-Serif" font-size="11.00" fill="#000000">name</text>
<polygon fill="none" stroke="#000000" points="299.5,-129.7 299.5,-151.7 360.5,-151.7 360.5,-129.7 299.5,-129.7"/>
<text text-anchor="start" x="302.494" y="-137.4" font-family="Helvetica,sans-Serif" font-size="11.00" fill="#000000">varchar[30]</text>
<polygon fill="#ffffff" stroke="transparent" points="179.5,-107.7 179.5,-129.7 299.5,-129.7 299.5,-107.7 179.5,-107.7"/>
<polygon fill="none" stroke="#000000" points="179.5,-107.7 179.5,-129.7 299.5,-129.7 299.5,-107.7 179.5,-107.7"/>
<image xlink:href="../../images/foreignKeys.png" width="11px" height="12px" preserveAspectRatio="xMinYMin meet" x="184.5" y="-124.7"/>
<text text-anchor="start" x="199.5" y="-114.8" font-family="Helvetica,sans-Serif" font-size="11.00" fill="#000000">aspect_type_id</text>
<polygon fill="none" stroke="#000000" points="299.5,-107.7 299.5,-129.7 360.5,-129.7 360.5,-107.7 299.5,-107.7"/>
<text text-anchor="start" x="302.5" y="-115.4" font-family="Helvetica,sans-Serif" font-size="11.00" fill="#000000">int4[10]</text>
<polygon fill="#ffffff" stroke="transparent" points="179.5,-85.7 179.5,-107.7 299.5,-107.7 299.5,-85.7 179.5,-85.7"/>
<polygon fill="none" stroke="#000000" points="179.5,-85.7 179.5,-107.7 299.5,-107.7 299.5,-85.7 179.5,-85.7"/>
<image xlink:href="../../images/foreignKeys.png" width="11px" height="12px" preserveAspectRatio="xMinYMin meet" x="184.5" y="-102.7"/>
<text text-anchor="start" x="199.5" y="-92.8" font-family="Helvetica,sans-Serif" font-size="11.00" fill="#000000">data_type_id</text>
<polygon fill="none" stroke="#000000" points="299.5,-85.7 299.5,-107.7 360.5,-107.7 360.5,-85.7 299.5,-85.7"/>
<text text-anchor="start" x="302.5" y="-93.4" font-family="Helvetica,sans-Serif" font-size="11.00" fill="#000000">int4[10]</text>
<polygon fill="#ffffff" stroke="transparent" points="179.5,-66.7 179.5,-85.7 230.5,-85.7 230.5,-66.7 179.5,-66.7"/>
<polygon fill="none" stroke="#000000" points="179.5,-66.7 179.5,-85.7 230.5,-85.7 230.5,-66.7 179.5,-66.7"/>
<text text-anchor="start" x="182.5" y="-72.8" font-family="Helvetica,sans-Serif" font-size="11.00" fill="#000000">&lt; 2</text>
<polygon fill="#ffffff" stroke="transparent" points="230.5,-66.7 230.5,-85.7 299.5,-85.7 299.5,-66.7 230.5,-66.7"/>
<polygon fill="none" stroke="#000000" points="230.5,-66.7 230.5,-85.7 299.5,-85.7 299.5,-66.7 230.5,-66.7"/>
<text text-anchor="start" x="264.1105" y="-72.8" font-family="Helvetica,sans-Serif" font-size="11.00" fill="#000000">2 rows</text>
<polygon fill="#ffffff" stroke="transparent" points="299.5,-66.7 299.5,-85.7 360.5,-85.7 360.5,-66.7 299.5,-66.7"/>
<polygon fill="none" stroke="#000000" points="299.5,-66.7 299.5,-85.7 360.5,-85.7 360.5,-66.7 299.5,-66.7"/>
<text text-anchor="start" x="341.9053" y="-72.8" font-family="Helvetica,sans-Serif" font-size="11.00" fill="#000000">1 &gt;</text>
<polygon fill="none" stroke="#000000" stroke-width="2" points="178,-65.7 178,-197.7 361,-197.7 361,-65.7 178,-65.7"/>
</a>
</g>
</g>
<!-- aspect_attribute&#45;&gt;attribute -->
<g id="edge3" class="edge">
<title>aspect_attribute:w&#45;&gt;attribute:e</title>
<path fill="none" stroke="#000000" d="M388.2628,-162.7C378.8798,-162.7 369.5081,-162.7 360.5,-162.7"/>
<polygon fill="#000000" stroke="#000000" points="394.9662,-162.7001 402.9663,-166.3 398.9662,-162.7 402.9662,-162.7 402.9662,-162.7 402.9662,-162.7 398.9662,-162.7 402.9662,-159.1 394.9662,-162.7001 394.9662,-162.7001"/>
<ellipse fill="none" stroke="#000000" cx="391.7662" cy="-162.7001" rx="3.2" ry="3.2"/>
</g>
<!-- data_type -->
<g id="node5" class="node">
<title>data_type</title>
<g id="a_node5"><a xlink:href="../../tables/data_type.html" xlink:title="data_type" target="_top">
<polygon fill="#ffffff" stroke="transparent" points="15.5,-38.2 15.5,-99.2 120.5,-99.2 120.5,-38.2 15.5,-38.2"/>
<polygon fill="#f5f5f5" stroke="transparent" points="16,-75.7 16,-98.7 121,-98.7 121,-75.7 16,-75.7"/>
<polygon fill="none" stroke="#000000" points="16,-75.7 16,-98.7 121,-98.7 121,-75.7 16,-75.7"/>
<text text-anchor="start" x="21" y="-84.3" font-family="Helvetica,sans-Serif" font-weight="bold" font-size="11.00" fill="#000000">data_type</text>
<text text-anchor="start" x="86.5219" y="-83.8" font-family="Helvetica,sans-Serif" font-size="11.00" fill="#000000">[table]</text>
<polygon fill="none" stroke="#000000" points="16,-56.7 16,-75.7 121,-75.7 121,-56.7 16,-56.7"/>
<text text-anchor="start" x="19" y="-62.8" font-family="Helvetica,sans-Serif" font-size="11.00" fill="#000000">...</text>
<polygon fill="#ffffff" stroke="transparent" points="16,-37.7 16,-56.7 48,-56.7 48,-37.7 16,-37.7"/>
<polygon fill="none" stroke="#000000" points="16,-37.7 16,-56.7 48,-56.7 48,-37.7 16,-37.7"/>
<text text-anchor="start" x="19" y="-43.8" font-family="Helvetica,sans-Serif" font-size="11.00" fill="#000000"> &#160;</text>
<polygon fill="#ffffff" stroke="transparent" points="48,-37.7 48,-56.7 90,-56.7 90,-37.7 48,-37.7"/>
<polygon fill="none" stroke="#000000" points="48,-37.7 48,-56.7 90,-56.7 90,-37.7 48,-37.7"/>
<text text-anchor="start" x="60.1105" y="-43.8" font-family="Helvetica,sans-Serif" font-size="11.00" fill="#000000">1 row</text>
<polygon fill="#ffffff" stroke="transparent" points="90,-37.7 90,-56.7 121,-56.7 121,-37.7 90,-37.7"/>
<polygon fill="none" stroke="#000000" points="90,-37.7 90,-56.7 121,-56.7 121,-37.7 90,-37.7"/>
<text text-anchor="start" x="102.4053" y="-43.8" font-family="Helvetica,sans-Serif" font-size="11.00" fill="#000000">2 &gt;</text>
</a>
</g>
</g>
<!-- aspect_attribute&#45;&gt;data_type -->
<g id="edge4" class="edge">
<title>aspect_attribute:w&#45;&gt;data_type:e</title>
<path fill="none" stroke="#000000" d="M451.3373,-116.9574C430.6266,-93.5331 402.1269,-67.3404 370,-54.7 290.9976,-23.6163 191.2648,-37.4012 128.5372,-51.7647"/>
<polygon fill="#000000" stroke="#000000" points="455.6797,-122.0668 458.1174,-130.494 458.2701,-125.1147 460.8605,-128.1627 460.8605,-128.1627 460.8605,-128.1627 458.2701,-125.1147 463.6037,-125.8313 455.6797,-122.0668 455.6797,-122.0668"/>
<ellipse fill="none" stroke="#000000" cx="453.6074" cy="-119.6284" rx="3.2" ry="3.2"/>
</g>
<!-- attribute&#45;&gt;aspect_type -->
<g id="edge5" class="edge">
<title>attribute:w&#45;&gt;aspect_type:e</title>
<path fill="none" stroke="#000000" d="M165.3212,-122.744C139.8061,-141.4524 171.9384,-218.7 128,-218.7"/>
<polygon fill="#000000" stroke="#000000" points="171.8068,-120.8942 180.4874,-122.1619 175.6534,-119.7971 179.5,-118.7 179.5,-118.7 179.5,-118.7 175.6534,-119.7971 178.5126,-115.2381 171.8068,-120.8942 171.8068,-120.8942"/>
<ellipse fill="none" stroke="#000000" cx="168.7295" cy="-121.7719" rx="3.2" ry="3.2"/>
</g>
<!-- attribute&#45;&gt;data_type -->
<g id="edge6" class="edge">
<title>attribute:w&#45;&gt;data_type:e</title>
<path fill="none" stroke="#000000" d="M164.7695,-95.9921C152.5847,-94.8706 140.253,-92.5144 128.6595,-89.6344"/>
<polygon fill="#000000" stroke="#000000" points="171.5092,-96.3159 179.3272,-100.2959 175.5046,-96.508 179.5,-96.7 179.5,-96.7 179.5,-96.7 175.5046,-96.508 179.6728,-93.1041 171.5092,-96.3159 171.5092,-96.3159"/>
<ellipse fill="none" stroke="#000000" cx="168.3129" cy="-96.1623" rx="3.2" ry="3.2"/>
</g>
</g>
</svg>
