<?xml version="1.0" encoding="UTF-8" standalone="no"?>
<!DOCTYPE svg PUBLIC "-//W3C//DTD SVG 1.1//EN"
 "http://www.w3.org/Graphics/SVG/1.1/DTD/svg11.dtd">
<!-- Generated by graphviz version 2.40.1 (20161225.0304)
 -->
<!-- Title: oneDegreeRelationshipsDiagram Pages: 1 -->
<svg width="588pt" height="220pt"
 viewBox="0.00 0.00 588.00 219.70" xmlns="http://www.w3.org/2000/svg" xmlns:xlink="http://www.w3.org/1999/xlink">
<g id="graph0" class="graph" transform="scale(1 1) rotate(0) translate(4 215.7)">
<title>oneDegreeRelationshipsDiagram</title>
<polygon fill="#ffffff" stroke="transparent" points="-4,4 -4,-215.7 584,-215.7 584,4 -4,4"/>
<text text-anchor="middle" x="72.4936" y="-7.3" font-family="Helvetica,sans-Serif" font-size="11.00" fill="#000000">Generated by SchemaSpy</text>
<!-- aspect_attribute -->
<g id="node1" class="node">
<title>aspect_attribute</title>
<g id="a_node1"><a xlink:href="../../tables/aspect_attribute.html" xlink:title="aspect_attribute" target="_top">
<polygon fill="#ffffff" stroke="transparent" points="422,-54.7 422,-181.7 572,-181.7 572,-54.7 422,-54.7"/>
<polygon fill="#f5f5f5" stroke="transparent" points="422,-158.2 422,-181.2 572,-181.2 572,-158.2 422,-158.2"/>
<polygon fill="none" stroke="#000000" points="422,-158.2 422,-181.2 572,-181.2 572,-158.2 422,-158.2"/>
<text text-anchor="start" x="427" y="-166.8" font-family="Helvetica,sans-Serif" font-weight="bold" font-size="11.00" fill="#000000">aspect_attribute</text>
<text text-anchor="start" x="537.5219" y="-166.3" font-family="Helvetica,sans-Serif" font-size="11.00" fill="#000000">[table]</text>
<polygon fill="none" stroke="#000000" points="422,-136.2 422,-158.2 572,-158.2 572,-136.2 422,-136.2"/>
<image xlink:href="../../images/primaryKeys.png" width="11px" height="12px" preserveAspectRatio="xMinYMin meet" x="427" y="-153.2"/>
<text text-anchor="start" x="451" y="-143.3" font-family="Helvetica,sans-Serif" font-size="11.00" fill="#000000">aspect_id</text>
<polygon fill="none" stroke="#000000" points="422,-114.2 422,-136.2 572,-136.2 572,-114.2 422,-114.2"/>
<image xlink:href="../../images/primaryKeys.png" width="11px" height="12px" preserveAspectRatio="xMinYMin meet" x="427" y="-131.2"/>
<text text-anchor="start" x="451" y="-121.3" font-family="Helvetica,sans-Serif" font-size="11.00" fill="#000000">attribute_id</text>
<polygon fill="#ffffff" stroke="transparent" points="422,-92.2 422,-114.2 572,-114.2 572,-92.2 422,-92.2"/>
<polygon fill="none" stroke="#000000" points="422,-92.2 422,-114.2 572,-114.2 572,-92.2 422,-92.2"/>
<image xlink:href="../../images/foreignKeys.png" width="11px" height="12px" preserveAspectRatio="xMinYMin meet" x="427" y="-109.2"/>
<text text-anchor="start" x="451" y="-99.3" font-family="Helvetica,sans-Serif" font-size="11.00" fill="#000000">data_type_id</text>
<polygon fill="none" stroke="#000000" points="422,-73.2 422,-92.2 572,-92.2 572,-73.2 422,-73.2"/>
<text text-anchor="start" x="425" y="-79.3" font-family="Helvetica,sans-Serif" font-size="11.00" fill="#000000">...</text>
<polygon fill="#ffffff" stroke="transparent" points="422,-54.2 422,-73.2 465,-73.2 465,-54.2 422,-54.2"/>
<polygon fill="none" stroke="#000000" points="422,-54.2 422,-73.2 465,-73.2 465,-54.2 422,-54.2"/>
<text text-anchor="start" x="425" y="-60.3" font-family="Helvetica,sans-Serif" font-size="11.00" fill="#000000">&lt; 3</text>
<polygon fill="#ffffff" stroke="transparent" points="465,-54.2 465,-73.2 548,-73.2 548,-54.2 465,-54.2"/>
<polygon fill="none" stroke="#000000" points="465,-54.2 465,-73.2 548,-73.2 548,-54.2 465,-54.2"/>
<text text-anchor="start" x="478.9791" y="-60.3" font-family="Helvetica,sans-Serif" font-size="11.00" fill="#000000">200.382 rows</text>
<polygon fill="#ffffff" stroke="transparent" points="548,-54.2 548,-73.2 572,-73.2 572,-54.2 548,-54.2"/>
<polygon fill="none" stroke="#000000" points="548,-54.2 548,-73.2 572,-73.2 572,-54.2 548,-54.2"/>
<text text-anchor="start" x="562.8862" y="-60.3" font-family="Helvetica,sans-Serif" font-size="11.00" fill="#000000"> &#160;</text>
</a>
</g>
</g>
<!-- attribute -->
<g id="node2" class="node">
<title>attribute</title>
<g id="a_node2"><a xlink:href="../../tables/attribute.html" xlink:title="attribute" target="_top">
<polygon fill="#ffffff" stroke="transparent" points="253,-80.7 253,-207.7 373,-207.7 373,-80.7 253,-80.7"/>
<polygon fill="#f5f5f5" stroke="transparent" points="253,-184.2 253,-207.2 373,-207.2 373,-184.2 253,-184.2"/>
<polygon fill="none" stroke="#000000" points="253,-184.2 253,-207.2 373,-207.2 373,-184.2 253,-184.2"/>
<text text-anchor="start" x="258" y="-192.8" font-family="Helvetica,sans-Serif" font-weight="bold" font-size="11.00" fill="#000000">attribute</text>
<text text-anchor="start" x="338.0437" y="-192.3" font-family="Helvetica,sans-Serif" font-size="11.00" fill="#000000">[table]</text>
<polygon fill="none" stroke="#000000" points="253,-162.2 253,-184.2 373,-184.2 373,-162.2 253,-162.2"/>
<image xlink:href="../../images/primaryKeys.png" width="11px" height="12px" preserveAspectRatio="xMinYMin meet" x="258" y="-179.2"/>
<text text-anchor="start" x="273" y="-169.3" font-family="Helvetica,sans-Serif" font-size="11.00" fill="#000000">attribute_id</text>
<polygon fill="#ffffff" stroke="transparent" points="253,-140.2 253,-162.2 373,-162.2 373,-140.2 253,-140.2"/>
<polygon fill="none" stroke="#000000" points="253,-140.2 253,-162.2 373,-162.2 373,-140.2 253,-140.2"/>
<image xlink:href="../../images/foreignKeys.png" width="11px" height="12px" preserveAspectRatio="xMinYMin meet" x="258" y="-157.2"/>
<text text-anchor="start" x="273" y="-147.3" font-family="Helvetica,sans-Serif" font-size="11.00" fill="#000000">aspect_type_id</text>
<polygon fill="#ffffff" stroke="transparent" points="253,-118.2 253,-140.2 373,-140.2 373,-118.2 253,-118.2"/>
<polygon fill="none" stroke="#000000" points="253,-118.2 253,-140.2 373,-140.2 373,-118.2 253,-118.2"/>
<image xlink:href="../../images/foreignKeys.png" width="11px" height="12px" preserveAspectRatio="xMinYMin meet" x="258" y="-135.2"/>
<text text-anchor="start" x="273" y="-125.3" font-family="Helvetica,sans-Serif" font-size="11.00" fill="#000000">data_type_id</text>
<polygon fill="none" stroke="#000000" points="253,-99.2 253,-118.2 373,-118.2 373,-99.2 253,-99.2"/>
<text text-anchor="start" x="256" y="-105.3" font-family="Helvetica,sans-Serif" font-size="11.00" fill="#000000">...</text>
<polygon fill="#ffffff" stroke="transparent" points="253,-80.2 253,-99.2 294,-99.2 294,-80.2 253,-80.2"/>
<polygon fill="none" stroke="#000000" points="253,-80.2 253,-99.2 294,-99.2 294,-80.2 253,-80.2"/>
<text text-anchor="start" x="256" y="-86.3" font-family="Helvetica,sans-Serif" font-size="11.00" fill="#000000">&lt; 2</text>
<polygon fill="#ffffff" stroke="transparent" points="294,-80.2 294,-99.2 342,-99.2 342,-80.2 294,-80.2"/>
<polygon fill="none" stroke="#000000" points="294,-80.2 294,-99.2 342,-99.2 342,-80.2 294,-80.2"/>
<text text-anchor="start" x="306.6105" y="-86.3" font-family="Helvetica,sans-Serif" font-size="11.00" fill="#000000">2 rows</text>
<polygon fill="#ffffff" stroke="transparent" points="342,-80.2 342,-99.2 373,-99.2 373,-80.2 342,-80.2"/>
<polygon fill="none" stroke="#000000" points="342,-80.2 342,-99.2 373,-99.2 373,-80.2 342,-80.2"/>
<text text-anchor="start" x="354.4053" y="-86.3" font-family="Helvetica,sans-Serif" font-size="11.00" fill="#000000">1 &gt;</text>
</a>
</g>
</g>
<!-- aspect_attribute&#45;&gt;attribute -->
<g id="edge1" class="edge">
<title>aspect_attribute:w&#45;&gt;attribute:e</title>
<path fill="none" stroke="#000000" d="M408.3634,-129.9779C394.571,-142.1189 397.5315,-173.2 373,-173.2"/>
<polygon fill="#000000" stroke="#000000" points="414.45,-127.8454 423.1904,-128.5975 418.225,-126.5227 422,-125.2 422,-125.2 422,-125.2 418.225,-126.5227 420.8096,-121.8025 414.45,-127.8454 414.45,-127.8454"/>
<ellipse fill="none" stroke="#000000" cx="411.43" cy="-128.9035" rx="3.2" ry="3.2"/>
</g>
<!-- data_type -->
<g id="node3" class="node">
<title>data_type</title>
<g id="a_node3"><a xlink:href="../../tables/data_type.html" xlink:title="data_type" target="_top">
<polygon fill="#ffffff" stroke="transparent" points="8,-38.2 8,-128.2 204,-128.2 204,-38.2 8,-38.2"/>
<polygon fill="#f5f5f5" stroke="transparent" points="10,-103.2 10,-126.2 202,-126.2 202,-103.2 10,-103.2"/>
<polygon fill="none" stroke="#000000" points="10,-103.2 10,-126.2 202,-126.2 202,-103.2 10,-103.2"/>
<text text-anchor="start" x="15" y="-111.8" font-family="Helvetica,sans-Serif" font-weight="bold" font-size="11.00" fill="#000000">data_type</text>
<text text-anchor="start" x="167.0437" y="-111.3" font-family="Helvetica,sans-Serif" font-size="11.00" fill="#000000">[table]</text>
<polygon fill="none" stroke="#000000" points="10,-81.2 10,-103.2 141,-103.2 141,-81.2 10,-81.2"/>
<image xlink:href="../../images/primaryKeys.png" width="11px" height="12px" preserveAspectRatio="xMinYMin meet" x="15" y="-98.2"/>
<text text-anchor="start" x="30" y="-88.3" font-family="Helvetica,sans-Serif" font-size="11.00" fill="#000000">data_type_id</text>
<polygon fill="none" stroke="#000000" points="141,-81.2 141,-103.2 202,-103.2 202,-81.2 141,-81.2"/>
<text text-anchor="start" x="144" y="-88.9" font-family="Helvetica,sans-Serif" font-size="11.00" fill="#000000">int4[10]</text>
<polygon fill="none" stroke="#000000" points="10,-59.2 10,-81.2 141,-81.2 141,-59.2 10,-59.2"/>
<text text-anchor="start" x="30" y="-66.3" font-family="Helvetica,sans-Serif" font-size="11.00" fill="#000000">data_type_name</text>
<polygon fill="none" stroke="#000000" points="141,-59.2 141,-81.2 202,-81.2 202,-59.2 141,-59.2"/>
<text text-anchor="start" x="143.994" y="-66.9" font-family="Helvetica,sans-Serif" font-size="11.00" fill="#000000">varchar[30]</text>
<polygon fill="#ffffff" stroke="transparent" points="10,-40.2 10,-59.2 70,-59.2 70,-40.2 10,-40.2"/>
<polygon fill="none" stroke="#000000" points="10,-40.2 10,-59.2 70,-59.2 70,-40.2 10,-40.2"/>
<text text-anchor="start" x="13" y="-46.3" font-family="Helvetica,sans-Serif" font-size="11.00" fill="#000000">&lt; 0</text>
<polygon fill="#ffffff" stroke="transparent" points="70,-40.2 70,-59.2 141,-59.2 141,-40.2 70,-40.2"/>
<polygon fill="none" stroke="#000000" points="70,-40.2 70,-59.2 141,-59.2 141,-40.2 70,-40.2"/>
<text text-anchor="start" x="111.1105" y="-46.3" font-family="Helvetica,sans-Serif" font-size="11.00" fill="#000000">1 row</text>
<polygon fill="#ffffff" stroke="transparent" points="141,-40.2 141,-59.2 202,-59.2 202,-40.2 141,-40.2"/>
<polygon fill="none" stroke="#000000" points="141,-40.2 141,-59.2 202,-59.2 202,-40.2 141,-40.2"/>
<text text-anchor="start" x="183.4053" y="-46.3" font-family="Helvetica,sans-Serif" font-size="11.00" fill="#000000">2 &gt;</text>
<polygon fill="none" stroke="#000000" stroke-width="2" points="9,-39.2 9,-127.2 203,-127.2 203,-39.2 9,-39.2"/>
</a>
</g>
</g>
<!-- aspect_attribute&#45;&gt;data_type -->
<g id="edge2" class="edge">
<title>aspect_attribute:w&#45;&gt;data_type:e</title>
<path fill="none" stroke="#000000" d="M408.235,-98.6605C399.1033,-91.0306 397.2013,-75.9101 381,-70.2 323.9927,-50.1079 303.7626,-56.0405 245,-70.2 224.1302,-75.2288 223.4672,-92.2 202,-92.2"/>
<polygon fill="#000000" stroke="#000000" points="414.4025,-100.6944 420.8725,-106.6189 418.2012,-101.9472 422,-103.2 422,-103.2 422,-103.2 418.2012,-101.9472 423.1275,-99.7811 414.4025,-100.6944 414.4025,-100.6944"/>
<ellipse fill="none" stroke="#000000" cx="411.3635" cy="-99.6922" rx="3.2" ry="3.2"/>
</g>
<!-- attribute&#45;&gt;data_type -->
<g id="edge3" class="edge">
<title>attribute:w&#45;&gt;data_type:e</title>
<path fill="none" stroke="#000000" d="M239.0658,-124.9556C225.64,-115.2369 224.0965,-92.2 202,-92.2"/>
<polygon fill="#000000" stroke="#000000" points="245.3471,-126.8689 251.951,-132.6438 249.1736,-128.0345 253,-129.2 253,-129.2 253,-129.2 249.1736,-128.0345 254.049,-125.7562 245.3471,-126.8689 245.3471,-126.8689"/>
<ellipse fill="none" stroke="#000000" cx="242.286" cy="-125.9365" rx="3.2" ry="3.2"/>
</g>
</g>
</svg>
