<?xml version="1.0" encoding="UTF-8" standalone="no"?>
<!DOCTYPE svg PUBLIC "-//W3C//DTD SVG 1.1//EN"
 "http://www.w3.org/Graphics/SVG/1.1/DTD/svg11.dtd">
<!-- Generated by graphviz version 2.40.1 (20161225.0304)
 -->
<!-- Title: twoDegreesRelationshipsDiagram Pages: 1 -->
<svg width="582pt" height="248pt"
 viewBox="0.00 0.00 582.00 247.70" xmlns="http://www.w3.org/2000/svg" xmlns:xlink="http://www.w3.org/1999/xlink">
<g id="graph0" class="graph" transform="scale(1 1) rotate(0) translate(4 243.7)">
<title>twoDegreesRelationshipsDiagram</title>
<polygon fill="#ffffff" stroke="transparent" points="-4,4 -4,-243.7 578,-243.7 578,4 -4,4"/>
<text text-anchor="middle" x="72.4936" y="-7.3" font-family="Helvetica,sans-Serif" font-size="11.00" fill="#000000">Generated by SchemaSpy</text>
<!-- aspect -->
<g id="node1" class="node">
<title>aspect</title>
<g id="a_node1"><a xlink:href="../../tables/aspect.html" xlink:title="aspect" target="_top">
<polygon fill="#ffffff" stroke="transparent" points="253,-174.7 253,-235.7 367,-235.7 367,-174.7 253,-174.7"/>
<polygon fill="#f5f5f5" stroke="transparent" points="253,-212.2 253,-235.2 367,-235.2 367,-212.2 253,-212.2"/>
<polygon fill="none" stroke="#000000" points="253,-212.2 253,-235.2 367,-235.2 367,-212.2 253,-212.2"/>
<text text-anchor="start" x="258" y="-220.8" font-family="Helvetica,sans-Serif" font-weight="bold" font-size="11.00" fill="#000000">aspect</text>
<text text-anchor="start" x="332.0437" y="-220.3" font-family="Helvetica,sans-Serif" font-size="11.00" fill="#000000">[table]</text>
<polygon fill="none" stroke="#000000" points="253,-193.2 253,-212.2 367,-212.2 367,-193.2 253,-193.2"/>
<text text-anchor="start" x="256" y="-199.3" font-family="Helvetica,sans-Serif" font-size="11.00" fill="#000000">...</text>
<polygon fill="#ffffff" stroke="transparent" points="253,-174.2 253,-193.2 274,-193.2 274,-174.2 253,-174.2"/>
<polygon fill="none" stroke="#000000" points="253,-174.2 253,-193.2 274,-193.2 274,-174.2 253,-174.2"/>
<text text-anchor="start" x="255.7027" y="-180.3" font-family="Helvetica,sans-Serif" font-size="11.00" fill="#000000">&lt; 1</text>
<polygon fill="#ffffff" stroke="transparent" points="274,-174.2 274,-193.2 346,-193.2 346,-174.2 274,-174.2"/>
<polygon fill="none" stroke="#000000" points="274,-174.2 274,-193.2 346,-193.2 346,-174.2 274,-174.2"/>
<text text-anchor="start" x="276.9896" y="-180.3" font-family="Helvetica,sans-Serif" font-size="11.00" fill="#000000">100.191 rows</text>
<polygon fill="#ffffff" stroke="transparent" points="346,-174.2 346,-193.2 367,-193.2 367,-174.2 346,-174.2"/>
<polygon fill="none" stroke="#000000" points="346,-174.2 346,-193.2 367,-193.2 367,-174.2 346,-174.2"/>
<text text-anchor="start" x="348.7027" y="-180.3" font-family="Helvetica,sans-Serif" font-size="11.00" fill="#000000">5 &gt;</text>
</a>
</g>
</g>
<!-- aspect_type -->
<g id="node2" class="node">
<title>aspect_type</title>
<g id="a_node2"><a xlink:href="../../tables/aspect_type.html" xlink:title="aspect_type" target="_top">
<polygon fill="#ffffff" stroke="transparent" points="46,-161.7 46,-222.7 166,-222.7 166,-161.7 46,-161.7"/>
<polygon fill="#f5f5f5" stroke="transparent" points="46,-199.2 46,-222.2 166,-222.2 166,-199.2 46,-199.2"/>
<polygon fill="none" stroke="#000000" points="46,-199.2 46,-222.2 166,-222.2 166,-199.2 46,-199.2"/>
<text text-anchor="start" x="51" y="-207.8" font-family="Helvetica,sans-Serif" font-weight="bold" font-size="11.00" fill="#000000">aspect_type</text>
<text text-anchor="start" x="131.5219" y="-207.3" font-family="Helvetica,sans-Serif" font-size="11.00" fill="#000000">[table]</text>
<polygon fill="none" stroke="#000000" points="46,-180.2 46,-199.2 166,-199.2 166,-180.2 46,-180.2"/>
<text text-anchor="start" x="49" y="-186.3" font-family="Helvetica,sans-Serif" font-size="11.00" fill="#000000">...</text>
<polygon fill="#ffffff" stroke="transparent" points="46,-161.2 46,-180.2 90,-180.2 90,-161.2 46,-161.2"/>
<polygon fill="none" stroke="#000000" points="46,-161.2 46,-180.2 90,-180.2 90,-161.2 46,-161.2"/>
<text text-anchor="start" x="49" y="-167.3" font-family="Helvetica,sans-Serif" font-size="11.00" fill="#000000">&lt; 1</text>
<polygon fill="#ffffff" stroke="transparent" points="90,-161.2 90,-180.2 133,-180.2 133,-161.2 90,-161.2"/>
<polygon fill="none" stroke="#000000" points="90,-161.2 90,-180.2 133,-180.2 133,-161.2 90,-161.2"/>
<text text-anchor="start" x="103.1105" y="-167.3" font-family="Helvetica,sans-Serif" font-size="11.00" fill="#000000">1 row</text>
<polygon fill="#ffffff" stroke="transparent" points="133,-161.2 133,-180.2 166,-180.2 166,-161.2 133,-161.2"/>
<polygon fill="none" stroke="#000000" points="133,-161.2 133,-180.2 166,-180.2 166,-161.2 133,-161.2"/>
<text text-anchor="start" x="147.4053" y="-167.3" font-family="Helvetica,sans-Serif" font-size="11.00" fill="#000000">3 &gt;</text>
</a>
</g>
</g>
<!-- aspect&#45;&gt;aspect_type -->
<g id="edge1" class="edge">
<title>aspect:w&#45;&gt;aspect_type:e</title>
<path fill="none" stroke="#000000" d="M238.5082,-201.5375C210.9294,-198.8883 199.7508,-189.2 166,-189.2"/>
<polygon fill="#000000" stroke="#000000" points="245.0083,-201.8346 252.8356,-205.7962 249.0042,-202.0173 253,-202.2 253,-202.2 253,-202.2 249.0042,-202.0173 253.1644,-198.6038 245.0083,-201.8346 245.0083,-201.8346"/>
<ellipse fill="none" stroke="#000000" cx="241.8117" cy="-201.6884" rx="3.2" ry="3.2"/>
</g>
<!-- aspect_attribute -->
<g id="node3" class="node">
<title>aspect_attribute</title>
<g id="a_node3"><a xlink:href="../../tables/aspect_attribute.html" xlink:title="aspect_attribute" target="_top">
<polygon fill="#ffffff" stroke="transparent" points="416,-92.7 416,-153.7 566,-153.7 566,-92.7 416,-92.7"/>
<polygon fill="#f5f5f5" stroke="transparent" points="416,-130.2 416,-153.2 566,-153.2 566,-130.2 416,-130.2"/>
<polygon fill="none" stroke="#000000" points="416,-130.2 416,-153.2 566,-153.2 566,-130.2 416,-130.2"/>
<text text-anchor="start" x="421" y="-138.8" font-family="Helvetica,sans-Serif" font-weight="bold" font-size="11.00" fill="#000000">aspect_attribute</text>
<text text-anchor="start" x="531.5219" y="-138.3" font-family="Helvetica,sans-Serif" font-size="11.00" fill="#000000">[table]</text>
<polygon fill="none" stroke="#000000" points="416,-111.2 416,-130.2 566,-130.2 566,-111.2 416,-111.2"/>
<text text-anchor="start" x="419" y="-117.3" font-family="Helvetica,sans-Serif" font-size="11.00" fill="#000000">...</text>
<polygon fill="#ffffff" stroke="transparent" points="416,-92.2 416,-111.2 459,-111.2 459,-92.2 416,-92.2"/>
<polygon fill="none" stroke="#000000" points="416,-92.2 416,-111.2 459,-111.2 459,-92.2 416,-92.2"/>
<text text-anchor="start" x="419" y="-98.3" font-family="Helvetica,sans-Serif" font-size="11.00" fill="#000000">&lt; 3</text>
<polygon fill="#ffffff" stroke="transparent" points="459,-92.2 459,-111.2 542,-111.2 542,-92.2 459,-92.2"/>
<polygon fill="none" stroke="#000000" points="459,-92.2 459,-111.2 542,-111.2 542,-92.2 459,-92.2"/>
<text text-anchor="start" x="472.9791" y="-98.3" font-family="Helvetica,sans-Serif" font-size="11.00" fill="#000000">200.382 rows</text>
<polygon fill="#ffffff" stroke="transparent" points="542,-92.2 542,-111.2 566,-111.2 566,-92.2 542,-92.2"/>
<polygon fill="none" stroke="#000000" points="542,-92.2 542,-111.2 566,-111.2 566,-92.2 542,-92.2"/>
<text text-anchor="start" x="556.8862" y="-98.3" font-family="Helvetica,sans-Serif" font-size="11.00" fill="#000000"> &#160;</text>
</a>
</g>
</g>
<!-- aspect_attribute&#45;&gt;aspect -->
<g id="edge2" class="edge">
<title>aspect_attribute:w&#45;&gt;aspect:e</title>
<path fill="none" stroke="#000000" d="M447.9738,-167.3464C425.7903,-185.4321 397.1052,-202.2 367,-202.2"/>
<polygon fill="#000000" stroke="#000000" points="452.9036,-163.0834 461.3096,-160.5736 455.9292,-160.467 458.9548,-157.8506 458.9548,-157.8506 458.9548,-157.8506 455.9292,-160.467 456.6,-155.1275 452.9036,-163.0834 452.9036,-163.0834"/>
<ellipse fill="none" stroke="#000000" cx="450.4831" cy="-165.1765" rx="3.2" ry="3.2"/>
</g>
<!-- attribute -->
<g id="node4" class="node">
<title>attribute</title>
<g id="a_node4"><a xlink:href="../../tables/attribute.html" xlink:title="attribute" target="_top">
<polygon fill="#ffffff" stroke="transparent" points="260.5,-92.7 260.5,-153.7 359.5,-153.7 359.5,-92.7 260.5,-92.7"/>
<polygon fill="#f5f5f5" stroke="transparent" points="261,-130.2 261,-153.2 360,-153.2 360,-130.2 261,-130.2"/>
<polygon fill="none" stroke="#000000" points="261,-130.2 261,-153.2 360,-153.2 360,-130.2 261,-130.2"/>
<text text-anchor="start" x="266" y="-138.8" font-family="Helvetica,sans-Serif" font-weight="bold" font-size="11.00" fill="#000000">attribute</text>
<text text-anchor="start" x="325.5219" y="-138.3" font-family="Helvetica,sans-Serif" font-size="11.00" fill="#000000">[table]</text>
<polygon fill="none" stroke="#000000" points="261,-111.2 261,-130.2 360,-130.2 360,-111.2 261,-111.2"/>
<text text-anchor="start" x="264" y="-117.3" font-family="Helvetica,sans-Serif" font-size="11.00" fill="#000000">...</text>
<polygon fill="#ffffff" stroke="transparent" points="261,-92.2 261,-111.2 291,-111.2 291,-92.2 261,-92.2"/>
<polygon fill="none" stroke="#000000" points="261,-92.2 261,-111.2 291,-111.2 291,-92.2 261,-92.2"/>
<text text-anchor="start" x="264" y="-98.3" font-family="Helvetica,sans-Serif" font-size="11.00" fill="#000000">&lt; 2</text>
<polygon fill="#ffffff" stroke="transparent" points="291,-92.2 291,-111.2 334,-111.2 334,-92.2 291,-92.2"/>
<polygon fill="none" stroke="#000000" points="291,-92.2 291,-111.2 334,-111.2 334,-92.2 291,-92.2"/>
<text text-anchor="start" x="298.6105" y="-98.3" font-family="Helvetica,sans-Serif" font-size="11.00" fill="#000000">2 rows</text>
<polygon fill="#ffffff" stroke="transparent" points="334,-92.2 334,-111.2 360,-111.2 360,-92.2 334,-92.2"/>
<polygon fill="none" stroke="#000000" points="334,-92.2 334,-111.2 360,-111.2 360,-92.2 334,-92.2"/>
<text text-anchor="start" x="341.4053" y="-98.3" font-family="Helvetica,sans-Serif" font-size="11.00" fill="#000000">1 &gt;</text>
</a>
</g>
</g>
<!-- aspect_attribute&#45;&gt;attribute -->
<g id="edge3" class="edge">
<title>aspect_attribute:w&#45;&gt;attribute:e</title>
<path fill="none" stroke="#000000" d="M393.4786,-123.2C384.6174,-123.2 375.8465,-123.2 367.5085,-123.2"/>
<polygon fill="#000000" stroke="#000000" points="399.9164,-123.2001 407.9165,-126.8 403.9164,-123.2 407.9164,-123.2 407.9164,-123.2 407.9164,-123.2 403.9164,-123.2 407.9164,-119.6 399.9164,-123.2001 399.9164,-123.2001"/>
<ellipse fill="none" stroke="#000000" cx="396.7164" cy="-123.2001" rx="3.2" ry="3.2"/>
</g>
<!-- data_type -->
<g id="node5" class="node">
<title>data_type</title>
<g id="a_node5"><a xlink:href="../../tables/data_type.html" xlink:title="data_type" target="_top">
<polygon fill="#ffffff" stroke="transparent" points="8,-38.2 8,-128.2 204,-128.2 204,-38.2 8,-38.2"/>
<polygon fill="#f5f5f5" stroke="transparent" points="10,-103.2 10,-126.2 202,-126.2 202,-103.2 10,-103.2"/>
<polygon fill="none" stroke="#000000" points="10,-103.2 10,-126.2 202,-126.2 202,-103.2 10,-103.2"/>
<text text-anchor="start" x="15" y="-111.8" font-family="Helvetica,sans-Serif" font-weight="bold" font-size="11.00" fill="#000000">data_type</text>
<text text-anchor="start" x="167.0437" y="-111.3" font-family="Helvetica,sans-Serif" font-size="11.00" fill="#000000">[table]</text>
<polygon fill="none" stroke="#000000" points="10,-81.2 10,-103.2 141,-103.2 141,-81.2 10,-81.2"/>
<image xlink:href="../../images/primaryKeys.png" width="11px" height="12px" preserveAspectRatio="xMinYMin meet" x="15" y="-98.2"/>
<text text-anchor="start" x="30" y="-88.3" font-family="Helvetica,sans-Serif" font-size="11.00" fill="#000000">data_type_id</text>
<polygon fill="none" stroke="#000000" points="141,-81.2 141,-103.2 202,-103.2 202,-81.2 141,-81.2"/>
<text text-anchor="start" x="144" y="-88.9" font-family="Helvetica,sans-Serif" font-size="11.00" fill="#000000">int4[10]</text>
<polygon fill="none" stroke="#000000" points="10,-59.2 10,-81.2 141,-81.2 141,-59.2 10,-59.2"/>
<text text-anchor="start" x="30" y="-66.3" font-family="Helvetica,sans-Serif" font-size="11.00" fill="#000000">data_type_name</text>
<polygon fill="none" stroke="#000000" points="141,-59.2 141,-81.2 202,-81.2 202,-59.2 141,-59.2"/>
<text text-anchor="start" x="143.994" y="-66.9" font-family="Helvetica,sans-Serif" font-size="11.00" fill="#000000">varchar[30]</text>
<polygon fill="#ffffff" stroke="transparent" points="10,-40.2 10,-59.2 70,-59.2 70,-40.2 10,-40.2"/>
<polygon fill="none" stroke="#000000" points="10,-40.2 10,-59.2 70,-59.2 70,-40.2 10,-40.2"/>
<text text-anchor="start" x="13" y="-46.3" font-family="Helvetica,sans-Serif" font-size="11.00" fill="#000000">&lt; 0</text>
<polygon fill="#ffffff" stroke="transparent" points="70,-40.2 70,-59.2 141,-59.2 141,-40.2 70,-40.2"/>
<polygon fill="none" stroke="#000000" points="70,-40.2 70,-59.2 141,-59.2 141,-40.2 70,-40.2"/>
<text text-anchor="start" x="111.1105" y="-46.3" font-family="Helvetica,sans-Serif" font-size="11.00" fill="#000000">1 row</text>
<polygon fill="#ffffff" stroke="transparent" points="141,-40.2 141,-59.2 202,-59.2 202,-40.2 141,-40.2"/>
<polygon fill="none" stroke="#000000" points="141,-40.2 141,-59.2 202,-59.2 202,-40.2 141,-40.2"/>
<text text-anchor="start" x="183.4053" y="-46.3" font-family="Helvetica,sans-Serif" font-size="11.00" fill="#000000">2 &gt;</text>
<polygon fill="none" stroke="#000000" stroke-width="2" points="9,-39.2 9,-127.2 203,-127.2 203,-39.2 9,-39.2"/>
</a>
</g>
</g>
<!-- aspect_attribute&#45;&gt;data_type -->
<g id="edge4" class="edge">
<title>aspect_attribute:w&#45;&gt;data_type:e</title>
<path fill="none" stroke="#000000" d="M394.0266,-86.2535C387.6471,-84.6547 381.268,-83.2751 375,-82.2 318.0538,-72.4323 302.4011,-75.6133 245,-82.2 225.5068,-84.4368 221.6211,-92.2 202,-92.2"/>
<polygon fill="#000000" stroke="#000000" points="400.2351,-87.9553 406.9987,-93.5422 404.0927,-89.0128 407.9504,-90.0703 407.9504,-90.0703 407.9504,-90.0703 404.0927,-89.0128 408.9022,-86.5984 400.2351,-87.9553 400.2351,-87.9553"/>
<ellipse fill="none" stroke="#000000" cx="397.1489" cy="-87.1093" rx="3.2" ry="3.2"/>
</g>
<!-- attribute&#45;&gt;aspect_type -->
<g id="edge5" class="edge">
<title>attribute:w&#45;&gt;aspect_type:e</title>
<path fill="none" stroke="#000000" d="M239.4167,-162.2407C211.0465,-176.4992 181.4418,-189.2 166,-189.2"/>
<polygon fill="#000000" stroke="#000000" points="245.193,-159.2745 253.954,-158.8224 248.7512,-157.4472 252.3095,-155.6199 252.3095,-155.6199 252.3095,-155.6199 248.7512,-157.4472 250.6649,-152.4175 245.193,-159.2745 245.193,-159.2745"/>
<ellipse fill="none" stroke="#000000" cx="242.3464" cy="-160.7363" rx="3.2" ry="3.2"/>
</g>
<!-- attribute&#45;&gt;data_type -->
<g id="edge6" class="edge">
<title>attribute:w&#45;&gt;data_type:e</title>
<path fill="none" stroke="#000000" d="M238.0603,-96.6132C226.1729,-93.9477 213.8574,-92.2 202,-92.2"/>
<polygon fill="#000000" stroke="#000000" points="244.5395,-98.2757 251.3938,-103.751 248.414,-99.2698 252.2885,-100.264 252.2885,-100.264 252.2885,-100.264 248.414,-99.2698 253.1832,-96.7769 244.5395,-98.2757 244.5395,-98.2757"/>
<ellipse fill="none" stroke="#000000" cx="241.4399" cy="-97.4803" rx="3.2" ry="3.2"/>
</g>
</g>
</svg>
