<?xml version="1.0" encoding="UTF-8" standalone="no"?>
<!DOCTYPE svg PUBLIC "-//W3C//DTD SVG 1.1//EN"
 "http://www.w3.org/Graphics/SVG/1.1/DTD/svg11.dtd">
<!-- Generated by graphviz version 2.40.1 (20161225.0304)
 -->
<!-- Title: oneDegreeRelationshipsDiagram Pages: 1 -->
<svg width="232pt" height="184pt"
 viewBox="0.00 0.00 232.00 184.20" xmlns="http://www.w3.org/2000/svg" xmlns:xlink="http://www.w3.org/1999/xlink">
<g id="graph0" class="graph" transform="scale(1 1) rotate(0) translate(4 180.2)">
<title>oneDegreeRelationshipsDiagram</title>
<polygon fill="#ffffff" stroke="transparent" points="-4,4 -4,-180.2 228,-180.2 228,4 -4,4"/>
<text text-anchor="middle" x="72.4936" y="-7.3" font-family="Helvetica,sans-Serif" font-size="11.00" fill="#000000">Generated by SchemaSpy</text>
<!-- disabled_fks -->
<g id="node1" class="node">
<title>disabled_fks</title>
<g id="a_node1"><a xlink:href="../../tables/disabled_fks.html" xlink:title="disabled_fks" target="_top">
<polygon fill="#ffffff" stroke="transparent" points="8,-38.2 8,-172.2 216,-172.2 216,-38.2 8,-38.2"/>
<polygon fill="#f5f5f5" stroke="transparent" points="10,-147.2 10,-170.2 214,-170.2 214,-147.2 10,-147.2"/>
<polygon fill="none" stroke="#000000" points="10,-147.2 10,-170.2 214,-170.2 214,-147.2 10,-147.2"/>
<text text-anchor="start" x="15" y="-155.8" font-family="Helvetica,sans-Serif" font-weight="bold" font-size="11.00" fill="#000000">disabled_fks</text>
<text text-anchor="start" x="179.0437" y="-155.3" font-family="Helvetica,sans-Serif" font-size="11.00" fill="#000000">[table]</text>
<polygon fill="none" stroke="#000000" points="10,-125.2 10,-147.2 114,-147.2 114,-125.2 10,-125.2"/>
<text text-anchor="start" x="30" y="-132.3" font-family="Helvetica,sans-Serif" font-size="11.00" fill="#000000">fk_id</text>
<polygon fill="none" stroke="#000000" points="114,-125.2 114,-147.2 214,-147.2 214,-125.2 114,-125.2"/>
<text text-anchor="start" x="117" y="-132.9" font-family="Helvetica,sans-Serif" font-size="11.00" fill="#000000">oid[10]</text>
<polygon fill="none" stroke="#000000" points="10,-103.2 10,-125.2 114,-125.2 114,-103.2 10,-103.2"/>
<text text-anchor="start" x="30" y="-110.3" font-family="Helvetica,sans-Serif" font-size="11.00" fill="#000000">rel_id</text>
<polygon fill="none" stroke="#000000" points="114,-103.2 114,-125.2 214,-125.2 214,-103.2 114,-103.2"/>
<text text-anchor="start" x="117" y="-110.9" font-family="Helvetica,sans-Serif" font-size="11.00" fill="#000000">oid[10]</text>
<polygon fill="none" stroke="#000000" points="10,-81.2 10,-103.2 114,-103.2 114,-81.2 10,-81.2"/>
<text text-anchor="start" x="30" y="-88.3" font-family="Helvetica,sans-Serif" font-size="11.00" fill="#000000">fk_name</text>
<polygon fill="none" stroke="#000000" points="114,-81.2 114,-103.2 214,-103.2 214,-81.2 114,-81.2"/>
<text text-anchor="start" x="116.6153" y="-88.9" font-family="Helvetica,sans-Serif" font-size="11.00" fill="#000000">name[2147483647]</text>
<polygon fill="none" stroke="#000000" points="10,-59.2 10,-81.2 114,-81.2 114,-59.2 10,-59.2"/>
<text text-anchor="start" x="30" y="-66.3" font-family="Helvetica,sans-Serif" font-size="11.00" fill="#000000">fk_def</text>
<polygon fill="none" stroke="#000000" points="114,-59.2 114,-81.2 214,-81.2 214,-59.2 114,-59.2"/>
<text text-anchor="start" x="117" y="-66.9" font-family="Helvetica,sans-Serif" font-size="11.00" fill="#000000">text[2147483647]</text>
<polygon fill="#ffffff" stroke="transparent" points="10,-40.2 10,-59.2 53,-59.2 53,-40.2 10,-40.2"/>
<polygon fill="none" stroke="#000000" points="10,-40.2 10,-59.2 53,-59.2 53,-40.2 10,-40.2"/>
<text text-anchor="start" x="13" y="-46.3" font-family="Helvetica,sans-Serif" font-size="11.00" fill="#000000">&lt; 0</text>
<polygon fill="#ffffff" stroke="transparent" points="53,-40.2 53,-59.2 114,-59.2 114,-40.2 53,-40.2"/>
<polygon fill="none" stroke="#000000" points="53,-40.2 53,-59.2 114,-59.2 114,-40.2 53,-40.2"/>
<text text-anchor="start" x="78.6105" y="-46.3" font-family="Helvetica,sans-Serif" font-size="11.00" fill="#000000">0 rows</text>
<polygon fill="#ffffff" stroke="transparent" points="114,-40.2 114,-59.2 214,-59.2 214,-40.2 114,-40.2"/>
<polygon fill="none" stroke="#000000" points="114,-40.2 114,-59.2 214,-59.2 214,-40.2 114,-40.2"/>
<text text-anchor="start" x="195.4053" y="-46.3" font-family="Helvetica,sans-Serif" font-size="11.00" fill="#000000">0 &gt;</text>
<polygon fill="none" stroke="#000000" stroke-width="2" points="9,-39.2 9,-171.2 215,-171.2 215,-39.2 9,-39.2"/>
</a>
</g>
</g>
</g>
</svg>
