<?xml version="1.0" encoding="UTF-8" standalone="no"?>
<!DOCTYPE svg PUBLIC "-//W3C//DTD SVG 1.1//EN"
 "http://www.w3.org/Graphics/SVG/1.1/DTD/svg11.dtd">
<!-- Generated by graphviz version 2.40.1 (20161225.0304)
 -->
<!-- Title: oneDegreeRelationshipsDiagram Pages: 1 -->
<svg width="471pt" height="228pt"
 viewBox="0.00 0.00 471.00 228.20" xmlns="http://www.w3.org/2000/svg" xmlns:xlink="http://www.w3.org/1999/xlink">
<g id="graph0" class="graph" transform="scale(1 1) rotate(0) translate(4 224.2)">
<title>oneDegreeRelationshipsDiagram</title>
<polygon fill="#ffffff" stroke="transparent" points="-4,4 -4,-224.2 467,-224.2 467,4 -4,4"/>
<text text-anchor="middle" x="72.4936" y="-7.3" font-family="Helvetica,sans-Serif" font-size="11.00" fill="#000000">Generated by SchemaSpy</text>
<!-- mat -->
<g id="node1" class="node">
<title>mat</title>
<g id="a_node1"><a xlink:href="../../tables/mat.html" xlink:title="mat" target="_top">
<polygon fill="#ffffff" stroke="transparent" points="193,-38.2 193,-216.2 455,-216.2 455,-38.2 193,-38.2"/>
<polygon fill="#f5f5f5" stroke="transparent" points="195,-191.2 195,-214.2 453,-214.2 453,-191.2 195,-191.2"/>
<polygon fill="none" stroke="#000000" points="195,-191.2 195,-214.2 453,-214.2 453,-191.2 195,-191.2"/>
<text text-anchor="start" x="200" y="-199.8" font-family="Helvetica,sans-Serif" font-weight="bold" font-size="11.00" fill="#000000">mat</text>
<text text-anchor="start" x="418.0437" y="-199.3" font-family="Helvetica,sans-Serif" font-size="11.00" fill="#000000">[table]</text>
<polygon fill="none" stroke="#000000" points="195,-169.2 195,-191.2 326,-191.2 326,-169.2 195,-169.2"/>
<image xlink:href="../../images/primaryKeys.png" width="11px" height="12px" preserveAspectRatio="xMinYMin meet" x="200" y="-186.2"/>
<text text-anchor="start" x="215" y="-176.3" font-family="Helvetica,sans-Serif" font-size="11.00" fill="#000000">mat_id</text>
<polygon fill="none" stroke="#000000" points="326,-169.2 326,-191.2 453,-191.2 453,-169.2 326,-169.2"/>
<text text-anchor="start" x="329" y="-176.9" font-family="Helvetica,sans-Serif" font-size="11.00" fill="#000000">int4[10]</text>
<polygon fill="#ffffff" stroke="transparent" points="195,-147.2 195,-169.2 326,-169.2 326,-147.2 195,-147.2"/>
<polygon fill="none" stroke="#000000" points="195,-147.2 195,-169.2 326,-169.2 326,-147.2 195,-147.2"/>
<text text-anchor="start" x="215" y="-154.3" font-family="Helvetica,sans-Serif" font-size="11.00" fill="#000000">description</text>
<polygon fill="none" stroke="#000000" points="326,-147.2 326,-169.2 453,-169.2 453,-147.2 326,-147.2"/>
<text text-anchor="start" x="329" y="-154.9" font-family="Helvetica,sans-Serif" font-size="11.00" fill="#000000">varchar[50]</text>
<polygon fill="#ffffff" stroke="transparent" points="195,-125.2 195,-147.2 326,-147.2 326,-125.2 195,-125.2"/>
<polygon fill="none" stroke="#000000" points="195,-125.2 195,-147.2 326,-147.2 326,-125.2 195,-125.2"/>
<image xlink:href="../../images/foreignKeys.png" width="11px" height="12px" preserveAspectRatio="xMinYMin meet" x="200" y="-142.2"/>
<text text-anchor="start" x="215" y="-132.3" font-family="Helvetica,sans-Serif" font-size="11.00" fill="#000000">mo_id</text>
<polygon fill="none" stroke="#000000" points="326,-125.2 326,-147.2 453,-147.2 453,-125.2 326,-125.2"/>
<text text-anchor="start" x="329" y="-132.9" font-family="Helvetica,sans-Serif" font-size="11.00" fill="#000000">int4[10]</text>
<polygon fill="none" stroke="#000000" points="195,-103.2 195,-125.2 326,-125.2 326,-103.2 195,-103.2"/>
<text text-anchor="start" x="215" y="-110.3" font-family="Helvetica,sans-Serif" font-size="11.00" fill="#000000">raw_trajectory</text>
<polygon fill="none" stroke="#000000" points="326,-103.2 326,-125.2 453,-125.2 453,-103.2 326,-103.2"/>
<text text-anchor="start" x="328.6656" y="-110.9" font-family="Helvetica,sans-Serif" font-size="11.00" fill="#000000">tgeompoint[2147483647]</text>
<polygon fill="none" stroke="#000000" points="195,-81.2 195,-103.2 326,-103.2 326,-81.2 195,-81.2"/>
<text text-anchor="start" x="215" y="-88.3" font-family="Helvetica,sans-Serif" font-size="11.00" fill="#000000">trajectory_geom</text>
<polygon fill="none" stroke="#000000" points="326,-81.2 326,-103.2 453,-103.2 453,-81.2 326,-81.2"/>
<text text-anchor="start" x="329" y="-88.9" font-family="Helvetica,sans-Serif" font-size="11.00" fill="#000000">geometry[2147483647]</text>
<polygon fill="none" stroke="#000000" points="195,-59.2 195,-81.2 326,-81.2 326,-59.2 195,-59.2"/>
<text text-anchor="start" x="215" y="-66.3" font-family="Helvetica,sans-Serif" font-size="11.00" fill="#000000">mat_date</text>
<polygon fill="none" stroke="#000000" points="326,-59.2 326,-81.2 453,-81.2 453,-59.2 326,-59.2"/>
<text text-anchor="start" x="329" y="-66.9" font-family="Helvetica,sans-Serif" font-size="11.00" fill="#000000">date[13]</text>
<polygon fill="#ffffff" stroke="transparent" points="195,-40.2 195,-59.2 252,-59.2 252,-40.2 195,-40.2"/>
<polygon fill="none" stroke="#000000" points="195,-40.2 195,-59.2 252,-59.2 252,-40.2 195,-40.2"/>
<text text-anchor="start" x="198" y="-46.3" font-family="Helvetica,sans-Serif" font-size="11.00" fill="#000000">&lt; 1</text>
<polygon fill="#ffffff" stroke="transparent" points="252,-40.2 252,-59.2 326,-59.2 326,-40.2 252,-40.2"/>
<polygon fill="none" stroke="#000000" points="252,-40.2 252,-59.2 326,-59.2 326,-40.2 252,-40.2"/>
<text text-anchor="start" x="290.6105" y="-46.3" font-family="Helvetica,sans-Serif" font-size="11.00" fill="#000000">0 rows</text>
<polygon fill="#ffffff" stroke="transparent" points="326,-40.2 326,-59.2 453,-59.2 453,-40.2 326,-40.2"/>
<polygon fill="none" stroke="#000000" points="326,-40.2 326,-59.2 453,-59.2 453,-40.2 326,-40.2"/>
<text text-anchor="start" x="434.4053" y="-46.3" font-family="Helvetica,sans-Serif" font-size="11.00" fill="#000000">0 &gt;</text>
<polygon fill="none" stroke="#000000" stroke-width="2" points="194,-39.2 194,-215.2 454,-215.2 454,-39.2 194,-39.2"/>
</a>
</g>
</g>
<!-- moving_object -->
<g id="node2" class="node">
<title>moving_object</title>
<g id="a_node2"><a xlink:href="../../tables/moving_object.html" xlink:title="moving_object" target="_top">
<polygon fill="#ffffff" stroke="transparent" points="8,-62.2 8,-170.2 144,-170.2 144,-62.2 8,-62.2"/>
<polygon fill="#f5f5f5" stroke="transparent" points="8,-147.2 8,-170.2 144,-170.2 144,-147.2 8,-147.2"/>
<polygon fill="none" stroke="#000000" points="8,-147.2 8,-170.2 144,-170.2 144,-147.2 8,-147.2"/>
<text text-anchor="start" x="13" y="-155.8" font-family="Helvetica,sans-Serif" font-weight="bold" font-size="11.00" fill="#000000">moving_object</text>
<text text-anchor="start" x="109.5219" y="-155.3" font-family="Helvetica,sans-Serif" font-size="11.00" fill="#000000">[table]</text>
<polygon fill="none" stroke="#000000" points="8,-125.2 8,-147.2 144,-147.2 144,-125.2 8,-125.2"/>
<image xlink:href="../../images/primaryKeys.png" width="11px" height="12px" preserveAspectRatio="xMinYMin meet" x="13" y="-142.2"/>
<text text-anchor="start" x="37" y="-132.3" font-family="Helvetica,sans-Serif" font-size="11.00" fill="#000000">mo_id</text>
<polygon fill="#ffffff" stroke="transparent" points="8,-103.2 8,-125.2 144,-125.2 144,-103.2 8,-103.2"/>
<polygon fill="none" stroke="#000000" points="8,-103.2 8,-125.2 144,-125.2 144,-103.2 8,-103.2"/>
<text text-anchor="start" x="37" y="-110.3" font-family="Helvetica,sans-Serif" font-size="11.00" fill="#000000">description</text>
<polygon fill="#ffffff" stroke="transparent" points="8,-81.2 8,-103.2 144,-103.2 144,-81.2 8,-81.2"/>
<polygon fill="none" stroke="#000000" points="8,-81.2 8,-103.2 144,-103.2 144,-81.2 8,-81.2"/>
<image xlink:href="../../images/foreignKeys.png" width="11px" height="12px" preserveAspectRatio="xMinYMin meet" x="13" y="-98.2"/>
<text text-anchor="start" x="37" y="-88.3" font-family="Helvetica,sans-Serif" font-size="11.00" fill="#000000">mo_type_id</text>
<polygon fill="#ffffff" stroke="transparent" points="8,-62.2 8,-81.2 46,-81.2 46,-62.2 8,-62.2"/>
<polygon fill="none" stroke="#000000" points="8,-62.2 8,-81.2 46,-81.2 46,-62.2 8,-62.2"/>
<text text-anchor="start" x="11" y="-68.3" font-family="Helvetica,sans-Serif" font-size="11.00" fill="#000000">&lt; 1</text>
<polygon fill="#ffffff" stroke="transparent" points="46,-62.2 46,-81.2 114,-81.2 114,-62.2 46,-62.2"/>
<polygon fill="none" stroke="#000000" points="46,-62.2 46,-81.2 114,-81.2 114,-62.2 46,-62.2"/>
<text text-anchor="start" x="57.2089" y="-68.3" font-family="Helvetica,sans-Serif" font-size="11.00" fill="#000000">3.376 rows</text>
<polygon fill="#ffffff" stroke="transparent" points="114,-62.2 114,-81.2 144,-81.2 144,-62.2 114,-62.2"/>
<polygon fill="none" stroke="#000000" points="114,-62.2 114,-81.2 144,-81.2 144,-62.2 114,-62.2"/>
<text text-anchor="start" x="125.4053" y="-68.3" font-family="Helvetica,sans-Serif" font-size="11.00" fill="#000000">4 &gt;</text>
</a>
</g>
</g>
<!-- mat&#45;&gt;moving_object -->
<g id="edge1" class="edge">
<title>mat:w&#45;&gt;moving_object:e</title>
<path fill="none" stroke="#000000" d="M180.276,-136.2C168.2815,-136.2 160.8229,-136.2 144,-136.2"/>
<polygon fill="#000000" stroke="#000000" points="187,-136.2001 195,-139.8 191,-136.2 195,-136.2 195,-136.2 195,-136.2 191,-136.2 195,-132.6 187,-136.2001 187,-136.2001"/>
<ellipse fill="none" stroke="#000000" cx="183.8" cy="-136.2001" rx="3.2" ry="3.2"/>
</g>
</g>
</svg>
