<?xml version="1.0" encoding="UTF-8" standalone="no"?>
<!DOCTYPE svg PUBLIC "-//W3C//DTD SVG 1.1//EN"
 "http://www.w3.org/Graphics/SVG/1.1/DTD/svg11.dtd">
<!-- Generated by graphviz version 2.40.1 (20161225.0304)
 -->
<!-- Title: twoDegreesRelationshipsDiagramImplied Pages: 1 -->
<svg width="739pt" height="393pt"
 viewBox="0.00 0.00 739.00 392.70" xmlns="http://www.w3.org/2000/svg" xmlns:xlink="http://www.w3.org/1999/xlink">
<g id="graph0" class="graph" transform="scale(1 1) rotate(0) translate(4 388.7)">
<title>twoDegreesRelationshipsDiagramImplied</title>
<polygon fill="#ffffff" stroke="transparent" points="-4,4 -4,-388.7 735,-388.7 735,4 -4,4"/>
<text text-anchor="middle" x="72.4936" y="-7.3" font-family="Helvetica,sans-Serif" font-size="11.00" fill="#000000">Generated by SchemaSpy</text>
<!-- mat -->
<g id="node1" class="node">
<title>mat</title>
<g id="a_node1"><a xlink:href="../../tables/mat.html" xlink:title="mat" target="_top">
<polygon fill="#ffffff" stroke="transparent" points="338,-38.2 338,-216.2 600,-216.2 600,-38.2 338,-38.2"/>
<polygon fill="#f5f5f5" stroke="transparent" points="340,-191.2 340,-214.2 598,-214.2 598,-191.2 340,-191.2"/>
<polygon fill="none" stroke="#000000" points="340,-191.2 340,-214.2 598,-214.2 598,-191.2 340,-191.2"/>
<text text-anchor="start" x="345" y="-199.8" font-family="Helvetica,sans-Serif" font-weight="bold" font-size="11.00" fill="#000000">mat</text>
<text text-anchor="start" x="563.0437" y="-199.3" font-family="Helvetica,sans-Serif" font-size="11.00" fill="#000000">[table]</text>
<polygon fill="none" stroke="#000000" points="340,-169.2 340,-191.2 471,-191.2 471,-169.2 340,-169.2"/>
<image xlink:href="../../images/primaryKeys.png" width="11px" height="12px" preserveAspectRatio="xMinYMin meet" x="345" y="-186.2"/>
<text text-anchor="start" x="360" y="-176.3" font-family="Helvetica,sans-Serif" font-size="11.00" fill="#000000">mat_id</text>
<polygon fill="none" stroke="#000000" points="471,-169.2 471,-191.2 598,-191.2 598,-169.2 471,-169.2"/>
<text text-anchor="start" x="474" y="-176.9" font-family="Helvetica,sans-Serif" font-size="11.00" fill="#000000">int4[10]</text>
<polygon fill="#ffffff" stroke="transparent" points="340,-147.2 340,-169.2 471,-169.2 471,-147.2 340,-147.2"/>
<polygon fill="none" stroke="#000000" points="340,-147.2 340,-169.2 471,-169.2 471,-147.2 340,-147.2"/>
<text text-anchor="start" x="360" y="-154.3" font-family="Helvetica,sans-Serif" font-size="11.00" fill="#000000">description</text>
<polygon fill="none" stroke="#000000" points="471,-147.2 471,-169.2 598,-169.2 598,-147.2 471,-147.2"/>
<text text-anchor="start" x="474" y="-154.9" font-family="Helvetica,sans-Serif" font-size="11.00" fill="#000000">varchar[50]</text>
<polygon fill="#ffffff" stroke="transparent" points="340,-125.2 340,-147.2 471,-147.2 471,-125.2 340,-125.2"/>
<polygon fill="none" stroke="#000000" points="340,-125.2 340,-147.2 471,-147.2 471,-125.2 340,-125.2"/>
<image xlink:href="../../images/foreignKeys.png" width="11px" height="12px" preserveAspectRatio="xMinYMin meet" x="345" y="-142.2"/>
<text text-anchor="start" x="360" y="-132.3" font-family="Helvetica,sans-Serif" font-size="11.00" fill="#000000">mo_id</text>
<polygon fill="none" stroke="#000000" points="471,-125.2 471,-147.2 598,-147.2 598,-125.2 471,-125.2"/>
<text text-anchor="start" x="474" y="-132.9" font-family="Helvetica,sans-Serif" font-size="11.00" fill="#000000">int4[10]</text>
<polygon fill="none" stroke="#000000" points="340,-103.2 340,-125.2 471,-125.2 471,-103.2 340,-103.2"/>
<text text-anchor="start" x="360" y="-110.3" font-family="Helvetica,sans-Serif" font-size="11.00" fill="#000000">raw_trajectory</text>
<polygon fill="none" stroke="#000000" points="471,-103.2 471,-125.2 598,-125.2 598,-103.2 471,-103.2"/>
<text text-anchor="start" x="473.6656" y="-110.9" font-family="Helvetica,sans-Serif" font-size="11.00" fill="#000000">tgeompoint[2147483647]</text>
<polygon fill="none" stroke="#000000" points="340,-81.2 340,-103.2 471,-103.2 471,-81.2 340,-81.2"/>
<text text-anchor="start" x="360" y="-88.3" font-family="Helvetica,sans-Serif" font-size="11.00" fill="#000000">trajectory_geom</text>
<polygon fill="none" stroke="#000000" points="471,-81.2 471,-103.2 598,-103.2 598,-81.2 471,-81.2"/>
<text text-anchor="start" x="474" y="-88.9" font-family="Helvetica,sans-Serif" font-size="11.00" fill="#000000">geometry[2147483647]</text>
<polygon fill="none" stroke="#000000" points="340,-59.2 340,-81.2 471,-81.2 471,-59.2 340,-59.2"/>
<text text-anchor="start" x="360" y="-66.3" font-family="Helvetica,sans-Serif" font-size="11.00" fill="#000000">mat_date</text>
<polygon fill="none" stroke="#000000" points="471,-59.2 471,-81.2 598,-81.2 598,-59.2 471,-59.2"/>
<text text-anchor="start" x="474" y="-66.9" font-family="Helvetica,sans-Serif" font-size="11.00" fill="#000000">date[13]</text>
<polygon fill="#ffffff" stroke="transparent" points="340,-40.2 340,-59.2 397,-59.2 397,-40.2 340,-40.2"/>
<polygon fill="none" stroke="#000000" points="340,-40.2 340,-59.2 397,-59.2 397,-40.2 340,-40.2"/>
<text text-anchor="start" x="343" y="-46.3" font-family="Helvetica,sans-Serif" font-size="11.00" fill="#000000">&lt; 1</text>
<polygon fill="#ffffff" stroke="transparent" points="397,-40.2 397,-59.2 471,-59.2 471,-40.2 397,-40.2"/>
<polygon fill="none" stroke="#000000" points="397,-40.2 397,-59.2 471,-59.2 471,-40.2 397,-40.2"/>
<text text-anchor="start" x="435.6105" y="-46.3" font-family="Helvetica,sans-Serif" font-size="11.00" fill="#000000">0 rows</text>
<polygon fill="#ffffff" stroke="transparent" points="471,-40.2 471,-59.2 598,-59.2 598,-40.2 471,-40.2"/>
<polygon fill="none" stroke="#000000" points="471,-40.2 471,-59.2 598,-59.2 598,-40.2 471,-40.2"/>
<text text-anchor="start" x="579.4053" y="-46.3" font-family="Helvetica,sans-Serif" font-size="11.00" fill="#000000">1 &gt;</text>
<polygon fill="none" stroke="#000000" stroke-width="2" points="339,-39.2 339,-215.2 599,-215.2 599,-39.2 339,-39.2"/>
</a>
</g>
</g>
<!-- moving_object -->
<g id="node2" class="node">
<title>moving_object</title>
<g id="a_node2"><a xlink:href="../../tables/moving_object.html" xlink:title="moving_object" target="_top">
<polygon fill="#ffffff" stroke="transparent" points="153,-191.2 153,-299.2 289,-299.2 289,-191.2 153,-191.2"/>
<polygon fill="#f5f5f5" stroke="transparent" points="153,-276.2 153,-299.2 289,-299.2 289,-276.2 153,-276.2"/>
<polygon fill="none" stroke="#000000" points="153,-276.2 153,-299.2 289,-299.2 289,-276.2 153,-276.2"/>
<text text-anchor="start" x="158" y="-284.8" font-family="Helvetica,sans-Serif" font-weight="bold" font-size="11.00" fill="#000000">moving_object</text>
<text text-anchor="start" x="254.5219" y="-284.3" font-family="Helvetica,sans-Serif" font-size="11.00" fill="#000000">[table]</text>
<polygon fill="none" stroke="#000000" points="153,-254.2 153,-276.2 289,-276.2 289,-254.2 153,-254.2"/>
<image xlink:href="../../images/primaryKeys.png" width="11px" height="12px" preserveAspectRatio="xMinYMin meet" x="158" y="-271.2"/>
<text text-anchor="start" x="182" y="-261.3" font-family="Helvetica,sans-Serif" font-size="11.00" fill="#000000">mo_id</text>
<polygon fill="#ffffff" stroke="transparent" points="153,-232.2 153,-254.2 289,-254.2 289,-232.2 153,-232.2"/>
<polygon fill="none" stroke="#000000" points="153,-232.2 153,-254.2 289,-254.2 289,-232.2 153,-232.2"/>
<text text-anchor="start" x="182" y="-239.3" font-family="Helvetica,sans-Serif" font-size="11.00" fill="#000000">description</text>
<polygon fill="#ffffff" stroke="transparent" points="153,-210.2 153,-232.2 289,-232.2 289,-210.2 153,-210.2"/>
<polygon fill="none" stroke="#000000" points="153,-210.2 153,-232.2 289,-232.2 289,-210.2 153,-210.2"/>
<image xlink:href="../../images/foreignKeys.png" width="11px" height="12px" preserveAspectRatio="xMinYMin meet" x="158" y="-227.2"/>
<text text-anchor="start" x="182" y="-217.3" font-family="Helvetica,sans-Serif" font-size="11.00" fill="#000000">mo_type_id</text>
<polygon fill="#ffffff" stroke="transparent" points="153,-191.2 153,-210.2 191,-210.2 191,-191.2 153,-191.2"/>
<polygon fill="none" stroke="#000000" points="153,-191.2 153,-210.2 191,-210.2 191,-191.2 153,-191.2"/>
<text text-anchor="start" x="156" y="-197.3" font-family="Helvetica,sans-Serif" font-size="11.00" fill="#000000">&lt; 1</text>
<polygon fill="#ffffff" stroke="transparent" points="191,-191.2 191,-210.2 259,-210.2 259,-191.2 191,-191.2"/>
<polygon fill="none" stroke="#000000" points="191,-191.2 191,-210.2 259,-210.2 259,-191.2 191,-191.2"/>
<text text-anchor="start" x="202.2089" y="-197.3" font-family="Helvetica,sans-Serif" font-size="11.00" fill="#000000">3.376 rows</text>
<polygon fill="#ffffff" stroke="transparent" points="259,-191.2 259,-210.2 289,-210.2 289,-191.2 259,-191.2"/>
<polygon fill="none" stroke="#000000" points="259,-191.2 259,-210.2 289,-210.2 289,-191.2 259,-191.2"/>
<text text-anchor="start" x="270.4053" y="-197.3" font-family="Helvetica,sans-Serif" font-size="11.00" fill="#000000">4 &gt;</text>
</a>
</g>
</g>
<!-- mat&#45;&gt;moving_object -->
<g id="edge1" class="edge">
<title>mat:w&#45;&gt;moving_object:e</title>
<path fill="none" stroke="#000000" d="M325.521,-139.6504C291.1928,-160.1651 344.6307,-265.2 289,-265.2"/>
<polygon fill="#000000" stroke="#000000" points="332.2179,-138.0546 340.8346,-139.7019 336.109,-137.1273 340,-136.2 340,-136.2 340,-136.2 336.109,-137.1273 339.1654,-132.6981 332.2179,-138.0546 332.2179,-138.0546"/>
<ellipse fill="none" stroke="#000000" cx="329.1051" cy="-138.7964" rx="3.2" ry="3.2"/>
</g>
<!-- mo_type -->
<g id="node5" class="node">
<title>mo_type</title>
<g id="a_node5"><a xlink:href="../../tables/mo_type.html" xlink:title="mo_type" target="_top">
<polygon fill="#ffffff" stroke="transparent" points="8,-193.7 8,-254.7 104,-254.7 104,-193.7 8,-193.7"/>
<polygon fill="#f5f5f5" stroke="transparent" points="8,-231.2 8,-254.2 104,-254.2 104,-231.2 8,-231.2"/>
<polygon fill="none" stroke="#000000" points="8,-231.2 8,-254.2 104,-254.2 104,-231.2 8,-231.2"/>
<text text-anchor="start" x="13" y="-239.8" font-family="Helvetica,sans-Serif" font-weight="bold" font-size="11.00" fill="#000000">mo_type</text>
<text text-anchor="start" x="69.5219" y="-239.3" font-family="Helvetica,sans-Serif" font-size="11.00" fill="#000000">[table]</text>
<polygon fill="none" stroke="#000000" points="8,-212.2 8,-231.2 104,-231.2 104,-212.2 8,-212.2"/>
<text text-anchor="start" x="11" y="-218.3" font-family="Helvetica,sans-Serif" font-size="11.00" fill="#000000">...</text>
<polygon fill="#ffffff" stroke="transparent" points="8,-193.2 8,-212.2 35,-212.2 35,-193.2 8,-193.2"/>
<polygon fill="none" stroke="#000000" points="8,-193.2 8,-212.2 35,-212.2 35,-193.2 8,-193.2"/>
<text text-anchor="start" x="11" y="-199.3" font-family="Helvetica,sans-Serif" font-size="11.00" fill="#000000"> &#160;</text>
<polygon fill="#ffffff" stroke="transparent" points="35,-193.2 35,-212.2 75,-212.2 75,-193.2 35,-193.2"/>
<polygon fill="none" stroke="#000000" points="35,-193.2 35,-212.2 75,-212.2 75,-193.2 35,-193.2"/>
<text text-anchor="start" x="45.1105" y="-199.3" font-family="Helvetica,sans-Serif" font-size="11.00" fill="#000000">1 row</text>
<polygon fill="#ffffff" stroke="transparent" points="75,-193.2 75,-212.2 104,-212.2 104,-193.2 75,-193.2"/>
<polygon fill="none" stroke="#000000" points="75,-193.2 75,-212.2 104,-212.2 104,-193.2 75,-193.2"/>
<text text-anchor="start" x="85.4053" y="-199.3" font-family="Helvetica,sans-Serif" font-size="11.00" fill="#000000">1 &gt;</text>
</a>
</g>
</g>
<!-- moving_object&#45;&gt;mo_type -->
<g id="edge5" class="edge">
<title>moving_object:w&#45;&gt;mo_type:e</title>
<path fill="none" stroke="#000000" d="M138.4909,-221.2C127.1774,-221.2 119.9931,-221.2 104,-221.2"/>
<polygon fill="#000000" stroke="#000000" points="145,-221.2001 153,-224.8 149,-221.2 153,-221.2 153,-221.2 153,-221.2 149,-221.2 153,-217.6 145,-221.2001 145,-221.2001"/>
<ellipse fill="none" stroke="#000000" cx="141.8" cy="-221.2001" rx="3.2" ry="3.2"/>
</g>
<!-- mo_aspect -->
<g id="node3" class="node">
<title>mo_aspect</title>
<g id="a_node3"><a xlink:href="../../tables/mo_aspect.html" xlink:title="mo_aspect" target="_top">
<polygon fill="#ffffff" stroke="transparent" points="414,-319.7 414,-380.7 524,-380.7 524,-319.7 414,-319.7"/>
<polygon fill="#f5f5f5" stroke="transparent" points="414,-357.2 414,-380.2 524,-380.2 524,-357.2 414,-357.2"/>
<polygon fill="none" stroke="#000000" points="414,-357.2 414,-380.2 524,-380.2 524,-357.2 414,-357.2"/>
<text text-anchor="start" x="419" y="-365.8" font-family="Helvetica,sans-Serif" font-weight="bold" font-size="11.00" fill="#000000">mo_aspect</text>
<text text-anchor="start" x="489.5219" y="-365.3" font-family="Helvetica,sans-Serif" font-size="11.00" fill="#000000">[table]</text>
<polygon fill="none" stroke="#000000" points="414,-338.2 414,-357.2 524,-357.2 524,-338.2 414,-338.2"/>
<text text-anchor="start" x="417" y="-344.3" font-family="Helvetica,sans-Serif" font-size="11.00" fill="#000000">...</text>
<polygon fill="#ffffff" stroke="transparent" points="414,-319.2 414,-338.2 454,-338.2 454,-319.2 414,-319.2"/>
<polygon fill="none" stroke="#000000" points="414,-319.2 414,-338.2 454,-338.2 454,-319.2 414,-319.2"/>
<text text-anchor="start" x="417" y="-325.3" font-family="Helvetica,sans-Serif" font-size="11.00" fill="#000000">&lt; 2</text>
<polygon fill="#ffffff" stroke="transparent" points="454,-319.2 454,-338.2 502,-338.2 502,-319.2 454,-319.2"/>
<polygon fill="none" stroke="#000000" points="454,-319.2 454,-338.2 502,-338.2 502,-319.2 454,-319.2"/>
<text text-anchor="start" x="466.6105" y="-325.3" font-family="Helvetica,sans-Serif" font-size="11.00" fill="#000000">0 rows</text>
<polygon fill="#ffffff" stroke="transparent" points="502,-319.2 502,-338.2 524,-338.2 524,-319.2 502,-319.2"/>
<polygon fill="none" stroke="#000000" points="502,-319.2 502,-338.2 524,-338.2 524,-319.2 502,-319.2"/>
<text text-anchor="start" x="514.8862" y="-325.3" font-family="Helvetica,sans-Serif" font-size="11.00" fill="#000000"> &#160;</text>
</a>
</g>
</g>
<!-- mo_aspect&#45;&gt;moving_object -->
<g id="edge2" class="edge">
<title>mo_aspect:w&#45;&gt;moving_object:e</title>
<path fill="none" stroke="#000000" d="M399.5937,-346.5063C370.1218,-343.402 358.9931,-330.0193 330,-309.2 308.2883,-293.6093 315.7296,-265.2 289,-265.2"/>
<polygon fill="#000000" stroke="#000000" points="406.0093,-346.8152 413.8268,-350.7958 410.0046,-347.0076 414,-347.2 414,-347.2 414,-347.2 410.0046,-347.0076 414.1732,-343.6042 406.0093,-346.8152 406.0093,-346.8152"/>
<ellipse fill="none" stroke="#000000" cx="402.813" cy="-346.6613" rx="3.2" ry="3.2"/>
</g>
<!-- mo_relationship -->
<g id="node4" class="node">
<title>mo_relationship</title>
<g id="a_node4"><a xlink:href="../../tables/mo_relationship.html" xlink:title="mo_relationship" target="_top">
<polygon fill="#ffffff" stroke="transparent" points="395.5,-237.7 395.5,-298.7 542.5,-298.7 542.5,-237.7 395.5,-237.7"/>
<polygon fill="#f5f5f5" stroke="transparent" points="396,-275.2 396,-298.2 543,-298.2 543,-275.2 396,-275.2"/>
<polygon fill="none" stroke="#000000" points="396,-275.2 396,-298.2 543,-298.2 543,-275.2 396,-275.2"/>
<text text-anchor="start" x="401" y="-283.8" font-family="Helvetica,sans-Serif" font-weight="bold" font-size="11.00" fill="#000000">mo_relationship</text>
<text text-anchor="start" x="508.5219" y="-283.3" font-family="Helvetica,sans-Serif" font-size="11.00" fill="#000000">[table]</text>
<polygon fill="none" stroke="#000000" points="396,-256.2 396,-275.2 543,-275.2 543,-256.2 396,-256.2"/>
<text text-anchor="start" x="399" y="-262.3" font-family="Helvetica,sans-Serif" font-size="11.00" fill="#000000">...</text>
<polygon fill="#ffffff" stroke="transparent" points="396,-237.2 396,-256.2 450,-256.2 450,-237.2 396,-237.2"/>
<polygon fill="none" stroke="#000000" points="396,-237.2 396,-256.2 450,-256.2 450,-237.2 396,-237.2"/>
<text text-anchor="start" x="399" y="-243.3" font-family="Helvetica,sans-Serif" font-size="11.00" fill="#000000">&lt; 2</text>
<polygon fill="#ffffff" stroke="transparent" points="450,-237.2 450,-256.2 505,-256.2 505,-237.2 450,-237.2"/>
<polygon fill="none" stroke="#000000" points="450,-237.2 450,-256.2 505,-256.2 505,-237.2 450,-237.2"/>
<text text-anchor="start" x="469.6105" y="-243.3" font-family="Helvetica,sans-Serif" font-size="11.00" fill="#000000">0 rows</text>
<polygon fill="#ffffff" stroke="transparent" points="505,-237.2 505,-256.2 543,-256.2 543,-237.2 505,-237.2"/>
<polygon fill="none" stroke="#000000" points="505,-237.2 505,-256.2 543,-256.2 543,-237.2 505,-237.2"/>
<text text-anchor="start" x="524.4053" y="-243.3" font-family="Helvetica,sans-Serif" font-size="11.00" fill="#000000">1 &gt;</text>
</a>
</g>
</g>
<!-- mo_relationship&#45;&gt;moving_object -->
<g id="edge3" class="edge">
<title>mo_relationship:w&#45;&gt;moving_object:e</title>
<path fill="none" stroke="#000000" d="M381.5825,-263.4466C345.4171,-259.2718 331.3542,-259.8563 289,-265.2"/>
<polygon fill="#000000" stroke="#000000" points="388.0585,-264.2341 395.5654,-268.7737 392.0293,-264.7171 396,-265.2 396,-265.2 396,-265.2 392.0293,-264.7171 396.4346,-261.6263 388.0585,-264.2341 388.0585,-264.2341"/>
<ellipse fill="none" stroke="#000000" cx="384.8819" cy="-263.8478" rx="3.2" ry="3.2"/>
</g>
<!-- mo_relationship&#45;&gt;moving_object -->
<g id="edge4" class="edge">
<title>mo_relationship:w&#45;&gt;moving_object:e</title>
<path fill="none" stroke="#000000" d="M381.5825,-267.2457C345.4171,-272.1163 331.3542,-271.4344 289,-265.2"/>
<polygon fill="#000000" stroke="#000000" points="388.0793,-266.3239 396.5057,-268.7643 392.0397,-265.7619 396,-265.2 396,-265.2 396,-265.2 392.0397,-265.7619 395.4943,-261.6357 388.0793,-266.3239 388.0793,-266.3239"/>
<ellipse fill="none" stroke="#000000" cx="384.9111" cy="-266.7734" rx="3.2" ry="3.2"/>
</g>
<!-- point -->
<g id="node6" class="node">
<title>point</title>
<g id="a_node6"><a xlink:href="../../tables/point.html" xlink:title="point" target="_top">
<polygon fill="#ffffff" stroke="transparent" points="649,-131.7 649,-236.7 723,-236.7 723,-131.7 649,-131.7"/>
<polygon fill="#f5f5f5" stroke="transparent" points="649,-213.2 649,-236.2 723,-236.2 723,-213.2 649,-213.2"/>
<polygon fill="none" stroke="#000000" points="649,-213.2 649,-236.2 723,-236.2 723,-213.2 649,-213.2"/>
<text text-anchor="start" x="654" y="-221.8" font-family="Helvetica,sans-Serif" font-weight="bold" font-size="11.00" fill="#000000">point</text>
<text text-anchor="start" x="688.5219" y="-221.3" font-family="Helvetica,sans-Serif" font-size="11.00" fill="#000000">[table]</text>
<polygon fill="none" stroke="#000000" points="649,-191.2 649,-213.2 723,-213.2 723,-191.2 649,-191.2"/>
<image xlink:href="../../images/primaryKeys.png" width="11px" height="12px" preserveAspectRatio="xMinYMin meet" x="654" y="-208.2"/>
<text text-anchor="start" x="669" y="-198.3" font-family="Helvetica,sans-Serif" font-size="11.00" fill="#000000">point_id</text>
<polygon fill="#ffffff" stroke="transparent" points="649,-169.2 649,-191.2 723,-191.2 723,-169.2 649,-169.2"/>
<polygon fill="none" stroke="#000000" points="649,-169.2 649,-191.2 723,-191.2 723,-169.2 649,-169.2"/>
<image xlink:href="../../images/foreignKeys.png" width="11px" height="12px" preserveAspectRatio="xMinYMin meet" x="654" y="-186.2"/>
<text text-anchor="start" x="669" y="-176.3" font-family="Helvetica,sans-Serif" font-size="11.00" fill="#000000">mat_id</text>
<polygon fill="none" stroke="#000000" points="649,-150.2 649,-169.2 723,-169.2 723,-150.2 649,-150.2"/>
<text text-anchor="start" x="652" y="-156.3" font-family="Helvetica,sans-Serif" font-size="11.00" fill="#000000">...</text>
<polygon fill="#ffffff" stroke="transparent" points="649,-131.2 649,-150.2 671,-150.2 671,-131.2 649,-131.2"/>
<polygon fill="none" stroke="#000000" points="649,-131.2 649,-150.2 671,-150.2 671,-131.2 649,-131.2"/>
<text text-anchor="start" x="652" y="-137.3" font-family="Helvetica,sans-Serif" font-size="11.00" fill="#000000">&lt; 1</text>
<polygon fill="#ffffff" stroke="transparent" points="671,-131.2 671,-150.2 710,-150.2 710,-131.2 671,-131.2"/>
<polygon fill="none" stroke="#000000" points="671,-131.2 671,-150.2 710,-150.2 710,-131.2 671,-131.2"/>
<text text-anchor="start" x="674.6105" y="-137.3" font-family="Helvetica,sans-Serif" font-size="11.00" fill="#000000">0 rows</text>
<polygon fill="#ffffff" stroke="transparent" points="710,-131.2 710,-150.2 723,-150.2 723,-131.2 710,-131.2"/>
<polygon fill="none" stroke="#000000" points="710,-131.2 710,-150.2 723,-150.2 723,-131.2 710,-131.2"/>
<text text-anchor="start" x="713.8862" y="-137.3" font-family="Helvetica,sans-Serif" font-size="11.00" fill="#000000"> &#160;</text>
</a>
</g>
</g>
<!-- point&#45;&gt;mat -->
<g id="edge6" class="edge">
<title>point:w&#45;&gt;mat:e</title>
<path fill="none" stroke="#000000" stroke-dasharray="5,2" d="M634.276,-180.2C622.2815,-180.2 614.8229,-180.2 598,-180.2"/>
<polygon fill="#000000" stroke="#000000" points="641,-180.2001 649,-183.8 645,-180.2 649,-180.2 649,-180.2 649,-180.2 645,-180.2 649,-176.6 641,-180.2001 641,-180.2001"/>
<ellipse fill="none" stroke="#000000" cx="637.8" cy="-180.2001" rx="3.2" ry="3.2"/>
</g>
</g>
</svg>
