<?xml version="1.0" encoding="UTF-8" standalone="no"?>
<!DOCTYPE svg PUBLIC "-//W3C//DTD SVG 1.1//EN"
 "http://www.w3.org/Graphics/SVG/1.1/DTD/svg11.dtd">
<!-- Generated by graphviz version 2.40.1 (20161225.0304)
 -->
<!-- Title: twoDegreesRelationshipsDiagram Pages: 1 -->
<svg width="616pt" height="398pt"
 viewBox="0.00 0.00 616.00 398.20" xmlns="http://www.w3.org/2000/svg" xmlns:xlink="http://www.w3.org/1999/xlink">
<g id="graph0" class="graph" transform="scale(1 1) rotate(0) translate(4 394.2)">
<title>twoDegreesRelationshipsDiagram</title>
<polygon fill="#ffffff" stroke="transparent" points="-4,4 -4,-394.2 612,-394.2 612,4 -4,4"/>
<text text-anchor="middle" x="72.4936" y="-7.3" font-family="Helvetica,sans-Serif" font-size="11.00" fill="#000000">Generated by SchemaSpy</text>
<!-- mat -->
<g id="node1" class="node">
<title>mat</title>
<g id="a_node1"><a xlink:href="../../tables/mat.html" xlink:title="mat" target="_top">
<polygon fill="#ffffff" stroke="transparent" points="338,-208.2 338,-386.2 600,-386.2 600,-208.2 338,-208.2"/>
<polygon fill="#f5f5f5" stroke="transparent" points="340,-361.2 340,-384.2 598,-384.2 598,-361.2 340,-361.2"/>
<polygon fill="none" stroke="#000000" points="340,-361.2 340,-384.2 598,-384.2 598,-361.2 340,-361.2"/>
<text text-anchor="start" x="345" y="-369.8" font-family="Helvetica,sans-Serif" font-weight="bold" font-size="11.00" fill="#000000">mat</text>
<text text-anchor="start" x="563.0437" y="-369.3" font-family="Helvetica,sans-Serif" font-size="11.00" fill="#000000">[table]</text>
<polygon fill="none" stroke="#000000" points="340,-339.2 340,-361.2 471,-361.2 471,-339.2 340,-339.2"/>
<image xlink:href="../../images/primaryKeys.png" width="11px" height="12px" preserveAspectRatio="xMinYMin meet" x="345" y="-356.2"/>
<text text-anchor="start" x="360" y="-346.3" font-family="Helvetica,sans-Serif" font-size="11.00" fill="#000000">mat_id</text>
<polygon fill="none" stroke="#000000" points="471,-339.2 471,-361.2 598,-361.2 598,-339.2 471,-339.2"/>
<text text-anchor="start" x="474" y="-346.9" font-family="Helvetica,sans-Serif" font-size="11.00" fill="#000000">int4[10]</text>
<polygon fill="#ffffff" stroke="transparent" points="340,-317.2 340,-339.2 471,-339.2 471,-317.2 340,-317.2"/>
<polygon fill="none" stroke="#000000" points="340,-317.2 340,-339.2 471,-339.2 471,-317.2 340,-317.2"/>
<text text-anchor="start" x="360" y="-324.3" font-family="Helvetica,sans-Serif" font-size="11.00" fill="#000000">description</text>
<polygon fill="none" stroke="#000000" points="471,-317.2 471,-339.2 598,-339.2 598,-317.2 471,-317.2"/>
<text text-anchor="start" x="474" y="-324.9" font-family="Helvetica,sans-Serif" font-size="11.00" fill="#000000">varchar[50]</text>
<polygon fill="#ffffff" stroke="transparent" points="340,-295.2 340,-317.2 471,-317.2 471,-295.2 340,-295.2"/>
<polygon fill="none" stroke="#000000" points="340,-295.2 340,-317.2 471,-317.2 471,-295.2 340,-295.2"/>
<image xlink:href="../../images/foreignKeys.png" width="11px" height="12px" preserveAspectRatio="xMinYMin meet" x="345" y="-312.2"/>
<text text-anchor="start" x="360" y="-302.3" font-family="Helvetica,sans-Serif" font-size="11.00" fill="#000000">mo_id</text>
<polygon fill="none" stroke="#000000" points="471,-295.2 471,-317.2 598,-317.2 598,-295.2 471,-295.2"/>
<text text-anchor="start" x="474" y="-302.9" font-family="Helvetica,sans-Serif" font-size="11.00" fill="#000000">int4[10]</text>
<polygon fill="none" stroke="#000000" points="340,-273.2 340,-295.2 471,-295.2 471,-273.2 340,-273.2"/>
<text text-anchor="start" x="360" y="-280.3" font-family="Helvetica,sans-Serif" font-size="11.00" fill="#000000">raw_trajectory</text>
<polygon fill="none" stroke="#000000" points="471,-273.2 471,-295.2 598,-295.2 598,-273.2 471,-273.2"/>
<text text-anchor="start" x="473.6656" y="-280.9" font-family="Helvetica,sans-Serif" font-size="11.00" fill="#000000">tgeompoint[2147483647]</text>
<polygon fill="none" stroke="#000000" points="340,-251.2 340,-273.2 471,-273.2 471,-251.2 340,-251.2"/>
<text text-anchor="start" x="360" y="-258.3" font-family="Helvetica,sans-Serif" font-size="11.00" fill="#000000">trajectory_geom</text>
<polygon fill="none" stroke="#000000" points="471,-251.2 471,-273.2 598,-273.2 598,-251.2 471,-251.2"/>
<text text-anchor="start" x="474" y="-258.9" font-family="Helvetica,sans-Serif" font-size="11.00" fill="#000000">geometry[2147483647]</text>
<polygon fill="none" stroke="#000000" points="340,-229.2 340,-251.2 471,-251.2 471,-229.2 340,-229.2"/>
<text text-anchor="start" x="360" y="-236.3" font-family="Helvetica,sans-Serif" font-size="11.00" fill="#000000">mat_date</text>
<polygon fill="none" stroke="#000000" points="471,-229.2 471,-251.2 598,-251.2 598,-229.2 471,-229.2"/>
<text text-anchor="start" x="474" y="-236.9" font-family="Helvetica,sans-Serif" font-size="11.00" fill="#000000">date[13]</text>
<polygon fill="#ffffff" stroke="transparent" points="340,-210.2 340,-229.2 397,-229.2 397,-210.2 340,-210.2"/>
<polygon fill="none" stroke="#000000" points="340,-210.2 340,-229.2 397,-229.2 397,-210.2 340,-210.2"/>
<text text-anchor="start" x="343" y="-216.3" font-family="Helvetica,sans-Serif" font-size="11.00" fill="#000000">&lt; 1</text>
<polygon fill="#ffffff" stroke="transparent" points="397,-210.2 397,-229.2 471,-229.2 471,-210.2 397,-210.2"/>
<polygon fill="none" stroke="#000000" points="397,-210.2 397,-229.2 471,-229.2 471,-210.2 397,-210.2"/>
<text text-anchor="start" x="435.6105" y="-216.3" font-family="Helvetica,sans-Serif" font-size="11.00" fill="#000000">0 rows</text>
<polygon fill="#ffffff" stroke="transparent" points="471,-210.2 471,-229.2 598,-229.2 598,-210.2 471,-210.2"/>
<polygon fill="none" stroke="#000000" points="471,-210.2 471,-229.2 598,-229.2 598,-210.2 471,-210.2"/>
<text text-anchor="start" x="579.4053" y="-216.3" font-family="Helvetica,sans-Serif" font-size="11.00" fill="#000000">0 &gt;</text>
<polygon fill="none" stroke="#000000" stroke-width="2" points="339,-209.2 339,-385.2 599,-385.2 599,-209.2 339,-209.2"/>
</a>
</g>
</g>
<!-- moving_object -->
<g id="node2" class="node">
<title>moving_object</title>
<g id="a_node2"><a xlink:href="../../tables/moving_object.html" xlink:title="moving_object" target="_top">
<polygon fill="#ffffff" stroke="transparent" points="153,-38.2 153,-146.2 289,-146.2 289,-38.2 153,-38.2"/>
<polygon fill="#f5f5f5" stroke="transparent" points="153,-123.2 153,-146.2 289,-146.2 289,-123.2 153,-123.2"/>
<polygon fill="none" stroke="#000000" points="153,-123.2 153,-146.2 289,-146.2 289,-123.2 153,-123.2"/>
<text text-anchor="start" x="158" y="-131.8" font-family="Helvetica,sans-Serif" font-weight="bold" font-size="11.00" fill="#000000">moving_object</text>
<text text-anchor="start" x="254.5219" y="-131.3" font-family="Helvetica,sans-Serif" font-size="11.00" fill="#000000">[table]</text>
<polygon fill="none" stroke="#000000" points="153,-101.2 153,-123.2 289,-123.2 289,-101.2 153,-101.2"/>
<image xlink:href="../../images/primaryKeys.png" width="11px" height="12px" preserveAspectRatio="xMinYMin meet" x="158" y="-118.2"/>
<text text-anchor="start" x="182" y="-108.3" font-family="Helvetica,sans-Serif" font-size="11.00" fill="#000000">mo_id</text>
<polygon fill="#ffffff" stroke="transparent" points="153,-79.2 153,-101.2 289,-101.2 289,-79.2 153,-79.2"/>
<polygon fill="none" stroke="#000000" points="153,-79.2 153,-101.2 289,-101.2 289,-79.2 153,-79.2"/>
<text text-anchor="start" x="182" y="-86.3" font-family="Helvetica,sans-Serif" font-size="11.00" fill="#000000">description</text>
<polygon fill="#ffffff" stroke="transparent" points="153,-57.2 153,-79.2 289,-79.2 289,-57.2 153,-57.2"/>
<polygon fill="none" stroke="#000000" points="153,-57.2 153,-79.2 289,-79.2 289,-57.2 153,-57.2"/>
<image xlink:href="../../images/foreignKeys.png" width="11px" height="12px" preserveAspectRatio="xMinYMin meet" x="158" y="-74.2"/>
<text text-anchor="start" x="182" y="-64.3" font-family="Helvetica,sans-Serif" font-size="11.00" fill="#000000">mo_type_id</text>
<polygon fill="#ffffff" stroke="transparent" points="153,-38.2 153,-57.2 191,-57.2 191,-38.2 153,-38.2"/>
<polygon fill="none" stroke="#000000" points="153,-38.2 153,-57.2 191,-57.2 191,-38.2 153,-38.2"/>
<text text-anchor="start" x="156" y="-44.3" font-family="Helvetica,sans-Serif" font-size="11.00" fill="#000000">&lt; 1</text>
<polygon fill="#ffffff" stroke="transparent" points="191,-38.2 191,-57.2 259,-57.2 259,-38.2 191,-38.2"/>
<polygon fill="none" stroke="#000000" points="191,-38.2 191,-57.2 259,-57.2 259,-38.2 191,-38.2"/>
<text text-anchor="start" x="202.2089" y="-44.3" font-family="Helvetica,sans-Serif" font-size="11.00" fill="#000000">3.376 rows</text>
<polygon fill="#ffffff" stroke="transparent" points="259,-38.2 259,-57.2 289,-57.2 289,-38.2 259,-38.2"/>
<polygon fill="none" stroke="#000000" points="259,-38.2 259,-57.2 289,-57.2 289,-38.2 259,-38.2"/>
<text text-anchor="start" x="270.4053" y="-44.3" font-family="Helvetica,sans-Serif" font-size="11.00" fill="#000000">4 &gt;</text>
</a>
</g>
</g>
<!-- mat&#45;&gt;moving_object -->
<g id="edge1" class="edge">
<title>mat:w&#45;&gt;moving_object:e</title>
<path fill="none" stroke="#000000" d="M325.7149,-304.0213C265.9156,-282.7078 372.5798,-112.2 289,-112.2"/>
<polygon fill="#000000" stroke="#000000" points="332.0915,-304.9938 339.4572,-309.7588 336.0457,-305.5969 340,-306.2 340,-306.2 340,-306.2 336.0457,-305.5969 340.5428,-302.6412 332.0915,-304.9938 332.0915,-304.9938"/>
<ellipse fill="none" stroke="#000000" cx="328.928" cy="-304.5113" rx="3.2" ry="3.2"/>
</g>
<!-- mo_type -->
<g id="node5" class="node">
<title>mo_type</title>
<g id="a_node5"><a xlink:href="../../tables/mo_type.html" xlink:title="mo_type" target="_top">
<polygon fill="#ffffff" stroke="transparent" points="8,-40.7 8,-101.7 104,-101.7 104,-40.7 8,-40.7"/>
<polygon fill="#f5f5f5" stroke="transparent" points="8,-78.2 8,-101.2 104,-101.2 104,-78.2 8,-78.2"/>
<polygon fill="none" stroke="#000000" points="8,-78.2 8,-101.2 104,-101.2 104,-78.2 8,-78.2"/>
<text text-anchor="start" x="13" y="-86.8" font-family="Helvetica,sans-Serif" font-weight="bold" font-size="11.00" fill="#000000">mo_type</text>
<text text-anchor="start" x="69.5219" y="-86.3" font-family="Helvetica,sans-Serif" font-size="11.00" fill="#000000">[table]</text>
<polygon fill="none" stroke="#000000" points="8,-59.2 8,-78.2 104,-78.2 104,-59.2 8,-59.2"/>
<text text-anchor="start" x="11" y="-65.3" font-family="Helvetica,sans-Serif" font-size="11.00" fill="#000000">...</text>
<polygon fill="#ffffff" stroke="transparent" points="8,-40.2 8,-59.2 35,-59.2 35,-40.2 8,-40.2"/>
<polygon fill="none" stroke="#000000" points="8,-40.2 8,-59.2 35,-59.2 35,-40.2 8,-40.2"/>
<text text-anchor="start" x="11" y="-46.3" font-family="Helvetica,sans-Serif" font-size="11.00" fill="#000000"> &#160;</text>
<polygon fill="#ffffff" stroke="transparent" points="35,-40.2 35,-59.2 75,-59.2 75,-40.2 35,-40.2"/>
<polygon fill="none" stroke="#000000" points="35,-40.2 35,-59.2 75,-59.2 75,-40.2 35,-40.2"/>
<text text-anchor="start" x="45.1105" y="-46.3" font-family="Helvetica,sans-Serif" font-size="11.00" fill="#000000">1 row</text>
<polygon fill="#ffffff" stroke="transparent" points="75,-40.2 75,-59.2 104,-59.2 104,-40.2 75,-40.2"/>
<polygon fill="none" stroke="#000000" points="75,-40.2 75,-59.2 104,-59.2 104,-40.2 75,-40.2"/>
<text text-anchor="start" x="85.4053" y="-46.3" font-family="Helvetica,sans-Serif" font-size="11.00" fill="#000000">1 &gt;</text>
</a>
</g>
</g>
<!-- moving_object&#45;&gt;mo_type -->
<g id="edge5" class="edge">
<title>moving_object:w&#45;&gt;mo_type:e</title>
<path fill="none" stroke="#000000" d="M138.4909,-68.2C127.1774,-68.2 119.9931,-68.2 104,-68.2"/>
<polygon fill="#000000" stroke="#000000" points="145,-68.2001 153,-71.8 149,-68.2 153,-68.2 153,-68.2 153,-68.2 149,-68.2 153,-64.6 145,-68.2001 145,-68.2001"/>
<ellipse fill="none" stroke="#000000" cx="141.8" cy="-68.2001" rx="3.2" ry="3.2"/>
</g>
<!-- mo_aspect -->
<g id="node3" class="node">
<title>mo_aspect</title>
<g id="a_node3"><a xlink:href="../../tables/mo_aspect.html" xlink:title="mo_aspect" target="_top">
<polygon fill="#ffffff" stroke="transparent" points="414,-125.7 414,-186.7 524,-186.7 524,-125.7 414,-125.7"/>
<polygon fill="#f5f5f5" stroke="transparent" points="414,-163.2 414,-186.2 524,-186.2 524,-163.2 414,-163.2"/>
<polygon fill="none" stroke="#000000" points="414,-163.2 414,-186.2 524,-186.2 524,-163.2 414,-163.2"/>
<text text-anchor="start" x="419" y="-171.8" font-family="Helvetica,sans-Serif" font-weight="bold" font-size="11.00" fill="#000000">mo_aspect</text>
<text text-anchor="start" x="489.5219" y="-171.3" font-family="Helvetica,sans-Serif" font-size="11.00" fill="#000000">[table]</text>
<polygon fill="none" stroke="#000000" points="414,-144.2 414,-163.2 524,-163.2 524,-144.2 414,-144.2"/>
<text text-anchor="start" x="417" y="-150.3" font-family="Helvetica,sans-Serif" font-size="11.00" fill="#000000">...</text>
<polygon fill="#ffffff" stroke="transparent" points="414,-125.2 414,-144.2 454,-144.2 454,-125.2 414,-125.2"/>
<polygon fill="none" stroke="#000000" points="414,-125.2 414,-144.2 454,-144.2 454,-125.2 414,-125.2"/>
<text text-anchor="start" x="417" y="-131.3" font-family="Helvetica,sans-Serif" font-size="11.00" fill="#000000">&lt; 2</text>
<polygon fill="#ffffff" stroke="transparent" points="454,-125.2 454,-144.2 502,-144.2 502,-125.2 454,-125.2"/>
<polygon fill="none" stroke="#000000" points="454,-125.2 454,-144.2 502,-144.2 502,-125.2 454,-125.2"/>
<text text-anchor="start" x="466.6105" y="-131.3" font-family="Helvetica,sans-Serif" font-size="11.00" fill="#000000">0 rows</text>
<polygon fill="#ffffff" stroke="transparent" points="502,-125.2 502,-144.2 524,-144.2 524,-125.2 502,-125.2"/>
<polygon fill="none" stroke="#000000" points="502,-125.2 502,-144.2 524,-144.2 524,-125.2 502,-125.2"/>
<text text-anchor="start" x="514.8862" y="-131.3" font-family="Helvetica,sans-Serif" font-size="11.00" fill="#000000"> &#160;</text>
</a>
</g>
</g>
<!-- mo_aspect&#45;&gt;moving_object -->
<g id="edge2" class="edge">
<title>mo_aspect:w&#45;&gt;moving_object:e</title>
<path fill="none" stroke="#000000" d="M399.3886,-152.2666C353.6764,-146.1638 342.2147,-112.2 289,-112.2"/>
<polygon fill="#000000" stroke="#000000" points="406.0163,-152.6899 413.7705,-156.7927 410.0081,-152.945 414,-153.2 414,-153.2 414,-153.2 410.0081,-152.945 414.2295,-149.6073 406.0163,-152.6899 406.0163,-152.6899"/>
<ellipse fill="none" stroke="#000000" cx="402.8228" cy="-152.4859" rx="3.2" ry="3.2"/>
</g>
<!-- mo_relationship -->
<g id="node4" class="node">
<title>mo_relationship</title>
<g id="a_node4"><a xlink:href="../../tables/mo_relationship.html" xlink:title="mo_relationship" target="_top">
<polygon fill="#ffffff" stroke="transparent" points="395.5,-43.7 395.5,-104.7 542.5,-104.7 542.5,-43.7 395.5,-43.7"/>
<polygon fill="#f5f5f5" stroke="transparent" points="396,-81.2 396,-104.2 543,-104.2 543,-81.2 396,-81.2"/>
<polygon fill="none" stroke="#000000" points="396,-81.2 396,-104.2 543,-104.2 543,-81.2 396,-81.2"/>
<text text-anchor="start" x="401" y="-89.8" font-family="Helvetica,sans-Serif" font-weight="bold" font-size="11.00" fill="#000000">mo_relationship</text>
<text text-anchor="start" x="508.5219" y="-89.3" font-family="Helvetica,sans-Serif" font-size="11.00" fill="#000000">[table]</text>
<polygon fill="none" stroke="#000000" points="396,-62.2 396,-81.2 543,-81.2 543,-62.2 396,-62.2"/>
<text text-anchor="start" x="399" y="-68.3" font-family="Helvetica,sans-Serif" font-size="11.00" fill="#000000">...</text>
<polygon fill="#ffffff" stroke="transparent" points="396,-43.2 396,-62.2 450,-62.2 450,-43.2 396,-43.2"/>
<polygon fill="none" stroke="#000000" points="396,-43.2 396,-62.2 450,-62.2 450,-43.2 396,-43.2"/>
<text text-anchor="start" x="399" y="-49.3" font-family="Helvetica,sans-Serif" font-size="11.00" fill="#000000">&lt; 2</text>
<polygon fill="#ffffff" stroke="transparent" points="450,-43.2 450,-62.2 505,-62.2 505,-43.2 450,-43.2"/>
<polygon fill="none" stroke="#000000" points="450,-43.2 450,-62.2 505,-62.2 505,-43.2 450,-43.2"/>
<text text-anchor="start" x="469.6105" y="-49.3" font-family="Helvetica,sans-Serif" font-size="11.00" fill="#000000">0 rows</text>
<polygon fill="#ffffff" stroke="transparent" points="505,-43.2 505,-62.2 543,-62.2 543,-43.2 505,-43.2"/>
<polygon fill="none" stroke="#000000" points="505,-43.2 505,-62.2 543,-62.2 543,-43.2 505,-43.2"/>
<text text-anchor="start" x="524.4053" y="-49.3" font-family="Helvetica,sans-Serif" font-size="11.00" fill="#000000">1 &gt;</text>
</a>
</g>
</g>
<!-- mo_relationship&#45;&gt;moving_object -->
<g id="edge3" class="edge">
<title>mo_relationship:w&#45;&gt;moving_object:e</title>
<path fill="none" stroke="#000000" d="M381.3067,-70.7738C343.4781,-73.4591 334.556,-106.8328 289,-112.2"/>
<polygon fill="#000000" stroke="#000000" points="388.0034,-70.968 395.8956,-74.7985 392.0017,-71.084 396,-71.2 396,-71.2 396,-71.2 392.0017,-71.084 396.1044,-67.6015 388.0034,-70.968 388.0034,-70.968"/>
<ellipse fill="none" stroke="#000000" cx="384.8047" cy="-70.8752" rx="3.2" ry="3.2"/>
</g>
<!-- mo_relationship&#45;&gt;moving_object -->
<g id="edge4" class="edge">
<title>mo_relationship:w&#45;&gt;moving_object:e</title>
<path fill="none" stroke="#000000" d="M381.8039,-74.299C343.5554,-86.033 334.7549,-118.4891 289,-112.2"/>
<polygon fill="#000000" stroke="#000000" points="388.1841,-72.9063 396.7678,-74.7172 392.092,-72.0531 396,-71.2 396,-71.2 396,-71.2 392.092,-72.0531 395.2322,-67.6828 388.1841,-72.9063 388.1841,-72.9063"/>
<ellipse fill="none" stroke="#000000" cx="385.0577" cy="-73.5888" rx="3.2" ry="3.2"/>
</g>
</g>
</svg>
