<?xml version="1.0" encoding="UTF-8" standalone="no"?>
<!DOCTYPE svg PUBLIC "-//W3C//DTD SVG 1.1//EN"
 "http://www.w3.org/Graphics/SVG/1.1/DTD/svg11.dtd">
<!-- Generated by graphviz version 2.40.1 (20161225.0304)
 -->
<!-- Title: oneDegreeRelationshipsDiagram Pages: 1 -->
<svg width="337pt" height="201pt"
 viewBox="0.00 0.00 337.00 200.70" xmlns="http://www.w3.org/2000/svg" xmlns:xlink="http://www.w3.org/1999/xlink">
<g id="graph0" class="graph" transform="scale(1 1) rotate(0) translate(4 196.7)">
<title>oneDegreeRelationshipsDiagram</title>
<polygon fill="#ffffff" stroke="transparent" points="-4,4 -4,-196.7 333,-196.7 333,4 -4,4"/>
<text text-anchor="middle" x="72.4936" y="-7.3" font-family="Helvetica,sans-Serif" font-size="11.00" fill="#000000">Generated by SchemaSpy</text>
<!-- mat_aspect -->
<g id="node1" class="node">
<title>mat_aspect</title>
<g id="a_node1"><a xlink:href="../../tables/mat_aspect.html" xlink:title="mat_aspect" target="_top">
<polygon fill="#ffffff" stroke="transparent" points="177,-98.7 177,-188.7 321,-188.7 321,-98.7 177,-98.7"/>
<polygon fill="#f5f5f5" stroke="transparent" points="179,-163.7 179,-186.7 319,-186.7 319,-163.7 179,-163.7"/>
<polygon fill="none" stroke="#000000" points="179,-163.7 179,-186.7 319,-186.7 319,-163.7 179,-163.7"/>
<text text-anchor="start" x="184" y="-172.3" font-family="Helvetica,sans-Serif" font-weight="bold" font-size="11.00" fill="#000000">mat_aspect</text>
<text text-anchor="start" x="284.0437" y="-171.8" font-family="Helvetica,sans-Serif" font-size="11.00" fill="#000000">[table]</text>
<polygon fill="none" stroke="#000000" points="179,-141.7 179,-163.7 277,-163.7 277,-141.7 179,-141.7"/>
<image xlink:href="../../images/primaryKeys.png" width="11px" height="12px" preserveAspectRatio="xMinYMin meet" x="184" y="-158.7"/>
<text text-anchor="start" x="199" y="-148.8" font-family="Helvetica,sans-Serif" font-size="11.00" fill="#000000">mat_id</text>
<polygon fill="none" stroke="#000000" points="277,-141.7 277,-163.7 319,-163.7 319,-141.7 277,-141.7"/>
<text text-anchor="start" x="279.9644" y="-149.4" font-family="Helvetica,sans-Serif" font-size="11.00" fill="#000000">int4[10]</text>
<polygon fill="none" stroke="#000000" points="179,-119.7 179,-141.7 277,-141.7 277,-119.7 179,-119.7"/>
<image xlink:href="../../images/primaryKeys.png" width="11px" height="12px" preserveAspectRatio="xMinYMin meet" x="184" y="-136.7"/>
<text text-anchor="start" x="199" y="-126.8" font-family="Helvetica,sans-Serif" font-size="11.00" fill="#000000">aspect_id</text>
<polygon fill="none" stroke="#000000" points="277,-119.7 277,-141.7 319,-141.7 319,-119.7 277,-119.7"/>
<text text-anchor="start" x="279.9644" y="-127.4" font-family="Helvetica,sans-Serif" font-size="11.00" fill="#000000">int4[10]</text>
<polygon fill="#ffffff" stroke="transparent" points="179,-100.7 179,-119.7 219,-119.7 219,-100.7 179,-100.7"/>
<polygon fill="none" stroke="#000000" points="179,-100.7 179,-119.7 219,-119.7 219,-100.7 179,-100.7"/>
<text text-anchor="start" x="182" y="-106.8" font-family="Helvetica,sans-Serif" font-size="11.00" fill="#000000">&lt; 1</text>
<polygon fill="#ffffff" stroke="transparent" points="219,-100.7 219,-119.7 277,-119.7 277,-100.7 219,-100.7"/>
<polygon fill="none" stroke="#000000" points="219,-100.7 219,-119.7 277,-119.7 277,-100.7 219,-100.7"/>
<text text-anchor="start" x="241.6105" y="-106.8" font-family="Helvetica,sans-Serif" font-size="11.00" fill="#000000">0 rows</text>
<polygon fill="#ffffff" stroke="transparent" points="277,-100.7 277,-119.7 319,-119.7 319,-100.7 277,-100.7"/>
<polygon fill="none" stroke="#000000" points="277,-100.7 277,-119.7 319,-119.7 319,-100.7 277,-100.7"/>
<text text-anchor="start" x="300.4053" y="-106.8" font-family="Helvetica,sans-Serif" font-size="11.00" fill="#000000">0 &gt;</text>
<polygon fill="none" stroke="#000000" stroke-width="2" points="178,-99.7 178,-187.7 320,-187.7 320,-99.7 178,-99.7"/>
</a>
</g>
</g>
<!-- aspect -->
<g id="node2" class="node">
<title>aspect</title>
<g id="a_node2"><a xlink:href="../../tables/aspect.html" xlink:title="aspect" target="_top">
<polygon fill="#ffffff" stroke="transparent" points="8,-38.2 8,-165.2 128,-165.2 128,-38.2 8,-38.2"/>
<polygon fill="#f5f5f5" stroke="transparent" points="8,-141.7 8,-164.7 128,-164.7 128,-141.7 8,-141.7"/>
<polygon fill="none" stroke="#000000" points="8,-141.7 8,-164.7 128,-164.7 128,-141.7 8,-141.7"/>
<text text-anchor="start" x="13" y="-150.3" font-family="Helvetica,sans-Serif" font-weight="bold" font-size="11.00" fill="#000000">aspect</text>
<text text-anchor="start" x="93.0437" y="-149.8" font-family="Helvetica,sans-Serif" font-size="11.00" fill="#000000">[table]</text>
<polygon fill="none" stroke="#000000" points="8,-119.7 8,-141.7 128,-141.7 128,-119.7 8,-119.7"/>
<image xlink:href="../../images/primaryKeys.png" width="11px" height="12px" preserveAspectRatio="xMinYMin meet" x="13" y="-136.7"/>
<text text-anchor="start" x="28" y="-126.8" font-family="Helvetica,sans-Serif" font-size="11.00" fill="#000000">aspect_id</text>
<polygon fill="#ffffff" stroke="transparent" points="8,-97.7 8,-119.7 128,-119.7 128,-97.7 8,-97.7"/>
<polygon fill="none" stroke="#000000" points="8,-97.7 8,-119.7 128,-119.7 128,-97.7 8,-97.7"/>
<text text-anchor="start" x="28" y="-104.8" font-family="Helvetica,sans-Serif" font-size="11.00" fill="#000000">description</text>
<polygon fill="#ffffff" stroke="transparent" points="8,-75.7 8,-97.7 128,-97.7 128,-75.7 8,-75.7"/>
<polygon fill="none" stroke="#000000" points="8,-75.7 8,-97.7 128,-97.7 128,-75.7 8,-75.7"/>
<image xlink:href="../../images/foreignKeys.png" width="11px" height="12px" preserveAspectRatio="xMinYMin meet" x="13" y="-92.7"/>
<text text-anchor="start" x="28" y="-82.8" font-family="Helvetica,sans-Serif" font-size="11.00" fill="#000000">aspect_type_id</text>
<polygon fill="none" stroke="#000000" points="8,-56.7 8,-75.7 128,-75.7 128,-56.7 8,-56.7"/>
<text text-anchor="start" x="11" y="-62.8" font-family="Helvetica,sans-Serif" font-size="11.00" fill="#000000">...</text>
<polygon fill="#ffffff" stroke="transparent" points="8,-37.7 8,-56.7 32,-56.7 32,-37.7 8,-37.7"/>
<polygon fill="none" stroke="#000000" points="8,-37.7 8,-56.7 32,-56.7 32,-37.7 8,-37.7"/>
<text text-anchor="start" x="11" y="-43.8" font-family="Helvetica,sans-Serif" font-size="11.00" fill="#000000">&lt; 1</text>
<polygon fill="#ffffff" stroke="transparent" points="32,-37.7 32,-56.7 105,-56.7 105,-37.7 32,-37.7"/>
<polygon fill="none" stroke="#000000" points="32,-37.7 32,-56.7 105,-56.7 105,-37.7 32,-37.7"/>
<text text-anchor="start" x="35.9791" y="-43.8" font-family="Helvetica,sans-Serif" font-size="11.00" fill="#000000">100.191 rows</text>
<polygon fill="#ffffff" stroke="transparent" points="105,-37.7 105,-56.7 128,-56.7 128,-37.7 105,-37.7"/>
<polygon fill="none" stroke="#000000" points="105,-37.7 105,-56.7 128,-56.7 128,-37.7 105,-37.7"/>
<text text-anchor="start" x="109.4053" y="-43.8" font-family="Helvetica,sans-Serif" font-size="11.00" fill="#000000">5 &gt;</text>
</a>
</g>
</g>
<!-- mat_aspect&#45;&gt;aspect -->
<g id="edge1" class="edge">
<title>mat_aspect:w&#45;&gt;aspect:e</title>
<path fill="none" stroke="#000000" d="M164.276,-130.7C152.2815,-130.7 144.8229,-130.7 128,-130.7"/>
<polygon fill="#000000" stroke="#000000" points="171,-130.7001 179,-134.3 175,-130.7 179,-130.7 179,-130.7 179,-130.7 175,-130.7 179,-127.1 171,-130.7001 171,-130.7001"/>
<ellipse fill="none" stroke="#000000" cx="167.8" cy="-130.7001" rx="3.2" ry="3.2"/>
</g>
</g>
</svg>
