<?xml version="1.0" encoding="UTF-8" standalone="no"?>
<!DOCTYPE svg PUBLIC "-//W3C//DTD SVG 1.1//EN"
 "http://www.w3.org/Graphics/SVG/1.1/DTD/svg11.dtd">
<!-- Generated by graphviz version 2.40.1 (20161225.0304)
 -->
<!-- Title: twoDegreesRelationshipsDiagram Pages: 1 -->
<svg width="512pt" height="469pt"
 viewBox="0.00 0.00 512.00 469.20" xmlns="http://www.w3.org/2000/svg" xmlns:xlink="http://www.w3.org/1999/xlink">
<g id="graph0" class="graph" transform="scale(1 1) rotate(0) translate(4 465.2)">
<title>twoDegreesRelationshipsDiagram</title>
<polygon fill="#ffffff" stroke="transparent" points="-4,4 -4,-465.2 508,-465.2 508,4 -4,4"/>
<text text-anchor="middle" x="72.4936" y="-7.3" font-family="Helvetica,sans-Serif" font-size="11.00" fill="#000000">Generated by SchemaSpy</text>
<!-- aspect -->
<g id="node1" class="node">
<title>aspect</title>
<g id="a_node1"><a xlink:href="../../tables/aspect.html" xlink:title="aspect" target="_top">
<polygon fill="#ffffff" stroke="transparent" points="177,-137.2 177,-264.2 297,-264.2 297,-137.2 177,-137.2"/>
<polygon fill="#f5f5f5" stroke="transparent" points="177,-240.7 177,-263.7 297,-263.7 297,-240.7 177,-240.7"/>
<polygon fill="none" stroke="#000000" points="177,-240.7 177,-263.7 297,-263.7 297,-240.7 177,-240.7"/>
<text text-anchor="start" x="182" y="-249.3" font-family="Helvetica,sans-Serif" font-weight="bold" font-size="11.00" fill="#000000">aspect</text>
<text text-anchor="start" x="262.0437" y="-248.8" font-family="Helvetica,sans-Serif" font-size="11.00" fill="#000000">[table]</text>
<polygon fill="none" stroke="#000000" points="177,-218.7 177,-240.7 297,-240.7 297,-218.7 177,-218.7"/>
<image xlink:href="../../images/primaryKeys.png" width="11px" height="12px" preserveAspectRatio="xMinYMin meet" x="182" y="-235.7"/>
<text text-anchor="start" x="197" y="-225.8" font-family="Helvetica,sans-Serif" font-size="11.00" fill="#000000">aspect_id</text>
<polygon fill="#ffffff" stroke="transparent" points="177,-196.7 177,-218.7 297,-218.7 297,-196.7 177,-196.7"/>
<polygon fill="none" stroke="#000000" points="177,-196.7 177,-218.7 297,-218.7 297,-196.7 177,-196.7"/>
<text text-anchor="start" x="197" y="-203.8" font-family="Helvetica,sans-Serif" font-size="11.00" fill="#000000">description</text>
<polygon fill="#ffffff" stroke="transparent" points="177,-174.7 177,-196.7 297,-196.7 297,-174.7 177,-174.7"/>
<polygon fill="none" stroke="#000000" points="177,-174.7 177,-196.7 297,-196.7 297,-174.7 177,-174.7"/>
<image xlink:href="../../images/foreignKeys.png" width="11px" height="12px" preserveAspectRatio="xMinYMin meet" x="182" y="-191.7"/>
<text text-anchor="start" x="197" y="-181.8" font-family="Helvetica,sans-Serif" font-size="11.00" fill="#000000">aspect_type_id</text>
<polygon fill="none" stroke="#000000" points="177,-155.7 177,-174.7 297,-174.7 297,-155.7 177,-155.7"/>
<text text-anchor="start" x="180" y="-161.8" font-family="Helvetica,sans-Serif" font-size="11.00" fill="#000000">...</text>
<polygon fill="#ffffff" stroke="transparent" points="177,-136.7 177,-155.7 201,-155.7 201,-136.7 177,-136.7"/>
<polygon fill="none" stroke="#000000" points="177,-136.7 177,-155.7 201,-155.7 201,-136.7 177,-136.7"/>
<text text-anchor="start" x="180" y="-142.8" font-family="Helvetica,sans-Serif" font-size="11.00" fill="#000000">&lt; 1</text>
<polygon fill="#ffffff" stroke="transparent" points="201,-136.7 201,-155.7 274,-155.7 274,-136.7 201,-136.7"/>
<polygon fill="none" stroke="#000000" points="201,-136.7 201,-155.7 274,-155.7 274,-136.7 201,-136.7"/>
<text text-anchor="start" x="204.9791" y="-142.8" font-family="Helvetica,sans-Serif" font-size="11.00" fill="#000000">100.191 rows</text>
<polygon fill="#ffffff" stroke="transparent" points="274,-136.7 274,-155.7 297,-155.7 297,-136.7 274,-136.7"/>
<polygon fill="none" stroke="#000000" points="274,-136.7 274,-155.7 297,-155.7 297,-136.7 274,-136.7"/>
<text text-anchor="start" x="278.4053" y="-142.8" font-family="Helvetica,sans-Serif" font-size="11.00" fill="#000000">5 &gt;</text>
</a>
</g>
</g>
<!-- aspect_type -->
<g id="node2" class="node">
<title>aspect_type</title>
<g id="a_node2"><a xlink:href="../../tables/aspect_type.html" xlink:title="aspect_type" target="_top">
<polygon fill="#ffffff" stroke="transparent" points="8,-158.2 8,-219.2 128,-219.2 128,-158.2 8,-158.2"/>
<polygon fill="#f5f5f5" stroke="transparent" points="8,-195.7 8,-218.7 128,-218.7 128,-195.7 8,-195.7"/>
<polygon fill="none" stroke="#000000" points="8,-195.7 8,-218.7 128,-218.7 128,-195.7 8,-195.7"/>
<text text-anchor="start" x="13" y="-204.3" font-family="Helvetica,sans-Serif" font-weight="bold" font-size="11.00" fill="#000000">aspect_type</text>
<text text-anchor="start" x="93.5219" y="-203.8" font-family="Helvetica,sans-Serif" font-size="11.00" fill="#000000">[table]</text>
<polygon fill="none" stroke="#000000" points="8,-176.7 8,-195.7 128,-195.7 128,-176.7 8,-176.7"/>
<text text-anchor="start" x="11" y="-182.8" font-family="Helvetica,sans-Serif" font-size="11.00" fill="#000000">...</text>
<polygon fill="#ffffff" stroke="transparent" points="8,-157.7 8,-176.7 52,-176.7 52,-157.7 8,-157.7"/>
<polygon fill="none" stroke="#000000" points="8,-157.7 8,-176.7 52,-176.7 52,-157.7 8,-157.7"/>
<text text-anchor="start" x="11" y="-163.8" font-family="Helvetica,sans-Serif" font-size="11.00" fill="#000000">&lt; 1</text>
<polygon fill="#ffffff" stroke="transparent" points="52,-157.7 52,-176.7 95,-176.7 95,-157.7 52,-157.7"/>
<polygon fill="none" stroke="#000000" points="52,-157.7 52,-176.7 95,-176.7 95,-157.7 52,-157.7"/>
<text text-anchor="start" x="65.1105" y="-163.8" font-family="Helvetica,sans-Serif" font-size="11.00" fill="#000000">1 row</text>
<polygon fill="#ffffff" stroke="transparent" points="95,-157.7 95,-176.7 128,-176.7 128,-157.7 95,-157.7"/>
<polygon fill="none" stroke="#000000" points="95,-157.7 95,-176.7 128,-176.7 128,-157.7 95,-157.7"/>
<text text-anchor="start" x="109.4053" y="-163.8" font-family="Helvetica,sans-Serif" font-size="11.00" fill="#000000">3 &gt;</text>
</a>
</g>
</g>
<!-- aspect&#45;&gt;aspect_type -->
<g id="edge1" class="edge">
<title>aspect:w&#45;&gt;aspect_type:e</title>
<path fill="none" stroke="#000000" d="M162.4909,-185.7C151.1774,-185.7 143.9931,-185.7 128,-185.7"/>
<polygon fill="#000000" stroke="#000000" points="169,-185.7001 177,-189.3 173,-185.7 177,-185.7 177,-185.7 177,-185.7 173,-185.7 177,-182.1 169,-185.7001 169,-185.7001"/>
<ellipse fill="none" stroke="#000000" cx="165.8" cy="-185.7001" rx="3.2" ry="3.2"/>
</g>
<!-- aspect_attribute -->
<g id="node3" class="node">
<title>aspect_attribute</title>
<g id="a_node3"><a xlink:href="../../tables/aspect_attribute.html" xlink:title="aspect_attribute" target="_top">
<polygon fill="#ffffff" stroke="transparent" points="346,-396.2 346,-457.2 496,-457.2 496,-396.2 346,-396.2"/>
<polygon fill="#f5f5f5" stroke="transparent" points="346,-433.7 346,-456.7 496,-456.7 496,-433.7 346,-433.7"/>
<polygon fill="none" stroke="#000000" points="346,-433.7 346,-456.7 496,-456.7 496,-433.7 346,-433.7"/>
<text text-anchor="start" x="351" y="-442.3" font-family="Helvetica,sans-Serif" font-weight="bold" font-size="11.00" fill="#000000">aspect_attribute</text>
<text text-anchor="start" x="461.5219" y="-441.8" font-family="Helvetica,sans-Serif" font-size="11.00" fill="#000000">[table]</text>
<polygon fill="none" stroke="#000000" points="346,-414.7 346,-433.7 496,-433.7 496,-414.7 346,-414.7"/>
<text text-anchor="start" x="349" y="-420.8" font-family="Helvetica,sans-Serif" font-size="11.00" fill="#000000">...</text>
<polygon fill="#ffffff" stroke="transparent" points="346,-395.7 346,-414.7 389,-414.7 389,-395.7 346,-395.7"/>
<polygon fill="none" stroke="#000000" points="346,-395.7 346,-414.7 389,-414.7 389,-395.7 346,-395.7"/>
<text text-anchor="start" x="349" y="-401.8" font-family="Helvetica,sans-Serif" font-size="11.00" fill="#000000">&lt; 3</text>
<polygon fill="#ffffff" stroke="transparent" points="389,-395.7 389,-414.7 472,-414.7 472,-395.7 389,-395.7"/>
<polygon fill="none" stroke="#000000" points="389,-395.7 389,-414.7 472,-414.7 472,-395.7 389,-395.7"/>
<text text-anchor="start" x="402.9791" y="-401.8" font-family="Helvetica,sans-Serif" font-size="11.00" fill="#000000">200.382 rows</text>
<polygon fill="#ffffff" stroke="transparent" points="472,-395.7 472,-414.7 496,-414.7 496,-395.7 472,-395.7"/>
<polygon fill="none" stroke="#000000" points="472,-395.7 472,-414.7 496,-414.7 496,-395.7 472,-395.7"/>
<text text-anchor="start" x="486.8862" y="-401.8" font-family="Helvetica,sans-Serif" font-size="11.00" fill="#000000"> &#160;</text>
</a>
</g>
</g>
<!-- aspect_attribute&#45;&gt;aspect -->
<g id="edge2" class="edge">
<title>aspect_attribute:w&#45;&gt;aspect:e</title>
<path fill="none" stroke="#000000" d="M331.4022,-421.3861C272.7761,-399.4981 380.1982,-229.7 297,-229.7"/>
<polygon fill="#000000" stroke="#000000" points="338.0986,-422.4475 345.4364,-427.2556 342.0493,-423.0738 346,-423.7 346,-423.7 346,-423.7 342.0493,-423.0738 346.5636,-420.1444 338.0986,-422.4475 338.0986,-422.4475"/>
<ellipse fill="none" stroke="#000000" cx="334.9381" cy="-421.9465" rx="3.2" ry="3.2"/>
</g>
<!-- mat_aspect -->
<g id="node4" class="node">
<title>mat_aspect</title>
<g id="a_node4"><a xlink:href="../../tables/mat_aspect.html" xlink:title="mat_aspect" target="_top">
<polygon fill="#ffffff" stroke="transparent" points="349,-284.7 349,-374.7 493,-374.7 493,-284.7 349,-284.7"/>
<polygon fill="#f5f5f5" stroke="transparent" points="351,-349.7 351,-372.7 491,-372.7 491,-349.7 351,-349.7"/>
<polygon fill="none" stroke="#000000" points="351,-349.7 351,-372.7 491,-372.7 491,-349.7 351,-349.7"/>
<text text-anchor="start" x="356" y="-358.3" font-family="Helvetica,sans-Serif" font-weight="bold" font-size="11.00" fill="#000000">mat_aspect</text>
<text text-anchor="start" x="456.0437" y="-357.8" font-family="Helvetica,sans-Serif" font-size="11.00" fill="#000000">[table]</text>
<polygon fill="none" stroke="#000000" points="351,-327.7 351,-349.7 449,-349.7 449,-327.7 351,-327.7"/>
<image xlink:href="../../images/primaryKeys.png" width="11px" height="12px" preserveAspectRatio="xMinYMin meet" x="356" y="-344.7"/>
<text text-anchor="start" x="371" y="-334.8" font-family="Helvetica,sans-Serif" font-size="11.00" fill="#000000">mat_id</text>
<polygon fill="none" stroke="#000000" points="449,-327.7 449,-349.7 491,-349.7 491,-327.7 449,-327.7"/>
<text text-anchor="start" x="451.9644" y="-335.4" font-family="Helvetica,sans-Serif" font-size="11.00" fill="#000000">int4[10]</text>
<polygon fill="none" stroke="#000000" points="351,-305.7 351,-327.7 449,-327.7 449,-305.7 351,-305.7"/>
<image xlink:href="../../images/primaryKeys.png" width="11px" height="12px" preserveAspectRatio="xMinYMin meet" x="356" y="-322.7"/>
<text text-anchor="start" x="371" y="-312.8" font-family="Helvetica,sans-Serif" font-size="11.00" fill="#000000">aspect_id</text>
<polygon fill="none" stroke="#000000" points="449,-305.7 449,-327.7 491,-327.7 491,-305.7 449,-305.7"/>
<text text-anchor="start" x="451.9644" y="-313.4" font-family="Helvetica,sans-Serif" font-size="11.00" fill="#000000">int4[10]</text>
<polygon fill="#ffffff" stroke="transparent" points="351,-286.7 351,-305.7 391,-305.7 391,-286.7 351,-286.7"/>
<polygon fill="none" stroke="#000000" points="351,-286.7 351,-305.7 391,-305.7 391,-286.7 351,-286.7"/>
<text text-anchor="start" x="354" y="-292.8" font-family="Helvetica,sans-Serif" font-size="11.00" fill="#000000">&lt; 1</text>
<polygon fill="#ffffff" stroke="transparent" points="391,-286.7 391,-305.7 449,-305.7 449,-286.7 391,-286.7"/>
<polygon fill="none" stroke="#000000" points="391,-286.7 391,-305.7 449,-305.7 449,-286.7 391,-286.7"/>
<text text-anchor="start" x="413.6105" y="-292.8" font-family="Helvetica,sans-Serif" font-size="11.00" fill="#000000">0 rows</text>
<polygon fill="#ffffff" stroke="transparent" points="449,-286.7 449,-305.7 491,-305.7 491,-286.7 449,-286.7"/>
<polygon fill="none" stroke="#000000" points="449,-286.7 449,-305.7 491,-305.7 491,-286.7 449,-286.7"/>
<text text-anchor="start" x="472.4053" y="-292.8" font-family="Helvetica,sans-Serif" font-size="11.00" fill="#000000">0 &gt;</text>
<polygon fill="none" stroke="#000000" stroke-width="2" points="350,-285.7 350,-373.7 492,-373.7 492,-285.7 350,-285.7"/>
</a>
</g>
</g>
<!-- mat_aspect&#45;&gt;aspect -->
<g id="edge3" class="edge">
<title>mat_aspect:w&#45;&gt;aspect:e</title>
<path fill="none" stroke="#000000" d="M336.8478,-312.5038C313.868,-295.1252 336.4652,-229.7 297,-229.7"/>
<polygon fill="#000000" stroke="#000000" points="343.33,-314.4258 349.9766,-320.1515 347.165,-315.5629 351,-316.7 351,-316.7 351,-316.7 347.165,-315.5629 352.0234,-313.2485 343.33,-314.4258 343.33,-314.4258"/>
<ellipse fill="none" stroke="#000000" cx="340.2621" cy="-313.5161" rx="3.2" ry="3.2"/>
</g>
<!-- mo_aspect -->
<g id="node5" class="node">
<title>mo_aspect</title>
<g id="a_node5"><a xlink:href="../../tables/mo_aspect.html" xlink:title="mo_aspect" target="_top">
<polygon fill="#ffffff" stroke="transparent" points="366,-202.2 366,-263.2 476,-263.2 476,-202.2 366,-202.2"/>
<polygon fill="#f5f5f5" stroke="transparent" points="366,-239.7 366,-262.7 476,-262.7 476,-239.7 366,-239.7"/>
<polygon fill="none" stroke="#000000" points="366,-239.7 366,-262.7 476,-262.7 476,-239.7 366,-239.7"/>
<text text-anchor="start" x="371" y="-248.3" font-family="Helvetica,sans-Serif" font-weight="bold" font-size="11.00" fill="#000000">mo_aspect</text>
<text text-anchor="start" x="441.5219" y="-247.8" font-family="Helvetica,sans-Serif" font-size="11.00" fill="#000000">[table]</text>
<polygon fill="none" stroke="#000000" points="366,-220.7 366,-239.7 476,-239.7 476,-220.7 366,-220.7"/>
<text text-anchor="start" x="369" y="-226.8" font-family="Helvetica,sans-Serif" font-size="11.00" fill="#000000">...</text>
<polygon fill="#ffffff" stroke="transparent" points="366,-201.7 366,-220.7 406,-220.7 406,-201.7 366,-201.7"/>
<polygon fill="none" stroke="#000000" points="366,-201.7 366,-220.7 406,-220.7 406,-201.7 366,-201.7"/>
<text text-anchor="start" x="369" y="-207.8" font-family="Helvetica,sans-Serif" font-size="11.00" fill="#000000">&lt; 2</text>
<polygon fill="#ffffff" stroke="transparent" points="406,-201.7 406,-220.7 454,-220.7 454,-201.7 406,-201.7"/>
<polygon fill="none" stroke="#000000" points="406,-201.7 406,-220.7 454,-220.7 454,-201.7 406,-201.7"/>
<text text-anchor="start" x="418.6105" y="-207.8" font-family="Helvetica,sans-Serif" font-size="11.00" fill="#000000">0 rows</text>
<polygon fill="#ffffff" stroke="transparent" points="454,-201.7 454,-220.7 476,-220.7 476,-201.7 454,-201.7"/>
<polygon fill="none" stroke="#000000" points="454,-201.7 454,-220.7 476,-220.7 476,-201.7 454,-201.7"/>
<text text-anchor="start" x="466.8862" y="-207.8" font-family="Helvetica,sans-Serif" font-size="11.00" fill="#000000"> &#160;</text>
</a>
</g>
</g>
<!-- mo_aspect&#45;&gt;aspect -->
<g id="edge4" class="edge">
<title>mo_aspect:w&#45;&gt;aspect:e</title>
<path fill="none" stroke="#000000" d="M351.4297,-229.7C331.8355,-229.7 322.1563,-229.7 297,-229.7"/>
<polygon fill="#000000" stroke="#000000" points="358,-229.7001 366,-233.3 362,-229.7 366,-229.7 366,-229.7 366,-229.7 362,-229.7 366,-226.1 358,-229.7001 358,-229.7001"/>
<ellipse fill="none" stroke="#000000" cx="354.8" cy="-229.7001" rx="3.2" ry="3.2"/>
</g>
<!-- mor_aspect -->
<g id="node6" class="node">
<title>mor_aspect</title>
<g id="a_node6"><a xlink:href="../../tables/mor_aspect.html" xlink:title="mor_aspect" target="_top">
<polygon fill="#ffffff" stroke="transparent" points="363,-120.2 363,-181.2 479,-181.2 479,-120.2 363,-120.2"/>
<polygon fill="#f5f5f5" stroke="transparent" points="363,-157.7 363,-180.7 479,-180.7 479,-157.7 363,-157.7"/>
<polygon fill="none" stroke="#000000" points="363,-157.7 363,-180.7 479,-180.7 479,-157.7 363,-157.7"/>
<text text-anchor="start" x="368" y="-166.3" font-family="Helvetica,sans-Serif" font-weight="bold" font-size="11.00" fill="#000000">mor_aspect</text>
<text text-anchor="start" x="444.5219" y="-165.8" font-family="Helvetica,sans-Serif" font-size="11.00" fill="#000000">[table]</text>
<polygon fill="none" stroke="#000000" points="363,-138.7 363,-157.7 479,-157.7 479,-138.7 363,-138.7"/>
<text text-anchor="start" x="366" y="-144.8" font-family="Helvetica,sans-Serif" font-size="11.00" fill="#000000">...</text>
<polygon fill="#ffffff" stroke="transparent" points="363,-119.7 363,-138.7 406,-138.7 406,-119.7 363,-119.7"/>
<polygon fill="none" stroke="#000000" points="363,-119.7 363,-138.7 406,-138.7 406,-119.7 363,-119.7"/>
<text text-anchor="start" x="366" y="-125.8" font-family="Helvetica,sans-Serif" font-size="11.00" fill="#000000">&lt; 2</text>
<polygon fill="#ffffff" stroke="transparent" points="406,-119.7 406,-138.7 455,-138.7 455,-119.7 406,-119.7"/>
<polygon fill="none" stroke="#000000" points="406,-119.7 406,-138.7 455,-138.7 455,-119.7 406,-119.7"/>
<text text-anchor="start" x="419.6105" y="-125.8" font-family="Helvetica,sans-Serif" font-size="11.00" fill="#000000">0 rows</text>
<polygon fill="#ffffff" stroke="transparent" points="455,-119.7 455,-138.7 479,-138.7 479,-119.7 455,-119.7"/>
<polygon fill="none" stroke="#000000" points="455,-119.7 455,-138.7 479,-138.7 479,-119.7 455,-119.7"/>
<text text-anchor="start" x="469.8862" y="-125.8" font-family="Helvetica,sans-Serif" font-size="11.00" fill="#000000"> &#160;</text>
</a>
</g>
</g>
<!-- mor_aspect&#45;&gt;aspect -->
<g id="edge5" class="edge">
<title>mor_aspect:w&#45;&gt;aspect:e</title>
<path fill="none" stroke="#000000" d="M348.6511,-151.2234C321.9468,-166.9188 337.9351,-229.7 297,-229.7"/>
<polygon fill="#000000" stroke="#000000" points="355.2308,-149.6078 363.8585,-151.1961 359.1154,-148.6539 363,-147.7 363,-147.7 363,-147.7 359.1154,-148.6539 362.1415,-144.2039 355.2308,-149.6078 355.2308,-149.6078"/>
<ellipse fill="none" stroke="#000000" cx="352.1231" cy="-150.3709" rx="3.2" ry="3.2"/>
</g>
<!-- point_aspect -->
<g id="node7" class="node">
<title>point_aspect</title>
<g id="a_node7"><a xlink:href="../../tables/point_aspect.html" xlink:title="point_aspect" target="_top">
<polygon fill="#ffffff" stroke="transparent" points="358.5,-38.2 358.5,-99.2 483.5,-99.2 483.5,-38.2 358.5,-38.2"/>
<polygon fill="#f5f5f5" stroke="transparent" points="359,-75.7 359,-98.7 484,-98.7 484,-75.7 359,-75.7"/>
<polygon fill="none" stroke="#000000" points="359,-75.7 359,-98.7 484,-98.7 484,-75.7 359,-75.7"/>
<text text-anchor="start" x="364" y="-84.3" font-family="Helvetica,sans-Serif" font-weight="bold" font-size="11.00" fill="#000000">point_aspect</text>
<text text-anchor="start" x="449.5219" y="-83.8" font-family="Helvetica,sans-Serif" font-size="11.00" fill="#000000">[table]</text>
<polygon fill="none" stroke="#000000" points="359,-56.7 359,-75.7 484,-75.7 484,-56.7 359,-56.7"/>
<text text-anchor="start" x="362" y="-62.8" font-family="Helvetica,sans-Serif" font-size="11.00" fill="#000000">...</text>
<polygon fill="#ffffff" stroke="transparent" points="359,-37.7 359,-56.7 390,-56.7 390,-37.7 359,-37.7"/>
<polygon fill="none" stroke="#000000" points="359,-37.7 359,-56.7 390,-56.7 390,-37.7 359,-37.7"/>
<text text-anchor="start" x="362" y="-43.8" font-family="Helvetica,sans-Serif" font-size="11.00" fill="#000000">&lt; 1</text>
<polygon fill="#ffffff" stroke="transparent" points="390,-37.7 390,-56.7 467,-56.7 467,-37.7 390,-37.7"/>
<polygon fill="none" stroke="#000000" points="390,-37.7 390,-56.7 467,-56.7 467,-37.7 390,-37.7"/>
<text text-anchor="start" x="397.9791" y="-43.8" font-family="Helvetica,sans-Serif" font-size="11.00" fill="#000000">800.114 rows</text>
<polygon fill="#ffffff" stroke="transparent" points="467,-37.7 467,-56.7 484,-56.7 484,-37.7 467,-37.7"/>
<polygon fill="none" stroke="#000000" points="467,-37.7 467,-56.7 484,-56.7 484,-37.7 467,-37.7"/>
<text text-anchor="start" x="474.8862" y="-43.8" font-family="Helvetica,sans-Serif" font-size="11.00" fill="#000000"> &#160;</text>
</a>
</g>
</g>
<!-- point_aspect&#45;&gt;aspect -->
<g id="edge6" class="edge">
<title>point_aspect:w&#45;&gt;aspect:e</title>
<path fill="none" stroke="#000000" d="M344.6679,-68.1456C293.7432,-88.5467 369.2925,-229.7 297,-229.7"/>
<polygon fill="#000000" stroke="#000000" points="351.114,-67.0457 359.6056,-69.2487 355.057,-66.3728 359,-65.7 359,-65.7 359,-65.7 355.057,-66.3728 358.3944,-62.1513 351.114,-67.0457 351.114,-67.0457"/>
<ellipse fill="none" stroke="#000000" cx="347.9596" cy="-67.584" rx="3.2" ry="3.2"/>
</g>
</g>
</svg>
