<?xml version="1.0" encoding="UTF-8" standalone="no"?>
<!DOCTYPE svg PUBLIC "-//W3C//DTD SVG 1.1//EN"
 "http://www.w3.org/Graphics/SVG/1.1/DTD/svg11.dtd">
<!-- Generated by graphviz version 2.40.1 (20161225.0304)
 -->
<!-- Title: twoDegreesRelationshipsDiagram Pages: 1 -->
<svg width="730pt" height="531pt"
 viewBox="0.00 0.00 730.00 530.70" xmlns="http://www.w3.org/2000/svg" xmlns:xlink="http://www.w3.org/1999/xlink">
<g id="graph0" class="graph" transform="scale(1 1) rotate(0) translate(4 526.7)">
<title>twoDegreesRelationshipsDiagram</title>
<polygon fill="#ffffff" stroke="transparent" points="-4,4 -4,-526.7 726,-526.7 726,4 -4,4"/>
<text text-anchor="middle" x="72.4936" y="-7.3" font-family="Helvetica,sans-Serif" font-size="11.00" fill="#000000">Generated by SchemaSpy</text>
<!-- aspect -->
<g id="node1" class="node">
<title>aspect</title>
<g id="a_node1"><a xlink:href="../../tables/aspect.html" xlink:title="aspect" target="_top">
<polygon fill="#ffffff" stroke="transparent" points="351.5,-247.7 351.5,-374.7 471.5,-374.7 471.5,-247.7 351.5,-247.7"/>
<polygon fill="#f5f5f5" stroke="transparent" points="351.5,-351.2 351.5,-374.2 471.5,-374.2 471.5,-351.2 351.5,-351.2"/>
<polygon fill="none" stroke="#000000" points="351.5,-351.2 351.5,-374.2 471.5,-374.2 471.5,-351.2 351.5,-351.2"/>
<text text-anchor="start" x="356.5" y="-359.8" font-family="Helvetica,sans-Serif" font-weight="bold" font-size="11.00" fill="#000000">aspect</text>
<text text-anchor="start" x="436.5437" y="-359.3" font-family="Helvetica,sans-Serif" font-size="11.00" fill="#000000">[table]</text>
<polygon fill="none" stroke="#000000" points="351.5,-329.2 351.5,-351.2 471.5,-351.2 471.5,-329.2 351.5,-329.2"/>
<image xlink:href="../../images/primaryKeys.png" width="11px" height="12px" preserveAspectRatio="xMinYMin meet" x="356.5" y="-346.2"/>
<text text-anchor="start" x="371.5" y="-336.3" font-family="Helvetica,sans-Serif" font-size="11.00" fill="#000000">aspect_id</text>
<polygon fill="#ffffff" stroke="transparent" points="351.5,-307.2 351.5,-329.2 471.5,-329.2 471.5,-307.2 351.5,-307.2"/>
<polygon fill="none" stroke="#000000" points="351.5,-307.2 351.5,-329.2 471.5,-329.2 471.5,-307.2 351.5,-307.2"/>
<text text-anchor="start" x="371.5" y="-314.3" font-family="Helvetica,sans-Serif" font-size="11.00" fill="#000000">description</text>
<polygon fill="#ffffff" stroke="transparent" points="351.5,-285.2 351.5,-307.2 471.5,-307.2 471.5,-285.2 351.5,-285.2"/>
<polygon fill="none" stroke="#000000" points="351.5,-285.2 351.5,-307.2 471.5,-307.2 471.5,-285.2 351.5,-285.2"/>
<image xlink:href="../../images/foreignKeys.png" width="11px" height="12px" preserveAspectRatio="xMinYMin meet" x="356.5" y="-302.2"/>
<text text-anchor="start" x="371.5" y="-292.3" font-family="Helvetica,sans-Serif" font-size="11.00" fill="#000000">aspect_type_id</text>
<polygon fill="none" stroke="#000000" points="351.5,-266.2 351.5,-285.2 471.5,-285.2 471.5,-266.2 351.5,-266.2"/>
<text text-anchor="start" x="354.5" y="-272.3" font-family="Helvetica,sans-Serif" font-size="11.00" fill="#000000">...</text>
<polygon fill="#ffffff" stroke="transparent" points="351.5,-247.2 351.5,-266.2 375.5,-266.2 375.5,-247.2 351.5,-247.2"/>
<polygon fill="none" stroke="#000000" points="351.5,-247.2 351.5,-266.2 375.5,-266.2 375.5,-247.2 351.5,-247.2"/>
<text text-anchor="start" x="354.5" y="-253.3" font-family="Helvetica,sans-Serif" font-size="11.00" fill="#000000">&lt; 1</text>
<polygon fill="#ffffff" stroke="transparent" points="375.5,-247.2 375.5,-266.2 448.5,-266.2 448.5,-247.2 375.5,-247.2"/>
<polygon fill="none" stroke="#000000" points="375.5,-247.2 375.5,-266.2 448.5,-266.2 448.5,-247.2 375.5,-247.2"/>
<text text-anchor="start" x="379.4791" y="-253.3" font-family="Helvetica,sans-Serif" font-size="11.00" fill="#000000">100.191 rows</text>
<polygon fill="#ffffff" stroke="transparent" points="448.5,-247.2 448.5,-266.2 471.5,-266.2 471.5,-247.2 448.5,-247.2"/>
<polygon fill="none" stroke="#000000" points="448.5,-247.2 448.5,-266.2 471.5,-266.2 471.5,-247.2 448.5,-247.2"/>
<text text-anchor="start" x="452.9053" y="-253.3" font-family="Helvetica,sans-Serif" font-size="11.00" fill="#000000">5 &gt;</text>
</a>
</g>
</g>
<!-- aspect_type -->
<g id="node2" class="node">
<title>aspect_type</title>
<g id="a_node2"><a xlink:href="../../tables/aspect_type.html" xlink:title="aspect_type" target="_top">
<polygon fill="#ffffff" stroke="transparent" points="161,-268.7 161,-329.7 281,-329.7 281,-268.7 161,-268.7"/>
<polygon fill="#f5f5f5" stroke="transparent" points="161,-306.2 161,-329.2 281,-329.2 281,-306.2 161,-306.2"/>
<polygon fill="none" stroke="#000000" points="161,-306.2 161,-329.2 281,-329.2 281,-306.2 161,-306.2"/>
<text text-anchor="start" x="166" y="-314.8" font-family="Helvetica,sans-Serif" font-weight="bold" font-size="11.00" fill="#000000">aspect_type</text>
<text text-anchor="start" x="246.5219" y="-314.3" font-family="Helvetica,sans-Serif" font-size="11.00" fill="#000000">[table]</text>
<polygon fill="none" stroke="#000000" points="161,-287.2 161,-306.2 281,-306.2 281,-287.2 161,-287.2"/>
<text text-anchor="start" x="164" y="-293.3" font-family="Helvetica,sans-Serif" font-size="11.00" fill="#000000">...</text>
<polygon fill="#ffffff" stroke="transparent" points="161,-268.2 161,-287.2 205,-287.2 205,-268.2 161,-268.2"/>
<polygon fill="none" stroke="#000000" points="161,-268.2 161,-287.2 205,-287.2 205,-268.2 161,-268.2"/>
<text text-anchor="start" x="164" y="-274.3" font-family="Helvetica,sans-Serif" font-size="11.00" fill="#000000">&lt; 1</text>
<polygon fill="#ffffff" stroke="transparent" points="205,-268.2 205,-287.2 248,-287.2 248,-268.2 205,-268.2"/>
<polygon fill="none" stroke="#000000" points="205,-268.2 205,-287.2 248,-287.2 248,-268.2 205,-268.2"/>
<text text-anchor="start" x="218.1105" y="-274.3" font-family="Helvetica,sans-Serif" font-size="11.00" fill="#000000">1 row</text>
<polygon fill="#ffffff" stroke="transparent" points="248,-268.2 248,-287.2 281,-287.2 281,-268.2 248,-268.2"/>
<polygon fill="none" stroke="#000000" points="248,-268.2 248,-287.2 281,-287.2 281,-268.2 248,-268.2"/>
<text text-anchor="start" x="262.4053" y="-274.3" font-family="Helvetica,sans-Serif" font-size="11.00" fill="#000000">3 &gt;</text>
</a>
</g>
</g>
<!-- aspect&#45;&gt;aspect_type -->
<g id="edge1" class="edge">
<title>aspect:w&#45;&gt;aspect_type:e</title>
<path fill="none" stroke="#000000" d="M336.8997,-296.2C316.6866,-296.2 306.8255,-296.2 281,-296.2"/>
<polygon fill="#000000" stroke="#000000" points="343.5,-296.2001 351.5,-299.8 347.5,-296.2 351.5,-296.2 351.5,-296.2 351.5,-296.2 347.5,-296.2 351.5,-292.6 343.5,-296.2001 343.5,-296.2001"/>
<ellipse fill="none" stroke="#000000" cx="340.3" cy="-296.2001" rx="3.2" ry="3.2"/>
</g>
<!-- aspect_attribute -->
<g id="node3" class="node">
<title>aspect_attribute</title>
<g id="a_node3"><a xlink:href="../../tables/aspect_attribute.html" xlink:title="aspect_attribute" target="_top">
<polygon fill="#ffffff" stroke="transparent" points="549,-457.7 549,-518.7 699,-518.7 699,-457.7 549,-457.7"/>
<polygon fill="#f5f5f5" stroke="transparent" points="549,-495.2 549,-518.2 699,-518.2 699,-495.2 549,-495.2"/>
<polygon fill="none" stroke="#000000" points="549,-495.2 549,-518.2 699,-518.2 699,-495.2 549,-495.2"/>
<text text-anchor="start" x="554" y="-503.8" font-family="Helvetica,sans-Serif" font-weight="bold" font-size="11.00" fill="#000000">aspect_attribute</text>
<text text-anchor="start" x="664.5219" y="-503.3" font-family="Helvetica,sans-Serif" font-size="11.00" fill="#000000">[table]</text>
<polygon fill="none" stroke="#000000" points="549,-476.2 549,-495.2 699,-495.2 699,-476.2 549,-476.2"/>
<text text-anchor="start" x="552" y="-482.3" font-family="Helvetica,sans-Serif" font-size="11.00" fill="#000000">...</text>
<polygon fill="#ffffff" stroke="transparent" points="549,-457.2 549,-476.2 592,-476.2 592,-457.2 549,-457.2"/>
<polygon fill="none" stroke="#000000" points="549,-457.2 549,-476.2 592,-476.2 592,-457.2 549,-457.2"/>
<text text-anchor="start" x="552" y="-463.3" font-family="Helvetica,sans-Serif" font-size="11.00" fill="#000000">&lt; 3</text>
<polygon fill="#ffffff" stroke="transparent" points="592,-457.2 592,-476.2 675,-476.2 675,-457.2 592,-457.2"/>
<polygon fill="none" stroke="#000000" points="592,-457.2 592,-476.2 675,-476.2 675,-457.2 592,-457.2"/>
<text text-anchor="start" x="605.9791" y="-463.3" font-family="Helvetica,sans-Serif" font-size="11.00" fill="#000000">200.382 rows</text>
<polygon fill="#ffffff" stroke="transparent" points="675,-457.2 675,-476.2 699,-476.2 699,-457.2 675,-457.2"/>
<polygon fill="none" stroke="#000000" points="675,-457.2 675,-476.2 699,-476.2 699,-457.2 675,-457.2"/>
<text text-anchor="start" x="689.8862" y="-463.3" font-family="Helvetica,sans-Serif" font-size="11.00" fill="#000000"> &#160;</text>
</a>
</g>
</g>
<!-- aspect_attribute&#45;&gt;aspect -->
<g id="edge2" class="edge">
<title>aspect_attribute:w&#45;&gt;aspect:e</title>
<path fill="none" stroke="#000000" d="M534.6434,-482.8042C485.5633,-463.9515 539.0059,-340.2 471.5,-340.2"/>
<polygon fill="#000000" stroke="#000000" points="541.1091,-483.8832 548.4074,-488.7509 545.0546,-484.5416 549,-485.2 549,-485.2 549,-485.2 545.0546,-484.5416 549.5926,-481.6491 541.1091,-483.8832 541.1091,-483.8832"/>
<ellipse fill="none" stroke="#000000" cx="537.9528" cy="-483.3564" rx="3.2" ry="3.2"/>
</g>
<!-- mat -->
<g id="node4" class="node">
<title>mat</title>
<g id="a_node4"><a xlink:href="../../tables/mat.html" xlink:title="mat" target="_top">
<polygon fill="#ffffff" stroke="transparent" points="376,-165.7 376,-226.7 447,-226.7 447,-165.7 376,-165.7"/>
<polygon fill="#f5f5f5" stroke="transparent" points="376.5,-203.2 376.5,-226.2 447.5,-226.2 447.5,-203.2 376.5,-203.2"/>
<polygon fill="none" stroke="#000000" points="376.5,-203.2 376.5,-226.2 447.5,-226.2 447.5,-203.2 376.5,-203.2"/>
<text text-anchor="start" x="381.5" y="-211.8" font-family="Helvetica,sans-Serif" font-weight="bold" font-size="11.00" fill="#000000">mat</text>
<text text-anchor="start" x="412.5437" y="-211.3" font-family="Helvetica,sans-Serif" font-size="11.00" fill="#000000">[table]</text>
<polygon fill="none" stroke="#000000" points="376.5,-184.2 376.5,-203.2 447.5,-203.2 447.5,-184.2 376.5,-184.2"/>
<text text-anchor="start" x="379.5" y="-190.3" font-family="Helvetica,sans-Serif" font-size="11.00" fill="#000000">...</text>
<polygon fill="#ffffff" stroke="transparent" points="376.5,-165.2 376.5,-184.2 397.5,-184.2 397.5,-165.2 376.5,-165.2"/>
<polygon fill="none" stroke="#000000" points="376.5,-165.2 376.5,-184.2 397.5,-184.2 397.5,-165.2 376.5,-165.2"/>
<text text-anchor="start" x="379.2027" y="-171.3" font-family="Helvetica,sans-Serif" font-size="11.00" fill="#000000">&lt; 1</text>
<polygon fill="#ffffff" stroke="transparent" points="397.5,-165.2 397.5,-184.2 435.5,-184.2 435.5,-165.2 397.5,-165.2"/>
<polygon fill="none" stroke="#000000" points="397.5,-165.2 397.5,-184.2 435.5,-184.2 435.5,-165.2 397.5,-165.2"/>
<text text-anchor="start" x="400.3053" y="-171.3" font-family="Helvetica,sans-Serif" font-size="11.00" fill="#000000">0 rows</text>
<polygon fill="#ffffff" stroke="transparent" points="435.5,-165.2 435.5,-184.2 447.5,-184.2 447.5,-165.2 435.5,-165.2"/>
<polygon fill="none" stroke="#000000" points="435.5,-165.2 435.5,-184.2 447.5,-184.2 447.5,-165.2 435.5,-165.2"/>
<text text-anchor="start" x="438.4431" y="-171.3" font-family="Helvetica,sans-Serif" font-size="11.00" fill="#000000"> &#160;</text>
</a>
</g>
</g>
<!-- moving_object -->
<g id="node5" class="node">
<title>moving_object</title>
<g id="a_node5"><a xlink:href="../../tables/moving_object.html" xlink:title="moving_object" target="_top">
<polygon fill="#ffffff" stroke="transparent" points="153,-38.2 153,-146.2 289,-146.2 289,-38.2 153,-38.2"/>
<polygon fill="#f5f5f5" stroke="transparent" points="153,-123.2 153,-146.2 289,-146.2 289,-123.2 153,-123.2"/>
<polygon fill="none" stroke="#000000" points="153,-123.2 153,-146.2 289,-146.2 289,-123.2 153,-123.2"/>
<text text-anchor="start" x="158" y="-131.8" font-family="Helvetica,sans-Serif" font-weight="bold" font-size="11.00" fill="#000000">moving_object</text>
<text text-anchor="start" x="254.5219" y="-131.3" font-family="Helvetica,sans-Serif" font-size="11.00" fill="#000000">[table]</text>
<polygon fill="none" stroke="#000000" points="153,-101.2 153,-123.2 289,-123.2 289,-101.2 153,-101.2"/>
<image xlink:href="../../images/primaryKeys.png" width="11px" height="12px" preserveAspectRatio="xMinYMin meet" x="158" y="-118.2"/>
<text text-anchor="start" x="182" y="-108.3" font-family="Helvetica,sans-Serif" font-size="11.00" fill="#000000">mo_id</text>
<polygon fill="#ffffff" stroke="transparent" points="153,-79.2 153,-101.2 289,-101.2 289,-79.2 153,-79.2"/>
<polygon fill="none" stroke="#000000" points="153,-79.2 153,-101.2 289,-101.2 289,-79.2 153,-79.2"/>
<text text-anchor="start" x="182" y="-86.3" font-family="Helvetica,sans-Serif" font-size="11.00" fill="#000000">description</text>
<polygon fill="#ffffff" stroke="transparent" points="153,-57.2 153,-79.2 289,-79.2 289,-57.2 153,-57.2"/>
<polygon fill="none" stroke="#000000" points="153,-57.2 153,-79.2 289,-79.2 289,-57.2 153,-57.2"/>
<image xlink:href="../../images/foreignKeys.png" width="11px" height="12px" preserveAspectRatio="xMinYMin meet" x="158" y="-74.2"/>
<text text-anchor="start" x="182" y="-64.3" font-family="Helvetica,sans-Serif" font-size="11.00" fill="#000000">mo_type_id</text>
<polygon fill="#ffffff" stroke="transparent" points="153,-38.2 153,-57.2 191,-57.2 191,-38.2 153,-38.2"/>
<polygon fill="none" stroke="#000000" points="153,-38.2 153,-57.2 191,-57.2 191,-38.2 153,-38.2"/>
<text text-anchor="start" x="156" y="-44.3" font-family="Helvetica,sans-Serif" font-size="11.00" fill="#000000">&lt; 1</text>
<polygon fill="#ffffff" stroke="transparent" points="191,-38.2 191,-57.2 259,-57.2 259,-38.2 191,-38.2"/>
<polygon fill="none" stroke="#000000" points="191,-38.2 191,-57.2 259,-57.2 259,-38.2 191,-38.2"/>
<text text-anchor="start" x="202.2089" y="-44.3" font-family="Helvetica,sans-Serif" font-size="11.00" fill="#000000">3.376 rows</text>
<polygon fill="#ffffff" stroke="transparent" points="259,-38.2 259,-57.2 289,-57.2 289,-38.2 259,-38.2"/>
<polygon fill="none" stroke="#000000" points="259,-38.2 259,-57.2 289,-57.2 289,-38.2 259,-38.2"/>
<text text-anchor="start" x="270.4053" y="-44.3" font-family="Helvetica,sans-Serif" font-size="11.00" fill="#000000">4 &gt;</text>
</a>
</g>
</g>
<!-- mat&#45;&gt;moving_object -->
<g id="edge3" class="edge">
<title>mat:w&#45;&gt;moving_object:e</title>
<path fill="none" stroke="#000000" d="M362.3446,-190.3761C348.4115,-183.6521 346.1159,-166.1384 330,-151.2 311.5556,-134.1033 314.1494,-112.2 289,-112.2"/>
<polygon fill="#000000" stroke="#000000" points="368.6546,-191.6349 375.7957,-196.7304 372.5773,-192.4174 376.5,-193.2 376.5,-193.2 376.5,-193.2 372.5773,-192.4174 377.2043,-189.6696 368.6546,-191.6349 368.6546,-191.6349"/>
<ellipse fill="none" stroke="#000000" cx="365.5164" cy="-191.0088" rx="3.2" ry="3.2"/>
</g>
<!-- mo_type -->
<g id="node10" class="node">
<title>mo_type</title>
<g id="a_node10"><a xlink:href="../../tables/mo_type.html" xlink:title="mo_type" target="_top">
<polygon fill="#ffffff" stroke="transparent" points="8,-40.7 8,-101.7 104,-101.7 104,-40.7 8,-40.7"/>
<polygon fill="#f5f5f5" stroke="transparent" points="8,-78.2 8,-101.2 104,-101.2 104,-78.2 8,-78.2"/>
<polygon fill="none" stroke="#000000" points="8,-78.2 8,-101.2 104,-101.2 104,-78.2 8,-78.2"/>
<text text-anchor="start" x="13" y="-86.8" font-family="Helvetica,sans-Serif" font-weight="bold" font-size="11.00" fill="#000000">mo_type</text>
<text text-anchor="start" x="69.5219" y="-86.3" font-family="Helvetica,sans-Serif" font-size="11.00" fill="#000000">[table]</text>
<polygon fill="none" stroke="#000000" points="8,-59.2 8,-78.2 104,-78.2 104,-59.2 8,-59.2"/>
<text text-anchor="start" x="11" y="-65.3" font-family="Helvetica,sans-Serif" font-size="11.00" fill="#000000">...</text>
<polygon fill="#ffffff" stroke="transparent" points="8,-40.2 8,-59.2 35,-59.2 35,-40.2 8,-40.2"/>
<polygon fill="none" stroke="#000000" points="8,-40.2 8,-59.2 35,-59.2 35,-40.2 8,-40.2"/>
<text text-anchor="start" x="11" y="-46.3" font-family="Helvetica,sans-Serif" font-size="11.00" fill="#000000"> &#160;</text>
<polygon fill="#ffffff" stroke="transparent" points="35,-40.2 35,-59.2 75,-59.2 75,-40.2 35,-40.2"/>
<polygon fill="none" stroke="#000000" points="35,-40.2 35,-59.2 75,-59.2 75,-40.2 35,-40.2"/>
<text text-anchor="start" x="45.1105" y="-46.3" font-family="Helvetica,sans-Serif" font-size="11.00" fill="#000000">1 row</text>
<polygon fill="#ffffff" stroke="transparent" points="75,-40.2 75,-59.2 104,-59.2 104,-40.2 75,-40.2"/>
<polygon fill="none" stroke="#000000" points="75,-40.2 75,-59.2 104,-59.2 104,-40.2 75,-40.2"/>
<text text-anchor="start" x="85.4053" y="-46.3" font-family="Helvetica,sans-Serif" font-size="11.00" fill="#000000">1 &gt;</text>
</a>
</g>
</g>
<!-- moving_object&#45;&gt;mo_type -->
<g id="edge11" class="edge">
<title>moving_object:w&#45;&gt;mo_type:e</title>
<path fill="none" stroke="#000000" d="M138.4909,-68.2C127.1774,-68.2 119.9931,-68.2 104,-68.2"/>
<polygon fill="#000000" stroke="#000000" points="145,-68.2001 153,-71.8 149,-68.2 153,-68.2 153,-68.2 153,-68.2 149,-68.2 153,-64.6 145,-68.2001 145,-68.2001"/>
<ellipse fill="none" stroke="#000000" cx="141.8" cy="-68.2001" rx="3.2" ry="3.2"/>
</g>
<!-- mat_aspect -->
<g id="node6" class="node">
<title>mat_aspect</title>
<g id="a_node6"><a xlink:href="../../tables/mat_aspect.html" xlink:title="mat_aspect" target="_top">
<polygon fill="#ffffff" stroke="transparent" points="566,-375.7 566,-436.7 682,-436.7 682,-375.7 566,-375.7"/>
<polygon fill="#f5f5f5" stroke="transparent" points="566,-413.2 566,-436.2 682,-436.2 682,-413.2 566,-413.2"/>
<polygon fill="none" stroke="#000000" points="566,-413.2 566,-436.2 682,-436.2 682,-413.2 566,-413.2"/>
<text text-anchor="start" x="571" y="-421.8" font-family="Helvetica,sans-Serif" font-weight="bold" font-size="11.00" fill="#000000">mat_aspect</text>
<text text-anchor="start" x="647.5219" y="-421.3" font-family="Helvetica,sans-Serif" font-size="11.00" fill="#000000">[table]</text>
<polygon fill="none" stroke="#000000" points="566,-394.2 566,-413.2 682,-413.2 682,-394.2 566,-394.2"/>
<text text-anchor="start" x="569" y="-400.3" font-family="Helvetica,sans-Serif" font-size="11.00" fill="#000000">...</text>
<polygon fill="#ffffff" stroke="transparent" points="566,-375.2 566,-394.2 609,-394.2 609,-375.2 566,-375.2"/>
<polygon fill="none" stroke="#000000" points="566,-375.2 566,-394.2 609,-394.2 609,-375.2 566,-375.2"/>
<text text-anchor="start" x="569" y="-381.3" font-family="Helvetica,sans-Serif" font-size="11.00" fill="#000000">&lt; 1</text>
<polygon fill="#ffffff" stroke="transparent" points="609,-375.2 609,-394.2 658,-394.2 658,-375.2 609,-375.2"/>
<polygon fill="none" stroke="#000000" points="609,-375.2 609,-394.2 658,-394.2 658,-375.2 609,-375.2"/>
<text text-anchor="start" x="622.6105" y="-381.3" font-family="Helvetica,sans-Serif" font-size="11.00" fill="#000000">0 rows</text>
<polygon fill="#ffffff" stroke="transparent" points="658,-375.2 658,-394.2 682,-394.2 682,-375.2 658,-375.2"/>
<polygon fill="none" stroke="#000000" points="658,-375.2 658,-394.2 682,-394.2 682,-375.2 658,-375.2"/>
<text text-anchor="start" x="672.8862" y="-381.3" font-family="Helvetica,sans-Serif" font-size="11.00" fill="#000000"> &#160;</text>
</a>
</g>
</g>
<!-- mat_aspect&#45;&gt;aspect -->
<g id="edge4" class="edge">
<title>mat_aspect:w&#45;&gt;aspect:e</title>
<path fill="none" stroke="#000000" d="M551.3313,-401.1039C516.2533,-390.1724 516.4567,-340.2 471.5,-340.2"/>
<polygon fill="#000000" stroke="#000000" points="558.0804,-402.0683 565.4907,-406.7638 562.0402,-402.6341 566,-403.2 566,-403.2 566,-403.2 562.0402,-402.6341 566.5093,-399.6362 558.0804,-402.0683 558.0804,-402.0683"/>
<ellipse fill="none" stroke="#000000" cx="554.9126" cy="-401.6156" rx="3.2" ry="3.2"/>
</g>
<!-- mo_aspect -->
<g id="node7" class="node">
<title>mo_aspect</title>
<g id="a_node7"><a xlink:href="../../tables/mo_aspect.html" xlink:title="mo_aspect" target="_top">
<polygon fill="#ffffff" stroke="transparent" points="534,-138.2 534,-272.2 714,-272.2 714,-138.2 534,-138.2"/>
<polygon fill="#f5f5f5" stroke="transparent" points="536,-247.2 536,-270.2 712,-270.2 712,-247.2 536,-247.2"/>
<polygon fill="none" stroke="#000000" points="536,-247.2 536,-270.2 712,-270.2 712,-247.2 536,-247.2"/>
<text text-anchor="start" x="541" y="-255.8" font-family="Helvetica,sans-Serif" font-weight="bold" font-size="11.00" fill="#000000">mo_aspect</text>
<text text-anchor="start" x="677.0437" y="-255.3" font-family="Helvetica,sans-Serif" font-size="11.00" fill="#000000">[table]</text>
<polygon fill="none" stroke="#000000" points="536,-225.2 536,-247.2 628,-247.2 628,-225.2 536,-225.2"/>
<image xlink:href="../../images/primaryKeys.png" width="11px" height="12px" preserveAspectRatio="xMinYMin meet" x="541" y="-242.2"/>
<text text-anchor="start" x="556" y="-232.3" font-family="Helvetica,sans-Serif" font-size="11.00" fill="#000000">mo_id</text>
<polygon fill="none" stroke="#000000" points="628,-225.2 628,-247.2 712,-247.2 712,-225.2 628,-225.2"/>
<text text-anchor="start" x="631" y="-232.9" font-family="Helvetica,sans-Serif" font-size="11.00" fill="#000000">int4[10]</text>
<polygon fill="none" stroke="#000000" points="536,-203.2 536,-225.2 628,-225.2 628,-203.2 536,-203.2"/>
<image xlink:href="../../images/primaryKeys.png" width="11px" height="12px" preserveAspectRatio="xMinYMin meet" x="541" y="-220.2"/>
<text text-anchor="start" x="556" y="-210.3" font-family="Helvetica,sans-Serif" font-size="11.00" fill="#000000">aspect_id</text>
<polygon fill="none" stroke="#000000" points="628,-203.2 628,-225.2 712,-225.2 712,-203.2 628,-203.2"/>
<text text-anchor="start" x="631" y="-210.9" font-family="Helvetica,sans-Serif" font-size="11.00" fill="#000000">int4[10]</text>
<polygon fill="none" stroke="#000000" points="536,-181.2 536,-203.2 628,-203.2 628,-181.2 536,-181.2"/>
<text text-anchor="start" x="556" y="-188.3" font-family="Helvetica,sans-Serif" font-size="11.00" fill="#000000">start_time</text>
<polygon fill="none" stroke="#000000" points="628,-181.2 628,-203.2 712,-203.2 712,-181.2 628,-181.2"/>
<text text-anchor="start" x="630.8807" y="-188.9" font-family="Helvetica,sans-Serif" font-size="11.00" fill="#000000">timestamp[29,6]</text>
<polygon fill="none" stroke="#000000" points="536,-159.2 536,-181.2 628,-181.2 628,-159.2 536,-159.2"/>
<text text-anchor="start" x="556" y="-166.3" font-family="Helvetica,sans-Serif" font-size="11.00" fill="#000000">end_time</text>
<polygon fill="none" stroke="#000000" points="628,-159.2 628,-181.2 712,-181.2 712,-159.2 628,-159.2"/>
<text text-anchor="start" x="630.8807" y="-166.9" font-family="Helvetica,sans-Serif" font-size="11.00" fill="#000000">timestamp[29,6]</text>
<polygon fill="#ffffff" stroke="transparent" points="536,-140.2 536,-159.2 573,-159.2 573,-140.2 536,-140.2"/>
<polygon fill="none" stroke="#000000" points="536,-140.2 536,-159.2 573,-159.2 573,-140.2 536,-140.2"/>
<text text-anchor="start" x="539" y="-146.3" font-family="Helvetica,sans-Serif" font-size="11.00" fill="#000000">&lt; 2</text>
<polygon fill="#ffffff" stroke="transparent" points="573,-140.2 573,-159.2 628,-159.2 628,-140.2 573,-140.2"/>
<polygon fill="none" stroke="#000000" points="573,-140.2 573,-159.2 628,-159.2 628,-140.2 573,-140.2"/>
<text text-anchor="start" x="592.6105" y="-146.3" font-family="Helvetica,sans-Serif" font-size="11.00" fill="#000000">0 rows</text>
<polygon fill="#ffffff" stroke="transparent" points="628,-140.2 628,-159.2 712,-159.2 712,-140.2 628,-140.2"/>
<polygon fill="none" stroke="#000000" points="628,-140.2 628,-159.2 712,-159.2 712,-140.2 628,-140.2"/>
<text text-anchor="start" x="693.4053" y="-146.3" font-family="Helvetica,sans-Serif" font-size="11.00" fill="#000000">0 &gt;</text>
<polygon fill="none" stroke="#000000" stroke-width="2" points="535,-139.2 535,-271.2 713,-271.2 713,-139.2 535,-139.2"/>
</a>
</g>
</g>
<!-- mo_aspect&#45;&gt;aspect -->
<g id="edge5" class="edge">
<title>mo_aspect:w&#45;&gt;aspect:e</title>
<path fill="none" stroke="#000000" d="M521.8717,-217.0684C483.1051,-235.8236 528.7587,-340.2 471.5,-340.2"/>
<polygon fill="#000000" stroke="#000000" points="528.16,-215.7918 536.7163,-217.728 532.08,-214.9959 536,-214.2 536,-214.2 536,-214.2 532.08,-214.9959 535.2837,-210.672 528.16,-215.7918 528.16,-215.7918"/>
<ellipse fill="none" stroke="#000000" cx="525.0239" cy="-216.4285" rx="3.2" ry="3.2"/>
</g>
<!-- mo_aspect&#45;&gt;moving_object -->
<g id="edge6" class="edge">
<title>mo_aspect:w&#45;&gt;moving_object:e</title>
<path fill="none" stroke="#000000" d="M521.8744,-232.5433C503.1386,-219.5716 520.9888,-175.4549 493,-155.2 433.4518,-112.1063 401.027,-146.1269 330,-127.2 311.2508,-122.2038 308.4034,-112.2 289,-112.2"/>
<polygon fill="#000000" stroke="#000000" points="528.2553,-234.1951 535.0978,-239.6851 532.1276,-235.1976 536,-236.2 536,-236.2 536,-236.2 532.1276,-235.1976 536.9022,-232.7149 528.2553,-234.1951 528.2553,-234.1951"/>
<ellipse fill="none" stroke="#000000" cx="525.1574" cy="-233.3931" rx="3.2" ry="3.2"/>
</g>
<!-- mo_relationship -->
<g id="node8" class="node">
<title>mo_relationship</title>
<g id="a_node8"><a xlink:href="../../tables/mo_relationship.html" xlink:title="mo_relationship" target="_top">
<polygon fill="#ffffff" stroke="transparent" points="338,-55.7 338,-116.7 485,-116.7 485,-55.7 338,-55.7"/>
<polygon fill="#f5f5f5" stroke="transparent" points="338.5,-93.2 338.5,-116.2 485.5,-116.2 485.5,-93.2 338.5,-93.2"/>
<polygon fill="none" stroke="#000000" points="338.5,-93.2 338.5,-116.2 485.5,-116.2 485.5,-93.2 338.5,-93.2"/>
<text text-anchor="start" x="343.5" y="-101.8" font-family="Helvetica,sans-Serif" font-weight="bold" font-size="11.00" fill="#000000">mo_relationship</text>
<text text-anchor="start" x="451.0219" y="-101.3" font-family="Helvetica,sans-Serif" font-size="11.00" fill="#000000">[table]</text>
<polygon fill="none" stroke="#000000" points="338.5,-74.2 338.5,-93.2 485.5,-93.2 485.5,-74.2 338.5,-74.2"/>
<text text-anchor="start" x="341.5" y="-80.3" font-family="Helvetica,sans-Serif" font-size="11.00" fill="#000000">...</text>
<polygon fill="#ffffff" stroke="transparent" points="338.5,-55.2 338.5,-74.2 392.5,-74.2 392.5,-55.2 338.5,-55.2"/>
<polygon fill="none" stroke="#000000" points="338.5,-55.2 338.5,-74.2 392.5,-74.2 392.5,-55.2 338.5,-55.2"/>
<text text-anchor="start" x="341.5" y="-61.3" font-family="Helvetica,sans-Serif" font-size="11.00" fill="#000000">&lt; 2</text>
<polygon fill="#ffffff" stroke="transparent" points="392.5,-55.2 392.5,-74.2 447.5,-74.2 447.5,-55.2 392.5,-55.2"/>
<polygon fill="none" stroke="#000000" points="392.5,-55.2 392.5,-74.2 447.5,-74.2 447.5,-55.2 392.5,-55.2"/>
<text text-anchor="start" x="412.1105" y="-61.3" font-family="Helvetica,sans-Serif" font-size="11.00" fill="#000000">0 rows</text>
<polygon fill="#ffffff" stroke="transparent" points="447.5,-55.2 447.5,-74.2 485.5,-74.2 485.5,-55.2 447.5,-55.2"/>
<polygon fill="none" stroke="#000000" points="447.5,-55.2 447.5,-74.2 485.5,-74.2 485.5,-55.2 447.5,-55.2"/>
<text text-anchor="start" x="466.9053" y="-61.3" font-family="Helvetica,sans-Serif" font-size="11.00" fill="#000000">1 &gt;</text>
</a>
</g>
</g>
<!-- mo_relationship&#45;&gt;moving_object -->
<g id="edge7" class="edge">
<title>mo_relationship:w&#45;&gt;moving_object:e</title>
<path fill="none" stroke="#000000" d="M323.9573,-84.1755C312.1434,-89.8978 308.3223,-107.6531 289,-112.2"/>
<polygon fill="#000000" stroke="#000000" points="330.5179,-83.7355 338.741,-86.7919 334.509,-83.4677 338.5,-83.2 338.5,-83.2 338.5,-83.2 334.509,-83.4677 338.259,-79.6081 330.5179,-83.7355 330.5179,-83.7355"/>
<ellipse fill="none" stroke="#000000" cx="327.3251" cy="-83.9496" rx="3.2" ry="3.2"/>
</g>
<!-- mo_relationship&#45;&gt;moving_object -->
<g id="edge8" class="edge">
<title>mo_relationship:w&#45;&gt;moving_object:e</title>
<path fill="none" stroke="#000000" d="M325.4612,-90.022C312.4322,-100.8326 309.1191,-117.7234 289,-112.2"/>
<polygon fill="#000000" stroke="#000000" points="331.4116,-86.9087 340.1689,-86.3898 334.9558,-85.0544 338.5,-83.2 338.5,-83.2 338.5,-83.2 334.9558,-85.0544 336.8311,-80.0102 331.4116,-86.9087 331.4116,-86.9087"/>
<ellipse fill="none" stroke="#000000" cx="328.5762" cy="-88.3922" rx="3.2" ry="3.2"/>
</g>
<!-- mor_aspect -->
<g id="node9" class="node">
<title>mor_aspect</title>
<g id="a_node9"><a xlink:href="../../tables/mor_aspect.html" xlink:title="mor_aspect" target="_top">
<polygon fill="#ffffff" stroke="transparent" points="566,-55.7 566,-116.7 682,-116.7 682,-55.7 566,-55.7"/>
<polygon fill="#f5f5f5" stroke="transparent" points="566,-93.2 566,-116.2 682,-116.2 682,-93.2 566,-93.2"/>
<polygon fill="none" stroke="#000000" points="566,-93.2 566,-116.2 682,-116.2 682,-93.2 566,-93.2"/>
<text text-anchor="start" x="571" y="-101.8" font-family="Helvetica,sans-Serif" font-weight="bold" font-size="11.00" fill="#000000">mor_aspect</text>
<text text-anchor="start" x="647.5219" y="-101.3" font-family="Helvetica,sans-Serif" font-size="11.00" fill="#000000">[table]</text>
<polygon fill="none" stroke="#000000" points="566,-74.2 566,-93.2 682,-93.2 682,-74.2 566,-74.2"/>
<text text-anchor="start" x="569" y="-80.3" font-family="Helvetica,sans-Serif" font-size="11.00" fill="#000000">...</text>
<polygon fill="#ffffff" stroke="transparent" points="566,-55.2 566,-74.2 609,-74.2 609,-55.2 566,-55.2"/>
<polygon fill="none" stroke="#000000" points="566,-55.2 566,-74.2 609,-74.2 609,-55.2 566,-55.2"/>
<text text-anchor="start" x="569" y="-61.3" font-family="Helvetica,sans-Serif" font-size="11.00" fill="#000000">&lt; 2</text>
<polygon fill="#ffffff" stroke="transparent" points="609,-55.2 609,-74.2 658,-74.2 658,-55.2 609,-55.2"/>
<polygon fill="none" stroke="#000000" points="609,-55.2 609,-74.2 658,-74.2 658,-55.2 609,-55.2"/>
<text text-anchor="start" x="622.6105" y="-61.3" font-family="Helvetica,sans-Serif" font-size="11.00" fill="#000000">0 rows</text>
<polygon fill="#ffffff" stroke="transparent" points="658,-55.2 658,-74.2 682,-74.2 682,-55.2 658,-55.2"/>
<polygon fill="none" stroke="#000000" points="658,-55.2 658,-74.2 682,-74.2 682,-55.2 658,-55.2"/>
<text text-anchor="start" x="672.8862" y="-61.3" font-family="Helvetica,sans-Serif" font-size="11.00" fill="#000000"> &#160;</text>
</a>
</g>
</g>
<!-- mor_aspect&#45;&gt;aspect -->
<g id="edge9" class="edge">
<title>mor_aspect:w&#45;&gt;aspect:e</title>
<path fill="none" stroke="#000000" d="M551.4775,-84.6453C456.8649,-105.2916 587.8512,-340.2 471.5,-340.2"/>
<polygon fill="#000000" stroke="#000000" points="558.0393,-83.9923 566.3565,-86.7823 562.0197,-83.5962 566,-83.2 566,-83.2 566,-83.2 562.0197,-83.5962 565.6435,-79.6177 558.0393,-83.9923 558.0393,-83.9923"/>
<ellipse fill="none" stroke="#000000" cx="554.8551" cy="-84.3092" rx="3.2" ry="3.2"/>
</g>
<!-- mor_aspect&#45;&gt;mo_relationship -->
<g id="edge10" class="edge">
<title>mor_aspect:w&#45;&gt;mo_relationship:e</title>
<path fill="none" stroke="#000000" d="M551.327,-83.2C526.8742,-83.2 515.8273,-83.2 485.5,-83.2"/>
<polygon fill="#000000" stroke="#000000" points="558,-83.2001 566,-86.8 562,-83.2 566,-83.2 566,-83.2 566,-83.2 562,-83.2 566,-79.6 558,-83.2001 558,-83.2001"/>
<ellipse fill="none" stroke="#000000" cx="554.8" cy="-83.2001" rx="3.2" ry="3.2"/>
</g>
<!-- point_aspect -->
<g id="node11" class="node">
<title>point_aspect</title>
<g id="a_node11"><a xlink:href="../../tables/point_aspect.html" xlink:title="point_aspect" target="_top">
<polygon fill="#ffffff" stroke="transparent" points="561.5,-293.7 561.5,-354.7 686.5,-354.7 686.5,-293.7 561.5,-293.7"/>
<polygon fill="#f5f5f5" stroke="transparent" points="562,-331.2 562,-354.2 687,-354.2 687,-331.2 562,-331.2"/>
<polygon fill="none" stroke="#000000" points="562,-331.2 562,-354.2 687,-354.2 687,-331.2 562,-331.2"/>
<text text-anchor="start" x="567" y="-339.8" font-family="Helvetica,sans-Serif" font-weight="bold" font-size="11.00" fill="#000000">point_aspect</text>
<text text-anchor="start" x="652.5219" y="-339.3" font-family="Helvetica,sans-Serif" font-size="11.00" fill="#000000">[table]</text>
<polygon fill="none" stroke="#000000" points="562,-312.2 562,-331.2 687,-331.2 687,-312.2 562,-312.2"/>
<text text-anchor="start" x="565" y="-318.3" font-family="Helvetica,sans-Serif" font-size="11.00" fill="#000000">...</text>
<polygon fill="#ffffff" stroke="transparent" points="562,-293.2 562,-312.2 593,-312.2 593,-293.2 562,-293.2"/>
<polygon fill="none" stroke="#000000" points="562,-293.2 562,-312.2 593,-312.2 593,-293.2 562,-293.2"/>
<text text-anchor="start" x="565" y="-299.3" font-family="Helvetica,sans-Serif" font-size="11.00" fill="#000000">&lt; 1</text>
<polygon fill="#ffffff" stroke="transparent" points="593,-293.2 593,-312.2 670,-312.2 670,-293.2 593,-293.2"/>
<polygon fill="none" stroke="#000000" points="593,-293.2 593,-312.2 670,-312.2 670,-293.2 593,-293.2"/>
<text text-anchor="start" x="600.9791" y="-299.3" font-family="Helvetica,sans-Serif" font-size="11.00" fill="#000000">800.114 rows</text>
<polygon fill="#ffffff" stroke="transparent" points="670,-293.2 670,-312.2 687,-312.2 687,-293.2 670,-293.2"/>
<polygon fill="none" stroke="#000000" points="670,-293.2 670,-312.2 687,-312.2 687,-293.2 670,-293.2"/>
<text text-anchor="start" x="677.8862" y="-299.3" font-family="Helvetica,sans-Serif" font-size="11.00" fill="#000000"> &#160;</text>
</a>
</g>
</g>
<!-- point_aspect&#45;&gt;aspect -->
<g id="edge12" class="edge">
<title>point_aspect:w&#45;&gt;aspect:e</title>
<path fill="none" stroke="#000000" d="M547.6007,-322.0658C518.2156,-325.7827 507.3012,-340.2 471.5,-340.2"/>
<polygon fill="#000000" stroke="#000000" points="554.0144,-321.6802 562.2161,-324.7935 558.0072,-321.4401 562,-321.2 562,-321.2 562,-321.2 558.0072,-321.4401 561.7839,-317.6065 554.0144,-321.6802 554.0144,-321.6802"/>
<ellipse fill="none" stroke="#000000" cx="550.8202" cy="-321.8723" rx="3.2" ry="3.2"/>
</g>
</g>
</svg>
