<?xml version="1.0" encoding="UTF-8" standalone="no"?>
<!DOCTYPE svg PUBLIC "-//W3C//DTD SVG 1.1//EN"
 "http://www.w3.org/Graphics/SVG/1.1/DTD/svg11.dtd">
<!-- Generated by graphviz version 2.40.1 (20161225.0304)
 -->
<!-- Title: twoDegreesRelationshipsDiagram Pages: 1 -->
<svg width="736pt" height="431pt"
 viewBox="0.00 0.00 736.00 430.86" xmlns="http://www.w3.org/2000/svg" xmlns:xlink="http://www.w3.org/1999/xlink">
<g id="graph0" class="graph" transform="scale(1 1) rotate(0) translate(4 426.8624)">
<title>twoDegreesRelationshipsDiagram</title>
<polygon fill="#ffffff" stroke="transparent" points="-4,4 -4,-426.8624 732,-426.8624 732,4 -4,4"/>
<text text-anchor="middle" x="72.4936" y="-7.3" font-family="Helvetica,sans-Serif" font-size="11.00" fill="#000000">Generated by SchemaSpy</text>
<!-- mat -->
<g id="node1" class="node">
<title>mat</title>
<g id="a_node1"><a xlink:href="../../tables/mat.html" xlink:title="mat" target="_top">
<polygon fill="#ffffff" stroke="transparent" points="411,-158.3624 411,-219.3624 482,-219.3624 482,-158.3624 411,-158.3624"/>
<polygon fill="#f5f5f5" stroke="transparent" points="411.5,-195.8624 411.5,-218.8624 482.5,-218.8624 482.5,-195.8624 411.5,-195.8624"/>
<polygon fill="none" stroke="#000000" points="411.5,-195.8624 411.5,-218.8624 482.5,-218.8624 482.5,-195.8624 411.5,-195.8624"/>
<text text-anchor="start" x="416.5" y="-204.4624" font-family="Helvetica,sans-Serif" font-weight="bold" font-size="11.00" fill="#000000">mat</text>
<text text-anchor="start" x="447.5437" y="-203.9624" font-family="Helvetica,sans-Serif" font-size="11.00" fill="#000000">[table]</text>
<polygon fill="none" stroke="#000000" points="411.5,-176.8624 411.5,-195.8624 482.5,-195.8624 482.5,-176.8624 411.5,-176.8624"/>
<text text-anchor="start" x="414.5" y="-182.9624" font-family="Helvetica,sans-Serif" font-size="11.00" fill="#000000">...</text>
<polygon fill="#ffffff" stroke="transparent" points="411.5,-157.8624 411.5,-176.8624 432.5,-176.8624 432.5,-157.8624 411.5,-157.8624"/>
<polygon fill="none" stroke="#000000" points="411.5,-157.8624 411.5,-176.8624 432.5,-176.8624 432.5,-157.8624 411.5,-157.8624"/>
<text text-anchor="start" x="414.2027" y="-163.9624" font-family="Helvetica,sans-Serif" font-size="11.00" fill="#000000">&lt; 1</text>
<polygon fill="#ffffff" stroke="transparent" points="432.5,-157.8624 432.5,-176.8624 470.5,-176.8624 470.5,-157.8624 432.5,-157.8624"/>
<polygon fill="none" stroke="#000000" points="432.5,-157.8624 432.5,-176.8624 470.5,-176.8624 470.5,-157.8624 432.5,-157.8624"/>
<text text-anchor="start" x="435.3053" y="-163.9624" font-family="Helvetica,sans-Serif" font-size="11.00" fill="#000000">0 rows</text>
<polygon fill="#ffffff" stroke="transparent" points="470.5,-157.8624 470.5,-176.8624 482.5,-176.8624 482.5,-157.8624 470.5,-157.8624"/>
<polygon fill="none" stroke="#000000" points="470.5,-157.8624 470.5,-176.8624 482.5,-176.8624 482.5,-157.8624 470.5,-157.8624"/>
<text text-anchor="start" x="473.4431" y="-163.9624" font-family="Helvetica,sans-Serif" font-size="11.00" fill="#000000"> &#160;</text>
</a>
</g>
</g>
<!-- moving_object -->
<g id="node2" class="node">
<title>moving_object</title>
<g id="a_node2"><a xlink:href="../../tables/moving_object.html" xlink:title="moving_object" target="_top">
<polygon fill="#ffffff" stroke="transparent" points="153,-154.8624 153,-262.8624 289,-262.8624 289,-154.8624 153,-154.8624"/>
<polygon fill="#f5f5f5" stroke="transparent" points="153,-239.8624 153,-262.8624 289,-262.8624 289,-239.8624 153,-239.8624"/>
<polygon fill="none" stroke="#000000" points="153,-239.8624 153,-262.8624 289,-262.8624 289,-239.8624 153,-239.8624"/>
<text text-anchor="start" x="158" y="-248.4624" font-family="Helvetica,sans-Serif" font-weight="bold" font-size="11.00" fill="#000000">moving_object</text>
<text text-anchor="start" x="254.5219" y="-247.9624" font-family="Helvetica,sans-Serif" font-size="11.00" fill="#000000">[table]</text>
<polygon fill="none" stroke="#000000" points="153,-217.8624 153,-239.8624 289,-239.8624 289,-217.8624 153,-217.8624"/>
<image xlink:href="../../images/primaryKeys.png" width="11px" height="12px" preserveAspectRatio="xMinYMin meet" x="158" y="-234.862"/>
<text text-anchor="start" x="182" y="-224.9624" font-family="Helvetica,sans-Serif" font-size="11.00" fill="#000000">mo_id</text>
<polygon fill="#ffffff" stroke="transparent" points="153,-195.8624 153,-217.8624 289,-217.8624 289,-195.8624 153,-195.8624"/>
<polygon fill="none" stroke="#000000" points="153,-195.8624 153,-217.8624 289,-217.8624 289,-195.8624 153,-195.8624"/>
<text text-anchor="start" x="182" y="-202.9624" font-family="Helvetica,sans-Serif" font-size="11.00" fill="#000000">description</text>
<polygon fill="#ffffff" stroke="transparent" points="153,-173.8624 153,-195.8624 289,-195.8624 289,-173.8624 153,-173.8624"/>
<polygon fill="none" stroke="#000000" points="153,-173.8624 153,-195.8624 289,-195.8624 289,-173.8624 153,-173.8624"/>
<image xlink:href="../../images/foreignKeys.png" width="11px" height="12px" preserveAspectRatio="xMinYMin meet" x="158" y="-190.862"/>
<text text-anchor="start" x="182" y="-180.9624" font-family="Helvetica,sans-Serif" font-size="11.00" fill="#000000">mo_type_id</text>
<polygon fill="#ffffff" stroke="transparent" points="153,-154.8624 153,-173.8624 191,-173.8624 191,-154.8624 153,-154.8624"/>
<polygon fill="none" stroke="#000000" points="153,-154.8624 153,-173.8624 191,-173.8624 191,-154.8624 153,-154.8624"/>
<text text-anchor="start" x="156" y="-160.9624" font-family="Helvetica,sans-Serif" font-size="11.00" fill="#000000">&lt; 1</text>
<polygon fill="#ffffff" stroke="transparent" points="191,-154.8624 191,-173.8624 259,-173.8624 259,-154.8624 191,-154.8624"/>
<polygon fill="none" stroke="#000000" points="191,-154.8624 191,-173.8624 259,-173.8624 259,-154.8624 191,-154.8624"/>
<text text-anchor="start" x="202.2089" y="-160.9624" font-family="Helvetica,sans-Serif" font-size="11.00" fill="#000000">3.376 rows</text>
<polygon fill="#ffffff" stroke="transparent" points="259,-154.8624 259,-173.8624 289,-173.8624 289,-154.8624 259,-154.8624"/>
<polygon fill="none" stroke="#000000" points="259,-154.8624 259,-173.8624 289,-173.8624 289,-154.8624 259,-154.8624"/>
<text text-anchor="start" x="270.4053" y="-160.9624" font-family="Helvetica,sans-Serif" font-size="11.00" fill="#000000">4 &gt;</text>
</a>
</g>
</g>
<!-- mat&#45;&gt;moving_object -->
<g id="edge1" class="edge">
<title>mat:w&#45;&gt;moving_object:e</title>
<path fill="none" stroke="#000000" d="M397.0997,-186.8413C352.115,-193.2419 341.5171,-228.8624 289,-228.8624"/>
<polygon fill="#000000" stroke="#000000" points="403.5184,-186.4051 411.7442,-189.4541 407.5092,-186.1337 411.5,-185.8624 411.5,-185.8624 411.5,-185.8624 407.5092,-186.1337 411.2558,-182.2707 403.5184,-186.4051 403.5184,-186.4051"/>
<ellipse fill="none" stroke="#000000" cx="400.3258" cy="-186.6221" rx="3.2" ry="3.2"/>
</g>
<!-- mo_type -->
<g id="node7" class="node">
<title>mo_type</title>
<g id="a_node7"><a xlink:href="../../tables/mo_type.html" xlink:title="mo_type" target="_top">
<polygon fill="#ffffff" stroke="transparent" points="8,-157.3624 8,-218.3624 104,-218.3624 104,-157.3624 8,-157.3624"/>
<polygon fill="#f5f5f5" stroke="transparent" points="8,-194.8624 8,-217.8624 104,-217.8624 104,-194.8624 8,-194.8624"/>
<polygon fill="none" stroke="#000000" points="8,-194.8624 8,-217.8624 104,-217.8624 104,-194.8624 8,-194.8624"/>
<text text-anchor="start" x="13" y="-203.4624" font-family="Helvetica,sans-Serif" font-weight="bold" font-size="11.00" fill="#000000">mo_type</text>
<text text-anchor="start" x="69.5219" y="-202.9624" font-family="Helvetica,sans-Serif" font-size="11.00" fill="#000000">[table]</text>
<polygon fill="none" stroke="#000000" points="8,-175.8624 8,-194.8624 104,-194.8624 104,-175.8624 8,-175.8624"/>
<text text-anchor="start" x="11" y="-181.9624" font-family="Helvetica,sans-Serif" font-size="11.00" fill="#000000">...</text>
<polygon fill="#ffffff" stroke="transparent" points="8,-156.8624 8,-175.8624 35,-175.8624 35,-156.8624 8,-156.8624"/>
<polygon fill="none" stroke="#000000" points="8,-156.8624 8,-175.8624 35,-175.8624 35,-156.8624 8,-156.8624"/>
<text text-anchor="start" x="11" y="-162.9624" font-family="Helvetica,sans-Serif" font-size="11.00" fill="#000000"> &#160;</text>
<polygon fill="#ffffff" stroke="transparent" points="35,-156.8624 35,-175.8624 75,-175.8624 75,-156.8624 35,-156.8624"/>
<polygon fill="none" stroke="#000000" points="35,-156.8624 35,-175.8624 75,-175.8624 75,-156.8624 35,-156.8624"/>
<text text-anchor="start" x="45.1105" y="-162.9624" font-family="Helvetica,sans-Serif" font-size="11.00" fill="#000000">1 row</text>
<polygon fill="#ffffff" stroke="transparent" points="75,-156.8624 75,-175.8624 104,-175.8624 104,-156.8624 75,-156.8624"/>
<polygon fill="none" stroke="#000000" points="75,-156.8624 75,-175.8624 104,-175.8624 104,-156.8624 75,-156.8624"/>
<text text-anchor="start" x="85.4053" y="-162.9624" font-family="Helvetica,sans-Serif" font-size="11.00" fill="#000000">1 &gt;</text>
</a>
</g>
</g>
<!-- moving_object&#45;&gt;mo_type -->
<g id="edge8" class="edge">
<title>moving_object:w&#45;&gt;mo_type:e</title>
<path fill="none" stroke="#000000" d="M138.4909,-184.8624C127.1774,-184.8624 119.9931,-184.8624 104,-184.8624"/>
<polygon fill="#000000" stroke="#000000" points="145,-184.8625 153,-188.4624 149,-184.8625 153,-184.8624 153,-184.8624 153,-184.8624 149,-184.8625 153,-181.2624 145,-184.8625 145,-184.8625"/>
<ellipse fill="none" stroke="#000000" cx="141.8" cy="-184.8625" rx="3.2" ry="3.2"/>
</g>
<!-- mo_aspect -->
<g id="node3" class="node">
<title>mo_aspect</title>
<g id="a_node3"><a xlink:href="../../tables/mo_aspect.html" xlink:title="mo_aspect" target="_top">
<polygon fill="#ffffff" stroke="transparent" points="607,-50.3624 607,-111.3624 717,-111.3624 717,-50.3624 607,-50.3624"/>
<polygon fill="#f5f5f5" stroke="transparent" points="607,-87.8624 607,-110.8624 717,-110.8624 717,-87.8624 607,-87.8624"/>
<polygon fill="none" stroke="#000000" points="607,-87.8624 607,-110.8624 717,-110.8624 717,-87.8624 607,-87.8624"/>
<text text-anchor="start" x="612" y="-96.4624" font-family="Helvetica,sans-Serif" font-weight="bold" font-size="11.00" fill="#000000">mo_aspect</text>
<text text-anchor="start" x="682.5219" y="-95.9624" font-family="Helvetica,sans-Serif" font-size="11.00" fill="#000000">[table]</text>
<polygon fill="none" stroke="#000000" points="607,-68.8624 607,-87.8624 717,-87.8624 717,-68.8624 607,-68.8624"/>
<text text-anchor="start" x="610" y="-74.9624" font-family="Helvetica,sans-Serif" font-size="11.00" fill="#000000">...</text>
<polygon fill="#ffffff" stroke="transparent" points="607,-49.8624 607,-68.8624 647,-68.8624 647,-49.8624 607,-49.8624"/>
<polygon fill="none" stroke="#000000" points="607,-49.8624 607,-68.8624 647,-68.8624 647,-49.8624 607,-49.8624"/>
<text text-anchor="start" x="610" y="-55.9624" font-family="Helvetica,sans-Serif" font-size="11.00" fill="#000000">&lt; 2</text>
<polygon fill="#ffffff" stroke="transparent" points="647,-49.8624 647,-68.8624 695,-68.8624 695,-49.8624 647,-49.8624"/>
<polygon fill="none" stroke="#000000" points="647,-49.8624 647,-68.8624 695,-68.8624 695,-49.8624 647,-49.8624"/>
<text text-anchor="start" x="659.6105" y="-55.9624" font-family="Helvetica,sans-Serif" font-size="11.00" fill="#000000">0 rows</text>
<polygon fill="#ffffff" stroke="transparent" points="695,-49.8624 695,-68.8624 717,-68.8624 717,-49.8624 695,-49.8624"/>
<polygon fill="none" stroke="#000000" points="695,-49.8624 695,-68.8624 717,-68.8624 717,-49.8624 695,-49.8624"/>
<text text-anchor="start" x="707.8862" y="-55.9624" font-family="Helvetica,sans-Serif" font-size="11.00" fill="#000000"> &#160;</text>
</a>
</g>
</g>
<!-- mo_aspect&#45;&gt;moving_object -->
<g id="edge3" class="edge">
<title>mo_aspect:w&#45;&gt;moving_object:e</title>
<path fill="none" stroke="#000000" d="M592.4787,-75.8177C583.1192,-72.9183 577.1261,-67.7542 563,-65.8624 460.3607,-52.1172 411.669,-2.192 330,-65.8624 271.0871,-111.7919 363.7011,-228.8624 289,-228.8624"/>
<polygon fill="#000000" stroke="#000000" points="599.0781,-76.7469 606.498,-81.4273 603.0391,-77.3047 607,-77.8624 607,-77.8624 607,-77.8624 603.0391,-77.3047 607.502,-74.2976 599.0781,-76.7469 599.0781,-76.7469"/>
<ellipse fill="none" stroke="#000000" cx="595.9094" cy="-76.3007" rx="3.2" ry="3.2"/>
</g>
<!-- aspect -->
<g id="node4" class="node">
<title>aspect</title>
<g id="a_node4"><a xlink:href="../../tables/aspect.html" xlink:title="aspect" target="_top">
<polygon fill="#ffffff" stroke="transparent" points="389.5,-76.3624 389.5,-137.3624 503.5,-137.3624 503.5,-76.3624 389.5,-76.3624"/>
<polygon fill="#f5f5f5" stroke="transparent" points="389.5,-113.8624 389.5,-136.8624 503.5,-136.8624 503.5,-113.8624 389.5,-113.8624"/>
<polygon fill="none" stroke="#000000" points="389.5,-113.8624 389.5,-136.8624 503.5,-136.8624 503.5,-113.8624 389.5,-113.8624"/>
<text text-anchor="start" x="394.5" y="-122.4624" font-family="Helvetica,sans-Serif" font-weight="bold" font-size="11.00" fill="#000000">aspect</text>
<text text-anchor="start" x="468.5437" y="-121.9624" font-family="Helvetica,sans-Serif" font-size="11.00" fill="#000000">[table]</text>
<polygon fill="none" stroke="#000000" points="389.5,-94.8624 389.5,-113.8624 503.5,-113.8624 503.5,-94.8624 389.5,-94.8624"/>
<text text-anchor="start" x="392.5" y="-100.9624" font-family="Helvetica,sans-Serif" font-size="11.00" fill="#000000">...</text>
<polygon fill="#ffffff" stroke="transparent" points="389.5,-75.8624 389.5,-94.8624 410.5,-94.8624 410.5,-75.8624 389.5,-75.8624"/>
<polygon fill="none" stroke="#000000" points="389.5,-75.8624 389.5,-94.8624 410.5,-94.8624 410.5,-75.8624 389.5,-75.8624"/>
<text text-anchor="start" x="392.2027" y="-81.9624" font-family="Helvetica,sans-Serif" font-size="11.00" fill="#000000">&lt; 1</text>
<polygon fill="#ffffff" stroke="transparent" points="410.5,-75.8624 410.5,-94.8624 482.5,-94.8624 482.5,-75.8624 410.5,-75.8624"/>
<polygon fill="none" stroke="#000000" points="410.5,-75.8624 410.5,-94.8624 482.5,-94.8624 482.5,-75.8624 410.5,-75.8624"/>
<text text-anchor="start" x="413.4896" y="-81.9624" font-family="Helvetica,sans-Serif" font-size="11.00" fill="#000000">100.191 rows</text>
<polygon fill="#ffffff" stroke="transparent" points="482.5,-75.8624 482.5,-94.8624 503.5,-94.8624 503.5,-75.8624 482.5,-75.8624"/>
<polygon fill="none" stroke="#000000" points="482.5,-75.8624 482.5,-94.8624 503.5,-94.8624 503.5,-75.8624 482.5,-75.8624"/>
<text text-anchor="start" x="485.2027" y="-81.9624" font-family="Helvetica,sans-Serif" font-size="11.00" fill="#000000">5 &gt;</text>
</a>
</g>
</g>
<!-- mo_aspect&#45;&gt;aspect -->
<g id="edge2" class="edge">
<title>mo_aspect:w&#45;&gt;aspect:e</title>
<path fill="none" stroke="#000000" d="M592.2619,-78.7878C557.1152,-83.4194 545.5564,-103.8624 503.5,-103.8624"/>
<polygon fill="#000000" stroke="#000000" points="599.0157,-78.3638 607.2256,-81.4554 603.0079,-78.1131 607,-77.8624 607,-77.8624 607,-77.8624 603.0079,-78.1131 606.7744,-74.2695 599.0157,-78.3638 599.0157,-78.3638"/>
<ellipse fill="none" stroke="#000000" cx="595.822" cy="-78.5643" rx="3.2" ry="3.2"/>
</g>
<!-- mo_relationship -->
<g id="node5" class="node">
<title>mo_relationship</title>
<g id="a_node5"><a xlink:href="../../tables/mo_relationship.html" xlink:title="mo_relationship" target="_top">
<polygon fill="#ffffff" stroke="transparent" points="338,-240.8624 338,-418.8624 555,-418.8624 555,-240.8624 338,-240.8624"/>
<polygon fill="#f5f5f5" stroke="transparent" points="340.5,-393.8624 340.5,-416.8624 553.5,-416.8624 553.5,-393.8624 340.5,-393.8624"/>
<polygon fill="none" stroke="#000000" points="340.5,-393.8624 340.5,-416.8624 553.5,-416.8624 553.5,-393.8624 340.5,-393.8624"/>
<text text-anchor="start" x="345.5" y="-402.4624" font-family="Helvetica,sans-Serif" font-weight="bold" font-size="11.00" fill="#000000">mo_relationship</text>
<text text-anchor="start" x="518.5437" y="-401.9624" font-family="Helvetica,sans-Serif" font-size="11.00" fill="#000000">[table]</text>
<polygon fill="none" stroke="#000000" points="340.5,-371.8624 340.5,-393.8624 469.5,-393.8624 469.5,-371.8624 340.5,-371.8624"/>
<image xlink:href="../../images/primaryKeys.png" width="11px" height="12px" preserveAspectRatio="xMinYMin meet" x="345.5" y="-388.862"/>
<text text-anchor="start" x="360.5" y="-378.9624" font-family="Helvetica,sans-Serif" font-size="11.00" fill="#000000">mor_id</text>
<polygon fill="none" stroke="#000000" points="469.5,-371.8624 469.5,-393.8624 553.5,-393.8624 553.5,-371.8624 469.5,-371.8624"/>
<text text-anchor="start" x="472.5" y="-379.5624" font-family="Helvetica,sans-Serif" font-size="11.00" fill="#000000">int4[10]</text>
<polygon fill="none" stroke="#000000" points="340.5,-349.8624 340.5,-371.8624 469.5,-371.8624 469.5,-349.8624 340.5,-349.8624"/>
<text text-anchor="start" x="360.5" y="-356.9624" font-family="Helvetica,sans-Serif" font-size="11.00" fill="#000000">description</text>
<polygon fill="none" stroke="#000000" points="469.5,-349.8624 469.5,-371.8624 553.5,-371.8624 553.5,-349.8624 469.5,-349.8624"/>
<text text-anchor="start" x="472.5" y="-357.5624" font-family="Helvetica,sans-Serif" font-size="11.00" fill="#000000">varchar[50]</text>
<polygon fill="none" stroke="#000000" points="340.5,-327.8624 340.5,-349.8624 469.5,-349.8624 469.5,-327.8624 340.5,-327.8624"/>
<text text-anchor="start" x="360.5" y="-334.9624" font-family="Helvetica,sans-Serif" font-size="11.00" fill="#000000">start_time</text>
<polygon fill="none" stroke="#000000" points="469.5,-327.8624 469.5,-349.8624 553.5,-349.8624 553.5,-327.8624 469.5,-327.8624"/>
<text text-anchor="start" x="472.3807" y="-335.5624" font-family="Helvetica,sans-Serif" font-size="11.00" fill="#000000">timestamp[29,6]</text>
<polygon fill="none" stroke="#000000" points="340.5,-305.8624 340.5,-327.8624 469.5,-327.8624 469.5,-305.8624 340.5,-305.8624"/>
<text text-anchor="start" x="360.5" y="-312.9624" font-family="Helvetica,sans-Serif" font-size="11.00" fill="#000000">end_time</text>
<polygon fill="none" stroke="#000000" points="469.5,-305.8624 469.5,-327.8624 553.5,-327.8624 553.5,-305.8624 469.5,-305.8624"/>
<text text-anchor="start" x="472.3807" y="-313.5624" font-family="Helvetica,sans-Serif" font-size="11.00" fill="#000000">timestamp[29,6]</text>
<polygon fill="#ffffff" stroke="transparent" points="340.5,-283.8624 340.5,-305.8624 469.5,-305.8624 469.5,-283.8624 340.5,-283.8624"/>
<polygon fill="none" stroke="#000000" points="340.5,-283.8624 340.5,-305.8624 469.5,-305.8624 469.5,-283.8624 340.5,-283.8624"/>
<image xlink:href="../../images/foreignKeys.png" width="11px" height="12px" preserveAspectRatio="xMinYMin meet" x="345.5" y="-300.862"/>
<text text-anchor="start" x="360.5" y="-290.9624" font-family="Helvetica,sans-Serif" font-size="11.00" fill="#000000">mo_target</text>
<polygon fill="none" stroke="#000000" points="469.5,-283.8624 469.5,-305.8624 553.5,-305.8624 553.5,-283.8624 469.5,-283.8624"/>
<text text-anchor="start" x="472.5" y="-291.5624" font-family="Helvetica,sans-Serif" font-size="11.00" fill="#000000">int4[10]</text>
<polygon fill="#ffffff" stroke="transparent" points="340.5,-261.8624 340.5,-283.8624 469.5,-283.8624 469.5,-261.8624 340.5,-261.8624"/>
<polygon fill="none" stroke="#000000" points="340.5,-261.8624 340.5,-283.8624 469.5,-283.8624 469.5,-261.8624 340.5,-261.8624"/>
<image xlink:href="../../images/foreignKeys.png" width="11px" height="12px" preserveAspectRatio="xMinYMin meet" x="345.5" y="-278.862"/>
<text text-anchor="start" x="360.5" y="-268.9624" font-family="Helvetica,sans-Serif" font-size="11.00" fill="#000000">mo_source</text>
<polygon fill="none" stroke="#000000" points="469.5,-261.8624 469.5,-283.8624 553.5,-283.8624 553.5,-261.8624 469.5,-261.8624"/>
<text text-anchor="start" x="472.5" y="-269.5624" font-family="Helvetica,sans-Serif" font-size="11.00" fill="#000000">int4[10]</text>
<polygon fill="#ffffff" stroke="transparent" points="340.5,-242.8624 340.5,-261.8624 396.5,-261.8624 396.5,-242.8624 340.5,-242.8624"/>
<polygon fill="none" stroke="#000000" points="340.5,-242.8624 340.5,-261.8624 396.5,-261.8624 396.5,-242.8624 340.5,-242.8624"/>
<text text-anchor="start" x="343.5" y="-248.9624" font-family="Helvetica,sans-Serif" font-size="11.00" fill="#000000">&lt; 2</text>
<polygon fill="#ffffff" stroke="transparent" points="396.5,-242.8624 396.5,-261.8624 469.5,-261.8624 469.5,-242.8624 396.5,-242.8624"/>
<polygon fill="none" stroke="#000000" points="396.5,-242.8624 396.5,-261.8624 469.5,-261.8624 469.5,-242.8624 396.5,-242.8624"/>
<text text-anchor="start" x="434.1105" y="-248.9624" font-family="Helvetica,sans-Serif" font-size="11.00" fill="#000000">0 rows</text>
<polygon fill="#ffffff" stroke="transparent" points="469.5,-242.8624 469.5,-261.8624 553.5,-261.8624 553.5,-242.8624 469.5,-242.8624"/>
<polygon fill="none" stroke="#000000" points="469.5,-242.8624 469.5,-261.8624 553.5,-261.8624 553.5,-242.8624 469.5,-242.8624"/>
<text text-anchor="start" x="534.9053" y="-248.9624" font-family="Helvetica,sans-Serif" font-size="11.00" fill="#000000">1 &gt;</text>
<polygon fill="none" stroke="#000000" stroke-width="2" points="339,-241.8624 339,-417.8624 554,-417.8624 554,-241.8624 339,-241.8624"/>
</a>
</g>
</g>
<!-- mo_relationship&#45;&gt;moving_object -->
<g id="edge4" class="edge">
<title>mo_relationship:w&#45;&gt;moving_object:e</title>
<path fill="none" stroke="#000000" d="M326.7239,-268.4827C312.3166,-257.3534 313.2253,-228.8624 289,-228.8624"/>
<polygon fill="#000000" stroke="#000000" points="332.876,-270.4385 339.4093,-276.2932 336.688,-271.6505 340.5,-272.8624 340.5,-272.8624 340.5,-272.8624 336.688,-271.6505 341.5907,-269.4316 332.876,-270.4385 332.876,-270.4385"/>
<ellipse fill="none" stroke="#000000" cx="329.8264" cy="-269.469" rx="3.2" ry="3.2"/>
</g>
<!-- mo_relationship&#45;&gt;moving_object -->
<g id="edge5" class="edge">
<title>mo_relationship:w&#45;&gt;moving_object:e</title>
<path fill="none" stroke="#000000" d="M326.511,-290.1159C309.1935,-274.9827 320.1026,-228.8624 289,-228.8624"/>
<polygon fill="#000000" stroke="#000000" points="332.9242,-292.2919 339.3433,-298.2715 336.7121,-293.5772 340.5,-294.8624 340.5,-294.8624 340.5,-294.8624 336.7121,-293.5772 341.6567,-291.4533 332.9242,-292.2919 332.9242,-292.2919"/>
<ellipse fill="none" stroke="#000000" cx="329.8939" cy="-291.2637" rx="3.2" ry="3.2"/>
</g>
<!-- mor_aspect -->
<g id="node6" class="node">
<title>mor_aspect</title>
<g id="a_node6"><a xlink:href="../../tables/mor_aspect.html" xlink:title="mor_aspect" target="_top">
<polygon fill="#ffffff" stroke="transparent" points="604,-231.8624 604,-317.8624 720,-317.8624 720,-231.8624 604,-231.8624"/>
<polygon fill="#f5f5f5" stroke="transparent" points="604,-294.8624 604,-317.8624 720,-317.8624 720,-294.8624 604,-294.8624"/>
<polygon fill="none" stroke="#000000" points="604,-294.8624 604,-317.8624 720,-317.8624 720,-294.8624 604,-294.8624"/>
<text text-anchor="start" x="609" y="-303.4624" font-family="Helvetica,sans-Serif" font-weight="bold" font-size="11.00" fill="#000000">mor_aspect</text>
<text text-anchor="start" x="685.5219" y="-302.9624" font-family="Helvetica,sans-Serif" font-size="11.00" fill="#000000">[table]</text>
<polygon fill="none" stroke="#000000" points="604,-272.8624 604,-294.8624 720,-294.8624 720,-272.8624 604,-272.8624"/>
<image xlink:href="../../images/primaryKeys.png" width="11px" height="12px" preserveAspectRatio="xMinYMin meet" x="609" y="-289.862"/>
<text text-anchor="start" x="633" y="-279.9624" font-family="Helvetica,sans-Serif" font-size="11.00" fill="#000000">mor_id</text>
<polygon fill="none" stroke="#000000" points="604,-250.8624 604,-272.8624 720,-272.8624 720,-250.8624 604,-250.8624"/>
<image xlink:href="../../images/primaryKeys.png" width="11px" height="12px" preserveAspectRatio="xMinYMin meet" x="609" y="-267.862"/>
<text text-anchor="start" x="633" y="-257.9624" font-family="Helvetica,sans-Serif" font-size="11.00" fill="#000000">aspect_id</text>
<polygon fill="#ffffff" stroke="transparent" points="604,-231.8624 604,-250.8624 647,-250.8624 647,-231.8624 604,-231.8624"/>
<polygon fill="none" stroke="#000000" points="604,-231.8624 604,-250.8624 647,-250.8624 647,-231.8624 604,-231.8624"/>
<text text-anchor="start" x="607" y="-237.9624" font-family="Helvetica,sans-Serif" font-size="11.00" fill="#000000">&lt; 2</text>
<polygon fill="#ffffff" stroke="transparent" points="647,-231.8624 647,-250.8624 696,-250.8624 696,-231.8624 647,-231.8624"/>
<polygon fill="none" stroke="#000000" points="647,-231.8624 647,-250.8624 696,-250.8624 696,-231.8624 647,-231.8624"/>
<text text-anchor="start" x="660.6105" y="-237.9624" font-family="Helvetica,sans-Serif" font-size="11.00" fill="#000000">0 rows</text>
<polygon fill="#ffffff" stroke="transparent" points="696,-231.8624 696,-250.8624 720,-250.8624 720,-231.8624 696,-231.8624"/>
<polygon fill="none" stroke="#000000" points="696,-231.8624 696,-250.8624 720,-250.8624 720,-231.8624 696,-231.8624"/>
<text text-anchor="start" x="710.8862" y="-237.9624" font-family="Helvetica,sans-Serif" font-size="11.00" fill="#000000"> &#160;</text>
</a>
</g>
</g>
<!-- mor_aspect&#45;&gt;aspect -->
<g id="edge6" class="edge">
<title>mor_aspect:w&#45;&gt;aspect:e</title>
<path fill="none" stroke="#000000" d="M589.6491,-259.4502C559.0738,-246.705 591.6248,-186.3367 563,-147.8624 543.3677,-121.4749 536.3896,-103.8624 503.5,-103.8624"/>
<polygon fill="#000000" stroke="#000000" points="596.1107,-260.5363 603.4032,-265.4126 600.0553,-261.1994 604,-261.8624 604,-261.8624 604,-261.8624 600.0553,-261.1994 604.5968,-258.3122 596.1107,-260.5363 596.1107,-260.5363"/>
<ellipse fill="none" stroke="#000000" cx="592.9549" cy="-260.0058" rx="3.2" ry="3.2"/>
</g>
<!-- mor_aspect&#45;&gt;mo_relationship -->
<g id="edge7" class="edge">
<title>mor_aspect:w&#45;&gt;mo_relationship:e</title>
<path fill="none" stroke="#000000" d="M590.0064,-287.866C564.8685,-306.3873 596.9126,-382.8624 553.5,-382.8624"/>
<polygon fill="#000000" stroke="#000000" points="596.3086,-286.063 604.9902,-287.3236 600.1543,-284.9627 604,-283.8624 604,-283.8624 604,-283.8624 600.1543,-284.9627 603.0098,-280.4013 596.3086,-286.063 596.3086,-286.063"/>
<ellipse fill="none" stroke="#000000" cx="593.232" cy="-286.9432" rx="3.2" ry="3.2"/>
</g>
</g>
</svg>
