<?xml version="1.0" encoding="UTF-8" standalone="no"?>
<!DOCTYPE svg PUBLIC "-//W3C//DTD SVG 1.1//EN"
 "http://www.w3.org/Graphics/SVG/1.1/DTD/svg11.dtd">
<!-- Generated by graphviz version 2.40.1 (20161225.0304)
 -->
<!-- Title: oneDegreeRelationshipsDiagram Pages: 1 -->
<svg width="591pt" height="259pt"
 viewBox="0.00 0.00 591.00 259.20" xmlns="http://www.w3.org/2000/svg" xmlns:xlink="http://www.w3.org/1999/xlink">
<g id="graph0" class="graph" transform="scale(1 1) rotate(0) translate(4 255.2)">
<title>oneDegreeRelationshipsDiagram</title>
<polygon fill="#ffffff" stroke="transparent" points="-4,4 -4,-255.2 587,-255.2 587,4 -4,4"/>
<text text-anchor="middle" x="72.4936" y="-7.3" font-family="Helvetica,sans-Serif" font-size="11.00" fill="#000000">Generated by SchemaSpy</text>
<!-- mo_relationship -->
<g id="node1" class="node">
<title>mo_relationship</title>
<g id="a_node1"><a xlink:href="../../tables/mo_relationship.html" xlink:title="mo_relationship" target="_top">
<polygon fill="#ffffff" stroke="transparent" points="193,-69.2 193,-247.2 410,-247.2 410,-69.2 193,-69.2"/>
<polygon fill="#f5f5f5" stroke="transparent" points="195.5,-222.2 195.5,-245.2 408.5,-245.2 408.5,-222.2 195.5,-222.2"/>
<polygon fill="none" stroke="#000000" points="195.5,-222.2 195.5,-245.2 408.5,-245.2 408.5,-222.2 195.5,-222.2"/>
<text text-anchor="start" x="200.5" y="-230.8" font-family="Helvetica,sans-Serif" font-weight="bold" font-size="11.00" fill="#000000">mo_relationship</text>
<text text-anchor="start" x="373.5437" y="-230.3" font-family="Helvetica,sans-Serif" font-size="11.00" fill="#000000">[table]</text>
<polygon fill="none" stroke="#000000" points="195.5,-200.2 195.5,-222.2 324.5,-222.2 324.5,-200.2 195.5,-200.2"/>
<image xlink:href="../../images/primaryKeys.png" width="11px" height="12px" preserveAspectRatio="xMinYMin meet" x="200.5" y="-217.2"/>
<text text-anchor="start" x="215.5" y="-207.3" font-family="Helvetica,sans-Serif" font-size="11.00" fill="#000000">mor_id</text>
<polygon fill="none" stroke="#000000" points="324.5,-200.2 324.5,-222.2 408.5,-222.2 408.5,-200.2 324.5,-200.2"/>
<text text-anchor="start" x="327.5" y="-207.9" font-family="Helvetica,sans-Serif" font-size="11.00" fill="#000000">int4[10]</text>
<polygon fill="none" stroke="#000000" points="195.5,-178.2 195.5,-200.2 324.5,-200.2 324.5,-178.2 195.5,-178.2"/>
<text text-anchor="start" x="215.5" y="-185.3" font-family="Helvetica,sans-Serif" font-size="11.00" fill="#000000">description</text>
<polygon fill="none" stroke="#000000" points="324.5,-178.2 324.5,-200.2 408.5,-200.2 408.5,-178.2 324.5,-178.2"/>
<text text-anchor="start" x="327.5" y="-185.9" font-family="Helvetica,sans-Serif" font-size="11.00" fill="#000000">varchar[50]</text>
<polygon fill="none" stroke="#000000" points="195.5,-156.2 195.5,-178.2 324.5,-178.2 324.5,-156.2 195.5,-156.2"/>
<text text-anchor="start" x="215.5" y="-163.3" font-family="Helvetica,sans-Serif" font-size="11.00" fill="#000000">start_time</text>
<polygon fill="none" stroke="#000000" points="324.5,-156.2 324.5,-178.2 408.5,-178.2 408.5,-156.2 324.5,-156.2"/>
<text text-anchor="start" x="327.3807" y="-163.9" font-family="Helvetica,sans-Serif" font-size="11.00" fill="#000000">timestamp[29,6]</text>
<polygon fill="none" stroke="#000000" points="195.5,-134.2 195.5,-156.2 324.5,-156.2 324.5,-134.2 195.5,-134.2"/>
<text text-anchor="start" x="215.5" y="-141.3" font-family="Helvetica,sans-Serif" font-size="11.00" fill="#000000">end_time</text>
<polygon fill="none" stroke="#000000" points="324.5,-134.2 324.5,-156.2 408.5,-156.2 408.5,-134.2 324.5,-134.2"/>
<text text-anchor="start" x="327.3807" y="-141.9" font-family="Helvetica,sans-Serif" font-size="11.00" fill="#000000">timestamp[29,6]</text>
<polygon fill="#ffffff" stroke="transparent" points="195.5,-112.2 195.5,-134.2 324.5,-134.2 324.5,-112.2 195.5,-112.2"/>
<polygon fill="none" stroke="#000000" points="195.5,-112.2 195.5,-134.2 324.5,-134.2 324.5,-112.2 195.5,-112.2"/>
<image xlink:href="../../images/foreignKeys.png" width="11px" height="12px" preserveAspectRatio="xMinYMin meet" x="200.5" y="-129.2"/>
<text text-anchor="start" x="215.5" y="-119.3" font-family="Helvetica,sans-Serif" font-size="11.00" fill="#000000">mo_target</text>
<polygon fill="none" stroke="#000000" points="324.5,-112.2 324.5,-134.2 408.5,-134.2 408.5,-112.2 324.5,-112.2"/>
<text text-anchor="start" x="327.5" y="-119.9" font-family="Helvetica,sans-Serif" font-size="11.00" fill="#000000">int4[10]</text>
<polygon fill="#ffffff" stroke="transparent" points="195.5,-90.2 195.5,-112.2 324.5,-112.2 324.5,-90.2 195.5,-90.2"/>
<polygon fill="none" stroke="#000000" points="195.5,-90.2 195.5,-112.2 324.5,-112.2 324.5,-90.2 195.5,-90.2"/>
<image xlink:href="../../images/foreignKeys.png" width="11px" height="12px" preserveAspectRatio="xMinYMin meet" x="200.5" y="-107.2"/>
<text text-anchor="start" x="215.5" y="-97.3" font-family="Helvetica,sans-Serif" font-size="11.00" fill="#000000">mo_source</text>
<polygon fill="none" stroke="#000000" points="324.5,-90.2 324.5,-112.2 408.5,-112.2 408.5,-90.2 324.5,-90.2"/>
<text text-anchor="start" x="327.5" y="-97.9" font-family="Helvetica,sans-Serif" font-size="11.00" fill="#000000">int4[10]</text>
<polygon fill="#ffffff" stroke="transparent" points="195.5,-71.2 195.5,-90.2 251.5,-90.2 251.5,-71.2 195.5,-71.2"/>
<polygon fill="none" stroke="#000000" points="195.5,-71.2 195.5,-90.2 251.5,-90.2 251.5,-71.2 195.5,-71.2"/>
<text text-anchor="start" x="198.5" y="-77.3" font-family="Helvetica,sans-Serif" font-size="11.00" fill="#000000">&lt; 2</text>
<polygon fill="#ffffff" stroke="transparent" points="251.5,-71.2 251.5,-90.2 324.5,-90.2 324.5,-71.2 251.5,-71.2"/>
<polygon fill="none" stroke="#000000" points="251.5,-71.2 251.5,-90.2 324.5,-90.2 324.5,-71.2 251.5,-71.2"/>
<text text-anchor="start" x="289.1105" y="-77.3" font-family="Helvetica,sans-Serif" font-size="11.00" fill="#000000">0 rows</text>
<polygon fill="#ffffff" stroke="transparent" points="324.5,-71.2 324.5,-90.2 408.5,-90.2 408.5,-71.2 324.5,-71.2"/>
<polygon fill="none" stroke="#000000" points="324.5,-71.2 324.5,-90.2 408.5,-90.2 408.5,-71.2 324.5,-71.2"/>
<text text-anchor="start" x="389.9053" y="-77.3" font-family="Helvetica,sans-Serif" font-size="11.00" fill="#000000">1 &gt;</text>
<polygon fill="none" stroke="#000000" stroke-width="2" points="194,-70.2 194,-246.2 409,-246.2 409,-70.2 194,-70.2"/>
</a>
</g>
</g>
<!-- moving_object -->
<g id="node2" class="node">
<title>moving_object</title>
<g id="a_node2"><a xlink:href="../../tables/moving_object.html" xlink:title="moving_object" target="_top">
<polygon fill="#ffffff" stroke="transparent" points="8,-38.2 8,-146.2 144,-146.2 144,-38.2 8,-38.2"/>
<polygon fill="#f5f5f5" stroke="transparent" points="8,-123.2 8,-146.2 144,-146.2 144,-123.2 8,-123.2"/>
<polygon fill="none" stroke="#000000" points="8,-123.2 8,-146.2 144,-146.2 144,-123.2 8,-123.2"/>
<text text-anchor="start" x="13" y="-131.8" font-family="Helvetica,sans-Serif" font-weight="bold" font-size="11.00" fill="#000000">moving_object</text>
<text text-anchor="start" x="109.5219" y="-131.3" font-family="Helvetica,sans-Serif" font-size="11.00" fill="#000000">[table]</text>
<polygon fill="none" stroke="#000000" points="8,-101.2 8,-123.2 144,-123.2 144,-101.2 8,-101.2"/>
<image xlink:href="../../images/primaryKeys.png" width="11px" height="12px" preserveAspectRatio="xMinYMin meet" x="13" y="-118.2"/>
<text text-anchor="start" x="37" y="-108.3" font-family="Helvetica,sans-Serif" font-size="11.00" fill="#000000">mo_id</text>
<polygon fill="#ffffff" stroke="transparent" points="8,-79.2 8,-101.2 144,-101.2 144,-79.2 8,-79.2"/>
<polygon fill="none" stroke="#000000" points="8,-79.2 8,-101.2 144,-101.2 144,-79.2 8,-79.2"/>
<text text-anchor="start" x="37" y="-86.3" font-family="Helvetica,sans-Serif" font-size="11.00" fill="#000000">description</text>
<polygon fill="#ffffff" stroke="transparent" points="8,-57.2 8,-79.2 144,-79.2 144,-57.2 8,-57.2"/>
<polygon fill="none" stroke="#000000" points="8,-57.2 8,-79.2 144,-79.2 144,-57.2 8,-57.2"/>
<image xlink:href="../../images/foreignKeys.png" width="11px" height="12px" preserveAspectRatio="xMinYMin meet" x="13" y="-74.2"/>
<text text-anchor="start" x="37" y="-64.3" font-family="Helvetica,sans-Serif" font-size="11.00" fill="#000000">mo_type_id</text>
<polygon fill="#ffffff" stroke="transparent" points="8,-38.2 8,-57.2 46,-57.2 46,-38.2 8,-38.2"/>
<polygon fill="none" stroke="#000000" points="8,-38.2 8,-57.2 46,-57.2 46,-38.2 8,-38.2"/>
<text text-anchor="start" x="11" y="-44.3" font-family="Helvetica,sans-Serif" font-size="11.00" fill="#000000">&lt; 1</text>
<polygon fill="#ffffff" stroke="transparent" points="46,-38.2 46,-57.2 114,-57.2 114,-38.2 46,-38.2"/>
<polygon fill="none" stroke="#000000" points="46,-38.2 46,-57.2 114,-57.2 114,-38.2 46,-38.2"/>
<text text-anchor="start" x="57.2089" y="-44.3" font-family="Helvetica,sans-Serif" font-size="11.00" fill="#000000">3.376 rows</text>
<polygon fill="#ffffff" stroke="transparent" points="114,-38.2 114,-57.2 144,-57.2 144,-38.2 114,-38.2"/>
<polygon fill="none" stroke="#000000" points="114,-38.2 114,-57.2 144,-57.2 144,-38.2 114,-38.2"/>
<text text-anchor="start" x="125.4053" y="-44.3" font-family="Helvetica,sans-Serif" font-size="11.00" fill="#000000">4 &gt;</text>
</a>
</g>
</g>
<!-- mo_relationship&#45;&gt;moving_object -->
<g id="edge1" class="edge">
<title>mo_relationship:w&#45;&gt;moving_object:e</title>
<path fill="none" stroke="#000000" d="M180.8704,-102.9187C168.5803,-106.0125 161.5539,-112.2 144,-112.2"/>
<polygon fill="#000000" stroke="#000000" points="187.5546,-102.1335 195.9201,-104.7754 191.5273,-101.6668 195.5,-101.2 195.5,-101.2 195.5,-101.2 191.5273,-101.6668 195.0799,-97.6246 187.5546,-102.1335 187.5546,-102.1335"/>
<ellipse fill="none" stroke="#000000" cx="184.3765" cy="-102.5069" rx="3.2" ry="3.2"/>
</g>
<!-- mo_relationship&#45;&gt;moving_object -->
<g id="edge2" class="edge">
<title>mo_relationship:w&#45;&gt;moving_object:e</title>
<path fill="none" stroke="#000000" d="M180.8704,-121.4813C168.5803,-118.3875 161.5539,-112.2 144,-112.2"/>
<polygon fill="#000000" stroke="#000000" points="187.5546,-122.2665 195.0799,-126.7754 191.5273,-122.7332 195.5,-123.2 195.5,-123.2 195.5,-123.2 191.5273,-122.7332 195.9201,-119.6246 187.5546,-122.2665 187.5546,-122.2665"/>
<ellipse fill="none" stroke="#000000" cx="184.3765" cy="-121.8931" rx="3.2" ry="3.2"/>
</g>
<!-- mor_aspect -->
<g id="node3" class="node">
<title>mor_aspect</title>
<g id="a_node3"><a xlink:href="../../tables/mor_aspect.html" xlink:title="mor_aspect" target="_top">
<polygon fill="#ffffff" stroke="transparent" points="459,-159.2 459,-245.2 575,-245.2 575,-159.2 459,-159.2"/>
<polygon fill="#f5f5f5" stroke="transparent" points="459,-222.2 459,-245.2 575,-245.2 575,-222.2 459,-222.2"/>
<polygon fill="none" stroke="#000000" points="459,-222.2 459,-245.2 575,-245.2 575,-222.2 459,-222.2"/>
<text text-anchor="start" x="464" y="-230.8" font-family="Helvetica,sans-Serif" font-weight="bold" font-size="11.00" fill="#000000">mor_aspect</text>
<text text-anchor="start" x="540.5219" y="-230.3" font-family="Helvetica,sans-Serif" font-size="11.00" fill="#000000">[table]</text>
<polygon fill="none" stroke="#000000" points="459,-200.2 459,-222.2 575,-222.2 575,-200.2 459,-200.2"/>
<image xlink:href="../../images/primaryKeys.png" width="11px" height="12px" preserveAspectRatio="xMinYMin meet" x="464" y="-217.2"/>
<text text-anchor="start" x="488" y="-207.3" font-family="Helvetica,sans-Serif" font-size="11.00" fill="#000000">mor_id</text>
<polygon fill="none" stroke="#000000" points="459,-178.2 459,-200.2 575,-200.2 575,-178.2 459,-178.2"/>
<image xlink:href="../../images/primaryKeys.png" width="11px" height="12px" preserveAspectRatio="xMinYMin meet" x="464" y="-195.2"/>
<text text-anchor="start" x="488" y="-185.3" font-family="Helvetica,sans-Serif" font-size="11.00" fill="#000000">aspect_id</text>
<polygon fill="#ffffff" stroke="transparent" points="459,-159.2 459,-178.2 502,-178.2 502,-159.2 459,-159.2"/>
<polygon fill="none" stroke="#000000" points="459,-159.2 459,-178.2 502,-178.2 502,-159.2 459,-159.2"/>
<text text-anchor="start" x="462" y="-165.3" font-family="Helvetica,sans-Serif" font-size="11.00" fill="#000000">&lt; 2</text>
<polygon fill="#ffffff" stroke="transparent" points="502,-159.2 502,-178.2 551,-178.2 551,-159.2 502,-159.2"/>
<polygon fill="none" stroke="#000000" points="502,-159.2 502,-178.2 551,-178.2 551,-159.2 502,-159.2"/>
<text text-anchor="start" x="515.6105" y="-165.3" font-family="Helvetica,sans-Serif" font-size="11.00" fill="#000000">0 rows</text>
<polygon fill="#ffffff" stroke="transparent" points="551,-159.2 551,-178.2 575,-178.2 575,-159.2 551,-159.2"/>
<polygon fill="none" stroke="#000000" points="551,-159.2 551,-178.2 575,-178.2 575,-159.2 551,-159.2"/>
<text text-anchor="start" x="565.8862" y="-165.3" font-family="Helvetica,sans-Serif" font-size="11.00" fill="#000000"> &#160;</text>
</a>
</g>
</g>
<!-- mor_aspect&#45;&gt;mo_relationship -->
<g id="edge3" class="edge">
<title>mor_aspect:w&#45;&gt;mo_relationship:e</title>
<path fill="none" stroke="#000000" d="M444.4203,-211.2C432.5435,-211.2 425.158,-211.2 408.5,-211.2"/>
<polygon fill="#000000" stroke="#000000" points="451,-211.2001 459,-214.8 455,-211.2 459,-211.2 459,-211.2 459,-211.2 455,-211.2 459,-207.6 451,-211.2001 451,-211.2001"/>
<ellipse fill="none" stroke="#000000" cx="447.8" cy="-211.2001" rx="3.2" ry="3.2"/>
</g>
</g>
</svg>
