<?xml version="1.0" encoding="UTF-8" standalone="no"?>
<!DOCTYPE svg PUBLIC "-//W3C//DTD SVG 1.1//EN"
 "http://www.w3.org/Graphics/SVG/1.1/DTD/svg11.dtd">
<!-- Generated by graphviz version 2.40.1 (20161225.0304)
 -->
<!-- Title: twoDegreesRelationshipsDiagram Pages: 1 -->
<svg width="567pt" height="305pt"
 viewBox="0.00 0.00 567.00 304.70" xmlns="http://www.w3.org/2000/svg" xmlns:xlink="http://www.w3.org/1999/xlink">
<g id="graph0" class="graph" transform="scale(1 1) rotate(0) translate(4 300.7)">
<title>twoDegreesRelationshipsDiagram</title>
<polygon fill="#ffffff" stroke="transparent" points="-4,4 -4,-300.7 563,-300.7 563,4 -4,4"/>
<text text-anchor="middle" x="72.4936" y="-7.3" font-family="Helvetica,sans-Serif" font-size="11.00" fill="#000000">Generated by SchemaSpy</text>
<!-- mat -->
<g id="node1" class="node">
<title>mat</title>
<g id="a_node1"><a xlink:href="../../tables/mat.html" xlink:title="mat" target="_top">
<polygon fill="#ffffff" stroke="transparent" points="442,-231.7 442,-292.7 513,-292.7 513,-231.7 442,-231.7"/>
<polygon fill="#f5f5f5" stroke="transparent" points="442.5,-269.2 442.5,-292.2 513.5,-292.2 513.5,-269.2 442.5,-269.2"/>
<polygon fill="none" stroke="#000000" points="442.5,-269.2 442.5,-292.2 513.5,-292.2 513.5,-269.2 442.5,-269.2"/>
<text text-anchor="start" x="447.5" y="-277.8" font-family="Helvetica,sans-Serif" font-weight="bold" font-size="11.00" fill="#000000">mat</text>
<text text-anchor="start" x="478.5437" y="-277.3" font-family="Helvetica,sans-Serif" font-size="11.00" fill="#000000">[table]</text>
<polygon fill="none" stroke="#000000" points="442.5,-250.2 442.5,-269.2 513.5,-269.2 513.5,-250.2 442.5,-250.2"/>
<text text-anchor="start" x="445.5" y="-256.3" font-family="Helvetica,sans-Serif" font-size="11.00" fill="#000000">...</text>
<polygon fill="#ffffff" stroke="transparent" points="442.5,-231.2 442.5,-250.2 463.5,-250.2 463.5,-231.2 442.5,-231.2"/>
<polygon fill="none" stroke="#000000" points="442.5,-231.2 442.5,-250.2 463.5,-250.2 463.5,-231.2 442.5,-231.2"/>
<text text-anchor="start" x="445.2027" y="-237.3" font-family="Helvetica,sans-Serif" font-size="11.00" fill="#000000">&lt; 1</text>
<polygon fill="#ffffff" stroke="transparent" points="463.5,-231.2 463.5,-250.2 501.5,-250.2 501.5,-231.2 463.5,-231.2"/>
<polygon fill="none" stroke="#000000" points="463.5,-231.2 463.5,-250.2 501.5,-250.2 501.5,-231.2 463.5,-231.2"/>
<text text-anchor="start" x="466.3053" y="-237.3" font-family="Helvetica,sans-Serif" font-size="11.00" fill="#000000">0 rows</text>
<polygon fill="#ffffff" stroke="transparent" points="501.5,-231.2 501.5,-250.2 513.5,-250.2 513.5,-231.2 501.5,-231.2"/>
<polygon fill="none" stroke="#000000" points="501.5,-231.2 501.5,-250.2 513.5,-250.2 513.5,-231.2 501.5,-231.2"/>
<text text-anchor="start" x="504.4431" y="-237.3" font-family="Helvetica,sans-Serif" font-size="11.00" fill="#000000"> &#160;</text>
</a>
</g>
</g>
<!-- moving_object -->
<g id="node2" class="node">
<title>moving_object</title>
<g id="a_node2"><a xlink:href="../../tables/moving_object.html" xlink:title="moving_object" target="_top">
<polygon fill="#ffffff" stroke="transparent" points="219,-62.2 219,-170.2 355,-170.2 355,-62.2 219,-62.2"/>
<polygon fill="#f5f5f5" stroke="transparent" points="219,-147.2 219,-170.2 355,-170.2 355,-147.2 219,-147.2"/>
<polygon fill="none" stroke="#000000" points="219,-147.2 219,-170.2 355,-170.2 355,-147.2 219,-147.2"/>
<text text-anchor="start" x="224" y="-155.8" font-family="Helvetica,sans-Serif" font-weight="bold" font-size="11.00" fill="#000000">moving_object</text>
<text text-anchor="start" x="320.5219" y="-155.3" font-family="Helvetica,sans-Serif" font-size="11.00" fill="#000000">[table]</text>
<polygon fill="none" stroke="#000000" points="219,-125.2 219,-147.2 355,-147.2 355,-125.2 219,-125.2"/>
<image xlink:href="../../images/primaryKeys.png" width="11px" height="12px" preserveAspectRatio="xMinYMin meet" x="224" y="-142.2"/>
<text text-anchor="start" x="248" y="-132.3" font-family="Helvetica,sans-Serif" font-size="11.00" fill="#000000">mo_id</text>
<polygon fill="#ffffff" stroke="transparent" points="219,-103.2 219,-125.2 355,-125.2 355,-103.2 219,-103.2"/>
<polygon fill="none" stroke="#000000" points="219,-103.2 219,-125.2 355,-125.2 355,-103.2 219,-103.2"/>
<text text-anchor="start" x="248" y="-110.3" font-family="Helvetica,sans-Serif" font-size="11.00" fill="#000000">description</text>
<polygon fill="#ffffff" stroke="transparent" points="219,-81.2 219,-103.2 355,-103.2 355,-81.2 219,-81.2"/>
<polygon fill="none" stroke="#000000" points="219,-81.2 219,-103.2 355,-103.2 355,-81.2 219,-81.2"/>
<image xlink:href="../../images/foreignKeys.png" width="11px" height="12px" preserveAspectRatio="xMinYMin meet" x="224" y="-98.2"/>
<text text-anchor="start" x="248" y="-88.3" font-family="Helvetica,sans-Serif" font-size="11.00" fill="#000000">mo_type_id</text>
<polygon fill="#ffffff" stroke="transparent" points="219,-62.2 219,-81.2 257,-81.2 257,-62.2 219,-62.2"/>
<polygon fill="none" stroke="#000000" points="219,-62.2 219,-81.2 257,-81.2 257,-62.2 219,-62.2"/>
<text text-anchor="start" x="222" y="-68.3" font-family="Helvetica,sans-Serif" font-size="11.00" fill="#000000">&lt; 1</text>
<polygon fill="#ffffff" stroke="transparent" points="257,-62.2 257,-81.2 325,-81.2 325,-62.2 257,-62.2"/>
<polygon fill="none" stroke="#000000" points="257,-62.2 257,-81.2 325,-81.2 325,-62.2 257,-62.2"/>
<text text-anchor="start" x="268.2089" y="-68.3" font-family="Helvetica,sans-Serif" font-size="11.00" fill="#000000">3.376 rows</text>
<polygon fill="#ffffff" stroke="transparent" points="325,-62.2 325,-81.2 355,-81.2 355,-62.2 325,-62.2"/>
<polygon fill="none" stroke="#000000" points="325,-62.2 325,-81.2 355,-81.2 355,-62.2 325,-62.2"/>
<text text-anchor="start" x="336.4053" y="-68.3" font-family="Helvetica,sans-Serif" font-size="11.00" fill="#000000">4 &gt;</text>
</a>
</g>
</g>
<!-- mat&#45;&gt;moving_object -->
<g id="edge1" class="edge">
<title>mat:w&#45;&gt;moving_object:e</title>
<path fill="none" stroke="#000000" d="M427.9608,-256.8912C413.7385,-251.5577 408.9082,-237.5756 396,-221.2 370.0349,-188.2603 396.9429,-136.2 355,-136.2"/>
<polygon fill="#000000" stroke="#000000" points="434.599,-257.9453 441.9354,-262.7555 438.5495,-258.5727 442.5,-259.2 442.5,-259.2 442.5,-259.2 438.5495,-258.5727 443.0646,-255.6445 434.599,-257.9453 434.599,-257.9453"/>
<ellipse fill="none" stroke="#000000" cx="431.4386" cy="-257.4434" rx="3.2" ry="3.2"/>
</g>
<!-- mo_type -->
<g id="node5" class="node">
<title>mo_type</title>
<g id="a_node5"><a xlink:href="../../tables/mo_type.html" xlink:title="mo_type" target="_top">
<polygon fill="#ffffff" stroke="transparent" points="8,-38.2 8,-128.2 170,-128.2 170,-38.2 8,-38.2"/>
<polygon fill="#f5f5f5" stroke="transparent" points="10,-103.2 10,-126.2 168,-126.2 168,-103.2 10,-103.2"/>
<polygon fill="none" stroke="#000000" points="10,-103.2 10,-126.2 168,-126.2 168,-103.2 10,-103.2"/>
<text text-anchor="start" x="15" y="-111.8" font-family="Helvetica,sans-Serif" font-weight="bold" font-size="11.00" fill="#000000">mo_type</text>
<text text-anchor="start" x="133.0437" y="-111.3" font-family="Helvetica,sans-Serif" font-size="11.00" fill="#000000">[table]</text>
<polygon fill="none" stroke="#000000" points="10,-81.2 10,-103.2 107,-103.2 107,-81.2 10,-81.2"/>
<image xlink:href="../../images/primaryKeys.png" width="11px" height="12px" preserveAspectRatio="xMinYMin meet" x="15" y="-98.2"/>
<text text-anchor="start" x="30" y="-88.3" font-family="Helvetica,sans-Serif" font-size="11.00" fill="#000000">mo_type_id</text>
<polygon fill="none" stroke="#000000" points="107,-81.2 107,-103.2 168,-103.2 168,-81.2 107,-81.2"/>
<text text-anchor="start" x="110" y="-88.9" font-family="Helvetica,sans-Serif" font-size="11.00" fill="#000000">int4[10]</text>
<polygon fill="none" stroke="#000000" points="10,-59.2 10,-81.2 107,-81.2 107,-59.2 10,-59.2"/>
<text text-anchor="start" x="30" y="-66.3" font-family="Helvetica,sans-Serif" font-size="11.00" fill="#000000">description</text>
<polygon fill="none" stroke="#000000" points="107,-59.2 107,-81.2 168,-81.2 168,-59.2 107,-59.2"/>
<text text-anchor="start" x="109.994" y="-66.9" font-family="Helvetica,sans-Serif" font-size="11.00" fill="#000000">varchar[50]</text>
<polygon fill="#ffffff" stroke="transparent" points="10,-40.2 10,-59.2 53,-59.2 53,-40.2 10,-40.2"/>
<polygon fill="none" stroke="#000000" points="10,-40.2 10,-59.2 53,-59.2 53,-40.2 10,-40.2"/>
<text text-anchor="start" x="13" y="-46.3" font-family="Helvetica,sans-Serif" font-size="11.00" fill="#000000">&lt; 0</text>
<polygon fill="#ffffff" stroke="transparent" points="53,-40.2 53,-59.2 107,-59.2 107,-40.2 53,-40.2"/>
<polygon fill="none" stroke="#000000" points="53,-40.2 53,-59.2 107,-59.2 107,-40.2 53,-40.2"/>
<text text-anchor="start" x="77.1105" y="-46.3" font-family="Helvetica,sans-Serif" font-size="11.00" fill="#000000">1 row</text>
<polygon fill="#ffffff" stroke="transparent" points="107,-40.2 107,-59.2 168,-59.2 168,-40.2 107,-40.2"/>
<polygon fill="none" stroke="#000000" points="107,-40.2 107,-59.2 168,-59.2 168,-40.2 107,-40.2"/>
<text text-anchor="start" x="149.4053" y="-46.3" font-family="Helvetica,sans-Serif" font-size="11.00" fill="#000000">1 &gt;</text>
<polygon fill="none" stroke="#000000" stroke-width="2" points="9,-39.2 9,-127.2 169,-127.2 169,-39.2 9,-39.2"/>
</a>
</g>
</g>
<!-- moving_object&#45;&gt;mo_type -->
<g id="edge5" class="edge">
<title>moving_object:w&#45;&gt;mo_type:e</title>
<path fill="none" stroke="#000000" d="M204.276,-92.2C192.2815,-92.2 184.8229,-92.2 168,-92.2"/>
<polygon fill="#000000" stroke="#000000" points="211,-92.2001 219,-95.8 215,-92.2 219,-92.2 219,-92.2 219,-92.2 215,-92.2 219,-88.6 211,-92.2001 211,-92.2001"/>
<ellipse fill="none" stroke="#000000" cx="207.8" cy="-92.2001" rx="3.2" ry="3.2"/>
</g>
<!-- mo_aspect -->
<g id="node3" class="node">
<title>mo_aspect</title>
<g id="a_node3"><a xlink:href="../../tables/mo_aspect.html" xlink:title="mo_aspect" target="_top">
<polygon fill="#ffffff" stroke="transparent" points="422.5,-149.7 422.5,-210.7 532.5,-210.7 532.5,-149.7 422.5,-149.7"/>
<polygon fill="#f5f5f5" stroke="transparent" points="422.5,-187.2 422.5,-210.2 532.5,-210.2 532.5,-187.2 422.5,-187.2"/>
<polygon fill="none" stroke="#000000" points="422.5,-187.2 422.5,-210.2 532.5,-210.2 532.5,-187.2 422.5,-187.2"/>
<text text-anchor="start" x="427.5" y="-195.8" font-family="Helvetica,sans-Serif" font-weight="bold" font-size="11.00" fill="#000000">mo_aspect</text>
<text text-anchor="start" x="498.0219" y="-195.3" font-family="Helvetica,sans-Serif" font-size="11.00" fill="#000000">[table]</text>
<polygon fill="none" stroke="#000000" points="422.5,-168.2 422.5,-187.2 532.5,-187.2 532.5,-168.2 422.5,-168.2"/>
<text text-anchor="start" x="425.5" y="-174.3" font-family="Helvetica,sans-Serif" font-size="11.00" fill="#000000">...</text>
<polygon fill="#ffffff" stroke="transparent" points="422.5,-149.2 422.5,-168.2 462.5,-168.2 462.5,-149.2 422.5,-149.2"/>
<polygon fill="none" stroke="#000000" points="422.5,-149.2 422.5,-168.2 462.5,-168.2 462.5,-149.2 422.5,-149.2"/>
<text text-anchor="start" x="425.5" y="-155.3" font-family="Helvetica,sans-Serif" font-size="11.00" fill="#000000">&lt; 2</text>
<polygon fill="#ffffff" stroke="transparent" points="462.5,-149.2 462.5,-168.2 510.5,-168.2 510.5,-149.2 462.5,-149.2"/>
<polygon fill="none" stroke="#000000" points="462.5,-149.2 462.5,-168.2 510.5,-168.2 510.5,-149.2 462.5,-149.2"/>
<text text-anchor="start" x="475.1105" y="-155.3" font-family="Helvetica,sans-Serif" font-size="11.00" fill="#000000">0 rows</text>
<polygon fill="#ffffff" stroke="transparent" points="510.5,-149.2 510.5,-168.2 532.5,-168.2 532.5,-149.2 510.5,-149.2"/>
<polygon fill="none" stroke="#000000" points="510.5,-149.2 510.5,-168.2 532.5,-168.2 532.5,-149.2 510.5,-149.2"/>
<text text-anchor="start" x="523.3862" y="-155.3" font-family="Helvetica,sans-Serif" font-size="11.00" fill="#000000"> &#160;</text>
</a>
</g>
</g>
<!-- mo_aspect&#45;&gt;moving_object -->
<g id="edge2" class="edge">
<title>mo_aspect:w&#45;&gt;moving_object:e</title>
<path fill="none" stroke="#000000" d="M408.2335,-174.3819C387.295,-165.1188 384.479,-136.2 355,-136.2"/>
<polygon fill="#000000" stroke="#000000" points="414.6517,-175.6496 421.8023,-180.7318 418.5758,-176.4248 422.5,-177.2 422.5,-177.2 422.5,-177.2 418.5758,-176.4248 423.1977,-173.6682 414.6517,-175.6496 414.6517,-175.6496"/>
<ellipse fill="none" stroke="#000000" cx="411.5123" cy="-175.0295" rx="3.2" ry="3.2"/>
</g>
<!-- mo_relationship -->
<g id="node4" class="node">
<title>mo_relationship</title>
<g id="a_node4"><a xlink:href="../../tables/mo_relationship.html" xlink:title="mo_relationship" target="_top">
<polygon fill="#ffffff" stroke="transparent" points="404,-67.7 404,-128.7 551,-128.7 551,-67.7 404,-67.7"/>
<polygon fill="#f5f5f5" stroke="transparent" points="404.5,-105.2 404.5,-128.2 551.5,-128.2 551.5,-105.2 404.5,-105.2"/>
<polygon fill="none" stroke="#000000" points="404.5,-105.2 404.5,-128.2 551.5,-128.2 551.5,-105.2 404.5,-105.2"/>
<text text-anchor="start" x="409.5" y="-113.8" font-family="Helvetica,sans-Serif" font-weight="bold" font-size="11.00" fill="#000000">mo_relationship</text>
<text text-anchor="start" x="517.0219" y="-113.3" font-family="Helvetica,sans-Serif" font-size="11.00" fill="#000000">[table]</text>
<polygon fill="none" stroke="#000000" points="404.5,-86.2 404.5,-105.2 551.5,-105.2 551.5,-86.2 404.5,-86.2"/>
<text text-anchor="start" x="407.5" y="-92.3" font-family="Helvetica,sans-Serif" font-size="11.00" fill="#000000">...</text>
<polygon fill="#ffffff" stroke="transparent" points="404.5,-67.2 404.5,-86.2 458.5,-86.2 458.5,-67.2 404.5,-67.2"/>
<polygon fill="none" stroke="#000000" points="404.5,-67.2 404.5,-86.2 458.5,-86.2 458.5,-67.2 404.5,-67.2"/>
<text text-anchor="start" x="407.5" y="-73.3" font-family="Helvetica,sans-Serif" font-size="11.00" fill="#000000">&lt; 2</text>
<polygon fill="#ffffff" stroke="transparent" points="458.5,-67.2 458.5,-86.2 513.5,-86.2 513.5,-67.2 458.5,-67.2"/>
<polygon fill="none" stroke="#000000" points="458.5,-67.2 458.5,-86.2 513.5,-86.2 513.5,-67.2 458.5,-67.2"/>
<text text-anchor="start" x="478.1105" y="-73.3" font-family="Helvetica,sans-Serif" font-size="11.00" fill="#000000">0 rows</text>
<polygon fill="#ffffff" stroke="transparent" points="513.5,-67.2 513.5,-86.2 551.5,-86.2 551.5,-67.2 513.5,-67.2"/>
<polygon fill="none" stroke="#000000" points="513.5,-67.2 513.5,-86.2 551.5,-86.2 551.5,-67.2 513.5,-67.2"/>
<text text-anchor="start" x="532.9053" y="-73.3" font-family="Helvetica,sans-Serif" font-size="11.00" fill="#000000">1 &gt;</text>
</a>
</g>
</g>
<!-- mo_relationship&#45;&gt;moving_object -->
<g id="edge3" class="edge">
<title>mo_relationship:w&#45;&gt;moving_object:e</title>
<path fill="none" stroke="#000000" d="M390.192,-97.1512C377.5407,-105.4627 377.3176,-131.5125 355,-136.2"/>
<polygon fill="#000000" stroke="#000000" points="396.5734,-96.281 404.9865,-98.767 400.5367,-95.7405 404.5,-95.2 404.5,-95.2 404.5,-95.2 400.5367,-95.7405 404.0135,-91.633 396.5734,-96.281 396.5734,-96.281"/>
<ellipse fill="none" stroke="#000000" cx="393.4027" cy="-96.7134" rx="3.2" ry="3.2"/>
</g>
<!-- mo_relationship&#45;&gt;moving_object -->
<g id="edge4" class="edge">
<title>mo_relationship:w&#45;&gt;moving_object:e</title>
<path fill="none" stroke="#000000" d="M391.772,-102.1829C377.5232,-115.8875 378.2103,-141.8875 355,-136.2"/>
<polygon fill="#000000" stroke="#000000" points="397.4862,-99.048 406.2316,-98.3562 400.9931,-97.124 404.5,-95.2 404.5,-95.2 404.5,-95.2 400.9931,-97.124 402.7684,-92.0438 397.4862,-99.048 397.4862,-99.048"/>
<ellipse fill="none" stroke="#000000" cx="394.6807" cy="-100.5872" rx="3.2" ry="3.2"/>
</g>
</g>
</svg>
