<?xml version="1.0" encoding="UTF-8" standalone="no"?>
<!DOCTYPE svg PUBLIC "-//W3C//DTD SVG 1.1//EN"
 "http://www.w3.org/Graphics/SVG/1.1/DTD/svg11.dtd">
<!-- Generated by graphviz version 2.40.1 (20161225.0304)
 -->
<!-- Title: twoDegreesRelationshipsDiagram Pages: 1 -->
<svg width="555pt" height="473pt"
 viewBox="0.00 0.00 555.00 473.20" xmlns="http://www.w3.org/2000/svg" xmlns:xlink="http://www.w3.org/1999/xlink">
<g id="graph0" class="graph" transform="scale(1 1) rotate(0) translate(4 469.2)">
<title>twoDegreesRelationshipsDiagram</title>
<polygon fill="#ffffff" stroke="transparent" points="-4,4 -4,-469.2 551,-469.2 551,4 -4,4"/>
<text text-anchor="middle" x="72.4936" y="-7.3" font-family="Helvetica,sans-Serif" font-size="11.00" fill="#000000">Generated by SchemaSpy</text>
<!-- aspect -->
<g id="node1" class="node">
<title>aspect</title>
<g id="a_node1"><a xlink:href="../../tables/aspect.html" xlink:title="aspect" target="_top">
<polygon fill="#ffffff" stroke="transparent" points="206.5,-234.2 206.5,-361.2 326.5,-361.2 326.5,-234.2 206.5,-234.2"/>
<polygon fill="#f5f5f5" stroke="transparent" points="206.5,-337.7 206.5,-360.7 326.5,-360.7 326.5,-337.7 206.5,-337.7"/>
<polygon fill="none" stroke="#000000" points="206.5,-337.7 206.5,-360.7 326.5,-360.7 326.5,-337.7 206.5,-337.7"/>
<text text-anchor="start" x="211.5" y="-346.3" font-family="Helvetica,sans-Serif" font-weight="bold" font-size="11.00" fill="#000000">aspect</text>
<text text-anchor="start" x="291.5437" y="-345.8" font-family="Helvetica,sans-Serif" font-size="11.00" fill="#000000">[table]</text>
<polygon fill="none" stroke="#000000" points="206.5,-315.7 206.5,-337.7 326.5,-337.7 326.5,-315.7 206.5,-315.7"/>
<image xlink:href="../../images/primaryKeys.png" width="11px" height="12px" preserveAspectRatio="xMinYMin meet" x="211.5" y="-332.7"/>
<text text-anchor="start" x="226.5" y="-322.8" font-family="Helvetica,sans-Serif" font-size="11.00" fill="#000000">aspect_id</text>
<polygon fill="#ffffff" stroke="transparent" points="206.5,-293.7 206.5,-315.7 326.5,-315.7 326.5,-293.7 206.5,-293.7"/>
<polygon fill="none" stroke="#000000" points="206.5,-293.7 206.5,-315.7 326.5,-315.7 326.5,-293.7 206.5,-293.7"/>
<text text-anchor="start" x="226.5" y="-300.8" font-family="Helvetica,sans-Serif" font-size="11.00" fill="#000000">description</text>
<polygon fill="#ffffff" stroke="transparent" points="206.5,-271.7 206.5,-293.7 326.5,-293.7 326.5,-271.7 206.5,-271.7"/>
<polygon fill="none" stroke="#000000" points="206.5,-271.7 206.5,-293.7 326.5,-293.7 326.5,-271.7 206.5,-271.7"/>
<image xlink:href="../../images/foreignKeys.png" width="11px" height="12px" preserveAspectRatio="xMinYMin meet" x="211.5" y="-288.7"/>
<text text-anchor="start" x="226.5" y="-278.8" font-family="Helvetica,sans-Serif" font-size="11.00" fill="#000000">aspect_type_id</text>
<polygon fill="none" stroke="#000000" points="206.5,-252.7 206.5,-271.7 326.5,-271.7 326.5,-252.7 206.5,-252.7"/>
<text text-anchor="start" x="209.5" y="-258.8" font-family="Helvetica,sans-Serif" font-size="11.00" fill="#000000">...</text>
<polygon fill="#ffffff" stroke="transparent" points="206.5,-233.7 206.5,-252.7 230.5,-252.7 230.5,-233.7 206.5,-233.7"/>
<polygon fill="none" stroke="#000000" points="206.5,-233.7 206.5,-252.7 230.5,-252.7 230.5,-233.7 206.5,-233.7"/>
<text text-anchor="start" x="209.5" y="-239.8" font-family="Helvetica,sans-Serif" font-size="11.00" fill="#000000">&lt; 1</text>
<polygon fill="#ffffff" stroke="transparent" points="230.5,-233.7 230.5,-252.7 303.5,-252.7 303.5,-233.7 230.5,-233.7"/>
<polygon fill="none" stroke="#000000" points="230.5,-233.7 230.5,-252.7 303.5,-252.7 303.5,-233.7 230.5,-233.7"/>
<text text-anchor="start" x="234.4791" y="-239.8" font-family="Helvetica,sans-Serif" font-size="11.00" fill="#000000">100.191 rows</text>
<polygon fill="#ffffff" stroke="transparent" points="303.5,-233.7 303.5,-252.7 326.5,-252.7 326.5,-233.7 303.5,-233.7"/>
<polygon fill="none" stroke="#000000" points="303.5,-233.7 303.5,-252.7 326.5,-252.7 326.5,-233.7 303.5,-233.7"/>
<text text-anchor="start" x="307.9053" y="-239.8" font-family="Helvetica,sans-Serif" font-size="11.00" fill="#000000">5 &gt;</text>
</a>
</g>
</g>
<!-- aspect_type -->
<g id="node2" class="node">
<title>aspect_type</title>
<g id="a_node2"><a xlink:href="../../tables/aspect_type.html" xlink:title="aspect_type" target="_top">
<polygon fill="#ffffff" stroke="transparent" points="16,-255.2 16,-316.2 136,-316.2 136,-255.2 16,-255.2"/>
<polygon fill="#f5f5f5" stroke="transparent" points="16,-292.7 16,-315.7 136,-315.7 136,-292.7 16,-292.7"/>
<polygon fill="none" stroke="#000000" points="16,-292.7 16,-315.7 136,-315.7 136,-292.7 16,-292.7"/>
<text text-anchor="start" x="21" y="-301.3" font-family="Helvetica,sans-Serif" font-weight="bold" font-size="11.00" fill="#000000">aspect_type</text>
<text text-anchor="start" x="101.5219" y="-300.8" font-family="Helvetica,sans-Serif" font-size="11.00" fill="#000000">[table]</text>
<polygon fill="none" stroke="#000000" points="16,-273.7 16,-292.7 136,-292.7 136,-273.7 16,-273.7"/>
<text text-anchor="start" x="19" y="-279.8" font-family="Helvetica,sans-Serif" font-size="11.00" fill="#000000">...</text>
<polygon fill="#ffffff" stroke="transparent" points="16,-254.7 16,-273.7 60,-273.7 60,-254.7 16,-254.7"/>
<polygon fill="none" stroke="#000000" points="16,-254.7 16,-273.7 60,-273.7 60,-254.7 16,-254.7"/>
<text text-anchor="start" x="19" y="-260.8" font-family="Helvetica,sans-Serif" font-size="11.00" fill="#000000">&lt; 1</text>
<polygon fill="#ffffff" stroke="transparent" points="60,-254.7 60,-273.7 103,-273.7 103,-254.7 60,-254.7"/>
<polygon fill="none" stroke="#000000" points="60,-254.7 60,-273.7 103,-273.7 103,-254.7 60,-254.7"/>
<text text-anchor="start" x="73.1105" y="-260.8" font-family="Helvetica,sans-Serif" font-size="11.00" fill="#000000">1 row</text>
<polygon fill="#ffffff" stroke="transparent" points="103,-254.7 103,-273.7 136,-273.7 136,-254.7 103,-254.7"/>
<polygon fill="none" stroke="#000000" points="103,-254.7 103,-273.7 136,-273.7 136,-254.7 103,-254.7"/>
<text text-anchor="start" x="117.4053" y="-260.8" font-family="Helvetica,sans-Serif" font-size="11.00" fill="#000000">3 &gt;</text>
</a>
</g>
</g>
<!-- aspect&#45;&gt;aspect_type -->
<g id="edge1" class="edge">
<title>aspect:w&#45;&gt;aspect_type:e</title>
<path fill="none" stroke="#000000" d="M191.8997,-282.7C171.6866,-282.7 161.8255,-282.7 136,-282.7"/>
<polygon fill="#000000" stroke="#000000" points="198.5,-282.7001 206.5,-286.3 202.5,-282.7 206.5,-282.7 206.5,-282.7 206.5,-282.7 202.5,-282.7 206.5,-279.1 198.5,-282.7001 198.5,-282.7001"/>
<ellipse fill="none" stroke="#000000" cx="195.3" cy="-282.7001" rx="3.2" ry="3.2"/>
</g>
<!-- aspect_attribute -->
<g id="node3" class="node">
<title>aspect_attribute</title>
<g id="a_node3"><a xlink:href="../../tables/aspect_attribute.html" xlink:title="aspect_attribute" target="_top">
<polygon fill="#ffffff" stroke="transparent" points="389,-400.2 389,-461.2 539,-461.2 539,-400.2 389,-400.2"/>
<polygon fill="#f5f5f5" stroke="transparent" points="389,-437.7 389,-460.7 539,-460.7 539,-437.7 389,-437.7"/>
<polygon fill="none" stroke="#000000" points="389,-437.7 389,-460.7 539,-460.7 539,-437.7 389,-437.7"/>
<text text-anchor="start" x="394" y="-446.3" font-family="Helvetica,sans-Serif" font-weight="bold" font-size="11.00" fill="#000000">aspect_attribute</text>
<text text-anchor="start" x="504.5219" y="-445.8" font-family="Helvetica,sans-Serif" font-size="11.00" fill="#000000">[table]</text>
<polygon fill="none" stroke="#000000" points="389,-418.7 389,-437.7 539,-437.7 539,-418.7 389,-418.7"/>
<text text-anchor="start" x="392" y="-424.8" font-family="Helvetica,sans-Serif" font-size="11.00" fill="#000000">...</text>
<polygon fill="#ffffff" stroke="transparent" points="389,-399.7 389,-418.7 432,-418.7 432,-399.7 389,-399.7"/>
<polygon fill="none" stroke="#000000" points="389,-399.7 389,-418.7 432,-418.7 432,-399.7 389,-399.7"/>
<text text-anchor="start" x="392" y="-405.8" font-family="Helvetica,sans-Serif" font-size="11.00" fill="#000000">&lt; 3</text>
<polygon fill="#ffffff" stroke="transparent" points="432,-399.7 432,-418.7 515,-418.7 515,-399.7 432,-399.7"/>
<polygon fill="none" stroke="#000000" points="432,-399.7 432,-418.7 515,-418.7 515,-399.7 432,-399.7"/>
<text text-anchor="start" x="445.9791" y="-405.8" font-family="Helvetica,sans-Serif" font-size="11.00" fill="#000000">200.382 rows</text>
<polygon fill="#ffffff" stroke="transparent" points="515,-399.7 515,-418.7 539,-418.7 539,-399.7 515,-399.7"/>
<polygon fill="none" stroke="#000000" points="515,-399.7 515,-418.7 539,-418.7 539,-399.7 515,-399.7"/>
<text text-anchor="start" x="529.8862" y="-405.8" font-family="Helvetica,sans-Serif" font-size="11.00" fill="#000000"> &#160;</text>
</a>
</g>
</g>
<!-- aspect_attribute&#45;&gt;aspect -->
<g id="edge2" class="edge">
<title>aspect_attribute:w&#45;&gt;aspect:e</title>
<path fill="none" stroke="#000000" d="M374.8684,-424.3395C344.4878,-406.8145 373.5147,-326.7 326.5,-326.7"/>
<polygon fill="#000000" stroke="#000000" points="381.217,-425.8492 388.1671,-431.2023 385.1085,-426.7746 389,-427.7 389,-427.7 389,-427.7 385.1085,-426.7746 389.8329,-424.1977 381.217,-425.8492 381.217,-425.8492"/>
<ellipse fill="none" stroke="#000000" cx="378.1038" cy="-425.1089" rx="3.2" ry="3.2"/>
</g>
<!-- mat_aspect -->
<g id="node4" class="node">
<title>mat_aspect</title>
<g id="a_node4"><a xlink:href="../../tables/mat_aspect.html" xlink:title="mat_aspect" target="_top">
<polygon fill="#ffffff" stroke="transparent" points="406,-318.2 406,-379.2 522,-379.2 522,-318.2 406,-318.2"/>
<polygon fill="#f5f5f5" stroke="transparent" points="406,-355.7 406,-378.7 522,-378.7 522,-355.7 406,-355.7"/>
<polygon fill="none" stroke="#000000" points="406,-355.7 406,-378.7 522,-378.7 522,-355.7 406,-355.7"/>
<text text-anchor="start" x="411" y="-364.3" font-family="Helvetica,sans-Serif" font-weight="bold" font-size="11.00" fill="#000000">mat_aspect</text>
<text text-anchor="start" x="487.5219" y="-363.8" font-family="Helvetica,sans-Serif" font-size="11.00" fill="#000000">[table]</text>
<polygon fill="none" stroke="#000000" points="406,-336.7 406,-355.7 522,-355.7 522,-336.7 406,-336.7"/>
<text text-anchor="start" x="409" y="-342.8" font-family="Helvetica,sans-Serif" font-size="11.00" fill="#000000">...</text>
<polygon fill="#ffffff" stroke="transparent" points="406,-317.7 406,-336.7 449,-336.7 449,-317.7 406,-317.7"/>
<polygon fill="none" stroke="#000000" points="406,-317.7 406,-336.7 449,-336.7 449,-317.7 406,-317.7"/>
<text text-anchor="start" x="409" y="-323.8" font-family="Helvetica,sans-Serif" font-size="11.00" fill="#000000">&lt; 1</text>
<polygon fill="#ffffff" stroke="transparent" points="449,-317.7 449,-336.7 498,-336.7 498,-317.7 449,-317.7"/>
<polygon fill="none" stroke="#000000" points="449,-317.7 449,-336.7 498,-336.7 498,-317.7 449,-317.7"/>
<text text-anchor="start" x="462.6105" y="-323.8" font-family="Helvetica,sans-Serif" font-size="11.00" fill="#000000">0 rows</text>
<polygon fill="#ffffff" stroke="transparent" points="498,-317.7 498,-336.7 522,-336.7 522,-317.7 498,-317.7"/>
<polygon fill="none" stroke="#000000" points="498,-317.7 498,-336.7 522,-336.7 522,-317.7 498,-317.7"/>
<text text-anchor="start" x="512.8862" y="-323.8" font-family="Helvetica,sans-Serif" font-size="11.00" fill="#000000"> &#160;</text>
</a>
</g>
</g>
<!-- mat_aspect&#45;&gt;aspect -->
<g id="edge3" class="edge">
<title>mat_aspect:w&#45;&gt;aspect:e</title>
<path fill="none" stroke="#000000" d="M391.5786,-344.5684C366.9904,-340.478 357.4359,-326.7 326.5,-326.7"/>
<polygon fill="#000000" stroke="#000000" points="398.0245,-345.0741 405.7184,-349.289 402.0123,-345.3871 406,-345.7 406,-345.7 406,-345.7 402.0123,-345.3871 406.2816,-342.111 398.0245,-345.0741 398.0245,-345.0741"/>
<ellipse fill="none" stroke="#000000" cx="394.8343" cy="-344.8238" rx="3.2" ry="3.2"/>
</g>
<!-- mo_aspect -->
<g id="node5" class="node">
<title>mo_aspect</title>
<g id="a_node5"><a xlink:href="../../tables/mo_aspect.html" xlink:title="mo_aspect" target="_top">
<polygon fill="#ffffff" stroke="transparent" points="409,-38.2 409,-99.2 519,-99.2 519,-38.2 409,-38.2"/>
<polygon fill="#f5f5f5" stroke="transparent" points="409,-75.7 409,-98.7 519,-98.7 519,-75.7 409,-75.7"/>
<polygon fill="none" stroke="#000000" points="409,-75.7 409,-98.7 519,-98.7 519,-75.7 409,-75.7"/>
<text text-anchor="start" x="414" y="-84.3" font-family="Helvetica,sans-Serif" font-weight="bold" font-size="11.00" fill="#000000">mo_aspect</text>
<text text-anchor="start" x="484.5219" y="-83.8" font-family="Helvetica,sans-Serif" font-size="11.00" fill="#000000">[table]</text>
<polygon fill="none" stroke="#000000" points="409,-56.7 409,-75.7 519,-75.7 519,-56.7 409,-56.7"/>
<text text-anchor="start" x="412" y="-62.8" font-family="Helvetica,sans-Serif" font-size="11.00" fill="#000000">...</text>
<polygon fill="#ffffff" stroke="transparent" points="409,-37.7 409,-56.7 449,-56.7 449,-37.7 409,-37.7"/>
<polygon fill="none" stroke="#000000" points="409,-37.7 409,-56.7 449,-56.7 449,-37.7 409,-37.7"/>
<text text-anchor="start" x="412" y="-43.8" font-family="Helvetica,sans-Serif" font-size="11.00" fill="#000000">&lt; 2</text>
<polygon fill="#ffffff" stroke="transparent" points="449,-37.7 449,-56.7 497,-56.7 497,-37.7 449,-37.7"/>
<polygon fill="none" stroke="#000000" points="449,-37.7 449,-56.7 497,-56.7 497,-37.7 449,-37.7"/>
<text text-anchor="start" x="461.6105" y="-43.8" font-family="Helvetica,sans-Serif" font-size="11.00" fill="#000000">0 rows</text>
<polygon fill="#ffffff" stroke="transparent" points="497,-37.7 497,-56.7 519,-56.7 519,-37.7 497,-37.7"/>
<polygon fill="none" stroke="#000000" points="497,-37.7 497,-56.7 519,-56.7 519,-37.7 497,-37.7"/>
<text text-anchor="start" x="509.8862" y="-43.8" font-family="Helvetica,sans-Serif" font-size="11.00" fill="#000000"> &#160;</text>
</a>
</g>
</g>
<!-- mo_aspect&#45;&gt;aspect -->
<g id="edge4" class="edge">
<title>mo_aspect:w&#45;&gt;aspect:e</title>
<path fill="none" stroke="#000000" d="M394.5498,-67.1678C300.9315,-88.1354 442.8108,-326.7 326.5,-326.7"/>
<polygon fill="#000000" stroke="#000000" points="401.041,-66.5085 409.3638,-69.2816 405.0205,-66.1043 409,-65.7 409,-65.7 409,-65.7 405.0205,-66.1043 408.6362,-62.1184 401.041,-66.5085 401.041,-66.5085"/>
<ellipse fill="none" stroke="#000000" cx="397.8573" cy="-66.8319" rx="3.2" ry="3.2"/>
</g>
<!-- moving_object -->
<g id="node6" class="node">
<title>moving_object</title>
<g id="a_node6"><a xlink:href="../../tables/moving_object.html" xlink:title="moving_object" target="_top">
<polygon fill="#ffffff" stroke="transparent" points="8,-107.2 8,-168.2 144,-168.2 144,-107.2 8,-107.2"/>
<polygon fill="#f5f5f5" stroke="transparent" points="8,-144.7 8,-167.7 144,-167.7 144,-144.7 8,-144.7"/>
<polygon fill="none" stroke="#000000" points="8,-144.7 8,-167.7 144,-167.7 144,-144.7 8,-144.7"/>
<text text-anchor="start" x="13" y="-153.3" font-family="Helvetica,sans-Serif" font-weight="bold" font-size="11.00" fill="#000000">moving_object</text>
<text text-anchor="start" x="109.5219" y="-152.8" font-family="Helvetica,sans-Serif" font-size="11.00" fill="#000000">[table]</text>
<polygon fill="none" stroke="#000000" points="8,-125.7 8,-144.7 144,-144.7 144,-125.7 8,-125.7"/>
<text text-anchor="start" x="11" y="-131.8" font-family="Helvetica,sans-Serif" font-size="11.00" fill="#000000">...</text>
<polygon fill="#ffffff" stroke="transparent" points="8,-106.7 8,-125.7 46,-125.7 46,-106.7 8,-106.7"/>
<polygon fill="none" stroke="#000000" points="8,-106.7 8,-125.7 46,-125.7 46,-106.7 8,-106.7"/>
<text text-anchor="start" x="11" y="-112.8" font-family="Helvetica,sans-Serif" font-size="11.00" fill="#000000">&lt; 1</text>
<polygon fill="#ffffff" stroke="transparent" points="46,-106.7 46,-125.7 114,-125.7 114,-106.7 46,-106.7"/>
<polygon fill="none" stroke="#000000" points="46,-106.7 46,-125.7 114,-125.7 114,-106.7 46,-106.7"/>
<text text-anchor="start" x="57.2089" y="-112.8" font-family="Helvetica,sans-Serif" font-size="11.00" fill="#000000">3.376 rows</text>
<polygon fill="#ffffff" stroke="transparent" points="114,-106.7 114,-125.7 144,-125.7 144,-106.7 114,-106.7"/>
<polygon fill="none" stroke="#000000" points="114,-106.7 114,-125.7 144,-125.7 144,-106.7 114,-106.7"/>
<text text-anchor="start" x="125.4053" y="-112.8" font-family="Helvetica,sans-Serif" font-size="11.00" fill="#000000">4 &gt;</text>
</a>
</g>
</g>
<!-- mo_aspect&#45;&gt;moving_object -->
<g id="edge5" class="edge">
<title>mo_aspect:w&#45;&gt;moving_object:e</title>
<path fill="none" stroke="#000000" d="M394.5619,-65.4316C305.5269,-62.1158 267.9149,-29.9661 185,-75.7 157.0393,-91.1225 175.932,-134.7 144,-134.7"/>
<polygon fill="#000000" stroke="#000000" points="401.0014,-65.5513 408.9331,-69.2994 405.0007,-65.6256 409,-65.7 409,-65.7 409,-65.7 405.0007,-65.6256 409.0669,-62.1006 401.0014,-65.5513 401.0014,-65.5513"/>
<ellipse fill="none" stroke="#000000" cx="397.8019" cy="-65.4918" rx="3.2" ry="3.2"/>
</g>
<!-- mo_relationship -->
<g id="node7" class="node">
<title>mo_relationship</title>
<g id="a_node7"><a xlink:href="../../tables/mo_relationship.html" xlink:title="mo_relationship" target="_top">
<polygon fill="#ffffff" stroke="transparent" points="193,-86.2 193,-213.2 340,-213.2 340,-86.2 193,-86.2"/>
<polygon fill="#f5f5f5" stroke="transparent" points="193.5,-189.7 193.5,-212.7 340.5,-212.7 340.5,-189.7 193.5,-189.7"/>
<polygon fill="none" stroke="#000000" points="193.5,-189.7 193.5,-212.7 340.5,-212.7 340.5,-189.7 193.5,-189.7"/>
<text text-anchor="start" x="198.5" y="-198.3" font-family="Helvetica,sans-Serif" font-weight="bold" font-size="11.00" fill="#000000">mo_relationship</text>
<text text-anchor="start" x="306.0219" y="-197.8" font-family="Helvetica,sans-Serif" font-size="11.00" fill="#000000">[table]</text>
<polygon fill="none" stroke="#000000" points="193.5,-167.7 193.5,-189.7 340.5,-189.7 340.5,-167.7 193.5,-167.7"/>
<image xlink:href="../../images/primaryKeys.png" width="11px" height="12px" preserveAspectRatio="xMinYMin meet" x="198.5" y="-184.7"/>
<text text-anchor="start" x="222.5" y="-174.8" font-family="Helvetica,sans-Serif" font-size="11.00" fill="#000000">mor_id</text>
<polygon fill="#ffffff" stroke="transparent" points="193.5,-145.7 193.5,-167.7 340.5,-167.7 340.5,-145.7 193.5,-145.7"/>
<polygon fill="none" stroke="#000000" points="193.5,-145.7 193.5,-167.7 340.5,-167.7 340.5,-145.7 193.5,-145.7"/>
<image xlink:href="../../images/foreignKeys.png" width="11px" height="12px" preserveAspectRatio="xMinYMin meet" x="198.5" y="-162.7"/>
<text text-anchor="start" x="222.5" y="-152.8" font-family="Helvetica,sans-Serif" font-size="11.00" fill="#000000">mo_target</text>
<polygon fill="#ffffff" stroke="transparent" points="193.5,-123.7 193.5,-145.7 340.5,-145.7 340.5,-123.7 193.5,-123.7"/>
<polygon fill="none" stroke="#000000" points="193.5,-123.7 193.5,-145.7 340.5,-145.7 340.5,-123.7 193.5,-123.7"/>
<image xlink:href="../../images/foreignKeys.png" width="11px" height="12px" preserveAspectRatio="xMinYMin meet" x="198.5" y="-140.7"/>
<text text-anchor="start" x="222.5" y="-130.8" font-family="Helvetica,sans-Serif" font-size="11.00" fill="#000000">mo_source</text>
<polygon fill="none" stroke="#000000" points="193.5,-104.7 193.5,-123.7 340.5,-123.7 340.5,-104.7 193.5,-104.7"/>
<text text-anchor="start" x="196.5" y="-110.8" font-family="Helvetica,sans-Serif" font-size="11.00" fill="#000000">...</text>
<polygon fill="#ffffff" stroke="transparent" points="193.5,-85.7 193.5,-104.7 247.5,-104.7 247.5,-85.7 193.5,-85.7"/>
<polygon fill="none" stroke="#000000" points="193.5,-85.7 193.5,-104.7 247.5,-104.7 247.5,-85.7 193.5,-85.7"/>
<text text-anchor="start" x="196.5" y="-91.8" font-family="Helvetica,sans-Serif" font-size="11.00" fill="#000000">&lt; 2</text>
<polygon fill="#ffffff" stroke="transparent" points="247.5,-85.7 247.5,-104.7 302.5,-104.7 302.5,-85.7 247.5,-85.7"/>
<polygon fill="none" stroke="#000000" points="247.5,-85.7 247.5,-104.7 302.5,-104.7 302.5,-85.7 247.5,-85.7"/>
<text text-anchor="start" x="267.1105" y="-91.8" font-family="Helvetica,sans-Serif" font-size="11.00" fill="#000000">0 rows</text>
<polygon fill="#ffffff" stroke="transparent" points="302.5,-85.7 302.5,-104.7 340.5,-104.7 340.5,-85.7 302.5,-85.7"/>
<polygon fill="none" stroke="#000000" points="302.5,-85.7 302.5,-104.7 340.5,-104.7 340.5,-85.7 302.5,-85.7"/>
<text text-anchor="start" x="321.9053" y="-91.8" font-family="Helvetica,sans-Serif" font-size="11.00" fill="#000000">1 &gt;</text>
</a>
</g>
</g>
<!-- mo_relationship&#45;&gt;moving_object -->
<g id="edge6" class="edge">
<title>mo_relationship:w&#45;&gt;moving_object:e</title>
<path fill="none" stroke="#000000" d="M178.8428,-134.7C167.4139,-134.7 160.1563,-134.7 144,-134.7"/>
<polygon fill="#000000" stroke="#000000" points="185.5,-134.7001 193.5,-138.3 189.5,-134.7 193.5,-134.7 193.5,-134.7 193.5,-134.7 189.5,-134.7 193.5,-131.1 185.5,-134.7001 185.5,-134.7001"/>
<ellipse fill="none" stroke="#000000" cx="182.3" cy="-134.7001" rx="3.2" ry="3.2"/>
</g>
<!-- mo_relationship&#45;&gt;moving_object -->
<g id="edge7" class="edge">
<title>mo_relationship:w&#45;&gt;moving_object:e</title>
<path fill="none" stroke="#000000" d="M179.3612,-153.4538C167.4382,-147.3342 162.2443,-134.7 144,-134.7"/>
<polygon fill="#000000" stroke="#000000" points="185.7029,-154.9098 192.6944,-160.2087 189.6014,-155.8049 193.5,-156.7 193.5,-156.7 193.5,-156.7 189.6014,-155.8049 194.3056,-153.1913 185.7029,-154.9098 185.7029,-154.9098"/>
<ellipse fill="none" stroke="#000000" cx="182.584" cy="-154.1937" rx="3.2" ry="3.2"/>
</g>
<!-- mor_aspect -->
<g id="node8" class="node">
<title>mor_aspect</title>
<g id="a_node8"><a xlink:href="../../tables/mor_aspect.html" xlink:title="mor_aspect" target="_top">
<polygon fill="#ffffff" stroke="transparent" points="392,-124.7 392,-214.7 536,-214.7 536,-124.7 392,-124.7"/>
<polygon fill="#f5f5f5" stroke="transparent" points="394,-189.7 394,-212.7 534,-212.7 534,-189.7 394,-189.7"/>
<polygon fill="none" stroke="#000000" points="394,-189.7 394,-212.7 534,-212.7 534,-189.7 394,-189.7"/>
<text text-anchor="start" x="399" y="-198.3" font-family="Helvetica,sans-Serif" font-weight="bold" font-size="11.00" fill="#000000">mor_aspect</text>
<text text-anchor="start" x="499.0437" y="-197.8" font-family="Helvetica,sans-Serif" font-size="11.00" fill="#000000">[table]</text>
<polygon fill="none" stroke="#000000" points="394,-167.7 394,-189.7 492,-189.7 492,-167.7 394,-167.7"/>
<image xlink:href="../../images/primaryKeys.png" width="11px" height="12px" preserveAspectRatio="xMinYMin meet" x="399" y="-184.7"/>
<text text-anchor="start" x="414" y="-174.8" font-family="Helvetica,sans-Serif" font-size="11.00" fill="#000000">mor_id</text>
<polygon fill="none" stroke="#000000" points="492,-167.7 492,-189.7 534,-189.7 534,-167.7 492,-167.7"/>
<text text-anchor="start" x="494.9644" y="-175.4" font-family="Helvetica,sans-Serif" font-size="11.00" fill="#000000">int4[10]</text>
<polygon fill="none" stroke="#000000" points="394,-145.7 394,-167.7 492,-167.7 492,-145.7 394,-145.7"/>
<image xlink:href="../../images/primaryKeys.png" width="11px" height="12px" preserveAspectRatio="xMinYMin meet" x="399" y="-162.7"/>
<text text-anchor="start" x="414" y="-152.8" font-family="Helvetica,sans-Serif" font-size="11.00" fill="#000000">aspect_id</text>
<polygon fill="none" stroke="#000000" points="492,-145.7 492,-167.7 534,-167.7 534,-145.7 492,-145.7"/>
<text text-anchor="start" x="494.9644" y="-153.4" font-family="Helvetica,sans-Serif" font-size="11.00" fill="#000000">int4[10]</text>
<polygon fill="#ffffff" stroke="transparent" points="394,-126.7 394,-145.7 434,-145.7 434,-126.7 394,-126.7"/>
<polygon fill="none" stroke="#000000" points="394,-126.7 394,-145.7 434,-145.7 434,-126.7 394,-126.7"/>
<text text-anchor="start" x="397" y="-132.8" font-family="Helvetica,sans-Serif" font-size="11.00" fill="#000000">&lt; 2</text>
<polygon fill="#ffffff" stroke="transparent" points="434,-126.7 434,-145.7 492,-145.7 492,-126.7 434,-126.7"/>
<polygon fill="none" stroke="#000000" points="434,-126.7 434,-145.7 492,-145.7 492,-126.7 434,-126.7"/>
<text text-anchor="start" x="456.6105" y="-132.8" font-family="Helvetica,sans-Serif" font-size="11.00" fill="#000000">0 rows</text>
<polygon fill="#ffffff" stroke="transparent" points="492,-126.7 492,-145.7 534,-145.7 534,-126.7 492,-126.7"/>
<polygon fill="none" stroke="#000000" points="492,-126.7 492,-145.7 534,-145.7 534,-126.7 492,-126.7"/>
<text text-anchor="start" x="515.4053" y="-132.8" font-family="Helvetica,sans-Serif" font-size="11.00" fill="#000000">0 &gt;</text>
<polygon fill="none" stroke="#000000" stroke-width="2" points="393,-125.7 393,-213.7 535,-213.7 535,-125.7 393,-125.7"/>
</a>
</g>
</g>
<!-- mor_aspect&#45;&gt;aspect -->
<g id="edge8" class="edge">
<title>mor_aspect:w&#45;&gt;aspect:e</title>
<path fill="none" stroke="#000000" d="M379.6885,-158.9746C324.8824,-179.1478 402.2364,-326.7 326.5,-326.7"/>
<polygon fill="#000000" stroke="#000000" points="386.0992,-157.9558 394.5651,-160.2554 390.0496,-157.3279 394,-156.7 394,-156.7 394,-156.7 390.0496,-157.3279 393.4349,-153.1446 386.0992,-157.9558 386.0992,-157.9558"/>
<ellipse fill="none" stroke="#000000" cx="382.9388" cy="-158.4581" rx="3.2" ry="3.2"/>
</g>
<!-- mor_aspect&#45;&gt;mo_relationship -->
<g id="edge9" class="edge">
<title>mor_aspect:w&#45;&gt;mo_relationship:e</title>
<path fill="none" stroke="#000000" d="M379.3553,-178.7C366.2969,-178.7 358.5191,-178.7 340.5,-178.7"/>
<polygon fill="#000000" stroke="#000000" points="386,-178.7001 394,-182.3 390,-178.7 394,-178.7 394,-178.7 394,-178.7 390,-178.7 394,-175.1 386,-178.7001 386,-178.7001"/>
<ellipse fill="none" stroke="#000000" cx="382.8" cy="-178.7001" rx="3.2" ry="3.2"/>
</g>
<!-- point_aspect -->
<g id="node9" class="node">
<title>point_aspect</title>
<g id="a_node9"><a xlink:href="../../tables/point_aspect.html" xlink:title="point_aspect" target="_top">
<polygon fill="#ffffff" stroke="transparent" points="401.5,-236.2 401.5,-297.2 526.5,-297.2 526.5,-236.2 401.5,-236.2"/>
<polygon fill="#f5f5f5" stroke="transparent" points="402,-273.7 402,-296.7 527,-296.7 527,-273.7 402,-273.7"/>
<polygon fill="none" stroke="#000000" points="402,-273.7 402,-296.7 527,-296.7 527,-273.7 402,-273.7"/>
<text text-anchor="start" x="407" y="-282.3" font-family="Helvetica,sans-Serif" font-weight="bold" font-size="11.00" fill="#000000">point_aspect</text>
<text text-anchor="start" x="492.5219" y="-281.8" font-family="Helvetica,sans-Serif" font-size="11.00" fill="#000000">[table]</text>
<polygon fill="none" stroke="#000000" points="402,-254.7 402,-273.7 527,-273.7 527,-254.7 402,-254.7"/>
<text text-anchor="start" x="405" y="-260.8" font-family="Helvetica,sans-Serif" font-size="11.00" fill="#000000">...</text>
<polygon fill="#ffffff" stroke="transparent" points="402,-235.7 402,-254.7 433,-254.7 433,-235.7 402,-235.7"/>
<polygon fill="none" stroke="#000000" points="402,-235.7 402,-254.7 433,-254.7 433,-235.7 402,-235.7"/>
<text text-anchor="start" x="405" y="-241.8" font-family="Helvetica,sans-Serif" font-size="11.00" fill="#000000">&lt; 1</text>
<polygon fill="#ffffff" stroke="transparent" points="433,-235.7 433,-254.7 510,-254.7 510,-235.7 433,-235.7"/>
<polygon fill="none" stroke="#000000" points="433,-235.7 433,-254.7 510,-254.7 510,-235.7 433,-235.7"/>
<text text-anchor="start" x="440.9791" y="-241.8" font-family="Helvetica,sans-Serif" font-size="11.00" fill="#000000">800.114 rows</text>
<polygon fill="#ffffff" stroke="transparent" points="510,-235.7 510,-254.7 527,-254.7 527,-235.7 510,-235.7"/>
<polygon fill="none" stroke="#000000" points="510,-235.7 510,-254.7 527,-254.7 527,-235.7 510,-235.7"/>
<text text-anchor="start" x="517.8862" y="-241.8" font-family="Helvetica,sans-Serif" font-size="11.00" fill="#000000"> &#160;</text>
</a>
</g>
</g>
<!-- point_aspect&#45;&gt;aspect -->
<g id="edge10" class="edge">
<title>point_aspect:w&#45;&gt;aspect:e</title>
<path fill="none" stroke="#000000" d="M387.6331,-266.5707C360.4423,-278.8953 364.5696,-326.7 326.5,-326.7"/>
<polygon fill="#000000" stroke="#000000" points="394.1551,-265.2676 402.7054,-267.2302 398.0775,-264.4838 402,-263.7 402,-263.7 402,-263.7 398.0775,-264.4838 401.2946,-260.1698 394.1551,-265.2676 394.1551,-265.2676"/>
<ellipse fill="none" stroke="#000000" cx="391.0171" cy="-265.8946" rx="3.2" ry="3.2"/>
</g>
</g>
</svg>
