<?xml version="1.0" encoding="UTF-8" standalone="no"?>
<!DOCTYPE svg PUBLIC "-//W3C//DTD SVG 1.1//EN"
 "http://www.w3.org/Graphics/SVG/1.1/DTD/svg11.dtd">
<!-- Generated by graphviz version 2.40.1 (20161225.0304)
 -->
<!-- Title: oneDegreeRelationshipsDiagram Pages: 1 -->
<svg width="549pt" height="451pt"
 viewBox="0.00 0.00 549.00 451.20" xmlns="http://www.w3.org/2000/svg" xmlns:xlink="http://www.w3.org/1999/xlink">
<g id="graph0" class="graph" transform="scale(1 1) rotate(0) translate(4 447.2)">
<title>oneDegreeRelationshipsDiagram</title>
<polygon fill="#ffffff" stroke="transparent" points="-4,4 -4,-447.2 545,-447.2 545,4 -4,4"/>
<text text-anchor="middle" x="72.4936" y="-7.3" font-family="Helvetica,sans-Serif" font-size="11.00" fill="#000000">Generated by SchemaSpy</text>
<!-- mat -->
<g id="node1" class="node">
<title>mat</title>
<g id="a_node1"><a xlink:href="../../tables/mat.html" xlink:title="mat" target="_top">
<polygon fill="#ffffff" stroke="transparent" points="394,-312.2 394,-439.2 525,-439.2 525,-312.2 394,-312.2"/>
<polygon fill="#f5f5f5" stroke="transparent" points="394.5,-415.7 394.5,-438.7 525.5,-438.7 525.5,-415.7 394.5,-415.7"/>
<polygon fill="none" stroke="#000000" points="394.5,-415.7 394.5,-438.7 525.5,-438.7 525.5,-415.7 394.5,-415.7"/>
<text text-anchor="start" x="399.5" y="-424.3" font-family="Helvetica,sans-Serif" font-weight="bold" font-size="11.00" fill="#000000">mat</text>
<text text-anchor="start" x="490.5437" y="-423.8" font-family="Helvetica,sans-Serif" font-size="11.00" fill="#000000">[table]</text>
<polygon fill="none" stroke="#000000" points="394.5,-393.7 394.5,-415.7 525.5,-415.7 525.5,-393.7 394.5,-393.7"/>
<image xlink:href="../../images/primaryKeys.png" width="11px" height="12px" preserveAspectRatio="xMinYMin meet" x="399.5" y="-410.7"/>
<text text-anchor="start" x="414.5" y="-400.8" font-family="Helvetica,sans-Serif" font-size="11.00" fill="#000000">mat_id</text>
<polygon fill="#ffffff" stroke="transparent" points="394.5,-371.7 394.5,-393.7 525.5,-393.7 525.5,-371.7 394.5,-371.7"/>
<polygon fill="none" stroke="#000000" points="394.5,-371.7 394.5,-393.7 525.5,-393.7 525.5,-371.7 394.5,-371.7"/>
<text text-anchor="start" x="414.5" y="-378.8" font-family="Helvetica,sans-Serif" font-size="11.00" fill="#000000">description</text>
<polygon fill="#ffffff" stroke="transparent" points="394.5,-349.7 394.5,-371.7 525.5,-371.7 525.5,-349.7 394.5,-349.7"/>
<polygon fill="none" stroke="#000000" points="394.5,-349.7 394.5,-371.7 525.5,-371.7 525.5,-349.7 394.5,-349.7"/>
<image xlink:href="../../images/foreignKeys.png" width="11px" height="12px" preserveAspectRatio="xMinYMin meet" x="399.5" y="-366.7"/>
<text text-anchor="start" x="414.5" y="-356.8" font-family="Helvetica,sans-Serif" font-size="11.00" fill="#000000">mo_id</text>
<polygon fill="none" stroke="#000000" points="394.5,-330.7 394.5,-349.7 525.5,-349.7 525.5,-330.7 394.5,-330.7"/>
<text text-anchor="start" x="397.5" y="-336.8" font-family="Helvetica,sans-Serif" font-size="11.00" fill="#000000">...</text>
<polygon fill="#ffffff" stroke="transparent" points="394.5,-311.7 394.5,-330.7 445.5,-330.7 445.5,-311.7 394.5,-311.7"/>
<polygon fill="none" stroke="#000000" points="394.5,-311.7 394.5,-330.7 445.5,-330.7 445.5,-311.7 394.5,-311.7"/>
<text text-anchor="start" x="397.5" y="-317.8" font-family="Helvetica,sans-Serif" font-size="11.00" fill="#000000">&lt; 1</text>
<polygon fill="#ffffff" stroke="transparent" points="445.5,-311.7 445.5,-330.7 498.5,-330.7 498.5,-311.7 445.5,-311.7"/>
<polygon fill="none" stroke="#000000" points="445.5,-311.7 445.5,-330.7 498.5,-330.7 498.5,-311.7 445.5,-311.7"/>
<text text-anchor="start" x="463.1105" y="-317.8" font-family="Helvetica,sans-Serif" font-size="11.00" fill="#000000">0 rows</text>
<polygon fill="#ffffff" stroke="transparent" points="498.5,-311.7 498.5,-330.7 525.5,-330.7 525.5,-311.7 498.5,-311.7"/>
<polygon fill="none" stroke="#000000" points="498.5,-311.7 498.5,-330.7 525.5,-330.7 525.5,-311.7 498.5,-311.7"/>
<text text-anchor="start" x="516.3862" y="-317.8" font-family="Helvetica,sans-Serif" font-size="11.00" fill="#000000"> &#160;</text>
</a>
</g>
</g>
<!-- moving_object -->
<g id="node2" class="node">
<title>moving_object</title>
<g id="a_node2"><a xlink:href="../../tables/moving_object.html" xlink:title="moving_object" target="_top">
<polygon fill="#ffffff" stroke="transparent" points="154,-106.7 154,-218.7 337,-218.7 337,-106.7 154,-106.7"/>
<polygon fill="#f5f5f5" stroke="transparent" points="156.5,-193.7 156.5,-216.7 335.5,-216.7 335.5,-193.7 156.5,-193.7"/>
<polygon fill="none" stroke="#000000" points="156.5,-193.7 156.5,-216.7 335.5,-216.7 335.5,-193.7 156.5,-193.7"/>
<text text-anchor="start" x="161.5" y="-202.3" font-family="Helvetica,sans-Serif" font-weight="bold" font-size="11.00" fill="#000000">moving_object</text>
<text text-anchor="start" x="300.5437" y="-201.8" font-family="Helvetica,sans-Serif" font-size="11.00" fill="#000000">[table]</text>
<polygon fill="none" stroke="#000000" points="156.5,-171.7 156.5,-193.7 274.5,-193.7 274.5,-171.7 156.5,-171.7"/>
<image xlink:href="../../images/primaryKeys.png" width="11px" height="12px" preserveAspectRatio="xMinYMin meet" x="161.5" y="-188.7"/>
<text text-anchor="start" x="176.5" y="-178.8" font-family="Helvetica,sans-Serif" font-size="11.00" fill="#000000">mo_id</text>
<polygon fill="none" stroke="#000000" points="274.5,-171.7 274.5,-193.7 335.5,-193.7 335.5,-171.7 274.5,-171.7"/>
<text text-anchor="start" x="277.5" y="-179.4" font-family="Helvetica,sans-Serif" font-size="11.00" fill="#000000">int4[10]</text>
<polygon fill="#ffffff" stroke="transparent" points="156.5,-149.7 156.5,-171.7 274.5,-171.7 274.5,-149.7 156.5,-149.7"/>
<polygon fill="none" stroke="#000000" points="156.5,-149.7 156.5,-171.7 274.5,-171.7 274.5,-149.7 156.5,-149.7"/>
<text text-anchor="start" x="176.5" y="-156.8" font-family="Helvetica,sans-Serif" font-size="11.00" fill="#000000">description</text>
<polygon fill="none" stroke="#000000" points="274.5,-149.7 274.5,-171.7 335.5,-171.7 335.5,-149.7 274.5,-149.7"/>
<text text-anchor="start" x="277.494" y="-157.4" font-family="Helvetica,sans-Serif" font-size="11.00" fill="#000000">varchar[50]</text>
<polygon fill="#ffffff" stroke="transparent" points="156.5,-127.7 156.5,-149.7 274.5,-149.7 274.5,-127.7 156.5,-127.7"/>
<polygon fill="none" stroke="#000000" points="156.5,-127.7 156.5,-149.7 274.5,-149.7 274.5,-127.7 156.5,-127.7"/>
<image xlink:href="../../images/foreignKeys.png" width="11px" height="12px" preserveAspectRatio="xMinYMin meet" x="161.5" y="-144.7"/>
<text text-anchor="start" x="176.5" y="-134.8" font-family="Helvetica,sans-Serif" font-size="11.00" fill="#000000">mo_type_id</text>
<polygon fill="none" stroke="#000000" points="274.5,-127.7 274.5,-149.7 335.5,-149.7 335.5,-127.7 274.5,-127.7"/>
<text text-anchor="start" x="277.5" y="-135.4" font-family="Helvetica,sans-Serif" font-size="11.00" fill="#000000">int4[10]</text>
<polygon fill="#ffffff" stroke="transparent" points="156.5,-108.7 156.5,-127.7 196.5,-127.7 196.5,-108.7 156.5,-108.7"/>
<polygon fill="none" stroke="#000000" points="156.5,-108.7 156.5,-127.7 196.5,-127.7 196.5,-108.7 156.5,-108.7"/>
<text text-anchor="start" x="159.5" y="-114.8" font-family="Helvetica,sans-Serif" font-size="11.00" fill="#000000">&lt; 1</text>
<polygon fill="#ffffff" stroke="transparent" points="196.5,-108.7 196.5,-127.7 274.5,-127.7 274.5,-108.7 196.5,-108.7"/>
<polygon fill="none" stroke="#000000" points="196.5,-108.7 196.5,-127.7 274.5,-127.7 274.5,-108.7 196.5,-108.7"/>
<text text-anchor="start" x="217.7089" y="-114.8" font-family="Helvetica,sans-Serif" font-size="11.00" fill="#000000">3.376 rows</text>
<polygon fill="#ffffff" stroke="transparent" points="274.5,-108.7 274.5,-127.7 335.5,-127.7 335.5,-108.7 274.5,-108.7"/>
<polygon fill="none" stroke="#000000" points="274.5,-108.7 274.5,-127.7 335.5,-127.7 335.5,-108.7 274.5,-108.7"/>
<text text-anchor="start" x="316.9053" y="-114.8" font-family="Helvetica,sans-Serif" font-size="11.00" fill="#000000">4 &gt;</text>
<polygon fill="none" stroke="#000000" stroke-width="2" points="155,-107.7 155,-217.7 336,-217.7 336,-107.7 155,-107.7"/>
</a>
</g>
</g>
<!-- mat&#45;&gt;moving_object -->
<g id="edge1" class="edge">
<title>mat:w&#45;&gt;moving_object:e</title>
<path fill="none" stroke="#000000" d="M379.964,-358.3183C324.9865,-337.1959 413.1464,-182.7 335.5,-182.7"/>
<polygon fill="#000000" stroke="#000000" points="386.6053,-359.4064 393.9179,-364.2526 390.5526,-360.0532 394.5,-360.7 394.5,-360.7 394.5,-360.7 390.5526,-360.0532 395.0821,-357.1474 386.6053,-359.4064 386.6053,-359.4064"/>
<ellipse fill="none" stroke="#000000" cx="383.4474" cy="-358.889" rx="3.2" ry="3.2"/>
</g>
<!-- mo_type -->
<g id="node5" class="node">
<title>mo_type</title>
<g id="a_node5"><a xlink:href="../../tables/mo_type.html" xlink:title="mo_type" target="_top">
<polygon fill="#ffffff" stroke="transparent" points="8,-90.2 8,-173.2 105,-173.2 105,-90.2 8,-90.2"/>
<polygon fill="#f5f5f5" stroke="transparent" points="8.5,-149.7 8.5,-172.7 105.5,-172.7 105.5,-149.7 8.5,-149.7"/>
<polygon fill="none" stroke="#000000" points="8.5,-149.7 8.5,-172.7 105.5,-172.7 105.5,-149.7 8.5,-149.7"/>
<text text-anchor="start" x="13.5" y="-158.3" font-family="Helvetica,sans-Serif" font-weight="bold" font-size="11.00" fill="#000000">mo_type</text>
<text text-anchor="start" x="71.0219" y="-157.8" font-family="Helvetica,sans-Serif" font-size="11.00" fill="#000000">[table]</text>
<polygon fill="none" stroke="#000000" points="8.5,-127.7 8.5,-149.7 105.5,-149.7 105.5,-127.7 8.5,-127.7"/>
<image xlink:href="../../images/primaryKeys.png" width="11px" height="12px" preserveAspectRatio="xMinYMin meet" x="13.5" y="-144.7"/>
<text text-anchor="start" x="28.5" y="-134.8" font-family="Helvetica,sans-Serif" font-size="11.00" fill="#000000">mo_type_id</text>
<polygon fill="none" stroke="#000000" points="8.5,-108.7 8.5,-127.7 105.5,-127.7 105.5,-108.7 8.5,-108.7"/>
<text text-anchor="start" x="11.5" y="-114.8" font-family="Helvetica,sans-Serif" font-size="11.00" fill="#000000">...</text>
<polygon fill="#ffffff" stroke="transparent" points="8.5,-89.7 8.5,-108.7 36.5,-108.7 36.5,-89.7 8.5,-89.7"/>
<polygon fill="none" stroke="#000000" points="8.5,-89.7 8.5,-108.7 36.5,-108.7 36.5,-89.7 8.5,-89.7"/>
<text text-anchor="start" x="11.5" y="-95.8" font-family="Helvetica,sans-Serif" font-size="11.00" fill="#000000"> &#160;</text>
<polygon fill="#ffffff" stroke="transparent" points="36.5,-89.7 36.5,-108.7 76.5,-108.7 76.5,-89.7 36.5,-89.7"/>
<polygon fill="none" stroke="#000000" points="36.5,-89.7 36.5,-108.7 76.5,-108.7 76.5,-89.7 36.5,-89.7"/>
<text text-anchor="start" x="46.6105" y="-95.8" font-family="Helvetica,sans-Serif" font-size="11.00" fill="#000000">1 row</text>
<polygon fill="#ffffff" stroke="transparent" points="76.5,-89.7 76.5,-108.7 105.5,-108.7 105.5,-89.7 76.5,-89.7"/>
<polygon fill="none" stroke="#000000" points="76.5,-89.7 76.5,-108.7 105.5,-108.7 105.5,-89.7 76.5,-89.7"/>
<text text-anchor="start" x="86.9053" y="-95.8" font-family="Helvetica,sans-Serif" font-size="11.00" fill="#000000">1 &gt;</text>
</a>
</g>
</g>
<!-- moving_object&#45;&gt;mo_type -->
<g id="edge5" class="edge">
<title>moving_object:w&#45;&gt;mo_type:e</title>
<path fill="none" stroke="#000000" d="M141.776,-138.7C129.7815,-138.7 122.3229,-138.7 105.5,-138.7"/>
<polygon fill="#000000" stroke="#000000" points="148.5,-138.7001 156.5,-142.3 152.5,-138.7 156.5,-138.7 156.5,-138.7 156.5,-138.7 152.5,-138.7 156.5,-135.1 148.5,-138.7001 148.5,-138.7001"/>
<ellipse fill="none" stroke="#000000" cx="145.3" cy="-138.7001" rx="3.2" ry="3.2"/>
</g>
<!-- mo_aspect -->
<g id="node3" class="node">
<title>mo_aspect</title>
<g id="a_node3"><a xlink:href="../../tables/mo_aspect.html" xlink:title="mo_aspect" target="_top">
<polygon fill="#ffffff" stroke="transparent" points="404.5,-186.2 404.5,-291.2 514.5,-291.2 514.5,-186.2 404.5,-186.2"/>
<polygon fill="#f5f5f5" stroke="transparent" points="404.5,-267.7 404.5,-290.7 514.5,-290.7 514.5,-267.7 404.5,-267.7"/>
<polygon fill="none" stroke="#000000" points="404.5,-267.7 404.5,-290.7 514.5,-290.7 514.5,-267.7 404.5,-267.7"/>
<text text-anchor="start" x="409.5" y="-276.3" font-family="Helvetica,sans-Serif" font-weight="bold" font-size="11.00" fill="#000000">mo_aspect</text>
<text text-anchor="start" x="480.0219" y="-275.8" font-family="Helvetica,sans-Serif" font-size="11.00" fill="#000000">[table]</text>
<polygon fill="none" stroke="#000000" points="404.5,-245.7 404.5,-267.7 514.5,-267.7 514.5,-245.7 404.5,-245.7"/>
<image xlink:href="../../images/primaryKeys.png" width="11px" height="12px" preserveAspectRatio="xMinYMin meet" x="409.5" y="-262.7"/>
<text text-anchor="start" x="433.5" y="-252.8" font-family="Helvetica,sans-Serif" font-size="11.00" fill="#000000">mo_id</text>
<polygon fill="none" stroke="#000000" points="404.5,-223.7 404.5,-245.7 514.5,-245.7 514.5,-223.7 404.5,-223.7"/>
<image xlink:href="../../images/primaryKeys.png" width="11px" height="12px" preserveAspectRatio="xMinYMin meet" x="409.5" y="-240.7"/>
<text text-anchor="start" x="433.5" y="-230.8" font-family="Helvetica,sans-Serif" font-size="11.00" fill="#000000">aspect_id</text>
<polygon fill="none" stroke="#000000" points="404.5,-204.7 404.5,-223.7 514.5,-223.7 514.5,-204.7 404.5,-204.7"/>
<text text-anchor="start" x="407.5" y="-210.8" font-family="Helvetica,sans-Serif" font-size="11.00" fill="#000000">...</text>
<polygon fill="#ffffff" stroke="transparent" points="404.5,-185.7 404.5,-204.7 444.5,-204.7 444.5,-185.7 404.5,-185.7"/>
<polygon fill="none" stroke="#000000" points="404.5,-185.7 404.5,-204.7 444.5,-204.7 444.5,-185.7 404.5,-185.7"/>
<text text-anchor="start" x="407.5" y="-191.8" font-family="Helvetica,sans-Serif" font-size="11.00" fill="#000000">&lt; 2</text>
<polygon fill="#ffffff" stroke="transparent" points="444.5,-185.7 444.5,-204.7 492.5,-204.7 492.5,-185.7 444.5,-185.7"/>
<polygon fill="none" stroke="#000000" points="444.5,-185.7 444.5,-204.7 492.5,-204.7 492.5,-185.7 444.5,-185.7"/>
<text text-anchor="start" x="457.1105" y="-191.8" font-family="Helvetica,sans-Serif" font-size="11.00" fill="#000000">0 rows</text>
<polygon fill="#ffffff" stroke="transparent" points="492.5,-185.7 492.5,-204.7 514.5,-204.7 514.5,-185.7 492.5,-185.7"/>
<polygon fill="none" stroke="#000000" points="492.5,-185.7 492.5,-204.7 514.5,-204.7 514.5,-185.7 492.5,-185.7"/>
<text text-anchor="start" x="505.3862" y="-191.8" font-family="Helvetica,sans-Serif" font-size="11.00" fill="#000000"> &#160;</text>
</a>
</g>
</g>
<!-- mo_aspect&#45;&gt;moving_object -->
<g id="edge2" class="edge">
<title>mo_aspect:w&#45;&gt;moving_object:e</title>
<path fill="none" stroke="#000000" d="M390.113,-253.3281C363.8344,-238.8515 374.6714,-182.7 335.5,-182.7"/>
<polygon fill="#000000" stroke="#000000" points="396.7111,-254.8744 403.6785,-260.205 400.6055,-255.7872 404.5,-256.7 404.5,-256.7 404.5,-256.7 400.6055,-255.7872 405.3215,-253.195 396.7111,-254.8744 396.7111,-254.8744"/>
<ellipse fill="none" stroke="#000000" cx="393.5955" cy="-254.1442" rx="3.2" ry="3.2"/>
</g>
<!-- mo_relationship -->
<g id="node4" class="node">
<title>mo_relationship</title>
<g id="a_node4"><a xlink:href="../../tables/mo_relationship.html" xlink:title="mo_relationship" target="_top">
<polygon fill="#ffffff" stroke="transparent" points="386,-38.2 386,-165.2 533,-165.2 533,-38.2 386,-38.2"/>
<polygon fill="#f5f5f5" stroke="transparent" points="386.5,-141.7 386.5,-164.7 533.5,-164.7 533.5,-141.7 386.5,-141.7"/>
<polygon fill="none" stroke="#000000" points="386.5,-141.7 386.5,-164.7 533.5,-164.7 533.5,-141.7 386.5,-141.7"/>
<text text-anchor="start" x="391.5" y="-150.3" font-family="Helvetica,sans-Serif" font-weight="bold" font-size="11.00" fill="#000000">mo_relationship</text>
<text text-anchor="start" x="499.0219" y="-149.8" font-family="Helvetica,sans-Serif" font-size="11.00" fill="#000000">[table]</text>
<polygon fill="none" stroke="#000000" points="386.5,-119.7 386.5,-141.7 533.5,-141.7 533.5,-119.7 386.5,-119.7"/>
<image xlink:href="../../images/primaryKeys.png" width="11px" height="12px" preserveAspectRatio="xMinYMin meet" x="391.5" y="-136.7"/>
<text text-anchor="start" x="415.5" y="-126.8" font-family="Helvetica,sans-Serif" font-size="11.00" fill="#000000">mor_id</text>
<polygon fill="#ffffff" stroke="transparent" points="386.5,-97.7 386.5,-119.7 533.5,-119.7 533.5,-97.7 386.5,-97.7"/>
<polygon fill="none" stroke="#000000" points="386.5,-97.7 386.5,-119.7 533.5,-119.7 533.5,-97.7 386.5,-97.7"/>
<image xlink:href="../../images/foreignKeys.png" width="11px" height="12px" preserveAspectRatio="xMinYMin meet" x="391.5" y="-114.7"/>
<text text-anchor="start" x="415.5" y="-104.8" font-family="Helvetica,sans-Serif" font-size="11.00" fill="#000000">mo_target</text>
<polygon fill="#ffffff" stroke="transparent" points="386.5,-75.7 386.5,-97.7 533.5,-97.7 533.5,-75.7 386.5,-75.7"/>
<polygon fill="none" stroke="#000000" points="386.5,-75.7 386.5,-97.7 533.5,-97.7 533.5,-75.7 386.5,-75.7"/>
<image xlink:href="../../images/foreignKeys.png" width="11px" height="12px" preserveAspectRatio="xMinYMin meet" x="391.5" y="-92.7"/>
<text text-anchor="start" x="415.5" y="-82.8" font-family="Helvetica,sans-Serif" font-size="11.00" fill="#000000">mo_source</text>
<polygon fill="none" stroke="#000000" points="386.5,-56.7 386.5,-75.7 533.5,-75.7 533.5,-56.7 386.5,-56.7"/>
<text text-anchor="start" x="389.5" y="-62.8" font-family="Helvetica,sans-Serif" font-size="11.00" fill="#000000">...</text>
<polygon fill="#ffffff" stroke="transparent" points="386.5,-37.7 386.5,-56.7 440.5,-56.7 440.5,-37.7 386.5,-37.7"/>
<polygon fill="none" stroke="#000000" points="386.5,-37.7 386.5,-56.7 440.5,-56.7 440.5,-37.7 386.5,-37.7"/>
<text text-anchor="start" x="389.5" y="-43.8" font-family="Helvetica,sans-Serif" font-size="11.00" fill="#000000">&lt; 2</text>
<polygon fill="#ffffff" stroke="transparent" points="440.5,-37.7 440.5,-56.7 495.5,-56.7 495.5,-37.7 440.5,-37.7"/>
<polygon fill="none" stroke="#000000" points="440.5,-37.7 440.5,-56.7 495.5,-56.7 495.5,-37.7 440.5,-37.7"/>
<text text-anchor="start" x="460.1105" y="-43.8" font-family="Helvetica,sans-Serif" font-size="11.00" fill="#000000">0 rows</text>
<polygon fill="#ffffff" stroke="transparent" points="495.5,-37.7 495.5,-56.7 533.5,-56.7 533.5,-37.7 495.5,-37.7"/>
<polygon fill="none" stroke="#000000" points="495.5,-37.7 495.5,-56.7 533.5,-56.7 533.5,-37.7 495.5,-37.7"/>
<text text-anchor="start" x="514.9053" y="-43.8" font-family="Helvetica,sans-Serif" font-size="11.00" fill="#000000">1 &gt;</text>
</a>
</g>
</g>
<!-- mo_relationship&#45;&gt;moving_object -->
<g id="edge3" class="edge">
<title>mo_relationship:w&#45;&gt;moving_object:e</title>
<path fill="none" stroke="#000000" d="M372.4189,-90.825C348.1253,-109.2 377.7746,-182.7 335.5,-182.7"/>
<polygon fill="#000000" stroke="#000000" points="378.8226,-88.9491 387.5121,-90.1548 382.6613,-87.8245 386.5,-86.7 386.5,-86.7 386.5,-86.7 382.6613,-87.8245 385.4879,-83.2452 378.8226,-88.9491 378.8226,-88.9491"/>
<ellipse fill="none" stroke="#000000" cx="375.7517" cy="-89.8487" rx="3.2" ry="3.2"/>
</g>
<!-- mo_relationship&#45;&gt;moving_object -->
<g id="edge4" class="edge">
<title>mo_relationship:w&#45;&gt;moving_object:e</title>
<path fill="none" stroke="#000000" d="M372.5503,-113.329C353.7607,-129.5294 369.3581,-182.7 335.5,-182.7"/>
<polygon fill="#000000" stroke="#000000" points="378.9071,-111.2196 387.6338,-112.1168 382.7036,-109.9598 386.5,-108.7 386.5,-108.7 386.5,-108.7 382.7036,-109.9598 385.3662,-105.2832 378.9071,-111.2196 378.9071,-111.2196"/>
<ellipse fill="none" stroke="#000000" cx="375.87" cy="-112.2275" rx="3.2" ry="3.2"/>
</g>
</g>
</svg>
