<?xml version="1.0" encoding="UTF-8" standalone="no"?>
<!DOCTYPE svg PUBLIC "-//W3C//DTD SVG 1.1//EN"
 "http://www.w3.org/Graphics/SVG/1.1/DTD/svg11.dtd">
<!-- Generated by graphviz version 2.40.1 (20161225.0304)
 -->
<!-- Title: twoDegreesRelationshipsDiagram Pages: 1 -->
<svg width="714pt" height="435pt"
 viewBox="0.00 0.00 714.00 435.20" xmlns="http://www.w3.org/2000/svg" xmlns:xlink="http://www.w3.org/1999/xlink">
<g id="graph0" class="graph" transform="scale(1 1) rotate(0) translate(4 431.2)">
<title>twoDegreesRelationshipsDiagram</title>
<polygon fill="#ffffff" stroke="transparent" points="-4,4 -4,-431.2 710,-431.2 710,4 -4,4"/>
<text text-anchor="middle" x="72.4936" y="-7.3" font-family="Helvetica,sans-Serif" font-size="11.00" fill="#000000">Generated by SchemaSpy</text>
<!-- mat -->
<g id="node1" class="node">
<title>mat</title>
<g id="a_node1"><a xlink:href="../../tables/mat.html" xlink:title="mat" target="_top">
<polygon fill="#ffffff" stroke="transparent" points="394,-296.2 394,-423.2 525,-423.2 525,-296.2 394,-296.2"/>
<polygon fill="#f5f5f5" stroke="transparent" points="394.5,-399.7 394.5,-422.7 525.5,-422.7 525.5,-399.7 394.5,-399.7"/>
<polygon fill="none" stroke="#000000" points="394.5,-399.7 394.5,-422.7 525.5,-422.7 525.5,-399.7 394.5,-399.7"/>
<text text-anchor="start" x="399.5" y="-408.3" font-family="Helvetica,sans-Serif" font-weight="bold" font-size="11.00" fill="#000000">mat</text>
<text text-anchor="start" x="490.5437" y="-407.8" font-family="Helvetica,sans-Serif" font-size="11.00" fill="#000000">[table]</text>
<polygon fill="none" stroke="#000000" points="394.5,-377.7 394.5,-399.7 525.5,-399.7 525.5,-377.7 394.5,-377.7"/>
<image xlink:href="../../images/primaryKeys.png" width="11px" height="12px" preserveAspectRatio="xMinYMin meet" x="399.5" y="-394.7"/>
<text text-anchor="start" x="414.5" y="-384.8" font-family="Helvetica,sans-Serif" font-size="11.00" fill="#000000">mat_id</text>
<polygon fill="#ffffff" stroke="transparent" points="394.5,-355.7 394.5,-377.7 525.5,-377.7 525.5,-355.7 394.5,-355.7"/>
<polygon fill="none" stroke="#000000" points="394.5,-355.7 394.5,-377.7 525.5,-377.7 525.5,-355.7 394.5,-355.7"/>
<text text-anchor="start" x="414.5" y="-362.8" font-family="Helvetica,sans-Serif" font-size="11.00" fill="#000000">description</text>
<polygon fill="#ffffff" stroke="transparent" points="394.5,-333.7 394.5,-355.7 525.5,-355.7 525.5,-333.7 394.5,-333.7"/>
<polygon fill="none" stroke="#000000" points="394.5,-333.7 394.5,-355.7 525.5,-355.7 525.5,-333.7 394.5,-333.7"/>
<image xlink:href="../../images/foreignKeys.png" width="11px" height="12px" preserveAspectRatio="xMinYMin meet" x="399.5" y="-350.7"/>
<text text-anchor="start" x="414.5" y="-340.8" font-family="Helvetica,sans-Serif" font-size="11.00" fill="#000000">mo_id</text>
<polygon fill="none" stroke="#000000" points="394.5,-314.7 394.5,-333.7 525.5,-333.7 525.5,-314.7 394.5,-314.7"/>
<text text-anchor="start" x="397.5" y="-320.8" font-family="Helvetica,sans-Serif" font-size="11.00" fill="#000000">...</text>
<polygon fill="#ffffff" stroke="transparent" points="394.5,-295.7 394.5,-314.7 445.5,-314.7 445.5,-295.7 394.5,-295.7"/>
<polygon fill="none" stroke="#000000" points="394.5,-295.7 394.5,-314.7 445.5,-314.7 445.5,-295.7 394.5,-295.7"/>
<text text-anchor="start" x="397.5" y="-301.8" font-family="Helvetica,sans-Serif" font-size="11.00" fill="#000000">&lt; 1</text>
<polygon fill="#ffffff" stroke="transparent" points="445.5,-295.7 445.5,-314.7 498.5,-314.7 498.5,-295.7 445.5,-295.7"/>
<polygon fill="none" stroke="#000000" points="445.5,-295.7 445.5,-314.7 498.5,-314.7 498.5,-295.7 445.5,-295.7"/>
<text text-anchor="start" x="463.1105" y="-301.8" font-family="Helvetica,sans-Serif" font-size="11.00" fill="#000000">0 rows</text>
<polygon fill="#ffffff" stroke="transparent" points="498.5,-295.7 498.5,-314.7 525.5,-314.7 525.5,-295.7 498.5,-295.7"/>
<polygon fill="none" stroke="#000000" points="498.5,-295.7 498.5,-314.7 525.5,-314.7 525.5,-295.7 498.5,-295.7"/>
<text text-anchor="start" x="516.3862" y="-301.8" font-family="Helvetica,sans-Serif" font-size="11.00" fill="#000000"> &#160;</text>
</a>
</g>
</g>
<!-- moving_object -->
<g id="node2" class="node">
<title>moving_object</title>
<g id="a_node2"><a xlink:href="../../tables/moving_object.html" xlink:title="moving_object" target="_top">
<polygon fill="#ffffff" stroke="transparent" points="154,-113.7 154,-225.7 337,-225.7 337,-113.7 154,-113.7"/>
<polygon fill="#f5f5f5" stroke="transparent" points="156.5,-200.7 156.5,-223.7 335.5,-223.7 335.5,-200.7 156.5,-200.7"/>
<polygon fill="none" stroke="#000000" points="156.5,-200.7 156.5,-223.7 335.5,-223.7 335.5,-200.7 156.5,-200.7"/>
<text text-anchor="start" x="161.5" y="-209.3" font-family="Helvetica,sans-Serif" font-weight="bold" font-size="11.00" fill="#000000">moving_object</text>
<text text-anchor="start" x="300.5437" y="-208.8" font-family="Helvetica,sans-Serif" font-size="11.00" fill="#000000">[table]</text>
<polygon fill="none" stroke="#000000" points="156.5,-178.7 156.5,-200.7 274.5,-200.7 274.5,-178.7 156.5,-178.7"/>
<image xlink:href="../../images/primaryKeys.png" width="11px" height="12px" preserveAspectRatio="xMinYMin meet" x="161.5" y="-195.7"/>
<text text-anchor="start" x="176.5" y="-185.8" font-family="Helvetica,sans-Serif" font-size="11.00" fill="#000000">mo_id</text>
<polygon fill="none" stroke="#000000" points="274.5,-178.7 274.5,-200.7 335.5,-200.7 335.5,-178.7 274.5,-178.7"/>
<text text-anchor="start" x="277.5" y="-186.4" font-family="Helvetica,sans-Serif" font-size="11.00" fill="#000000">int4[10]</text>
<polygon fill="#ffffff" stroke="transparent" points="156.5,-156.7 156.5,-178.7 274.5,-178.7 274.5,-156.7 156.5,-156.7"/>
<polygon fill="none" stroke="#000000" points="156.5,-156.7 156.5,-178.7 274.5,-178.7 274.5,-156.7 156.5,-156.7"/>
<text text-anchor="start" x="176.5" y="-163.8" font-family="Helvetica,sans-Serif" font-size="11.00" fill="#000000">description</text>
<polygon fill="none" stroke="#000000" points="274.5,-156.7 274.5,-178.7 335.5,-178.7 335.5,-156.7 274.5,-156.7"/>
<text text-anchor="start" x="277.494" y="-164.4" font-family="Helvetica,sans-Serif" font-size="11.00" fill="#000000">varchar[50]</text>
<polygon fill="#ffffff" stroke="transparent" points="156.5,-134.7 156.5,-156.7 274.5,-156.7 274.5,-134.7 156.5,-134.7"/>
<polygon fill="none" stroke="#000000" points="156.5,-134.7 156.5,-156.7 274.5,-156.7 274.5,-134.7 156.5,-134.7"/>
<image xlink:href="../../images/foreignKeys.png" width="11px" height="12px" preserveAspectRatio="xMinYMin meet" x="161.5" y="-151.7"/>
<text text-anchor="start" x="176.5" y="-141.8" font-family="Helvetica,sans-Serif" font-size="11.00" fill="#000000">mo_type_id</text>
<polygon fill="none" stroke="#000000" points="274.5,-134.7 274.5,-156.7 335.5,-156.7 335.5,-134.7 274.5,-134.7"/>
<text text-anchor="start" x="277.5" y="-142.4" font-family="Helvetica,sans-Serif" font-size="11.00" fill="#000000">int4[10]</text>
<polygon fill="#ffffff" stroke="transparent" points="156.5,-115.7 156.5,-134.7 196.5,-134.7 196.5,-115.7 156.5,-115.7"/>
<polygon fill="none" stroke="#000000" points="156.5,-115.7 156.5,-134.7 196.5,-134.7 196.5,-115.7 156.5,-115.7"/>
<text text-anchor="start" x="159.5" y="-121.8" font-family="Helvetica,sans-Serif" font-size="11.00" fill="#000000">&lt; 1</text>
<polygon fill="#ffffff" stroke="transparent" points="196.5,-115.7 196.5,-134.7 274.5,-134.7 274.5,-115.7 196.5,-115.7"/>
<polygon fill="none" stroke="#000000" points="196.5,-115.7 196.5,-134.7 274.5,-134.7 274.5,-115.7 196.5,-115.7"/>
<text text-anchor="start" x="217.7089" y="-121.8" font-family="Helvetica,sans-Serif" font-size="11.00" fill="#000000">3.376 rows</text>
<polygon fill="#ffffff" stroke="transparent" points="274.5,-115.7 274.5,-134.7 335.5,-134.7 335.5,-115.7 274.5,-115.7"/>
<polygon fill="none" stroke="#000000" points="274.5,-115.7 274.5,-134.7 335.5,-134.7 335.5,-115.7 274.5,-115.7"/>
<text text-anchor="start" x="316.9053" y="-121.8" font-family="Helvetica,sans-Serif" font-size="11.00" fill="#000000">4 &gt;</text>
<polygon fill="none" stroke="#000000" stroke-width="2" points="155,-114.7 155,-224.7 336,-224.7 336,-114.7 155,-114.7"/>
</a>
</g>
</g>
<!-- mat&#45;&gt;moving_object -->
<g id="edge1" class="edge">
<title>mat:w&#45;&gt;moving_object:e</title>
<path fill="none" stroke="#000000" d="M380.0381,-342.0097C333.6155,-321.4273 403.4522,-189.7 335.5,-189.7"/>
<polygon fill="#000000" stroke="#000000" points="386.6349,-343.2368 393.8416,-348.2393 390.5675,-343.9684 394.5,-344.7 394.5,-344.7 394.5,-344.7 390.5675,-343.9684 395.1584,-341.1607 386.6349,-343.2368 386.6349,-343.2368"/>
<ellipse fill="none" stroke="#000000" cx="383.4889" cy="-342.6516" rx="3.2" ry="3.2"/>
</g>
<!-- mo_type -->
<g id="node7" class="node">
<title>mo_type</title>
<g id="a_node7"><a xlink:href="../../tables/mo_type.html" xlink:title="mo_type" target="_top">
<polygon fill="#ffffff" stroke="transparent" points="8,-97.2 8,-180.2 105,-180.2 105,-97.2 8,-97.2"/>
<polygon fill="#f5f5f5" stroke="transparent" points="8.5,-156.7 8.5,-179.7 105.5,-179.7 105.5,-156.7 8.5,-156.7"/>
<polygon fill="none" stroke="#000000" points="8.5,-156.7 8.5,-179.7 105.5,-179.7 105.5,-156.7 8.5,-156.7"/>
<text text-anchor="start" x="13.5" y="-165.3" font-family="Helvetica,sans-Serif" font-weight="bold" font-size="11.00" fill="#000000">mo_type</text>
<text text-anchor="start" x="71.0219" y="-164.8" font-family="Helvetica,sans-Serif" font-size="11.00" fill="#000000">[table]</text>
<polygon fill="none" stroke="#000000" points="8.5,-134.7 8.5,-156.7 105.5,-156.7 105.5,-134.7 8.5,-134.7"/>
<image xlink:href="../../images/primaryKeys.png" width="11px" height="12px" preserveAspectRatio="xMinYMin meet" x="13.5" y="-151.7"/>
<text text-anchor="start" x="28.5" y="-141.8" font-family="Helvetica,sans-Serif" font-size="11.00" fill="#000000">mo_type_id</text>
<polygon fill="none" stroke="#000000" points="8.5,-115.7 8.5,-134.7 105.5,-134.7 105.5,-115.7 8.5,-115.7"/>
<text text-anchor="start" x="11.5" y="-121.8" font-family="Helvetica,sans-Serif" font-size="11.00" fill="#000000">...</text>
<polygon fill="#ffffff" stroke="transparent" points="8.5,-96.7 8.5,-115.7 36.5,-115.7 36.5,-96.7 8.5,-96.7"/>
<polygon fill="none" stroke="#000000" points="8.5,-96.7 8.5,-115.7 36.5,-115.7 36.5,-96.7 8.5,-96.7"/>
<text text-anchor="start" x="11.5" y="-102.8" font-family="Helvetica,sans-Serif" font-size="11.00" fill="#000000"> &#160;</text>
<polygon fill="#ffffff" stroke="transparent" points="36.5,-96.7 36.5,-115.7 76.5,-115.7 76.5,-96.7 36.5,-96.7"/>
<polygon fill="none" stroke="#000000" points="36.5,-96.7 36.5,-115.7 76.5,-115.7 76.5,-96.7 36.5,-96.7"/>
<text text-anchor="start" x="46.6105" y="-102.8" font-family="Helvetica,sans-Serif" font-size="11.00" fill="#000000">1 row</text>
<polygon fill="#ffffff" stroke="transparent" points="76.5,-96.7 76.5,-115.7 105.5,-115.7 105.5,-96.7 76.5,-96.7"/>
<polygon fill="none" stroke="#000000" points="76.5,-96.7 76.5,-115.7 105.5,-115.7 105.5,-96.7 76.5,-96.7"/>
<text text-anchor="start" x="86.9053" y="-102.8" font-family="Helvetica,sans-Serif" font-size="11.00" fill="#000000">1 &gt;</text>
</a>
</g>
</g>
<!-- moving_object&#45;&gt;mo_type -->
<g id="edge8" class="edge">
<title>moving_object:w&#45;&gt;mo_type:e</title>
<path fill="none" stroke="#000000" d="M141.776,-145.7C129.7815,-145.7 122.3229,-145.7 105.5,-145.7"/>
<polygon fill="#000000" stroke="#000000" points="148.5,-145.7001 156.5,-149.3 152.5,-145.7 156.5,-145.7 156.5,-145.7 156.5,-145.7 152.5,-145.7 156.5,-142.1 148.5,-145.7001 148.5,-145.7001"/>
<ellipse fill="none" stroke="#000000" cx="145.3" cy="-145.7001" rx="3.2" ry="3.2"/>
</g>
<!-- mo_aspect -->
<g id="node3" class="node">
<title>mo_aspect</title>
<g id="a_node3"><a xlink:href="../../tables/mo_aspect.html" xlink:title="mo_aspect" target="_top">
<polygon fill="#ffffff" stroke="transparent" points="585,-197.2 585,-302.2 695,-302.2 695,-197.2 585,-197.2"/>
<polygon fill="#f5f5f5" stroke="transparent" points="585,-278.7 585,-301.7 695,-301.7 695,-278.7 585,-278.7"/>
<polygon fill="none" stroke="#000000" points="585,-278.7 585,-301.7 695,-301.7 695,-278.7 585,-278.7"/>
<text text-anchor="start" x="590" y="-287.3" font-family="Helvetica,sans-Serif" font-weight="bold" font-size="11.00" fill="#000000">mo_aspect</text>
<text text-anchor="start" x="660.5219" y="-286.8" font-family="Helvetica,sans-Serif" font-size="11.00" fill="#000000">[table]</text>
<polygon fill="none" stroke="#000000" points="585,-256.7 585,-278.7 695,-278.7 695,-256.7 585,-256.7"/>
<image xlink:href="../../images/primaryKeys.png" width="11px" height="12px" preserveAspectRatio="xMinYMin meet" x="590" y="-273.7"/>
<text text-anchor="start" x="614" y="-263.8" font-family="Helvetica,sans-Serif" font-size="11.00" fill="#000000">mo_id</text>
<polygon fill="none" stroke="#000000" points="585,-234.7 585,-256.7 695,-256.7 695,-234.7 585,-234.7"/>
<image xlink:href="../../images/primaryKeys.png" width="11px" height="12px" preserveAspectRatio="xMinYMin meet" x="590" y="-251.7"/>
<text text-anchor="start" x="614" y="-241.8" font-family="Helvetica,sans-Serif" font-size="11.00" fill="#000000">aspect_id</text>
<polygon fill="none" stroke="#000000" points="585,-215.7 585,-234.7 695,-234.7 695,-215.7 585,-215.7"/>
<text text-anchor="start" x="588" y="-221.8" font-family="Helvetica,sans-Serif" font-size="11.00" fill="#000000">...</text>
<polygon fill="#ffffff" stroke="transparent" points="585,-196.7 585,-215.7 625,-215.7 625,-196.7 585,-196.7"/>
<polygon fill="none" stroke="#000000" points="585,-196.7 585,-215.7 625,-215.7 625,-196.7 585,-196.7"/>
<text text-anchor="start" x="588" y="-202.8" font-family="Helvetica,sans-Serif" font-size="11.00" fill="#000000">&lt; 2</text>
<polygon fill="#ffffff" stroke="transparent" points="625,-196.7 625,-215.7 673,-215.7 673,-196.7 625,-196.7"/>
<polygon fill="none" stroke="#000000" points="625,-196.7 625,-215.7 673,-215.7 673,-196.7 625,-196.7"/>
<text text-anchor="start" x="637.6105" y="-202.8" font-family="Helvetica,sans-Serif" font-size="11.00" fill="#000000">0 rows</text>
<polygon fill="#ffffff" stroke="transparent" points="673,-196.7 673,-215.7 695,-215.7 695,-196.7 673,-196.7"/>
<polygon fill="none" stroke="#000000" points="673,-196.7 673,-215.7 695,-215.7 695,-196.7 673,-196.7"/>
<text text-anchor="start" x="685.8862" y="-202.8" font-family="Helvetica,sans-Serif" font-size="11.00" fill="#000000"> &#160;</text>
</a>
</g>
</g>
<!-- mo_aspect&#45;&gt;moving_object -->
<g id="edge3" class="edge">
<title>mo_aspect:w&#45;&gt;moving_object:e</title>
<path fill="none" stroke="#000000" d="M570.3807,-268.0086C488.8856,-271.4524 453.1144,-301.7345 378,-257.7 347.2542,-239.6758 371.1395,-189.7 335.5,-189.7"/>
<polygon fill="#000000" stroke="#000000" points="577.0018,-267.8689 585.076,-271.2992 581.0009,-267.7845 585,-267.7 585,-267.7 585,-267.7 581.0009,-267.7845 584.924,-264.1008 577.0018,-267.8689 577.0018,-267.8689"/>
<ellipse fill="none" stroke="#000000" cx="573.8025" cy="-267.9365" rx="3.2" ry="3.2"/>
</g>
<!-- aspect -->
<g id="node4" class="node">
<title>aspect</title>
<g id="a_node4"><a xlink:href="../../tables/aspect.html" xlink:title="aspect" target="_top">
<polygon fill="#ffffff" stroke="transparent" points="402.5,-186.2 402.5,-247.2 516.5,-247.2 516.5,-186.2 402.5,-186.2"/>
<polygon fill="#f5f5f5" stroke="transparent" points="402.5,-223.7 402.5,-246.7 516.5,-246.7 516.5,-223.7 402.5,-223.7"/>
<polygon fill="none" stroke="#000000" points="402.5,-223.7 402.5,-246.7 516.5,-246.7 516.5,-223.7 402.5,-223.7"/>
<text text-anchor="start" x="407.5" y="-232.3" font-family="Helvetica,sans-Serif" font-weight="bold" font-size="11.00" fill="#000000">aspect</text>
<text text-anchor="start" x="481.5437" y="-231.8" font-family="Helvetica,sans-Serif" font-size="11.00" fill="#000000">[table]</text>
<polygon fill="none" stroke="#000000" points="402.5,-204.7 402.5,-223.7 516.5,-223.7 516.5,-204.7 402.5,-204.7"/>
<text text-anchor="start" x="405.5" y="-210.8" font-family="Helvetica,sans-Serif" font-size="11.00" fill="#000000">...</text>
<polygon fill="#ffffff" stroke="transparent" points="402.5,-185.7 402.5,-204.7 423.5,-204.7 423.5,-185.7 402.5,-185.7"/>
<polygon fill="none" stroke="#000000" points="402.5,-185.7 402.5,-204.7 423.5,-204.7 423.5,-185.7 402.5,-185.7"/>
<text text-anchor="start" x="405.2027" y="-191.8" font-family="Helvetica,sans-Serif" font-size="11.00" fill="#000000">&lt; 1</text>
<polygon fill="#ffffff" stroke="transparent" points="423.5,-185.7 423.5,-204.7 495.5,-204.7 495.5,-185.7 423.5,-185.7"/>
<polygon fill="none" stroke="#000000" points="423.5,-185.7 423.5,-204.7 495.5,-204.7 495.5,-185.7 423.5,-185.7"/>
<text text-anchor="start" x="426.4896" y="-191.8" font-family="Helvetica,sans-Serif" font-size="11.00" fill="#000000">100.191 rows</text>
<polygon fill="#ffffff" stroke="transparent" points="495.5,-185.7 495.5,-204.7 516.5,-204.7 516.5,-185.7 495.5,-185.7"/>
<polygon fill="none" stroke="#000000" points="495.5,-185.7 495.5,-204.7 516.5,-204.7 516.5,-185.7 495.5,-185.7"/>
<text text-anchor="start" x="498.2027" y="-191.8" font-family="Helvetica,sans-Serif" font-size="11.00" fill="#000000">5 &gt;</text>
</a>
</g>
</g>
<!-- mo_aspect&#45;&gt;aspect -->
<g id="edge2" class="edge">
<title>mo_aspect:w&#45;&gt;aspect:e</title>
<path fill="none" stroke="#000000" d="M570.7847,-243.3986C550.1029,-236.0613 544.5897,-213.7 516.5,-213.7"/>
<polygon fill="#000000" stroke="#000000" points="577.1028,-244.4215 584.4247,-249.2537 581.0514,-245.0607 585,-245.7 585,-245.7 585,-245.7 581.0514,-245.0607 585.5753,-242.1463 577.1028,-244.4215 577.1028,-244.4215"/>
<ellipse fill="none" stroke="#000000" cx="573.9439" cy="-243.91" rx="3.2" ry="3.2"/>
</g>
<!-- mo_relationship -->
<g id="node5" class="node">
<title>mo_relationship</title>
<g id="a_node5"><a xlink:href="../../tables/mo_relationship.html" xlink:title="mo_relationship" target="_top">
<polygon fill="#ffffff" stroke="transparent" points="386,-38.2 386,-165.2 533,-165.2 533,-38.2 386,-38.2"/>
<polygon fill="#f5f5f5" stroke="transparent" points="386.5,-141.7 386.5,-164.7 533.5,-164.7 533.5,-141.7 386.5,-141.7"/>
<polygon fill="none" stroke="#000000" points="386.5,-141.7 386.5,-164.7 533.5,-164.7 533.5,-141.7 386.5,-141.7"/>
<text text-anchor="start" x="391.5" y="-150.3" font-family="Helvetica,sans-Serif" font-weight="bold" font-size="11.00" fill="#000000">mo_relationship</text>
<text text-anchor="start" x="499.0219" y="-149.8" font-family="Helvetica,sans-Serif" font-size="11.00" fill="#000000">[table]</text>
<polygon fill="none" stroke="#000000" points="386.5,-119.7 386.5,-141.7 533.5,-141.7 533.5,-119.7 386.5,-119.7"/>
<image xlink:href="../../images/primaryKeys.png" width="11px" height="12px" preserveAspectRatio="xMinYMin meet" x="391.5" y="-136.7"/>
<text text-anchor="start" x="415.5" y="-126.8" font-family="Helvetica,sans-Serif" font-size="11.00" fill="#000000">mor_id</text>
<polygon fill="#ffffff" stroke="transparent" points="386.5,-97.7 386.5,-119.7 533.5,-119.7 533.5,-97.7 386.5,-97.7"/>
<polygon fill="none" stroke="#000000" points="386.5,-97.7 386.5,-119.7 533.5,-119.7 533.5,-97.7 386.5,-97.7"/>
<image xlink:href="../../images/foreignKeys.png" width="11px" height="12px" preserveAspectRatio="xMinYMin meet" x="391.5" y="-114.7"/>
<text text-anchor="start" x="415.5" y="-104.8" font-family="Helvetica,sans-Serif" font-size="11.00" fill="#000000">mo_target</text>
<polygon fill="#ffffff" stroke="transparent" points="386.5,-75.7 386.5,-97.7 533.5,-97.7 533.5,-75.7 386.5,-75.7"/>
<polygon fill="none" stroke="#000000" points="386.5,-75.7 386.5,-97.7 533.5,-97.7 533.5,-75.7 386.5,-75.7"/>
<image xlink:href="../../images/foreignKeys.png" width="11px" height="12px" preserveAspectRatio="xMinYMin meet" x="391.5" y="-92.7"/>
<text text-anchor="start" x="415.5" y="-82.8" font-family="Helvetica,sans-Serif" font-size="11.00" fill="#000000">mo_source</text>
<polygon fill="none" stroke="#000000" points="386.5,-56.7 386.5,-75.7 533.5,-75.7 533.5,-56.7 386.5,-56.7"/>
<text text-anchor="start" x="389.5" y="-62.8" font-family="Helvetica,sans-Serif" font-size="11.00" fill="#000000">...</text>
<polygon fill="#ffffff" stroke="transparent" points="386.5,-37.7 386.5,-56.7 440.5,-56.7 440.5,-37.7 386.5,-37.7"/>
<polygon fill="none" stroke="#000000" points="386.5,-37.7 386.5,-56.7 440.5,-56.7 440.5,-37.7 386.5,-37.7"/>
<text text-anchor="start" x="389.5" y="-43.8" font-family="Helvetica,sans-Serif" font-size="11.00" fill="#000000">&lt; 2</text>
<polygon fill="#ffffff" stroke="transparent" points="440.5,-37.7 440.5,-56.7 495.5,-56.7 495.5,-37.7 440.5,-37.7"/>
<polygon fill="none" stroke="#000000" points="440.5,-37.7 440.5,-56.7 495.5,-56.7 495.5,-37.7 440.5,-37.7"/>
<text text-anchor="start" x="460.1105" y="-43.8" font-family="Helvetica,sans-Serif" font-size="11.00" fill="#000000">0 rows</text>
<polygon fill="#ffffff" stroke="transparent" points="495.5,-37.7 495.5,-56.7 533.5,-56.7 533.5,-37.7 495.5,-37.7"/>
<polygon fill="none" stroke="#000000" points="495.5,-37.7 495.5,-56.7 533.5,-56.7 533.5,-37.7 495.5,-37.7"/>
<text text-anchor="start" x="514.9053" y="-43.8" font-family="Helvetica,sans-Serif" font-size="11.00" fill="#000000">1 &gt;</text>
</a>
</g>
</g>
<!-- mo_relationship&#45;&gt;moving_object -->
<g id="edge4" class="edge">
<title>mo_relationship:w&#45;&gt;moving_object:e</title>
<path fill="none" stroke="#000000" d="M372.4248,-90.6119C346.0054,-109.4261 380.5959,-189.7 335.5,-189.7"/>
<polygon fill="#000000" stroke="#000000" points="378.7922,-88.8423 387.464,-90.1685 382.6461,-87.7711 386.5,-86.7 386.5,-86.7 386.5,-86.7 382.6461,-87.7711 385.536,-83.2315 378.7922,-88.8423 378.7922,-88.8423"/>
<ellipse fill="none" stroke="#000000" cx="375.709" cy="-89.6992" rx="3.2" ry="3.2"/>
</g>
<!-- mo_relationship&#45;&gt;moving_object -->
<g id="edge5" class="edge">
<title>mo_relationship:w&#45;&gt;moving_object:e</title>
<path fill="none" stroke="#000000" d="M372.6725,-113.0549C352.0291,-129.8794 372.0591,-189.7 335.5,-189.7"/>
<polygon fill="#000000" stroke="#000000" points="378.8695,-111.1032 387.5815,-112.1337 382.6847,-109.9016 386.5,-108.7 386.5,-108.7 386.5,-108.7 382.6847,-109.9016 385.4185,-105.2663 378.8695,-111.1032 378.8695,-111.1032"/>
<ellipse fill="none" stroke="#000000" cx="375.8173" cy="-112.0645" rx="3.2" ry="3.2"/>
</g>
<!-- mor_aspect -->
<g id="node6" class="node">
<title>mor_aspect</title>
<g id="a_node6"><a xlink:href="../../tables/mor_aspect.html" xlink:title="mor_aspect" target="_top">
<polygon fill="#ffffff" stroke="transparent" points="582,-111.2 582,-172.2 698,-172.2 698,-111.2 582,-111.2"/>
<polygon fill="#f5f5f5" stroke="transparent" points="582,-148.7 582,-171.7 698,-171.7 698,-148.7 582,-148.7"/>
<polygon fill="none" stroke="#000000" points="582,-148.7 582,-171.7 698,-171.7 698,-148.7 582,-148.7"/>
<text text-anchor="start" x="587" y="-157.3" font-family="Helvetica,sans-Serif" font-weight="bold" font-size="11.00" fill="#000000">mor_aspect</text>
<text text-anchor="start" x="663.5219" y="-156.8" font-family="Helvetica,sans-Serif" font-size="11.00" fill="#000000">[table]</text>
<polygon fill="none" stroke="#000000" points="582,-129.7 582,-148.7 698,-148.7 698,-129.7 582,-129.7"/>
<text text-anchor="start" x="585" y="-135.8" font-family="Helvetica,sans-Serif" font-size="11.00" fill="#000000">...</text>
<polygon fill="#ffffff" stroke="transparent" points="582,-110.7 582,-129.7 625,-129.7 625,-110.7 582,-110.7"/>
<polygon fill="none" stroke="#000000" points="582,-110.7 582,-129.7 625,-129.7 625,-110.7 582,-110.7"/>
<text text-anchor="start" x="585" y="-116.8" font-family="Helvetica,sans-Serif" font-size="11.00" fill="#000000">&lt; 2</text>
<polygon fill="#ffffff" stroke="transparent" points="625,-110.7 625,-129.7 674,-129.7 674,-110.7 625,-110.7"/>
<polygon fill="none" stroke="#000000" points="625,-110.7 625,-129.7 674,-129.7 674,-110.7 625,-110.7"/>
<text text-anchor="start" x="638.6105" y="-116.8" font-family="Helvetica,sans-Serif" font-size="11.00" fill="#000000">0 rows</text>
<polygon fill="#ffffff" stroke="transparent" points="674,-110.7 674,-129.7 698,-129.7 698,-110.7 674,-110.7"/>
<polygon fill="none" stroke="#000000" points="674,-110.7 674,-129.7 698,-129.7 698,-110.7 674,-110.7"/>
<text text-anchor="start" x="688.8862" y="-116.8" font-family="Helvetica,sans-Serif" font-size="11.00" fill="#000000"> &#160;</text>
</a>
</g>
</g>
<!-- mor_aspect&#45;&gt;aspect -->
<g id="edge6" class="edge">
<title>mor_aspect:w&#45;&gt;aspect:e</title>
<path fill="none" stroke="#000000" d="M567.9506,-142.1175C542.5592,-156.7897 555.0509,-213.7 516.5,-213.7"/>
<polygon fill="#000000" stroke="#000000" points="574.2267,-140.5909 582.8509,-142.198 578.1133,-139.6454 582,-138.7 582,-138.7 582,-138.7 578.1133,-139.6454 581.1491,-135.202 574.2267,-140.5909 574.2267,-140.5909"/>
<ellipse fill="none" stroke="#000000" cx="571.1173" cy="-141.3472" rx="3.2" ry="3.2"/>
</g>
<!-- mor_aspect&#45;&gt;mo_relationship -->
<g id="edge7" class="edge">
<title>mor_aspect:w&#45;&gt;mo_relationship:e</title>
<path fill="none" stroke="#000000" d="M567.559,-137.3065C556.3975,-135.0145 549.5438,-130.7 533.5,-130.7"/>
<polygon fill="#000000" stroke="#000000" points="574.037,-137.9316 581.6542,-142.2834 578.0185,-138.3158 582,-138.7 582,-138.7 582,-138.7 578.0185,-138.3158 582.3458,-135.1166 574.037,-137.9316 574.037,-137.9316"/>
<ellipse fill="none" stroke="#000000" cx="570.8518" cy="-137.6242" rx="3.2" ry="3.2"/>
</g>
</g>
</svg>
