<?xml version="1.0" encoding="UTF-8" standalone="no"?>
<!DOCTYPE svg PUBLIC "-//W3C//DTD SVG 1.1//EN"
 "http://www.w3.org/Graphics/SVG/1.1/DTD/svg11.dtd">
<!-- Generated by graphviz version 2.40.1 (20161225.0304)
 -->
<!-- Title: oneDegreeRelationshipsDiagramImplied Pages: 1 -->
<svg width="366pt" height="223pt"
 viewBox="0.00 0.00 366.00 222.70" xmlns="http://www.w3.org/2000/svg" xmlns:xlink="http://www.w3.org/1999/xlink">
<g id="graph0" class="graph" transform="scale(1 1) rotate(0) translate(4 218.7)">
<title>oneDegreeRelationshipsDiagramImplied</title>
<polygon fill="#ffffff" stroke="transparent" points="-4,4 -4,-218.7 362,-218.7 362,4 -4,4"/>
<text text-anchor="middle" x="72.4936" y="-7.3" font-family="Helvetica,sans-Serif" font-size="11.00" fill="#000000">Generated by SchemaSpy</text>
<!-- point -->
<g id="node1" class="node">
<title>point</title>
<g id="a_node1"><a xlink:href="../../tables/point.html" xlink:title="point" target="_top">
<polygon fill="#ffffff" stroke="transparent" points="188,-76.7 188,-210.7 350,-210.7 350,-76.7 188,-76.7"/>
<polygon fill="#f5f5f5" stroke="transparent" points="190,-185.7 190,-208.7 348,-208.7 348,-185.7 190,-185.7"/>
<polygon fill="none" stroke="#000000" points="190,-185.7 190,-208.7 348,-208.7 348,-185.7 190,-185.7"/>
<text text-anchor="start" x="195" y="-194.3" font-family="Helvetica,sans-Serif" font-weight="bold" font-size="11.00" fill="#000000">point</text>
<text text-anchor="start" x="313.0437" y="-193.8" font-family="Helvetica,sans-Serif" font-size="11.00" fill="#000000">[table]</text>
<polygon fill="none" stroke="#000000" points="190,-163.7 190,-185.7 264,-185.7 264,-163.7 190,-163.7"/>
<image xlink:href="../../images/primaryKeys.png" width="11px" height="12px" preserveAspectRatio="xMinYMin meet" x="195" y="-180.7"/>
<text text-anchor="start" x="210" y="-170.8" font-family="Helvetica,sans-Serif" font-size="11.00" fill="#000000">point_id</text>
<polygon fill="none" stroke="#000000" points="264,-163.7 264,-185.7 348,-185.7 348,-163.7 264,-163.7"/>
<text text-anchor="start" x="267" y="-171.4" font-family="Helvetica,sans-Serif" font-size="11.00" fill="#000000">int4[10]</text>
<polygon fill="none" stroke="#000000" points="190,-141.7 190,-163.7 264,-163.7 264,-141.7 190,-141.7"/>
<text text-anchor="start" x="210" y="-148.8" font-family="Helvetica,sans-Serif" font-size="11.00" fill="#000000">p_order</text>
<polygon fill="none" stroke="#000000" points="264,-141.7 264,-163.7 348,-163.7 348,-141.7 264,-141.7"/>
<text text-anchor="start" x="267" y="-149.4" font-family="Helvetica,sans-Serif" font-size="11.00" fill="#000000">int4[10]</text>
<polygon fill="#ffffff" stroke="transparent" points="190,-119.7 190,-141.7 264,-141.7 264,-119.7 190,-119.7"/>
<polygon fill="none" stroke="#000000" points="190,-119.7 190,-141.7 264,-141.7 264,-119.7 190,-119.7"/>
<image xlink:href="../../images/foreignKeys.png" width="11px" height="12px" preserveAspectRatio="xMinYMin meet" x="195" y="-136.7"/>
<text text-anchor="start" x="210" y="-126.8" font-family="Helvetica,sans-Serif" font-size="11.00" fill="#000000">mat_id</text>
<polygon fill="none" stroke="#000000" points="264,-119.7 264,-141.7 348,-141.7 348,-119.7 264,-119.7"/>
<text text-anchor="start" x="267" y="-127.4" font-family="Helvetica,sans-Serif" font-size="11.00" fill="#000000">int4[10]</text>
<polygon fill="none" stroke="#000000" points="190,-97.7 190,-119.7 264,-119.7 264,-97.7 190,-97.7"/>
<text text-anchor="start" x="210" y="-104.8" font-family="Helvetica,sans-Serif" font-size="11.00" fill="#000000">t</text>
<polygon fill="none" stroke="#000000" points="264,-97.7 264,-119.7 348,-119.7 348,-97.7 264,-97.7"/>
<text text-anchor="start" x="266.8807" y="-105.4" font-family="Helvetica,sans-Serif" font-size="11.00" fill="#000000">timestamp[29,6]</text>
<polygon fill="#ffffff" stroke="transparent" points="190,-78.7 190,-97.7 218,-97.7 218,-78.7 190,-78.7"/>
<polygon fill="none" stroke="#000000" points="190,-78.7 190,-97.7 218,-97.7 218,-78.7 190,-78.7"/>
<text text-anchor="start" x="193" y="-84.8" font-family="Helvetica,sans-Serif" font-size="11.00" fill="#000000">&lt; 1</text>
<polygon fill="#ffffff" stroke="transparent" points="218,-78.7 218,-97.7 264,-97.7 264,-78.7 218,-78.7"/>
<polygon fill="none" stroke="#000000" points="218,-78.7 218,-97.7 264,-97.7 264,-78.7 218,-78.7"/>
<text text-anchor="start" x="228.6105" y="-84.8" font-family="Helvetica,sans-Serif" font-size="11.00" fill="#000000">0 rows</text>
<polygon fill="#ffffff" stroke="transparent" points="264,-78.7 264,-97.7 348,-97.7 348,-78.7 264,-78.7"/>
<polygon fill="none" stroke="#000000" points="264,-78.7 264,-97.7 348,-97.7 348,-78.7 264,-78.7"/>
<text text-anchor="start" x="329.4053" y="-84.8" font-family="Helvetica,sans-Serif" font-size="11.00" fill="#000000">0 &gt;</text>
<polygon fill="none" stroke="#000000" stroke-width="2" points="189,-77.7 189,-209.7 349,-209.7 349,-77.7 189,-77.7"/>
</a>
</g>
</g>
<!-- mat -->
<g id="node2" class="node">
<title>mat</title>
<g id="a_node2"><a xlink:href="../../tables/mat.html" xlink:title="mat" target="_top">
<polygon fill="#ffffff" stroke="transparent" points="8,-38.2 8,-165.2 139,-165.2 139,-38.2 8,-38.2"/>
<polygon fill="#f5f5f5" stroke="transparent" points="8.5,-141.7 8.5,-164.7 139.5,-164.7 139.5,-141.7 8.5,-141.7"/>
<polygon fill="none" stroke="#000000" points="8.5,-141.7 8.5,-164.7 139.5,-164.7 139.5,-141.7 8.5,-141.7"/>
<text text-anchor="start" x="13.5" y="-150.3" font-family="Helvetica,sans-Serif" font-weight="bold" font-size="11.00" fill="#000000">mat</text>
<text text-anchor="start" x="104.5437" y="-149.8" font-family="Helvetica,sans-Serif" font-size="11.00" fill="#000000">[table]</text>
<polygon fill="none" stroke="#000000" points="8.5,-119.7 8.5,-141.7 139.5,-141.7 139.5,-119.7 8.5,-119.7"/>
<image xlink:href="../../images/primaryKeys.png" width="11px" height="12px" preserveAspectRatio="xMinYMin meet" x="13.5" y="-136.7"/>
<text text-anchor="start" x="28.5" y="-126.8" font-family="Helvetica,sans-Serif" font-size="11.00" fill="#000000">mat_id</text>
<polygon fill="#ffffff" stroke="transparent" points="8.5,-97.7 8.5,-119.7 139.5,-119.7 139.5,-97.7 8.5,-97.7"/>
<polygon fill="none" stroke="#000000" points="8.5,-97.7 8.5,-119.7 139.5,-119.7 139.5,-97.7 8.5,-97.7"/>
<text text-anchor="start" x="28.5" y="-104.8" font-family="Helvetica,sans-Serif" font-size="11.00" fill="#000000">description</text>
<polygon fill="#ffffff" stroke="transparent" points="8.5,-75.7 8.5,-97.7 139.5,-97.7 139.5,-75.7 8.5,-75.7"/>
<polygon fill="none" stroke="#000000" points="8.5,-75.7 8.5,-97.7 139.5,-97.7 139.5,-75.7 8.5,-75.7"/>
<image xlink:href="../../images/foreignKeys.png" width="11px" height="12px" preserveAspectRatio="xMinYMin meet" x="13.5" y="-92.7"/>
<text text-anchor="start" x="28.5" y="-82.8" font-family="Helvetica,sans-Serif" font-size="11.00" fill="#000000">mo_id</text>
<polygon fill="none" stroke="#000000" points="8.5,-56.7 8.5,-75.7 139.5,-75.7 139.5,-56.7 8.5,-56.7"/>
<text text-anchor="start" x="11.5" y="-62.8" font-family="Helvetica,sans-Serif" font-size="11.00" fill="#000000">...</text>
<polygon fill="#ffffff" stroke="transparent" points="8.5,-37.7 8.5,-56.7 54.5,-56.7 54.5,-37.7 8.5,-37.7"/>
<polygon fill="none" stroke="#000000" points="8.5,-37.7 8.5,-56.7 54.5,-56.7 54.5,-37.7 8.5,-37.7"/>
<text text-anchor="start" x="11.5" y="-43.8" font-family="Helvetica,sans-Serif" font-size="11.00" fill="#000000">&lt; 1</text>
<polygon fill="#ffffff" stroke="transparent" points="54.5,-37.7 54.5,-56.7 105.5,-56.7 105.5,-37.7 54.5,-37.7"/>
<polygon fill="none" stroke="#000000" points="54.5,-37.7 54.5,-56.7 105.5,-56.7 105.5,-37.7 54.5,-37.7"/>
<text text-anchor="start" x="70.1105" y="-43.8" font-family="Helvetica,sans-Serif" font-size="11.00" fill="#000000">0 rows</text>
<polygon fill="#ffffff" stroke="transparent" points="105.5,-37.7 105.5,-56.7 139.5,-56.7 139.5,-37.7 105.5,-37.7"/>
<polygon fill="none" stroke="#000000" points="105.5,-37.7 105.5,-56.7 139.5,-56.7 139.5,-37.7 105.5,-37.7"/>
<text text-anchor="start" x="120.9053" y="-43.8" font-family="Helvetica,sans-Serif" font-size="11.00" fill="#000000">1 &gt;</text>
</a>
</g>
</g>
<!-- point&#45;&gt;mat -->
<g id="edge1" class="edge">
<title>point:w&#45;&gt;mat:e</title>
<path fill="none" stroke="#000000" stroke-dasharray="5,2" d="M175.4203,-130.7C163.5435,-130.7 156.158,-130.7 139.5,-130.7"/>
<polygon fill="#000000" stroke="#000000" points="182,-130.7001 190,-134.3 186,-130.7 190,-130.7 190,-130.7 190,-130.7 186,-130.7 190,-127.1 182,-130.7001 182,-130.7001"/>
<ellipse fill="none" stroke="#000000" cx="178.8" cy="-130.7001" rx="3.2" ry="3.2"/>
</g>
</g>
</svg>
