<?xml version="1.0" encoding="UTF-8" standalone="no"?>
<!DOCTYPE svg PUBLIC "-//W3C//DTD SVG 1.1//EN"
 "http://www.w3.org/Graphics/SVG/1.1/DTD/svg11.dtd">
<!-- Generated by graphviz version 2.40.1 (20161225.0304)
 -->
<!-- Title: twoDegreesRelationshipsDiagram Pages: 1 -->
<svg width="388pt" height="267pt"
 viewBox="0.00 0.00 388.00 266.70" xmlns="http://www.w3.org/2000/svg" xmlns:xlink="http://www.w3.org/1999/xlink">
<g id="graph0" class="graph" transform="scale(1 1) rotate(0) translate(4 262.7)">
<title>twoDegreesRelationshipsDiagram</title>
<polygon fill="#ffffff" stroke="transparent" points="-4,4 -4,-262.7 384,-262.7 384,4 -4,4"/>
<text text-anchor="middle" x="72.4936" y="-7.3" font-family="Helvetica,sans-Serif" font-size="11.00" fill="#000000">Generated by SchemaSpy</text>
<!-- point_aspect -->
<g id="node1" class="node">
<title>point_aspect</title>
<g id="a_node1"><a xlink:href="../../tables/point_aspect.html" xlink:title="point_aspect" target="_top">
<polygon fill="#ffffff" stroke="transparent" points="247,-100.7 247,-186.7 372,-186.7 372,-100.7 247,-100.7"/>
<polygon fill="#f5f5f5" stroke="transparent" points="247.5,-163.7 247.5,-186.7 372.5,-186.7 372.5,-163.7 247.5,-163.7"/>
<polygon fill="none" stroke="#000000" points="247.5,-163.7 247.5,-186.7 372.5,-186.7 372.5,-163.7 247.5,-163.7"/>
<text text-anchor="start" x="252.5" y="-172.3" font-family="Helvetica,sans-Serif" font-weight="bold" font-size="11.00" fill="#000000">point_aspect</text>
<text text-anchor="start" x="338.0219" y="-171.8" font-family="Helvetica,sans-Serif" font-size="11.00" fill="#000000">[table]</text>
<polygon fill="none" stroke="#000000" points="247.5,-141.7 247.5,-163.7 372.5,-163.7 372.5,-141.7 247.5,-141.7"/>
<image xlink:href="../../images/primaryKeys.png" width="11px" height="12px" preserveAspectRatio="xMinYMin meet" x="252.5" y="-158.7"/>
<text text-anchor="start" x="276.5" y="-148.8" font-family="Helvetica,sans-Serif" font-size="11.00" fill="#000000">point_id</text>
<polygon fill="none" stroke="#000000" points="247.5,-119.7 247.5,-141.7 372.5,-141.7 372.5,-119.7 247.5,-119.7"/>
<image xlink:href="../../images/primaryKeys.png" width="11px" height="12px" preserveAspectRatio="xMinYMin meet" x="252.5" y="-136.7"/>
<text text-anchor="start" x="276.5" y="-126.8" font-family="Helvetica,sans-Serif" font-size="11.00" fill="#000000">aspect_id</text>
<polygon fill="#ffffff" stroke="transparent" points="247.5,-100.7 247.5,-119.7 278.5,-119.7 278.5,-100.7 247.5,-100.7"/>
<polygon fill="none" stroke="#000000" points="247.5,-100.7 247.5,-119.7 278.5,-119.7 278.5,-100.7 247.5,-100.7"/>
<text text-anchor="start" x="250.5" y="-106.8" font-family="Helvetica,sans-Serif" font-size="11.00" fill="#000000">&lt; 2</text>
<polygon fill="#ffffff" stroke="transparent" points="278.5,-100.7 278.5,-119.7 355.5,-119.7 355.5,-100.7 278.5,-100.7"/>
<polygon fill="none" stroke="#000000" points="278.5,-100.7 278.5,-119.7 355.5,-119.7 355.5,-100.7 278.5,-100.7"/>
<text text-anchor="start" x="286.4791" y="-106.8" font-family="Helvetica,sans-Serif" font-size="11.00" fill="#000000">474.040 rows</text>
<polygon fill="#ffffff" stroke="transparent" points="355.5,-100.7 355.5,-119.7 372.5,-119.7 372.5,-100.7 355.5,-100.7"/>
<polygon fill="none" stroke="#000000" points="355.5,-100.7 355.5,-119.7 372.5,-119.7 372.5,-100.7 355.5,-100.7"/>
<text text-anchor="start" x="363.3862" y="-106.8" font-family="Helvetica,sans-Serif" font-size="11.00" fill="#000000"> &#160;</text>
</a>
</g>
</g>
<!-- aspect -->
<g id="node2" class="node">
<title>aspect</title>
<g id="a_node2"><a xlink:href="../../tables/aspect.html" xlink:title="aspect" target="_top">
<polygon fill="#ffffff" stroke="transparent" points="46,-38.2 46,-99.2 160,-99.2 160,-38.2 46,-38.2"/>
<polygon fill="#f5f5f5" stroke="transparent" points="46,-75.7 46,-98.7 160,-98.7 160,-75.7 46,-75.7"/>
<polygon fill="none" stroke="#000000" points="46,-75.7 46,-98.7 160,-98.7 160,-75.7 46,-75.7"/>
<text text-anchor="start" x="51" y="-84.3" font-family="Helvetica,sans-Serif" font-weight="bold" font-size="11.00" fill="#000000">aspect</text>
<text text-anchor="start" x="125.0437" y="-83.8" font-family="Helvetica,sans-Serif" font-size="11.00" fill="#000000">[table]</text>
<polygon fill="none" stroke="#000000" points="46,-56.7 46,-75.7 160,-75.7 160,-56.7 46,-56.7"/>
<text text-anchor="start" x="49" y="-62.8" font-family="Helvetica,sans-Serif" font-size="11.00" fill="#000000">...</text>
<polygon fill="#ffffff" stroke="transparent" points="46,-37.7 46,-56.7 67,-56.7 67,-37.7 46,-37.7"/>
<polygon fill="none" stroke="#000000" points="46,-37.7 46,-56.7 67,-56.7 67,-37.7 46,-37.7"/>
<text text-anchor="start" x="48.7027" y="-43.8" font-family="Helvetica,sans-Serif" font-size="11.00" fill="#000000">&lt; 1</text>
<polygon fill="#ffffff" stroke="transparent" points="67,-37.7 67,-56.7 139,-56.7 139,-37.7 67,-37.7"/>
<polygon fill="none" stroke="#000000" points="67,-37.7 67,-56.7 139,-56.7 139,-37.7 67,-37.7"/>
<text text-anchor="start" x="69.9896" y="-43.8" font-family="Helvetica,sans-Serif" font-size="11.00" fill="#000000">100.191 rows</text>
<polygon fill="#ffffff" stroke="transparent" points="139,-37.7 139,-56.7 160,-56.7 160,-37.7 139,-37.7"/>
<polygon fill="none" stroke="#000000" points="139,-37.7 139,-56.7 160,-56.7 160,-37.7 139,-37.7"/>
<text text-anchor="start" x="141.7027" y="-43.8" font-family="Helvetica,sans-Serif" font-size="11.00" fill="#000000">5 &gt;</text>
</a>
</g>
</g>
<!-- point_aspect&#45;&gt;aspect -->
<g id="edge1" class="edge">
<title>point_aspect:w&#45;&gt;aspect:e</title>
<path fill="none" stroke="#000000" d="M233.0947,-128.3866C200.4403,-116.8076 202.957,-65.7 160,-65.7"/>
<polygon fill="#000000" stroke="#000000" points="239.6012,-129.4315 246.9292,-134.2545 243.5506,-130.0657 247.5,-130.7 247.5,-130.7 247.5,-130.7 243.5506,-130.0657 248.0708,-127.1455 239.6012,-129.4315 239.6012,-129.4315"/>
<ellipse fill="none" stroke="#000000" cx="236.4417" cy="-128.9241" rx="3.2" ry="3.2"/>
</g>
<!-- point -->
<g id="node3" class="node">
<title>point</title>
<g id="a_node3"><a xlink:href="../../tables/point.html" xlink:title="point" target="_top">
<polygon fill="#ffffff" stroke="transparent" points="8,-120.7 8,-254.7 198,-254.7 198,-120.7 8,-120.7"/>
<polygon fill="#f5f5f5" stroke="transparent" points="10,-229.7 10,-252.7 196,-252.7 196,-229.7 10,-229.7"/>
<polygon fill="none" stroke="#000000" points="10,-229.7 10,-252.7 196,-252.7 196,-229.7 10,-229.7"/>
<text text-anchor="start" x="15" y="-238.3" font-family="Helvetica,sans-Serif" font-weight="bold" font-size="11.00" fill="#000000">point</text>
<text text-anchor="start" x="161.0437" y="-237.8" font-family="Helvetica,sans-Serif" font-size="11.00" fill="#000000">[table]</text>
<polygon fill="none" stroke="#000000" points="10,-207.7 10,-229.7 112,-229.7 112,-207.7 10,-207.7"/>
<image xlink:href="../../images/primaryKeys.png" width="11px" height="12px" preserveAspectRatio="xMinYMin meet" x="15" y="-224.7"/>
<text text-anchor="start" x="44" y="-214.8" font-family="Helvetica,sans-Serif" font-size="11.00" fill="#000000">point_id</text>
<polygon fill="none" stroke="#000000" points="112,-207.7 112,-229.7 196,-229.7 196,-207.7 112,-207.7"/>
<text text-anchor="start" x="115" y="-215.4" font-family="Helvetica,sans-Serif" font-size="11.00" fill="#000000">int4[10]</text>
<polygon fill="none" stroke="#000000" points="10,-185.7 10,-207.7 112,-207.7 112,-185.7 10,-185.7"/>
<text text-anchor="start" x="44" y="-192.8" font-family="Helvetica,sans-Serif" font-size="11.00" fill="#000000">p_order</text>
<polygon fill="none" stroke="#000000" points="112,-185.7 112,-207.7 196,-207.7 196,-185.7 112,-185.7"/>
<text text-anchor="start" x="115" y="-193.4" font-family="Helvetica,sans-Serif" font-size="11.00" fill="#000000">int4[10]</text>
<polygon fill="#ffffff" stroke="transparent" points="10,-163.7 10,-185.7 112,-185.7 112,-163.7 10,-163.7"/>
<polygon fill="none" stroke="#000000" points="10,-163.7 10,-185.7 112,-185.7 112,-163.7 10,-163.7"/>
<image xlink:href="../../images/foreignKeys.png" width="11px" height="12px" preserveAspectRatio="xMinYMin meet" x="15" y="-180.7"/>
<text text-anchor="start" x="44" y="-170.8" font-family="Helvetica,sans-Serif" font-size="11.00" fill="#000000">mat_id</text>
<polygon fill="none" stroke="#000000" points="112,-163.7 112,-185.7 196,-185.7 196,-163.7 112,-163.7"/>
<text text-anchor="start" x="115" y="-171.4" font-family="Helvetica,sans-Serif" font-size="11.00" fill="#000000">int4[10]</text>
<polygon fill="none" stroke="#000000" points="10,-141.7 10,-163.7 112,-163.7 112,-141.7 10,-141.7"/>
<text text-anchor="start" x="44" y="-148.8" font-family="Helvetica,sans-Serif" font-size="11.00" fill="#000000">t</text>
<polygon fill="none" stroke="#000000" points="112,-141.7 112,-163.7 196,-163.7 196,-141.7 112,-141.7"/>
<text text-anchor="start" x="114.8807" y="-149.4" font-family="Helvetica,sans-Serif" font-size="11.00" fill="#000000">timestamp[29,6]</text>
<polygon fill="#ffffff" stroke="transparent" points="10,-122.7 10,-141.7 31,-141.7 31,-122.7 10,-122.7"/>
<polygon fill="none" stroke="#000000" points="10,-122.7 10,-141.7 31,-141.7 31,-122.7 10,-122.7"/>
<text text-anchor="start" x="12.7027" y="-128.8" font-family="Helvetica,sans-Serif" font-size="11.00" fill="#000000">&lt; 0</text>
<polygon fill="#ffffff" stroke="transparent" points="31,-122.7 31,-141.7 112,-141.7 112,-122.7 31,-122.7"/>
<polygon fill="none" stroke="#000000" points="31,-122.7 31,-141.7 112,-141.7 112,-122.7 31,-122.7"/>
<text text-anchor="start" x="33.9037" y="-128.8" font-family="Helvetica,sans-Serif" font-size="11.00" fill="#000000">2.370.200 rows</text>
<polygon fill="#ffffff" stroke="transparent" points="112,-122.7 112,-141.7 196,-141.7 196,-122.7 112,-122.7"/>
<polygon fill="none" stroke="#000000" points="112,-122.7 112,-141.7 196,-141.7 196,-122.7 112,-122.7"/>
<text text-anchor="start" x="177.4053" y="-128.8" font-family="Helvetica,sans-Serif" font-size="11.00" fill="#000000">1 &gt;</text>
<polygon fill="none" stroke="#000000" stroke-width="2" points="9,-121.7 9,-253.7 197,-253.7 197,-121.7 9,-121.7"/>
</a>
</g>
</g>
<!-- point_aspect&#45;&gt;point -->
<g id="edge2" class="edge">
<title>point_aspect:w&#45;&gt;point:e</title>
<path fill="none" stroke="#000000" d="M233.511,-157.4466C216.1935,-172.5798 227.1026,-218.7 196,-218.7"/>
<polygon fill="#000000" stroke="#000000" points="239.9242,-155.2705 248.6567,-156.1091 243.7121,-153.9853 247.5,-152.7 247.5,-152.7 247.5,-152.7 243.7121,-153.9853 246.3433,-149.2909 239.9242,-155.2705 239.9242,-155.2705"/>
<ellipse fill="none" stroke="#000000" cx="236.8939" cy="-156.2988" rx="3.2" ry="3.2"/>
</g>
</g>
</svg>
