<?xml version="1.0" encoding="UTF-8" standalone="no"?>
<!DOCTYPE svg PUBLIC "-//W3C//DTD SVG 1.1//EN"
 "http://www.w3.org/Graphics/SVG/1.1/DTD/svg11.dtd">
<!-- Generated by graphviz version 2.40.1 (20161225.0304)
 -->
<!-- Title: twoDegreesRelationshipsDiagramImplied Pages: 1 -->
<svg width="551pt" height="223pt"
 viewBox="0.00 0.00 551.00 222.70" xmlns="http://www.w3.org/2000/svg" xmlns:xlink="http://www.w3.org/1999/xlink">
<g id="graph0" class="graph" transform="scale(1 1) rotate(0) translate(4 218.7)">
<title>twoDegreesRelationshipsDiagramImplied</title>
<polygon fill="#ffffff" stroke="transparent" points="-4,4 -4,-218.7 547,-218.7 547,4 -4,4"/>
<text text-anchor="middle" x="72.4936" y="-7.3" font-family="Helvetica,sans-Serif" font-size="11.00" fill="#000000">Generated by SchemaSpy</text>
<!-- mat -->
<g id="node1" class="node">
<title>mat</title>
<g id="a_node1"><a xlink:href="../../tables/mat.html" xlink:title="mat" target="_top">
<polygon fill="#ffffff" stroke="transparent" points="193,-38.2 193,-165.2 324,-165.2 324,-38.2 193,-38.2"/>
<polygon fill="#f5f5f5" stroke="transparent" points="193.5,-141.7 193.5,-164.7 324.5,-164.7 324.5,-141.7 193.5,-141.7"/>
<polygon fill="none" stroke="#000000" points="193.5,-141.7 193.5,-164.7 324.5,-164.7 324.5,-141.7 193.5,-141.7"/>
<text text-anchor="start" x="198.5" y="-150.3" font-family="Helvetica,sans-Serif" font-weight="bold" font-size="11.00" fill="#000000">mat</text>
<text text-anchor="start" x="289.5437" y="-149.8" font-family="Helvetica,sans-Serif" font-size="11.00" fill="#000000">[table]</text>
<polygon fill="none" stroke="#000000" points="193.5,-119.7 193.5,-141.7 324.5,-141.7 324.5,-119.7 193.5,-119.7"/>
<image xlink:href="../../images/primaryKeys.png" width="11px" height="12px" preserveAspectRatio="xMinYMin meet" x="198.5" y="-136.7"/>
<text text-anchor="start" x="213.5" y="-126.8" font-family="Helvetica,sans-Serif" font-size="11.00" fill="#000000">mat_id</text>
<polygon fill="#ffffff" stroke="transparent" points="193.5,-97.7 193.5,-119.7 324.5,-119.7 324.5,-97.7 193.5,-97.7"/>
<polygon fill="none" stroke="#000000" points="193.5,-97.7 193.5,-119.7 324.5,-119.7 324.5,-97.7 193.5,-97.7"/>
<text text-anchor="start" x="213.5" y="-104.8" font-family="Helvetica,sans-Serif" font-size="11.00" fill="#000000">description</text>
<polygon fill="#ffffff" stroke="transparent" points="193.5,-75.7 193.5,-97.7 324.5,-97.7 324.5,-75.7 193.5,-75.7"/>
<polygon fill="none" stroke="#000000" points="193.5,-75.7 193.5,-97.7 324.5,-97.7 324.5,-75.7 193.5,-75.7"/>
<image xlink:href="../../images/foreignKeys.png" width="11px" height="12px" preserveAspectRatio="xMinYMin meet" x="198.5" y="-92.7"/>
<text text-anchor="start" x="213.5" y="-82.8" font-family="Helvetica,sans-Serif" font-size="11.00" fill="#000000">mo_id</text>
<polygon fill="none" stroke="#000000" points="193.5,-56.7 193.5,-75.7 324.5,-75.7 324.5,-56.7 193.5,-56.7"/>
<text text-anchor="start" x="196.5" y="-62.8" font-family="Helvetica,sans-Serif" font-size="11.00" fill="#000000">...</text>
<polygon fill="#ffffff" stroke="transparent" points="193.5,-37.7 193.5,-56.7 239.5,-56.7 239.5,-37.7 193.5,-37.7"/>
<polygon fill="none" stroke="#000000" points="193.5,-37.7 193.5,-56.7 239.5,-56.7 239.5,-37.7 193.5,-37.7"/>
<text text-anchor="start" x="196.5" y="-43.8" font-family="Helvetica,sans-Serif" font-size="11.00" fill="#000000">&lt; 1</text>
<polygon fill="#ffffff" stroke="transparent" points="239.5,-37.7 239.5,-56.7 290.5,-56.7 290.5,-37.7 239.5,-37.7"/>
<polygon fill="none" stroke="#000000" points="239.5,-37.7 239.5,-56.7 290.5,-56.7 290.5,-37.7 239.5,-37.7"/>
<text text-anchor="start" x="255.1105" y="-43.8" font-family="Helvetica,sans-Serif" font-size="11.00" fill="#000000">0 rows</text>
<polygon fill="#ffffff" stroke="transparent" points="290.5,-37.7 290.5,-56.7 324.5,-56.7 324.5,-37.7 290.5,-37.7"/>
<polygon fill="none" stroke="#000000" points="290.5,-37.7 290.5,-56.7 324.5,-56.7 324.5,-37.7 290.5,-37.7"/>
<text text-anchor="start" x="305.9053" y="-43.8" font-family="Helvetica,sans-Serif" font-size="11.00" fill="#000000">1 &gt;</text>
</a>
</g>
</g>
<!-- moving_object -->
<g id="node2" class="node">
<title>moving_object</title>
<g id="a_node2"><a xlink:href="../../tables/moving_object.html" xlink:title="moving_object" target="_top">
<polygon fill="#ffffff" stroke="transparent" points="8,-59.2 8,-120.2 144,-120.2 144,-59.2 8,-59.2"/>
<polygon fill="#f5f5f5" stroke="transparent" points="8,-96.7 8,-119.7 144,-119.7 144,-96.7 8,-96.7"/>
<polygon fill="none" stroke="#000000" points="8,-96.7 8,-119.7 144,-119.7 144,-96.7 8,-96.7"/>
<text text-anchor="start" x="13" y="-105.3" font-family="Helvetica,sans-Serif" font-weight="bold" font-size="11.00" fill="#000000">moving_object</text>
<text text-anchor="start" x="109.5219" y="-104.8" font-family="Helvetica,sans-Serif" font-size="11.00" fill="#000000">[table]</text>
<polygon fill="none" stroke="#000000" points="8,-77.7 8,-96.7 144,-96.7 144,-77.7 8,-77.7"/>
<text text-anchor="start" x="11" y="-83.8" font-family="Helvetica,sans-Serif" font-size="11.00" fill="#000000">...</text>
<polygon fill="#ffffff" stroke="transparent" points="8,-58.7 8,-77.7 46,-77.7 46,-58.7 8,-58.7"/>
<polygon fill="none" stroke="#000000" points="8,-58.7 8,-77.7 46,-77.7 46,-58.7 8,-58.7"/>
<text text-anchor="start" x="11" y="-64.8" font-family="Helvetica,sans-Serif" font-size="11.00" fill="#000000">&lt; 1</text>
<polygon fill="#ffffff" stroke="transparent" points="46,-58.7 46,-77.7 114,-77.7 114,-58.7 46,-58.7"/>
<polygon fill="none" stroke="#000000" points="46,-58.7 46,-77.7 114,-77.7 114,-58.7 46,-58.7"/>
<text text-anchor="start" x="57.2089" y="-64.8" font-family="Helvetica,sans-Serif" font-size="11.00" fill="#000000">3.376 rows</text>
<polygon fill="#ffffff" stroke="transparent" points="114,-58.7 114,-77.7 144,-77.7 144,-58.7 114,-58.7"/>
<polygon fill="none" stroke="#000000" points="114,-58.7 114,-77.7 144,-77.7 144,-58.7 114,-58.7"/>
<text text-anchor="start" x="125.4053" y="-64.8" font-family="Helvetica,sans-Serif" font-size="11.00" fill="#000000">4 &gt;</text>
</a>
</g>
</g>
<!-- mat&#45;&gt;moving_object -->
<g id="edge1" class="edge">
<title>mat:w&#45;&gt;moving_object:e</title>
<path fill="none" stroke="#000000" d="M178.8428,-86.7C167.4139,-86.7 160.1563,-86.7 144,-86.7"/>
<polygon fill="#000000" stroke="#000000" points="185.5,-86.7001 193.5,-90.3 189.5,-86.7 193.5,-86.7 193.5,-86.7 193.5,-86.7 189.5,-86.7 193.5,-83.1 185.5,-86.7001 185.5,-86.7001"/>
<ellipse fill="none" stroke="#000000" cx="182.3" cy="-86.7001" rx="3.2" ry="3.2"/>
</g>
<!-- point -->
<g id="node3" class="node">
<title>point</title>
<g id="a_node3"><a xlink:href="../../tables/point.html" xlink:title="point" target="_top">
<polygon fill="#ffffff" stroke="transparent" points="373,-76.7 373,-210.7 535,-210.7 535,-76.7 373,-76.7"/>
<polygon fill="#f5f5f5" stroke="transparent" points="375,-185.7 375,-208.7 533,-208.7 533,-185.7 375,-185.7"/>
<polygon fill="none" stroke="#000000" points="375,-185.7 375,-208.7 533,-208.7 533,-185.7 375,-185.7"/>
<text text-anchor="start" x="380" y="-194.3" font-family="Helvetica,sans-Serif" font-weight="bold" font-size="11.00" fill="#000000">point</text>
<text text-anchor="start" x="498.0437" y="-193.8" font-family="Helvetica,sans-Serif" font-size="11.00" fill="#000000">[table]</text>
<polygon fill="none" stroke="#000000" points="375,-163.7 375,-185.7 449,-185.7 449,-163.7 375,-163.7"/>
<image xlink:href="../../images/primaryKeys.png" width="11px" height="12px" preserveAspectRatio="xMinYMin meet" x="380" y="-180.7"/>
<text text-anchor="start" x="395" y="-170.8" font-family="Helvetica,sans-Serif" font-size="11.00" fill="#000000">point_id</text>
<polygon fill="none" stroke="#000000" points="449,-163.7 449,-185.7 533,-185.7 533,-163.7 449,-163.7"/>
<text text-anchor="start" x="452" y="-171.4" font-family="Helvetica,sans-Serif" font-size="11.00" fill="#000000">int4[10]</text>
<polygon fill="none" stroke="#000000" points="375,-141.7 375,-163.7 449,-163.7 449,-141.7 375,-141.7"/>
<text text-anchor="start" x="395" y="-148.8" font-family="Helvetica,sans-Serif" font-size="11.00" fill="#000000">p_order</text>
<polygon fill="none" stroke="#000000" points="449,-141.7 449,-163.7 533,-163.7 533,-141.7 449,-141.7"/>
<text text-anchor="start" x="452" y="-149.4" font-family="Helvetica,sans-Serif" font-size="11.00" fill="#000000">int4[10]</text>
<polygon fill="#ffffff" stroke="transparent" points="375,-119.7 375,-141.7 449,-141.7 449,-119.7 375,-119.7"/>
<polygon fill="none" stroke="#000000" points="375,-119.7 375,-141.7 449,-141.7 449,-119.7 375,-119.7"/>
<image xlink:href="../../images/foreignKeys.png" width="11px" height="12px" preserveAspectRatio="xMinYMin meet" x="380" y="-136.7"/>
<text text-anchor="start" x="395" y="-126.8" font-family="Helvetica,sans-Serif" font-size="11.00" fill="#000000">mat_id</text>
<polygon fill="none" stroke="#000000" points="449,-119.7 449,-141.7 533,-141.7 533,-119.7 449,-119.7"/>
<text text-anchor="start" x="452" y="-127.4" font-family="Helvetica,sans-Serif" font-size="11.00" fill="#000000">int4[10]</text>
<polygon fill="none" stroke="#000000" points="375,-97.7 375,-119.7 449,-119.7 449,-97.7 375,-97.7"/>
<text text-anchor="start" x="395" y="-104.8" font-family="Helvetica,sans-Serif" font-size="11.00" fill="#000000">t</text>
<polygon fill="none" stroke="#000000" points="449,-97.7 449,-119.7 533,-119.7 533,-97.7 449,-97.7"/>
<text text-anchor="start" x="451.8807" y="-105.4" font-family="Helvetica,sans-Serif" font-size="11.00" fill="#000000">timestamp[29,6]</text>
<polygon fill="#ffffff" stroke="transparent" points="375,-78.7 375,-97.7 403,-97.7 403,-78.7 375,-78.7"/>
<polygon fill="none" stroke="#000000" points="375,-78.7 375,-97.7 403,-97.7 403,-78.7 375,-78.7"/>
<text text-anchor="start" x="378" y="-84.8" font-family="Helvetica,sans-Serif" font-size="11.00" fill="#000000">&lt; 1</text>
<polygon fill="#ffffff" stroke="transparent" points="403,-78.7 403,-97.7 449,-97.7 449,-78.7 403,-78.7"/>
<polygon fill="none" stroke="#000000" points="403,-78.7 403,-97.7 449,-97.7 449,-78.7 403,-78.7"/>
<text text-anchor="start" x="413.6105" y="-84.8" font-family="Helvetica,sans-Serif" font-size="11.00" fill="#000000">0 rows</text>
<polygon fill="#ffffff" stroke="transparent" points="449,-78.7 449,-97.7 533,-97.7 533,-78.7 449,-78.7"/>
<polygon fill="none" stroke="#000000" points="449,-78.7 449,-97.7 533,-97.7 533,-78.7 449,-78.7"/>
<text text-anchor="start" x="514.4053" y="-84.8" font-family="Helvetica,sans-Serif" font-size="11.00" fill="#000000">0 &gt;</text>
<polygon fill="none" stroke="#000000" stroke-width="2" points="374,-77.7 374,-209.7 534,-209.7 534,-77.7 374,-77.7"/>
</a>
</g>
</g>
<!-- point&#45;&gt;mat -->
<g id="edge2" class="edge">
<title>point:w&#45;&gt;mat:e</title>
<path fill="none" stroke="#000000" stroke-dasharray="5,2" d="M360.4203,-130.7C348.5435,-130.7 341.158,-130.7 324.5,-130.7"/>
<polygon fill="#000000" stroke="#000000" points="367,-130.7001 375,-134.3 371,-130.7 375,-130.7 375,-130.7 375,-130.7 371,-130.7 375,-127.1 367,-130.7001 367,-130.7001"/>
<ellipse fill="none" stroke="#000000" cx="363.8" cy="-130.7001" rx="3.2" ry="3.2"/>
</g>
</g>
</svg>
