<?xml version="1.0" encoding="UTF-8" standalone="no"?>
<!DOCTYPE svg PUBLIC "-//W3C//DTD SVG 1.1//EN"
 "http://www.w3.org/Graphics/SVG/1.1/DTD/svg11.dtd">
<!-- Generated by graphviz version 2.40.1 (20161225.0304)
 -->
<!-- Title: oneDegreeRelationshipsDiagramImplied Pages: 1 -->
<svg width="346pt" height="303pt"
 viewBox="0.00 0.00 346.00 303.20" xmlns="http://www.w3.org/2000/svg" xmlns:xlink="http://www.w3.org/1999/xlink">
<g id="graph0" class="graph" transform="scale(1 1) rotate(0) translate(4 299.2)">
<title>oneDegreeRelationshipsDiagramImplied</title>
<polygon fill="#ffffff" stroke="transparent" points="-4,4 -4,-299.2 342,-299.2 342,4 -4,4"/>
<text text-anchor="middle" x="72.4936" y="-7.3" font-family="Helvetica,sans-Serif" font-size="11.00" fill="#000000">Generated by SchemaSpy</text>
<!-- point_aspect -->
<g id="node1" class="node">
<title>point_aspect</title>
<g id="a_node1"><a xlink:href="../../tables/point_aspect.html" xlink:title="point_aspect" target="_top">
<polygon fill="#ffffff" stroke="transparent" points="177,-150.7 177,-240.7 330,-240.7 330,-150.7 177,-150.7"/>
<polygon fill="#f5f5f5" stroke="transparent" points="179.5,-215.7 179.5,-238.7 328.5,-238.7 328.5,-215.7 179.5,-215.7"/>
<polygon fill="none" stroke="#000000" points="179.5,-215.7 179.5,-238.7 328.5,-238.7 328.5,-215.7 179.5,-215.7"/>
<text text-anchor="start" x="184.5" y="-224.3" font-family="Helvetica,sans-Serif" font-weight="bold" font-size="11.00" fill="#000000">point_aspect</text>
<text text-anchor="start" x="293.5437" y="-223.8" font-family="Helvetica,sans-Serif" font-size="11.00" fill="#000000">[table]</text>
<polygon fill="none" stroke="#000000" points="179.5,-193.7 179.5,-215.7 286.5,-215.7 286.5,-193.7 179.5,-193.7"/>
<image xlink:href="../../images/primaryKeys.png" width="11px" height="12px" preserveAspectRatio="xMinYMin meet" x="184.5" y="-210.7"/>
<text text-anchor="start" x="199.5" y="-200.8" font-family="Helvetica,sans-Serif" font-size="11.00" fill="#000000">point_id</text>
<polygon fill="none" stroke="#000000" points="286.5,-193.7 286.5,-215.7 328.5,-215.7 328.5,-193.7 286.5,-193.7"/>
<text text-anchor="start" x="289.4644" y="-201.4" font-family="Helvetica,sans-Serif" font-size="11.00" fill="#000000">int4[10]</text>
<polygon fill="none" stroke="#000000" points="179.5,-171.7 179.5,-193.7 286.5,-193.7 286.5,-171.7 179.5,-171.7"/>
<image xlink:href="../../images/primaryKeys.png" width="11px" height="12px" preserveAspectRatio="xMinYMin meet" x="184.5" y="-188.7"/>
<text text-anchor="start" x="199.5" y="-178.8" font-family="Helvetica,sans-Serif" font-size="11.00" fill="#000000">aspect_id</text>
<polygon fill="none" stroke="#000000" points="286.5,-171.7 286.5,-193.7 328.5,-193.7 328.5,-171.7 286.5,-171.7"/>
<text text-anchor="start" x="289.4644" y="-179.4" font-family="Helvetica,sans-Serif" font-size="11.00" fill="#000000">int4[10]</text>
<polygon fill="#ffffff" stroke="transparent" points="179.5,-152.7 179.5,-171.7 207.5,-171.7 207.5,-152.7 179.5,-152.7"/>
<polygon fill="none" stroke="#000000" points="179.5,-152.7 179.5,-171.7 207.5,-171.7 207.5,-152.7 179.5,-152.7"/>
<text text-anchor="start" x="182.5" y="-158.8" font-family="Helvetica,sans-Serif" font-size="11.00" fill="#000000">&lt; 2</text>
<polygon fill="#ffffff" stroke="transparent" points="207.5,-152.7 207.5,-171.7 286.5,-171.7 286.5,-152.7 207.5,-152.7"/>
<polygon fill="none" stroke="#000000" points="207.5,-152.7 207.5,-171.7 286.5,-171.7 286.5,-152.7 207.5,-152.7"/>
<text text-anchor="start" x="217.4791" y="-158.8" font-family="Helvetica,sans-Serif" font-size="11.00" fill="#000000">474.040 rows</text>
<polygon fill="#ffffff" stroke="transparent" points="286.5,-152.7 286.5,-171.7 328.5,-171.7 328.5,-152.7 286.5,-152.7"/>
<polygon fill="none" stroke="#000000" points="286.5,-152.7 286.5,-171.7 328.5,-171.7 328.5,-152.7 286.5,-152.7"/>
<text text-anchor="start" x="309.9053" y="-158.8" font-family="Helvetica,sans-Serif" font-size="11.00" fill="#000000">0 &gt;</text>
<polygon fill="none" stroke="#000000" stroke-width="2" points="178,-151.7 178,-239.7 329,-239.7 329,-151.7 178,-151.7"/>
</a>
</g>
</g>
<!-- aspect -->
<g id="node2" class="node">
<title>aspect</title>
<g id="a_node2"><a xlink:href="../../tables/aspect.html" xlink:title="aspect" target="_top">
<polygon fill="#ffffff" stroke="transparent" points="8,-38.2 8,-165.2 128,-165.2 128,-38.2 8,-38.2"/>
<polygon fill="#f5f5f5" stroke="transparent" points="8,-141.7 8,-164.7 128,-164.7 128,-141.7 8,-141.7"/>
<polygon fill="none" stroke="#000000" points="8,-141.7 8,-164.7 128,-164.7 128,-141.7 8,-141.7"/>
<text text-anchor="start" x="13" y="-150.3" font-family="Helvetica,sans-Serif" font-weight="bold" font-size="11.00" fill="#000000">aspect</text>
<text text-anchor="start" x="93.0437" y="-149.8" font-family="Helvetica,sans-Serif" font-size="11.00" fill="#000000">[table]</text>
<polygon fill="none" stroke="#000000" points="8,-119.7 8,-141.7 128,-141.7 128,-119.7 8,-119.7"/>
<image xlink:href="../../images/primaryKeys.png" width="11px" height="12px" preserveAspectRatio="xMinYMin meet" x="13" y="-136.7"/>
<text text-anchor="start" x="28" y="-126.8" font-family="Helvetica,sans-Serif" font-size="11.00" fill="#000000">aspect_id</text>
<polygon fill="#ffffff" stroke="transparent" points="8,-97.7 8,-119.7 128,-119.7 128,-97.7 8,-97.7"/>
<polygon fill="none" stroke="#000000" points="8,-97.7 8,-119.7 128,-119.7 128,-97.7 8,-97.7"/>
<text text-anchor="start" x="28" y="-104.8" font-family="Helvetica,sans-Serif" font-size="11.00" fill="#000000">description</text>
<polygon fill="#ffffff" stroke="transparent" points="8,-75.7 8,-97.7 128,-97.7 128,-75.7 8,-75.7"/>
<polygon fill="none" stroke="#000000" points="8,-75.7 8,-97.7 128,-97.7 128,-75.7 8,-75.7"/>
<image xlink:href="../../images/foreignKeys.png" width="11px" height="12px" preserveAspectRatio="xMinYMin meet" x="13" y="-92.7"/>
<text text-anchor="start" x="28" y="-82.8" font-family="Helvetica,sans-Serif" font-size="11.00" fill="#000000">aspect_type_id</text>
<polygon fill="none" stroke="#000000" points="8,-56.7 8,-75.7 128,-75.7 128,-56.7 8,-56.7"/>
<text text-anchor="start" x="11" y="-62.8" font-family="Helvetica,sans-Serif" font-size="11.00" fill="#000000">...</text>
<polygon fill="#ffffff" stroke="transparent" points="8,-37.7 8,-56.7 32,-56.7 32,-37.7 8,-37.7"/>
<polygon fill="none" stroke="#000000" points="8,-37.7 8,-56.7 32,-56.7 32,-37.7 8,-37.7"/>
<text text-anchor="start" x="11" y="-43.8" font-family="Helvetica,sans-Serif" font-size="11.00" fill="#000000">&lt; 1</text>
<polygon fill="#ffffff" stroke="transparent" points="32,-37.7 32,-56.7 105,-56.7 105,-37.7 32,-37.7"/>
<polygon fill="none" stroke="#000000" points="32,-37.7 32,-56.7 105,-56.7 105,-37.7 32,-37.7"/>
<text text-anchor="start" x="35.9791" y="-43.8" font-family="Helvetica,sans-Serif" font-size="11.00" fill="#000000">100.191 rows</text>
<polygon fill="#ffffff" stroke="transparent" points="105,-37.7 105,-56.7 128,-56.7 128,-37.7 105,-37.7"/>
<polygon fill="none" stroke="#000000" points="105,-37.7 105,-56.7 128,-56.7 128,-37.7 105,-37.7"/>
<text text-anchor="start" x="109.4053" y="-43.8" font-family="Helvetica,sans-Serif" font-size="11.00" fill="#000000">5 &gt;</text>
</a>
</g>
</g>
<!-- point_aspect&#45;&gt;aspect -->
<g id="edge1" class="edge">
<title>point_aspect:w&#45;&gt;aspect:e</title>
<path fill="none" stroke="#000000" d="M165.4561,-177.9012C150.4356,-165.0281 154.4284,-130.7 128,-130.7"/>
<polygon fill="#000000" stroke="#000000" points="171.9297,-180.1132 178.3359,-186.1066 175.7149,-181.4066 179.5,-182.7 179.5,-182.7 179.5,-182.7 175.7149,-181.4066 180.6641,-179.2934 171.9297,-180.1132 171.9297,-180.1132"/>
<ellipse fill="none" stroke="#000000" cx="168.9016" cy="-179.0785" rx="3.2" ry="3.2"/>
</g>
<!-- point -->
<g id="node3" class="node">
<title>point</title>
<g id="a_node3"><a xlink:href="../../tables/point.html" xlink:title="point" target="_top">
<polygon fill="#ffffff" stroke="transparent" points="11,-186.2 11,-291.2 125,-291.2 125,-186.2 11,-186.2"/>
<polygon fill="#f5f5f5" stroke="transparent" points="11,-267.7 11,-290.7 125,-290.7 125,-267.7 11,-267.7"/>
<polygon fill="none" stroke="#000000" points="11,-267.7 11,-290.7 125,-290.7 125,-267.7 11,-267.7"/>
<text text-anchor="start" x="16" y="-276.3" font-family="Helvetica,sans-Serif" font-weight="bold" font-size="11.00" fill="#000000">point</text>
<text text-anchor="start" x="90.0437" y="-275.8" font-family="Helvetica,sans-Serif" font-size="11.00" fill="#000000">[table]</text>
<polygon fill="none" stroke="#000000" points="11,-245.7 11,-267.7 125,-267.7 125,-245.7 11,-245.7"/>
<image xlink:href="../../images/primaryKeys.png" width="11px" height="12px" preserveAspectRatio="xMinYMin meet" x="16" y="-262.7"/>
<text text-anchor="start" x="51" y="-252.8" font-family="Helvetica,sans-Serif" font-size="11.00" fill="#000000">point_id</text>
<polygon fill="#ffffff" stroke="transparent" points="11,-223.7 11,-245.7 125,-245.7 125,-223.7 11,-223.7"/>
<polygon fill="none" stroke="#000000" points="11,-223.7 11,-245.7 125,-245.7 125,-223.7 11,-223.7"/>
<image xlink:href="../../images/foreignKeys.png" width="11px" height="12px" preserveAspectRatio="xMinYMin meet" x="16" y="-240.7"/>
<text text-anchor="start" x="51" y="-230.8" font-family="Helvetica,sans-Serif" font-size="11.00" fill="#000000">mat_id</text>
<polygon fill="none" stroke="#000000" points="11,-204.7 11,-223.7 125,-223.7 125,-204.7 11,-204.7"/>
<text text-anchor="start" x="14" y="-210.8" font-family="Helvetica,sans-Serif" font-size="11.00" fill="#000000">...</text>
<polygon fill="#ffffff" stroke="transparent" points="11,-185.7 11,-204.7 23,-204.7 23,-185.7 11,-185.7"/>
<polygon fill="none" stroke="#000000" points="11,-185.7 11,-204.7 23,-204.7 23,-185.7 11,-185.7"/>
<text text-anchor="start" x="13.9431" y="-191.8" font-family="Helvetica,sans-Serif" font-size="11.00" fill="#000000"> &#160;</text>
<polygon fill="#ffffff" stroke="transparent" points="23,-185.7 23,-204.7 104,-204.7 104,-185.7 23,-185.7"/>
<polygon fill="none" stroke="#000000" points="23,-185.7 23,-204.7 104,-204.7 104,-185.7 23,-185.7"/>
<text text-anchor="start" x="25.9037" y="-191.8" font-family="Helvetica,sans-Serif" font-size="11.00" fill="#000000">2.370.200 rows</text>
<polygon fill="#ffffff" stroke="transparent" points="104,-185.7 104,-204.7 125,-204.7 125,-185.7 104,-185.7"/>
<polygon fill="none" stroke="#000000" points="104,-185.7 104,-204.7 125,-204.7 125,-185.7 104,-185.7"/>
<text text-anchor="start" x="106.7027" y="-191.8" font-family="Helvetica,sans-Serif" font-size="11.00" fill="#000000">1 &gt;</text>
</a>
</g>
</g>
<!-- point_aspect&#45;&gt;point -->
<g id="edge2" class="edge">
<title>point_aspect:w&#45;&gt;point:e</title>
<path fill="none" stroke="#000000" d="M165.3693,-209.1335C149.0149,-221.7085 152.4632,-256.7 125,-256.7"/>
<polygon fill="#000000" stroke="#000000" points="171.8669,-207.0949 180.5777,-208.1349 175.6834,-205.8975 179.5,-204.7 179.5,-204.7 179.5,-204.7 175.6834,-205.8975 178.4223,-201.2651 171.8669,-207.0949 171.8669,-207.0949"/>
<ellipse fill="none" stroke="#000000" cx="168.8136" cy="-208.0529" rx="3.2" ry="3.2"/>
</g>
</g>
</svg>
