<?xml version="1.0" encoding="UTF-8" standalone="no"?>
<!DOCTYPE svg PUBLIC "-//W3C//DTD SVG 1.1//EN"
 "http://www.w3.org/Graphics/SVG/1.1/DTD/svg11.dtd">
<!-- Generated by graphviz version 2.40.1 (20161225.0304)
 -->
<!-- Title: twoDegreesRelationshipsDiagram Pages: 1 -->
<svg width="515pt" height="469pt"
 viewBox="0.00 0.00 515.00 468.70" xmlns="http://www.w3.org/2000/svg" xmlns:xlink="http://www.w3.org/1999/xlink">
<g id="graph0" class="graph" transform="scale(1 1) rotate(0) translate(4 464.7)">
<title>twoDegreesRelationshipsDiagram</title>
<polygon fill="#ffffff" stroke="transparent" points="-4,4 -4,-464.7 511,-464.7 511,4 -4,4"/>
<text text-anchor="middle" x="72.4936" y="-7.3" font-family="Helvetica,sans-Serif" font-size="11.00" fill="#000000">Generated by SchemaSpy</text>
<!-- aspect -->
<g id="node1" class="node">
<title>aspect</title>
<g id="a_node1"><a xlink:href="../../tables/aspect.html" xlink:title="aspect" target="_top">
<polygon fill="#ffffff" stroke="transparent" points="177,-166.7 177,-293.7 297,-293.7 297,-166.7 177,-166.7"/>
<polygon fill="#f5f5f5" stroke="transparent" points="177,-270.2 177,-293.2 297,-293.2 297,-270.2 177,-270.2"/>
<polygon fill="none" stroke="#000000" points="177,-270.2 177,-293.2 297,-293.2 297,-270.2 177,-270.2"/>
<text text-anchor="start" x="182" y="-278.8" font-family="Helvetica,sans-Serif" font-weight="bold" font-size="11.00" fill="#000000">aspect</text>
<text text-anchor="start" x="262.0437" y="-278.3" font-family="Helvetica,sans-Serif" font-size="11.00" fill="#000000">[table]</text>
<polygon fill="none" stroke="#000000" points="177,-248.2 177,-270.2 297,-270.2 297,-248.2 177,-248.2"/>
<image xlink:href="../../images/primaryKeys.png" width="11px" height="12px" preserveAspectRatio="xMinYMin meet" x="182" y="-265.2"/>
<text text-anchor="start" x="197" y="-255.3" font-family="Helvetica,sans-Serif" font-size="11.00" fill="#000000">aspect_id</text>
<polygon fill="#ffffff" stroke="transparent" points="177,-226.2 177,-248.2 297,-248.2 297,-226.2 177,-226.2"/>
<polygon fill="none" stroke="#000000" points="177,-226.2 177,-248.2 297,-248.2 297,-226.2 177,-226.2"/>
<text text-anchor="start" x="197" y="-233.3" font-family="Helvetica,sans-Serif" font-size="11.00" fill="#000000">description</text>
<polygon fill="#ffffff" stroke="transparent" points="177,-204.2 177,-226.2 297,-226.2 297,-204.2 177,-204.2"/>
<polygon fill="none" stroke="#000000" points="177,-204.2 177,-226.2 297,-226.2 297,-204.2 177,-204.2"/>
<image xlink:href="../../images/foreignKeys.png" width="11px" height="12px" preserveAspectRatio="xMinYMin meet" x="182" y="-221.2"/>
<text text-anchor="start" x="197" y="-211.3" font-family="Helvetica,sans-Serif" font-size="11.00" fill="#000000">aspect_type_id</text>
<polygon fill="none" stroke="#000000" points="177,-185.2 177,-204.2 297,-204.2 297,-185.2 177,-185.2"/>
<text text-anchor="start" x="180" y="-191.3" font-family="Helvetica,sans-Serif" font-size="11.00" fill="#000000">...</text>
<polygon fill="#ffffff" stroke="transparent" points="177,-166.2 177,-185.2 201,-185.2 201,-166.2 177,-166.2"/>
<polygon fill="none" stroke="#000000" points="177,-166.2 177,-185.2 201,-185.2 201,-166.2 177,-166.2"/>
<text text-anchor="start" x="180" y="-172.3" font-family="Helvetica,sans-Serif" font-size="11.00" fill="#000000">&lt; 1</text>
<polygon fill="#ffffff" stroke="transparent" points="201,-166.2 201,-185.2 274,-185.2 274,-166.2 201,-166.2"/>
<polygon fill="none" stroke="#000000" points="201,-166.2 201,-185.2 274,-185.2 274,-166.2 201,-166.2"/>
<text text-anchor="start" x="204.9791" y="-172.3" font-family="Helvetica,sans-Serif" font-size="11.00" fill="#000000">100.191 rows</text>
<polygon fill="#ffffff" stroke="transparent" points="274,-166.2 274,-185.2 297,-185.2 297,-166.2 274,-166.2"/>
<polygon fill="none" stroke="#000000" points="274,-166.2 274,-185.2 297,-185.2 297,-166.2 274,-166.2"/>
<text text-anchor="start" x="278.4053" y="-172.3" font-family="Helvetica,sans-Serif" font-size="11.00" fill="#000000">5 &gt;</text>
</a>
</g>
</g>
<!-- aspect_type -->
<g id="node2" class="node">
<title>aspect_type</title>
<g id="a_node2"><a xlink:href="../../tables/aspect_type.html" xlink:title="aspect_type" target="_top">
<polygon fill="#ffffff" stroke="transparent" points="8,-187.7 8,-248.7 128,-248.7 128,-187.7 8,-187.7"/>
<polygon fill="#f5f5f5" stroke="transparent" points="8,-225.2 8,-248.2 128,-248.2 128,-225.2 8,-225.2"/>
<polygon fill="none" stroke="#000000" points="8,-225.2 8,-248.2 128,-248.2 128,-225.2 8,-225.2"/>
<text text-anchor="start" x="13" y="-233.8" font-family="Helvetica,sans-Serif" font-weight="bold" font-size="11.00" fill="#000000">aspect_type</text>
<text text-anchor="start" x="93.5219" y="-233.3" font-family="Helvetica,sans-Serif" font-size="11.00" fill="#000000">[table]</text>
<polygon fill="none" stroke="#000000" points="8,-206.2 8,-225.2 128,-225.2 128,-206.2 8,-206.2"/>
<text text-anchor="start" x="11" y="-212.3" font-family="Helvetica,sans-Serif" font-size="11.00" fill="#000000">...</text>
<polygon fill="#ffffff" stroke="transparent" points="8,-187.2 8,-206.2 52,-206.2 52,-187.2 8,-187.2"/>
<polygon fill="none" stroke="#000000" points="8,-187.2 8,-206.2 52,-206.2 52,-187.2 8,-187.2"/>
<text text-anchor="start" x="11" y="-193.3" font-family="Helvetica,sans-Serif" font-size="11.00" fill="#000000">&lt; 1</text>
<polygon fill="#ffffff" stroke="transparent" points="52,-187.2 52,-206.2 95,-206.2 95,-187.2 52,-187.2"/>
<polygon fill="none" stroke="#000000" points="52,-187.2 52,-206.2 95,-206.2 95,-187.2 52,-187.2"/>
<text text-anchor="start" x="65.1105" y="-193.3" font-family="Helvetica,sans-Serif" font-size="11.00" fill="#000000">1 row</text>
<polygon fill="#ffffff" stroke="transparent" points="95,-187.2 95,-206.2 128,-206.2 128,-187.2 95,-187.2"/>
<polygon fill="none" stroke="#000000" points="95,-187.2 95,-206.2 128,-206.2 128,-187.2 95,-187.2"/>
<text text-anchor="start" x="109.4053" y="-193.3" font-family="Helvetica,sans-Serif" font-size="11.00" fill="#000000">3 &gt;</text>
</a>
</g>
</g>
<!-- aspect&#45;&gt;aspect_type -->
<g id="edge1" class="edge">
<title>aspect:w&#45;&gt;aspect_type:e</title>
<path fill="none" stroke="#000000" d="M162.4909,-215.2C151.1774,-215.2 143.9931,-215.2 128,-215.2"/>
<polygon fill="#000000" stroke="#000000" points="169,-215.2001 177,-218.8 173,-215.2 177,-215.2 177,-215.2 177,-215.2 173,-215.2 177,-211.6 169,-215.2001 169,-215.2001"/>
<ellipse fill="none" stroke="#000000" cx="165.8" cy="-215.2001" rx="3.2" ry="3.2"/>
</g>
<!-- aspect_attribute -->
<g id="node3" class="node">
<title>aspect_attribute</title>
<g id="a_node3"><a xlink:href="../../tables/aspect_attribute.html" xlink:title="aspect_attribute" target="_top">
<polygon fill="#ffffff" stroke="transparent" points="347.5,-395.7 347.5,-456.7 497.5,-456.7 497.5,-395.7 347.5,-395.7"/>
<polygon fill="#f5f5f5" stroke="transparent" points="347.5,-433.2 347.5,-456.2 497.5,-456.2 497.5,-433.2 347.5,-433.2"/>
<polygon fill="none" stroke="#000000" points="347.5,-433.2 347.5,-456.2 497.5,-456.2 497.5,-433.2 347.5,-433.2"/>
<text text-anchor="start" x="352.5" y="-441.8" font-family="Helvetica,sans-Serif" font-weight="bold" font-size="11.00" fill="#000000">aspect_attribute</text>
<text text-anchor="start" x="463.0219" y="-441.3" font-family="Helvetica,sans-Serif" font-size="11.00" fill="#000000">[table]</text>
<polygon fill="none" stroke="#000000" points="347.5,-414.2 347.5,-433.2 497.5,-433.2 497.5,-414.2 347.5,-414.2"/>
<text text-anchor="start" x="350.5" y="-420.3" font-family="Helvetica,sans-Serif" font-size="11.00" fill="#000000">...</text>
<polygon fill="#ffffff" stroke="transparent" points="347.5,-395.2 347.5,-414.2 390.5,-414.2 390.5,-395.2 347.5,-395.2"/>
<polygon fill="none" stroke="#000000" points="347.5,-395.2 347.5,-414.2 390.5,-414.2 390.5,-395.2 347.5,-395.2"/>
<text text-anchor="start" x="350.5" y="-401.3" font-family="Helvetica,sans-Serif" font-size="11.00" fill="#000000">&lt; 3</text>
<polygon fill="#ffffff" stroke="transparent" points="390.5,-395.2 390.5,-414.2 473.5,-414.2 473.5,-395.2 390.5,-395.2"/>
<polygon fill="none" stroke="#000000" points="390.5,-395.2 390.5,-414.2 473.5,-414.2 473.5,-395.2 390.5,-395.2"/>
<text text-anchor="start" x="404.4791" y="-401.3" font-family="Helvetica,sans-Serif" font-size="11.00" fill="#000000">200.382 rows</text>
<polygon fill="#ffffff" stroke="transparent" points="473.5,-395.2 473.5,-414.2 497.5,-414.2 497.5,-395.2 473.5,-395.2"/>
<polygon fill="none" stroke="#000000" points="473.5,-395.2 473.5,-414.2 497.5,-414.2 497.5,-395.2 473.5,-395.2"/>
<text text-anchor="start" x="488.3862" y="-401.3" font-family="Helvetica,sans-Serif" font-size="11.00" fill="#000000"> &#160;</text>
</a>
</g>
</g>
<!-- aspect_attribute&#45;&gt;aspect -->
<g id="edge2" class="edge">
<title>aspect_attribute:w&#45;&gt;aspect:e</title>
<path fill="none" stroke="#000000" d="M333.3195,-420.624C285.397,-399.7596 367.6059,-259.2 297,-259.2"/>
<polygon fill="#000000" stroke="#000000" points="339.6288,-421.7701 346.8565,-426.742 343.5644,-422.485 347.5,-423.2 347.5,-423.2 347.5,-423.2 343.5644,-422.485 348.1435,-419.658 339.6288,-421.7701 339.6288,-421.7701"/>
<ellipse fill="none" stroke="#000000" cx="336.4804" cy="-421.1981" rx="3.2" ry="3.2"/>
</g>
<!-- mat_aspect -->
<g id="node4" class="node">
<title>mat_aspect</title>
<g id="a_node4"><a xlink:href="../../tables/mat_aspect.html" xlink:title="mat_aspect" target="_top">
<polygon fill="#ffffff" stroke="transparent" points="364.5,-313.7 364.5,-374.7 480.5,-374.7 480.5,-313.7 364.5,-313.7"/>
<polygon fill="#f5f5f5" stroke="transparent" points="364.5,-351.2 364.5,-374.2 480.5,-374.2 480.5,-351.2 364.5,-351.2"/>
<polygon fill="none" stroke="#000000" points="364.5,-351.2 364.5,-374.2 480.5,-374.2 480.5,-351.2 364.5,-351.2"/>
<text text-anchor="start" x="369.5" y="-359.8" font-family="Helvetica,sans-Serif" font-weight="bold" font-size="11.00" fill="#000000">mat_aspect</text>
<text text-anchor="start" x="446.0219" y="-359.3" font-family="Helvetica,sans-Serif" font-size="11.00" fill="#000000">[table]</text>
<polygon fill="none" stroke="#000000" points="364.5,-332.2 364.5,-351.2 480.5,-351.2 480.5,-332.2 364.5,-332.2"/>
<text text-anchor="start" x="367.5" y="-338.3" font-family="Helvetica,sans-Serif" font-size="11.00" fill="#000000">...</text>
<polygon fill="#ffffff" stroke="transparent" points="364.5,-313.2 364.5,-332.2 407.5,-332.2 407.5,-313.2 364.5,-313.2"/>
<polygon fill="none" stroke="#000000" points="364.5,-313.2 364.5,-332.2 407.5,-332.2 407.5,-313.2 364.5,-313.2"/>
<text text-anchor="start" x="367.5" y="-319.3" font-family="Helvetica,sans-Serif" font-size="11.00" fill="#000000">&lt; 1</text>
<polygon fill="#ffffff" stroke="transparent" points="407.5,-313.2 407.5,-332.2 456.5,-332.2 456.5,-313.2 407.5,-313.2"/>
<polygon fill="none" stroke="#000000" points="407.5,-313.2 407.5,-332.2 456.5,-332.2 456.5,-313.2 407.5,-313.2"/>
<text text-anchor="start" x="421.1105" y="-319.3" font-family="Helvetica,sans-Serif" font-size="11.00" fill="#000000">0 rows</text>
<polygon fill="#ffffff" stroke="transparent" points="456.5,-313.2 456.5,-332.2 480.5,-332.2 480.5,-313.2 456.5,-313.2"/>
<polygon fill="none" stroke="#000000" points="456.5,-313.2 456.5,-332.2 480.5,-332.2 480.5,-313.2 456.5,-313.2"/>
<text text-anchor="start" x="471.3862" y="-319.3" font-family="Helvetica,sans-Serif" font-size="11.00" fill="#000000"> &#160;</text>
</a>
</g>
</g>
<!-- mat_aspect&#45;&gt;aspect -->
<g id="edge3" class="edge">
<title>mat_aspect:w&#45;&gt;aspect:e</title>
<path fill="none" stroke="#000000" d="M350.3488,-337.8839C322.7261,-322.543 338.4877,-259.2 297,-259.2"/>
<polygon fill="#000000" stroke="#000000" points="356.711,-339.3748 363.6786,-344.7051 360.6055,-340.2874 364.5,-341.2 364.5,-341.2 364.5,-341.2 360.6055,-340.2874 365.3214,-337.6949 356.711,-339.3748 356.711,-339.3748"/>
<ellipse fill="none" stroke="#000000" cx="353.5954" cy="-338.6447" rx="3.2" ry="3.2"/>
</g>
<!-- mo_aspect -->
<g id="node5" class="node">
<title>mo_aspect</title>
<g id="a_node5"><a xlink:href="../../tables/mo_aspect.html" xlink:title="mo_aspect" target="_top">
<polygon fill="#ffffff" stroke="transparent" points="367.5,-231.7 367.5,-292.7 477.5,-292.7 477.5,-231.7 367.5,-231.7"/>
<polygon fill="#f5f5f5" stroke="transparent" points="367.5,-269.2 367.5,-292.2 477.5,-292.2 477.5,-269.2 367.5,-269.2"/>
<polygon fill="none" stroke="#000000" points="367.5,-269.2 367.5,-292.2 477.5,-292.2 477.5,-269.2 367.5,-269.2"/>
<text text-anchor="start" x="372.5" y="-277.8" font-family="Helvetica,sans-Serif" font-weight="bold" font-size="11.00" fill="#000000">mo_aspect</text>
<text text-anchor="start" x="443.0219" y="-277.3" font-family="Helvetica,sans-Serif" font-size="11.00" fill="#000000">[table]</text>
<polygon fill="none" stroke="#000000" points="367.5,-250.2 367.5,-269.2 477.5,-269.2 477.5,-250.2 367.5,-250.2"/>
<text text-anchor="start" x="370.5" y="-256.3" font-family="Helvetica,sans-Serif" font-size="11.00" fill="#000000">...</text>
<polygon fill="#ffffff" stroke="transparent" points="367.5,-231.2 367.5,-250.2 407.5,-250.2 407.5,-231.2 367.5,-231.2"/>
<polygon fill="none" stroke="#000000" points="367.5,-231.2 367.5,-250.2 407.5,-250.2 407.5,-231.2 367.5,-231.2"/>
<text text-anchor="start" x="370.5" y="-237.3" font-family="Helvetica,sans-Serif" font-size="11.00" fill="#000000">&lt; 2</text>
<polygon fill="#ffffff" stroke="transparent" points="407.5,-231.2 407.5,-250.2 455.5,-250.2 455.5,-231.2 407.5,-231.2"/>
<polygon fill="none" stroke="#000000" points="407.5,-231.2 407.5,-250.2 455.5,-250.2 455.5,-231.2 407.5,-231.2"/>
<text text-anchor="start" x="420.1105" y="-237.3" font-family="Helvetica,sans-Serif" font-size="11.00" fill="#000000">0 rows</text>
<polygon fill="#ffffff" stroke="transparent" points="455.5,-231.2 455.5,-250.2 477.5,-250.2 477.5,-231.2 455.5,-231.2"/>
<polygon fill="none" stroke="#000000" points="455.5,-231.2 455.5,-250.2 477.5,-250.2 477.5,-231.2 455.5,-231.2"/>
<text text-anchor="start" x="468.3862" y="-237.3" font-family="Helvetica,sans-Serif" font-size="11.00" fill="#000000"> &#160;</text>
</a>
</g>
</g>
<!-- mo_aspect&#45;&gt;aspect -->
<g id="edge4" class="edge">
<title>mo_aspect:w&#45;&gt;aspect:e</title>
<path fill="none" stroke="#000000" d="M352.8997,-259.2C332.6866,-259.2 322.8255,-259.2 297,-259.2"/>
<polygon fill="#000000" stroke="#000000" points="359.5,-259.2001 367.5,-262.8 363.5,-259.2 367.5,-259.2 367.5,-259.2 367.5,-259.2 363.5,-259.2 367.5,-255.6 359.5,-259.2001 359.5,-259.2001"/>
<ellipse fill="none" stroke="#000000" cx="356.3" cy="-259.2001" rx="3.2" ry="3.2"/>
</g>
<!-- mor_aspect -->
<g id="node6" class="node">
<title>mor_aspect</title>
<g id="a_node6"><a xlink:href="../../tables/mor_aspect.html" xlink:title="mor_aspect" target="_top">
<polygon fill="#ffffff" stroke="transparent" points="364.5,-149.7 364.5,-210.7 480.5,-210.7 480.5,-149.7 364.5,-149.7"/>
<polygon fill="#f5f5f5" stroke="transparent" points="364.5,-187.2 364.5,-210.2 480.5,-210.2 480.5,-187.2 364.5,-187.2"/>
<polygon fill="none" stroke="#000000" points="364.5,-187.2 364.5,-210.2 480.5,-210.2 480.5,-187.2 364.5,-187.2"/>
<text text-anchor="start" x="369.5" y="-195.8" font-family="Helvetica,sans-Serif" font-weight="bold" font-size="11.00" fill="#000000">mor_aspect</text>
<text text-anchor="start" x="446.0219" y="-195.3" font-family="Helvetica,sans-Serif" font-size="11.00" fill="#000000">[table]</text>
<polygon fill="none" stroke="#000000" points="364.5,-168.2 364.5,-187.2 480.5,-187.2 480.5,-168.2 364.5,-168.2"/>
<text text-anchor="start" x="367.5" y="-174.3" font-family="Helvetica,sans-Serif" font-size="11.00" fill="#000000">...</text>
<polygon fill="#ffffff" stroke="transparent" points="364.5,-149.2 364.5,-168.2 407.5,-168.2 407.5,-149.2 364.5,-149.2"/>
<polygon fill="none" stroke="#000000" points="364.5,-149.2 364.5,-168.2 407.5,-168.2 407.5,-149.2 364.5,-149.2"/>
<text text-anchor="start" x="367.5" y="-155.3" font-family="Helvetica,sans-Serif" font-size="11.00" fill="#000000">&lt; 2</text>
<polygon fill="#ffffff" stroke="transparent" points="407.5,-149.2 407.5,-168.2 456.5,-168.2 456.5,-149.2 407.5,-149.2"/>
<polygon fill="none" stroke="#000000" points="407.5,-149.2 407.5,-168.2 456.5,-168.2 456.5,-149.2 407.5,-149.2"/>
<text text-anchor="start" x="421.1105" y="-155.3" font-family="Helvetica,sans-Serif" font-size="11.00" fill="#000000">0 rows</text>
<polygon fill="#ffffff" stroke="transparent" points="456.5,-149.2 456.5,-168.2 480.5,-168.2 480.5,-149.2 456.5,-149.2"/>
<polygon fill="none" stroke="#000000" points="456.5,-149.2 456.5,-168.2 480.5,-168.2 480.5,-149.2 456.5,-149.2"/>
<text text-anchor="start" x="471.3862" y="-155.3" font-family="Helvetica,sans-Serif" font-size="11.00" fill="#000000"> &#160;</text>
</a>
</g>
</g>
<!-- mor_aspect&#45;&gt;aspect -->
<g id="edge5" class="edge">
<title>mor_aspect:w&#45;&gt;aspect:e</title>
<path fill="none" stroke="#000000" d="M350.3488,-180.5161C322.7261,-195.857 338.4877,-259.2 297,-259.2"/>
<polygon fill="#000000" stroke="#000000" points="356.711,-179.0252 365.3214,-180.7051 360.6055,-178.1126 364.5,-177.2 364.5,-177.2 364.5,-177.2 360.6055,-178.1126 363.6786,-173.6949 356.711,-179.0252 356.711,-179.0252"/>
<ellipse fill="none" stroke="#000000" cx="353.5954" cy="-179.7553" rx="3.2" ry="3.2"/>
</g>
<!-- point_aspect -->
<g id="node7" class="node">
<title>point_aspect</title>
<g id="a_node7"><a xlink:href="../../tables/point_aspect.html" xlink:title="point_aspect" target="_top">
<polygon fill="#ffffff" stroke="transparent" points="346,-38.2 346,-128.2 499,-128.2 499,-38.2 346,-38.2"/>
<polygon fill="#f5f5f5" stroke="transparent" points="348.5,-103.2 348.5,-126.2 497.5,-126.2 497.5,-103.2 348.5,-103.2"/>
<polygon fill="none" stroke="#000000" points="348.5,-103.2 348.5,-126.2 497.5,-126.2 497.5,-103.2 348.5,-103.2"/>
<text text-anchor="start" x="353.5" y="-111.8" font-family="Helvetica,sans-Serif" font-weight="bold" font-size="11.00" fill="#000000">point_aspect</text>
<text text-anchor="start" x="462.5437" y="-111.3" font-family="Helvetica,sans-Serif" font-size="11.00" fill="#000000">[table]</text>
<polygon fill="none" stroke="#000000" points="348.5,-81.2 348.5,-103.2 455.5,-103.2 455.5,-81.2 348.5,-81.2"/>
<image xlink:href="../../images/primaryKeys.png" width="11px" height="12px" preserveAspectRatio="xMinYMin meet" x="353.5" y="-98.2"/>
<text text-anchor="start" x="368.5" y="-88.3" font-family="Helvetica,sans-Serif" font-size="11.00" fill="#000000">point_id</text>
<polygon fill="none" stroke="#000000" points="455.5,-81.2 455.5,-103.2 497.5,-103.2 497.5,-81.2 455.5,-81.2"/>
<text text-anchor="start" x="458.4644" y="-88.9" font-family="Helvetica,sans-Serif" font-size="11.00" fill="#000000">int4[10]</text>
<polygon fill="none" stroke="#000000" points="348.5,-59.2 348.5,-81.2 455.5,-81.2 455.5,-59.2 348.5,-59.2"/>
<image xlink:href="../../images/primaryKeys.png" width="11px" height="12px" preserveAspectRatio="xMinYMin meet" x="353.5" y="-76.2"/>
<text text-anchor="start" x="368.5" y="-66.3" font-family="Helvetica,sans-Serif" font-size="11.00" fill="#000000">aspect_id</text>
<polygon fill="none" stroke="#000000" points="455.5,-59.2 455.5,-81.2 497.5,-81.2 497.5,-59.2 455.5,-59.2"/>
<text text-anchor="start" x="458.4644" y="-66.9" font-family="Helvetica,sans-Serif" font-size="11.00" fill="#000000">int4[10]</text>
<polygon fill="#ffffff" stroke="transparent" points="348.5,-40.2 348.5,-59.2 376.5,-59.2 376.5,-40.2 348.5,-40.2"/>
<polygon fill="none" stroke="#000000" points="348.5,-40.2 348.5,-59.2 376.5,-59.2 376.5,-40.2 348.5,-40.2"/>
<text text-anchor="start" x="351.5" y="-46.3" font-family="Helvetica,sans-Serif" font-size="11.00" fill="#000000">&lt; 1</text>
<polygon fill="#ffffff" stroke="transparent" points="376.5,-40.2 376.5,-59.2 455.5,-59.2 455.5,-40.2 376.5,-40.2"/>
<polygon fill="none" stroke="#000000" points="376.5,-40.2 376.5,-59.2 455.5,-59.2 455.5,-40.2 376.5,-40.2"/>
<text text-anchor="start" x="386.4791" y="-46.3" font-family="Helvetica,sans-Serif" font-size="11.00" fill="#000000">800.114 rows</text>
<polygon fill="#ffffff" stroke="transparent" points="455.5,-40.2 455.5,-59.2 497.5,-59.2 497.5,-40.2 455.5,-40.2"/>
<polygon fill="none" stroke="#000000" points="455.5,-40.2 455.5,-59.2 497.5,-59.2 497.5,-40.2 455.5,-40.2"/>
<text text-anchor="start" x="478.9053" y="-46.3" font-family="Helvetica,sans-Serif" font-size="11.00" fill="#000000">0 &gt;</text>
<polygon fill="none" stroke="#000000" stroke-width="2" points="347,-39.2 347,-127.2 498,-127.2 498,-39.2 347,-39.2"/>
</a>
</g>
</g>
<!-- point_aspect&#45;&gt;aspect -->
<g id="edge6" class="edge">
<title>point_aspect:w&#45;&gt;aspect:e</title>
<path fill="none" stroke="#000000" d="M334.1666,-72.4542C276.3734,-93.7781 378.4512,-259.2 297,-259.2"/>
<polygon fill="#000000" stroke="#000000" points="340.5971,-71.4429 349.0593,-73.7563 344.5486,-70.8215 348.5,-70.2 348.5,-70.2 348.5,-70.2 344.5486,-70.8215 347.9407,-66.6437 340.5971,-71.4429 340.5971,-71.4429"/>
<ellipse fill="none" stroke="#000000" cx="337.436" cy="-71.9401" rx="3.2" ry="3.2"/>
</g>
</g>
</svg>
