<?xml version="1.0" encoding="UTF-8" standalone="no"?>
<!DOCTYPE svg PUBLIC "-//W3C//DTD SVG 1.1//EN"
 "http://www.w3.org/Graphics/SVG/1.1/DTD/svg11.dtd">
<!-- Generated by graphviz version 2.40.1 (20161225.0304)
 -->
<!-- Title: twoDegreesRelationshipsDiagramImplied Pages: 1 -->
<svg width="518pt" height="485pt"
 viewBox="0.00 0.00 518.00 485.20" xmlns="http://www.w3.org/2000/svg" xmlns:xlink="http://www.w3.org/1999/xlink">
<g id="graph0" class="graph" transform="scale(1 1) rotate(0) translate(4 481.2)">
<title>twoDegreesRelationshipsDiagramImplied</title>
<polygon fill="#ffffff" stroke="transparent" points="-4,4 -4,-481.2 514,-481.2 514,4 -4,4"/>
<text text-anchor="middle" x="72.4936" y="-7.3" font-family="Helvetica,sans-Serif" font-size="11.00" fill="#000000">Generated by SchemaSpy</text>
<!-- aspect -->
<g id="node1" class="node">
<title>aspect</title>
<g id="a_node1"><a xlink:href="../../tables/aspect.html" xlink:title="aspect" target="_top">
<polygon fill="#ffffff" stroke="transparent" points="178.5,-183.2 178.5,-310.2 298.5,-310.2 298.5,-183.2 178.5,-183.2"/>
<polygon fill="#f5f5f5" stroke="transparent" points="178.5,-286.7 178.5,-309.7 298.5,-309.7 298.5,-286.7 178.5,-286.7"/>
<polygon fill="none" stroke="#000000" points="178.5,-286.7 178.5,-309.7 298.5,-309.7 298.5,-286.7 178.5,-286.7"/>
<text text-anchor="start" x="183.5" y="-295.3" font-family="Helvetica,sans-Serif" font-weight="bold" font-size="11.00" fill="#000000">aspect</text>
<text text-anchor="start" x="263.5437" y="-294.8" font-family="Helvetica,sans-Serif" font-size="11.00" fill="#000000">[table]</text>
<polygon fill="none" stroke="#000000" points="178.5,-264.7 178.5,-286.7 298.5,-286.7 298.5,-264.7 178.5,-264.7"/>
<image xlink:href="../../images/primaryKeys.png" width="11px" height="12px" preserveAspectRatio="xMinYMin meet" x="183.5" y="-281.7"/>
<text text-anchor="start" x="198.5" y="-271.8" font-family="Helvetica,sans-Serif" font-size="11.00" fill="#000000">aspect_id</text>
<polygon fill="#ffffff" stroke="transparent" points="178.5,-242.7 178.5,-264.7 298.5,-264.7 298.5,-242.7 178.5,-242.7"/>
<polygon fill="none" stroke="#000000" points="178.5,-242.7 178.5,-264.7 298.5,-264.7 298.5,-242.7 178.5,-242.7"/>
<text text-anchor="start" x="198.5" y="-249.8" font-family="Helvetica,sans-Serif" font-size="11.00" fill="#000000">description</text>
<polygon fill="#ffffff" stroke="transparent" points="178.5,-220.7 178.5,-242.7 298.5,-242.7 298.5,-220.7 178.5,-220.7"/>
<polygon fill="none" stroke="#000000" points="178.5,-220.7 178.5,-242.7 298.5,-242.7 298.5,-220.7 178.5,-220.7"/>
<image xlink:href="../../images/foreignKeys.png" width="11px" height="12px" preserveAspectRatio="xMinYMin meet" x="183.5" y="-237.7"/>
<text text-anchor="start" x="198.5" y="-227.8" font-family="Helvetica,sans-Serif" font-size="11.00" fill="#000000">aspect_type_id</text>
<polygon fill="none" stroke="#000000" points="178.5,-201.7 178.5,-220.7 298.5,-220.7 298.5,-201.7 178.5,-201.7"/>
<text text-anchor="start" x="181.5" y="-207.8" font-family="Helvetica,sans-Serif" font-size="11.00" fill="#000000">...</text>
<polygon fill="#ffffff" stroke="transparent" points="178.5,-182.7 178.5,-201.7 202.5,-201.7 202.5,-182.7 178.5,-182.7"/>
<polygon fill="none" stroke="#000000" points="178.5,-182.7 178.5,-201.7 202.5,-201.7 202.5,-182.7 178.5,-182.7"/>
<text text-anchor="start" x="181.5" y="-188.8" font-family="Helvetica,sans-Serif" font-size="11.00" fill="#000000">&lt; 1</text>
<polygon fill="#ffffff" stroke="transparent" points="202.5,-182.7 202.5,-201.7 275.5,-201.7 275.5,-182.7 202.5,-182.7"/>
<polygon fill="none" stroke="#000000" points="202.5,-182.7 202.5,-201.7 275.5,-201.7 275.5,-182.7 202.5,-182.7"/>
<text text-anchor="start" x="206.4791" y="-188.8" font-family="Helvetica,sans-Serif" font-size="11.00" fill="#000000">100.191 rows</text>
<polygon fill="#ffffff" stroke="transparent" points="275.5,-182.7 275.5,-201.7 298.5,-201.7 298.5,-182.7 275.5,-182.7"/>
<polygon fill="none" stroke="#000000" points="275.5,-182.7 275.5,-201.7 298.5,-201.7 298.5,-182.7 275.5,-182.7"/>
<text text-anchor="start" x="279.9053" y="-188.8" font-family="Helvetica,sans-Serif" font-size="11.00" fill="#000000">5 &gt;</text>
</a>
</g>
</g>
<!-- aspect_type -->
<g id="node2" class="node">
<title>aspect_type</title>
<g id="a_node2"><a xlink:href="../../tables/aspect_type.html" xlink:title="aspect_type" target="_top">
<polygon fill="#ffffff" stroke="transparent" points="8,-204.2 8,-265.2 128,-265.2 128,-204.2 8,-204.2"/>
<polygon fill="#f5f5f5" stroke="transparent" points="8,-241.7 8,-264.7 128,-264.7 128,-241.7 8,-241.7"/>
<polygon fill="none" stroke="#000000" points="8,-241.7 8,-264.7 128,-264.7 128,-241.7 8,-241.7"/>
<text text-anchor="start" x="13" y="-250.3" font-family="Helvetica,sans-Serif" font-weight="bold" font-size="11.00" fill="#000000">aspect_type</text>
<text text-anchor="start" x="93.5219" y="-249.8" font-family="Helvetica,sans-Serif" font-size="11.00" fill="#000000">[table]</text>
<polygon fill="none" stroke="#000000" points="8,-222.7 8,-241.7 128,-241.7 128,-222.7 8,-222.7"/>
<text text-anchor="start" x="11" y="-228.8" font-family="Helvetica,sans-Serif" font-size="11.00" fill="#000000">...</text>
<polygon fill="#ffffff" stroke="transparent" points="8,-203.7 8,-222.7 52,-222.7 52,-203.7 8,-203.7"/>
<polygon fill="none" stroke="#000000" points="8,-203.7 8,-222.7 52,-222.7 52,-203.7 8,-203.7"/>
<text text-anchor="start" x="11" y="-209.8" font-family="Helvetica,sans-Serif" font-size="11.00" fill="#000000">&lt; 1</text>
<polygon fill="#ffffff" stroke="transparent" points="52,-203.7 52,-222.7 95,-222.7 95,-203.7 52,-203.7"/>
<polygon fill="none" stroke="#000000" points="52,-203.7 52,-222.7 95,-222.7 95,-203.7 52,-203.7"/>
<text text-anchor="start" x="65.1105" y="-209.8" font-family="Helvetica,sans-Serif" font-size="11.00" fill="#000000">1 row</text>
<polygon fill="#ffffff" stroke="transparent" points="95,-203.7 95,-222.7 128,-222.7 128,-203.7 95,-203.7"/>
<polygon fill="none" stroke="#000000" points="95,-203.7 95,-222.7 128,-222.7 128,-203.7 95,-203.7"/>
<text text-anchor="start" x="109.4053" y="-209.8" font-family="Helvetica,sans-Serif" font-size="11.00" fill="#000000">3 &gt;</text>
</a>
</g>
</g>
<!-- aspect&#45;&gt;aspect_type -->
<g id="edge1" class="edge">
<title>aspect:w&#45;&gt;aspect_type:e</title>
<path fill="none" stroke="#000000" d="M163.9203,-231.7C152.0435,-231.7 144.658,-231.7 128,-231.7"/>
<polygon fill="#000000" stroke="#000000" points="170.5,-231.7001 178.5,-235.3 174.5,-231.7 178.5,-231.7 178.5,-231.7 178.5,-231.7 174.5,-231.7 178.5,-228.1 170.5,-231.7001 170.5,-231.7001"/>
<ellipse fill="none" stroke="#000000" cx="167.3" cy="-231.7001" rx="3.2" ry="3.2"/>
</g>
<!-- aspect_attribute -->
<g id="node3" class="node">
<title>aspect_attribute</title>
<g id="a_node3"><a xlink:href="../../tables/aspect_attribute.html" xlink:title="aspect_attribute" target="_top">
<polygon fill="#ffffff" stroke="transparent" points="350.5,-166.2 350.5,-227.2 500.5,-227.2 500.5,-166.2 350.5,-166.2"/>
<polygon fill="#f5f5f5" stroke="transparent" points="350.5,-203.7 350.5,-226.7 500.5,-226.7 500.5,-203.7 350.5,-203.7"/>
<polygon fill="none" stroke="#000000" points="350.5,-203.7 350.5,-226.7 500.5,-226.7 500.5,-203.7 350.5,-203.7"/>
<text text-anchor="start" x="355.5" y="-212.3" font-family="Helvetica,sans-Serif" font-weight="bold" font-size="11.00" fill="#000000">aspect_attribute</text>
<text text-anchor="start" x="466.0219" y="-211.8" font-family="Helvetica,sans-Serif" font-size="11.00" fill="#000000">[table]</text>
<polygon fill="none" stroke="#000000" points="350.5,-184.7 350.5,-203.7 500.5,-203.7 500.5,-184.7 350.5,-184.7"/>
<text text-anchor="start" x="353.5" y="-190.8" font-family="Helvetica,sans-Serif" font-size="11.00" fill="#000000">...</text>
<polygon fill="#ffffff" stroke="transparent" points="350.5,-165.7 350.5,-184.7 393.5,-184.7 393.5,-165.7 350.5,-165.7"/>
<polygon fill="none" stroke="#000000" points="350.5,-165.7 350.5,-184.7 393.5,-184.7 393.5,-165.7 350.5,-165.7"/>
<text text-anchor="start" x="353.5" y="-171.8" font-family="Helvetica,sans-Serif" font-size="11.00" fill="#000000">&lt; 3</text>
<polygon fill="#ffffff" stroke="transparent" points="393.5,-165.7 393.5,-184.7 476.5,-184.7 476.5,-165.7 393.5,-165.7"/>
<polygon fill="none" stroke="#000000" points="393.5,-165.7 393.5,-184.7 476.5,-184.7 476.5,-165.7 393.5,-165.7"/>
<text text-anchor="start" x="407.4791" y="-171.8" font-family="Helvetica,sans-Serif" font-size="11.00" fill="#000000">200.382 rows</text>
<polygon fill="#ffffff" stroke="transparent" points="476.5,-165.7 476.5,-184.7 500.5,-184.7 500.5,-165.7 476.5,-165.7"/>
<polygon fill="none" stroke="#000000" points="476.5,-165.7 476.5,-184.7 500.5,-184.7 500.5,-165.7 476.5,-165.7"/>
<text text-anchor="start" x="491.3862" y="-171.8" font-family="Helvetica,sans-Serif" font-size="11.00" fill="#000000"> &#160;</text>
</a>
</g>
</g>
<!-- aspect_attribute&#45;&gt;aspect -->
<g id="edge2" class="edge">
<title>aspect_attribute:w&#45;&gt;aspect:e</title>
<path fill="none" stroke="#000000" d="M336.4589,-198.1087C315.463,-215.1409 335.586,-275.7 298.5,-275.7"/>
<polygon fill="#000000" stroke="#000000" points="342.8674,-196.0966 351.5785,-197.1347 346.6837,-194.8983 350.5,-193.7 350.5,-193.7 350.5,-193.7 346.6837,-194.8983 349.4215,-190.2653 342.8674,-196.0966 342.8674,-196.0966"/>
<ellipse fill="none" stroke="#000000" cx="339.8143" cy="-197.0552" rx="3.2" ry="3.2"/>
</g>
<!-- mat_aspect -->
<g id="node4" class="node">
<title>mat_aspect</title>
<g id="a_node4"><a xlink:href="../../tables/mat_aspect.html" xlink:title="mat_aspect" target="_top">
<polygon fill="#ffffff" stroke="transparent" points="367.5,-412.2 367.5,-473.2 483.5,-473.2 483.5,-412.2 367.5,-412.2"/>
<polygon fill="#f5f5f5" stroke="transparent" points="367.5,-449.7 367.5,-472.7 483.5,-472.7 483.5,-449.7 367.5,-449.7"/>
<polygon fill="none" stroke="#000000" points="367.5,-449.7 367.5,-472.7 483.5,-472.7 483.5,-449.7 367.5,-449.7"/>
<text text-anchor="start" x="372.5" y="-458.3" font-family="Helvetica,sans-Serif" font-weight="bold" font-size="11.00" fill="#000000">mat_aspect</text>
<text text-anchor="start" x="449.0219" y="-457.8" font-family="Helvetica,sans-Serif" font-size="11.00" fill="#000000">[table]</text>
<polygon fill="none" stroke="#000000" points="367.5,-430.7 367.5,-449.7 483.5,-449.7 483.5,-430.7 367.5,-430.7"/>
<text text-anchor="start" x="370.5" y="-436.8" font-family="Helvetica,sans-Serif" font-size="11.00" fill="#000000">...</text>
<polygon fill="#ffffff" stroke="transparent" points="367.5,-411.7 367.5,-430.7 410.5,-430.7 410.5,-411.7 367.5,-411.7"/>
<polygon fill="none" stroke="#000000" points="367.5,-411.7 367.5,-430.7 410.5,-430.7 410.5,-411.7 367.5,-411.7"/>
<text text-anchor="start" x="370.5" y="-417.8" font-family="Helvetica,sans-Serif" font-size="11.00" fill="#000000">&lt; 1</text>
<polygon fill="#ffffff" stroke="transparent" points="410.5,-411.7 410.5,-430.7 459.5,-430.7 459.5,-411.7 410.5,-411.7"/>
<polygon fill="none" stroke="#000000" points="410.5,-411.7 410.5,-430.7 459.5,-430.7 459.5,-411.7 410.5,-411.7"/>
<text text-anchor="start" x="424.1105" y="-417.8" font-family="Helvetica,sans-Serif" font-size="11.00" fill="#000000">0 rows</text>
<polygon fill="#ffffff" stroke="transparent" points="459.5,-411.7 459.5,-430.7 483.5,-430.7 483.5,-411.7 459.5,-411.7"/>
<polygon fill="none" stroke="#000000" points="459.5,-411.7 459.5,-430.7 483.5,-430.7 483.5,-411.7 459.5,-411.7"/>
<text text-anchor="start" x="474.3862" y="-417.8" font-family="Helvetica,sans-Serif" font-size="11.00" fill="#000000"> &#160;</text>
</a>
</g>
</g>
<!-- mat_aspect&#45;&gt;aspect -->
<g id="edge3" class="edge">
<title>mat_aspect:w&#45;&gt;aspect:e</title>
<path fill="none" stroke="#000000" d="M353.1978,-437.3816C300.1283,-417.4483 372.0173,-275.7 298.5,-275.7"/>
<polygon fill="#000000" stroke="#000000" points="359.6031,-438.4199 366.9239,-443.2536 363.5515,-439.0599 367.5,-439.7 367.5,-439.7 367.5,-439.7 363.5515,-439.0599 368.0761,-436.1464 359.6031,-438.4199 359.6031,-438.4199"/>
<ellipse fill="none" stroke="#000000" cx="356.4443" cy="-437.9078" rx="3.2" ry="3.2"/>
</g>
<!-- mo_aspect -->
<g id="node5" class="node">
<title>mo_aspect</title>
<g id="a_node5"><a xlink:href="../../tables/mo_aspect.html" xlink:title="mo_aspect" target="_top">
<polygon fill="#ffffff" stroke="transparent" points="370.5,-330.2 370.5,-391.2 480.5,-391.2 480.5,-330.2 370.5,-330.2"/>
<polygon fill="#f5f5f5" stroke="transparent" points="370.5,-367.7 370.5,-390.7 480.5,-390.7 480.5,-367.7 370.5,-367.7"/>
<polygon fill="none" stroke="#000000" points="370.5,-367.7 370.5,-390.7 480.5,-390.7 480.5,-367.7 370.5,-367.7"/>
<text text-anchor="start" x="375.5" y="-376.3" font-family="Helvetica,sans-Serif" font-weight="bold" font-size="11.00" fill="#000000">mo_aspect</text>
<text text-anchor="start" x="446.0219" y="-375.8" font-family="Helvetica,sans-Serif" font-size="11.00" fill="#000000">[table]</text>
<polygon fill="none" stroke="#000000" points="370.5,-348.7 370.5,-367.7 480.5,-367.7 480.5,-348.7 370.5,-348.7"/>
<text text-anchor="start" x="373.5" y="-354.8" font-family="Helvetica,sans-Serif" font-size="11.00" fill="#000000">...</text>
<polygon fill="#ffffff" stroke="transparent" points="370.5,-329.7 370.5,-348.7 410.5,-348.7 410.5,-329.7 370.5,-329.7"/>
<polygon fill="none" stroke="#000000" points="370.5,-329.7 370.5,-348.7 410.5,-348.7 410.5,-329.7 370.5,-329.7"/>
<text text-anchor="start" x="373.5" y="-335.8" font-family="Helvetica,sans-Serif" font-size="11.00" fill="#000000">&lt; 2</text>
<polygon fill="#ffffff" stroke="transparent" points="410.5,-329.7 410.5,-348.7 458.5,-348.7 458.5,-329.7 410.5,-329.7"/>
<polygon fill="none" stroke="#000000" points="410.5,-329.7 410.5,-348.7 458.5,-348.7 458.5,-329.7 410.5,-329.7"/>
<text text-anchor="start" x="423.1105" y="-335.8" font-family="Helvetica,sans-Serif" font-size="11.00" fill="#000000">0 rows</text>
<polygon fill="#ffffff" stroke="transparent" points="458.5,-329.7 458.5,-348.7 480.5,-348.7 480.5,-329.7 458.5,-329.7"/>
<polygon fill="none" stroke="#000000" points="458.5,-329.7 458.5,-348.7 480.5,-348.7 480.5,-329.7 458.5,-329.7"/>
<text text-anchor="start" x="471.3862" y="-335.8" font-family="Helvetica,sans-Serif" font-size="11.00" fill="#000000"> &#160;</text>
</a>
</g>
</g>
<!-- mo_aspect&#45;&gt;aspect -->
<g id="edge4" class="edge">
<title>mo_aspect:w&#45;&gt;aspect:e</title>
<path fill="none" stroke="#000000" d="M356.2409,-354.5856C326.8503,-339.6073 341.3159,-275.7 298.5,-275.7"/>
<polygon fill="#000000" stroke="#000000" points="362.6842,-355.9929 369.7318,-361.2171 366.5921,-356.8465 370.5,-357.7 370.5,-357.7 370.5,-357.7 366.5921,-356.8465 371.2682,-354.1829 362.6842,-355.9929 362.6842,-355.9929"/>
<ellipse fill="none" stroke="#000000" cx="359.5579" cy="-355.3101" rx="3.2" ry="3.2"/>
</g>
<!-- mor_aspect -->
<g id="node6" class="node">
<title>mor_aspect</title>
<g id="a_node6"><a xlink:href="../../tables/mor_aspect.html" xlink:title="mor_aspect" target="_top">
<polygon fill="#ffffff" stroke="transparent" points="367.5,-248.2 367.5,-309.2 483.5,-309.2 483.5,-248.2 367.5,-248.2"/>
<polygon fill="#f5f5f5" stroke="transparent" points="367.5,-285.7 367.5,-308.7 483.5,-308.7 483.5,-285.7 367.5,-285.7"/>
<polygon fill="none" stroke="#000000" points="367.5,-285.7 367.5,-308.7 483.5,-308.7 483.5,-285.7 367.5,-285.7"/>
<text text-anchor="start" x="372.5" y="-294.3" font-family="Helvetica,sans-Serif" font-weight="bold" font-size="11.00" fill="#000000">mor_aspect</text>
<text text-anchor="start" x="449.0219" y="-293.8" font-family="Helvetica,sans-Serif" font-size="11.00" fill="#000000">[table]</text>
<polygon fill="none" stroke="#000000" points="367.5,-266.7 367.5,-285.7 483.5,-285.7 483.5,-266.7 367.5,-266.7"/>
<text text-anchor="start" x="370.5" y="-272.8" font-family="Helvetica,sans-Serif" font-size="11.00" fill="#000000">...</text>
<polygon fill="#ffffff" stroke="transparent" points="367.5,-247.7 367.5,-266.7 410.5,-266.7 410.5,-247.7 367.5,-247.7"/>
<polygon fill="none" stroke="#000000" points="367.5,-247.7 367.5,-266.7 410.5,-266.7 410.5,-247.7 367.5,-247.7"/>
<text text-anchor="start" x="370.5" y="-253.8" font-family="Helvetica,sans-Serif" font-size="11.00" fill="#000000">&lt; 2</text>
<polygon fill="#ffffff" stroke="transparent" points="410.5,-247.7 410.5,-266.7 459.5,-266.7 459.5,-247.7 410.5,-247.7"/>
<polygon fill="none" stroke="#000000" points="410.5,-247.7 410.5,-266.7 459.5,-266.7 459.5,-247.7 410.5,-247.7"/>
<text text-anchor="start" x="424.1105" y="-253.8" font-family="Helvetica,sans-Serif" font-size="11.00" fill="#000000">0 rows</text>
<polygon fill="#ffffff" stroke="transparent" points="459.5,-247.7 459.5,-266.7 483.5,-266.7 483.5,-247.7 459.5,-247.7"/>
<polygon fill="none" stroke="#000000" points="459.5,-247.7 459.5,-266.7 483.5,-266.7 483.5,-247.7 459.5,-247.7"/>
<text text-anchor="start" x="474.3862" y="-253.8" font-family="Helvetica,sans-Serif" font-size="11.00" fill="#000000"> &#160;</text>
</a>
</g>
</g>
<!-- mor_aspect&#45;&gt;aspect -->
<g id="edge5" class="edge">
<title>mor_aspect:w&#45;&gt;aspect:e</title>
<path fill="none" stroke="#000000" d="M352.9297,-275.7C333.3355,-275.7 323.6563,-275.7 298.5,-275.7"/>
<polygon fill="#000000" stroke="#000000" points="359.5,-275.7001 367.5,-279.3 363.5,-275.7 367.5,-275.7 367.5,-275.7 367.5,-275.7 363.5,-275.7 367.5,-272.1 359.5,-275.7001 359.5,-275.7001"/>
<ellipse fill="none" stroke="#000000" cx="356.3" cy="-275.7001" rx="3.2" ry="3.2"/>
</g>
<!-- point -->
<g id="node7" class="node">
<title>point</title>
<g id="a_node7"><a xlink:href="../../tables/point.html" xlink:title="point" target="_top">
<polygon fill="#ffffff" stroke="transparent" points="177,-38.2 177,-143.2 300,-143.2 300,-38.2 177,-38.2"/>
<polygon fill="#f5f5f5" stroke="transparent" points="177.5,-119.7 177.5,-142.7 300.5,-142.7 300.5,-119.7 177.5,-119.7"/>
<polygon fill="none" stroke="#000000" points="177.5,-119.7 177.5,-142.7 300.5,-142.7 300.5,-119.7 177.5,-119.7"/>
<text text-anchor="start" x="182.5" y="-128.3" font-family="Helvetica,sans-Serif" font-weight="bold" font-size="11.00" fill="#000000">point</text>
<text text-anchor="start" x="265.5437" y="-127.8" font-family="Helvetica,sans-Serif" font-size="11.00" fill="#000000">[table]</text>
<polygon fill="none" stroke="#000000" points="177.5,-97.7 177.5,-119.7 300.5,-119.7 300.5,-97.7 177.5,-97.7"/>
<image xlink:href="../../images/primaryKeys.png" width="11px" height="12px" preserveAspectRatio="xMinYMin meet" x="182.5" y="-114.7"/>
<text text-anchor="start" x="222.5" y="-104.8" font-family="Helvetica,sans-Serif" font-size="11.00" fill="#000000">point_id</text>
<polygon fill="#ffffff" stroke="transparent" points="177.5,-75.7 177.5,-97.7 300.5,-97.7 300.5,-75.7 177.5,-75.7"/>
<polygon fill="none" stroke="#000000" points="177.5,-75.7 177.5,-97.7 300.5,-97.7 300.5,-75.7 177.5,-75.7"/>
<image xlink:href="../../images/foreignKeys.png" width="11px" height="12px" preserveAspectRatio="xMinYMin meet" x="182.5" y="-92.7"/>
<text text-anchor="start" x="222.5" y="-82.8" font-family="Helvetica,sans-Serif" font-size="11.00" fill="#000000">mat_id</text>
<polygon fill="none" stroke="#000000" points="177.5,-56.7 177.5,-75.7 300.5,-75.7 300.5,-56.7 177.5,-56.7"/>
<text text-anchor="start" x="180.5" y="-62.8" font-family="Helvetica,sans-Serif" font-size="11.00" fill="#000000">...</text>
<polygon fill="#ffffff" stroke="transparent" points="177.5,-37.7 177.5,-56.7 198.5,-56.7 198.5,-37.7 177.5,-37.7"/>
<polygon fill="none" stroke="#000000" points="177.5,-37.7 177.5,-56.7 198.5,-56.7 198.5,-37.7 177.5,-37.7"/>
<text text-anchor="start" x="180.2027" y="-43.8" font-family="Helvetica,sans-Serif" font-size="11.00" fill="#000000">&lt; 1</text>
<polygon fill="#ffffff" stroke="transparent" points="198.5,-37.7 198.5,-56.7 279.5,-56.7 279.5,-37.7 198.5,-37.7"/>
<polygon fill="none" stroke="#000000" points="198.5,-37.7 198.5,-56.7 279.5,-56.7 279.5,-37.7 198.5,-37.7"/>
<text text-anchor="start" x="201.4037" y="-43.8" font-family="Helvetica,sans-Serif" font-size="11.00" fill="#000000">2.370.200 rows</text>
<polygon fill="#ffffff" stroke="transparent" points="279.5,-37.7 279.5,-56.7 300.5,-56.7 300.5,-37.7 279.5,-37.7"/>
<polygon fill="none" stroke="#000000" points="279.5,-37.7 279.5,-56.7 300.5,-56.7 300.5,-37.7 279.5,-37.7"/>
<text text-anchor="start" x="282.2027" y="-43.8" font-family="Helvetica,sans-Serif" font-size="11.00" fill="#000000">1 &gt;</text>
</a>
</g>
</g>
<!-- mat -->
<g id="node8" class="node">
<title>mat</title>
<g id="a_node8"><a xlink:href="../../tables/mat.html" xlink:title="mat" target="_top">
<polygon fill="#ffffff" stroke="transparent" points="14.5,-59.2 14.5,-120.2 121.5,-120.2 121.5,-59.2 14.5,-59.2"/>
<polygon fill="#f5f5f5" stroke="transparent" points="15,-96.7 15,-119.7 122,-119.7 122,-96.7 15,-96.7"/>
<polygon fill="none" stroke="#000000" points="15,-96.7 15,-119.7 122,-119.7 122,-96.7 15,-96.7"/>
<text text-anchor="start" x="20" y="-105.3" font-family="Helvetica,sans-Serif" font-weight="bold" font-size="11.00" fill="#000000">mat</text>
<text text-anchor="start" x="87.0437" y="-104.8" font-family="Helvetica,sans-Serif" font-size="11.00" fill="#000000">[table]</text>
<polygon fill="none" stroke="#000000" points="15,-77.7 15,-96.7 122,-96.7 122,-77.7 15,-77.7"/>
<text text-anchor="start" x="18" y="-83.8" font-family="Helvetica,sans-Serif" font-size="11.00" fill="#000000">...</text>
<polygon fill="#ffffff" stroke="transparent" points="15,-58.7 15,-77.7 36,-77.7 36,-58.7 15,-58.7"/>
<polygon fill="none" stroke="#000000" points="15,-58.7 15,-77.7 36,-77.7 36,-58.7 15,-58.7"/>
<text text-anchor="start" x="17.7026" y="-64.8" font-family="Helvetica,sans-Serif" font-size="11.00" fill="#000000">&lt; 1</text>
<polygon fill="#ffffff" stroke="transparent" points="36,-58.7 36,-77.7 101,-77.7 101,-58.7 36,-58.7"/>
<polygon fill="none" stroke="#000000" points="36,-58.7 36,-77.7 101,-77.7 101,-58.7 36,-58.7"/>
<text text-anchor="start" x="38.547" y="-64.8" font-family="Helvetica,sans-Serif" font-size="11.00" fill="#000000">22.462 rows</text>
<polygon fill="#ffffff" stroke="transparent" points="101,-58.7 101,-77.7 122,-77.7 122,-58.7 101,-58.7"/>
<polygon fill="none" stroke="#000000" points="101,-58.7 101,-77.7 122,-77.7 122,-58.7 101,-58.7"/>
<text text-anchor="start" x="103.7027" y="-64.8" font-family="Helvetica,sans-Serif" font-size="11.00" fill="#000000">1 &gt;</text>
</a>
</g>
</g>
<!-- point&#45;&gt;mat -->
<g id="edge6" class="edge">
<title>point:w&#45;&gt;mat:e</title>
<path fill="none" stroke="#000000" stroke-dasharray="5,2" d="M162.7286,-86.7C148.9265,-86.7 140.8854,-86.7 122,-86.7"/>
<polygon fill="#000000" stroke="#000000" points="169.5,-86.7001 177.5,-90.3 173.5,-86.7 177.5,-86.7 177.5,-86.7 177.5,-86.7 173.5,-86.7 177.5,-83.1 169.5,-86.7001 169.5,-86.7001"/>
<ellipse fill="none" stroke="#000000" cx="166.3" cy="-86.7001" rx="3.2" ry="3.2"/>
</g>
<!-- point_aspect -->
<g id="node9" class="node">
<title>point_aspect</title>
<g id="a_node9"><a xlink:href="../../tables/point_aspect.html" xlink:title="point_aspect" target="_top">
<polygon fill="#ffffff" stroke="transparent" points="349,-54.7 349,-144.7 502,-144.7 502,-54.7 349,-54.7"/>
<polygon fill="#f5f5f5" stroke="transparent" points="351.5,-119.7 351.5,-142.7 500.5,-142.7 500.5,-119.7 351.5,-119.7"/>
<polygon fill="none" stroke="#000000" points="351.5,-119.7 351.5,-142.7 500.5,-142.7 500.5,-119.7 351.5,-119.7"/>
<text text-anchor="start" x="356.5" y="-128.3" font-family="Helvetica,sans-Serif" font-weight="bold" font-size="11.00" fill="#000000">point_aspect</text>
<text text-anchor="start" x="465.5437" y="-127.8" font-family="Helvetica,sans-Serif" font-size="11.00" fill="#000000">[table]</text>
<polygon fill="none" stroke="#000000" points="351.5,-97.7 351.5,-119.7 458.5,-119.7 458.5,-97.7 351.5,-97.7"/>
<image xlink:href="../../images/primaryKeys.png" width="11px" height="12px" preserveAspectRatio="xMinYMin meet" x="356.5" y="-114.7"/>
<text text-anchor="start" x="371.5" y="-104.8" font-family="Helvetica,sans-Serif" font-size="11.00" fill="#000000">point_id</text>
<polygon fill="none" stroke="#000000" points="458.5,-97.7 458.5,-119.7 500.5,-119.7 500.5,-97.7 458.5,-97.7"/>
<text text-anchor="start" x="461.4644" y="-105.4" font-family="Helvetica,sans-Serif" font-size="11.00" fill="#000000">int4[10]</text>
<polygon fill="none" stroke="#000000" points="351.5,-75.7 351.5,-97.7 458.5,-97.7 458.5,-75.7 351.5,-75.7"/>
<image xlink:href="../../images/primaryKeys.png" width="11px" height="12px" preserveAspectRatio="xMinYMin meet" x="356.5" y="-92.7"/>
<text text-anchor="start" x="371.5" y="-82.8" font-family="Helvetica,sans-Serif" font-size="11.00" fill="#000000">aspect_id</text>
<polygon fill="none" stroke="#000000" points="458.5,-75.7 458.5,-97.7 500.5,-97.7 500.5,-75.7 458.5,-75.7"/>
<text text-anchor="start" x="461.4644" y="-83.4" font-family="Helvetica,sans-Serif" font-size="11.00" fill="#000000">int4[10]</text>
<polygon fill="#ffffff" stroke="transparent" points="351.5,-56.7 351.5,-75.7 379.5,-75.7 379.5,-56.7 351.5,-56.7"/>
<polygon fill="none" stroke="#000000" points="351.5,-56.7 351.5,-75.7 379.5,-75.7 379.5,-56.7 351.5,-56.7"/>
<text text-anchor="start" x="354.5" y="-62.8" font-family="Helvetica,sans-Serif" font-size="11.00" fill="#000000">&lt; 2</text>
<polygon fill="#ffffff" stroke="transparent" points="379.5,-56.7 379.5,-75.7 458.5,-75.7 458.5,-56.7 379.5,-56.7"/>
<polygon fill="none" stroke="#000000" points="379.5,-56.7 379.5,-75.7 458.5,-75.7 458.5,-56.7 379.5,-56.7"/>
<text text-anchor="start" x="389.4791" y="-62.8" font-family="Helvetica,sans-Serif" font-size="11.00" fill="#000000">474.040 rows</text>
<polygon fill="#ffffff" stroke="transparent" points="458.5,-56.7 458.5,-75.7 500.5,-75.7 500.5,-56.7 458.5,-56.7"/>
<polygon fill="none" stroke="#000000" points="458.5,-56.7 458.5,-75.7 500.5,-75.7 500.5,-56.7 458.5,-56.7"/>
<text text-anchor="start" x="481.9053" y="-62.8" font-family="Helvetica,sans-Serif" font-size="11.00" fill="#000000">0 &gt;</text>
<polygon fill="none" stroke="#000000" stroke-width="2" points="350,-55.7 350,-143.7 501,-143.7 501,-55.7 350,-55.7"/>
</a>
</g>
</g>
<!-- point_aspect&#45;&gt;aspect -->
<g id="edge7" class="edge">
<title>point_aspect:w&#45;&gt;aspect:e</title>
<path fill="none" stroke="#000000" d="M337.1207,-88.9542C279.0523,-110.2781 380.1174,-275.7 298.5,-275.7"/>
<polygon fill="#000000" stroke="#000000" points="343.5965,-87.9391 352.0576,-90.2566 347.5483,-87.3195 351.5,-86.7 351.5,-86.7 351.5,-86.7 347.5483,-87.3195 350.9424,-83.1434 343.5965,-87.9391 343.5965,-87.9391"/>
<ellipse fill="none" stroke="#000000" cx="340.4351" cy="-88.4347" rx="3.2" ry="3.2"/>
</g>
<!-- point_aspect&#45;&gt;point -->
<g id="edge8" class="edge">
<title>point_aspect:w&#45;&gt;point:e</title>
<path fill="none" stroke="#000000" d="M336.776,-108.7C324.7815,-108.7 317.3229,-108.7 300.5,-108.7"/>
<polygon fill="#000000" stroke="#000000" points="343.5,-108.7001 351.5,-112.3 347.5,-108.7 351.5,-108.7 351.5,-108.7 351.5,-108.7 347.5,-108.7 351.5,-105.1 343.5,-108.7001 343.5,-108.7001"/>
<ellipse fill="none" stroke="#000000" cx="340.3" cy="-108.7001" rx="3.2" ry="3.2"/>
</g>
</g>
</svg>
