<?xml version="1.0" encoding="UTF-8" standalone="no"?>
<!DOCTYPE svg PUBLIC "-//W3C//DTD SVG 1.1//EN"
 "http://www.w3.org/Graphics/SVG/1.1/DTD/svg11.dtd">
<!-- Generated by graphviz version 2.40.1 (20161225.0304)
 -->
<!-- Title: compactRelationshipsDiagram Pages: 1 -->
<svg width="701pt" height="780pt"
 viewBox="0.00 0.00 701.00 780.20" xmlns="http://www.w3.org/2000/svg" xmlns:xlink="http://www.w3.org/1999/xlink">
<g id="graph0" class="graph" transform="scale(1 1) rotate(0) translate(4 776.2)">
<title>compactRelationshipsDiagram</title>
<polygon fill="#ffffff" stroke="transparent" points="-4,4 -4,-776.2 697,-776.2 697,4 -4,4"/>
<text text-anchor="middle" x="72.4936" y="-7.3" font-family="Helvetica,sans-Serif" font-size="11.00" fill="#000000">Generated by SchemaSpy</text>
<!-- mor_aspect -->
<g id="node1" class="node">
<title>mor_aspect</title>
<g id="a_node1"><a xlink:href="../../tables/mor_aspect.html" xlink:title="mor_aspect" target="_top">
<polygon fill="#ffffff" stroke="transparent" points="552,-531.7 552,-617.7 668,-617.7 668,-531.7 552,-531.7"/>
<polygon fill="#f5f5f5" stroke="transparent" points="552,-594.7 552,-617.7 668,-617.7 668,-594.7 552,-594.7"/>
<polygon fill="none" stroke="#000000" points="552,-594.7 552,-617.7 668,-617.7 668,-594.7 552,-594.7"/>
<text text-anchor="start" x="557" y="-603.3" font-family="Helvetica,sans-Serif" font-weight="bold" font-size="11.00" fill="#000000">mor_aspect</text>
<text text-anchor="start" x="633.5219" y="-602.8" font-family="Helvetica,sans-Serif" font-size="11.00" fill="#000000">[table]</text>
<polygon fill="none" stroke="#000000" points="552,-572.7 552,-594.7 668,-594.7 668,-572.7 552,-572.7"/>
<image xlink:href="../../images/primaryKeys.png" width="11px" height="12px" preserveAspectRatio="xMinYMin meet" x="557" y="-589.7"/>
<text text-anchor="start" x="581" y="-579.8" font-family="Helvetica,sans-Serif" font-size="11.00" fill="#000000">mor_id</text>
<polygon fill="none" stroke="#000000" points="552,-550.7 552,-572.7 668,-572.7 668,-550.7 552,-550.7"/>
<image xlink:href="../../images/primaryKeys.png" width="11px" height="12px" preserveAspectRatio="xMinYMin meet" x="557" y="-567.7"/>
<text text-anchor="start" x="581" y="-557.8" font-family="Helvetica,sans-Serif" font-size="11.00" fill="#000000">aspect_id</text>
<polygon fill="#ffffff" stroke="transparent" points="552,-531.7 552,-550.7 595,-550.7 595,-531.7 552,-531.7"/>
<polygon fill="none" stroke="#000000" points="552,-531.7 552,-550.7 595,-550.7 595,-531.7 552,-531.7"/>
<text text-anchor="start" x="555" y="-537.8" font-family="Helvetica,sans-Serif" font-size="11.00" fill="#000000">&lt; 2</text>
<polygon fill="#ffffff" stroke="transparent" points="595,-531.7 595,-550.7 644,-550.7 644,-531.7 595,-531.7"/>
<polygon fill="none" stroke="#000000" points="595,-531.7 595,-550.7 644,-550.7 644,-531.7 595,-531.7"/>
<text text-anchor="start" x="608.6105" y="-537.8" font-family="Helvetica,sans-Serif" font-size="11.00" fill="#000000">0 rows</text>
<polygon fill="#ffffff" stroke="transparent" points="644,-531.7 644,-550.7 668,-550.7 668,-531.7 644,-531.7"/>
<polygon fill="none" stroke="#000000" points="644,-531.7 644,-550.7 668,-550.7 668,-531.7 644,-531.7"/>
<text text-anchor="start" x="658.8862" y="-537.8" font-family="Helvetica,sans-Serif" font-size="11.00" fill="#000000"> &#160;</text>
</a>
</g>
</g>
<!-- mo_relationship -->
<g id="node6" class="node">
<title>mo_relationship</title>
<g id="a_node6"><a xlink:href="../../tables/mo_relationship.html" xlink:title="mo_relationship" target="_top">
<polygon fill="#ffffff" stroke="transparent" points="339,-493.2 339,-620.2 486,-620.2 486,-493.2 339,-493.2"/>
<polygon fill="#f5f5f5" stroke="transparent" points="339.5,-596.7 339.5,-619.7 486.5,-619.7 486.5,-596.7 339.5,-596.7"/>
<polygon fill="none" stroke="#000000" points="339.5,-596.7 339.5,-619.7 486.5,-619.7 486.5,-596.7 339.5,-596.7"/>
<text text-anchor="start" x="344.5" y="-605.3" font-family="Helvetica,sans-Serif" font-weight="bold" font-size="11.00" fill="#000000">mo_relationship</text>
<text text-anchor="start" x="452.0219" y="-604.8" font-family="Helvetica,sans-Serif" font-size="11.00" fill="#000000">[table]</text>
<polygon fill="none" stroke="#000000" points="339.5,-574.7 339.5,-596.7 486.5,-596.7 486.5,-574.7 339.5,-574.7"/>
<image xlink:href="../../images/primaryKeys.png" width="11px" height="12px" preserveAspectRatio="xMinYMin meet" x="344.5" y="-591.7"/>
<text text-anchor="start" x="368.5" y="-581.8" font-family="Helvetica,sans-Serif" font-size="11.00" fill="#000000">mor_id</text>
<polygon fill="#ffffff" stroke="transparent" points="339.5,-552.7 339.5,-574.7 486.5,-574.7 486.5,-552.7 339.5,-552.7"/>
<polygon fill="none" stroke="#000000" points="339.5,-552.7 339.5,-574.7 486.5,-574.7 486.5,-552.7 339.5,-552.7"/>
<image xlink:href="../../images/foreignKeys.png" width="11px" height="12px" preserveAspectRatio="xMinYMin meet" x="344.5" y="-569.7"/>
<text text-anchor="start" x="368.5" y="-559.8" font-family="Helvetica,sans-Serif" font-size="11.00" fill="#000000">mo_target</text>
<polygon fill="#ffffff" stroke="transparent" points="339.5,-530.7 339.5,-552.7 486.5,-552.7 486.5,-530.7 339.5,-530.7"/>
<polygon fill="none" stroke="#000000" points="339.5,-530.7 339.5,-552.7 486.5,-552.7 486.5,-530.7 339.5,-530.7"/>
<image xlink:href="../../images/foreignKeys.png" width="11px" height="12px" preserveAspectRatio="xMinYMin meet" x="344.5" y="-547.7"/>
<text text-anchor="start" x="368.5" y="-537.8" font-family="Helvetica,sans-Serif" font-size="11.00" fill="#000000">mo_source</text>
<polygon fill="none" stroke="#000000" points="339.5,-511.7 339.5,-530.7 486.5,-530.7 486.5,-511.7 339.5,-511.7"/>
<text text-anchor="start" x="342.5" y="-517.8" font-family="Helvetica,sans-Serif" font-size="11.00" fill="#000000">...</text>
<polygon fill="#ffffff" stroke="transparent" points="339.5,-492.7 339.5,-511.7 393.5,-511.7 393.5,-492.7 339.5,-492.7"/>
<polygon fill="none" stroke="#000000" points="339.5,-492.7 339.5,-511.7 393.5,-511.7 393.5,-492.7 339.5,-492.7"/>
<text text-anchor="start" x="342.5" y="-498.8" font-family="Helvetica,sans-Serif" font-size="11.00" fill="#000000">&lt; 2</text>
<polygon fill="#ffffff" stroke="transparent" points="393.5,-492.7 393.5,-511.7 448.5,-511.7 448.5,-492.7 393.5,-492.7"/>
<polygon fill="none" stroke="#000000" points="393.5,-492.7 393.5,-511.7 448.5,-511.7 448.5,-492.7 393.5,-492.7"/>
<text text-anchor="start" x="413.1105" y="-498.8" font-family="Helvetica,sans-Serif" font-size="11.00" fill="#000000">0 rows</text>
<polygon fill="#ffffff" stroke="transparent" points="448.5,-492.7 448.5,-511.7 486.5,-511.7 486.5,-492.7 448.5,-492.7"/>
<polygon fill="none" stroke="#000000" points="448.5,-492.7 448.5,-511.7 486.5,-511.7 486.5,-492.7 448.5,-492.7"/>
<text text-anchor="start" x="467.9053" y="-498.8" font-family="Helvetica,sans-Serif" font-size="11.00" fill="#000000">1 &gt;</text>
</a>
</g>
</g>
<!-- mor_aspect&#45;&gt;mo_relationship -->
<g id="edge15" class="edge">
<title>mor_aspect:w&#45;&gt;mo_relationship:e</title>
<path fill="none" stroke="#000000" d="M537.3734,-583.8918C519.2983,-584.3924 510.05,-585.7 486.5,-585.7"/>
<polygon fill="#000000" stroke="#000000" points="544.0007,-583.8049 552.0472,-587.2997 548.0003,-583.7525 552,-583.7 552,-583.7 552,-583.7 548.0003,-583.7525 551.9528,-580.1003 544.0007,-583.8049 544.0007,-583.8049"/>
<ellipse fill="none" stroke="#000000" cx="540.801" cy="-583.8469" rx="3.2" ry="3.2"/>
</g>
<!-- aspect -->
<g id="node11" class="node">
<title>aspect</title>
<g id="a_node11"><a xlink:href="../../tables/aspect.html" xlink:title="aspect" target="_top">
<polygon fill="#ffffff" stroke="transparent" points="352.5,-231.2 352.5,-358.2 472.5,-358.2 472.5,-231.2 352.5,-231.2"/>
<polygon fill="#f5f5f5" stroke="transparent" points="352.5,-334.7 352.5,-357.7 472.5,-357.7 472.5,-334.7 352.5,-334.7"/>
<polygon fill="none" stroke="#000000" points="352.5,-334.7 352.5,-357.7 472.5,-357.7 472.5,-334.7 352.5,-334.7"/>
<text text-anchor="start" x="357.5" y="-343.3" font-family="Helvetica,sans-Serif" font-weight="bold" font-size="11.00" fill="#000000">aspect</text>
<text text-anchor="start" x="437.5437" y="-342.8" font-family="Helvetica,sans-Serif" font-size="11.00" fill="#000000">[table]</text>
<polygon fill="none" stroke="#000000" points="352.5,-312.7 352.5,-334.7 472.5,-334.7 472.5,-312.7 352.5,-312.7"/>
<image xlink:href="../../images/primaryKeys.png" width="11px" height="12px" preserveAspectRatio="xMinYMin meet" x="357.5" y="-329.7"/>
<text text-anchor="start" x="372.5" y="-319.8" font-family="Helvetica,sans-Serif" font-size="11.00" fill="#000000">aspect_id</text>
<polygon fill="#ffffff" stroke="transparent" points="352.5,-290.7 352.5,-312.7 472.5,-312.7 472.5,-290.7 352.5,-290.7"/>
<polygon fill="none" stroke="#000000" points="352.5,-290.7 352.5,-312.7 472.5,-312.7 472.5,-290.7 352.5,-290.7"/>
<text text-anchor="start" x="372.5" y="-297.8" font-family="Helvetica,sans-Serif" font-size="11.00" fill="#000000">description</text>
<polygon fill="#ffffff" stroke="transparent" points="352.5,-268.7 352.5,-290.7 472.5,-290.7 472.5,-268.7 352.5,-268.7"/>
<polygon fill="none" stroke="#000000" points="352.5,-268.7 352.5,-290.7 472.5,-290.7 472.5,-268.7 352.5,-268.7"/>
<image xlink:href="../../images/foreignKeys.png" width="11px" height="12px" preserveAspectRatio="xMinYMin meet" x="357.5" y="-285.7"/>
<text text-anchor="start" x="372.5" y="-275.8" font-family="Helvetica,sans-Serif" font-size="11.00" fill="#000000">aspect_type_id</text>
<polygon fill="none" stroke="#000000" points="352.5,-249.7 352.5,-268.7 472.5,-268.7 472.5,-249.7 352.5,-249.7"/>
<text text-anchor="start" x="355.5" y="-255.8" font-family="Helvetica,sans-Serif" font-size="11.00" fill="#000000">...</text>
<polygon fill="#ffffff" stroke="transparent" points="352.5,-230.7 352.5,-249.7 376.5,-249.7 376.5,-230.7 352.5,-230.7"/>
<polygon fill="none" stroke="#000000" points="352.5,-230.7 352.5,-249.7 376.5,-249.7 376.5,-230.7 352.5,-230.7"/>
<text text-anchor="start" x="355.5" y="-236.8" font-family="Helvetica,sans-Serif" font-size="11.00" fill="#000000">&lt; 1</text>
<polygon fill="#ffffff" stroke="transparent" points="376.5,-230.7 376.5,-249.7 449.5,-249.7 449.5,-230.7 376.5,-230.7"/>
<polygon fill="none" stroke="#000000" points="376.5,-230.7 376.5,-249.7 449.5,-249.7 449.5,-230.7 376.5,-230.7"/>
<text text-anchor="start" x="380.4791" y="-236.8" font-family="Helvetica,sans-Serif" font-size="11.00" fill="#000000">100.191 rows</text>
<polygon fill="#ffffff" stroke="transparent" points="449.5,-230.7 449.5,-249.7 472.5,-249.7 472.5,-230.7 449.5,-230.7"/>
<polygon fill="none" stroke="#000000" points="449.5,-230.7 449.5,-249.7 472.5,-249.7 472.5,-230.7 449.5,-230.7"/>
<text text-anchor="start" x="453.9053" y="-236.8" font-family="Helvetica,sans-Serif" font-size="11.00" fill="#000000">5 &gt;</text>
</a>
</g>
</g>
<!-- mor_aspect&#45;&gt;aspect -->
<g id="edge14" class="edge">
<title>mor_aspect:w&#45;&gt;aspect:e</title>
<path fill="none" stroke="#000000" d="M537.6866,-560.1173C453.6307,-539.4676 578.6865,-323.7 472.5,-323.7"/>
<polygon fill="#000000" stroke="#000000" points="544.0485,-560.8207 551.6043,-565.2782 548.0242,-561.2603 552,-561.7 552,-561.7 552,-561.7 548.0242,-561.2603 552.3957,-558.1218 544.0485,-560.8207 544.0485,-560.8207"/>
<ellipse fill="none" stroke="#000000" cx="540.8679" cy="-560.469" rx="3.2" ry="3.2"/>
</g>
<!-- mat -->
<g id="node2" class="node">
<title>mat</title>
<g id="a_node2"><a xlink:href="../../tables/mat.html" xlink:title="mat" target="_top">
<polygon fill="#ffffff" stroke="transparent" points="347,-641.2 347,-768.2 478,-768.2 478,-641.2 347,-641.2"/>
<polygon fill="#f5f5f5" stroke="transparent" points="347.5,-744.7 347.5,-767.7 478.5,-767.7 478.5,-744.7 347.5,-744.7"/>
<polygon fill="none" stroke="#000000" points="347.5,-744.7 347.5,-767.7 478.5,-767.7 478.5,-744.7 347.5,-744.7"/>
<text text-anchor="start" x="352.5" y="-753.3" font-family="Helvetica,sans-Serif" font-weight="bold" font-size="11.00" fill="#000000">mat</text>
<text text-anchor="start" x="443.5437" y="-752.8" font-family="Helvetica,sans-Serif" font-size="11.00" fill="#000000">[table]</text>
<polygon fill="none" stroke="#000000" points="347.5,-722.7 347.5,-744.7 478.5,-744.7 478.5,-722.7 347.5,-722.7"/>
<image xlink:href="../../images/primaryKeys.png" width="11px" height="12px" preserveAspectRatio="xMinYMin meet" x="352.5" y="-739.7"/>
<text text-anchor="start" x="367.5" y="-729.8" font-family="Helvetica,sans-Serif" font-size="11.00" fill="#000000">mat_id</text>
<polygon fill="#ffffff" stroke="transparent" points="347.5,-700.7 347.5,-722.7 478.5,-722.7 478.5,-700.7 347.5,-700.7"/>
<polygon fill="none" stroke="#000000" points="347.5,-700.7 347.5,-722.7 478.5,-722.7 478.5,-700.7 347.5,-700.7"/>
<text text-anchor="start" x="367.5" y="-707.8" font-family="Helvetica,sans-Serif" font-size="11.00" fill="#000000">description</text>
<polygon fill="#ffffff" stroke="transparent" points="347.5,-678.7 347.5,-700.7 478.5,-700.7 478.5,-678.7 347.5,-678.7"/>
<polygon fill="none" stroke="#000000" points="347.5,-678.7 347.5,-700.7 478.5,-700.7 478.5,-678.7 347.5,-678.7"/>
<image xlink:href="../../images/foreignKeys.png" width="11px" height="12px" preserveAspectRatio="xMinYMin meet" x="352.5" y="-695.7"/>
<text text-anchor="start" x="367.5" y="-685.8" font-family="Helvetica,sans-Serif" font-size="11.00" fill="#000000">mo_id</text>
<polygon fill="none" stroke="#000000" points="347.5,-659.7 347.5,-678.7 478.5,-678.7 478.5,-659.7 347.5,-659.7"/>
<text text-anchor="start" x="350.5" y="-665.8" font-family="Helvetica,sans-Serif" font-size="11.00" fill="#000000">...</text>
<polygon fill="#ffffff" stroke="transparent" points="347.5,-640.7 347.5,-659.7 398.5,-659.7 398.5,-640.7 347.5,-640.7"/>
<polygon fill="none" stroke="#000000" points="347.5,-640.7 347.5,-659.7 398.5,-659.7 398.5,-640.7 347.5,-640.7"/>
<text text-anchor="start" x="350.5" y="-646.8" font-family="Helvetica,sans-Serif" font-size="11.00" fill="#000000">&lt; 1</text>
<polygon fill="#ffffff" stroke="transparent" points="398.5,-640.7 398.5,-659.7 451.5,-659.7 451.5,-640.7 398.5,-640.7"/>
<polygon fill="none" stroke="#000000" points="398.5,-640.7 398.5,-659.7 451.5,-659.7 451.5,-640.7 398.5,-640.7"/>
<text text-anchor="start" x="416.1105" y="-646.8" font-family="Helvetica,sans-Serif" font-size="11.00" fill="#000000">0 rows</text>
<polygon fill="#ffffff" stroke="transparent" points="451.5,-640.7 451.5,-659.7 478.5,-659.7 478.5,-640.7 451.5,-640.7"/>
<polygon fill="none" stroke="#000000" points="451.5,-640.7 451.5,-659.7 478.5,-659.7 478.5,-640.7 451.5,-640.7"/>
<text text-anchor="start" x="469.3862" y="-646.8" font-family="Helvetica,sans-Serif" font-size="11.00" fill="#000000"> &#160;</text>
</a>
</g>
</g>
<!-- moving_object -->
<g id="node3" class="node">
<title>moving_object</title>
<g id="a_node3"><a xlink:href="../../tables/moving_object.html" xlink:title="moving_object" target="_top">
<polygon fill="#ffffff" stroke="transparent" points="154,-478.7 154,-586.7 290,-586.7 290,-478.7 154,-478.7"/>
<polygon fill="#f5f5f5" stroke="transparent" points="154,-563.7 154,-586.7 290,-586.7 290,-563.7 154,-563.7"/>
<polygon fill="none" stroke="#000000" points="154,-563.7 154,-586.7 290,-586.7 290,-563.7 154,-563.7"/>
<text text-anchor="start" x="159" y="-572.3" font-family="Helvetica,sans-Serif" font-weight="bold" font-size="11.00" fill="#000000">moving_object</text>
<text text-anchor="start" x="255.5219" y="-571.8" font-family="Helvetica,sans-Serif" font-size="11.00" fill="#000000">[table]</text>
<polygon fill="none" stroke="#000000" points="154,-541.7 154,-563.7 290,-563.7 290,-541.7 154,-541.7"/>
<image xlink:href="../../images/primaryKeys.png" width="11px" height="12px" preserveAspectRatio="xMinYMin meet" x="159" y="-558.7"/>
<text text-anchor="start" x="183" y="-548.8" font-family="Helvetica,sans-Serif" font-size="11.00" fill="#000000">mo_id</text>
<polygon fill="#ffffff" stroke="transparent" points="154,-519.7 154,-541.7 290,-541.7 290,-519.7 154,-519.7"/>
<polygon fill="none" stroke="#000000" points="154,-519.7 154,-541.7 290,-541.7 290,-519.7 154,-519.7"/>
<text text-anchor="start" x="183" y="-526.8" font-family="Helvetica,sans-Serif" font-size="11.00" fill="#000000">description</text>
<polygon fill="#ffffff" stroke="transparent" points="154,-497.7 154,-519.7 290,-519.7 290,-497.7 154,-497.7"/>
<polygon fill="none" stroke="#000000" points="154,-497.7 154,-519.7 290,-519.7 290,-497.7 154,-497.7"/>
<image xlink:href="../../images/foreignKeys.png" width="11px" height="12px" preserveAspectRatio="xMinYMin meet" x="159" y="-514.7"/>
<text text-anchor="start" x="183" y="-504.8" font-family="Helvetica,sans-Serif" font-size="11.00" fill="#000000">mo_type_id</text>
<polygon fill="#ffffff" stroke="transparent" points="154,-478.7 154,-497.7 192,-497.7 192,-478.7 154,-478.7"/>
<polygon fill="none" stroke="#000000" points="154,-478.7 154,-497.7 192,-497.7 192,-478.7 154,-478.7"/>
<text text-anchor="start" x="157" y="-484.8" font-family="Helvetica,sans-Serif" font-size="11.00" fill="#000000">&lt; 1</text>
<polygon fill="#ffffff" stroke="transparent" points="192,-478.7 192,-497.7 260,-497.7 260,-478.7 192,-478.7"/>
<polygon fill="none" stroke="#000000" points="192,-478.7 192,-497.7 260,-497.7 260,-478.7 192,-478.7"/>
<text text-anchor="start" x="203.2089" y="-484.8" font-family="Helvetica,sans-Serif" font-size="11.00" fill="#000000">3.376 rows</text>
<polygon fill="#ffffff" stroke="transparent" points="260,-478.7 260,-497.7 290,-497.7 290,-478.7 260,-478.7"/>
<polygon fill="none" stroke="#000000" points="260,-478.7 260,-497.7 290,-497.7 290,-478.7 260,-478.7"/>
<text text-anchor="start" x="271.4053" y="-484.8" font-family="Helvetica,sans-Serif" font-size="11.00" fill="#000000">4 &gt;</text>
</a>
</g>
</g>
<!-- mat&#45;&gt;moving_object -->
<g id="edge8" class="edge">
<title>mat:w&#45;&gt;moving_object:e</title>
<path fill="none" stroke="#000000" d="M333.156,-686.7112C293.4873,-666.6763 350.2306,-552.7 290,-552.7"/>
<polygon fill="#000000" stroke="#000000" points="339.6682,-688.068 346.7656,-693.2243 343.5841,-688.884 347.5,-689.7 347.5,-689.7 347.5,-689.7 343.5841,-688.884 348.2344,-686.1757 339.6682,-688.068 339.6682,-688.068"/>
<ellipse fill="none" stroke="#000000" cx="336.5355" cy="-687.4153" rx="3.2" ry="3.2"/>
</g>
<!-- mo_type -->
<g id="node7" class="node">
<title>mo_type</title>
<g id="a_node7"><a xlink:href="../../tables/mo_type.html" xlink:title="mo_type" target="_top">
<polygon fill="#ffffff" stroke="transparent" points="8,-460.2 8,-543.2 105,-543.2 105,-460.2 8,-460.2"/>
<polygon fill="#f5f5f5" stroke="transparent" points="8.5,-519.7 8.5,-542.7 105.5,-542.7 105.5,-519.7 8.5,-519.7"/>
<polygon fill="none" stroke="#000000" points="8.5,-519.7 8.5,-542.7 105.5,-542.7 105.5,-519.7 8.5,-519.7"/>
<text text-anchor="start" x="13.5" y="-528.3" font-family="Helvetica,sans-Serif" font-weight="bold" font-size="11.00" fill="#000000">mo_type</text>
<text text-anchor="start" x="71.0219" y="-527.8" font-family="Helvetica,sans-Serif" font-size="11.00" fill="#000000">[table]</text>
<polygon fill="none" stroke="#000000" points="8.5,-497.7 8.5,-519.7 105.5,-519.7 105.5,-497.7 8.5,-497.7"/>
<image xlink:href="../../images/primaryKeys.png" width="11px" height="12px" preserveAspectRatio="xMinYMin meet" x="13.5" y="-514.7"/>
<text text-anchor="start" x="28.5" y="-504.8" font-family="Helvetica,sans-Serif" font-size="11.00" fill="#000000">mo_type_id</text>
<polygon fill="none" stroke="#000000" points="8.5,-478.7 8.5,-497.7 105.5,-497.7 105.5,-478.7 8.5,-478.7"/>
<text text-anchor="start" x="11.5" y="-484.8" font-family="Helvetica,sans-Serif" font-size="11.00" fill="#000000">...</text>
<polygon fill="#ffffff" stroke="transparent" points="8.5,-459.7 8.5,-478.7 36.5,-478.7 36.5,-459.7 8.5,-459.7"/>
<polygon fill="none" stroke="#000000" points="8.5,-459.7 8.5,-478.7 36.5,-478.7 36.5,-459.7 8.5,-459.7"/>
<text text-anchor="start" x="11.5" y="-465.8" font-family="Helvetica,sans-Serif" font-size="11.00" fill="#000000"> &#160;</text>
<polygon fill="#ffffff" stroke="transparent" points="36.5,-459.7 36.5,-478.7 76.5,-478.7 76.5,-459.7 36.5,-459.7"/>
<polygon fill="none" stroke="#000000" points="36.5,-459.7 36.5,-478.7 76.5,-478.7 76.5,-459.7 36.5,-459.7"/>
<text text-anchor="start" x="46.6105" y="-465.8" font-family="Helvetica,sans-Serif" font-size="11.00" fill="#000000">1 row</text>
<polygon fill="#ffffff" stroke="transparent" points="76.5,-459.7 76.5,-478.7 105.5,-478.7 105.5,-459.7 76.5,-459.7"/>
<polygon fill="none" stroke="#000000" points="76.5,-459.7 76.5,-478.7 105.5,-478.7 105.5,-459.7 76.5,-459.7"/>
<text text-anchor="start" x="86.9053" y="-465.8" font-family="Helvetica,sans-Serif" font-size="11.00" fill="#000000">1 &gt;</text>
</a>
</g>
</g>
<!-- moving_object&#45;&gt;mo_type -->
<g id="edge16" class="edge">
<title>moving_object:w&#45;&gt;mo_type:e</title>
<path fill="none" stroke="#000000" d="M139.2829,-508.7C128.2886,-508.7 121.1615,-508.7 105.5,-508.7"/>
<polygon fill="#000000" stroke="#000000" points="146,-508.7001 154,-512.3 150,-508.7 154,-508.7 154,-508.7 154,-508.7 150,-508.7 154,-505.1 146,-508.7001 146,-508.7001"/>
<ellipse fill="none" stroke="#000000" cx="142.8" cy="-508.7001" rx="3.2" ry="3.2"/>
</g>
<!-- aspect_attribute -->
<g id="node4" class="node">
<title>aspect_attribute</title>
<g id="a_node4"><a xlink:href="../../tables/aspect_attribute.html" xlink:title="aspect_attribute" target="_top">
<polygon fill="#ffffff" stroke="transparent" points="535,-38.2 535,-165.2 685,-165.2 685,-38.2 535,-38.2"/>
<polygon fill="#f5f5f5" stroke="transparent" points="535,-141.7 535,-164.7 685,-164.7 685,-141.7 535,-141.7"/>
<polygon fill="none" stroke="#000000" points="535,-141.7 535,-164.7 685,-164.7 685,-141.7 535,-141.7"/>
<text text-anchor="start" x="540" y="-150.3" font-family="Helvetica,sans-Serif" font-weight="bold" font-size="11.00" fill="#000000">aspect_attribute</text>
<text text-anchor="start" x="650.5219" y="-149.8" font-family="Helvetica,sans-Serif" font-size="11.00" fill="#000000">[table]</text>
<polygon fill="none" stroke="#000000" points="535,-119.7 535,-141.7 685,-141.7 685,-119.7 535,-119.7"/>
<image xlink:href="../../images/primaryKeys.png" width="11px" height="12px" preserveAspectRatio="xMinYMin meet" x="540" y="-136.7"/>
<text text-anchor="start" x="564" y="-126.8" font-family="Helvetica,sans-Serif" font-size="11.00" fill="#000000">aspect_id</text>
<polygon fill="none" stroke="#000000" points="535,-97.7 535,-119.7 685,-119.7 685,-97.7 535,-97.7"/>
<image xlink:href="../../images/primaryKeys.png" width="11px" height="12px" preserveAspectRatio="xMinYMin meet" x="540" y="-114.7"/>
<text text-anchor="start" x="564" y="-104.8" font-family="Helvetica,sans-Serif" font-size="11.00" fill="#000000">attribute_id</text>
<polygon fill="#ffffff" stroke="transparent" points="535,-75.7 535,-97.7 685,-97.7 685,-75.7 535,-75.7"/>
<polygon fill="none" stroke="#000000" points="535,-75.7 535,-97.7 685,-97.7 685,-75.7 535,-75.7"/>
<image xlink:href="../../images/foreignKeys.png" width="11px" height="12px" preserveAspectRatio="xMinYMin meet" x="540" y="-92.7"/>
<text text-anchor="start" x="564" y="-82.8" font-family="Helvetica,sans-Serif" font-size="11.00" fill="#000000">data_type_id</text>
<polygon fill="none" stroke="#000000" points="535,-56.7 535,-75.7 685,-75.7 685,-56.7 535,-56.7"/>
<text text-anchor="start" x="538" y="-62.8" font-family="Helvetica,sans-Serif" font-size="11.00" fill="#000000">...</text>
<polygon fill="#ffffff" stroke="transparent" points="535,-37.7 535,-56.7 578,-56.7 578,-37.7 535,-37.7"/>
<polygon fill="none" stroke="#000000" points="535,-37.7 535,-56.7 578,-56.7 578,-37.7 535,-37.7"/>
<text text-anchor="start" x="538" y="-43.8" font-family="Helvetica,sans-Serif" font-size="11.00" fill="#000000">&lt; 3</text>
<polygon fill="#ffffff" stroke="transparent" points="578,-37.7 578,-56.7 661,-56.7 661,-37.7 578,-37.7"/>
<polygon fill="none" stroke="#000000" points="578,-37.7 578,-56.7 661,-56.7 661,-37.7 578,-37.7"/>
<text text-anchor="start" x="591.9791" y="-43.8" font-family="Helvetica,sans-Serif" font-size="11.00" fill="#000000">200.382 rows</text>
<polygon fill="#ffffff" stroke="transparent" points="661,-37.7 661,-56.7 685,-56.7 685,-37.7 661,-37.7"/>
<polygon fill="none" stroke="#000000" points="661,-37.7 661,-56.7 685,-56.7 685,-37.7 661,-37.7"/>
<text text-anchor="start" x="675.8862" y="-43.8" font-family="Helvetica,sans-Serif" font-size="11.00" fill="#000000"> &#160;</text>
</a>
</g>
</g>
<!-- attribute -->
<g id="node5" class="node">
<title>attribute</title>
<g id="a_node5"><a xlink:href="../../tables/attribute.html" xlink:title="attribute" target="_top">
<polygon fill="#ffffff" stroke="transparent" points="352.5,-83.2 352.5,-210.2 472.5,-210.2 472.5,-83.2 352.5,-83.2"/>
<polygon fill="#f5f5f5" stroke="transparent" points="352.5,-186.7 352.5,-209.7 472.5,-209.7 472.5,-186.7 352.5,-186.7"/>
<polygon fill="none" stroke="#000000" points="352.5,-186.7 352.5,-209.7 472.5,-209.7 472.5,-186.7 352.5,-186.7"/>
<text text-anchor="start" x="357.5" y="-195.3" font-family="Helvetica,sans-Serif" font-weight="bold" font-size="11.00" fill="#000000">attribute</text>
<text text-anchor="start" x="437.5437" y="-194.8" font-family="Helvetica,sans-Serif" font-size="11.00" fill="#000000">[table]</text>
<polygon fill="none" stroke="#000000" points="352.5,-164.7 352.5,-186.7 472.5,-186.7 472.5,-164.7 352.5,-164.7"/>
<image xlink:href="../../images/primaryKeys.png" width="11px" height="12px" preserveAspectRatio="xMinYMin meet" x="357.5" y="-181.7"/>
<text text-anchor="start" x="372.5" y="-171.8" font-family="Helvetica,sans-Serif" font-size="11.00" fill="#000000">attribute_id</text>
<polygon fill="#ffffff" stroke="transparent" points="352.5,-142.7 352.5,-164.7 472.5,-164.7 472.5,-142.7 352.5,-142.7"/>
<polygon fill="none" stroke="#000000" points="352.5,-142.7 352.5,-164.7 472.5,-164.7 472.5,-142.7 352.5,-142.7"/>
<image xlink:href="../../images/foreignKeys.png" width="11px" height="12px" preserveAspectRatio="xMinYMin meet" x="357.5" y="-159.7"/>
<text text-anchor="start" x="372.5" y="-149.8" font-family="Helvetica,sans-Serif" font-size="11.00" fill="#000000">aspect_type_id</text>
<polygon fill="#ffffff" stroke="transparent" points="352.5,-120.7 352.5,-142.7 472.5,-142.7 472.5,-120.7 352.5,-120.7"/>
<polygon fill="none" stroke="#000000" points="352.5,-120.7 352.5,-142.7 472.5,-142.7 472.5,-120.7 352.5,-120.7"/>
<image xlink:href="../../images/foreignKeys.png" width="11px" height="12px" preserveAspectRatio="xMinYMin meet" x="357.5" y="-137.7"/>
<text text-anchor="start" x="372.5" y="-127.8" font-family="Helvetica,sans-Serif" font-size="11.00" fill="#000000">data_type_id</text>
<polygon fill="none" stroke="#000000" points="352.5,-101.7 352.5,-120.7 472.5,-120.7 472.5,-101.7 352.5,-101.7"/>
<text text-anchor="start" x="355.5" y="-107.8" font-family="Helvetica,sans-Serif" font-size="11.00" fill="#000000">...</text>
<polygon fill="#ffffff" stroke="transparent" points="352.5,-82.7 352.5,-101.7 393.5,-101.7 393.5,-82.7 352.5,-82.7"/>
<polygon fill="none" stroke="#000000" points="352.5,-82.7 352.5,-101.7 393.5,-101.7 393.5,-82.7 352.5,-82.7"/>
<text text-anchor="start" x="355.5" y="-88.8" font-family="Helvetica,sans-Serif" font-size="11.00" fill="#000000">&lt; 2</text>
<polygon fill="#ffffff" stroke="transparent" points="393.5,-82.7 393.5,-101.7 441.5,-101.7 441.5,-82.7 393.5,-82.7"/>
<polygon fill="none" stroke="#000000" points="393.5,-82.7 393.5,-101.7 441.5,-101.7 441.5,-82.7 393.5,-82.7"/>
<text text-anchor="start" x="406.1105" y="-88.8" font-family="Helvetica,sans-Serif" font-size="11.00" fill="#000000">2 rows</text>
<polygon fill="#ffffff" stroke="transparent" points="441.5,-82.7 441.5,-101.7 472.5,-101.7 472.5,-82.7 441.5,-82.7"/>
<polygon fill="none" stroke="#000000" points="441.5,-82.7 441.5,-101.7 472.5,-101.7 472.5,-82.7 441.5,-82.7"/>
<text text-anchor="start" x="453.9053" y="-88.8" font-family="Helvetica,sans-Serif" font-size="11.00" fill="#000000">1 &gt;</text>
</a>
</g>
</g>
<!-- aspect_attribute&#45;&gt;attribute -->
<g id="edge3" class="edge">
<title>aspect_attribute:w&#45;&gt;attribute:e</title>
<path fill="none" stroke="#000000" d="M521.0282,-112.3022C498.4258,-126.2188 507.4959,-175.7 472.5,-175.7"/>
<polygon fill="#000000" stroke="#000000" points="527.2533,-110.6973 535.8988,-112.186 531.1267,-109.6986 535,-108.7 535,-108.7 535,-108.7 531.1267,-109.6986 534.1012,-105.214 527.2533,-110.6973 527.2533,-110.6973"/>
<ellipse fill="none" stroke="#000000" cx="524.1546" cy="-111.4962" rx="3.2" ry="3.2"/>
</g>
<!-- aspect_attribute&#45;&gt;aspect -->
<g id="edge2" class="edge">
<title>aspect_attribute:w&#45;&gt;aspect:e</title>
<path fill="none" stroke="#000000" d="M520.4302,-132.8675C458.7525,-154.0711 557.0282,-323.7 472.5,-323.7"/>
<polygon fill="#000000" stroke="#000000" points="527.0871,-131.8772 535.5297,-134.2608 531.0435,-131.2886 535,-130.7 535,-130.7 535,-130.7 531.0435,-131.2886 534.4703,-127.1392 527.0871,-131.8772 527.0871,-131.8772"/>
<ellipse fill="none" stroke="#000000" cx="523.9219" cy="-132.3481" rx="3.2" ry="3.2"/>
</g>
<!-- data_type -->
<g id="node13" class="node">
<title>data_type</title>
<g id="a_node13"><a xlink:href="../../tables/data_type.html" xlink:title="data_type" target="_top">
<polygon fill="#ffffff" stroke="transparent" points="156.5,-47.2 156.5,-130.2 287.5,-130.2 287.5,-47.2 156.5,-47.2"/>
<polygon fill="#f5f5f5" stroke="transparent" points="157,-106.7 157,-129.7 288,-129.7 288,-106.7 157,-106.7"/>
<polygon fill="none" stroke="#000000" points="157,-106.7 157,-129.7 288,-129.7 288,-106.7 157,-106.7"/>
<text text-anchor="start" x="162" y="-115.3" font-family="Helvetica,sans-Serif" font-weight="bold" font-size="11.00" fill="#000000">data_type</text>
<text text-anchor="start" x="253.0437" y="-114.8" font-family="Helvetica,sans-Serif" font-size="11.00" fill="#000000">[table]</text>
<polygon fill="none" stroke="#000000" points="157,-84.7 157,-106.7 288,-106.7 288,-84.7 157,-84.7"/>
<image xlink:href="../../images/primaryKeys.png" width="11px" height="12px" preserveAspectRatio="xMinYMin meet" x="162" y="-101.7"/>
<text text-anchor="start" x="177" y="-91.8" font-family="Helvetica,sans-Serif" font-size="11.00" fill="#000000">data_type_id</text>
<polygon fill="none" stroke="#000000" points="157,-65.7 157,-84.7 288,-84.7 288,-65.7 157,-65.7"/>
<text text-anchor="start" x="160" y="-71.8" font-family="Helvetica,sans-Serif" font-size="11.00" fill="#000000">...</text>
<polygon fill="#ffffff" stroke="transparent" points="157,-46.7 157,-65.7 202,-65.7 202,-46.7 157,-46.7"/>
<polygon fill="none" stroke="#000000" points="157,-46.7 157,-65.7 202,-65.7 202,-46.7 157,-46.7"/>
<text text-anchor="start" x="160" y="-52.8" font-family="Helvetica,sans-Serif" font-size="11.00" fill="#000000"> &#160;</text>
<polygon fill="#ffffff" stroke="transparent" points="202,-46.7 202,-65.7 250,-65.7 250,-46.7 202,-46.7"/>
<polygon fill="none" stroke="#000000" points="202,-46.7 202,-65.7 250,-65.7 250,-46.7 202,-46.7"/>
<text text-anchor="start" x="220.1105" y="-52.8" font-family="Helvetica,sans-Serif" font-size="11.00" fill="#000000">1 row</text>
<polygon fill="#ffffff" stroke="transparent" points="250,-46.7 250,-65.7 288,-65.7 288,-46.7 250,-46.7"/>
<polygon fill="none" stroke="#000000" points="250,-46.7 250,-65.7 288,-65.7 288,-46.7 250,-46.7"/>
<text text-anchor="start" x="269.4053" y="-52.8" font-family="Helvetica,sans-Serif" font-size="11.00" fill="#000000">2 &gt;</text>
</a>
</g>
</g>
<!-- aspect_attribute&#45;&gt;data_type -->
<g id="edge4" class="edge">
<title>aspect_attribute:w&#45;&gt;data_type:e</title>
<path fill="none" stroke="#000000" d="M520.7844,-84.0881C512.4398,-80.6723 507.0592,-74.8682 494,-72.7 422.5338,-60.8348 401.2708,-55.0873 331,-72.7 309.9771,-77.9692 309.6732,-95.7 288,-95.7"/>
<polygon fill="#000000" stroke="#000000" points="527.1317,-85.2543 534.3494,-90.2407 531.0659,-85.9771 535,-86.7 535,-86.7 535,-86.7 531.0659,-85.9771 535.6506,-83.1593 527.1317,-85.2543 527.1317,-85.2543"/>
<ellipse fill="none" stroke="#000000" cx="523.9844" cy="-84.676" rx="3.2" ry="3.2"/>
</g>
<!-- aspect_type -->
<g id="node8" class="node">
<title>aspect_type</title>
<g id="a_node8"><a xlink:href="../../tables/aspect_type.html" xlink:title="aspect_type" target="_top">
<polygon fill="#ffffff" stroke="transparent" points="162,-180.2 162,-285.2 282,-285.2 282,-180.2 162,-180.2"/>
<polygon fill="#f5f5f5" stroke="transparent" points="162,-261.7 162,-284.7 282,-284.7 282,-261.7 162,-261.7"/>
<polygon fill="none" stroke="#000000" points="162,-261.7 162,-284.7 282,-284.7 282,-261.7 162,-261.7"/>
<text text-anchor="start" x="167" y="-270.3" font-family="Helvetica,sans-Serif" font-weight="bold" font-size="11.00" fill="#000000">aspect_type</text>
<text text-anchor="start" x="247.5219" y="-269.8" font-family="Helvetica,sans-Serif" font-size="11.00" fill="#000000">[table]</text>
<polygon fill="none" stroke="#000000" points="162,-239.7 162,-261.7 282,-261.7 282,-239.7 162,-239.7"/>
<image xlink:href="../../images/primaryKeys.png" width="11px" height="12px" preserveAspectRatio="xMinYMin meet" x="167" y="-256.7"/>
<text text-anchor="start" x="182" y="-246.8" font-family="Helvetica,sans-Serif" font-size="11.00" fill="#000000">aspect_type_id</text>
<polygon fill="#ffffff" stroke="transparent" points="162,-217.7 162,-239.7 282,-239.7 282,-217.7 162,-217.7"/>
<polygon fill="none" stroke="#000000" points="162,-217.7 162,-239.7 282,-239.7 282,-217.7 162,-217.7"/>
<image xlink:href="../../images/foreignKeys.png" width="11px" height="12px" preserveAspectRatio="xMinYMin meet" x="167" y="-234.7"/>
<text text-anchor="start" x="182" y="-224.8" font-family="Helvetica,sans-Serif" font-size="11.00" fill="#000000">super_type_id</text>
<polygon fill="none" stroke="#000000" points="162,-198.7 162,-217.7 282,-217.7 282,-198.7 162,-198.7"/>
<text text-anchor="start" x="165" y="-204.8" font-family="Helvetica,sans-Serif" font-size="11.00" fill="#000000">...</text>
<polygon fill="#ffffff" stroke="transparent" points="162,-179.7 162,-198.7 206,-198.7 206,-179.7 162,-179.7"/>
<polygon fill="none" stroke="#000000" points="162,-179.7 162,-198.7 206,-198.7 206,-179.7 162,-179.7"/>
<text text-anchor="start" x="165" y="-185.8" font-family="Helvetica,sans-Serif" font-size="11.00" fill="#000000">&lt; 1</text>
<polygon fill="#ffffff" stroke="transparent" points="206,-179.7 206,-198.7 249,-198.7 249,-179.7 206,-179.7"/>
<polygon fill="none" stroke="#000000" points="206,-179.7 206,-198.7 249,-198.7 249,-179.7 206,-179.7"/>
<text text-anchor="start" x="219.1105" y="-185.8" font-family="Helvetica,sans-Serif" font-size="11.00" fill="#000000">1 row</text>
<polygon fill="#ffffff" stroke="transparent" points="249,-179.7 249,-198.7 282,-198.7 282,-179.7 249,-179.7"/>
<polygon fill="none" stroke="#000000" points="249,-179.7 249,-198.7 282,-198.7 282,-179.7 249,-179.7"/>
<text text-anchor="start" x="263.4053" y="-185.8" font-family="Helvetica,sans-Serif" font-size="11.00" fill="#000000">3 &gt;</text>
</a>
</g>
</g>
<!-- attribute&#45;&gt;aspect_type -->
<g id="edge6" class="edge">
<title>attribute:w&#45;&gt;aspect_type:e</title>
<path fill="none" stroke="#000000" d="M338.4103,-156.7094C305.8235,-173.0819 329.6739,-250.7 282,-250.7"/>
<polygon fill="#000000" stroke="#000000" points="344.6765,-155.3711 353.252,-157.2206 348.5882,-154.5355 352.5,-153.7 352.5,-153.7 352.5,-153.7 348.5882,-154.5355 351.748,-150.1794 344.6765,-155.3711 344.6765,-155.3711"/>
<ellipse fill="none" stroke="#000000" cx="341.547" cy="-156.0395" rx="3.2" ry="3.2"/>
</g>
<!-- attribute&#45;&gt;data_type -->
<g id="edge7" class="edge">
<title>attribute:w&#45;&gt;data_type:e</title>
<path fill="none" stroke="#000000" d="M338.2393,-128.8751C319.0648,-120.3885 315.187,-95.7 288,-95.7"/>
<polygon fill="#000000" stroke="#000000" points="344.6525,-130.1455 351.8005,-135.2314 348.5762,-130.9227 352.5,-131.7 352.5,-131.7 352.5,-131.7 348.5762,-130.9227 353.1995,-128.1686 344.6525,-130.1455 344.6525,-130.1455"/>
<ellipse fill="none" stroke="#000000" cx="341.5135" cy="-129.5236" rx="3.2" ry="3.2"/>
</g>
<!-- mo_relationship&#45;&gt;moving_object -->
<g id="edge12" class="edge">
<title>mo_relationship:w&#45;&gt;moving_object:e</title>
<path fill="none" stroke="#000000" d="M325.0598,-543.5164C313.4771,-546.6407 306.7264,-552.7 290,-552.7"/>
<polygon fill="#000000" stroke="#000000" points="331.5626,-542.6985 339.9493,-545.2719 335.5313,-542.1992 339.5,-541.7 339.5,-541.7 339.5,-541.7 335.5313,-542.1992 339.0507,-538.1281 331.5626,-542.6985 331.5626,-542.6985"/>
<ellipse fill="none" stroke="#000000" cx="328.3876" cy="-543.0979" rx="3.2" ry="3.2"/>
</g>
<!-- mo_relationship&#45;&gt;moving_object -->
<g id="edge13" class="edge">
<title>mo_relationship:w&#45;&gt;moving_object:e</title>
<path fill="none" stroke="#000000" d="M325.0598,-561.8836C313.4771,-558.7593 306.7264,-552.7 290,-552.7"/>
<polygon fill="#000000" stroke="#000000" points="331.5626,-562.7015 339.0507,-567.2719 335.5313,-563.2008 339.5,-563.7 339.5,-563.7 339.5,-563.7 335.5313,-563.2008 339.9493,-560.1281 331.5626,-562.7015 331.5626,-562.7015"/>
<ellipse fill="none" stroke="#000000" cx="328.3876" cy="-562.3021" rx="3.2" ry="3.2"/>
</g>
<!-- aspect_type&#45;&gt;aspect_type -->
<g id="edge5" class="edge">
<title>aspect_type:w&#45;&gt;aspect_type:e</title>
<path fill="none" stroke="#000000" d="M150.0968,-237.1751C122.2083,-262.275 132.0469,-302.2 222,-302.2 323,-302.2 323,-273.8667 282,-250.7"/>
<polygon fill="#000000" stroke="#000000" points="155.4831,-233.3401 164.088,-231.6326 158.7416,-231.02 162,-228.7 162,-228.7 162,-228.7 158.7416,-231.02 159.912,-225.7674 155.4831,-233.3401 155.4831,-233.3401"/>
<ellipse fill="none" stroke="#000000" cx="152.8763" cy="-235.1961" rx="3.2" ry="3.2"/>
</g>
<!-- mo_aspect -->
<g id="node9" class="node">
<title>mo_aspect</title>
<g id="a_node9"><a xlink:href="../../tables/mo_aspect.html" xlink:title="mo_aspect" target="_top">
<polygon fill="#ffffff" stroke="transparent" points="555,-401.2 555,-506.2 665,-506.2 665,-401.2 555,-401.2"/>
<polygon fill="#f5f5f5" stroke="transparent" points="555,-482.7 555,-505.7 665,-505.7 665,-482.7 555,-482.7"/>
<polygon fill="none" stroke="#000000" points="555,-482.7 555,-505.7 665,-505.7 665,-482.7 555,-482.7"/>
<text text-anchor="start" x="560" y="-491.3" font-family="Helvetica,sans-Serif" font-weight="bold" font-size="11.00" fill="#000000">mo_aspect</text>
<text text-anchor="start" x="630.5219" y="-490.8" font-family="Helvetica,sans-Serif" font-size="11.00" fill="#000000">[table]</text>
<polygon fill="none" stroke="#000000" points="555,-460.7 555,-482.7 665,-482.7 665,-460.7 555,-460.7"/>
<image xlink:href="../../images/primaryKeys.png" width="11px" height="12px" preserveAspectRatio="xMinYMin meet" x="560" y="-477.7"/>
<text text-anchor="start" x="584" y="-467.8" font-family="Helvetica,sans-Serif" font-size="11.00" fill="#000000">mo_id</text>
<polygon fill="none" stroke="#000000" points="555,-438.7 555,-460.7 665,-460.7 665,-438.7 555,-438.7"/>
<image xlink:href="../../images/primaryKeys.png" width="11px" height="12px" preserveAspectRatio="xMinYMin meet" x="560" y="-455.7"/>
<text text-anchor="start" x="584" y="-445.8" font-family="Helvetica,sans-Serif" font-size="11.00" fill="#000000">aspect_id</text>
<polygon fill="none" stroke="#000000" points="555,-419.7 555,-438.7 665,-438.7 665,-419.7 555,-419.7"/>
<text text-anchor="start" x="558" y="-425.8" font-family="Helvetica,sans-Serif" font-size="11.00" fill="#000000">...</text>
<polygon fill="#ffffff" stroke="transparent" points="555,-400.7 555,-419.7 595,-419.7 595,-400.7 555,-400.7"/>
<polygon fill="none" stroke="#000000" points="555,-400.7 555,-419.7 595,-419.7 595,-400.7 555,-400.7"/>
<text text-anchor="start" x="558" y="-406.8" font-family="Helvetica,sans-Serif" font-size="11.00" fill="#000000">&lt; 2</text>
<polygon fill="#ffffff" stroke="transparent" points="595,-400.7 595,-419.7 643,-419.7 643,-400.7 595,-400.7"/>
<polygon fill="none" stroke="#000000" points="595,-400.7 595,-419.7 643,-419.7 643,-400.7 595,-400.7"/>
<text text-anchor="start" x="607.6105" y="-406.8" font-family="Helvetica,sans-Serif" font-size="11.00" fill="#000000">0 rows</text>
<polygon fill="#ffffff" stroke="transparent" points="643,-400.7 643,-419.7 665,-419.7 665,-400.7 643,-400.7"/>
<polygon fill="none" stroke="#000000" points="643,-400.7 643,-419.7 665,-419.7 665,-400.7 643,-400.7"/>
<text text-anchor="start" x="655.8862" y="-406.8" font-family="Helvetica,sans-Serif" font-size="11.00" fill="#000000"> &#160;</text>
</a>
</g>
</g>
<!-- mo_aspect&#45;&gt;moving_object -->
<g id="edge11" class="edge">
<title>mo_aspect:w&#45;&gt;moving_object:e</title>
<path fill="none" stroke="#000000" d="M540.5447,-471.4138C451.3163,-467.8775 411.9898,-433.5994 331,-482.7 300.1687,-501.3917 326.0548,-552.7 290,-552.7"/>
<polygon fill="#000000" stroke="#000000" points="547.0016,-471.5416 554.9287,-475.2993 551.0008,-471.6208 555,-471.7 555,-471.7 555,-471.7 551.0008,-471.6208 555.0713,-468.1007 547.0016,-471.5416 547.0016,-471.5416"/>
<ellipse fill="none" stroke="#000000" cx="543.8022" cy="-471.4782" rx="3.2" ry="3.2"/>
</g>
<!-- mo_aspect&#45;&gt;aspect -->
<g id="edge10" class="edge">
<title>mo_aspect:w&#45;&gt;aspect:e</title>
<path fill="none" stroke="#000000" d="M540.7852,-447.2955C495.696,-429.876 533.9453,-323.7 472.5,-323.7"/>
<polygon fill="#000000" stroke="#000000" points="547.1121,-448.3657 554.3996,-453.2496 551.056,-449.0328 555,-449.7 555,-449.7 555,-449.7 551.056,-449.0328 555.6004,-446.1504 547.1121,-448.3657 547.1121,-448.3657"/>
<ellipse fill="none" stroke="#000000" cx="543.9569" cy="-447.8319" rx="3.2" ry="3.2"/>
</g>
<!-- point_aspect -->
<g id="node10" class="node">
<title>point_aspect</title>
<g id="a_node10"><a xlink:href="../../tables/point_aspect.html" xlink:title="point_aspect" target="_top">
<polygon fill="#ffffff" stroke="transparent" points="547.5,-186.7 547.5,-272.7 672.5,-272.7 672.5,-186.7 547.5,-186.7"/>
<polygon fill="#f5f5f5" stroke="transparent" points="548,-249.7 548,-272.7 673,-272.7 673,-249.7 548,-249.7"/>
<polygon fill="none" stroke="#000000" points="548,-249.7 548,-272.7 673,-272.7 673,-249.7 548,-249.7"/>
<text text-anchor="start" x="553" y="-258.3" font-family="Helvetica,sans-Serif" font-weight="bold" font-size="11.00" fill="#000000">point_aspect</text>
<text text-anchor="start" x="638.5219" y="-257.8" font-family="Helvetica,sans-Serif" font-size="11.00" fill="#000000">[table]</text>
<polygon fill="none" stroke="#000000" points="548,-227.7 548,-249.7 673,-249.7 673,-227.7 548,-227.7"/>
<image xlink:href="../../images/primaryKeys.png" width="11px" height="12px" preserveAspectRatio="xMinYMin meet" x="553" y="-244.7"/>
<text text-anchor="start" x="577" y="-234.8" font-family="Helvetica,sans-Serif" font-size="11.00" fill="#000000">point_id</text>
<polygon fill="none" stroke="#000000" points="548,-205.7 548,-227.7 673,-227.7 673,-205.7 548,-205.7"/>
<image xlink:href="../../images/primaryKeys.png" width="11px" height="12px" preserveAspectRatio="xMinYMin meet" x="553" y="-222.7"/>
<text text-anchor="start" x="577" y="-212.8" font-family="Helvetica,sans-Serif" font-size="11.00" fill="#000000">aspect_id</text>
<polygon fill="#ffffff" stroke="transparent" points="548,-186.7 548,-205.7 579,-205.7 579,-186.7 548,-186.7"/>
<polygon fill="none" stroke="#000000" points="548,-186.7 548,-205.7 579,-205.7 579,-186.7 548,-186.7"/>
<text text-anchor="start" x="551" y="-192.8" font-family="Helvetica,sans-Serif" font-size="11.00" fill="#000000">&lt; 1</text>
<polygon fill="#ffffff" stroke="transparent" points="579,-186.7 579,-205.7 656,-205.7 656,-186.7 579,-186.7"/>
<polygon fill="none" stroke="#000000" points="579,-186.7 579,-205.7 656,-205.7 656,-186.7 579,-186.7"/>
<text text-anchor="start" x="586.9791" y="-192.8" font-family="Helvetica,sans-Serif" font-size="11.00" fill="#000000">800.114 rows</text>
<polygon fill="#ffffff" stroke="transparent" points="656,-186.7 656,-205.7 673,-205.7 673,-186.7 656,-186.7"/>
<polygon fill="none" stroke="#000000" points="656,-186.7 656,-205.7 673,-205.7 673,-186.7 656,-186.7"/>
<text text-anchor="start" x="663.8862" y="-192.8" font-family="Helvetica,sans-Serif" font-size="11.00" fill="#000000"> &#160;</text>
</a>
</g>
</g>
<!-- point_aspect&#45;&gt;aspect -->
<g id="edge17" class="edge">
<title>point_aspect:w&#45;&gt;aspect:e</title>
<path fill="none" stroke="#000000" d="M533.5994,-219.562C496.8417,-236.578 525.0185,-323.7 472.5,-323.7"/>
<polygon fill="#000000" stroke="#000000" points="540.1535,-218.2595 548.7018,-220.2309 544.0767,-217.4797 548,-216.7 548,-216.7 548,-216.7 544.0767,-217.4797 547.2982,-213.1691 540.1535,-218.2595 540.1535,-218.2595"/>
<ellipse fill="none" stroke="#000000" cx="537.0148" cy="-218.8833" rx="3.2" ry="3.2"/>
</g>
<!-- aspect&#45;&gt;aspect_type -->
<g id="edge1" class="edge">
<title>aspect:w&#45;&gt;aspect_type:e</title>
<path fill="none" stroke="#000000" d="M338.064,-277.6144C316.8825,-270.965 310.3221,-250.7 282,-250.7"/>
<polygon fill="#000000" stroke="#000000" points="344.5822,-278.556 351.9852,-283.263 348.5411,-279.128 352.5,-279.7 352.5,-279.7 352.5,-279.7 348.5411,-279.128 353.0148,-276.137 344.5822,-278.556 344.5822,-278.556"/>
<ellipse fill="none" stroke="#000000" cx="341.4151" cy="-278.0985" rx="3.2" ry="3.2"/>
</g>
<!-- mat_aspect -->
<g id="node12" class="node">
<title>mat_aspect</title>
<g id="a_node12"><a xlink:href="../../tables/mat_aspect.html" xlink:title="mat_aspect" target="_top">
<polygon fill="#ffffff" stroke="transparent" points="552,-293.7 552,-379.7 668,-379.7 668,-293.7 552,-293.7"/>
<polygon fill="#f5f5f5" stroke="transparent" points="552,-356.7 552,-379.7 668,-379.7 668,-356.7 552,-356.7"/>
<polygon fill="none" stroke="#000000" points="552,-356.7 552,-379.7 668,-379.7 668,-356.7 552,-356.7"/>
<text text-anchor="start" x="557" y="-365.3" font-family="Helvetica,sans-Serif" font-weight="bold" font-size="11.00" fill="#000000">mat_aspect</text>
<text text-anchor="start" x="633.5219" y="-364.8" font-family="Helvetica,sans-Serif" font-size="11.00" fill="#000000">[table]</text>
<polygon fill="none" stroke="#000000" points="552,-334.7 552,-356.7 668,-356.7 668,-334.7 552,-334.7"/>
<image xlink:href="../../images/primaryKeys.png" width="11px" height="12px" preserveAspectRatio="xMinYMin meet" x="557" y="-351.7"/>
<text text-anchor="start" x="581" y="-341.8" font-family="Helvetica,sans-Serif" font-size="11.00" fill="#000000">mat_id</text>
<polygon fill="none" stroke="#000000" points="552,-312.7 552,-334.7 668,-334.7 668,-312.7 552,-312.7"/>
<image xlink:href="../../images/primaryKeys.png" width="11px" height="12px" preserveAspectRatio="xMinYMin meet" x="557" y="-329.7"/>
<text text-anchor="start" x="581" y="-319.8" font-family="Helvetica,sans-Serif" font-size="11.00" fill="#000000">aspect_id</text>
<polygon fill="#ffffff" stroke="transparent" points="552,-293.7 552,-312.7 595,-312.7 595,-293.7 552,-293.7"/>
<polygon fill="none" stroke="#000000" points="552,-293.7 552,-312.7 595,-312.7 595,-293.7 552,-293.7"/>
<text text-anchor="start" x="555" y="-299.8" font-family="Helvetica,sans-Serif" font-size="11.00" fill="#000000">&lt; 1</text>
<polygon fill="#ffffff" stroke="transparent" points="595,-293.7 595,-312.7 644,-312.7 644,-293.7 595,-293.7"/>
<polygon fill="none" stroke="#000000" points="595,-293.7 595,-312.7 644,-312.7 644,-293.7 595,-293.7"/>
<text text-anchor="start" x="608.6105" y="-299.8" font-family="Helvetica,sans-Serif" font-size="11.00" fill="#000000">0 rows</text>
<polygon fill="#ffffff" stroke="transparent" points="644,-293.7 644,-312.7 668,-312.7 668,-293.7 644,-293.7"/>
<polygon fill="none" stroke="#000000" points="644,-293.7 644,-312.7 668,-312.7 668,-293.7 644,-293.7"/>
<text text-anchor="start" x="658.8862" y="-299.8" font-family="Helvetica,sans-Serif" font-size="11.00" fill="#000000"> &#160;</text>
</a>
</g>
</g>
<!-- mat_aspect&#45;&gt;aspect -->
<g id="edge9" class="edge">
<title>mat_aspect:w&#45;&gt;aspect:e</title>
<path fill="none" stroke="#000000" d="M537.5093,-323.7C513.3602,-323.7 502.4505,-323.7 472.5,-323.7"/>
<polygon fill="#000000" stroke="#000000" points="544,-323.7001 552,-327.3 548,-323.7 552,-323.7 552,-323.7 552,-323.7 548,-323.7 552,-320.1 544,-323.7001 544,-323.7001"/>
<ellipse fill="none" stroke="#000000" cx="540.8" cy="-323.7001" rx="3.2" ry="3.2"/>
</g>
</g>
</svg>
