<?xml version="1.0" encoding="UTF-8" standalone="no"?>
<!DOCTYPE svg PUBLIC "-//W3C//DTD SVG 1.1//EN"
 "http://www.w3.org/Graphics/SVG/1.1/DTD/svg11.dtd">
<!-- Generated by graphviz version 2.40.1 (20161225.0304)
 -->
<!-- Title: orphans Pages: 1 -->
<svg width="264pt" height="349pt"
 viewBox="0.00 0.00 264.00 349.00" xmlns="http://www.w3.org/2000/svg" xmlns:xlink="http://www.w3.org/1999/xlink">
<g id="graph0" class="graph" transform="scale(1 1) rotate(0) translate(4 345)">
<title>orphans</title>
<polygon fill="#ffffff" stroke="transparent" points="-4,4 -4,-345 260,-345 260,4 -4,4"/>
<!-- disabled_fks -->
<g id="node1" class="node">
<title>disabled_fks</title>
<g id="a_node1"><a xlink:href="../../tables/disabled_fks.html" xlink:title="disabled_fks" target="_top">
<polygon fill="#ffffff" stroke="transparent" points="18.5,-4 18.5,-160 237.5,-160 237.5,-4 18.5,-4"/>
<polygon fill="#f5f5f5" stroke="transparent" points="21,-135 21,-158 236,-158 236,-135 21,-135"/>
<polygon fill="none" stroke="#000000" points="21,-135 21,-158 236,-158 236,-135 21,-135"/>
<text text-anchor="start" x="26" y="-143.6" font-family="Helvetica,sans-Serif" font-weight="bold" font-size="11.00" fill="#000000">disabled_fks</text>
<text text-anchor="start" x="201.0437" y="-143.1" font-family="Helvetica,sans-Serif" font-size="11.00" fill="#000000">[table]</text>
<polygon fill="none" stroke="#000000" points="21,-113 21,-135 136,-135 136,-113 21,-113"/>
<text text-anchor="start" x="41" y="-120.1" font-family="Helvetica,sans-Serif" font-size="11.00" fill="#000000">fk_id</text>
<polygon fill="none" stroke="#000000" points="136,-113 136,-135 236,-135 236,-113 136,-113"/>
<text text-anchor="start" x="139" y="-120.7" font-family="Helvetica,sans-Serif" font-size="11.00" fill="#000000">oid[10]</text>
<polygon fill="none" stroke="#000000" points="21,-91 21,-113 136,-113 136,-91 21,-91"/>
<text text-anchor="start" x="41" y="-98.1" font-family="Helvetica,sans-Serif" font-size="11.00" fill="#000000">rel_id</text>
<polygon fill="none" stroke="#000000" points="136,-91 136,-113 236,-113 236,-91 136,-91"/>
<text text-anchor="start" x="139" y="-98.7" font-family="Helvetica,sans-Serif" font-size="11.00" fill="#000000">oid[10]</text>
<polygon fill="none" stroke="#000000" points="21,-69 21,-91 136,-91 136,-69 21,-69"/>
<text text-anchor="start" x="41" y="-76.1" font-family="Helvetica,sans-Serif" font-size="11.00" fill="#000000">fk_name</text>
<polygon fill="none" stroke="#000000" points="136,-69 136,-91 236,-91 236,-69 136,-69"/>
<text text-anchor="start" x="138.6153" y="-76.7" font-family="Helvetica,sans-Serif" font-size="11.00" fill="#000000">name[2147483647]</text>
<polygon fill="none" stroke="#000000" points="21,-47 21,-69 136,-69 136,-47 21,-47"/>
<text text-anchor="start" x="41" y="-54.1" font-family="Helvetica,sans-Serif" font-size="11.00" fill="#000000">fk_def</text>
<polygon fill="none" stroke="#000000" points="136,-47 136,-69 236,-69 236,-47 136,-47"/>
<text text-anchor="start" x="139" y="-54.7" font-family="Helvetica,sans-Serif" font-size="11.00" fill="#000000">text[2147483647]</text>
<polygon fill="none" stroke="#000000" points="21,-25 21,-47 136,-47 136,-25 21,-25"/>
<text text-anchor="start" x="41" y="-32.1" font-family="Helvetica,sans-Serif" font-size="11.00" fill="#000000">schema_name</text>
<polygon fill="none" stroke="#000000" points="136,-25 136,-47 236,-47 236,-25 136,-25"/>
<text text-anchor="start" x="138.6153" y="-32.7" font-family="Helvetica,sans-Serif" font-size="11.00" fill="#000000">name[2147483647]</text>
<polygon fill="#ffffff" stroke="transparent" points="21,-6 21,-25 70,-25 70,-6 21,-6"/>
<polygon fill="none" stroke="#000000" points="21,-6 21,-25 70,-25 70,-6 21,-6"/>
<text text-anchor="start" x="24" y="-12.1" font-family="Helvetica,sans-Serif" font-size="11.00" fill="#000000">&lt; 0</text>
<polygon fill="#ffffff" stroke="transparent" points="70,-6 70,-25 136,-25 136,-6 70,-6"/>
<polygon fill="none" stroke="#000000" points="70,-6 70,-25 136,-25 136,-6 70,-6"/>
<text text-anchor="start" x="100.6105" y="-12.1" font-family="Helvetica,sans-Serif" font-size="11.00" fill="#000000">0 rows</text>
<polygon fill="#ffffff" stroke="transparent" points="136,-6 136,-25 236,-25 236,-6 136,-6"/>
<polygon fill="none" stroke="#000000" points="136,-6 136,-25 236,-25 236,-6 136,-6"/>
<text text-anchor="start" x="217.4053" y="-12.1" font-family="Helvetica,sans-Serif" font-size="11.00" fill="#000000">0 &gt;</text>
<polygon fill="none" stroke="#000000" stroke-width="2" points="19.5,-5 19.5,-159 236.5,-159 236.5,-5 19.5,-5"/>
</a>
</g>
</g>
<!-- disabled_indexes -->
<g id="node2" class="node">
<title>disabled_indexes</title>
<g id="a_node2"><a xlink:href="../../tables/disabled_indexes.html" xlink:title="disabled_indexes" target="_top">
<polygon fill="#ffffff" stroke="transparent" points="8,-181 8,-337 248,-337 248,-181 8,-181"/>
<polygon fill="#f5f5f5" stroke="transparent" points="10,-312 10,-335 246,-335 246,-312 10,-312"/>
<polygon fill="none" stroke="#000000" points="10,-312 10,-335 246,-335 246,-312 10,-312"/>
<text text-anchor="start" x="15" y="-320.6" font-family="Helvetica,sans-Serif" font-weight="bold" font-size="11.00" fill="#000000">disabled_indexes</text>
<text text-anchor="start" x="211.0437" y="-320.1" font-family="Helvetica,sans-Serif" font-size="11.00" fill="#000000">[table]</text>
<polygon fill="none" stroke="#000000" points="10,-290 10,-312 146,-312 146,-290 10,-290"/>
<text text-anchor="start" x="30" y="-297.1" font-family="Helvetica,sans-Serif" font-size="11.00" fill="#000000">ind_id</text>
<polygon fill="none" stroke="#000000" points="146,-290 146,-312 246,-312 246,-290 146,-290"/>
<text text-anchor="start" x="149" y="-297.7" font-family="Helvetica,sans-Serif" font-size="11.00" fill="#000000">oid[10]</text>
<polygon fill="none" stroke="#000000" points="10,-268 10,-290 146,-290 146,-268 10,-268"/>
<text text-anchor="start" x="30" y="-275.1" font-family="Helvetica,sans-Serif" font-size="11.00" fill="#000000">ind_name</text>
<polygon fill="none" stroke="#000000" points="146,-268 146,-290 246,-290 246,-268 146,-268"/>
<text text-anchor="start" x="148.6153" y="-275.7" font-family="Helvetica,sans-Serif" font-size="11.00" fill="#000000">name[2147483647]</text>
<polygon fill="none" stroke="#000000" points="10,-246 10,-268 146,-268 146,-246 10,-246"/>
<text text-anchor="start" x="30" y="-253.1" font-family="Helvetica,sans-Serif" font-size="11.00" fill="#000000">rel_id</text>
<polygon fill="none" stroke="#000000" points="146,-246 146,-268 246,-268 246,-246 146,-246"/>
<text text-anchor="start" x="149" y="-253.7" font-family="Helvetica,sans-Serif" font-size="11.00" fill="#000000">oid[10]</text>
<polygon fill="none" stroke="#000000" points="10,-224 10,-246 146,-246 146,-224 10,-224"/>
<text text-anchor="start" x="30" y="-231.1" font-family="Helvetica,sans-Serif" font-size="11.00" fill="#000000">ind_def</text>
<polygon fill="none" stroke="#000000" points="146,-224 146,-246 246,-246 246,-224 146,-224"/>
<text text-anchor="start" x="149" y="-231.7" font-family="Helvetica,sans-Serif" font-size="11.00" fill="#000000">text[2147483647]</text>
<polygon fill="none" stroke="#000000" points="10,-202 10,-224 146,-224 146,-202 10,-202"/>
<text text-anchor="start" x="30" y="-209.1" font-family="Helvetica,sans-Serif" font-size="11.00" fill="#000000">schema_name</text>
<polygon fill="none" stroke="#000000" points="146,-202 146,-224 246,-224 246,-202 146,-202"/>
<text text-anchor="start" x="148.6153" y="-209.7" font-family="Helvetica,sans-Serif" font-size="11.00" fill="#000000">name[2147483647]</text>
<polygon fill="#ffffff" stroke="transparent" points="10,-183 10,-202 69,-202 69,-183 10,-183"/>
<polygon fill="none" stroke="#000000" points="10,-183 10,-202 69,-202 69,-183 10,-183"/>
<text text-anchor="start" x="13" y="-189.1" font-family="Helvetica,sans-Serif" font-size="11.00" fill="#000000">&lt; 0</text>
<polygon fill="#ffffff" stroke="transparent" points="69,-183 69,-202 146,-202 146,-183 69,-183"/>
<polygon fill="none" stroke="#000000" points="69,-183 69,-202 146,-202 146,-183 69,-183"/>
<text text-anchor="start" x="110.6105" y="-189.1" font-family="Helvetica,sans-Serif" font-size="11.00" fill="#000000">0 rows</text>
<polygon fill="#ffffff" stroke="transparent" points="146,-183 146,-202 246,-202 246,-183 146,-183"/>
<polygon fill="none" stroke="#000000" points="146,-183 146,-202 246,-202 246,-183 146,-183"/>
<text text-anchor="start" x="227.4053" y="-189.1" font-family="Helvetica,sans-Serif" font-size="11.00" fill="#000000">0 &gt;</text>
<polygon fill="none" stroke="#000000" stroke-width="2" points="9,-182 9,-336 247,-336 247,-182 9,-182"/>
</a>
</g>
</g>
</g>
</svg>
