<?xml version="1.0" encoding="UTF-8" standalone="no"?>
<!DOCTYPE svg PUBLIC "-//W3C//DTD SVG 1.1//EN"
 "http://www.w3.org/Graphics/SVG/1.1/DTD/svg11.dtd">
<!-- Generated by graphviz version 2.40.1 (20161225.0304)
 -->
<!-- Title: oneDegreeRelationshipsDiagram Pages: 1 -->
<svg width="214pt" height="184pt"
 viewBox="0.00 0.00 214.00 184.20" xmlns="http://www.w3.org/2000/svg" xmlns:xlink="http://www.w3.org/1999/xlink">
<g id="graph0" class="graph" transform="scale(1 1) rotate(0) translate(4 180.2)">
<title>oneDegreeRelationshipsDiagram</title>
<polygon fill="#ffffff" stroke="transparent" points="-4,4 -4,-180.2 210,-180.2 210,4 -4,4"/>
<text text-anchor="middle" x="72.4936" y="-7.3" font-family="Helvetica,sans-Serif" font-size="11.00" fill="#000000">Generated by SchemaSpy</text>
<!-- point_2007_06_12 -->
<g id="node1" class="node">
<title>point_2007_06_12</title>
<g id="a_node1"><a xlink:href="../../tables/point_2007_06_12.html" xlink:title="point_2007_06_12" target="_top">
<polygon fill="#ffffff" stroke="transparent" points="8,-38.2 8,-172.2 198,-172.2 198,-38.2 8,-38.2"/>
<polygon fill="#f5f5f5" stroke="transparent" points="10,-147.2 10,-170.2 196,-170.2 196,-147.2 10,-147.2"/>
<polygon fill="none" stroke="#000000" points="10,-147.2 10,-170.2 196,-170.2 196,-147.2 10,-147.2"/>
<text text-anchor="start" x="15" y="-155.8" font-family="Helvetica,sans-Serif" font-weight="bold" font-size="11.00" fill="#000000">point_2007_06_12</text>
<text text-anchor="start" x="161.0437" y="-155.3" font-family="Helvetica,sans-Serif" font-size="11.00" fill="#000000">[table]</text>
<polygon fill="#ffffff" stroke="transparent" points="10,-125.2 10,-147.2 151,-147.2 151,-125.2 10,-125.2"/>
<polygon fill="none" stroke="#000000" points="10,-125.2 10,-147.2 151,-147.2 151,-125.2 10,-125.2"/>
<text text-anchor="start" x="30" y="-132.3" font-family="Helvetica,sans-Serif" font-size="11.00" fill="#000000">point_id</text>
<polygon fill="none" stroke="#000000" points="151,-125.2 151,-147.2 196,-147.2 196,-125.2 151,-125.2"/>
<text text-anchor="start" x="154" y="-132.9" font-family="Helvetica,sans-Serif" font-size="11.00" fill="#000000">int4[10]</text>
<polygon fill="none" stroke="#000000" points="10,-103.2 10,-125.2 151,-125.2 151,-103.2 10,-103.2"/>
<text text-anchor="start" x="30" y="-110.3" font-family="Helvetica,sans-Serif" font-size="11.00" fill="#000000">p_order</text>
<polygon fill="none" stroke="#000000" points="151,-103.2 151,-125.2 196,-125.2 196,-103.2 151,-103.2"/>
<text text-anchor="start" x="154" y="-110.9" font-family="Helvetica,sans-Serif" font-size="11.00" fill="#000000">int4[10]</text>
<polygon fill="#ffffff" stroke="transparent" points="10,-81.2 10,-103.2 151,-103.2 151,-81.2 10,-81.2"/>
<polygon fill="none" stroke="#000000" points="10,-81.2 10,-103.2 151,-103.2 151,-81.2 10,-81.2"/>
<text text-anchor="start" x="30" y="-88.3" font-family="Helvetica,sans-Serif" font-size="11.00" fill="#000000">mat_id</text>
<polygon fill="none" stroke="#000000" points="151,-81.2 151,-103.2 196,-103.2 196,-81.2 151,-81.2"/>
<text text-anchor="start" x="154" y="-88.9" font-family="Helvetica,sans-Serif" font-size="11.00" fill="#000000">int4[10]</text>
<polygon fill="none" stroke="#000000" points="10,-59.2 10,-81.2 151,-81.2 151,-59.2 10,-59.2"/>
<text text-anchor="start" x="30" y="-66.3" font-family="Helvetica,sans-Serif" font-size="11.00" fill="#000000">t</text>
<polygon fill="none" stroke="#000000" points="151,-59.2 151,-81.2 196,-81.2 196,-59.2 151,-59.2"/>
<text text-anchor="start" x="153.6274" y="-66.9" font-family="Helvetica,sans-Serif" font-size="11.00" fill="#000000">date[13]</text>
<polygon fill="#ffffff" stroke="transparent" points="10,-40.2 10,-59.2 72,-59.2 72,-40.2 10,-40.2"/>
<polygon fill="none" stroke="#000000" points="10,-40.2 10,-59.2 72,-59.2 72,-40.2 10,-40.2"/>
<text text-anchor="start" x="13" y="-46.3" font-family="Helvetica,sans-Serif" font-size="11.00" fill="#000000">&lt; 0</text>
<polygon fill="#ffffff" stroke="transparent" points="72,-40.2 72,-59.2 151,-59.2 151,-40.2 72,-40.2"/>
<polygon fill="none" stroke="#000000" points="72,-40.2 72,-59.2 151,-59.2 151,-40.2 72,-40.2"/>
<text text-anchor="start" x="115.6105" y="-46.3" font-family="Helvetica,sans-Serif" font-size="11.00" fill="#000000">0 rows</text>
<polygon fill="#ffffff" stroke="transparent" points="151,-40.2 151,-59.2 196,-59.2 196,-40.2 151,-40.2"/>
<polygon fill="none" stroke="#000000" points="151,-40.2 151,-59.2 196,-59.2 196,-40.2 151,-40.2"/>
<text text-anchor="start" x="177.4053" y="-46.3" font-family="Helvetica,sans-Serif" font-size="11.00" fill="#000000">0 &gt;</text>
<polygon fill="none" stroke="#000000" stroke-width="2" points="9,-39.2 9,-171.2 197,-171.2 197,-39.2 9,-39.2"/>
</a>
</g>
</g>
</g>
</svg>
