<?xml version="1.0" encoding="UTF-8" standalone="no"?>
<!DOCTYPE svg PUBLIC "-//W3C//DTD SVG 1.1//EN"
 "http://www.w3.org/Graphics/SVG/1.1/DTD/svg11.dtd">
<!-- Generated by graphviz version 2.40.1 (20161225.0304)
 -->
<!-- Title: oneDegreeRelationshipsDiagram Pages: 1 -->
<svg width="253pt" height="184pt"
 viewBox="0.00 0.00 253.00 184.20" xmlns="http://www.w3.org/2000/svg" xmlns:xlink="http://www.w3.org/1999/xlink">
<g id="graph0" class="graph" transform="scale(1 1) rotate(0) translate(4 180.2)">
<title>oneDegreeRelationshipsDiagram</title>
<polygon fill="#ffffff" stroke="transparent" points="-4,4 -4,-180.2 249,-180.2 249,4 -4,4"/>
<text text-anchor="middle" x="72.4936" y="-7.3" font-family="Helvetica,sans-Serif" font-size="11.00" fill="#000000">Generated by SchemaSpy</text>
<!-- point_2012_08_19 -->
<g id="node1" class="node">
<title>point_2012_08_19</title>
<g id="a_node1"><a xlink:href="../../tables/point_2012_08_19.html" xlink:title="point_2012_08_19" target="_top">
<polygon fill="#ffffff" stroke="transparent" points="8,-38.2 8,-172.2 237,-172.2 237,-38.2 8,-38.2"/>
<polygon fill="#f5f5f5" stroke="transparent" points="10.5,-147.2 10.5,-170.2 235.5,-170.2 235.5,-147.2 10.5,-147.2"/>
<polygon fill="none" stroke="#000000" points="10.5,-147.2 10.5,-170.2 235.5,-170.2 235.5,-147.2 10.5,-147.2"/>
<text text-anchor="start" x="15.5" y="-155.8" font-family="Helvetica,sans-Serif" font-weight="bold" font-size="11.00" fill="#000000">point_2012_08_19</text>
<text text-anchor="start" x="200.5437" y="-155.3" font-family="Helvetica,sans-Serif" font-size="11.00" fill="#000000">[table]</text>
<polygon fill="#ffffff" stroke="transparent" points="10.5,-125.2 10.5,-147.2 151.5,-147.2 151.5,-125.2 10.5,-125.2"/>
<polygon fill="none" stroke="#000000" points="10.5,-125.2 10.5,-147.2 151.5,-147.2 151.5,-125.2 10.5,-125.2"/>
<text text-anchor="start" x="30.5" y="-132.3" font-family="Helvetica,sans-Serif" font-size="11.00" fill="#000000">point_id</text>
<polygon fill="none" stroke="#000000" points="151.5,-125.2 151.5,-147.2 235.5,-147.2 235.5,-125.2 151.5,-125.2"/>
<text text-anchor="start" x="154.5" y="-132.9" font-family="Helvetica,sans-Serif" font-size="11.00" fill="#000000">int4[10]</text>
<polygon fill="none" stroke="#000000" points="10.5,-103.2 10.5,-125.2 151.5,-125.2 151.5,-103.2 10.5,-103.2"/>
<text text-anchor="start" x="30.5" y="-110.3" font-family="Helvetica,sans-Serif" font-size="11.00" fill="#000000">p_order</text>
<polygon fill="none" stroke="#000000" points="151.5,-103.2 151.5,-125.2 235.5,-125.2 235.5,-103.2 151.5,-103.2"/>
<text text-anchor="start" x="154.5" y="-110.9" font-family="Helvetica,sans-Serif" font-size="11.00" fill="#000000">int4[10]</text>
<polygon fill="none" stroke="#000000" points="10.5,-81.2 10.5,-103.2 151.5,-103.2 151.5,-81.2 10.5,-81.2"/>
<text text-anchor="start" x="30.5" y="-88.3" font-family="Helvetica,sans-Serif" font-size="11.00" fill="#000000">mat_id</text>
<polygon fill="none" stroke="#000000" points="151.5,-81.2 151.5,-103.2 235.5,-103.2 235.5,-81.2 151.5,-81.2"/>
<text text-anchor="start" x="154.5" y="-88.9" font-family="Helvetica,sans-Serif" font-size="11.00" fill="#000000">int4[10]</text>
<polygon fill="none" stroke="#000000" points="10.5,-59.2 10.5,-81.2 151.5,-81.2 151.5,-59.2 10.5,-59.2"/>
<text text-anchor="start" x="30.5" y="-66.3" font-family="Helvetica,sans-Serif" font-size="11.00" fill="#000000">t</text>
<polygon fill="none" stroke="#000000" points="151.5,-59.2 151.5,-81.2 235.5,-81.2 235.5,-59.2 151.5,-59.2"/>
<text text-anchor="start" x="154.3807" y="-66.9" font-family="Helvetica,sans-Serif" font-size="11.00" fill="#000000">timestamp[29,6]</text>
<polygon fill="#ffffff" stroke="transparent" points="10.5,-40.2 10.5,-59.2 61.5,-59.2 61.5,-40.2 10.5,-40.2"/>
<polygon fill="none" stroke="#000000" points="10.5,-40.2 10.5,-59.2 61.5,-59.2 61.5,-40.2 10.5,-40.2"/>
<text text-anchor="start" x="13.5" y="-46.3" font-family="Helvetica,sans-Serif" font-size="11.00" fill="#000000">&lt; 0</text>
<polygon fill="#ffffff" stroke="transparent" points="61.5,-40.2 61.5,-59.2 151.5,-59.2 151.5,-40.2 61.5,-40.2"/>
<polygon fill="none" stroke="#000000" points="61.5,-40.2 61.5,-59.2 151.5,-59.2 151.5,-40.2 61.5,-40.2"/>
<text text-anchor="start" x="94.7089" y="-46.3" font-family="Helvetica,sans-Serif" font-size="11.00" fill="#000000">5.551 rows</text>
<polygon fill="#ffffff" stroke="transparent" points="151.5,-40.2 151.5,-59.2 235.5,-59.2 235.5,-40.2 151.5,-40.2"/>
<polygon fill="none" stroke="#000000" points="151.5,-40.2 151.5,-59.2 235.5,-59.2 235.5,-40.2 151.5,-40.2"/>
<text text-anchor="start" x="216.9053" y="-46.3" font-family="Helvetica,sans-Serif" font-size="11.00" fill="#000000">0 &gt;</text>
<polygon fill="none" stroke="#000000" stroke-width="2" points="9,-39.2 9,-171.2 236,-171.2 236,-39.2 9,-39.2"/>
</a>
</g>
</g>
</g>
</svg>
