<?xml version="1.0" encoding="UTF-8" standalone="no"?>
<!DOCTYPE svg PUBLIC "-//W3C//DTD SVG 1.1//EN"
 "http://www.w3.org/Graphics/SVG/1.1/DTD/svg11.dtd">
<!-- Generated by graphviz version 2.40.1 (20161225.0304)
 -->
<!-- Title: orphans Pages: 1 -->
<svg width="186pt" height="150pt"
 viewBox="0.00 0.00 186.00 150.00" xmlns="http://www.w3.org/2000/svg" xmlns:xlink="http://www.w3.org/1999/xlink">
<g id="graph0" class="graph" transform="scale(1 1) rotate(0) translate(4 146)">
<title>orphans</title>
<polygon fill="#ffffff" stroke="transparent" points="-4,4 -4,-146 182,-146 182,4 -4,4"/>
<!-- point -->
<g id="node1" class="node">
<title>point</title>
<g id="a_node1"><a xlink:href="../../tables/point.html" xlink:title="point" target="_top">
<polygon fill="#ffffff" stroke="transparent" points="8,-4 8,-138 170,-138 170,-4 8,-4"/>
<polygon fill="#f5f5f5" stroke="transparent" points="10,-113 10,-136 168,-136 168,-113 10,-113"/>
<polygon fill="none" stroke="#000000" points="10,-113 10,-136 168,-136 168,-113 10,-113"/>
<text text-anchor="start" x="15" y="-121.6" font-family="Helvetica,sans-Serif" font-weight="bold" font-size="11.00" fill="#000000">point</text>
<text text-anchor="start" x="133.0437" y="-121.1" font-family="Helvetica,sans-Serif" font-size="11.00" fill="#000000">[table]</text>
<polygon fill="none" stroke="#000000" points="10,-91 10,-113 84,-113 84,-91 10,-91"/>
<image xlink:href="../../images/primaryKeys.png" width="11px" height="12px" preserveAspectRatio="xMinYMin meet" x="15" y="-108"/>
<text text-anchor="start" x="30" y="-98.1" font-family="Helvetica,sans-Serif" font-size="11.00" fill="#000000">point_id</text>
<polygon fill="none" stroke="#000000" points="84,-91 84,-113 168,-113 168,-91 84,-91"/>
<text text-anchor="start" x="87" y="-98.7" font-family="Helvetica,sans-Serif" font-size="11.00" fill="#000000">int4[10]</text>
<polygon fill="none" stroke="#000000" points="10,-69 10,-91 84,-91 84,-69 10,-69"/>
<text text-anchor="start" x="30" y="-76.1" font-family="Helvetica,sans-Serif" font-size="11.00" fill="#000000">p_order</text>
<polygon fill="none" stroke="#000000" points="84,-69 84,-91 168,-91 168,-69 84,-69"/>
<text text-anchor="start" x="87" y="-76.7" font-family="Helvetica,sans-Serif" font-size="11.00" fill="#000000">int4[10]</text>
<polygon fill="#ffffff" stroke="transparent" points="10,-47 10,-69 84,-69 84,-47 10,-47"/>
<polygon fill="none" stroke="#000000" points="10,-47 10,-69 84,-69 84,-47 10,-47"/>
<image xlink:href="../../images/foreignKeys.png" width="11px" height="12px" preserveAspectRatio="xMinYMin meet" x="15" y="-64"/>
<text text-anchor="start" x="30" y="-54.1" font-family="Helvetica,sans-Serif" font-size="11.00" fill="#000000">mat_id</text>
<polygon fill="none" stroke="#000000" points="84,-47 84,-69 168,-69 168,-47 84,-47"/>
<text text-anchor="start" x="87" y="-54.7" font-family="Helvetica,sans-Serif" font-size="11.00" fill="#000000">int4[10]</text>
<polygon fill="none" stroke="#000000" points="10,-25 10,-47 84,-47 84,-25 10,-25"/>
<text text-anchor="start" x="30" y="-32.1" font-family="Helvetica,sans-Serif" font-size="11.00" fill="#000000">t</text>
<polygon fill="none" stroke="#000000" points="84,-25 84,-47 168,-47 168,-25 84,-25"/>
<text text-anchor="start" x="86.8807" y="-32.7" font-family="Helvetica,sans-Serif" font-size="11.00" fill="#000000">timestamp[29,6]</text>
<polygon fill="#ffffff" stroke="transparent" points="10,-6 10,-25 38,-25 38,-6 10,-6"/>
<polygon fill="none" stroke="#000000" points="10,-6 10,-25 38,-25 38,-6 10,-6"/>
<text text-anchor="start" x="13" y="-12.1" font-family="Helvetica,sans-Serif" font-size="11.00" fill="#000000">&lt; 0</text>
<polygon fill="#ffffff" stroke="transparent" points="38,-6 38,-25 84,-25 84,-6 38,-6"/>
<polygon fill="none" stroke="#000000" points="38,-6 38,-25 84,-25 84,-6 38,-6"/>
<text text-anchor="start" x="48.6105" y="-12.1" font-family="Helvetica,sans-Serif" font-size="11.00" fill="#000000">0 rows</text>
<polygon fill="#ffffff" stroke="transparent" points="84,-6 84,-25 168,-25 168,-6 84,-6"/>
<polygon fill="none" stroke="#000000" points="84,-6 84,-25 168,-25 168,-6 84,-6"/>
<text text-anchor="start" x="149.4053" y="-12.1" font-family="Helvetica,sans-Serif" font-size="11.00" fill="#000000">0 &gt;</text>
<polygon fill="none" stroke="#000000" stroke-width="2" points="9,-5 9,-137 169,-137 169,-5 9,-5"/>
</a>
</g>
</g>
</g>
</svg>
