<?xml version="1.0" encoding="UTF-8" standalone="no"?>
<!DOCTYPE svg PUBLIC "-//W3C//DTD SVG 1.1//EN"
 "http://www.w3.org/Graphics/SVG/1.1/DTD/svg11.dtd">
<!-- Generated by graphviz version 2.40.1 (20161225.0304)
 -->
<!-- Title: oneDegreeRelationshipsDiagram Pages: 1 -->
<svg width="153pt" height="118pt"
 viewBox="0.00 0.00 152.99 118.20" xmlns="http://www.w3.org/2000/svg" xmlns:xlink="http://www.w3.org/1999/xlink">
<g id="graph0" class="graph" transform="scale(1 1) rotate(0) translate(4 114.2)">
<title>oneDegreeRelationshipsDiagram</title>
<polygon fill="#ffffff" stroke="transparent" points="-4,4 -4,-114.2 148.9871,-114.2 148.9871,4 -4,4"/>
<text text-anchor="middle" x="72.4936" y="-7.3" font-family="Helvetica,sans-Serif" font-size="11.00" fill="#000000">Generated by SchemaSpy</text>
<!-- dummy -->
<g id="node1" class="node">
<title>dummy</title>
<g id="a_node1"><a xlink:href="../../tables/dummy.html" xlink:title="dummy" target="_top">
<polygon fill="#ffffff" stroke="transparent" points="14.4936,-38.2 14.4936,-106.2 130.4936,-106.2 130.4936,-38.2 14.4936,-38.2"/>
<polygon fill="#f5f5f5" stroke="transparent" points="16.4936,-81.2 16.4936,-104.2 128.4936,-104.2 128.4936,-81.2 16.4936,-81.2"/>
<polygon fill="none" stroke="#000000" points="16.4936,-81.2 16.4936,-104.2 128.4936,-104.2 128.4936,-81.2 16.4936,-81.2"/>
<text text-anchor="start" x="21.4935" y="-89.8" font-family="Helvetica,sans-Serif" font-weight="bold" font-size="11.00" fill="#000000">dummy</text>
<text text-anchor="start" x="93.5373" y="-89.3" font-family="Helvetica,sans-Serif" font-size="11.00" fill="#000000">[table]</text>
<polygon fill="none" stroke="#000000" points="16.4936,-59.2 16.4936,-81.2 86.4936,-81.2 86.4936,-59.2 16.4936,-59.2"/>
<text text-anchor="start" x="36.4936" y="-66.3" font-family="Helvetica,sans-Serif" font-size="11.00" fill="#000000">a</text>
<polygon fill="none" stroke="#000000" points="86.4936,-59.2 86.4936,-81.2 128.4936,-81.2 128.4936,-59.2 86.4936,-59.2"/>
<text text-anchor="start" x="89.458" y="-66.9" font-family="Helvetica,sans-Serif" font-size="11.00" fill="#000000">int4[10]</text>
<polygon fill="#ffffff" stroke="transparent" points="16.4936,-40.2 16.4936,-59.2 55.4936,-59.2 55.4936,-40.2 16.4936,-40.2"/>
<polygon fill="none" stroke="#000000" points="16.4936,-40.2 16.4936,-59.2 55.4936,-59.2 55.4936,-40.2 16.4936,-40.2"/>
<text text-anchor="start" x="19.4936" y="-46.3" font-family="Helvetica,sans-Serif" font-size="11.00" fill="#000000">&lt; 0</text>
<polygon fill="#ffffff" stroke="transparent" points="55.4936,-40.2 55.4936,-59.2 86.4936,-59.2 86.4936,-40.2 55.4936,-40.2"/>
<polygon fill="none" stroke="#000000" points="55.4936,-40.2 55.4936,-59.2 86.4936,-59.2 86.4936,-40.2 55.4936,-40.2"/>
<text text-anchor="start" x="77.3798" y="-46.3" font-family="Helvetica,sans-Serif" font-size="11.00" fill="#000000"> &#160;</text>
<polygon fill="#ffffff" stroke="transparent" points="86.4936,-40.2 86.4936,-59.2 128.4936,-59.2 128.4936,-40.2 86.4936,-40.2"/>
<polygon fill="none" stroke="#000000" points="86.4936,-40.2 86.4936,-59.2 128.4936,-59.2 128.4936,-40.2 86.4936,-40.2"/>
<text text-anchor="start" x="109.8989" y="-46.3" font-family="Helvetica,sans-Serif" font-size="11.00" fill="#000000">0 &gt;</text>
<polygon fill="none" stroke="#000000" stroke-width="2" points="15.4936,-39.2 15.4936,-105.2 129.4936,-105.2 129.4936,-39.2 15.4936,-39.2"/>
</a>
</g>
</g>
</g>
</svg>
